%TF.GenerationSoftware,KiCad,Pcbnew,7.0.10*%
%TF.CreationDate,2024-08-19T03:07:17+10:00*%
%TF.ProjectId,AI4R-PIHAT,41493452-2d50-4494-9841-542e6b696361,rev?*%
%TF.SameCoordinates,Original*%
%TF.FileFunction,Legend,Top*%
%TF.FilePolarity,Positive*%
%FSLAX46Y46*%
G04 Gerber Fmt 4.6, Leading zero omitted, Abs format (unit mm)*
G04 Created by KiCad (PCBNEW 7.0.10) date 2024-08-19 03:07:17*
%MOMM*%
%LPD*%
G01*
G04 APERTURE LIST*
%ADD10C,0.100000*%
%ADD11C,0.150000*%
%ADD12C,0.120000*%
%ADD13C,0.127000*%
%ADD14C,0.350000*%
G04 APERTURE END LIST*
D10*
X38696895Y-60019925D02*
X38696895Y-59524687D01*
X38696895Y-59524687D02*
X39001657Y-59791353D01*
X39001657Y-59791353D02*
X39001657Y-59677068D01*
X39001657Y-59677068D02*
X39039752Y-59600877D01*
X39039752Y-59600877D02*
X39077847Y-59562782D01*
X39077847Y-59562782D02*
X39154038Y-59524687D01*
X39154038Y-59524687D02*
X39344514Y-59524687D01*
X39344514Y-59524687D02*
X39420704Y-59562782D01*
X39420704Y-59562782D02*
X39458800Y-59600877D01*
X39458800Y-59600877D02*
X39496895Y-59677068D01*
X39496895Y-59677068D02*
X39496895Y-59905639D01*
X39496895Y-59905639D02*
X39458800Y-59981830D01*
X39458800Y-59981830D02*
X39420704Y-60019925D01*
X38696895Y-59296115D02*
X39496895Y-59029448D01*
X39496895Y-59029448D02*
X38696895Y-58762782D01*
X38696895Y-58572306D02*
X38696895Y-58077068D01*
X38696895Y-58077068D02*
X39001657Y-58343734D01*
X39001657Y-58343734D02*
X39001657Y-58229449D01*
X39001657Y-58229449D02*
X39039752Y-58153258D01*
X39039752Y-58153258D02*
X39077847Y-58115163D01*
X39077847Y-58115163D02*
X39154038Y-58077068D01*
X39154038Y-58077068D02*
X39344514Y-58077068D01*
X39344514Y-58077068D02*
X39420704Y-58115163D01*
X39420704Y-58115163D02*
X39458800Y-58153258D01*
X39458800Y-58153258D02*
X39496895Y-58229449D01*
X39496895Y-58229449D02*
X39496895Y-58458020D01*
X39496895Y-58458020D02*
X39458800Y-58534211D01*
X39458800Y-58534211D02*
X39420704Y-58572306D01*
X40934990Y-59524687D02*
X40896895Y-59600877D01*
X40896895Y-59600877D02*
X40896895Y-59715163D01*
X40896895Y-59715163D02*
X40934990Y-59829449D01*
X40934990Y-59829449D02*
X41011180Y-59905639D01*
X41011180Y-59905639D02*
X41087371Y-59943734D01*
X41087371Y-59943734D02*
X41239752Y-59981830D01*
X41239752Y-59981830D02*
X41354038Y-59981830D01*
X41354038Y-59981830D02*
X41506419Y-59943734D01*
X41506419Y-59943734D02*
X41582609Y-59905639D01*
X41582609Y-59905639D02*
X41658800Y-59829449D01*
X41658800Y-59829449D02*
X41696895Y-59715163D01*
X41696895Y-59715163D02*
X41696895Y-59638972D01*
X41696895Y-59638972D02*
X41658800Y-59524687D01*
X41658800Y-59524687D02*
X41620704Y-59486591D01*
X41620704Y-59486591D02*
X41354038Y-59486591D01*
X41354038Y-59486591D02*
X41354038Y-59638972D01*
X41696895Y-59143734D02*
X40896895Y-59143734D01*
X40896895Y-59143734D02*
X40896895Y-58838972D01*
X40896895Y-58838972D02*
X40934990Y-58762782D01*
X40934990Y-58762782D02*
X40973085Y-58724687D01*
X40973085Y-58724687D02*
X41049276Y-58686591D01*
X41049276Y-58686591D02*
X41163561Y-58686591D01*
X41163561Y-58686591D02*
X41239752Y-58724687D01*
X41239752Y-58724687D02*
X41277847Y-58762782D01*
X41277847Y-58762782D02*
X41315942Y-58838972D01*
X41315942Y-58838972D02*
X41315942Y-59143734D01*
X41696895Y-58343734D02*
X40896895Y-58343734D01*
X40896895Y-57810401D02*
X40896895Y-57658020D01*
X40896895Y-57658020D02*
X40934990Y-57581830D01*
X40934990Y-57581830D02*
X41011180Y-57505639D01*
X41011180Y-57505639D02*
X41163561Y-57467544D01*
X41163561Y-57467544D02*
X41430228Y-57467544D01*
X41430228Y-57467544D02*
X41582609Y-57505639D01*
X41582609Y-57505639D02*
X41658800Y-57581830D01*
X41658800Y-57581830D02*
X41696895Y-57658020D01*
X41696895Y-57658020D02*
X41696895Y-57810401D01*
X41696895Y-57810401D02*
X41658800Y-57886592D01*
X41658800Y-57886592D02*
X41582609Y-57962782D01*
X41582609Y-57962782D02*
X41430228Y-58000878D01*
X41430228Y-58000878D02*
X41163561Y-58000878D01*
X41163561Y-58000878D02*
X41011180Y-57962782D01*
X41011180Y-57962782D02*
X40934990Y-57886592D01*
X40934990Y-57886592D02*
X40896895Y-57810401D01*
X41696895Y-56705640D02*
X41696895Y-57162783D01*
X41696895Y-56934211D02*
X40896895Y-56934211D01*
X40896895Y-56934211D02*
X41011180Y-57010402D01*
X41011180Y-57010402D02*
X41087371Y-57086592D01*
X41087371Y-57086592D02*
X41125466Y-57162783D01*
X40896895Y-56438973D02*
X40896895Y-55943735D01*
X40896895Y-55943735D02*
X41201657Y-56210401D01*
X41201657Y-56210401D02*
X41201657Y-56096116D01*
X41201657Y-56096116D02*
X41239752Y-56019925D01*
X41239752Y-56019925D02*
X41277847Y-55981830D01*
X41277847Y-55981830D02*
X41354038Y-55943735D01*
X41354038Y-55943735D02*
X41544514Y-55943735D01*
X41544514Y-55943735D02*
X41620704Y-55981830D01*
X41620704Y-55981830D02*
X41658800Y-56019925D01*
X41658800Y-56019925D02*
X41696895Y-56096116D01*
X41696895Y-56096116D02*
X41696895Y-56324687D01*
X41696895Y-56324687D02*
X41658800Y-56400878D01*
X41658800Y-56400878D02*
X41620704Y-56438973D01*
X54134990Y-59424687D02*
X54096895Y-59500877D01*
X54096895Y-59500877D02*
X54096895Y-59615163D01*
X54096895Y-59615163D02*
X54134990Y-59729449D01*
X54134990Y-59729449D02*
X54211180Y-59805639D01*
X54211180Y-59805639D02*
X54287371Y-59843734D01*
X54287371Y-59843734D02*
X54439752Y-59881830D01*
X54439752Y-59881830D02*
X54554038Y-59881830D01*
X54554038Y-59881830D02*
X54706419Y-59843734D01*
X54706419Y-59843734D02*
X54782609Y-59805639D01*
X54782609Y-59805639D02*
X54858800Y-59729449D01*
X54858800Y-59729449D02*
X54896895Y-59615163D01*
X54896895Y-59615163D02*
X54896895Y-59538972D01*
X54896895Y-59538972D02*
X54858800Y-59424687D01*
X54858800Y-59424687D02*
X54820704Y-59386591D01*
X54820704Y-59386591D02*
X54554038Y-59386591D01*
X54554038Y-59386591D02*
X54554038Y-59538972D01*
X54896895Y-59043734D02*
X54096895Y-59043734D01*
X54096895Y-59043734D02*
X54096895Y-58738972D01*
X54096895Y-58738972D02*
X54134990Y-58662782D01*
X54134990Y-58662782D02*
X54173085Y-58624687D01*
X54173085Y-58624687D02*
X54249276Y-58586591D01*
X54249276Y-58586591D02*
X54363561Y-58586591D01*
X54363561Y-58586591D02*
X54439752Y-58624687D01*
X54439752Y-58624687D02*
X54477847Y-58662782D01*
X54477847Y-58662782D02*
X54515942Y-58738972D01*
X54515942Y-58738972D02*
X54515942Y-59043734D01*
X54896895Y-58243734D02*
X54096895Y-58243734D01*
X54096895Y-57710401D02*
X54096895Y-57558020D01*
X54096895Y-57558020D02*
X54134990Y-57481830D01*
X54134990Y-57481830D02*
X54211180Y-57405639D01*
X54211180Y-57405639D02*
X54363561Y-57367544D01*
X54363561Y-57367544D02*
X54630228Y-57367544D01*
X54630228Y-57367544D02*
X54782609Y-57405639D01*
X54782609Y-57405639D02*
X54858800Y-57481830D01*
X54858800Y-57481830D02*
X54896895Y-57558020D01*
X54896895Y-57558020D02*
X54896895Y-57710401D01*
X54896895Y-57710401D02*
X54858800Y-57786592D01*
X54858800Y-57786592D02*
X54782609Y-57862782D01*
X54782609Y-57862782D02*
X54630228Y-57900878D01*
X54630228Y-57900878D02*
X54363561Y-57900878D01*
X54363561Y-57900878D02*
X54211180Y-57862782D01*
X54211180Y-57862782D02*
X54134990Y-57786592D01*
X54134990Y-57786592D02*
X54096895Y-57710401D01*
X54363561Y-56681830D02*
X54896895Y-56681830D01*
X54058800Y-56872306D02*
X54630228Y-57062783D01*
X54630228Y-57062783D02*
X54630228Y-56567544D01*
X32734990Y-59724687D02*
X32696895Y-59800877D01*
X32696895Y-59800877D02*
X32696895Y-59915163D01*
X32696895Y-59915163D02*
X32734990Y-60029449D01*
X32734990Y-60029449D02*
X32811180Y-60105639D01*
X32811180Y-60105639D02*
X32887371Y-60143734D01*
X32887371Y-60143734D02*
X33039752Y-60181830D01*
X33039752Y-60181830D02*
X33154038Y-60181830D01*
X33154038Y-60181830D02*
X33306419Y-60143734D01*
X33306419Y-60143734D02*
X33382609Y-60105639D01*
X33382609Y-60105639D02*
X33458800Y-60029449D01*
X33458800Y-60029449D02*
X33496895Y-59915163D01*
X33496895Y-59915163D02*
X33496895Y-59838972D01*
X33496895Y-59838972D02*
X33458800Y-59724687D01*
X33458800Y-59724687D02*
X33420704Y-59686591D01*
X33420704Y-59686591D02*
X33154038Y-59686591D01*
X33154038Y-59686591D02*
X33154038Y-59838972D01*
X33496895Y-59343734D02*
X32696895Y-59343734D01*
X32696895Y-59343734D02*
X32696895Y-59038972D01*
X32696895Y-59038972D02*
X32734990Y-58962782D01*
X32734990Y-58962782D02*
X32773085Y-58924687D01*
X32773085Y-58924687D02*
X32849276Y-58886591D01*
X32849276Y-58886591D02*
X32963561Y-58886591D01*
X32963561Y-58886591D02*
X33039752Y-58924687D01*
X33039752Y-58924687D02*
X33077847Y-58962782D01*
X33077847Y-58962782D02*
X33115942Y-59038972D01*
X33115942Y-59038972D02*
X33115942Y-59343734D01*
X33496895Y-58543734D02*
X32696895Y-58543734D01*
X32696895Y-58010401D02*
X32696895Y-57858020D01*
X32696895Y-57858020D02*
X32734990Y-57781830D01*
X32734990Y-57781830D02*
X32811180Y-57705639D01*
X32811180Y-57705639D02*
X32963561Y-57667544D01*
X32963561Y-57667544D02*
X33230228Y-57667544D01*
X33230228Y-57667544D02*
X33382609Y-57705639D01*
X33382609Y-57705639D02*
X33458800Y-57781830D01*
X33458800Y-57781830D02*
X33496895Y-57858020D01*
X33496895Y-57858020D02*
X33496895Y-58010401D01*
X33496895Y-58010401D02*
X33458800Y-58086592D01*
X33458800Y-58086592D02*
X33382609Y-58162782D01*
X33382609Y-58162782D02*
X33230228Y-58200878D01*
X33230228Y-58200878D02*
X32963561Y-58200878D01*
X32963561Y-58200878D02*
X32811180Y-58162782D01*
X32811180Y-58162782D02*
X32734990Y-58086592D01*
X32734990Y-58086592D02*
X32696895Y-58010401D01*
X32773085Y-57362783D02*
X32734990Y-57324687D01*
X32734990Y-57324687D02*
X32696895Y-57248497D01*
X32696895Y-57248497D02*
X32696895Y-57058021D01*
X32696895Y-57058021D02*
X32734990Y-56981830D01*
X32734990Y-56981830D02*
X32773085Y-56943735D01*
X32773085Y-56943735D02*
X32849276Y-56905640D01*
X32849276Y-56905640D02*
X32925466Y-56905640D01*
X32925466Y-56905640D02*
X33039752Y-56943735D01*
X33039752Y-56943735D02*
X33496895Y-57400878D01*
X33496895Y-57400878D02*
X33496895Y-56905640D01*
X32696895Y-56638973D02*
X32696895Y-56143735D01*
X32696895Y-56143735D02*
X33001657Y-56410401D01*
X33001657Y-56410401D02*
X33001657Y-56296116D01*
X33001657Y-56296116D02*
X33039752Y-56219925D01*
X33039752Y-56219925D02*
X33077847Y-56181830D01*
X33077847Y-56181830D02*
X33154038Y-56143735D01*
X33154038Y-56143735D02*
X33344514Y-56143735D01*
X33344514Y-56143735D02*
X33420704Y-56181830D01*
X33420704Y-56181830D02*
X33458800Y-56219925D01*
X33458800Y-56219925D02*
X33496895Y-56296116D01*
X33496895Y-56296116D02*
X33496895Y-56524687D01*
X33496895Y-56524687D02*
X33458800Y-56600878D01*
X33458800Y-56600878D02*
X33420704Y-56638973D01*
X70075312Y-60934990D02*
X69999122Y-60896895D01*
X69999122Y-60896895D02*
X69884836Y-60896895D01*
X69884836Y-60896895D02*
X69770550Y-60934990D01*
X69770550Y-60934990D02*
X69694360Y-61011180D01*
X69694360Y-61011180D02*
X69656265Y-61087371D01*
X69656265Y-61087371D02*
X69618169Y-61239752D01*
X69618169Y-61239752D02*
X69618169Y-61354038D01*
X69618169Y-61354038D02*
X69656265Y-61506419D01*
X69656265Y-61506419D02*
X69694360Y-61582609D01*
X69694360Y-61582609D02*
X69770550Y-61658800D01*
X69770550Y-61658800D02*
X69884836Y-61696895D01*
X69884836Y-61696895D02*
X69961027Y-61696895D01*
X69961027Y-61696895D02*
X70075312Y-61658800D01*
X70075312Y-61658800D02*
X70113408Y-61620704D01*
X70113408Y-61620704D02*
X70113408Y-61354038D01*
X70113408Y-61354038D02*
X69961027Y-61354038D01*
X70456265Y-61696895D02*
X70456265Y-60896895D01*
X70456265Y-60896895D02*
X70761027Y-60896895D01*
X70761027Y-60896895D02*
X70837217Y-60934990D01*
X70837217Y-60934990D02*
X70875312Y-60973085D01*
X70875312Y-60973085D02*
X70913408Y-61049276D01*
X70913408Y-61049276D02*
X70913408Y-61163561D01*
X70913408Y-61163561D02*
X70875312Y-61239752D01*
X70875312Y-61239752D02*
X70837217Y-61277847D01*
X70837217Y-61277847D02*
X70761027Y-61315942D01*
X70761027Y-61315942D02*
X70456265Y-61315942D01*
X71218169Y-60973085D02*
X71256265Y-60934990D01*
X71256265Y-60934990D02*
X71332455Y-60896895D01*
X71332455Y-60896895D02*
X71522931Y-60896895D01*
X71522931Y-60896895D02*
X71599122Y-60934990D01*
X71599122Y-60934990D02*
X71637217Y-60973085D01*
X71637217Y-60973085D02*
X71675312Y-61049276D01*
X71675312Y-61049276D02*
X71675312Y-61125466D01*
X71675312Y-61125466D02*
X71637217Y-61239752D01*
X71637217Y-61239752D02*
X71180074Y-61696895D01*
X71180074Y-61696895D02*
X71675312Y-61696895D01*
X72361027Y-60896895D02*
X72208646Y-60896895D01*
X72208646Y-60896895D02*
X72132455Y-60934990D01*
X72132455Y-60934990D02*
X72094360Y-60973085D01*
X72094360Y-60973085D02*
X72018170Y-61087371D01*
X72018170Y-61087371D02*
X71980074Y-61239752D01*
X71980074Y-61239752D02*
X71980074Y-61544514D01*
X71980074Y-61544514D02*
X72018170Y-61620704D01*
X72018170Y-61620704D02*
X72056265Y-61658800D01*
X72056265Y-61658800D02*
X72132455Y-61696895D01*
X72132455Y-61696895D02*
X72284836Y-61696895D01*
X72284836Y-61696895D02*
X72361027Y-61658800D01*
X72361027Y-61658800D02*
X72399122Y-61620704D01*
X72399122Y-61620704D02*
X72437217Y-61544514D01*
X72437217Y-61544514D02*
X72437217Y-61354038D01*
X72437217Y-61354038D02*
X72399122Y-61277847D01*
X72399122Y-61277847D02*
X72361027Y-61239752D01*
X72361027Y-61239752D02*
X72284836Y-61201657D01*
X72284836Y-61201657D02*
X72132455Y-61201657D01*
X72132455Y-61201657D02*
X72056265Y-61239752D01*
X72056265Y-61239752D02*
X72018170Y-61277847D01*
X72018170Y-61277847D02*
X71980074Y-61354038D01*
X29334990Y-59824687D02*
X29296895Y-59900877D01*
X29296895Y-59900877D02*
X29296895Y-60015163D01*
X29296895Y-60015163D02*
X29334990Y-60129449D01*
X29334990Y-60129449D02*
X29411180Y-60205639D01*
X29411180Y-60205639D02*
X29487371Y-60243734D01*
X29487371Y-60243734D02*
X29639752Y-60281830D01*
X29639752Y-60281830D02*
X29754038Y-60281830D01*
X29754038Y-60281830D02*
X29906419Y-60243734D01*
X29906419Y-60243734D02*
X29982609Y-60205639D01*
X29982609Y-60205639D02*
X30058800Y-60129449D01*
X30058800Y-60129449D02*
X30096895Y-60015163D01*
X30096895Y-60015163D02*
X30096895Y-59938972D01*
X30096895Y-59938972D02*
X30058800Y-59824687D01*
X30058800Y-59824687D02*
X30020704Y-59786591D01*
X30020704Y-59786591D02*
X29754038Y-59786591D01*
X29754038Y-59786591D02*
X29754038Y-59938972D01*
X30096895Y-59443734D02*
X29296895Y-59443734D01*
X29296895Y-59443734D02*
X30096895Y-58986591D01*
X30096895Y-58986591D02*
X29296895Y-58986591D01*
X30096895Y-58605639D02*
X29296895Y-58605639D01*
X29296895Y-58605639D02*
X29296895Y-58415163D01*
X29296895Y-58415163D02*
X29334990Y-58300877D01*
X29334990Y-58300877D02*
X29411180Y-58224687D01*
X29411180Y-58224687D02*
X29487371Y-58186592D01*
X29487371Y-58186592D02*
X29639752Y-58148496D01*
X29639752Y-58148496D02*
X29754038Y-58148496D01*
X29754038Y-58148496D02*
X29906419Y-58186592D01*
X29906419Y-58186592D02*
X29982609Y-58224687D01*
X29982609Y-58224687D02*
X30058800Y-58300877D01*
X30058800Y-58300877D02*
X30096895Y-58415163D01*
X30096895Y-58415163D02*
X30096895Y-58605639D01*
D11*
X19564160Y-44159104D02*
X20040350Y-44159104D01*
X19468922Y-44444819D02*
X19802255Y-43444819D01*
X19802255Y-43444819D02*
X20135588Y-44444819D01*
X20897493Y-44444819D02*
X20897493Y-43444819D01*
X20897493Y-44397200D02*
X20802255Y-44444819D01*
X20802255Y-44444819D02*
X20611779Y-44444819D01*
X20611779Y-44444819D02*
X20516541Y-44397200D01*
X20516541Y-44397200D02*
X20468922Y-44349580D01*
X20468922Y-44349580D02*
X20421303Y-44254342D01*
X20421303Y-44254342D02*
X20421303Y-43968628D01*
X20421303Y-43968628D02*
X20468922Y-43873390D01*
X20468922Y-43873390D02*
X20516541Y-43825771D01*
X20516541Y-43825771D02*
X20611779Y-43778152D01*
X20611779Y-43778152D02*
X20802255Y-43778152D01*
X20802255Y-43778152D02*
X20897493Y-43825771D01*
X21802255Y-44444819D02*
X21802255Y-43921009D01*
X21802255Y-43921009D02*
X21754636Y-43825771D01*
X21754636Y-43825771D02*
X21659398Y-43778152D01*
X21659398Y-43778152D02*
X21468922Y-43778152D01*
X21468922Y-43778152D02*
X21373684Y-43825771D01*
X21802255Y-44397200D02*
X21707017Y-44444819D01*
X21707017Y-44444819D02*
X21468922Y-44444819D01*
X21468922Y-44444819D02*
X21373684Y-44397200D01*
X21373684Y-44397200D02*
X21326065Y-44301961D01*
X21326065Y-44301961D02*
X21326065Y-44206723D01*
X21326065Y-44206723D02*
X21373684Y-44111485D01*
X21373684Y-44111485D02*
X21468922Y-44063866D01*
X21468922Y-44063866D02*
X21707017Y-44063866D01*
X21707017Y-44063866D02*
X21802255Y-44016247D01*
X22135589Y-43778152D02*
X22516541Y-43778152D01*
X22278446Y-44444819D02*
X22278446Y-43587676D01*
X22278446Y-43587676D02*
X22326065Y-43492438D01*
X22326065Y-43492438D02*
X22421303Y-43444819D01*
X22421303Y-43444819D02*
X22516541Y-43444819D01*
X22849875Y-44444819D02*
X22849875Y-43778152D01*
X22849875Y-43968628D02*
X22897494Y-43873390D01*
X22897494Y-43873390D02*
X22945113Y-43825771D01*
X22945113Y-43825771D02*
X23040351Y-43778152D01*
X23040351Y-43778152D02*
X23135589Y-43778152D01*
X23897494Y-43778152D02*
X23897494Y-44444819D01*
X23468923Y-43778152D02*
X23468923Y-44301961D01*
X23468923Y-44301961D02*
X23516542Y-44397200D01*
X23516542Y-44397200D02*
X23611780Y-44444819D01*
X23611780Y-44444819D02*
X23754637Y-44444819D01*
X23754637Y-44444819D02*
X23849875Y-44397200D01*
X23849875Y-44397200D02*
X23897494Y-44349580D01*
X24373685Y-44444819D02*
X24373685Y-43778152D01*
X24373685Y-43444819D02*
X24326066Y-43492438D01*
X24326066Y-43492438D02*
X24373685Y-43540057D01*
X24373685Y-43540057D02*
X24421304Y-43492438D01*
X24421304Y-43492438D02*
X24373685Y-43444819D01*
X24373685Y-43444819D02*
X24373685Y-43540057D01*
X24707018Y-43778152D02*
X25087970Y-43778152D01*
X24849875Y-43444819D02*
X24849875Y-44301961D01*
X24849875Y-44301961D02*
X24897494Y-44397200D01*
X24897494Y-44397200D02*
X24992732Y-44444819D01*
X24992732Y-44444819D02*
X25087970Y-44444819D01*
X26183209Y-44444819D02*
X26183209Y-43444819D01*
X26183209Y-43444819D02*
X26564161Y-43444819D01*
X26564161Y-43444819D02*
X26659399Y-43492438D01*
X26659399Y-43492438D02*
X26707018Y-43540057D01*
X26707018Y-43540057D02*
X26754637Y-43635295D01*
X26754637Y-43635295D02*
X26754637Y-43778152D01*
X26754637Y-43778152D02*
X26707018Y-43873390D01*
X26707018Y-43873390D02*
X26659399Y-43921009D01*
X26659399Y-43921009D02*
X26564161Y-43968628D01*
X26564161Y-43968628D02*
X26183209Y-43968628D01*
X27754637Y-44349580D02*
X27707018Y-44397200D01*
X27707018Y-44397200D02*
X27564161Y-44444819D01*
X27564161Y-44444819D02*
X27468923Y-44444819D01*
X27468923Y-44444819D02*
X27326066Y-44397200D01*
X27326066Y-44397200D02*
X27230828Y-44301961D01*
X27230828Y-44301961D02*
X27183209Y-44206723D01*
X27183209Y-44206723D02*
X27135590Y-44016247D01*
X27135590Y-44016247D02*
X27135590Y-43873390D01*
X27135590Y-43873390D02*
X27183209Y-43682914D01*
X27183209Y-43682914D02*
X27230828Y-43587676D01*
X27230828Y-43587676D02*
X27326066Y-43492438D01*
X27326066Y-43492438D02*
X27468923Y-43444819D01*
X27468923Y-43444819D02*
X27564161Y-43444819D01*
X27564161Y-43444819D02*
X27707018Y-43492438D01*
X27707018Y-43492438D02*
X27754637Y-43540057D01*
X28135590Y-44159104D02*
X28611780Y-44159104D01*
X28040352Y-44444819D02*
X28373685Y-43444819D01*
X28373685Y-43444819D02*
X28707018Y-44444819D01*
X29087971Y-44444819D02*
X29278447Y-44444819D01*
X29278447Y-44444819D02*
X29373685Y-44397200D01*
X29373685Y-44397200D02*
X29421304Y-44349580D01*
X29421304Y-44349580D02*
X29516542Y-44206723D01*
X29516542Y-44206723D02*
X29564161Y-44016247D01*
X29564161Y-44016247D02*
X29564161Y-43635295D01*
X29564161Y-43635295D02*
X29516542Y-43540057D01*
X29516542Y-43540057D02*
X29468923Y-43492438D01*
X29468923Y-43492438D02*
X29373685Y-43444819D01*
X29373685Y-43444819D02*
X29183209Y-43444819D01*
X29183209Y-43444819D02*
X29087971Y-43492438D01*
X29087971Y-43492438D02*
X29040352Y-43540057D01*
X29040352Y-43540057D02*
X28992733Y-43635295D01*
X28992733Y-43635295D02*
X28992733Y-43873390D01*
X28992733Y-43873390D02*
X29040352Y-43968628D01*
X29040352Y-43968628D02*
X29087971Y-44016247D01*
X29087971Y-44016247D02*
X29183209Y-44063866D01*
X29183209Y-44063866D02*
X29373685Y-44063866D01*
X29373685Y-44063866D02*
X29468923Y-44016247D01*
X29468923Y-44016247D02*
X29516542Y-43968628D01*
X29516542Y-43968628D02*
X29564161Y-43873390D01*
X30421304Y-43444819D02*
X30230828Y-43444819D01*
X30230828Y-43444819D02*
X30135590Y-43492438D01*
X30135590Y-43492438D02*
X30087971Y-43540057D01*
X30087971Y-43540057D02*
X29992733Y-43682914D01*
X29992733Y-43682914D02*
X29945114Y-43873390D01*
X29945114Y-43873390D02*
X29945114Y-44254342D01*
X29945114Y-44254342D02*
X29992733Y-44349580D01*
X29992733Y-44349580D02*
X30040352Y-44397200D01*
X30040352Y-44397200D02*
X30135590Y-44444819D01*
X30135590Y-44444819D02*
X30326066Y-44444819D01*
X30326066Y-44444819D02*
X30421304Y-44397200D01*
X30421304Y-44397200D02*
X30468923Y-44349580D01*
X30468923Y-44349580D02*
X30516542Y-44254342D01*
X30516542Y-44254342D02*
X30516542Y-44016247D01*
X30516542Y-44016247D02*
X30468923Y-43921009D01*
X30468923Y-43921009D02*
X30421304Y-43873390D01*
X30421304Y-43873390D02*
X30326066Y-43825771D01*
X30326066Y-43825771D02*
X30135590Y-43825771D01*
X30135590Y-43825771D02*
X30040352Y-43873390D01*
X30040352Y-43873390D02*
X29992733Y-43921009D01*
X29992733Y-43921009D02*
X29945114Y-44016247D01*
X31087971Y-43873390D02*
X30992733Y-43825771D01*
X30992733Y-43825771D02*
X30945114Y-43778152D01*
X30945114Y-43778152D02*
X30897495Y-43682914D01*
X30897495Y-43682914D02*
X30897495Y-43635295D01*
X30897495Y-43635295D02*
X30945114Y-43540057D01*
X30945114Y-43540057D02*
X30992733Y-43492438D01*
X30992733Y-43492438D02*
X31087971Y-43444819D01*
X31087971Y-43444819D02*
X31278447Y-43444819D01*
X31278447Y-43444819D02*
X31373685Y-43492438D01*
X31373685Y-43492438D02*
X31421304Y-43540057D01*
X31421304Y-43540057D02*
X31468923Y-43635295D01*
X31468923Y-43635295D02*
X31468923Y-43682914D01*
X31468923Y-43682914D02*
X31421304Y-43778152D01*
X31421304Y-43778152D02*
X31373685Y-43825771D01*
X31373685Y-43825771D02*
X31278447Y-43873390D01*
X31278447Y-43873390D02*
X31087971Y-43873390D01*
X31087971Y-43873390D02*
X30992733Y-43921009D01*
X30992733Y-43921009D02*
X30945114Y-43968628D01*
X30945114Y-43968628D02*
X30897495Y-44063866D01*
X30897495Y-44063866D02*
X30897495Y-44254342D01*
X30897495Y-44254342D02*
X30945114Y-44349580D01*
X30945114Y-44349580D02*
X30992733Y-44397200D01*
X30992733Y-44397200D02*
X31087971Y-44444819D01*
X31087971Y-44444819D02*
X31278447Y-44444819D01*
X31278447Y-44444819D02*
X31373685Y-44397200D01*
X31373685Y-44397200D02*
X31421304Y-44349580D01*
X31421304Y-44349580D02*
X31468923Y-44254342D01*
X31468923Y-44254342D02*
X31468923Y-44063866D01*
X31468923Y-44063866D02*
X31421304Y-43968628D01*
X31421304Y-43968628D02*
X31373685Y-43921009D01*
X31373685Y-43921009D02*
X31278447Y-43873390D01*
X32373685Y-43444819D02*
X31897495Y-43444819D01*
X31897495Y-43444819D02*
X31849876Y-43921009D01*
X31849876Y-43921009D02*
X31897495Y-43873390D01*
X31897495Y-43873390D02*
X31992733Y-43825771D01*
X31992733Y-43825771D02*
X32230828Y-43825771D01*
X32230828Y-43825771D02*
X32326066Y-43873390D01*
X32326066Y-43873390D02*
X32373685Y-43921009D01*
X32373685Y-43921009D02*
X32421304Y-44016247D01*
X32421304Y-44016247D02*
X32421304Y-44254342D01*
X32421304Y-44254342D02*
X32373685Y-44349580D01*
X32373685Y-44349580D02*
X32326066Y-44397200D01*
X32326066Y-44397200D02*
X32230828Y-44444819D01*
X32230828Y-44444819D02*
X31992733Y-44444819D01*
X31992733Y-44444819D02*
X31897495Y-44397200D01*
X31897495Y-44397200D02*
X31849876Y-44349580D01*
X33564162Y-44397200D02*
X33707019Y-44444819D01*
X33707019Y-44444819D02*
X33945114Y-44444819D01*
X33945114Y-44444819D02*
X34040352Y-44397200D01*
X34040352Y-44397200D02*
X34087971Y-44349580D01*
X34087971Y-44349580D02*
X34135590Y-44254342D01*
X34135590Y-44254342D02*
X34135590Y-44159104D01*
X34135590Y-44159104D02*
X34087971Y-44063866D01*
X34087971Y-44063866D02*
X34040352Y-44016247D01*
X34040352Y-44016247D02*
X33945114Y-43968628D01*
X33945114Y-43968628D02*
X33754638Y-43921009D01*
X33754638Y-43921009D02*
X33659400Y-43873390D01*
X33659400Y-43873390D02*
X33611781Y-43825771D01*
X33611781Y-43825771D02*
X33564162Y-43730533D01*
X33564162Y-43730533D02*
X33564162Y-43635295D01*
X33564162Y-43635295D02*
X33611781Y-43540057D01*
X33611781Y-43540057D02*
X33659400Y-43492438D01*
X33659400Y-43492438D02*
X33754638Y-43444819D01*
X33754638Y-43444819D02*
X33992733Y-43444819D01*
X33992733Y-43444819D02*
X34135590Y-43492438D01*
X34945114Y-44397200D02*
X34849876Y-44444819D01*
X34849876Y-44444819D02*
X34659400Y-44444819D01*
X34659400Y-44444819D02*
X34564162Y-44397200D01*
X34564162Y-44397200D02*
X34516543Y-44301961D01*
X34516543Y-44301961D02*
X34516543Y-43921009D01*
X34516543Y-43921009D02*
X34564162Y-43825771D01*
X34564162Y-43825771D02*
X34659400Y-43778152D01*
X34659400Y-43778152D02*
X34849876Y-43778152D01*
X34849876Y-43778152D02*
X34945114Y-43825771D01*
X34945114Y-43825771D02*
X34992733Y-43921009D01*
X34992733Y-43921009D02*
X34992733Y-44016247D01*
X34992733Y-44016247D02*
X34516543Y-44111485D01*
X35421305Y-44444819D02*
X35421305Y-43778152D01*
X35421305Y-43968628D02*
X35468924Y-43873390D01*
X35468924Y-43873390D02*
X35516543Y-43825771D01*
X35516543Y-43825771D02*
X35611781Y-43778152D01*
X35611781Y-43778152D02*
X35707019Y-43778152D01*
X35945115Y-43778152D02*
X36183210Y-44444819D01*
X36183210Y-44444819D02*
X36421305Y-43778152D01*
X36945115Y-44444819D02*
X36849877Y-44397200D01*
X36849877Y-44397200D02*
X36802258Y-44349580D01*
X36802258Y-44349580D02*
X36754639Y-44254342D01*
X36754639Y-44254342D02*
X36754639Y-43968628D01*
X36754639Y-43968628D02*
X36802258Y-43873390D01*
X36802258Y-43873390D02*
X36849877Y-43825771D01*
X36849877Y-43825771D02*
X36945115Y-43778152D01*
X36945115Y-43778152D02*
X37087972Y-43778152D01*
X37087972Y-43778152D02*
X37183210Y-43825771D01*
X37183210Y-43825771D02*
X37230829Y-43873390D01*
X37230829Y-43873390D02*
X37278448Y-43968628D01*
X37278448Y-43968628D02*
X37278448Y-44254342D01*
X37278448Y-44254342D02*
X37230829Y-44349580D01*
X37230829Y-44349580D02*
X37183210Y-44397200D01*
X37183210Y-44397200D02*
X37087972Y-44444819D01*
X37087972Y-44444819D02*
X36945115Y-44444819D01*
X38468925Y-44444819D02*
X38468925Y-43444819D01*
X38468925Y-43444819D02*
X38707020Y-43444819D01*
X38707020Y-43444819D02*
X38849877Y-43492438D01*
X38849877Y-43492438D02*
X38945115Y-43587676D01*
X38945115Y-43587676D02*
X38992734Y-43682914D01*
X38992734Y-43682914D02*
X39040353Y-43873390D01*
X39040353Y-43873390D02*
X39040353Y-44016247D01*
X39040353Y-44016247D02*
X38992734Y-44206723D01*
X38992734Y-44206723D02*
X38945115Y-44301961D01*
X38945115Y-44301961D02*
X38849877Y-44397200D01*
X38849877Y-44397200D02*
X38707020Y-44444819D01*
X38707020Y-44444819D02*
X38468925Y-44444819D01*
X39468925Y-44444819D02*
X39468925Y-43778152D01*
X39468925Y-43968628D02*
X39516544Y-43873390D01*
X39516544Y-43873390D02*
X39564163Y-43825771D01*
X39564163Y-43825771D02*
X39659401Y-43778152D01*
X39659401Y-43778152D02*
X39754639Y-43778152D01*
X40087973Y-44444819D02*
X40087973Y-43778152D01*
X40087973Y-43444819D02*
X40040354Y-43492438D01*
X40040354Y-43492438D02*
X40087973Y-43540057D01*
X40087973Y-43540057D02*
X40135592Y-43492438D01*
X40135592Y-43492438D02*
X40087973Y-43444819D01*
X40087973Y-43444819D02*
X40087973Y-43540057D01*
X40468925Y-43778152D02*
X40707020Y-44444819D01*
X40707020Y-44444819D02*
X40945115Y-43778152D01*
X41707020Y-44397200D02*
X41611782Y-44444819D01*
X41611782Y-44444819D02*
X41421306Y-44444819D01*
X41421306Y-44444819D02*
X41326068Y-44397200D01*
X41326068Y-44397200D02*
X41278449Y-44301961D01*
X41278449Y-44301961D02*
X41278449Y-43921009D01*
X41278449Y-43921009D02*
X41326068Y-43825771D01*
X41326068Y-43825771D02*
X41421306Y-43778152D01*
X41421306Y-43778152D02*
X41611782Y-43778152D01*
X41611782Y-43778152D02*
X41707020Y-43825771D01*
X41707020Y-43825771D02*
X41754639Y-43921009D01*
X41754639Y-43921009D02*
X41754639Y-44016247D01*
X41754639Y-44016247D02*
X41278449Y-44111485D01*
X42183211Y-44444819D02*
X42183211Y-43778152D01*
X42183211Y-43968628D02*
X42230830Y-43873390D01*
X42230830Y-43873390D02*
X42278449Y-43825771D01*
X42278449Y-43825771D02*
X42373687Y-43778152D01*
X42373687Y-43778152D02*
X42468925Y-43778152D01*
D10*
X39834990Y-59524687D02*
X39796895Y-59600877D01*
X39796895Y-59600877D02*
X39796895Y-59715163D01*
X39796895Y-59715163D02*
X39834990Y-59829449D01*
X39834990Y-59829449D02*
X39911180Y-59905639D01*
X39911180Y-59905639D02*
X39987371Y-59943734D01*
X39987371Y-59943734D02*
X40139752Y-59981830D01*
X40139752Y-59981830D02*
X40254038Y-59981830D01*
X40254038Y-59981830D02*
X40406419Y-59943734D01*
X40406419Y-59943734D02*
X40482609Y-59905639D01*
X40482609Y-59905639D02*
X40558800Y-59829449D01*
X40558800Y-59829449D02*
X40596895Y-59715163D01*
X40596895Y-59715163D02*
X40596895Y-59638972D01*
X40596895Y-59638972D02*
X40558800Y-59524687D01*
X40558800Y-59524687D02*
X40520704Y-59486591D01*
X40520704Y-59486591D02*
X40254038Y-59486591D01*
X40254038Y-59486591D02*
X40254038Y-59638972D01*
X40596895Y-59143734D02*
X39796895Y-59143734D01*
X39796895Y-59143734D02*
X39796895Y-58838972D01*
X39796895Y-58838972D02*
X39834990Y-58762782D01*
X39834990Y-58762782D02*
X39873085Y-58724687D01*
X39873085Y-58724687D02*
X39949276Y-58686591D01*
X39949276Y-58686591D02*
X40063561Y-58686591D01*
X40063561Y-58686591D02*
X40139752Y-58724687D01*
X40139752Y-58724687D02*
X40177847Y-58762782D01*
X40177847Y-58762782D02*
X40215942Y-58838972D01*
X40215942Y-58838972D02*
X40215942Y-59143734D01*
X40596895Y-58343734D02*
X39796895Y-58343734D01*
X39796895Y-57810401D02*
X39796895Y-57658020D01*
X39796895Y-57658020D02*
X39834990Y-57581830D01*
X39834990Y-57581830D02*
X39911180Y-57505639D01*
X39911180Y-57505639D02*
X40063561Y-57467544D01*
X40063561Y-57467544D02*
X40330228Y-57467544D01*
X40330228Y-57467544D02*
X40482609Y-57505639D01*
X40482609Y-57505639D02*
X40558800Y-57581830D01*
X40558800Y-57581830D02*
X40596895Y-57658020D01*
X40596895Y-57658020D02*
X40596895Y-57810401D01*
X40596895Y-57810401D02*
X40558800Y-57886592D01*
X40558800Y-57886592D02*
X40482609Y-57962782D01*
X40482609Y-57962782D02*
X40330228Y-58000878D01*
X40330228Y-58000878D02*
X40063561Y-58000878D01*
X40063561Y-58000878D02*
X39911180Y-57962782D01*
X39911180Y-57962782D02*
X39834990Y-57886592D01*
X39834990Y-57886592D02*
X39796895Y-57810401D01*
X40596895Y-56705640D02*
X40596895Y-57162783D01*
X40596895Y-56934211D02*
X39796895Y-56934211D01*
X39796895Y-56934211D02*
X39911180Y-57010402D01*
X39911180Y-57010402D02*
X39987371Y-57086592D01*
X39987371Y-57086592D02*
X40025466Y-57162783D01*
X39873085Y-56400878D02*
X39834990Y-56362782D01*
X39834990Y-56362782D02*
X39796895Y-56286592D01*
X39796895Y-56286592D02*
X39796895Y-56096116D01*
X39796895Y-56096116D02*
X39834990Y-56019925D01*
X39834990Y-56019925D02*
X39873085Y-55981830D01*
X39873085Y-55981830D02*
X39949276Y-55943735D01*
X39949276Y-55943735D02*
X40025466Y-55943735D01*
X40025466Y-55943735D02*
X40139752Y-55981830D01*
X40139752Y-55981830D02*
X40596895Y-56438973D01*
X40596895Y-56438973D02*
X40596895Y-55943735D01*
X22496895Y-63058020D02*
X23296895Y-62791353D01*
X23296895Y-62791353D02*
X22496895Y-62524687D01*
X23296895Y-61800877D02*
X22915942Y-62067544D01*
X23296895Y-62258020D02*
X22496895Y-62258020D01*
X22496895Y-62258020D02*
X22496895Y-61953258D01*
X22496895Y-61953258D02*
X22534990Y-61877068D01*
X22534990Y-61877068D02*
X22573085Y-61838973D01*
X22573085Y-61838973D02*
X22649276Y-61800877D01*
X22649276Y-61800877D02*
X22763561Y-61800877D01*
X22763561Y-61800877D02*
X22839752Y-61838973D01*
X22839752Y-61838973D02*
X22877847Y-61877068D01*
X22877847Y-61877068D02*
X22915942Y-61953258D01*
X22915942Y-61953258D02*
X22915942Y-62258020D01*
X23220704Y-61000877D02*
X23258800Y-61038973D01*
X23258800Y-61038973D02*
X23296895Y-61153258D01*
X23296895Y-61153258D02*
X23296895Y-61229449D01*
X23296895Y-61229449D02*
X23258800Y-61343735D01*
X23258800Y-61343735D02*
X23182609Y-61419925D01*
X23182609Y-61419925D02*
X23106419Y-61458020D01*
X23106419Y-61458020D02*
X22954038Y-61496116D01*
X22954038Y-61496116D02*
X22839752Y-61496116D01*
X22839752Y-61496116D02*
X22687371Y-61458020D01*
X22687371Y-61458020D02*
X22611180Y-61419925D01*
X22611180Y-61419925D02*
X22534990Y-61343735D01*
X22534990Y-61343735D02*
X22496895Y-61229449D01*
X22496895Y-61229449D02*
X22496895Y-61153258D01*
X22496895Y-61153258D02*
X22534990Y-61038973D01*
X22534990Y-61038973D02*
X22573085Y-61000877D01*
X62034990Y-59424687D02*
X61996895Y-59500877D01*
X61996895Y-59500877D02*
X61996895Y-59615163D01*
X61996895Y-59615163D02*
X62034990Y-59729449D01*
X62034990Y-59729449D02*
X62111180Y-59805639D01*
X62111180Y-59805639D02*
X62187371Y-59843734D01*
X62187371Y-59843734D02*
X62339752Y-59881830D01*
X62339752Y-59881830D02*
X62454038Y-59881830D01*
X62454038Y-59881830D02*
X62606419Y-59843734D01*
X62606419Y-59843734D02*
X62682609Y-59805639D01*
X62682609Y-59805639D02*
X62758800Y-59729449D01*
X62758800Y-59729449D02*
X62796895Y-59615163D01*
X62796895Y-59615163D02*
X62796895Y-59538972D01*
X62796895Y-59538972D02*
X62758800Y-59424687D01*
X62758800Y-59424687D02*
X62720704Y-59386591D01*
X62720704Y-59386591D02*
X62454038Y-59386591D01*
X62454038Y-59386591D02*
X62454038Y-59538972D01*
X62796895Y-59043734D02*
X61996895Y-59043734D01*
X61996895Y-59043734D02*
X61996895Y-58738972D01*
X61996895Y-58738972D02*
X62034990Y-58662782D01*
X62034990Y-58662782D02*
X62073085Y-58624687D01*
X62073085Y-58624687D02*
X62149276Y-58586591D01*
X62149276Y-58586591D02*
X62263561Y-58586591D01*
X62263561Y-58586591D02*
X62339752Y-58624687D01*
X62339752Y-58624687D02*
X62377847Y-58662782D01*
X62377847Y-58662782D02*
X62415942Y-58738972D01*
X62415942Y-58738972D02*
X62415942Y-59043734D01*
X62796895Y-58243734D02*
X61996895Y-58243734D01*
X61996895Y-57710401D02*
X61996895Y-57558020D01*
X61996895Y-57558020D02*
X62034990Y-57481830D01*
X62034990Y-57481830D02*
X62111180Y-57405639D01*
X62111180Y-57405639D02*
X62263561Y-57367544D01*
X62263561Y-57367544D02*
X62530228Y-57367544D01*
X62530228Y-57367544D02*
X62682609Y-57405639D01*
X62682609Y-57405639D02*
X62758800Y-57481830D01*
X62758800Y-57481830D02*
X62796895Y-57558020D01*
X62796895Y-57558020D02*
X62796895Y-57710401D01*
X62796895Y-57710401D02*
X62758800Y-57786592D01*
X62758800Y-57786592D02*
X62682609Y-57862782D01*
X62682609Y-57862782D02*
X62530228Y-57900878D01*
X62530228Y-57900878D02*
X62263561Y-57900878D01*
X62263561Y-57900878D02*
X62111180Y-57862782D01*
X62111180Y-57862782D02*
X62034990Y-57786592D01*
X62034990Y-57786592D02*
X61996895Y-57710401D01*
X62073085Y-57062783D02*
X62034990Y-57024687D01*
X62034990Y-57024687D02*
X61996895Y-56948497D01*
X61996895Y-56948497D02*
X61996895Y-56758021D01*
X61996895Y-56758021D02*
X62034990Y-56681830D01*
X62034990Y-56681830D02*
X62073085Y-56643735D01*
X62073085Y-56643735D02*
X62149276Y-56605640D01*
X62149276Y-56605640D02*
X62225466Y-56605640D01*
X62225466Y-56605640D02*
X62339752Y-56643735D01*
X62339752Y-56643735D02*
X62796895Y-57100878D01*
X62796895Y-57100878D02*
X62796895Y-56605640D01*
X67113408Y-57896895D02*
X66846741Y-57515942D01*
X66656265Y-57896895D02*
X66656265Y-57096895D01*
X66656265Y-57096895D02*
X66961027Y-57096895D01*
X66961027Y-57096895D02*
X67037217Y-57134990D01*
X67037217Y-57134990D02*
X67075312Y-57173085D01*
X67075312Y-57173085D02*
X67113408Y-57249276D01*
X67113408Y-57249276D02*
X67113408Y-57363561D01*
X67113408Y-57363561D02*
X67075312Y-57439752D01*
X67075312Y-57439752D02*
X67037217Y-57477847D01*
X67037217Y-57477847D02*
X66961027Y-57515942D01*
X66961027Y-57515942D02*
X66656265Y-57515942D01*
X67456265Y-57896895D02*
X67456265Y-57096895D01*
X67456265Y-57096895D02*
X67761027Y-57096895D01*
X67761027Y-57096895D02*
X67837217Y-57134990D01*
X67837217Y-57134990D02*
X67875312Y-57173085D01*
X67875312Y-57173085D02*
X67913408Y-57249276D01*
X67913408Y-57249276D02*
X67913408Y-57363561D01*
X67913408Y-57363561D02*
X67875312Y-57439752D01*
X67875312Y-57439752D02*
X67837217Y-57477847D01*
X67837217Y-57477847D02*
X67761027Y-57515942D01*
X67761027Y-57515942D02*
X67456265Y-57515942D01*
X68256265Y-57896895D02*
X68256265Y-57096895D01*
X68256265Y-57096895D02*
X68522931Y-57668323D01*
X68522931Y-57668323D02*
X68789598Y-57096895D01*
X68789598Y-57096895D02*
X68789598Y-57896895D01*
X69741979Y-57858800D02*
X69856265Y-57896895D01*
X69856265Y-57896895D02*
X70046741Y-57896895D01*
X70046741Y-57896895D02*
X70122932Y-57858800D01*
X70122932Y-57858800D02*
X70161027Y-57820704D01*
X70161027Y-57820704D02*
X70199122Y-57744514D01*
X70199122Y-57744514D02*
X70199122Y-57668323D01*
X70199122Y-57668323D02*
X70161027Y-57592133D01*
X70161027Y-57592133D02*
X70122932Y-57554038D01*
X70122932Y-57554038D02*
X70046741Y-57515942D01*
X70046741Y-57515942D02*
X69894360Y-57477847D01*
X69894360Y-57477847D02*
X69818170Y-57439752D01*
X69818170Y-57439752D02*
X69780075Y-57401657D01*
X69780075Y-57401657D02*
X69741979Y-57325466D01*
X69741979Y-57325466D02*
X69741979Y-57249276D01*
X69741979Y-57249276D02*
X69780075Y-57173085D01*
X69780075Y-57173085D02*
X69818170Y-57134990D01*
X69818170Y-57134990D02*
X69894360Y-57096895D01*
X69894360Y-57096895D02*
X70084837Y-57096895D01*
X70084837Y-57096895D02*
X70199122Y-57134990D01*
X70846742Y-57858800D02*
X70770551Y-57896895D01*
X70770551Y-57896895D02*
X70618170Y-57896895D01*
X70618170Y-57896895D02*
X70541980Y-57858800D01*
X70541980Y-57858800D02*
X70503884Y-57782609D01*
X70503884Y-57782609D02*
X70503884Y-57477847D01*
X70503884Y-57477847D02*
X70541980Y-57401657D01*
X70541980Y-57401657D02*
X70618170Y-57363561D01*
X70618170Y-57363561D02*
X70770551Y-57363561D01*
X70770551Y-57363561D02*
X70846742Y-57401657D01*
X70846742Y-57401657D02*
X70884837Y-57477847D01*
X70884837Y-57477847D02*
X70884837Y-57554038D01*
X70884837Y-57554038D02*
X70503884Y-57630228D01*
X71227694Y-57363561D02*
X71227694Y-57896895D01*
X71227694Y-57439752D02*
X71265789Y-57401657D01*
X71265789Y-57401657D02*
X71341979Y-57363561D01*
X71341979Y-57363561D02*
X71456265Y-57363561D01*
X71456265Y-57363561D02*
X71532456Y-57401657D01*
X71532456Y-57401657D02*
X71570551Y-57477847D01*
X71570551Y-57477847D02*
X71570551Y-57896895D01*
X71913408Y-57858800D02*
X71989599Y-57896895D01*
X71989599Y-57896895D02*
X72141980Y-57896895D01*
X72141980Y-57896895D02*
X72218170Y-57858800D01*
X72218170Y-57858800D02*
X72256266Y-57782609D01*
X72256266Y-57782609D02*
X72256266Y-57744514D01*
X72256266Y-57744514D02*
X72218170Y-57668323D01*
X72218170Y-57668323D02*
X72141980Y-57630228D01*
X72141980Y-57630228D02*
X72027694Y-57630228D01*
X72027694Y-57630228D02*
X71951504Y-57592133D01*
X71951504Y-57592133D02*
X71913408Y-57515942D01*
X71913408Y-57515942D02*
X71913408Y-57477847D01*
X71913408Y-57477847D02*
X71951504Y-57401657D01*
X71951504Y-57401657D02*
X72027694Y-57363561D01*
X72027694Y-57363561D02*
X72141980Y-57363561D01*
X72141980Y-57363561D02*
X72218170Y-57401657D01*
X72713408Y-57896895D02*
X72637218Y-57858800D01*
X72637218Y-57858800D02*
X72599123Y-57820704D01*
X72599123Y-57820704D02*
X72561027Y-57744514D01*
X72561027Y-57744514D02*
X72561027Y-57515942D01*
X72561027Y-57515942D02*
X72599123Y-57439752D01*
X72599123Y-57439752D02*
X72637218Y-57401657D01*
X72637218Y-57401657D02*
X72713408Y-57363561D01*
X72713408Y-57363561D02*
X72827694Y-57363561D01*
X72827694Y-57363561D02*
X72903885Y-57401657D01*
X72903885Y-57401657D02*
X72941980Y-57439752D01*
X72941980Y-57439752D02*
X72980075Y-57515942D01*
X72980075Y-57515942D02*
X72980075Y-57744514D01*
X72980075Y-57744514D02*
X72941980Y-57820704D01*
X72941980Y-57820704D02*
X72903885Y-57858800D01*
X72903885Y-57858800D02*
X72827694Y-57896895D01*
X72827694Y-57896895D02*
X72713408Y-57896895D01*
X73322933Y-57896895D02*
X73322933Y-57363561D01*
X73322933Y-57515942D02*
X73361028Y-57439752D01*
X73361028Y-57439752D02*
X73399123Y-57401657D01*
X73399123Y-57401657D02*
X73475314Y-57363561D01*
X73475314Y-57363561D02*
X73551504Y-57363561D01*
X59734990Y-59524687D02*
X59696895Y-59600877D01*
X59696895Y-59600877D02*
X59696895Y-59715163D01*
X59696895Y-59715163D02*
X59734990Y-59829449D01*
X59734990Y-59829449D02*
X59811180Y-59905639D01*
X59811180Y-59905639D02*
X59887371Y-59943734D01*
X59887371Y-59943734D02*
X60039752Y-59981830D01*
X60039752Y-59981830D02*
X60154038Y-59981830D01*
X60154038Y-59981830D02*
X60306419Y-59943734D01*
X60306419Y-59943734D02*
X60382609Y-59905639D01*
X60382609Y-59905639D02*
X60458800Y-59829449D01*
X60458800Y-59829449D02*
X60496895Y-59715163D01*
X60496895Y-59715163D02*
X60496895Y-59638972D01*
X60496895Y-59638972D02*
X60458800Y-59524687D01*
X60458800Y-59524687D02*
X60420704Y-59486591D01*
X60420704Y-59486591D02*
X60154038Y-59486591D01*
X60154038Y-59486591D02*
X60154038Y-59638972D01*
X60496895Y-59143734D02*
X59696895Y-59143734D01*
X59696895Y-59143734D02*
X60496895Y-58686591D01*
X60496895Y-58686591D02*
X59696895Y-58686591D01*
X60496895Y-58305639D02*
X59696895Y-58305639D01*
X59696895Y-58305639D02*
X59696895Y-58115163D01*
X59696895Y-58115163D02*
X59734990Y-58000877D01*
X59734990Y-58000877D02*
X59811180Y-57924687D01*
X59811180Y-57924687D02*
X59887371Y-57886592D01*
X59887371Y-57886592D02*
X60039752Y-57848496D01*
X60039752Y-57848496D02*
X60154038Y-57848496D01*
X60154038Y-57848496D02*
X60306419Y-57886592D01*
X60306419Y-57886592D02*
X60382609Y-57924687D01*
X60382609Y-57924687D02*
X60458800Y-58000877D01*
X60458800Y-58000877D02*
X60496895Y-58115163D01*
X60496895Y-58115163D02*
X60496895Y-58305639D01*
X20034990Y-62524687D02*
X19996895Y-62600877D01*
X19996895Y-62600877D02*
X19996895Y-62715163D01*
X19996895Y-62715163D02*
X20034990Y-62829449D01*
X20034990Y-62829449D02*
X20111180Y-62905639D01*
X20111180Y-62905639D02*
X20187371Y-62943734D01*
X20187371Y-62943734D02*
X20339752Y-62981830D01*
X20339752Y-62981830D02*
X20454038Y-62981830D01*
X20454038Y-62981830D02*
X20606419Y-62943734D01*
X20606419Y-62943734D02*
X20682609Y-62905639D01*
X20682609Y-62905639D02*
X20758800Y-62829449D01*
X20758800Y-62829449D02*
X20796895Y-62715163D01*
X20796895Y-62715163D02*
X20796895Y-62638972D01*
X20796895Y-62638972D02*
X20758800Y-62524687D01*
X20758800Y-62524687D02*
X20720704Y-62486591D01*
X20720704Y-62486591D02*
X20454038Y-62486591D01*
X20454038Y-62486591D02*
X20454038Y-62638972D01*
X20796895Y-62143734D02*
X19996895Y-62143734D01*
X19996895Y-62143734D02*
X20796895Y-61686591D01*
X20796895Y-61686591D02*
X19996895Y-61686591D01*
X20796895Y-61305639D02*
X19996895Y-61305639D01*
X19996895Y-61305639D02*
X19996895Y-61115163D01*
X19996895Y-61115163D02*
X20034990Y-61000877D01*
X20034990Y-61000877D02*
X20111180Y-60924687D01*
X20111180Y-60924687D02*
X20187371Y-60886592D01*
X20187371Y-60886592D02*
X20339752Y-60848496D01*
X20339752Y-60848496D02*
X20454038Y-60848496D01*
X20454038Y-60848496D02*
X20606419Y-60886592D01*
X20606419Y-60886592D02*
X20682609Y-60924687D01*
X20682609Y-60924687D02*
X20758800Y-61000877D01*
X20758800Y-61000877D02*
X20796895Y-61115163D01*
X20796895Y-61115163D02*
X20796895Y-61305639D01*
X51834990Y-59524687D02*
X51796895Y-59600877D01*
X51796895Y-59600877D02*
X51796895Y-59715163D01*
X51796895Y-59715163D02*
X51834990Y-59829449D01*
X51834990Y-59829449D02*
X51911180Y-59905639D01*
X51911180Y-59905639D02*
X51987371Y-59943734D01*
X51987371Y-59943734D02*
X52139752Y-59981830D01*
X52139752Y-59981830D02*
X52254038Y-59981830D01*
X52254038Y-59981830D02*
X52406419Y-59943734D01*
X52406419Y-59943734D02*
X52482609Y-59905639D01*
X52482609Y-59905639D02*
X52558800Y-59829449D01*
X52558800Y-59829449D02*
X52596895Y-59715163D01*
X52596895Y-59715163D02*
X52596895Y-59638972D01*
X52596895Y-59638972D02*
X52558800Y-59524687D01*
X52558800Y-59524687D02*
X52520704Y-59486591D01*
X52520704Y-59486591D02*
X52254038Y-59486591D01*
X52254038Y-59486591D02*
X52254038Y-59638972D01*
X52596895Y-59143734D02*
X51796895Y-59143734D01*
X51796895Y-59143734D02*
X52596895Y-58686591D01*
X52596895Y-58686591D02*
X51796895Y-58686591D01*
X52596895Y-58305639D02*
X51796895Y-58305639D01*
X51796895Y-58305639D02*
X51796895Y-58115163D01*
X51796895Y-58115163D02*
X51834990Y-58000877D01*
X51834990Y-58000877D02*
X51911180Y-57924687D01*
X51911180Y-57924687D02*
X51987371Y-57886592D01*
X51987371Y-57886592D02*
X52139752Y-57848496D01*
X52139752Y-57848496D02*
X52254038Y-57848496D01*
X52254038Y-57848496D02*
X52406419Y-57886592D01*
X52406419Y-57886592D02*
X52482609Y-57924687D01*
X52482609Y-57924687D02*
X52558800Y-58000877D01*
X52558800Y-58000877D02*
X52596895Y-58115163D01*
X52596895Y-58115163D02*
X52596895Y-58305639D01*
X14256265Y-58608895D02*
X14256265Y-57808895D01*
X14256265Y-57808895D02*
X14561027Y-57808895D01*
X14561027Y-57808895D02*
X14637217Y-57846990D01*
X14637217Y-57846990D02*
X14675312Y-57885085D01*
X14675312Y-57885085D02*
X14713408Y-57961276D01*
X14713408Y-57961276D02*
X14713408Y-58075561D01*
X14713408Y-58075561D02*
X14675312Y-58151752D01*
X14675312Y-58151752D02*
X14637217Y-58189847D01*
X14637217Y-58189847D02*
X14561027Y-58227942D01*
X14561027Y-58227942D02*
X14256265Y-58227942D01*
X15170550Y-58608895D02*
X15094360Y-58570800D01*
X15094360Y-58570800D02*
X15056265Y-58532704D01*
X15056265Y-58532704D02*
X15018169Y-58456514D01*
X15018169Y-58456514D02*
X15018169Y-58227942D01*
X15018169Y-58227942D02*
X15056265Y-58151752D01*
X15056265Y-58151752D02*
X15094360Y-58113657D01*
X15094360Y-58113657D02*
X15170550Y-58075561D01*
X15170550Y-58075561D02*
X15284836Y-58075561D01*
X15284836Y-58075561D02*
X15361027Y-58113657D01*
X15361027Y-58113657D02*
X15399122Y-58151752D01*
X15399122Y-58151752D02*
X15437217Y-58227942D01*
X15437217Y-58227942D02*
X15437217Y-58456514D01*
X15437217Y-58456514D02*
X15399122Y-58532704D01*
X15399122Y-58532704D02*
X15361027Y-58570800D01*
X15361027Y-58570800D02*
X15284836Y-58608895D01*
X15284836Y-58608895D02*
X15170550Y-58608895D01*
X15894360Y-58608895D02*
X15818170Y-58570800D01*
X15818170Y-58570800D02*
X15780075Y-58494609D01*
X15780075Y-58494609D02*
X15780075Y-57808895D01*
X16541980Y-58075561D02*
X16541980Y-58608895D01*
X16199123Y-58075561D02*
X16199123Y-58494609D01*
X16199123Y-58494609D02*
X16237218Y-58570800D01*
X16237218Y-58570800D02*
X16313408Y-58608895D01*
X16313408Y-58608895D02*
X16427694Y-58608895D01*
X16427694Y-58608895D02*
X16503885Y-58570800D01*
X16503885Y-58570800D02*
X16541980Y-58532704D01*
X17037218Y-58608895D02*
X16961028Y-58570800D01*
X16961028Y-58570800D02*
X16922933Y-58494609D01*
X16922933Y-58494609D02*
X16922933Y-57808895D01*
X17684838Y-58075561D02*
X17684838Y-58608895D01*
X17341981Y-58075561D02*
X17341981Y-58494609D01*
X17341981Y-58494609D02*
X17380076Y-58570800D01*
X17380076Y-58570800D02*
X17456266Y-58608895D01*
X17456266Y-58608895D02*
X17570552Y-58608895D01*
X17570552Y-58608895D02*
X17646743Y-58570800D01*
X17646743Y-58570800D02*
X17684838Y-58532704D01*
X18637219Y-57885085D02*
X18675315Y-57846990D01*
X18675315Y-57846990D02*
X18751505Y-57808895D01*
X18751505Y-57808895D02*
X18941981Y-57808895D01*
X18941981Y-57808895D02*
X19018172Y-57846990D01*
X19018172Y-57846990D02*
X19056267Y-57885085D01*
X19056267Y-57885085D02*
X19094362Y-57961276D01*
X19094362Y-57961276D02*
X19094362Y-58037466D01*
X19094362Y-58037466D02*
X19056267Y-58151752D01*
X19056267Y-58151752D02*
X18599124Y-58608895D01*
X18599124Y-58608895D02*
X19094362Y-58608895D01*
X19551505Y-58151752D02*
X19475315Y-58113657D01*
X19475315Y-58113657D02*
X19437220Y-58075561D01*
X19437220Y-58075561D02*
X19399124Y-57999371D01*
X19399124Y-57999371D02*
X19399124Y-57961276D01*
X19399124Y-57961276D02*
X19437220Y-57885085D01*
X19437220Y-57885085D02*
X19475315Y-57846990D01*
X19475315Y-57846990D02*
X19551505Y-57808895D01*
X19551505Y-57808895D02*
X19703886Y-57808895D01*
X19703886Y-57808895D02*
X19780077Y-57846990D01*
X19780077Y-57846990D02*
X19818172Y-57885085D01*
X19818172Y-57885085D02*
X19856267Y-57961276D01*
X19856267Y-57961276D02*
X19856267Y-57999371D01*
X19856267Y-57999371D02*
X19818172Y-58075561D01*
X19818172Y-58075561D02*
X19780077Y-58113657D01*
X19780077Y-58113657D02*
X19703886Y-58151752D01*
X19703886Y-58151752D02*
X19551505Y-58151752D01*
X19551505Y-58151752D02*
X19475315Y-58189847D01*
X19475315Y-58189847D02*
X19437220Y-58227942D01*
X19437220Y-58227942D02*
X19399124Y-58304133D01*
X19399124Y-58304133D02*
X19399124Y-58456514D01*
X19399124Y-58456514D02*
X19437220Y-58532704D01*
X19437220Y-58532704D02*
X19475315Y-58570800D01*
X19475315Y-58570800D02*
X19551505Y-58608895D01*
X19551505Y-58608895D02*
X19703886Y-58608895D01*
X19703886Y-58608895D02*
X19780077Y-58570800D01*
X19780077Y-58570800D02*
X19818172Y-58532704D01*
X19818172Y-58532704D02*
X19856267Y-58456514D01*
X19856267Y-58456514D02*
X19856267Y-58304133D01*
X19856267Y-58304133D02*
X19818172Y-58227942D01*
X19818172Y-58227942D02*
X19780077Y-58189847D01*
X19780077Y-58189847D02*
X19703886Y-58151752D01*
X20351506Y-57808895D02*
X20427696Y-57808895D01*
X20427696Y-57808895D02*
X20503887Y-57846990D01*
X20503887Y-57846990D02*
X20541982Y-57885085D01*
X20541982Y-57885085D02*
X20580077Y-57961276D01*
X20580077Y-57961276D02*
X20618172Y-58113657D01*
X20618172Y-58113657D02*
X20618172Y-58304133D01*
X20618172Y-58304133D02*
X20580077Y-58456514D01*
X20580077Y-58456514D02*
X20541982Y-58532704D01*
X20541982Y-58532704D02*
X20503887Y-58570800D01*
X20503887Y-58570800D02*
X20427696Y-58608895D01*
X20427696Y-58608895D02*
X20351506Y-58608895D01*
X20351506Y-58608895D02*
X20275315Y-58570800D01*
X20275315Y-58570800D02*
X20237220Y-58532704D01*
X20237220Y-58532704D02*
X20199125Y-58456514D01*
X20199125Y-58456514D02*
X20161029Y-58304133D01*
X20161029Y-58304133D02*
X20161029Y-58113657D01*
X20161029Y-58113657D02*
X20199125Y-57961276D01*
X20199125Y-57961276D02*
X20237220Y-57885085D01*
X20237220Y-57885085D02*
X20275315Y-57846990D01*
X20275315Y-57846990D02*
X20351506Y-57808895D01*
X21380077Y-58608895D02*
X20922934Y-58608895D01*
X21151506Y-58608895D02*
X21151506Y-57808895D01*
X21151506Y-57808895D02*
X21075315Y-57923180D01*
X21075315Y-57923180D02*
X20999125Y-57999371D01*
X20999125Y-57999371D02*
X20922934Y-58037466D01*
X14713408Y-59896895D02*
X14446741Y-59515942D01*
X14256265Y-59896895D02*
X14256265Y-59096895D01*
X14256265Y-59096895D02*
X14561027Y-59096895D01*
X14561027Y-59096895D02*
X14637217Y-59134990D01*
X14637217Y-59134990D02*
X14675312Y-59173085D01*
X14675312Y-59173085D02*
X14713408Y-59249276D01*
X14713408Y-59249276D02*
X14713408Y-59363561D01*
X14713408Y-59363561D02*
X14675312Y-59439752D01*
X14675312Y-59439752D02*
X14637217Y-59477847D01*
X14637217Y-59477847D02*
X14561027Y-59515942D01*
X14561027Y-59515942D02*
X14256265Y-59515942D01*
X15513408Y-59820704D02*
X15475312Y-59858800D01*
X15475312Y-59858800D02*
X15361027Y-59896895D01*
X15361027Y-59896895D02*
X15284836Y-59896895D01*
X15284836Y-59896895D02*
X15170550Y-59858800D01*
X15170550Y-59858800D02*
X15094360Y-59782609D01*
X15094360Y-59782609D02*
X15056265Y-59706419D01*
X15056265Y-59706419D02*
X15018169Y-59554038D01*
X15018169Y-59554038D02*
X15018169Y-59439752D01*
X15018169Y-59439752D02*
X15056265Y-59287371D01*
X15056265Y-59287371D02*
X15094360Y-59211180D01*
X15094360Y-59211180D02*
X15170550Y-59134990D01*
X15170550Y-59134990D02*
X15284836Y-59096895D01*
X15284836Y-59096895D02*
X15361027Y-59096895D01*
X15361027Y-59096895D02*
X15475312Y-59134990D01*
X15475312Y-59134990D02*
X15513408Y-59173085D01*
X16427693Y-59858800D02*
X16541979Y-59896895D01*
X16541979Y-59896895D02*
X16732455Y-59896895D01*
X16732455Y-59896895D02*
X16808646Y-59858800D01*
X16808646Y-59858800D02*
X16846741Y-59820704D01*
X16846741Y-59820704D02*
X16884836Y-59744514D01*
X16884836Y-59744514D02*
X16884836Y-59668323D01*
X16884836Y-59668323D02*
X16846741Y-59592133D01*
X16846741Y-59592133D02*
X16808646Y-59554038D01*
X16808646Y-59554038D02*
X16732455Y-59515942D01*
X16732455Y-59515942D02*
X16580074Y-59477847D01*
X16580074Y-59477847D02*
X16503884Y-59439752D01*
X16503884Y-59439752D02*
X16465789Y-59401657D01*
X16465789Y-59401657D02*
X16427693Y-59325466D01*
X16427693Y-59325466D02*
X16427693Y-59249276D01*
X16427693Y-59249276D02*
X16465789Y-59173085D01*
X16465789Y-59173085D02*
X16503884Y-59134990D01*
X16503884Y-59134990D02*
X16580074Y-59096895D01*
X16580074Y-59096895D02*
X16770551Y-59096895D01*
X16770551Y-59096895D02*
X16884836Y-59134990D01*
X17151503Y-59363561D02*
X17303884Y-59896895D01*
X17303884Y-59896895D02*
X17456265Y-59515942D01*
X17456265Y-59515942D02*
X17608646Y-59896895D01*
X17608646Y-59896895D02*
X17761027Y-59363561D01*
X18065789Y-59896895D02*
X18065789Y-59363561D01*
X18065789Y-59096895D02*
X18027693Y-59134990D01*
X18027693Y-59134990D02*
X18065789Y-59173085D01*
X18065789Y-59173085D02*
X18103884Y-59134990D01*
X18103884Y-59134990D02*
X18065789Y-59096895D01*
X18065789Y-59096895D02*
X18065789Y-59173085D01*
X18332455Y-59363561D02*
X18637217Y-59363561D01*
X18446741Y-59096895D02*
X18446741Y-59782609D01*
X18446741Y-59782609D02*
X18484836Y-59858800D01*
X18484836Y-59858800D02*
X18561026Y-59896895D01*
X18561026Y-59896895D02*
X18637217Y-59896895D01*
X19246741Y-59858800D02*
X19170550Y-59896895D01*
X19170550Y-59896895D02*
X19018169Y-59896895D01*
X19018169Y-59896895D02*
X18941979Y-59858800D01*
X18941979Y-59858800D02*
X18903884Y-59820704D01*
X18903884Y-59820704D02*
X18865788Y-59744514D01*
X18865788Y-59744514D02*
X18865788Y-59515942D01*
X18865788Y-59515942D02*
X18903884Y-59439752D01*
X18903884Y-59439752D02*
X18941979Y-59401657D01*
X18941979Y-59401657D02*
X19018169Y-59363561D01*
X19018169Y-59363561D02*
X19170550Y-59363561D01*
X19170550Y-59363561D02*
X19246741Y-59401657D01*
X19589598Y-59896895D02*
X19589598Y-59096895D01*
X19932455Y-59896895D02*
X19932455Y-59477847D01*
X19932455Y-59477847D02*
X19894360Y-59401657D01*
X19894360Y-59401657D02*
X19818169Y-59363561D01*
X19818169Y-59363561D02*
X19703883Y-59363561D01*
X19703883Y-59363561D02*
X19627693Y-59401657D01*
X19627693Y-59401657D02*
X19589598Y-59439752D01*
X45122931Y-60177847D02*
X44856265Y-60177847D01*
X44856265Y-60596895D02*
X44856265Y-59796895D01*
X44856265Y-59796895D02*
X45237217Y-59796895D01*
X45884836Y-60596895D02*
X45884836Y-60177847D01*
X45884836Y-60177847D02*
X45846741Y-60101657D01*
X45846741Y-60101657D02*
X45770550Y-60063561D01*
X45770550Y-60063561D02*
X45618169Y-60063561D01*
X45618169Y-60063561D02*
X45541979Y-60101657D01*
X45884836Y-60558800D02*
X45808645Y-60596895D01*
X45808645Y-60596895D02*
X45618169Y-60596895D01*
X45618169Y-60596895D02*
X45541979Y-60558800D01*
X45541979Y-60558800D02*
X45503883Y-60482609D01*
X45503883Y-60482609D02*
X45503883Y-60406419D01*
X45503883Y-60406419D02*
X45541979Y-60330228D01*
X45541979Y-60330228D02*
X45618169Y-60292133D01*
X45618169Y-60292133D02*
X45808645Y-60292133D01*
X45808645Y-60292133D02*
X45884836Y-60254038D01*
X46265789Y-60063561D02*
X46265789Y-60596895D01*
X46265789Y-60139752D02*
X46303884Y-60101657D01*
X46303884Y-60101657D02*
X46380074Y-60063561D01*
X46380074Y-60063561D02*
X46494360Y-60063561D01*
X46494360Y-60063561D02*
X46570551Y-60101657D01*
X46570551Y-60101657D02*
X46608646Y-60177847D01*
X46608646Y-60177847D02*
X46608646Y-60596895D01*
X47599123Y-60596895D02*
X47599123Y-59796895D01*
X47599123Y-60177847D02*
X48056266Y-60177847D01*
X48056266Y-60596895D02*
X48056266Y-59796895D01*
X48437218Y-60596895D02*
X48437218Y-59796895D01*
X48437218Y-59796895D02*
X48627694Y-59796895D01*
X48627694Y-59796895D02*
X48741980Y-59834990D01*
X48741980Y-59834990D02*
X48818170Y-59911180D01*
X48818170Y-59911180D02*
X48856265Y-59987371D01*
X48856265Y-59987371D02*
X48894361Y-60139752D01*
X48894361Y-60139752D02*
X48894361Y-60254038D01*
X48894361Y-60254038D02*
X48856265Y-60406419D01*
X48856265Y-60406419D02*
X48818170Y-60482609D01*
X48818170Y-60482609D02*
X48741980Y-60558800D01*
X48741980Y-60558800D02*
X48627694Y-60596895D01*
X48627694Y-60596895D02*
X48437218Y-60596895D01*
X49694361Y-60596895D02*
X49427694Y-60215942D01*
X49237218Y-60596895D02*
X49237218Y-59796895D01*
X49237218Y-59796895D02*
X49541980Y-59796895D01*
X49541980Y-59796895D02*
X49618170Y-59834990D01*
X49618170Y-59834990D02*
X49656265Y-59873085D01*
X49656265Y-59873085D02*
X49694361Y-59949276D01*
X49694361Y-59949276D02*
X49694361Y-60063561D01*
X49694361Y-60063561D02*
X49656265Y-60139752D01*
X49656265Y-60139752D02*
X49618170Y-60177847D01*
X49618170Y-60177847D02*
X49541980Y-60215942D01*
X49541980Y-60215942D02*
X49237218Y-60215942D01*
X25896895Y-62586591D02*
X25515942Y-62853258D01*
X25896895Y-63043734D02*
X25096895Y-63043734D01*
X25096895Y-63043734D02*
X25096895Y-62738972D01*
X25096895Y-62738972D02*
X25134990Y-62662782D01*
X25134990Y-62662782D02*
X25173085Y-62624687D01*
X25173085Y-62624687D02*
X25249276Y-62586591D01*
X25249276Y-62586591D02*
X25363561Y-62586591D01*
X25363561Y-62586591D02*
X25439752Y-62624687D01*
X25439752Y-62624687D02*
X25477847Y-62662782D01*
X25477847Y-62662782D02*
X25515942Y-62738972D01*
X25515942Y-62738972D02*
X25515942Y-63043734D01*
X25820704Y-61786591D02*
X25858800Y-61824687D01*
X25858800Y-61824687D02*
X25896895Y-61938972D01*
X25896895Y-61938972D02*
X25896895Y-62015163D01*
X25896895Y-62015163D02*
X25858800Y-62129449D01*
X25858800Y-62129449D02*
X25782609Y-62205639D01*
X25782609Y-62205639D02*
X25706419Y-62243734D01*
X25706419Y-62243734D02*
X25554038Y-62281830D01*
X25554038Y-62281830D02*
X25439752Y-62281830D01*
X25439752Y-62281830D02*
X25287371Y-62243734D01*
X25287371Y-62243734D02*
X25211180Y-62205639D01*
X25211180Y-62205639D02*
X25134990Y-62129449D01*
X25134990Y-62129449D02*
X25096895Y-62015163D01*
X25096895Y-62015163D02*
X25096895Y-61938972D01*
X25096895Y-61938972D02*
X25134990Y-61824687D01*
X25134990Y-61824687D02*
X25173085Y-61786591D01*
X25896895Y-61443734D02*
X25096895Y-61443734D01*
X25896895Y-61062782D02*
X25096895Y-61062782D01*
X25096895Y-61062782D02*
X25896895Y-60605639D01*
X25896895Y-60605639D02*
X25096895Y-60605639D01*
X47796895Y-62562782D02*
X47796895Y-62943734D01*
X47796895Y-62943734D02*
X48177847Y-62981830D01*
X48177847Y-62981830D02*
X48139752Y-62943734D01*
X48139752Y-62943734D02*
X48101657Y-62867544D01*
X48101657Y-62867544D02*
X48101657Y-62677068D01*
X48101657Y-62677068D02*
X48139752Y-62600877D01*
X48139752Y-62600877D02*
X48177847Y-62562782D01*
X48177847Y-62562782D02*
X48254038Y-62524687D01*
X48254038Y-62524687D02*
X48444514Y-62524687D01*
X48444514Y-62524687D02*
X48520704Y-62562782D01*
X48520704Y-62562782D02*
X48558800Y-62600877D01*
X48558800Y-62600877D02*
X48596895Y-62677068D01*
X48596895Y-62677068D02*
X48596895Y-62867544D01*
X48596895Y-62867544D02*
X48558800Y-62943734D01*
X48558800Y-62943734D02*
X48520704Y-62981830D01*
X47796895Y-62296115D02*
X48596895Y-62029448D01*
X48596895Y-62029448D02*
X47796895Y-61762782D01*
X60896895Y-59919925D02*
X60896895Y-59424687D01*
X60896895Y-59424687D02*
X61201657Y-59691353D01*
X61201657Y-59691353D02*
X61201657Y-59577068D01*
X61201657Y-59577068D02*
X61239752Y-59500877D01*
X61239752Y-59500877D02*
X61277847Y-59462782D01*
X61277847Y-59462782D02*
X61354038Y-59424687D01*
X61354038Y-59424687D02*
X61544514Y-59424687D01*
X61544514Y-59424687D02*
X61620704Y-59462782D01*
X61620704Y-59462782D02*
X61658800Y-59500877D01*
X61658800Y-59500877D02*
X61696895Y-59577068D01*
X61696895Y-59577068D02*
X61696895Y-59805639D01*
X61696895Y-59805639D02*
X61658800Y-59881830D01*
X61658800Y-59881830D02*
X61620704Y-59919925D01*
X60896895Y-59196115D02*
X61696895Y-58929448D01*
X61696895Y-58929448D02*
X60896895Y-58662782D01*
X60896895Y-58472306D02*
X60896895Y-57977068D01*
X60896895Y-57977068D02*
X61201657Y-58243734D01*
X61201657Y-58243734D02*
X61201657Y-58129449D01*
X61201657Y-58129449D02*
X61239752Y-58053258D01*
X61239752Y-58053258D02*
X61277847Y-58015163D01*
X61277847Y-58015163D02*
X61354038Y-57977068D01*
X61354038Y-57977068D02*
X61544514Y-57977068D01*
X61544514Y-57977068D02*
X61620704Y-58015163D01*
X61620704Y-58015163D02*
X61658800Y-58053258D01*
X61658800Y-58053258D02*
X61696895Y-58129449D01*
X61696895Y-58129449D02*
X61696895Y-58358020D01*
X61696895Y-58358020D02*
X61658800Y-58434211D01*
X61658800Y-58434211D02*
X61620704Y-58472306D01*
X20413408Y-67096895D02*
X20146741Y-66715942D01*
X19956265Y-67096895D02*
X19956265Y-66296895D01*
X19956265Y-66296895D02*
X20261027Y-66296895D01*
X20261027Y-66296895D02*
X20337217Y-66334990D01*
X20337217Y-66334990D02*
X20375312Y-66373085D01*
X20375312Y-66373085D02*
X20413408Y-66449276D01*
X20413408Y-66449276D02*
X20413408Y-66563561D01*
X20413408Y-66563561D02*
X20375312Y-66639752D01*
X20375312Y-66639752D02*
X20337217Y-66677847D01*
X20337217Y-66677847D02*
X20261027Y-66715942D01*
X20261027Y-66715942D02*
X19956265Y-66715942D01*
X21213408Y-67020704D02*
X21175312Y-67058800D01*
X21175312Y-67058800D02*
X21061027Y-67096895D01*
X21061027Y-67096895D02*
X20984836Y-67096895D01*
X20984836Y-67096895D02*
X20870550Y-67058800D01*
X20870550Y-67058800D02*
X20794360Y-66982609D01*
X20794360Y-66982609D02*
X20756265Y-66906419D01*
X20756265Y-66906419D02*
X20718169Y-66754038D01*
X20718169Y-66754038D02*
X20718169Y-66639752D01*
X20718169Y-66639752D02*
X20756265Y-66487371D01*
X20756265Y-66487371D02*
X20794360Y-66411180D01*
X20794360Y-66411180D02*
X20870550Y-66334990D01*
X20870550Y-66334990D02*
X20984836Y-66296895D01*
X20984836Y-66296895D02*
X21061027Y-66296895D01*
X21061027Y-66296895D02*
X21175312Y-66334990D01*
X21175312Y-66334990D02*
X21213408Y-66373085D01*
X22127693Y-67058800D02*
X22241979Y-67096895D01*
X22241979Y-67096895D02*
X22432455Y-67096895D01*
X22432455Y-67096895D02*
X22508646Y-67058800D01*
X22508646Y-67058800D02*
X22546741Y-67020704D01*
X22546741Y-67020704D02*
X22584836Y-66944514D01*
X22584836Y-66944514D02*
X22584836Y-66868323D01*
X22584836Y-66868323D02*
X22546741Y-66792133D01*
X22546741Y-66792133D02*
X22508646Y-66754038D01*
X22508646Y-66754038D02*
X22432455Y-66715942D01*
X22432455Y-66715942D02*
X22280074Y-66677847D01*
X22280074Y-66677847D02*
X22203884Y-66639752D01*
X22203884Y-66639752D02*
X22165789Y-66601657D01*
X22165789Y-66601657D02*
X22127693Y-66525466D01*
X22127693Y-66525466D02*
X22127693Y-66449276D01*
X22127693Y-66449276D02*
X22165789Y-66373085D01*
X22165789Y-66373085D02*
X22203884Y-66334990D01*
X22203884Y-66334990D02*
X22280074Y-66296895D01*
X22280074Y-66296895D02*
X22470551Y-66296895D01*
X22470551Y-66296895D02*
X22584836Y-66334990D01*
X22851503Y-66563561D02*
X23003884Y-67096895D01*
X23003884Y-67096895D02*
X23156265Y-66715942D01*
X23156265Y-66715942D02*
X23308646Y-67096895D01*
X23308646Y-67096895D02*
X23461027Y-66563561D01*
X23765789Y-67096895D02*
X23765789Y-66563561D01*
X23765789Y-66296895D02*
X23727693Y-66334990D01*
X23727693Y-66334990D02*
X23765789Y-66373085D01*
X23765789Y-66373085D02*
X23803884Y-66334990D01*
X23803884Y-66334990D02*
X23765789Y-66296895D01*
X23765789Y-66296895D02*
X23765789Y-66373085D01*
X24032455Y-66563561D02*
X24337217Y-66563561D01*
X24146741Y-66296895D02*
X24146741Y-66982609D01*
X24146741Y-66982609D02*
X24184836Y-67058800D01*
X24184836Y-67058800D02*
X24261026Y-67096895D01*
X24261026Y-67096895D02*
X24337217Y-67096895D01*
X24946741Y-67058800D02*
X24870550Y-67096895D01*
X24870550Y-67096895D02*
X24718169Y-67096895D01*
X24718169Y-67096895D02*
X24641979Y-67058800D01*
X24641979Y-67058800D02*
X24603884Y-67020704D01*
X24603884Y-67020704D02*
X24565788Y-66944514D01*
X24565788Y-66944514D02*
X24565788Y-66715942D01*
X24565788Y-66715942D02*
X24603884Y-66639752D01*
X24603884Y-66639752D02*
X24641979Y-66601657D01*
X24641979Y-66601657D02*
X24718169Y-66563561D01*
X24718169Y-66563561D02*
X24870550Y-66563561D01*
X24870550Y-66563561D02*
X24946741Y-66601657D01*
X25289598Y-67096895D02*
X25289598Y-66296895D01*
X25632455Y-67096895D02*
X25632455Y-66677847D01*
X25632455Y-66677847D02*
X25594360Y-66601657D01*
X25594360Y-66601657D02*
X25518169Y-66563561D01*
X25518169Y-66563561D02*
X25403883Y-66563561D01*
X25403883Y-66563561D02*
X25327693Y-66601657D01*
X25327693Y-66601657D02*
X25289598Y-66639752D01*
X70075312Y-58634990D02*
X69999122Y-58596895D01*
X69999122Y-58596895D02*
X69884836Y-58596895D01*
X69884836Y-58596895D02*
X69770550Y-58634990D01*
X69770550Y-58634990D02*
X69694360Y-58711180D01*
X69694360Y-58711180D02*
X69656265Y-58787371D01*
X69656265Y-58787371D02*
X69618169Y-58939752D01*
X69618169Y-58939752D02*
X69618169Y-59054038D01*
X69618169Y-59054038D02*
X69656265Y-59206419D01*
X69656265Y-59206419D02*
X69694360Y-59282609D01*
X69694360Y-59282609D02*
X69770550Y-59358800D01*
X69770550Y-59358800D02*
X69884836Y-59396895D01*
X69884836Y-59396895D02*
X69961027Y-59396895D01*
X69961027Y-59396895D02*
X70075312Y-59358800D01*
X70075312Y-59358800D02*
X70113408Y-59320704D01*
X70113408Y-59320704D02*
X70113408Y-59054038D01*
X70113408Y-59054038D02*
X69961027Y-59054038D01*
X70456265Y-59396895D02*
X70456265Y-58596895D01*
X70456265Y-58596895D02*
X70913408Y-59396895D01*
X70913408Y-59396895D02*
X70913408Y-58596895D01*
X71294360Y-59396895D02*
X71294360Y-58596895D01*
X71294360Y-58596895D02*
X71484836Y-58596895D01*
X71484836Y-58596895D02*
X71599122Y-58634990D01*
X71599122Y-58634990D02*
X71675312Y-58711180D01*
X71675312Y-58711180D02*
X71713407Y-58787371D01*
X71713407Y-58787371D02*
X71751503Y-58939752D01*
X71751503Y-58939752D02*
X71751503Y-59054038D01*
X71751503Y-59054038D02*
X71713407Y-59206419D01*
X71713407Y-59206419D02*
X71675312Y-59282609D01*
X71675312Y-59282609D02*
X71599122Y-59358800D01*
X71599122Y-59358800D02*
X71484836Y-59396895D01*
X71484836Y-59396895D02*
X71294360Y-59396895D01*
X31634990Y-59724687D02*
X31596895Y-59800877D01*
X31596895Y-59800877D02*
X31596895Y-59915163D01*
X31596895Y-59915163D02*
X31634990Y-60029449D01*
X31634990Y-60029449D02*
X31711180Y-60105639D01*
X31711180Y-60105639D02*
X31787371Y-60143734D01*
X31787371Y-60143734D02*
X31939752Y-60181830D01*
X31939752Y-60181830D02*
X32054038Y-60181830D01*
X32054038Y-60181830D02*
X32206419Y-60143734D01*
X32206419Y-60143734D02*
X32282609Y-60105639D01*
X32282609Y-60105639D02*
X32358800Y-60029449D01*
X32358800Y-60029449D02*
X32396895Y-59915163D01*
X32396895Y-59915163D02*
X32396895Y-59838972D01*
X32396895Y-59838972D02*
X32358800Y-59724687D01*
X32358800Y-59724687D02*
X32320704Y-59686591D01*
X32320704Y-59686591D02*
X32054038Y-59686591D01*
X32054038Y-59686591D02*
X32054038Y-59838972D01*
X32396895Y-59343734D02*
X31596895Y-59343734D01*
X31596895Y-59343734D02*
X31596895Y-59038972D01*
X31596895Y-59038972D02*
X31634990Y-58962782D01*
X31634990Y-58962782D02*
X31673085Y-58924687D01*
X31673085Y-58924687D02*
X31749276Y-58886591D01*
X31749276Y-58886591D02*
X31863561Y-58886591D01*
X31863561Y-58886591D02*
X31939752Y-58924687D01*
X31939752Y-58924687D02*
X31977847Y-58962782D01*
X31977847Y-58962782D02*
X32015942Y-59038972D01*
X32015942Y-59038972D02*
X32015942Y-59343734D01*
X32396895Y-58543734D02*
X31596895Y-58543734D01*
X31596895Y-58010401D02*
X31596895Y-57858020D01*
X31596895Y-57858020D02*
X31634990Y-57781830D01*
X31634990Y-57781830D02*
X31711180Y-57705639D01*
X31711180Y-57705639D02*
X31863561Y-57667544D01*
X31863561Y-57667544D02*
X32130228Y-57667544D01*
X32130228Y-57667544D02*
X32282609Y-57705639D01*
X32282609Y-57705639D02*
X32358800Y-57781830D01*
X32358800Y-57781830D02*
X32396895Y-57858020D01*
X32396895Y-57858020D02*
X32396895Y-58010401D01*
X32396895Y-58010401D02*
X32358800Y-58086592D01*
X32358800Y-58086592D02*
X32282609Y-58162782D01*
X32282609Y-58162782D02*
X32130228Y-58200878D01*
X32130228Y-58200878D02*
X31863561Y-58200878D01*
X31863561Y-58200878D02*
X31711180Y-58162782D01*
X31711180Y-58162782D02*
X31634990Y-58086592D01*
X31634990Y-58086592D02*
X31596895Y-58010401D01*
X31673085Y-57362783D02*
X31634990Y-57324687D01*
X31634990Y-57324687D02*
X31596895Y-57248497D01*
X31596895Y-57248497D02*
X31596895Y-57058021D01*
X31596895Y-57058021D02*
X31634990Y-56981830D01*
X31634990Y-56981830D02*
X31673085Y-56943735D01*
X31673085Y-56943735D02*
X31749276Y-56905640D01*
X31749276Y-56905640D02*
X31825466Y-56905640D01*
X31825466Y-56905640D02*
X31939752Y-56943735D01*
X31939752Y-56943735D02*
X32396895Y-57400878D01*
X32396895Y-57400878D02*
X32396895Y-56905640D01*
X31673085Y-56600878D02*
X31634990Y-56562782D01*
X31634990Y-56562782D02*
X31596895Y-56486592D01*
X31596895Y-56486592D02*
X31596895Y-56296116D01*
X31596895Y-56296116D02*
X31634990Y-56219925D01*
X31634990Y-56219925D02*
X31673085Y-56181830D01*
X31673085Y-56181830D02*
X31749276Y-56143735D01*
X31749276Y-56143735D02*
X31825466Y-56143735D01*
X31825466Y-56143735D02*
X31939752Y-56181830D01*
X31939752Y-56181830D02*
X32396895Y-56638973D01*
X32396895Y-56638973D02*
X32396895Y-56143735D01*
X63134990Y-59424687D02*
X63096895Y-59500877D01*
X63096895Y-59500877D02*
X63096895Y-59615163D01*
X63096895Y-59615163D02*
X63134990Y-59729449D01*
X63134990Y-59729449D02*
X63211180Y-59805639D01*
X63211180Y-59805639D02*
X63287371Y-59843734D01*
X63287371Y-59843734D02*
X63439752Y-59881830D01*
X63439752Y-59881830D02*
X63554038Y-59881830D01*
X63554038Y-59881830D02*
X63706419Y-59843734D01*
X63706419Y-59843734D02*
X63782609Y-59805639D01*
X63782609Y-59805639D02*
X63858800Y-59729449D01*
X63858800Y-59729449D02*
X63896895Y-59615163D01*
X63896895Y-59615163D02*
X63896895Y-59538972D01*
X63896895Y-59538972D02*
X63858800Y-59424687D01*
X63858800Y-59424687D02*
X63820704Y-59386591D01*
X63820704Y-59386591D02*
X63554038Y-59386591D01*
X63554038Y-59386591D02*
X63554038Y-59538972D01*
X63896895Y-59043734D02*
X63096895Y-59043734D01*
X63096895Y-59043734D02*
X63096895Y-58738972D01*
X63096895Y-58738972D02*
X63134990Y-58662782D01*
X63134990Y-58662782D02*
X63173085Y-58624687D01*
X63173085Y-58624687D02*
X63249276Y-58586591D01*
X63249276Y-58586591D02*
X63363561Y-58586591D01*
X63363561Y-58586591D02*
X63439752Y-58624687D01*
X63439752Y-58624687D02*
X63477847Y-58662782D01*
X63477847Y-58662782D02*
X63515942Y-58738972D01*
X63515942Y-58738972D02*
X63515942Y-59043734D01*
X63896895Y-58243734D02*
X63096895Y-58243734D01*
X63096895Y-57710401D02*
X63096895Y-57558020D01*
X63096895Y-57558020D02*
X63134990Y-57481830D01*
X63134990Y-57481830D02*
X63211180Y-57405639D01*
X63211180Y-57405639D02*
X63363561Y-57367544D01*
X63363561Y-57367544D02*
X63630228Y-57367544D01*
X63630228Y-57367544D02*
X63782609Y-57405639D01*
X63782609Y-57405639D02*
X63858800Y-57481830D01*
X63858800Y-57481830D02*
X63896895Y-57558020D01*
X63896895Y-57558020D02*
X63896895Y-57710401D01*
X63896895Y-57710401D02*
X63858800Y-57786592D01*
X63858800Y-57786592D02*
X63782609Y-57862782D01*
X63782609Y-57862782D02*
X63630228Y-57900878D01*
X63630228Y-57900878D02*
X63363561Y-57900878D01*
X63363561Y-57900878D02*
X63211180Y-57862782D01*
X63211180Y-57862782D02*
X63134990Y-57786592D01*
X63134990Y-57786592D02*
X63096895Y-57710401D01*
X63096895Y-57100878D02*
X63096895Y-56605640D01*
X63096895Y-56605640D02*
X63401657Y-56872306D01*
X63401657Y-56872306D02*
X63401657Y-56758021D01*
X63401657Y-56758021D02*
X63439752Y-56681830D01*
X63439752Y-56681830D02*
X63477847Y-56643735D01*
X63477847Y-56643735D02*
X63554038Y-56605640D01*
X63554038Y-56605640D02*
X63744514Y-56605640D01*
X63744514Y-56605640D02*
X63820704Y-56643735D01*
X63820704Y-56643735D02*
X63858800Y-56681830D01*
X63858800Y-56681830D02*
X63896895Y-56758021D01*
X63896895Y-56758021D02*
X63896895Y-56986592D01*
X63896895Y-56986592D02*
X63858800Y-57062783D01*
X63858800Y-57062783D02*
X63820704Y-57100878D01*
X52996895Y-59919925D02*
X52996895Y-59424687D01*
X52996895Y-59424687D02*
X53301657Y-59691353D01*
X53301657Y-59691353D02*
X53301657Y-59577068D01*
X53301657Y-59577068D02*
X53339752Y-59500877D01*
X53339752Y-59500877D02*
X53377847Y-59462782D01*
X53377847Y-59462782D02*
X53454038Y-59424687D01*
X53454038Y-59424687D02*
X53644514Y-59424687D01*
X53644514Y-59424687D02*
X53720704Y-59462782D01*
X53720704Y-59462782D02*
X53758800Y-59500877D01*
X53758800Y-59500877D02*
X53796895Y-59577068D01*
X53796895Y-59577068D02*
X53796895Y-59805639D01*
X53796895Y-59805639D02*
X53758800Y-59881830D01*
X53758800Y-59881830D02*
X53720704Y-59919925D01*
X52996895Y-59196115D02*
X53796895Y-58929448D01*
X53796895Y-58929448D02*
X52996895Y-58662782D01*
X52996895Y-58472306D02*
X52996895Y-57977068D01*
X52996895Y-57977068D02*
X53301657Y-58243734D01*
X53301657Y-58243734D02*
X53301657Y-58129449D01*
X53301657Y-58129449D02*
X53339752Y-58053258D01*
X53339752Y-58053258D02*
X53377847Y-58015163D01*
X53377847Y-58015163D02*
X53454038Y-57977068D01*
X53454038Y-57977068D02*
X53644514Y-57977068D01*
X53644514Y-57977068D02*
X53720704Y-58015163D01*
X53720704Y-58015163D02*
X53758800Y-58053258D01*
X53758800Y-58053258D02*
X53796895Y-58129449D01*
X53796895Y-58129449D02*
X53796895Y-58358020D01*
X53796895Y-58358020D02*
X53758800Y-58434211D01*
X53758800Y-58434211D02*
X53720704Y-58472306D01*
X37534990Y-59624687D02*
X37496895Y-59700877D01*
X37496895Y-59700877D02*
X37496895Y-59815163D01*
X37496895Y-59815163D02*
X37534990Y-59929449D01*
X37534990Y-59929449D02*
X37611180Y-60005639D01*
X37611180Y-60005639D02*
X37687371Y-60043734D01*
X37687371Y-60043734D02*
X37839752Y-60081830D01*
X37839752Y-60081830D02*
X37954038Y-60081830D01*
X37954038Y-60081830D02*
X38106419Y-60043734D01*
X38106419Y-60043734D02*
X38182609Y-60005639D01*
X38182609Y-60005639D02*
X38258800Y-59929449D01*
X38258800Y-59929449D02*
X38296895Y-59815163D01*
X38296895Y-59815163D02*
X38296895Y-59738972D01*
X38296895Y-59738972D02*
X38258800Y-59624687D01*
X38258800Y-59624687D02*
X38220704Y-59586591D01*
X38220704Y-59586591D02*
X37954038Y-59586591D01*
X37954038Y-59586591D02*
X37954038Y-59738972D01*
X38296895Y-59243734D02*
X37496895Y-59243734D01*
X37496895Y-59243734D02*
X38296895Y-58786591D01*
X38296895Y-58786591D02*
X37496895Y-58786591D01*
X38296895Y-58405639D02*
X37496895Y-58405639D01*
X37496895Y-58405639D02*
X37496895Y-58215163D01*
X37496895Y-58215163D02*
X37534990Y-58100877D01*
X37534990Y-58100877D02*
X37611180Y-58024687D01*
X37611180Y-58024687D02*
X37687371Y-57986592D01*
X37687371Y-57986592D02*
X37839752Y-57948496D01*
X37839752Y-57948496D02*
X37954038Y-57948496D01*
X37954038Y-57948496D02*
X38106419Y-57986592D01*
X38106419Y-57986592D02*
X38182609Y-58024687D01*
X38182609Y-58024687D02*
X38258800Y-58100877D01*
X38258800Y-58100877D02*
X38296895Y-58215163D01*
X38296895Y-58215163D02*
X38296895Y-58405639D01*
X55234990Y-59424687D02*
X55196895Y-59500877D01*
X55196895Y-59500877D02*
X55196895Y-59615163D01*
X55196895Y-59615163D02*
X55234990Y-59729449D01*
X55234990Y-59729449D02*
X55311180Y-59805639D01*
X55311180Y-59805639D02*
X55387371Y-59843734D01*
X55387371Y-59843734D02*
X55539752Y-59881830D01*
X55539752Y-59881830D02*
X55654038Y-59881830D01*
X55654038Y-59881830D02*
X55806419Y-59843734D01*
X55806419Y-59843734D02*
X55882609Y-59805639D01*
X55882609Y-59805639D02*
X55958800Y-59729449D01*
X55958800Y-59729449D02*
X55996895Y-59615163D01*
X55996895Y-59615163D02*
X55996895Y-59538972D01*
X55996895Y-59538972D02*
X55958800Y-59424687D01*
X55958800Y-59424687D02*
X55920704Y-59386591D01*
X55920704Y-59386591D02*
X55654038Y-59386591D01*
X55654038Y-59386591D02*
X55654038Y-59538972D01*
X55996895Y-59043734D02*
X55196895Y-59043734D01*
X55196895Y-59043734D02*
X55196895Y-58738972D01*
X55196895Y-58738972D02*
X55234990Y-58662782D01*
X55234990Y-58662782D02*
X55273085Y-58624687D01*
X55273085Y-58624687D02*
X55349276Y-58586591D01*
X55349276Y-58586591D02*
X55463561Y-58586591D01*
X55463561Y-58586591D02*
X55539752Y-58624687D01*
X55539752Y-58624687D02*
X55577847Y-58662782D01*
X55577847Y-58662782D02*
X55615942Y-58738972D01*
X55615942Y-58738972D02*
X55615942Y-59043734D01*
X55996895Y-58243734D02*
X55196895Y-58243734D01*
X55196895Y-57710401D02*
X55196895Y-57558020D01*
X55196895Y-57558020D02*
X55234990Y-57481830D01*
X55234990Y-57481830D02*
X55311180Y-57405639D01*
X55311180Y-57405639D02*
X55463561Y-57367544D01*
X55463561Y-57367544D02*
X55730228Y-57367544D01*
X55730228Y-57367544D02*
X55882609Y-57405639D01*
X55882609Y-57405639D02*
X55958800Y-57481830D01*
X55958800Y-57481830D02*
X55996895Y-57558020D01*
X55996895Y-57558020D02*
X55996895Y-57710401D01*
X55996895Y-57710401D02*
X55958800Y-57786592D01*
X55958800Y-57786592D02*
X55882609Y-57862782D01*
X55882609Y-57862782D02*
X55730228Y-57900878D01*
X55730228Y-57900878D02*
X55463561Y-57900878D01*
X55463561Y-57900878D02*
X55311180Y-57862782D01*
X55311180Y-57862782D02*
X55234990Y-57786592D01*
X55234990Y-57786592D02*
X55196895Y-57710401D01*
X55196895Y-56643735D02*
X55196895Y-57024687D01*
X55196895Y-57024687D02*
X55577847Y-57062783D01*
X55577847Y-57062783D02*
X55539752Y-57024687D01*
X55539752Y-57024687D02*
X55501657Y-56948497D01*
X55501657Y-56948497D02*
X55501657Y-56758021D01*
X55501657Y-56758021D02*
X55539752Y-56681830D01*
X55539752Y-56681830D02*
X55577847Y-56643735D01*
X55577847Y-56643735D02*
X55654038Y-56605640D01*
X55654038Y-56605640D02*
X55844514Y-56605640D01*
X55844514Y-56605640D02*
X55920704Y-56643735D01*
X55920704Y-56643735D02*
X55958800Y-56681830D01*
X55958800Y-56681830D02*
X55996895Y-56758021D01*
X55996895Y-56758021D02*
X55996895Y-56948497D01*
X55996895Y-56948497D02*
X55958800Y-57024687D01*
X55958800Y-57024687D02*
X55920704Y-57062783D01*
X30496895Y-60219925D02*
X30496895Y-59724687D01*
X30496895Y-59724687D02*
X30801657Y-59991353D01*
X30801657Y-59991353D02*
X30801657Y-59877068D01*
X30801657Y-59877068D02*
X30839752Y-59800877D01*
X30839752Y-59800877D02*
X30877847Y-59762782D01*
X30877847Y-59762782D02*
X30954038Y-59724687D01*
X30954038Y-59724687D02*
X31144514Y-59724687D01*
X31144514Y-59724687D02*
X31220704Y-59762782D01*
X31220704Y-59762782D02*
X31258800Y-59800877D01*
X31258800Y-59800877D02*
X31296895Y-59877068D01*
X31296895Y-59877068D02*
X31296895Y-60105639D01*
X31296895Y-60105639D02*
X31258800Y-60181830D01*
X31258800Y-60181830D02*
X31220704Y-60219925D01*
X30496895Y-59496115D02*
X31296895Y-59229448D01*
X31296895Y-59229448D02*
X30496895Y-58962782D01*
X30496895Y-58772306D02*
X30496895Y-58277068D01*
X30496895Y-58277068D02*
X30801657Y-58543734D01*
X30801657Y-58543734D02*
X30801657Y-58429449D01*
X30801657Y-58429449D02*
X30839752Y-58353258D01*
X30839752Y-58353258D02*
X30877847Y-58315163D01*
X30877847Y-58315163D02*
X30954038Y-58277068D01*
X30954038Y-58277068D02*
X31144514Y-58277068D01*
X31144514Y-58277068D02*
X31220704Y-58315163D01*
X31220704Y-58315163D02*
X31258800Y-58353258D01*
X31258800Y-58353258D02*
X31296895Y-58429449D01*
X31296895Y-58429449D02*
X31296895Y-58658020D01*
X31296895Y-58658020D02*
X31258800Y-58734211D01*
X31258800Y-58734211D02*
X31220704Y-58772306D01*
X45234990Y-62624687D02*
X45196895Y-62700877D01*
X45196895Y-62700877D02*
X45196895Y-62815163D01*
X45196895Y-62815163D02*
X45234990Y-62929449D01*
X45234990Y-62929449D02*
X45311180Y-63005639D01*
X45311180Y-63005639D02*
X45387371Y-63043734D01*
X45387371Y-63043734D02*
X45539752Y-63081830D01*
X45539752Y-63081830D02*
X45654038Y-63081830D01*
X45654038Y-63081830D02*
X45806419Y-63043734D01*
X45806419Y-63043734D02*
X45882609Y-63005639D01*
X45882609Y-63005639D02*
X45958800Y-62929449D01*
X45958800Y-62929449D02*
X45996895Y-62815163D01*
X45996895Y-62815163D02*
X45996895Y-62738972D01*
X45996895Y-62738972D02*
X45958800Y-62624687D01*
X45958800Y-62624687D02*
X45920704Y-62586591D01*
X45920704Y-62586591D02*
X45654038Y-62586591D01*
X45654038Y-62586591D02*
X45654038Y-62738972D01*
X45996895Y-62243734D02*
X45196895Y-62243734D01*
X45196895Y-62243734D02*
X45996895Y-61786591D01*
X45996895Y-61786591D02*
X45196895Y-61786591D01*
X45996895Y-61405639D02*
X45196895Y-61405639D01*
X45196895Y-61405639D02*
X45196895Y-61215163D01*
X45196895Y-61215163D02*
X45234990Y-61100877D01*
X45234990Y-61100877D02*
X45311180Y-61024687D01*
X45311180Y-61024687D02*
X45387371Y-60986592D01*
X45387371Y-60986592D02*
X45539752Y-60948496D01*
X45539752Y-60948496D02*
X45654038Y-60948496D01*
X45654038Y-60948496D02*
X45806419Y-60986592D01*
X45806419Y-60986592D02*
X45882609Y-61024687D01*
X45882609Y-61024687D02*
X45958800Y-61100877D01*
X45958800Y-61100877D02*
X45996895Y-61215163D01*
X45996895Y-61215163D02*
X45996895Y-61405639D01*
X69680074Y-59796895D02*
X70175312Y-59796895D01*
X70175312Y-59796895D02*
X69908646Y-60101657D01*
X69908646Y-60101657D02*
X70022931Y-60101657D01*
X70022931Y-60101657D02*
X70099122Y-60139752D01*
X70099122Y-60139752D02*
X70137217Y-60177847D01*
X70137217Y-60177847D02*
X70175312Y-60254038D01*
X70175312Y-60254038D02*
X70175312Y-60444514D01*
X70175312Y-60444514D02*
X70137217Y-60520704D01*
X70137217Y-60520704D02*
X70099122Y-60558800D01*
X70099122Y-60558800D02*
X70022931Y-60596895D01*
X70022931Y-60596895D02*
X69794360Y-60596895D01*
X69794360Y-60596895D02*
X69718169Y-60558800D01*
X69718169Y-60558800D02*
X69680074Y-60520704D01*
X70403884Y-59796895D02*
X70670551Y-60596895D01*
X70670551Y-60596895D02*
X70937217Y-59796895D01*
X71127693Y-59796895D02*
X71622931Y-59796895D01*
X71622931Y-59796895D02*
X71356265Y-60101657D01*
X71356265Y-60101657D02*
X71470550Y-60101657D01*
X71470550Y-60101657D02*
X71546741Y-60139752D01*
X71546741Y-60139752D02*
X71584836Y-60177847D01*
X71584836Y-60177847D02*
X71622931Y-60254038D01*
X71622931Y-60254038D02*
X71622931Y-60444514D01*
X71622931Y-60444514D02*
X71584836Y-60520704D01*
X71584836Y-60520704D02*
X71546741Y-60558800D01*
X71546741Y-60558800D02*
X71470550Y-60596895D01*
X71470550Y-60596895D02*
X71241979Y-60596895D01*
X71241979Y-60596895D02*
X71165788Y-60558800D01*
X71165788Y-60558800D02*
X71127693Y-60520704D01*
D12*
%TO.C,J2*%
X58890000Y-61515000D02*
X59940000Y-61515000D01*
X58890000Y-64015000D02*
X58890000Y-61515000D01*
X59940000Y-61515000D02*
X59940000Y-60525000D01*
X60060000Y-65985000D02*
X63940000Y-65985000D01*
X65110000Y-61515000D02*
X64060000Y-61515000D01*
X65110000Y-64015000D02*
X65110000Y-61515000D01*
%TO.C,J9*%
X44270000Y-66130000D02*
X44270000Y-64800000D01*
X45600000Y-66130000D02*
X44270000Y-66130000D01*
X46870000Y-66130000D02*
X49470000Y-66130000D01*
X46870000Y-66130000D02*
X46870000Y-63470000D01*
X49470000Y-66130000D02*
X49470000Y-63470000D01*
X46870000Y-63470000D02*
X49470000Y-63470000D01*
%TO.C,J1*%
X19050000Y-18130000D02*
X19050000Y-16800000D01*
X20380000Y-18130000D02*
X19050000Y-18130000D01*
X21650000Y-18130000D02*
X69970000Y-18130000D01*
X21650000Y-18130000D02*
X21650000Y-15530000D01*
X69970000Y-18130000D02*
X69970000Y-12930000D01*
X19050000Y-15530000D02*
X19050000Y-12930000D01*
X21650000Y-15530000D02*
X19050000Y-15530000D01*
X19050000Y-12930000D02*
X69970000Y-12930000D01*
%TO.C,J6*%
X32310000Y-53330000D02*
X32310000Y-52000000D01*
X33640000Y-53330000D02*
X32310000Y-53330000D01*
X34910000Y-53330000D02*
X57830000Y-53330000D01*
X34910000Y-53330000D02*
X34910000Y-50730000D01*
X57830000Y-53330000D02*
X57830000Y-48130000D01*
X32310000Y-50730000D02*
X32310000Y-48130000D01*
X34910000Y-50730000D02*
X32310000Y-50730000D01*
X32310000Y-48130000D02*
X57830000Y-48130000D01*
D13*
%TO.C,U1*%
X13585000Y-42025000D02*
X13585000Y-22975000D01*
X16760000Y-19800000D02*
X72640000Y-19800000D01*
X72640000Y-45200000D02*
X16760000Y-45200000D01*
X75815000Y-22975000D02*
X75815000Y-42025000D01*
X16760000Y-19800000D02*
G75*
G03*
X13585000Y-22975000I0J-3175000D01*
G01*
X13585000Y-42025000D02*
G75*
G03*
X16760000Y-45200000I3175000J0D01*
G01*
X75815000Y-22975000D02*
G75*
G03*
X72640000Y-19800000I-3175000J0D01*
G01*
X72640000Y-45200000D02*
G75*
G03*
X75815000Y-42025000I0J3175000D01*
G01*
D10*
%TO.C,U2*%
X24050000Y-57450000D02*
X13850000Y-57450000D01*
X13850000Y-57450000D02*
X13850000Y-47250000D01*
X13850000Y-47250000D02*
X24050000Y-47250000D01*
X24050000Y-47250000D02*
X24050000Y-57450000D01*
D12*
%TO.C,J5*%
X28490000Y-61540000D02*
X29540000Y-61540000D01*
X28490000Y-64040000D02*
X28490000Y-61540000D01*
X29540000Y-61540000D02*
X29540000Y-60550000D01*
X29660000Y-66010000D02*
X33540000Y-66010000D01*
X34710000Y-61540000D02*
X33660000Y-61540000D01*
X34710000Y-64040000D02*
X34710000Y-61540000D01*
%TO.C,J7*%
X19140000Y-66130000D02*
X19140000Y-64800000D01*
X20470000Y-66130000D02*
X19140000Y-66130000D01*
X21740000Y-66130000D02*
X26880000Y-66130000D01*
X21740000Y-66130000D02*
X21740000Y-63470000D01*
X26880000Y-66130000D02*
X26880000Y-63470000D01*
X21740000Y-63470000D02*
X26880000Y-63470000D01*
%TO.C,J8*%
X66570000Y-58545000D02*
X67900000Y-58545000D01*
X66570000Y-59875000D02*
X66570000Y-58545000D01*
X66570000Y-61145000D02*
X66570000Y-66285000D01*
X66570000Y-61145000D02*
X69230000Y-61145000D01*
X66570000Y-66285000D02*
X69230000Y-66285000D01*
X69230000Y-61145000D02*
X69230000Y-66285000D01*
%TO.C,J3*%
X50890000Y-61515000D02*
X51940000Y-61515000D01*
X50890000Y-64015000D02*
X50890000Y-61515000D01*
X51940000Y-61515000D02*
X51940000Y-60525000D01*
X52060000Y-65985000D02*
X55940000Y-65985000D01*
X57110000Y-61515000D02*
X56060000Y-61515000D01*
X57110000Y-64015000D02*
X57110000Y-61515000D01*
%TO.C,J4*%
X36590000Y-61540000D02*
X37640000Y-61540000D01*
X36590000Y-64040000D02*
X36590000Y-61540000D01*
X37640000Y-61540000D02*
X37640000Y-60550000D01*
X37760000Y-66010000D02*
X41640000Y-66010000D01*
X42810000Y-61540000D02*
X41760000Y-61540000D01*
X42810000Y-64040000D02*
X42810000Y-61540000D01*
%TD*%
D14*
X62500000Y-54200000D03*
X63500000Y-55800000D03*
X21200000Y-40800000D03*
X20900000Y-51400000D03*
X65400000Y-21800000D03*
X65800000Y-37400000D03*
X62200000Y-66800000D03*
X55900000Y-24400000D03*
X23025000Y-19300000D03*
X30100000Y-55600000D03*
X22100000Y-26800000D03*
X67600000Y-55700000D03*
X37700000Y-24700000D03*
X30900000Y-49700000D03*
X39200000Y-64800000D03*
X56800000Y-41600000D03*
X59100000Y-61300000D03*
X57800000Y-51100000D03*
X30900000Y-46700000D03*
X46000000Y-37700000D03*
X73700000Y-51100000D03*
X14100000Y-54500000D03*
X23800000Y-58700000D03*
X19400000Y-37300000D03*
X17000000Y-61000000D03*
X36800000Y-56300000D03*
X68800000Y-25300000D03*
X25200000Y-51000000D03*
X35200000Y-22900000D03*
X40900000Y-39900000D03*
X66000000Y-46800000D03*
X30900000Y-41300000D03*
X50200000Y-58875000D03*
X27462312Y-20200331D03*
X24100000Y-24375000D03*
X25500000Y-21500000D03*
X27450000Y-21500000D03*
X25500000Y-22800000D03*
X27400000Y-22800000D03*
X34900000Y-59500000D03*
X43200000Y-24700000D03*
X55500000Y-56100000D03*
X42587347Y-60187347D03*
X44100000Y-60500000D03*
X45600000Y-64800000D03*
X48140000Y-64800000D03*
X20380000Y-16800000D03*
X20380000Y-14260000D03*
X22920000Y-16800000D03*
X22920000Y-14260000D03*
X25460000Y-16800000D03*
X25460000Y-14260000D03*
X28000000Y-16800000D03*
X28000000Y-14260000D03*
X30540000Y-16800000D03*
X30540000Y-14260000D03*
X33080000Y-16800000D03*
X33080000Y-14260000D03*
X35620000Y-16800000D03*
X35620000Y-14260000D03*
X38160000Y-16800000D03*
X38160000Y-14260000D03*
X40700000Y-16800000D03*
X40700000Y-14260000D03*
X43240000Y-16800000D03*
X43240000Y-14260000D03*
X45780000Y-16800000D03*
X45780000Y-14260000D03*
X48320000Y-16800000D03*
X48320000Y-14260000D03*
X50860000Y-16800000D03*
X50860000Y-14260000D03*
X53400000Y-16800000D03*
X53400000Y-14260000D03*
X55940000Y-16800000D03*
X55940000Y-14260000D03*
X58480000Y-16800000D03*
X58480000Y-14260000D03*
X61020000Y-16800000D03*
X61020000Y-14260000D03*
X63560000Y-16800000D03*
X63560000Y-14260000D03*
X66100000Y-16800000D03*
X66100000Y-14260000D03*
X68640000Y-16800000D03*
X68640000Y-14260000D03*
X33640000Y-52000000D03*
X33640000Y-49460000D03*
X36180000Y-52000000D03*
X36180000Y-49460000D03*
X38720000Y-52000000D03*
X38720000Y-49460000D03*
X41260000Y-52000000D03*
X41260000Y-49460000D03*
X43800000Y-52000000D03*
X43800000Y-49460000D03*
X46340000Y-52000000D03*
X46340000Y-49460000D03*
X48880000Y-52000000D03*
X48880000Y-49460000D03*
X51420000Y-52000000D03*
X51420000Y-49460000D03*
X53960000Y-52000000D03*
X53960000Y-49460000D03*
X56500000Y-52000000D03*
X56500000Y-49460000D03*
X15500000Y-64500000D03*
X73500000Y-64500000D03*
X15490000Y-26023000D03*
X73783000Y-26023000D03*
X15490000Y-28563000D03*
X73783000Y-28563000D03*
X16760000Y-22975000D03*
X72640000Y-22975000D03*
X16760000Y-42025000D03*
X72640000Y-42025000D03*
X15490000Y-31103000D03*
X73783000Y-31103000D03*
X15490000Y-33643000D03*
X73783000Y-33643000D03*
X15490000Y-38723000D03*
X73783000Y-38723000D03*
X15490000Y-36183000D03*
X73783000Y-36183000D03*
X17700000Y-56180000D03*
X20240000Y-56180000D03*
X22780000Y-56180000D03*
X22730000Y-48560000D03*
X20190000Y-48560000D03*
X17650000Y-48560000D03*
X15110000Y-48560000D03*
X73500000Y-15500000D03*
X15500000Y-15500000D03*
X20470000Y-64800000D03*
X23010000Y-64800000D03*
X25550000Y-64800000D03*
X67900000Y-59875000D03*
X67900000Y-62415000D03*
X67900000Y-64955000D03*
M02*
