%TF.GenerationSoftware,KiCad,Pcbnew,7.0.10*%
%TF.CreationDate,2024-08-19T03:07:17+10:00*%
%TF.ProjectId,AI4R-PIHAT,41493452-2d50-4494-9841-542e6b696361,rev?*%
%TF.SameCoordinates,Original*%
%TF.FileFunction,Copper,L2,Bot*%
%TF.FilePolarity,Positive*%
%FSLAX46Y46*%
G04 Gerber Fmt 4.6, Leading zero omitted, Abs format (unit mm)*
G04 Created by KiCad (PCBNEW 7.0.10) date 2024-08-19 03:07:17*
%MOMM*%
%LPD*%
G01*
G04 APERTURE LIST*
%TA.AperFunction,ComponentPad*%
%ADD10R,1.700000X1.700000*%
%TD*%
%TA.AperFunction,ComponentPad*%
%ADD11O,1.700000X1.700000*%
%TD*%
%TA.AperFunction,ComponentPad*%
%ADD12C,5.400000*%
%TD*%
%TA.AperFunction,ComponentPad*%
%ADD13C,1.778000*%
%TD*%
%TA.AperFunction,ComponentPad*%
%ADD14C,3.200000*%
%TD*%
%TA.AperFunction,ComponentPad*%
%ADD15C,1.700000*%
%TD*%
%TA.AperFunction,ViaPad*%
%ADD16C,0.800000*%
%TD*%
%TA.AperFunction,Conductor*%
%ADD17C,0.250000*%
%TD*%
%TA.AperFunction,Conductor*%
%ADD18C,1.000000*%
%TD*%
%ADD19C,0.350000*%
G04 APERTURE END LIST*
D10*
%TO.P,J9,1,Pin_1*%
%TO.N,GND*%
X45600000Y-64800000D03*
D11*
%TO.P,J9,2,Pin_2*%
%TO.N,VCC*%
X48140000Y-64800000D03*
%TD*%
D10*
%TO.P,J1,1,Pin_1*%
%TO.N,3.3V*%
X20380000Y-16800000D03*
D11*
%TO.P,J1,2,Pin_2*%
%TO.N,VCC*%
X20380000Y-14260000D03*
%TO.P,J1,3,Pin_3*%
%TO.N,SDA1*%
X22920000Y-16800000D03*
%TO.P,J1,4,Pin_4*%
%TO.N,unconnected-(J1-Pin_4-Pad4)*%
X22920000Y-14260000D03*
%TO.P,J1,5,Pin_5*%
%TO.N,SCL1*%
X25460000Y-16800000D03*
%TO.P,J1,6,Pin_6*%
%TO.N,GND*%
X25460000Y-14260000D03*
%TO.P,J1,7,Pin_7*%
%TO.N,SDA2*%
X28000000Y-16800000D03*
%TO.P,J1,8,Pin_8*%
%TO.N,GPIO14*%
X28000000Y-14260000D03*
%TO.P,J1,9,Pin_9*%
%TO.N,GND*%
X30540000Y-16800000D03*
%TO.P,J1,10,Pin_10*%
%TO.N,GPIO15*%
X30540000Y-14260000D03*
%TO.P,J1,11,Pin_11*%
%TO.N,GPIO17*%
X33080000Y-16800000D03*
%TO.P,J1,12,Pin_12*%
%TO.N,GPIO18*%
X33080000Y-14260000D03*
%TO.P,J1,13,Pin_13*%
%TO.N,GPIO27*%
X35620000Y-16800000D03*
%TO.P,J1,14,Pin_14*%
%TO.N,GND*%
X35620000Y-14260000D03*
%TO.P,J1,15,Pin_15*%
%TO.N,SDA4*%
X38160000Y-16800000D03*
%TO.P,J1,16,Pin_16*%
%TO.N,SCL4*%
X38160000Y-14260000D03*
%TO.P,J1,17,Pin_17*%
%TO.N,3.3V*%
X40700000Y-16800000D03*
%TO.P,J1,18,Pin_18*%
%TO.N,unconnected-(J1-Pin_18-Pad18)*%
X40700000Y-14260000D03*
%TO.P,J1,19,Pin_19*%
%TO.N,GPIO10*%
X43240000Y-16800000D03*
%TO.P,J1,20,Pin_20*%
%TO.N,GND*%
X43240000Y-14260000D03*
%TO.P,J1,21,Pin_21*%
%TO.N,GPIO9*%
X45780000Y-16800000D03*
%TO.P,J1,22,Pin_22*%
%TO.N,unconnected-(J1-Pin_22-Pad22)*%
X45780000Y-14260000D03*
%TO.P,J1,23,Pin_23*%
%TO.N,GPIO11*%
X48320000Y-16800000D03*
%TO.P,J1,24,Pin_24*%
%TO.N,GPIO8*%
X48320000Y-14260000D03*
%TO.P,J1,25,Pin_25*%
%TO.N,GND*%
X50860000Y-16800000D03*
%TO.P,J1,26,Pin_26*%
%TO.N,GPIO7*%
X50860000Y-14260000D03*
%TO.P,J1,27,Pin_27*%
%TO.N,unconnected-(J1-Pin_27-Pad27)*%
X53400000Y-16800000D03*
%TO.P,J1,28,Pin_28*%
%TO.N,unconnected-(J1-Pin_28-Pad28)*%
X53400000Y-14260000D03*
%TO.P,J1,29,Pin_29*%
%TO.N,SCL2*%
X55940000Y-16800000D03*
%TO.P,J1,30,Pin_30*%
%TO.N,GND*%
X55940000Y-14260000D03*
%TO.P,J1,31,Pin_31*%
%TO.N,unconnected-(J1-Pin_31-Pad31)*%
X58480000Y-16800000D03*
%TO.P,J1,32,Pin_32*%
%TO.N,SDA3*%
X58480000Y-14260000D03*
%TO.P,J1,33,Pin_33*%
%TO.N,SCL3*%
X61020000Y-16800000D03*
%TO.P,J1,34,Pin_34*%
%TO.N,GND*%
X61020000Y-14260000D03*
%TO.P,J1,35,Pin_35*%
%TO.N,unconnected-(J1-Pin_35-Pad35)*%
X63560000Y-16800000D03*
%TO.P,J1,36,Pin_36*%
%TO.N,unconnected-(J1-Pin_36-Pad36)*%
X63560000Y-14260000D03*
%TO.P,J1,37,Pin_37*%
%TO.N,GPIO26*%
X66100000Y-16800000D03*
%TO.P,J1,38,Pin_38*%
%TO.N,unconnected-(J1-Pin_38-Pad38)*%
X66100000Y-14260000D03*
%TO.P,J1,39,Pin_39*%
%TO.N,GND*%
X68640000Y-16800000D03*
%TO.P,J1,40,Pin_40*%
%TO.N,unconnected-(J1-Pin_40-Pad40)*%
X68640000Y-14260000D03*
%TD*%
D10*
%TO.P,J6,1,Pin_1*%
%TO.N,GND*%
X33640000Y-52000000D03*
D11*
%TO.P,J6,2,Pin_2*%
%TO.N,GPIO11*%
X33640000Y-49460000D03*
%TO.P,J6,3,Pin_3*%
%TO.N,GND*%
X36180000Y-52000000D03*
%TO.P,J6,4,Pin_4*%
%TO.N,GPIO10*%
X36180000Y-49460000D03*
%TO.P,J6,5,Pin_5*%
%TO.N,GND*%
X38720000Y-52000000D03*
%TO.P,J6,6,Pin_6*%
%TO.N,GPIO9*%
X38720000Y-49460000D03*
%TO.P,J6,7,Pin_7*%
%TO.N,GND*%
X41260000Y-52000000D03*
%TO.P,J6,8,Pin_8*%
%TO.N,GPIO8*%
X41260000Y-49460000D03*
%TO.P,J6,9,Pin_9*%
%TO.N,GND*%
X43800000Y-52000000D03*
%TO.P,J6,10,Pin_10*%
%TO.N,GPIO7*%
X43800000Y-49460000D03*
%TO.P,J6,11,Pin_11*%
%TO.N,GND*%
X46340000Y-52000000D03*
%TO.P,J6,12,Pin_12*%
%TO.N,GPIO14*%
X46340000Y-49460000D03*
%TO.P,J6,13,Pin_13*%
%TO.N,GND*%
X48880000Y-52000000D03*
%TO.P,J6,14,Pin_14*%
%TO.N,GPIO15*%
X48880000Y-49460000D03*
%TO.P,J6,15,Pin_15*%
%TO.N,GND*%
X51420000Y-52000000D03*
%TO.P,J6,16,Pin_16*%
%TO.N,GPIO18*%
X51420000Y-49460000D03*
%TO.P,J6,17,Pin_17*%
%TO.N,GND*%
X53960000Y-52000000D03*
%TO.P,J6,18,Pin_18*%
%TO.N,3.3V*%
X53960000Y-49460000D03*
%TO.P,J6,19,Pin_19*%
%TO.N,GND*%
X56500000Y-52000000D03*
%TO.P,J6,20,Pin_20*%
%TO.N,3.3V*%
X56500000Y-49460000D03*
%TD*%
D12*
%TO.P,H3,1*%
%TO.N,N/C*%
X15500000Y-64500000D03*
%TD*%
%TO.P,H4,1*%
%TO.N,N/C*%
X73500000Y-64500000D03*
%TD*%
D13*
%TO.P,U1,GND,GND*%
%TO.N,GND*%
X15490000Y-26023000D03*
X73783000Y-26023000D03*
%TO.P,U1,OE,~{OE}*%
%TO.N,unconnected-(U1-~{OE}-PadOE)*%
X15490000Y-28563000D03*
X73783000Y-28563000D03*
D14*
%TO.P,U1,S1*%
%TO.N,N/C*%
X16760000Y-22975000D03*
%TO.P,U1,S2*%
X72640000Y-22975000D03*
%TO.P,U1,S3*%
X16760000Y-42025000D03*
%TO.P,U1,S4*%
X72640000Y-42025000D03*
D13*
%TO.P,U1,SCL,SCL*%
%TO.N,SCL1*%
X15490000Y-31103000D03*
X73783000Y-31103000D03*
%TO.P,U1,SDA,SDA*%
%TO.N,SDA1*%
X15490000Y-33643000D03*
X73783000Y-33643000D03*
%TO.P,U1,V+,V+*%
%TO.N,unconnected-(U1-PadV+)*%
X15490000Y-38723000D03*
X73783000Y-38723000D03*
%TO.P,U1,VCC,VCC*%
%TO.N,3.3V*%
X15490000Y-36183000D03*
X73783000Y-36183000D03*
%TD*%
D15*
%TO.P,U2,1,RCIN*%
%TO.N,Net-(J7-Pin_3)*%
X17700000Y-56180000D03*
%TO.P,U2,2,VRC*%
%TO.N,Net-(J7-Pin_2)*%
X20240000Y-56180000D03*
%TO.P,U2,3,GND*%
%TO.N,GND*%
X22780000Y-56180000D03*
%TO.P,U2,4,GND*%
X22730000Y-48560000D03*
%TO.P,U2,5,VCC*%
%TO.N,3.3V*%
X20190000Y-48560000D03*
%TO.P,U2,6,OUT*%
%TO.N,GPIO17*%
X17650000Y-48560000D03*
%TO.P,U2,7,GOOD*%
%TO.N,GPIO27*%
X15110000Y-48560000D03*
%TD*%
D12*
%TO.P,H2,1*%
%TO.N,N/C*%
X73500000Y-15500000D03*
%TD*%
%TO.P,H1,1*%
%TO.N,N/C*%
X15500000Y-15500000D03*
%TD*%
D10*
%TO.P,J7,1,Pin_1*%
%TO.N,GND*%
X20470000Y-64800000D03*
D11*
%TO.P,J7,2,Pin_2*%
%TO.N,Net-(J7-Pin_2)*%
X23010000Y-64800000D03*
%TO.P,J7,3,Pin_3*%
%TO.N,Net-(J7-Pin_3)*%
X25550000Y-64800000D03*
%TD*%
D10*
%TO.P,J8,1,Pin_1*%
%TO.N,GND*%
X67900000Y-59875000D03*
D11*
%TO.P,J8,2,Pin_2*%
%TO.N,3.3V*%
X67900000Y-62415000D03*
%TO.P,J8,3,Pin_3*%
%TO.N,GPIO26*%
X67900000Y-64955000D03*
%TD*%
D16*
%TO.N,SDA1*%
X62500000Y-54200000D03*
%TO.N,SCL1*%
X63500000Y-55800000D03*
%TO.N,GND*%
X21200000Y-40800000D03*
X20900000Y-51400000D03*
X65400000Y-21800000D03*
X65800000Y-37400000D03*
X62200000Y-66800000D03*
X55900000Y-24400000D03*
X23025000Y-19300000D03*
X30100000Y-55600000D03*
X22100000Y-26800000D03*
X67600000Y-55700000D03*
X37700000Y-24700000D03*
X30900000Y-49700000D03*
X39200000Y-64800000D03*
X56800000Y-41600000D03*
X59100000Y-61300000D03*
X57800000Y-51100000D03*
X30900000Y-46700000D03*
X46000000Y-37700000D03*
X73700000Y-51100000D03*
X14100000Y-54500000D03*
X23800000Y-58700000D03*
X19400000Y-37300000D03*
X17000000Y-61000000D03*
X36800000Y-56300000D03*
X68800000Y-25300000D03*
X25200000Y-51000000D03*
X35200000Y-22900000D03*
X40900000Y-39900000D03*
X66000000Y-46800000D03*
X30900000Y-41300000D03*
%TO.N,SDA2*%
X50200000Y-58875000D03*
%TO.N,GPIO17*%
X27462312Y-20200331D03*
X24100000Y-24375000D03*
%TO.N,GPIO27*%
X25500000Y-21500000D03*
X27450000Y-21500000D03*
%TO.N,SDA4*%
X25500000Y-22800000D03*
X27400000Y-22800000D03*
%TO.N,SCL4*%
X34900000Y-59500000D03*
%TO.N,GPIO10*%
X43200000Y-24700000D03*
%TO.N,SCL2*%
X55500000Y-56100000D03*
%TO.N,SDA3*%
X42587347Y-60187347D03*
%TO.N,SCL3*%
X44100000Y-60500000D03*
%TD*%
D17*
%TO.N,3.3V*%
X20190000Y-48560000D02*
X20190000Y-49255000D01*
D18*
X40700000Y-26100000D02*
X40700000Y-16800000D01*
X20400000Y-31273000D02*
X20400000Y-16820000D01*
X53960000Y-49460000D02*
X56500000Y-49460000D01*
X53960000Y-39360000D02*
X40700000Y-26100000D01*
X53960000Y-49460000D02*
X53960000Y-39360000D01*
X15490000Y-36183000D02*
X20400000Y-31273000D01*
D17*
%TO.N,VCC*%
X18900000Y-17100000D02*
X18900000Y-15740000D01*
X23100000Y-53300000D02*
X15700000Y-53300000D01*
X48140000Y-64800000D02*
X48140000Y-65360000D01*
X12700000Y-23300000D02*
X18900000Y-17100000D01*
X25600000Y-60300000D02*
X25600000Y-55800000D01*
X12700000Y-50300000D02*
X12700000Y-23300000D01*
X31900000Y-66600000D02*
X25600000Y-60300000D01*
X15700000Y-53300000D02*
X12700000Y-50300000D01*
X25600000Y-55800000D02*
X23100000Y-53300000D01*
X46900000Y-66600000D02*
X31900000Y-66600000D01*
X48140000Y-65360000D02*
X46900000Y-66600000D01*
X18900000Y-15740000D02*
X20380000Y-14260000D01*
%TO.N,SDA1*%
X62500000Y-54200000D02*
X62400000Y-54200000D01*
X30425000Y-62000000D02*
X27575000Y-59150000D01*
X62400000Y-54200000D02*
X54600000Y-62000000D01*
X14100000Y-42700000D02*
X14100000Y-35033000D01*
X16000000Y-44600000D02*
X14100000Y-42700000D01*
X21900000Y-44600000D02*
X16000000Y-44600000D01*
X27575000Y-50275000D02*
X21900000Y-44600000D01*
X14100000Y-35033000D02*
X15490000Y-33643000D01*
X54600000Y-62000000D02*
X30425000Y-62000000D01*
X27575000Y-59150000D02*
X27575000Y-50275000D01*
%TO.N,SCL1*%
X26650000Y-50750000D02*
X21300000Y-45400000D01*
X63374695Y-55600000D02*
X56074695Y-62900000D01*
X13400000Y-43350000D02*
X13400000Y-33193000D01*
X30300000Y-62900000D02*
X26650000Y-59250000D01*
X56074695Y-62900000D02*
X30300000Y-62900000D01*
X26650000Y-59250000D02*
X26650000Y-50750000D01*
X13400000Y-33193000D02*
X15490000Y-31103000D01*
X15450000Y-45400000D02*
X13400000Y-43350000D01*
X21300000Y-45400000D02*
X15450000Y-45400000D01*
X63400000Y-55600000D02*
X63374695Y-55600000D01*
%TO.N,SDA2*%
X35175000Y-61325000D02*
X30725000Y-61325000D01*
X28400000Y-17200000D02*
X28000000Y-16800000D01*
X28400000Y-59000000D02*
X28400000Y-17200000D01*
X50200000Y-58875000D02*
X37625000Y-58875000D01*
X37625000Y-58875000D02*
X35175000Y-61325000D01*
X30725000Y-61325000D02*
X28400000Y-59000000D01*
%TO.N,GPIO15*%
X31900000Y-25300000D02*
X31900000Y-15620000D01*
X31900000Y-15620000D02*
X30540000Y-14260000D01*
X48880000Y-49460000D02*
X48880000Y-42280000D01*
X48880000Y-42280000D02*
X31900000Y-25300000D01*
%TO.N,GPIO17*%
X24100000Y-21375000D02*
X24100000Y-24375000D01*
X27462312Y-20200331D02*
X25274669Y-20200331D01*
X25274669Y-20200331D02*
X24100000Y-21375000D01*
%TO.N,GPIO18*%
X51420000Y-49460000D02*
X51420000Y-41420000D01*
X34445000Y-24445000D02*
X34445000Y-15625000D01*
X51420000Y-41420000D02*
X34445000Y-24445000D01*
X34445000Y-15625000D02*
X33080000Y-14260000D01*
%TO.N,GPIO27*%
X27450000Y-21500000D02*
X27425000Y-21500000D01*
X25500000Y-21500000D02*
X27450000Y-21500000D01*
%TO.N,SDA4*%
X25500000Y-22800000D02*
X27400000Y-22800000D01*
%TO.N,SCL4*%
X36985000Y-13085000D02*
X38160000Y-14260000D01*
X34900000Y-58400000D02*
X29365000Y-52865000D01*
X29365000Y-13773299D02*
X30053299Y-13085000D01*
X29365000Y-52865000D02*
X29365000Y-13773299D01*
X30053299Y-13085000D02*
X36985000Y-13085000D01*
X34900000Y-59500000D02*
X34900000Y-58400000D01*
%TO.N,GPIO10*%
X43200000Y-24700000D02*
X43240000Y-24660000D01*
X43240000Y-24660000D02*
X43240000Y-16800000D01*
%TO.N,SCL2*%
X55700000Y-56100000D02*
X60100000Y-51700000D01*
X60100000Y-20960000D02*
X55940000Y-16800000D01*
X55500000Y-56100000D02*
X55700000Y-56100000D01*
X60100000Y-51700000D02*
X60100000Y-20960000D01*
%TO.N,SDA3*%
X62200000Y-15900000D02*
X61900000Y-15600000D01*
X42587347Y-61387347D02*
X42674694Y-61300000D01*
X62200000Y-51900000D02*
X62200000Y-15900000D01*
X42674694Y-61300000D02*
X52800000Y-61300000D01*
X59820000Y-15600000D02*
X58480000Y-14260000D01*
X42587347Y-60187347D02*
X42587347Y-61387347D01*
X52800000Y-61300000D02*
X62200000Y-51900000D01*
X61900000Y-15600000D02*
X59820000Y-15600000D01*
%TO.N,SCL3*%
X61200000Y-16980000D02*
X61020000Y-16800000D01*
X44100000Y-60500000D02*
X52500000Y-60500000D01*
X61200000Y-51800000D02*
X61200000Y-16980000D01*
X52500000Y-60500000D02*
X61200000Y-51800000D01*
%TO.N,Net-(J7-Pin_2)*%
X15800000Y-55700000D02*
X15800000Y-57590000D01*
X17000000Y-54500000D02*
X15800000Y-55700000D01*
X20240000Y-56180000D02*
X18560000Y-54500000D01*
X15800000Y-57590000D02*
X23010000Y-64800000D01*
X18560000Y-54500000D02*
X17000000Y-54500000D01*
%TO.N,Net-(J7-Pin_3)*%
X17740000Y-56340000D02*
X17740000Y-56220000D01*
X25550000Y-64150000D02*
X17740000Y-56340000D01*
X25550000Y-64475000D02*
X25550000Y-64150000D01*
%TD*%
%TA.AperFunction,Conductor*%
%TO.N,GND*%
G36*
X74003243Y-12000669D02*
G01*
X74133379Y-12007490D01*
X74313908Y-12017628D01*
X74326309Y-12018955D01*
X74474990Y-12042504D01*
X74476245Y-12042709D01*
X74635324Y-12069738D01*
X74646606Y-12072202D01*
X74795635Y-12112134D01*
X74797761Y-12112725D01*
X74949174Y-12156347D01*
X74959260Y-12159729D01*
X75104710Y-12215562D01*
X75107599Y-12216714D01*
X75251768Y-12276430D01*
X75260594Y-12280500D01*
X75400064Y-12351565D01*
X75403748Y-12353521D01*
X75493848Y-12403316D01*
X75539548Y-12428574D01*
X75547061Y-12433081D01*
X75678754Y-12518604D01*
X75682947Y-12521452D01*
X75809147Y-12610996D01*
X75815426Y-12615757D01*
X75886770Y-12673531D01*
X75937567Y-12714665D01*
X75942158Y-12718571D01*
X76057424Y-12821579D01*
X76062478Y-12826358D01*
X76173640Y-12937520D01*
X76178419Y-12942574D01*
X76281427Y-13057840D01*
X76285333Y-13062431D01*
X76384239Y-13184570D01*
X76389002Y-13190851D01*
X76478546Y-13317051D01*
X76481409Y-13321266D01*
X76566907Y-13452921D01*
X76571430Y-13460460D01*
X76646477Y-13596250D01*
X76648433Y-13599934D01*
X76719498Y-13739404D01*
X76723575Y-13748247D01*
X76783259Y-13892337D01*
X76784462Y-13895353D01*
X76840265Y-14040727D01*
X76843655Y-14050836D01*
X76887258Y-14202185D01*
X76887879Y-14204419D01*
X76927791Y-14353370D01*
X76930264Y-14364694D01*
X76957282Y-14523715D01*
X76957507Y-14525087D01*
X76981040Y-14673666D01*
X76982372Y-14686111D01*
X76992498Y-14866421D01*
X76992523Y-14866884D01*
X76999330Y-14996756D01*
X76999500Y-15003246D01*
X76999500Y-64996753D01*
X76999330Y-65003243D01*
X76992523Y-65133114D01*
X76992498Y-65133577D01*
X76982372Y-65313887D01*
X76981040Y-65326332D01*
X76957507Y-65474911D01*
X76957282Y-65476283D01*
X76930264Y-65635304D01*
X76927791Y-65646628D01*
X76887879Y-65795579D01*
X76887258Y-65797813D01*
X76843655Y-65949162D01*
X76840265Y-65959271D01*
X76784462Y-66104645D01*
X76783259Y-66107661D01*
X76723575Y-66251751D01*
X76719498Y-66260594D01*
X76648433Y-66400064D01*
X76646477Y-66403748D01*
X76571430Y-66539538D01*
X76566897Y-66547094D01*
X76481412Y-66678728D01*
X76478546Y-66682947D01*
X76389002Y-66809147D01*
X76384239Y-66815428D01*
X76285333Y-66937567D01*
X76281427Y-66942158D01*
X76178419Y-67057424D01*
X76173640Y-67062478D01*
X76062478Y-67173640D01*
X76057424Y-67178419D01*
X75942158Y-67281427D01*
X75937567Y-67285333D01*
X75815428Y-67384239D01*
X75809147Y-67389002D01*
X75682947Y-67478546D01*
X75678728Y-67481412D01*
X75547094Y-67566897D01*
X75539538Y-67571430D01*
X75403748Y-67646477D01*
X75400064Y-67648433D01*
X75260594Y-67719498D01*
X75251751Y-67723575D01*
X75107661Y-67783259D01*
X75104645Y-67784462D01*
X74959271Y-67840265D01*
X74949162Y-67843655D01*
X74797813Y-67887258D01*
X74795579Y-67887879D01*
X74646628Y-67927791D01*
X74635304Y-67930264D01*
X74476283Y-67957282D01*
X74474911Y-67957507D01*
X74326332Y-67981040D01*
X74313887Y-67982372D01*
X74133577Y-67992498D01*
X74133114Y-67992523D01*
X74003243Y-67999330D01*
X73996753Y-67999500D01*
X15003247Y-67999500D01*
X14996757Y-67999330D01*
X14866884Y-67992523D01*
X14866421Y-67992498D01*
X14686111Y-67982372D01*
X14673666Y-67981040D01*
X14525087Y-67957507D01*
X14523715Y-67957282D01*
X14364694Y-67930264D01*
X14353370Y-67927791D01*
X14204419Y-67887879D01*
X14202185Y-67887258D01*
X14050836Y-67843655D01*
X14040727Y-67840265D01*
X13895353Y-67784462D01*
X13892337Y-67783259D01*
X13748247Y-67723575D01*
X13739404Y-67719498D01*
X13599934Y-67648433D01*
X13596250Y-67646477D01*
X13460460Y-67571430D01*
X13452921Y-67566907D01*
X13321266Y-67481409D01*
X13317051Y-67478546D01*
X13190851Y-67389002D01*
X13184570Y-67384239D01*
X13062431Y-67285333D01*
X13057840Y-67281427D01*
X12942574Y-67178419D01*
X12937520Y-67173640D01*
X12826358Y-67062478D01*
X12821579Y-67057424D01*
X12804968Y-67038836D01*
X12718567Y-66942154D01*
X12714665Y-66937567D01*
X12710384Y-66932281D01*
X12615757Y-66815426D01*
X12610996Y-66809147D01*
X12521452Y-66682947D01*
X12518604Y-66678754D01*
X12433081Y-66547061D01*
X12428568Y-66539538D01*
X12353521Y-66403748D01*
X12351565Y-66400064D01*
X12280500Y-66260594D01*
X12276430Y-66251768D01*
X12216714Y-66107599D01*
X12215562Y-66104710D01*
X12159729Y-65959260D01*
X12156347Y-65949174D01*
X12112725Y-65797761D01*
X12112134Y-65795635D01*
X12072202Y-65646606D01*
X12069738Y-65635324D01*
X12042709Y-65476245D01*
X12042491Y-65474911D01*
X12018955Y-65326309D01*
X12017628Y-65313908D01*
X12007485Y-65133285D01*
X12007476Y-65133114D01*
X12000670Y-65003243D01*
X12000500Y-64996754D01*
X12000500Y-64500000D01*
X12394615Y-64500000D01*
X12414140Y-64847688D01*
X12414142Y-64847700D01*
X12469408Y-65172977D01*
X12472473Y-65191013D01*
X12568879Y-65525644D01*
X12702145Y-65847376D01*
X12870595Y-66152164D01*
X13072112Y-66436176D01*
X13304161Y-66695839D01*
X13563824Y-66927888D01*
X13847836Y-67129405D01*
X14152624Y-67297855D01*
X14474356Y-67431121D01*
X14808987Y-67527527D01*
X15152307Y-67585859D01*
X15500000Y-67605385D01*
X15847693Y-67585859D01*
X16191013Y-67527527D01*
X16525644Y-67431121D01*
X16847376Y-67297855D01*
X17152164Y-67129405D01*
X17436176Y-66927888D01*
X17695839Y-66695839D01*
X17927888Y-66436176D01*
X18129405Y-66152164D01*
X18297855Y-65847376D01*
X18431121Y-65525644D01*
X18527527Y-65191013D01*
X18585859Y-64847693D01*
X18605385Y-64500000D01*
X18585859Y-64152307D01*
X18527527Y-63808987D01*
X18431121Y-63474356D01*
X18297855Y-63152624D01*
X18129405Y-62847836D01*
X17927888Y-62563824D01*
X17695839Y-62304161D01*
X17436176Y-62072112D01*
X17152164Y-61870595D01*
X16847376Y-61702145D01*
X16525644Y-61568879D01*
X16198049Y-61474500D01*
X16191017Y-61472474D01*
X16191009Y-61472472D01*
X15847700Y-61414142D01*
X15847688Y-61414140D01*
X15500000Y-61394615D01*
X15152311Y-61414140D01*
X15152299Y-61414142D01*
X14808990Y-61472472D01*
X14808982Y-61472474D01*
X14474359Y-61568878D01*
X14474356Y-61568879D01*
X14380124Y-61607911D01*
X14152625Y-61702144D01*
X13847835Y-61870595D01*
X13563823Y-62072113D01*
X13304161Y-62304161D01*
X13072113Y-62563823D01*
X12870595Y-62847835D01*
X12702144Y-63152625D01*
X12568878Y-63474359D01*
X12472474Y-63808982D01*
X12472472Y-63808990D01*
X12414142Y-64152299D01*
X12414140Y-64152311D01*
X12394615Y-64500000D01*
X12000500Y-64500000D01*
X12000500Y-50605333D01*
X12020185Y-50538294D01*
X12072989Y-50492539D01*
X12142147Y-50482595D01*
X12205703Y-50511620D01*
X12238232Y-50555928D01*
X12246781Y-50575609D01*
X12246782Y-50575610D01*
X12246783Y-50575612D01*
X12257283Y-50588518D01*
X12269182Y-50606000D01*
X12277342Y-50620512D01*
X12304878Y-50648048D01*
X12313377Y-50657466D01*
X12337943Y-50687662D01*
X12337944Y-50687663D01*
X12337946Y-50687665D01*
X12351544Y-50697264D01*
X12367715Y-50710885D01*
X15320558Y-53663728D01*
X15323499Y-53666771D01*
X15345593Y-53690427D01*
X15365245Y-53711469D01*
X15398499Y-53731691D01*
X15408990Y-53738830D01*
X15440025Y-53762365D01*
X15440028Y-53762366D01*
X15440028Y-53762367D01*
X15455509Y-53768471D01*
X15474451Y-53777878D01*
X15488672Y-53786526D01*
X15526160Y-53797029D01*
X15538184Y-53801072D01*
X15574411Y-53815359D01*
X15590977Y-53817061D01*
X15611741Y-53821008D01*
X15627772Y-53825500D01*
X15666696Y-53825500D01*
X15679376Y-53826150D01*
X15682275Y-53826447D01*
X15718110Y-53830132D01*
X15734518Y-53827303D01*
X15755586Y-53825500D01*
X16647480Y-53825500D01*
X16714519Y-53845185D01*
X16760274Y-53897989D01*
X16770218Y-53967147D01*
X16741193Y-54030703D01*
X16725725Y-54045696D01*
X16711465Y-54057295D01*
X16694002Y-54069180D01*
X16679491Y-54077340D01*
X16651961Y-54104869D01*
X16642539Y-54113371D01*
X16612336Y-54137943D01*
X16612335Y-54137944D01*
X16602728Y-54151554D01*
X16589109Y-54167720D01*
X15436270Y-55320559D01*
X15433227Y-55323500D01*
X15388532Y-55365243D01*
X15388531Y-55365244D01*
X15368302Y-55398508D01*
X15361161Y-55409000D01*
X15337639Y-55440019D01*
X15337633Y-55440029D01*
X15331525Y-55455517D01*
X15322125Y-55474442D01*
X15313477Y-55488664D01*
X15313474Y-55488670D01*
X15313474Y-55488672D01*
X15307753Y-55509089D01*
X15302971Y-55526155D01*
X15298926Y-55538181D01*
X15284641Y-55574409D01*
X15284640Y-55574411D01*
X15282937Y-55590976D01*
X15278991Y-55611739D01*
X15274500Y-55627767D01*
X15274500Y-55666703D01*
X15273850Y-55679382D01*
X15269869Y-55718107D01*
X15269869Y-55718111D01*
X15272697Y-55734511D01*
X15274500Y-55755580D01*
X15274500Y-57578890D01*
X15274428Y-57583123D01*
X15272340Y-57644250D01*
X15281556Y-57682068D01*
X15283927Y-57694540D01*
X15289228Y-57733109D01*
X15295864Y-57748387D01*
X15302602Y-57768424D01*
X15306542Y-57784593D01*
X15306543Y-57784594D01*
X15325618Y-57818520D01*
X15331266Y-57829890D01*
X15346782Y-57865612D01*
X15357283Y-57878518D01*
X15369182Y-57896000D01*
X15377342Y-57910512D01*
X15404878Y-57938048D01*
X15413377Y-57947466D01*
X15437943Y-57977662D01*
X15437944Y-57977663D01*
X15437946Y-57977665D01*
X15451544Y-57987264D01*
X15467715Y-58000885D01*
X21005149Y-63538319D01*
X21038634Y-63599642D01*
X21033650Y-63669334D01*
X20991778Y-63725267D01*
X20926314Y-63749684D01*
X20917468Y-63750000D01*
X20720000Y-63750000D01*
X20720000Y-64364498D01*
X20612315Y-64315320D01*
X20505763Y-64300000D01*
X20434237Y-64300000D01*
X20327685Y-64315320D01*
X20220000Y-64364498D01*
X20220000Y-63750000D01*
X19600297Y-63750000D01*
X19541966Y-63761602D01*
X19541965Y-63761603D01*
X19475808Y-63805808D01*
X19431603Y-63871965D01*
X19431602Y-63871966D01*
X19420000Y-63930297D01*
X19420000Y-64550000D01*
X20036314Y-64550000D01*
X20010507Y-64590156D01*
X19970000Y-64728111D01*
X19970000Y-64871889D01*
X20010507Y-65009844D01*
X20036314Y-65050000D01*
X19420000Y-65050000D01*
X19420000Y-65669702D01*
X19431602Y-65728033D01*
X19431603Y-65728034D01*
X19475808Y-65794191D01*
X19541965Y-65838396D01*
X19541966Y-65838397D01*
X19600297Y-65849999D01*
X19600301Y-65850000D01*
X20220000Y-65850000D01*
X20220000Y-65235501D01*
X20327685Y-65284680D01*
X20434237Y-65300000D01*
X20505763Y-65300000D01*
X20612315Y-65284680D01*
X20720000Y-65235501D01*
X20720000Y-65850000D01*
X21339699Y-65850000D01*
X21339702Y-65849999D01*
X21398033Y-65838397D01*
X21398034Y-65838396D01*
X21464191Y-65794191D01*
X21508396Y-65728034D01*
X21508397Y-65728033D01*
X21519999Y-65669702D01*
X21520000Y-65669699D01*
X21520000Y-64957172D01*
X21539685Y-64890133D01*
X21592489Y-64844378D01*
X21661647Y-64834434D01*
X21725203Y-64863459D01*
X21762977Y-64922237D01*
X21767527Y-64946364D01*
X21773081Y-65009844D01*
X21773793Y-65017975D01*
X21773793Y-65017979D01*
X21830422Y-65229322D01*
X21830424Y-65229326D01*
X21830425Y-65229330D01*
X21852382Y-65276416D01*
X21922897Y-65427638D01*
X21922898Y-65427639D01*
X22048402Y-65606877D01*
X22203123Y-65761598D01*
X22382361Y-65887102D01*
X22580670Y-65979575D01*
X22792023Y-66036207D01*
X22974926Y-66052208D01*
X23009998Y-66055277D01*
X23010000Y-66055277D01*
X23010002Y-66055277D01*
X23038254Y-66052805D01*
X23227977Y-66036207D01*
X23439330Y-65979575D01*
X23637639Y-65887102D01*
X23816877Y-65761598D01*
X23971598Y-65606877D01*
X24097102Y-65427639D01*
X24167618Y-65276414D01*
X24213790Y-65223977D01*
X24280984Y-65204825D01*
X24347865Y-65225041D01*
X24392381Y-65276414D01*
X24462898Y-65427639D01*
X24588402Y-65606877D01*
X24743123Y-65761598D01*
X24922361Y-65887102D01*
X25120670Y-65979575D01*
X25332023Y-66036207D01*
X25514926Y-66052208D01*
X25549998Y-66055277D01*
X25550000Y-66055277D01*
X25550002Y-66055277D01*
X25578254Y-66052805D01*
X25767977Y-66036207D01*
X25979330Y-65979575D01*
X26177639Y-65887102D01*
X26356877Y-65761598D01*
X26511598Y-65606877D01*
X26637102Y-65427639D01*
X26729575Y-65229330D01*
X26786207Y-65017977D01*
X26805277Y-64800000D01*
X26786207Y-64582023D01*
X26729575Y-64370670D01*
X26637102Y-64172362D01*
X26637100Y-64172359D01*
X26637099Y-64172357D01*
X26511599Y-63993124D01*
X26448772Y-63930297D01*
X26356877Y-63838402D01*
X26177639Y-63712898D01*
X26177640Y-63712898D01*
X26177638Y-63712897D01*
X26045342Y-63651207D01*
X25979330Y-63620425D01*
X25979326Y-63620424D01*
X25979322Y-63620422D01*
X25767982Y-63563794D01*
X25767979Y-63563793D01*
X25767977Y-63563793D01*
X25755123Y-63562668D01*
X25746069Y-63561876D01*
X25681001Y-63536422D01*
X25669199Y-63526029D01*
X22699670Y-60556500D01*
X19717265Y-57574096D01*
X19683781Y-57512774D01*
X19688765Y-57443082D01*
X19730637Y-57387149D01*
X19796101Y-57362732D01*
X19837040Y-57366641D01*
X19858272Y-57372330D01*
X20022023Y-57416207D01*
X20204926Y-57432208D01*
X20239998Y-57435277D01*
X20240000Y-57435277D01*
X20240002Y-57435277D01*
X20268254Y-57432805D01*
X20457977Y-57416207D01*
X20669330Y-57359575D01*
X20867639Y-57267102D01*
X21046877Y-57141598D01*
X21201598Y-56986877D01*
X21327102Y-56807639D01*
X21419575Y-56609330D01*
X21476207Y-56397977D01*
X21487081Y-56273673D01*
X21512533Y-56208608D01*
X21551443Y-56180432D01*
X21668317Y-56180432D01*
X21699670Y-56198203D01*
X21732178Y-56260050D01*
X21734012Y-56272328D01*
X21745191Y-56385835D01*
X21805233Y-56583766D01*
X21880975Y-56725469D01*
X21880976Y-56725469D01*
X22296922Y-56309523D01*
X22320507Y-56389844D01*
X22398239Y-56510798D01*
X22506900Y-56604952D01*
X22637685Y-56664680D01*
X22647466Y-56666086D01*
X22234528Y-57079023D01*
X22376233Y-57154766D01*
X22574165Y-57214808D01*
X22780000Y-57235080D01*
X22985834Y-57214808D01*
X23183764Y-57154766D01*
X23325470Y-57079022D01*
X22912534Y-56666086D01*
X22922315Y-56664680D01*
X23053100Y-56604952D01*
X23161761Y-56510798D01*
X23239493Y-56389844D01*
X23263076Y-56309523D01*
X23679022Y-56725469D01*
X23754766Y-56583764D01*
X23814808Y-56385834D01*
X23835080Y-56180000D01*
X23814808Y-55974165D01*
X23754766Y-55776233D01*
X23679023Y-55634528D01*
X23263076Y-56050475D01*
X23239493Y-55970156D01*
X23161761Y-55849202D01*
X23053100Y-55755048D01*
X22922315Y-55695320D01*
X22912533Y-55693913D01*
X23325469Y-55280976D01*
X23325469Y-55280975D01*
X23183766Y-55205233D01*
X22985834Y-55145191D01*
X22780000Y-55124919D01*
X22574166Y-55145191D01*
X22376234Y-55205234D01*
X22234529Y-55280975D01*
X22234529Y-55280976D01*
X22647466Y-55693913D01*
X22637685Y-55695320D01*
X22506900Y-55755048D01*
X22398239Y-55849202D01*
X22320507Y-55970156D01*
X22296923Y-56050476D01*
X21880976Y-55634529D01*
X21880975Y-55634529D01*
X21805234Y-55776234D01*
X21745191Y-55974166D01*
X21734012Y-56087671D01*
X21707851Y-56152458D01*
X21668317Y-56180432D01*
X21551443Y-56180432D01*
X21552738Y-56179494D01*
X21520611Y-56160818D01*
X21488780Y-56098620D01*
X21487082Y-56086333D01*
X21476207Y-55962023D01*
X21419575Y-55750670D01*
X21327102Y-55552362D01*
X21327100Y-55552359D01*
X21327099Y-55552357D01*
X21201599Y-55373124D01*
X21126212Y-55297737D01*
X21046877Y-55218402D01*
X20867639Y-55092898D01*
X20867640Y-55092898D01*
X20867638Y-55092897D01*
X20735638Y-55031345D01*
X20669330Y-55000425D01*
X20669326Y-55000424D01*
X20669322Y-55000422D01*
X20457977Y-54943793D01*
X20240002Y-54924723D01*
X20239998Y-54924723D01*
X20094682Y-54937436D01*
X20022023Y-54943793D01*
X20022020Y-54943793D01*
X19874240Y-54983391D01*
X19804390Y-54981728D01*
X19754466Y-54951297D01*
X18939440Y-54136271D01*
X18936498Y-54133227D01*
X18914210Y-54109362D01*
X18894755Y-54088531D01*
X18894754Y-54088530D01*
X18894753Y-54088529D01*
X18894751Y-54088528D01*
X18861489Y-54068301D01*
X18850991Y-54061156D01*
X18834042Y-54048303D01*
X18792519Y-53992111D01*
X18787968Y-53922389D01*
X18821833Y-53861276D01*
X18883363Y-53828172D01*
X18908968Y-53825500D01*
X22830968Y-53825500D01*
X22898007Y-53845185D01*
X22918649Y-53861819D01*
X25038181Y-55981350D01*
X25071666Y-56042673D01*
X25074500Y-56069031D01*
X25074500Y-60288890D01*
X25074428Y-60293123D01*
X25072340Y-60354250D01*
X25081556Y-60392068D01*
X25083927Y-60404540D01*
X25089228Y-60443109D01*
X25095864Y-60458387D01*
X25102602Y-60478424D01*
X25106542Y-60494593D01*
X25106543Y-60494594D01*
X25125618Y-60528520D01*
X25131266Y-60539890D01*
X25146782Y-60575612D01*
X25157283Y-60588518D01*
X25169182Y-60606000D01*
X25177342Y-60620512D01*
X25204878Y-60648048D01*
X25213377Y-60657466D01*
X25237943Y-60687662D01*
X25237944Y-60687663D01*
X25237946Y-60687665D01*
X25251544Y-60697264D01*
X25267715Y-60710885D01*
X31520543Y-66963712D01*
X31523485Y-66966756D01*
X31565243Y-67011468D01*
X31583645Y-67022658D01*
X31597050Y-67030810D01*
X31598501Y-67031692D01*
X31608998Y-67038836D01*
X31640022Y-67062362D01*
X31640025Y-67062364D01*
X31655512Y-67068471D01*
X31674452Y-67077878D01*
X31682162Y-67082567D01*
X31688668Y-67086524D01*
X31688669Y-67086524D01*
X31688672Y-67086526D01*
X31726171Y-67097032D01*
X31738185Y-67101073D01*
X31774410Y-67115359D01*
X31790977Y-67117061D01*
X31811741Y-67121008D01*
X31827772Y-67125500D01*
X31866703Y-67125500D01*
X31879382Y-67126150D01*
X31884427Y-67126668D01*
X31918109Y-67130131D01*
X31934513Y-67127302D01*
X31955579Y-67125500D01*
X46888890Y-67125500D01*
X46893122Y-67125572D01*
X46896352Y-67125682D01*
X46954245Y-67127660D01*
X46992070Y-67118441D01*
X47004513Y-67116075D01*
X47043111Y-67110771D01*
X47058386Y-67104135D01*
X47078421Y-67097397D01*
X47094594Y-67093457D01*
X47128531Y-67074374D01*
X47139879Y-67068737D01*
X47169737Y-67055769D01*
X47175605Y-67053221D01*
X47175605Y-67053220D01*
X47175609Y-67053219D01*
X47188528Y-67042707D01*
X47205997Y-67030818D01*
X47220512Y-67022658D01*
X47248052Y-66995116D01*
X47257457Y-66986628D01*
X47287665Y-66962054D01*
X47297264Y-66948453D01*
X47310881Y-66932287D01*
X48160572Y-66082596D01*
X48221893Y-66049113D01*
X48237435Y-66046752D01*
X48357977Y-66036207D01*
X48569330Y-65979575D01*
X48767639Y-65887102D01*
X48946877Y-65761598D01*
X49101598Y-65606877D01*
X49227102Y-65427639D01*
X49319575Y-65229330D01*
X49376207Y-65017977D01*
X49381717Y-64955000D01*
X66644723Y-64955000D01*
X66660320Y-65133285D01*
X66663793Y-65172975D01*
X66663793Y-65172979D01*
X66720422Y-65384322D01*
X66720424Y-65384326D01*
X66720425Y-65384330D01*
X66740622Y-65427643D01*
X66812897Y-65582638D01*
X66812898Y-65582639D01*
X66938402Y-65761877D01*
X67093123Y-65916598D01*
X67272361Y-66042102D01*
X67470670Y-66134575D01*
X67682023Y-66191207D01*
X67864926Y-66207208D01*
X67899998Y-66210277D01*
X67900000Y-66210277D01*
X67900002Y-66210277D01*
X67928254Y-66207805D01*
X68117977Y-66191207D01*
X68329330Y-66134575D01*
X68527639Y-66042102D01*
X68706877Y-65916598D01*
X68861598Y-65761877D01*
X68987102Y-65582639D01*
X69079575Y-65384330D01*
X69136207Y-65172977D01*
X69155277Y-64955000D01*
X69136207Y-64737023D01*
X69079575Y-64525670D01*
X69067605Y-64500000D01*
X70394615Y-64500000D01*
X70414140Y-64847688D01*
X70414142Y-64847700D01*
X70469408Y-65172977D01*
X70472473Y-65191013D01*
X70568879Y-65525644D01*
X70702145Y-65847376D01*
X70870595Y-66152164D01*
X71072112Y-66436176D01*
X71304161Y-66695839D01*
X71563824Y-66927888D01*
X71847836Y-67129405D01*
X72152624Y-67297855D01*
X72474356Y-67431121D01*
X72808987Y-67527527D01*
X73152307Y-67585859D01*
X73500000Y-67605385D01*
X73847693Y-67585859D01*
X74191013Y-67527527D01*
X74525644Y-67431121D01*
X74847376Y-67297855D01*
X75152164Y-67129405D01*
X75436176Y-66927888D01*
X75695839Y-66695839D01*
X75927888Y-66436176D01*
X76129405Y-66152164D01*
X76297855Y-65847376D01*
X76431121Y-65525644D01*
X76527527Y-65191013D01*
X76585859Y-64847693D01*
X76605385Y-64500000D01*
X76585859Y-64152307D01*
X76527527Y-63808987D01*
X76431121Y-63474356D01*
X76297855Y-63152624D01*
X76129405Y-62847836D01*
X75927888Y-62563824D01*
X75695839Y-62304161D01*
X75436176Y-62072112D01*
X75152164Y-61870595D01*
X74847376Y-61702145D01*
X74525644Y-61568879D01*
X74198049Y-61474500D01*
X74191017Y-61472474D01*
X74191009Y-61472472D01*
X73847700Y-61414142D01*
X73847688Y-61414140D01*
X73500000Y-61394615D01*
X73152311Y-61414140D01*
X73152299Y-61414142D01*
X72808990Y-61472472D01*
X72808982Y-61472474D01*
X72474359Y-61568878D01*
X72474356Y-61568879D01*
X72380124Y-61607911D01*
X72152625Y-61702144D01*
X71847835Y-61870595D01*
X71563823Y-62072113D01*
X71304161Y-62304161D01*
X71072113Y-62563823D01*
X70870595Y-62847835D01*
X70702144Y-63152625D01*
X70568878Y-63474359D01*
X70472474Y-63808982D01*
X70472472Y-63808990D01*
X70414142Y-64152299D01*
X70414140Y-64152311D01*
X70394615Y-64500000D01*
X69067605Y-64500000D01*
X68987102Y-64327362D01*
X68987100Y-64327359D01*
X68987099Y-64327357D01*
X68861599Y-64148124D01*
X68861596Y-64148121D01*
X68706877Y-63993402D01*
X68527639Y-63867898D01*
X68376414Y-63797381D01*
X68323977Y-63751210D01*
X68304825Y-63684016D01*
X68325041Y-63617135D01*
X68376414Y-63572618D01*
X68527639Y-63502102D01*
X68706877Y-63376598D01*
X68861598Y-63221877D01*
X68987102Y-63042639D01*
X69079575Y-62844330D01*
X69136207Y-62632977D01*
X69155277Y-62415000D01*
X69136207Y-62197023D01*
X69079575Y-61985670D01*
X68987102Y-61787362D01*
X68987100Y-61787359D01*
X68987099Y-61787357D01*
X68861599Y-61608124D01*
X68822353Y-61568878D01*
X68706877Y-61453402D01*
X68559918Y-61350500D01*
X68527638Y-61327897D01*
X68428484Y-61281661D01*
X68329330Y-61235425D01*
X68329326Y-61235424D01*
X68329322Y-61235422D01*
X68117977Y-61178793D01*
X68046364Y-61172527D01*
X67981296Y-61147076D01*
X67940317Y-61090485D01*
X67936439Y-61020723D01*
X67970893Y-60959939D01*
X68032740Y-60927431D01*
X68057172Y-60925000D01*
X68769699Y-60925000D01*
X68769702Y-60924999D01*
X68828033Y-60913397D01*
X68828034Y-60913396D01*
X68894191Y-60869191D01*
X68938396Y-60803034D01*
X68938397Y-60803033D01*
X68949999Y-60744702D01*
X68950000Y-60744699D01*
X68950000Y-60125000D01*
X68333686Y-60125000D01*
X68359493Y-60084844D01*
X68400000Y-59946889D01*
X68400000Y-59803111D01*
X68359493Y-59665156D01*
X68333686Y-59625000D01*
X68950000Y-59625000D01*
X68950000Y-59005301D01*
X68949999Y-59005297D01*
X68938397Y-58946966D01*
X68938396Y-58946965D01*
X68894191Y-58880808D01*
X68828034Y-58836603D01*
X68828033Y-58836602D01*
X68769702Y-58825000D01*
X68150000Y-58825000D01*
X68150000Y-59439498D01*
X68042315Y-59390320D01*
X67935763Y-59375000D01*
X67864237Y-59375000D01*
X67757685Y-59390320D01*
X67650000Y-59439498D01*
X67650000Y-58825000D01*
X67030297Y-58825000D01*
X66971966Y-58836602D01*
X66971965Y-58836603D01*
X66905808Y-58880808D01*
X66861603Y-58946965D01*
X66861602Y-58946966D01*
X66850000Y-59005297D01*
X66850000Y-59625000D01*
X67466314Y-59625000D01*
X67440507Y-59665156D01*
X67400000Y-59803111D01*
X67400000Y-59946889D01*
X67440507Y-60084844D01*
X67466314Y-60125000D01*
X66850000Y-60125000D01*
X66850000Y-60744702D01*
X66861602Y-60803033D01*
X66861603Y-60803034D01*
X66905808Y-60869191D01*
X66971965Y-60913396D01*
X66971966Y-60913397D01*
X67030297Y-60924999D01*
X67030301Y-60925000D01*
X67742828Y-60925000D01*
X67809867Y-60944685D01*
X67855622Y-60997489D01*
X67865566Y-61066647D01*
X67836541Y-61130203D01*
X67777763Y-61167977D01*
X67753635Y-61172527D01*
X67682023Y-61178793D01*
X67682020Y-61178793D01*
X67470677Y-61235422D01*
X67470668Y-61235426D01*
X67272361Y-61327898D01*
X67272357Y-61327900D01*
X67093121Y-61453402D01*
X66938402Y-61608121D01*
X66812900Y-61787357D01*
X66812898Y-61787361D01*
X66720426Y-61985668D01*
X66720422Y-61985677D01*
X66663793Y-62197020D01*
X66663793Y-62197024D01*
X66644723Y-62414997D01*
X66644723Y-62415002D01*
X66663793Y-62632975D01*
X66663793Y-62632979D01*
X66720422Y-62844322D01*
X66720424Y-62844326D01*
X66720425Y-62844330D01*
X66722060Y-62847836D01*
X66812897Y-63042638D01*
X66812898Y-63042639D01*
X66938402Y-63221877D01*
X67093123Y-63376598D01*
X67232736Y-63474356D01*
X67272361Y-63502102D01*
X67423583Y-63572618D01*
X67476022Y-63618790D01*
X67495174Y-63685984D01*
X67474958Y-63752865D01*
X67423583Y-63797382D01*
X67272361Y-63867898D01*
X67272357Y-63867900D01*
X67093121Y-63993402D01*
X66938402Y-64148121D01*
X66812900Y-64327357D01*
X66812898Y-64327361D01*
X66720426Y-64525668D01*
X66720422Y-64525677D01*
X66663793Y-64737020D01*
X66663793Y-64737024D01*
X66652732Y-64863459D01*
X66644723Y-64955000D01*
X49381717Y-64955000D01*
X49395277Y-64800000D01*
X49376207Y-64582023D01*
X49319575Y-64370670D01*
X49227102Y-64172362D01*
X49227100Y-64172359D01*
X49227099Y-64172357D01*
X49101599Y-63993124D01*
X49038772Y-63930297D01*
X48946877Y-63838402D01*
X48767639Y-63712898D01*
X48658233Y-63661881D01*
X48605795Y-63615710D01*
X48586643Y-63548516D01*
X48606859Y-63481635D01*
X48660024Y-63436301D01*
X48710639Y-63425500D01*
X56063585Y-63425500D01*
X56067817Y-63425572D01*
X56071047Y-63425682D01*
X56128940Y-63427660D01*
X56166765Y-63418441D01*
X56179208Y-63416075D01*
X56217806Y-63410771D01*
X56233081Y-63404135D01*
X56253116Y-63397397D01*
X56269289Y-63393457D01*
X56303226Y-63374374D01*
X56314574Y-63368737D01*
X56344432Y-63355769D01*
X56350300Y-63353221D01*
X56350300Y-63353220D01*
X56350304Y-63353219D01*
X56363223Y-63342707D01*
X56380692Y-63330818D01*
X56395207Y-63322658D01*
X56422747Y-63295116D01*
X56432152Y-63286628D01*
X56462360Y-63262054D01*
X56471959Y-63248453D01*
X56485576Y-63232287D01*
X63126200Y-56591662D01*
X63187521Y-56558179D01*
X63254831Y-56562303D01*
X63320745Y-56585368D01*
X63320749Y-56585368D01*
X63320753Y-56585369D01*
X63499996Y-56605565D01*
X63500000Y-56605565D01*
X63500004Y-56605565D01*
X63679249Y-56585369D01*
X63679252Y-56585368D01*
X63679255Y-56585368D01*
X63849522Y-56525789D01*
X64002262Y-56429816D01*
X64129816Y-56302262D01*
X64225789Y-56149522D01*
X64285368Y-55979255D01*
X64285369Y-55979249D01*
X64305565Y-55800003D01*
X64305565Y-55799996D01*
X64285369Y-55620750D01*
X64285368Y-55620745D01*
X64278643Y-55601526D01*
X64225789Y-55450478D01*
X64219223Y-55440029D01*
X64175001Y-55369649D01*
X64129816Y-55297738D01*
X64002262Y-55170184D01*
X63962486Y-55145191D01*
X63849523Y-55074211D01*
X63679254Y-55014631D01*
X63679249Y-55014630D01*
X63500004Y-54994435D01*
X63499996Y-54994435D01*
X63320750Y-55014630D01*
X63320745Y-55014631D01*
X63150476Y-55074211D01*
X62997737Y-55170184D01*
X62870184Y-55297737D01*
X62770507Y-55456373D01*
X62769277Y-55455600D01*
X62752963Y-55478560D01*
X55893345Y-62338181D01*
X55832022Y-62371666D01*
X55805664Y-62374500D01*
X55268031Y-62374500D01*
X55200992Y-62354815D01*
X55155237Y-62302011D01*
X55145293Y-62232853D01*
X55174318Y-62169297D01*
X55180350Y-62162819D01*
X58725500Y-58617669D01*
X62311825Y-55031343D01*
X62373146Y-54997860D01*
X62413388Y-54995806D01*
X62499998Y-55005565D01*
X62500000Y-55005565D01*
X62500004Y-55005565D01*
X62679249Y-54985369D01*
X62679252Y-54985368D01*
X62679255Y-54985368D01*
X62849522Y-54925789D01*
X63002262Y-54829816D01*
X63129816Y-54702262D01*
X63225789Y-54549522D01*
X63285368Y-54379255D01*
X63305565Y-54200000D01*
X63301082Y-54160215D01*
X63285369Y-54020750D01*
X63285368Y-54020745D01*
X63282824Y-54013474D01*
X63225789Y-53850478D01*
X63205473Y-53818146D01*
X63176708Y-53772366D01*
X63129816Y-53697738D01*
X63002262Y-53570184D01*
X62849523Y-53474211D01*
X62679254Y-53414631D01*
X62679249Y-53414630D01*
X62500004Y-53394435D01*
X62499996Y-53394435D01*
X62320750Y-53414630D01*
X62320745Y-53414631D01*
X62150476Y-53474211D01*
X61997737Y-53570184D01*
X61870184Y-53697737D01*
X61774211Y-53850476D01*
X61714631Y-54020745D01*
X61714630Y-54020749D01*
X61704067Y-54114504D01*
X61677000Y-54178918D01*
X61668528Y-54188301D01*
X54418650Y-61438181D01*
X54357327Y-61471666D01*
X54330969Y-61474500D01*
X53668032Y-61474500D01*
X53600993Y-61454815D01*
X53555238Y-61402011D01*
X53545294Y-61332853D01*
X53574319Y-61269297D01*
X53580351Y-61262819D01*
X55075139Y-59768031D01*
X62563754Y-52279413D01*
X62566740Y-52276527D01*
X62611469Y-52234755D01*
X62631699Y-52201485D01*
X62638836Y-52191000D01*
X62662364Y-52159975D01*
X62668474Y-52144479D01*
X62677880Y-52125544D01*
X62686526Y-52111328D01*
X62697031Y-52073832D01*
X62701068Y-52061826D01*
X62715359Y-52025590D01*
X62717061Y-52009023D01*
X62721007Y-51988260D01*
X62725500Y-51972228D01*
X62725500Y-51933296D01*
X62726150Y-51920616D01*
X62730131Y-51881891D01*
X62727303Y-51865487D01*
X62725500Y-51844420D01*
X62725500Y-42025001D01*
X70634390Y-42025001D01*
X70654804Y-42310433D01*
X70715628Y-42590037D01*
X70815635Y-42858166D01*
X70952770Y-43109309D01*
X70952775Y-43109317D01*
X71124254Y-43338387D01*
X71124270Y-43338405D01*
X71326594Y-43540729D01*
X71326612Y-43540745D01*
X71555682Y-43712224D01*
X71555690Y-43712229D01*
X71806833Y-43849364D01*
X71806832Y-43849364D01*
X71806836Y-43849365D01*
X71806839Y-43849367D01*
X72074954Y-43949369D01*
X72074960Y-43949370D01*
X72074962Y-43949371D01*
X72354566Y-44010195D01*
X72354568Y-44010195D01*
X72354572Y-44010196D01*
X72608220Y-44028337D01*
X72639999Y-44030610D01*
X72640000Y-44030610D01*
X72640001Y-44030610D01*
X72668595Y-44028564D01*
X72925428Y-44010196D01*
X73205046Y-43949369D01*
X73473161Y-43849367D01*
X73724315Y-43712226D01*
X73953395Y-43540739D01*
X74155739Y-43338395D01*
X74327226Y-43109315D01*
X74464367Y-42858161D01*
X74564369Y-42590046D01*
X74625196Y-42310428D01*
X74645610Y-42025000D01*
X74625196Y-41739572D01*
X74603028Y-41637669D01*
X74564371Y-41459962D01*
X74564370Y-41459960D01*
X74564369Y-41459954D01*
X74464367Y-41191839D01*
X74438458Y-41144391D01*
X74327229Y-40940690D01*
X74327224Y-40940682D01*
X74155745Y-40711612D01*
X74155729Y-40711594D01*
X73953405Y-40509270D01*
X73953387Y-40509254D01*
X73724317Y-40337775D01*
X73724309Y-40337770D01*
X73534638Y-40234202D01*
X73485233Y-40184797D01*
X73470381Y-40116524D01*
X73494798Y-40051060D01*
X73550731Y-40009188D01*
X73604872Y-40001842D01*
X73782998Y-40017426D01*
X73783000Y-40017426D01*
X73783002Y-40017426D01*
X73839193Y-40012509D01*
X74007775Y-39997761D01*
X74225720Y-39939363D01*
X74430213Y-39844006D01*
X74615041Y-39714588D01*
X74774588Y-39555041D01*
X74904006Y-39370213D01*
X74999363Y-39165720D01*
X75057761Y-38947775D01*
X75077426Y-38723000D01*
X75057761Y-38498225D01*
X74999363Y-38280280D01*
X74904006Y-38075787D01*
X74904004Y-38075784D01*
X74904003Y-38075782D01*
X74774591Y-37890963D01*
X74774586Y-37890957D01*
X74615042Y-37731413D01*
X74615036Y-37731408D01*
X74430217Y-37601996D01*
X74430213Y-37601994D01*
X74351697Y-37565381D01*
X74299259Y-37519210D01*
X74280107Y-37452016D01*
X74300323Y-37385135D01*
X74351697Y-37340618D01*
X74430213Y-37304006D01*
X74615041Y-37174588D01*
X74774588Y-37015041D01*
X74904006Y-36830213D01*
X74999363Y-36625720D01*
X75057761Y-36407775D01*
X75077426Y-36183000D01*
X75075742Y-36163756D01*
X75057761Y-35958230D01*
X75057761Y-35958225D01*
X74999363Y-35740280D01*
X74904006Y-35535787D01*
X74904004Y-35535784D01*
X74904003Y-35535782D01*
X74774591Y-35350963D01*
X74774586Y-35350957D01*
X74615042Y-35191413D01*
X74615036Y-35191408D01*
X74430217Y-35061996D01*
X74430213Y-35061994D01*
X74351697Y-35025381D01*
X74299259Y-34979210D01*
X74280107Y-34912016D01*
X74300323Y-34845135D01*
X74351697Y-34800618D01*
X74430213Y-34764006D01*
X74615041Y-34634588D01*
X74774588Y-34475041D01*
X74904006Y-34290213D01*
X74999363Y-34085720D01*
X75057761Y-33867775D01*
X75077426Y-33643000D01*
X75075179Y-33617321D01*
X75061593Y-33462030D01*
X75057761Y-33418225D01*
X74999363Y-33200280D01*
X74904006Y-32995787D01*
X74904004Y-32995784D01*
X74904003Y-32995782D01*
X74774591Y-32810963D01*
X74774586Y-32810957D01*
X74615042Y-32651413D01*
X74615036Y-32651408D01*
X74430217Y-32521996D01*
X74430213Y-32521994D01*
X74351697Y-32485381D01*
X74299259Y-32439210D01*
X74280107Y-32372016D01*
X74300323Y-32305135D01*
X74351697Y-32260618D01*
X74430213Y-32224006D01*
X74615041Y-32094588D01*
X74774588Y-31935041D01*
X74904006Y-31750213D01*
X74999363Y-31545720D01*
X75057761Y-31327775D01*
X75077426Y-31103000D01*
X75057761Y-30878225D01*
X74999363Y-30660280D01*
X74904006Y-30455787D01*
X74904004Y-30455784D01*
X74904003Y-30455782D01*
X74774591Y-30270963D01*
X74774586Y-30270957D01*
X74615042Y-30111413D01*
X74615036Y-30111408D01*
X74430217Y-29981996D01*
X74430213Y-29981994D01*
X74351697Y-29945381D01*
X74299259Y-29899210D01*
X74280107Y-29832016D01*
X74300323Y-29765135D01*
X74351697Y-29720618D01*
X74430213Y-29684006D01*
X74615041Y-29554588D01*
X74774588Y-29395041D01*
X74904006Y-29210213D01*
X74999363Y-29005720D01*
X75057761Y-28787775D01*
X75077426Y-28563000D01*
X75057761Y-28338225D01*
X74999363Y-28120280D01*
X74904006Y-27915787D01*
X74904004Y-27915784D01*
X74904003Y-27915782D01*
X74774591Y-27730963D01*
X74774586Y-27730957D01*
X74615042Y-27571413D01*
X74615036Y-27571408D01*
X74430217Y-27441996D01*
X74430213Y-27441994D01*
X74225720Y-27346637D01*
X74225716Y-27346636D01*
X74225714Y-27346635D01*
X74093021Y-27311080D01*
X74033361Y-27274715D01*
X74002832Y-27211868D01*
X74011127Y-27142492D01*
X74055612Y-27088614D01*
X74080322Y-27075678D01*
X74270484Y-27002010D01*
X74270488Y-27002008D01*
X74355696Y-26949249D01*
X73922600Y-26516152D01*
X73927592Y-26515435D01*
X74060470Y-26454752D01*
X74170869Y-26359090D01*
X74249845Y-26236201D01*
X74272522Y-26158969D01*
X74712611Y-26599057D01*
X74712612Y-26599057D01*
X74712851Y-26598742D01*
X74802811Y-26418078D01*
X74802814Y-26418072D01*
X74858042Y-26223962D01*
X74858043Y-26223959D01*
X74876665Y-26023000D01*
X74876665Y-26022999D01*
X74858043Y-25822040D01*
X74858042Y-25822037D01*
X74802814Y-25627927D01*
X74802811Y-25627921D01*
X74712853Y-25447261D01*
X74712849Y-25447254D01*
X74712612Y-25446941D01*
X74272521Y-25887030D01*
X74249845Y-25809799D01*
X74170869Y-25686910D01*
X74060470Y-25591248D01*
X73927592Y-25530565D01*
X73922599Y-25529847D01*
X74355696Y-25096749D01*
X74355695Y-25096748D01*
X74270491Y-25043993D01*
X74270482Y-25043988D01*
X74082298Y-24971086D01*
X74082293Y-24971085D01*
X73883909Y-24934000D01*
X73712426Y-24934000D01*
X73645387Y-24914315D01*
X73599632Y-24861511D01*
X73589688Y-24792353D01*
X73618713Y-24728797D01*
X73652999Y-24701168D01*
X73693557Y-24679020D01*
X73724315Y-24662226D01*
X73953395Y-24490739D01*
X74155739Y-24288395D01*
X74327226Y-24059315D01*
X74464367Y-23808161D01*
X74564369Y-23540046D01*
X74610424Y-23328334D01*
X74625195Y-23260433D01*
X74625195Y-23260432D01*
X74625196Y-23260428D01*
X74645610Y-22975000D01*
X74625196Y-22689572D01*
X74573184Y-22450478D01*
X74564371Y-22409962D01*
X74564370Y-22409960D01*
X74564369Y-22409954D01*
X74464367Y-22141839D01*
X74460245Y-22134291D01*
X74327229Y-21890690D01*
X74327224Y-21890682D01*
X74155745Y-21661612D01*
X74155729Y-21661594D01*
X73953405Y-21459270D01*
X73953387Y-21459254D01*
X73724317Y-21287775D01*
X73724309Y-21287770D01*
X73473166Y-21150635D01*
X73473167Y-21150635D01*
X73365915Y-21110632D01*
X73205046Y-21050631D01*
X73205043Y-21050630D01*
X73205037Y-21050628D01*
X72925433Y-20989804D01*
X72640001Y-20969390D01*
X72639999Y-20969390D01*
X72354566Y-20989804D01*
X72074962Y-21050628D01*
X71806833Y-21150635D01*
X71555690Y-21287770D01*
X71555682Y-21287775D01*
X71326612Y-21459254D01*
X71326594Y-21459270D01*
X71124270Y-21661594D01*
X71124254Y-21661612D01*
X70952775Y-21890682D01*
X70952770Y-21890690D01*
X70815635Y-22141833D01*
X70715628Y-22409962D01*
X70654804Y-22689566D01*
X70634390Y-22974998D01*
X70634390Y-22975001D01*
X70654804Y-23260433D01*
X70715628Y-23540037D01*
X70715630Y-23540043D01*
X70715631Y-23540046D01*
X70815633Y-23808161D01*
X70815635Y-23808166D01*
X70952770Y-24059309D01*
X70952775Y-24059317D01*
X71124254Y-24288387D01*
X71124270Y-24288405D01*
X71326594Y-24490729D01*
X71326612Y-24490745D01*
X71555682Y-24662224D01*
X71555690Y-24662229D01*
X71806833Y-24799364D01*
X71806832Y-24799364D01*
X71806836Y-24799365D01*
X71806839Y-24799367D01*
X72074954Y-24899369D01*
X72074960Y-24899370D01*
X72074962Y-24899371D01*
X72354566Y-24960195D01*
X72354568Y-24960195D01*
X72354572Y-24960196D01*
X72608220Y-24978337D01*
X72639999Y-24980610D01*
X72640000Y-24980610D01*
X72640001Y-24980610D01*
X72663822Y-24978906D01*
X72925428Y-24960196D01*
X73064406Y-24929963D01*
X73134096Y-24934947D01*
X73190030Y-24976818D01*
X73214447Y-25042282D01*
X73213937Y-25065418D01*
X73210302Y-25096749D01*
X73643400Y-25529847D01*
X73638408Y-25530565D01*
X73505530Y-25591248D01*
X73395131Y-25686910D01*
X73316155Y-25809799D01*
X73293477Y-25887031D01*
X72853387Y-25446941D01*
X72853147Y-25447259D01*
X72853144Y-25447265D01*
X72763188Y-25627921D01*
X72763185Y-25627927D01*
X72707957Y-25822037D01*
X72707956Y-25822040D01*
X72689335Y-26022999D01*
X72689335Y-26023000D01*
X72707956Y-26223959D01*
X72707957Y-26223962D01*
X72763185Y-26418072D01*
X72763188Y-26418078D01*
X72853146Y-26598739D01*
X72853150Y-26598745D01*
X72853386Y-26599057D01*
X72853387Y-26599058D01*
X73293477Y-26158968D01*
X73316155Y-26236201D01*
X73395131Y-26359090D01*
X73505530Y-26454752D01*
X73638408Y-26515435D01*
X73643399Y-26516152D01*
X73210302Y-26949249D01*
X73210303Y-26949250D01*
X73295508Y-27002007D01*
X73295517Y-27002011D01*
X73485677Y-27075678D01*
X73541079Y-27118250D01*
X73564670Y-27184017D01*
X73548959Y-27252098D01*
X73498936Y-27300877D01*
X73472978Y-27311080D01*
X73340285Y-27346635D01*
X73340278Y-27346638D01*
X73135786Y-27441994D01*
X73135782Y-27441996D01*
X72950963Y-27571408D01*
X72950957Y-27571413D01*
X72791413Y-27730957D01*
X72791408Y-27730963D01*
X72661996Y-27915782D01*
X72661994Y-27915786D01*
X72566638Y-28120278D01*
X72566634Y-28120287D01*
X72508240Y-28338219D01*
X72508238Y-28338230D01*
X72488574Y-28562998D01*
X72488574Y-28563001D01*
X72508238Y-28787769D01*
X72508240Y-28787780D01*
X72566634Y-29005712D01*
X72566636Y-29005716D01*
X72566637Y-29005720D01*
X72661994Y-29210213D01*
X72661996Y-29210217D01*
X72791408Y-29395036D01*
X72791413Y-29395042D01*
X72950957Y-29554586D01*
X72950963Y-29554591D01*
X73135782Y-29684003D01*
X73135783Y-29684003D01*
X73135787Y-29684006D01*
X73201937Y-29714852D01*
X73214301Y-29720618D01*
X73266740Y-29766791D01*
X73285892Y-29833984D01*
X73265676Y-29900866D01*
X73214301Y-29945382D01*
X73135787Y-29981994D01*
X73135782Y-29981996D01*
X72950963Y-30111408D01*
X72950957Y-30111413D01*
X72791413Y-30270957D01*
X72791408Y-30270963D01*
X72661996Y-30455782D01*
X72661994Y-30455786D01*
X72566638Y-30660278D01*
X72566634Y-30660287D01*
X72508240Y-30878219D01*
X72508238Y-30878230D01*
X72488574Y-31102998D01*
X72488574Y-31103001D01*
X72508238Y-31327769D01*
X72508240Y-31327780D01*
X72566634Y-31545712D01*
X72566636Y-31545716D01*
X72566637Y-31545720D01*
X72661994Y-31750213D01*
X72661996Y-31750217D01*
X72791408Y-31935036D01*
X72791413Y-31935042D01*
X72950957Y-32094586D01*
X72950963Y-32094591D01*
X73135782Y-32224003D01*
X73135783Y-32224003D01*
X73135787Y-32224006D01*
X73201937Y-32254852D01*
X73214301Y-32260618D01*
X73266740Y-32306791D01*
X73285892Y-32373984D01*
X73265676Y-32440866D01*
X73214301Y-32485382D01*
X73135787Y-32521994D01*
X73135782Y-32521996D01*
X72950963Y-32651408D01*
X72950957Y-32651413D01*
X72791413Y-32810957D01*
X72791408Y-32810963D01*
X72661996Y-32995782D01*
X72661994Y-32995786D01*
X72566638Y-33200278D01*
X72566634Y-33200287D01*
X72508240Y-33418219D01*
X72508238Y-33418230D01*
X72488574Y-33642998D01*
X72488574Y-33643001D01*
X72508238Y-33867769D01*
X72508240Y-33867780D01*
X72566634Y-34085712D01*
X72566636Y-34085716D01*
X72566637Y-34085720D01*
X72576328Y-34106502D01*
X72661994Y-34290213D01*
X72661996Y-34290217D01*
X72791408Y-34475036D01*
X72791413Y-34475042D01*
X72950957Y-34634586D01*
X72950963Y-34634591D01*
X73135782Y-34764003D01*
X73135783Y-34764003D01*
X73135787Y-34764006D01*
X73201937Y-34794852D01*
X73214301Y-34800618D01*
X73266740Y-34846791D01*
X73285892Y-34913984D01*
X73265676Y-34980866D01*
X73214301Y-35025382D01*
X73135787Y-35061994D01*
X73135782Y-35061996D01*
X72950963Y-35191408D01*
X72950957Y-35191413D01*
X72791413Y-35350957D01*
X72791408Y-35350963D01*
X72661996Y-35535782D01*
X72661994Y-35535786D01*
X72566638Y-35740278D01*
X72566634Y-35740287D01*
X72508240Y-35958219D01*
X72508238Y-35958230D01*
X72488574Y-36182998D01*
X72488574Y-36183001D01*
X72508238Y-36407769D01*
X72508240Y-36407780D01*
X72566634Y-36625712D01*
X72566636Y-36625716D01*
X72566637Y-36625720D01*
X72661994Y-36830213D01*
X72661996Y-36830217D01*
X72791408Y-37015036D01*
X72791413Y-37015042D01*
X72950957Y-37174586D01*
X72950963Y-37174591D01*
X73135782Y-37304003D01*
X73135783Y-37304003D01*
X73135787Y-37304006D01*
X73201937Y-37334852D01*
X73214301Y-37340618D01*
X73266740Y-37386791D01*
X73285892Y-37453984D01*
X73265676Y-37520866D01*
X73214301Y-37565382D01*
X73135787Y-37601994D01*
X73135782Y-37601996D01*
X72950963Y-37731408D01*
X72950957Y-37731413D01*
X72791413Y-37890957D01*
X72791408Y-37890963D01*
X72661996Y-38075782D01*
X72661994Y-38075786D01*
X72566638Y-38280278D01*
X72566634Y-38280287D01*
X72508240Y-38498219D01*
X72508238Y-38498230D01*
X72488574Y-38722998D01*
X72488574Y-38723001D01*
X72508238Y-38947769D01*
X72508240Y-38947780D01*
X72566634Y-39165712D01*
X72566636Y-39165716D01*
X72566637Y-39165720D01*
X72591183Y-39218358D01*
X72661994Y-39370213D01*
X72661996Y-39370217D01*
X72791408Y-39555036D01*
X72791413Y-39555042D01*
X72950957Y-39714586D01*
X72950963Y-39714591D01*
X73130837Y-39840540D01*
X73174462Y-39895117D01*
X73181656Y-39964615D01*
X73150133Y-40026970D01*
X73089903Y-40062384D01*
X73033357Y-40063281D01*
X72925437Y-40039805D01*
X72925433Y-40039804D01*
X72640001Y-40019390D01*
X72639999Y-40019390D01*
X72354566Y-40039804D01*
X72074962Y-40100628D01*
X71806833Y-40200635D01*
X71555690Y-40337770D01*
X71555682Y-40337775D01*
X71326612Y-40509254D01*
X71326594Y-40509270D01*
X71124270Y-40711594D01*
X71124254Y-40711612D01*
X70952775Y-40940682D01*
X70952770Y-40940690D01*
X70815635Y-41191833D01*
X70715628Y-41459962D01*
X70654804Y-41739566D01*
X70634390Y-42024998D01*
X70634390Y-42025001D01*
X62725500Y-42025001D01*
X62725500Y-17980458D01*
X62745185Y-17913419D01*
X62797989Y-17867664D01*
X62867147Y-17857720D01*
X62920623Y-17878883D01*
X62932361Y-17887102D01*
X63130670Y-17979575D01*
X63130676Y-17979576D01*
X63130677Y-17979577D01*
X63133965Y-17980458D01*
X63342023Y-18036207D01*
X63524926Y-18052208D01*
X63559998Y-18055277D01*
X63560000Y-18055277D01*
X63560002Y-18055277D01*
X63588254Y-18052805D01*
X63777977Y-18036207D01*
X63989330Y-17979575D01*
X64187639Y-17887102D01*
X64366877Y-17761598D01*
X64521598Y-17606877D01*
X64647102Y-17427639D01*
X64717618Y-17276414D01*
X64763790Y-17223977D01*
X64830984Y-17204825D01*
X64897865Y-17225041D01*
X64942381Y-17276414D01*
X65012898Y-17427639D01*
X65138402Y-17606877D01*
X65293123Y-17761598D01*
X65472361Y-17887102D01*
X65670670Y-17979575D01*
X65670676Y-17979576D01*
X65670677Y-17979577D01*
X65673965Y-17980458D01*
X65882023Y-18036207D01*
X66064926Y-18052208D01*
X66099998Y-18055277D01*
X66100000Y-18055277D01*
X66100002Y-18055277D01*
X66128254Y-18052805D01*
X66317977Y-18036207D01*
X66529330Y-17979575D01*
X66727639Y-17887102D01*
X66906877Y-17761598D01*
X67061598Y-17606877D01*
X67187102Y-17427639D01*
X67279575Y-17229330D01*
X67327626Y-17050000D01*
X67618590Y-17050000D01*
X67665233Y-17203766D01*
X67762728Y-17386166D01*
X67762732Y-17386173D01*
X67893944Y-17546055D01*
X68053826Y-17677267D01*
X68053833Y-17677271D01*
X68236233Y-17774766D01*
X68390000Y-17821410D01*
X68390000Y-17235501D01*
X68497685Y-17284680D01*
X68604237Y-17300000D01*
X68675763Y-17300000D01*
X68782315Y-17284680D01*
X68890000Y-17235501D01*
X68890000Y-17821410D01*
X69043766Y-17774766D01*
X69226166Y-17677271D01*
X69226173Y-17677267D01*
X69386055Y-17546055D01*
X69517267Y-17386173D01*
X69517271Y-17386166D01*
X69614766Y-17203766D01*
X69661410Y-17050000D01*
X69073686Y-17050000D01*
X69099493Y-17009844D01*
X69140000Y-16871889D01*
X69140000Y-16728111D01*
X69099493Y-16590156D01*
X69073686Y-16550000D01*
X69661410Y-16550000D01*
X69614766Y-16396233D01*
X69517271Y-16213833D01*
X69517267Y-16213826D01*
X69386055Y-16053944D01*
X69226173Y-15922732D01*
X69226166Y-15922728D01*
X69043763Y-15825232D01*
X68890000Y-15778587D01*
X68890000Y-16364498D01*
X68782315Y-16315320D01*
X68675763Y-16300000D01*
X68604237Y-16300000D01*
X68497685Y-16315320D01*
X68390000Y-16364498D01*
X68390000Y-15778587D01*
X68236236Y-15825232D01*
X68053833Y-15922728D01*
X68053826Y-15922732D01*
X67893944Y-16053944D01*
X67762732Y-16213826D01*
X67762728Y-16213833D01*
X67665233Y-16396233D01*
X67618590Y-16550000D01*
X68206314Y-16550000D01*
X68180507Y-16590156D01*
X68140000Y-16728111D01*
X68140000Y-16871889D01*
X68180507Y-17009844D01*
X68206314Y-17050000D01*
X67618590Y-17050000D01*
X67327626Y-17050000D01*
X67336207Y-17017977D01*
X67355277Y-16800000D01*
X67336207Y-16582023D01*
X67279575Y-16370670D01*
X67187102Y-16172362D01*
X67187100Y-16172359D01*
X67187099Y-16172357D01*
X67061599Y-15993124D01*
X66986957Y-15918482D01*
X66906877Y-15838402D01*
X66727639Y-15712898D01*
X66576414Y-15642381D01*
X66523977Y-15596210D01*
X66504825Y-15529016D01*
X66525041Y-15462135D01*
X66576414Y-15417618D01*
X66727639Y-15347102D01*
X66906877Y-15221598D01*
X67061598Y-15066877D01*
X67187102Y-14887639D01*
X67257618Y-14736414D01*
X67303790Y-14683977D01*
X67370984Y-14664825D01*
X67437865Y-14685041D01*
X67482381Y-14736414D01*
X67552898Y-14887639D01*
X67678402Y-15066877D01*
X67833123Y-15221598D01*
X68012361Y-15347102D01*
X68210670Y-15439575D01*
X68422023Y-15496207D01*
X68604926Y-15512208D01*
X68639998Y-15515277D01*
X68640000Y-15515277D01*
X68640002Y-15515277D01*
X68668254Y-15512805D01*
X68814621Y-15500000D01*
X70394615Y-15500000D01*
X70414140Y-15847688D01*
X70414142Y-15847700D01*
X70472314Y-16190081D01*
X70472473Y-16191013D01*
X70568879Y-16525644D01*
X70702145Y-16847376D01*
X70870595Y-17152164D01*
X71072112Y-17436176D01*
X71304161Y-17695839D01*
X71563824Y-17927888D01*
X71847836Y-18129405D01*
X72152624Y-18297855D01*
X72474356Y-18431121D01*
X72808987Y-18527527D01*
X73152307Y-18585859D01*
X73500000Y-18605385D01*
X73847693Y-18585859D01*
X74191013Y-18527527D01*
X74525644Y-18431121D01*
X74847376Y-18297855D01*
X75152164Y-18129405D01*
X75436176Y-17927888D01*
X75695839Y-17695839D01*
X75927888Y-17436176D01*
X76129405Y-17152164D01*
X76297855Y-16847376D01*
X76431121Y-16525644D01*
X76527527Y-16191013D01*
X76585859Y-15847693D01*
X76605385Y-15500000D01*
X76585859Y-15152307D01*
X76527527Y-14808987D01*
X76431121Y-14474356D01*
X76297855Y-14152624D01*
X76129405Y-13847836D01*
X75927888Y-13563824D01*
X75695839Y-13304161D01*
X75436176Y-13072112D01*
X75152164Y-12870595D01*
X74847376Y-12702145D01*
X74828598Y-12694367D01*
X74721487Y-12650000D01*
X74525644Y-12568879D01*
X74217539Y-12480115D01*
X74191017Y-12472474D01*
X74191009Y-12472472D01*
X73847700Y-12414142D01*
X73847688Y-12414140D01*
X73500000Y-12394615D01*
X73152311Y-12414140D01*
X73152299Y-12414142D01*
X72808990Y-12472472D01*
X72808982Y-12472474D01*
X72477195Y-12568061D01*
X72474356Y-12568879D01*
X72382025Y-12607124D01*
X72152625Y-12702144D01*
X71847835Y-12870595D01*
X71675402Y-12992943D01*
X71563824Y-13072112D01*
X71304161Y-13304161D01*
X71072112Y-13563824D01*
X71023482Y-13632362D01*
X70870595Y-13847835D01*
X70702144Y-14152625D01*
X70568878Y-14474359D01*
X70472474Y-14808982D01*
X70472472Y-14808990D01*
X70414142Y-15152299D01*
X70414140Y-15152311D01*
X70394615Y-15500000D01*
X68814621Y-15500000D01*
X68857977Y-15496207D01*
X69069330Y-15439575D01*
X69267639Y-15347102D01*
X69446877Y-15221598D01*
X69601598Y-15066877D01*
X69727102Y-14887639D01*
X69819575Y-14689330D01*
X69876207Y-14477977D01*
X69895277Y-14260000D01*
X69876207Y-14042023D01*
X69836609Y-13894240D01*
X69819577Y-13830677D01*
X69819576Y-13830676D01*
X69819575Y-13830670D01*
X69727102Y-13632362D01*
X69727100Y-13632359D01*
X69727099Y-13632357D01*
X69601599Y-13453124D01*
X69531203Y-13382728D01*
X69446877Y-13298402D01*
X69293279Y-13190851D01*
X69267638Y-13172897D01*
X69168484Y-13126661D01*
X69069330Y-13080425D01*
X69069326Y-13080424D01*
X69069322Y-13080422D01*
X68857977Y-13023793D01*
X68640002Y-13004723D01*
X68639998Y-13004723D01*
X68494682Y-13017436D01*
X68422023Y-13023793D01*
X68422020Y-13023793D01*
X68210677Y-13080422D01*
X68210668Y-13080426D01*
X68012361Y-13172898D01*
X68012357Y-13172900D01*
X67833121Y-13298402D01*
X67678402Y-13453121D01*
X67552900Y-13632357D01*
X67552898Y-13632361D01*
X67482382Y-13783583D01*
X67436209Y-13836022D01*
X67369016Y-13855174D01*
X67302135Y-13834958D01*
X67257618Y-13783583D01*
X67206437Y-13673826D01*
X67187102Y-13632362D01*
X67187100Y-13632359D01*
X67187099Y-13632357D01*
X67061599Y-13453124D01*
X66991203Y-13382728D01*
X66906877Y-13298402D01*
X66753279Y-13190851D01*
X66727638Y-13172897D01*
X66628484Y-13126661D01*
X66529330Y-13080425D01*
X66529326Y-13080424D01*
X66529322Y-13080422D01*
X66317977Y-13023793D01*
X66100002Y-13004723D01*
X66099998Y-13004723D01*
X65954682Y-13017436D01*
X65882023Y-13023793D01*
X65882020Y-13023793D01*
X65670677Y-13080422D01*
X65670668Y-13080426D01*
X65472361Y-13172898D01*
X65472357Y-13172900D01*
X65293121Y-13298402D01*
X65138402Y-13453121D01*
X65012900Y-13632357D01*
X65012898Y-13632361D01*
X64942382Y-13783583D01*
X64896209Y-13836022D01*
X64829016Y-13855174D01*
X64762135Y-13834958D01*
X64717618Y-13783583D01*
X64666437Y-13673826D01*
X64647102Y-13632362D01*
X64647100Y-13632359D01*
X64647099Y-13632357D01*
X64521599Y-13453124D01*
X64451203Y-13382728D01*
X64366877Y-13298402D01*
X64213279Y-13190851D01*
X64187638Y-13172897D01*
X64088484Y-13126661D01*
X63989330Y-13080425D01*
X63989326Y-13080424D01*
X63989322Y-13080422D01*
X63777977Y-13023793D01*
X63560002Y-13004723D01*
X63559998Y-13004723D01*
X63414682Y-13017436D01*
X63342023Y-13023793D01*
X63342020Y-13023793D01*
X63130677Y-13080422D01*
X63130668Y-13080426D01*
X62932361Y-13172898D01*
X62932357Y-13172900D01*
X62753121Y-13298402D01*
X62598402Y-13453121D01*
X62472900Y-13632357D01*
X62472898Y-13632361D01*
X62380426Y-13830668D01*
X62380422Y-13830677D01*
X62323793Y-14042020D01*
X62323793Y-14042023D01*
X62323024Y-14050811D01*
X62309586Y-14204419D01*
X62304723Y-14260000D01*
X62323476Y-14474359D01*
X62323793Y-14477975D01*
X62323793Y-14477979D01*
X62380422Y-14689322D01*
X62380424Y-14689326D01*
X62380425Y-14689330D01*
X62406633Y-14745533D01*
X62472897Y-14887638D01*
X62497998Y-14923486D01*
X62598402Y-15066877D01*
X62753123Y-15221598D01*
X62908030Y-15330065D01*
X62932361Y-15347102D01*
X63083583Y-15417618D01*
X63136022Y-15463790D01*
X63155174Y-15530984D01*
X63134958Y-15597865D01*
X63083583Y-15642382D01*
X62932361Y-15712898D01*
X62932359Y-15712899D01*
X62876090Y-15752299D01*
X62809884Y-15774626D01*
X62742117Y-15757614D01*
X62696883Y-15711498D01*
X62674382Y-15671481D01*
X62668733Y-15660108D01*
X62657385Y-15633983D01*
X62653219Y-15624391D01*
X62642708Y-15611472D01*
X62630813Y-15593994D01*
X62622657Y-15579488D01*
X62595133Y-15551964D01*
X62586627Y-15542539D01*
X62562055Y-15512336D01*
X62562050Y-15512332D01*
X62548450Y-15502732D01*
X62532278Y-15489109D01*
X62279440Y-15236271D01*
X62276498Y-15233227D01*
X62265633Y-15221593D01*
X62234755Y-15188531D01*
X62234754Y-15188530D01*
X62234753Y-15188529D01*
X62234751Y-15188528D01*
X62201489Y-15168301D01*
X62190991Y-15161156D01*
X62159976Y-15137636D01*
X62147015Y-15132525D01*
X62144485Y-15131527D01*
X62125553Y-15122124D01*
X62111329Y-15113474D01*
X62073842Y-15102970D01*
X62061813Y-15098925D01*
X62025591Y-15084641D01*
X62025583Y-15084640D01*
X62009022Y-15082937D01*
X61988255Y-15078990D01*
X61972231Y-15074500D01*
X61972228Y-15074500D01*
X61972060Y-15074500D01*
X61971914Y-15074457D01*
X61963823Y-15073345D01*
X61963989Y-15072130D01*
X61905021Y-15054815D01*
X61859266Y-15002011D01*
X61849322Y-14932853D01*
X61876207Y-14871835D01*
X61897267Y-14846173D01*
X61897271Y-14846166D01*
X61994766Y-14663766D01*
X62041410Y-14510000D01*
X61453686Y-14510000D01*
X61479493Y-14469844D01*
X61520000Y-14331889D01*
X61520000Y-14188111D01*
X61479493Y-14050156D01*
X61453686Y-14010000D01*
X62041410Y-14010000D01*
X61994766Y-13856233D01*
X61897271Y-13673833D01*
X61897267Y-13673826D01*
X61766055Y-13513944D01*
X61606173Y-13382732D01*
X61606166Y-13382728D01*
X61423763Y-13285232D01*
X61270000Y-13238587D01*
X61270000Y-13824498D01*
X61162315Y-13775320D01*
X61055763Y-13760000D01*
X60984237Y-13760000D01*
X60877685Y-13775320D01*
X60770000Y-13824498D01*
X60770000Y-13238587D01*
X60616236Y-13285232D01*
X60433833Y-13382728D01*
X60433826Y-13382732D01*
X60273944Y-13513944D01*
X60142732Y-13673826D01*
X60142728Y-13673833D01*
X60045233Y-13856233D01*
X59998590Y-14010000D01*
X60586314Y-14010000D01*
X60560507Y-14050156D01*
X60520000Y-14188111D01*
X60520000Y-14331889D01*
X60560507Y-14469844D01*
X60586314Y-14510000D01*
X59998590Y-14510000D01*
X60045233Y-14663766D01*
X60131497Y-14825155D01*
X60145739Y-14893558D01*
X60120739Y-14958802D01*
X60064434Y-15000172D01*
X59994700Y-15004534D01*
X59934458Y-14971289D01*
X59708702Y-14745533D01*
X59675217Y-14684210D01*
X59676607Y-14625762D01*
X59716207Y-14477977D01*
X59735277Y-14260000D01*
X59716207Y-14042023D01*
X59676609Y-13894240D01*
X59659577Y-13830677D01*
X59659576Y-13830676D01*
X59659575Y-13830670D01*
X59567102Y-13632362D01*
X59567100Y-13632359D01*
X59567099Y-13632357D01*
X59441599Y-13453124D01*
X59371203Y-13382728D01*
X59286877Y-13298402D01*
X59133279Y-13190851D01*
X59107638Y-13172897D01*
X59008484Y-13126661D01*
X58909330Y-13080425D01*
X58909326Y-13080424D01*
X58909322Y-13080422D01*
X58697977Y-13023793D01*
X58480002Y-13004723D01*
X58479998Y-13004723D01*
X58334682Y-13017436D01*
X58262023Y-13023793D01*
X58262020Y-13023793D01*
X58050677Y-13080422D01*
X58050668Y-13080426D01*
X57852361Y-13172898D01*
X57852357Y-13172900D01*
X57673121Y-13298402D01*
X57518402Y-13453121D01*
X57392900Y-13632357D01*
X57392898Y-13632361D01*
X57300426Y-13830668D01*
X57300422Y-13830677D01*
X57243793Y-14042020D01*
X57243793Y-14042023D01*
X57243024Y-14050811D01*
X57229586Y-14204419D01*
X57224723Y-14260000D01*
X57243476Y-14474359D01*
X57243793Y-14477975D01*
X57243793Y-14477979D01*
X57300422Y-14689322D01*
X57300424Y-14689326D01*
X57300425Y-14689330D01*
X57326633Y-14745533D01*
X57392897Y-14887638D01*
X57417998Y-14923486D01*
X57518402Y-15066877D01*
X57673123Y-15221598D01*
X57828030Y-15330065D01*
X57852361Y-15347102D01*
X58003583Y-15417618D01*
X58056022Y-15463790D01*
X58075174Y-15530984D01*
X58054958Y-15597865D01*
X58003583Y-15642382D01*
X57852361Y-15712898D01*
X57852357Y-15712900D01*
X57673121Y-15838402D01*
X57518402Y-15993121D01*
X57392900Y-16172357D01*
X57392898Y-16172361D01*
X57322382Y-16323583D01*
X57276209Y-16376022D01*
X57209016Y-16395174D01*
X57142135Y-16374958D01*
X57097618Y-16323583D01*
X57035797Y-16191009D01*
X57027102Y-16172362D01*
X57027100Y-16172359D01*
X57027099Y-16172357D01*
X56901599Y-15993124D01*
X56826957Y-15918482D01*
X56746877Y-15838402D01*
X56589500Y-15728205D01*
X56567638Y-15712897D01*
X56454430Y-15660108D01*
X56369330Y-15620425D01*
X56369326Y-15620424D01*
X56369322Y-15620422D01*
X56157977Y-15563793D01*
X55940002Y-15544723D01*
X55939998Y-15544723D01*
X55794682Y-15557436D01*
X55722023Y-15563793D01*
X55722020Y-15563793D01*
X55510677Y-15620422D01*
X55510670Y-15620424D01*
X55510670Y-15620425D01*
X55507391Y-15621954D01*
X55312361Y-15712898D01*
X55312357Y-15712900D01*
X55133121Y-15838402D01*
X54978402Y-15993121D01*
X54852900Y-16172357D01*
X54852898Y-16172361D01*
X54782382Y-16323583D01*
X54736209Y-16376022D01*
X54669016Y-16395174D01*
X54602135Y-16374958D01*
X54557618Y-16323583D01*
X54495797Y-16191009D01*
X54487102Y-16172362D01*
X54487100Y-16172359D01*
X54487099Y-16172357D01*
X54361599Y-15993124D01*
X54286957Y-15918482D01*
X54206877Y-15838402D01*
X54027639Y-15712898D01*
X53876414Y-15642381D01*
X53823977Y-15596210D01*
X53804825Y-15529016D01*
X53825041Y-15462135D01*
X53876414Y-15417618D01*
X54027639Y-15347102D01*
X54206877Y-15221598D01*
X54361598Y-15066877D01*
X54487102Y-14887639D01*
X54579575Y-14689330D01*
X54627626Y-14510000D01*
X54918590Y-14510000D01*
X54965233Y-14663766D01*
X55062728Y-14846166D01*
X55062732Y-14846173D01*
X55193944Y-15006055D01*
X55353826Y-15137267D01*
X55353833Y-15137271D01*
X55536233Y-15234766D01*
X55690000Y-15281410D01*
X55690000Y-14695501D01*
X55797685Y-14744680D01*
X55904237Y-14760000D01*
X55975763Y-14760000D01*
X56082315Y-14744680D01*
X56190000Y-14695501D01*
X56190000Y-15281410D01*
X56343766Y-15234766D01*
X56526166Y-15137271D01*
X56526173Y-15137267D01*
X56686055Y-15006055D01*
X56817267Y-14846173D01*
X56817271Y-14846166D01*
X56914766Y-14663766D01*
X56961410Y-14510000D01*
X56373686Y-14510000D01*
X56399493Y-14469844D01*
X56440000Y-14331889D01*
X56440000Y-14188111D01*
X56399493Y-14050156D01*
X56373686Y-14010000D01*
X56961410Y-14010000D01*
X56914766Y-13856233D01*
X56817271Y-13673833D01*
X56817267Y-13673826D01*
X56686055Y-13513944D01*
X56526173Y-13382732D01*
X56526166Y-13382728D01*
X56343763Y-13285232D01*
X56190000Y-13238587D01*
X56190000Y-13824498D01*
X56082315Y-13775320D01*
X55975763Y-13760000D01*
X55904237Y-13760000D01*
X55797685Y-13775320D01*
X55690000Y-13824498D01*
X55690000Y-13238587D01*
X55536236Y-13285232D01*
X55353833Y-13382728D01*
X55353826Y-13382732D01*
X55193944Y-13513944D01*
X55062732Y-13673826D01*
X55062728Y-13673833D01*
X54965233Y-13856233D01*
X54918590Y-14010000D01*
X55506314Y-14010000D01*
X55480507Y-14050156D01*
X55440000Y-14188111D01*
X55440000Y-14331889D01*
X55480507Y-14469844D01*
X55506314Y-14510000D01*
X54918590Y-14510000D01*
X54627626Y-14510000D01*
X54636207Y-14477977D01*
X54655277Y-14260000D01*
X54636207Y-14042023D01*
X54596609Y-13894240D01*
X54579577Y-13830677D01*
X54579576Y-13830676D01*
X54579575Y-13830670D01*
X54487102Y-13632362D01*
X54487100Y-13632359D01*
X54487099Y-13632357D01*
X54361599Y-13453124D01*
X54291203Y-13382728D01*
X54206877Y-13298402D01*
X54053279Y-13190851D01*
X54027638Y-13172897D01*
X53928484Y-13126661D01*
X53829330Y-13080425D01*
X53829326Y-13080424D01*
X53829322Y-13080422D01*
X53617977Y-13023793D01*
X53400002Y-13004723D01*
X53399998Y-13004723D01*
X53254682Y-13017436D01*
X53182023Y-13023793D01*
X53182020Y-13023793D01*
X52970677Y-13080422D01*
X52970668Y-13080426D01*
X52772361Y-13172898D01*
X52772357Y-13172900D01*
X52593121Y-13298402D01*
X52438402Y-13453121D01*
X52312900Y-13632357D01*
X52312898Y-13632361D01*
X52242382Y-13783583D01*
X52196209Y-13836022D01*
X52129016Y-13855174D01*
X52062135Y-13834958D01*
X52017618Y-13783583D01*
X51966437Y-13673826D01*
X51947102Y-13632362D01*
X51947100Y-13632359D01*
X51947099Y-13632357D01*
X51821599Y-13453124D01*
X51751203Y-13382728D01*
X51666877Y-13298402D01*
X51513279Y-13190851D01*
X51487638Y-13172897D01*
X51388484Y-13126661D01*
X51289330Y-13080425D01*
X51289326Y-13080424D01*
X51289322Y-13080422D01*
X51077977Y-13023793D01*
X50860002Y-13004723D01*
X50859998Y-13004723D01*
X50714682Y-13017436D01*
X50642023Y-13023793D01*
X50642020Y-13023793D01*
X50430677Y-13080422D01*
X50430668Y-13080426D01*
X50232361Y-13172898D01*
X50232357Y-13172900D01*
X50053121Y-13298402D01*
X49898402Y-13453121D01*
X49772900Y-13632357D01*
X49772898Y-13632361D01*
X49702382Y-13783583D01*
X49656209Y-13836022D01*
X49589016Y-13855174D01*
X49522135Y-13834958D01*
X49477618Y-13783583D01*
X49426437Y-13673826D01*
X49407102Y-13632362D01*
X49407100Y-13632359D01*
X49407099Y-13632357D01*
X49281599Y-13453124D01*
X49211203Y-13382728D01*
X49126877Y-13298402D01*
X48973279Y-13190851D01*
X48947638Y-13172897D01*
X48848484Y-13126661D01*
X48749330Y-13080425D01*
X48749326Y-13080424D01*
X48749322Y-13080422D01*
X48537977Y-13023793D01*
X48320002Y-13004723D01*
X48319998Y-13004723D01*
X48174682Y-13017436D01*
X48102023Y-13023793D01*
X48102020Y-13023793D01*
X47890677Y-13080422D01*
X47890668Y-13080426D01*
X47692361Y-13172898D01*
X47692357Y-13172900D01*
X47513121Y-13298402D01*
X47358402Y-13453121D01*
X47232900Y-13632357D01*
X47232898Y-13632361D01*
X47162382Y-13783583D01*
X47116209Y-13836022D01*
X47049016Y-13855174D01*
X46982135Y-13834958D01*
X46937618Y-13783583D01*
X46886437Y-13673826D01*
X46867102Y-13632362D01*
X46867100Y-13632359D01*
X46867099Y-13632357D01*
X46741599Y-13453124D01*
X46671203Y-13382728D01*
X46586877Y-13298402D01*
X46433279Y-13190851D01*
X46407638Y-13172897D01*
X46308484Y-13126661D01*
X46209330Y-13080425D01*
X46209326Y-13080424D01*
X46209322Y-13080422D01*
X45997977Y-13023793D01*
X45780002Y-13004723D01*
X45779998Y-13004723D01*
X45634682Y-13017436D01*
X45562023Y-13023793D01*
X45562020Y-13023793D01*
X45350677Y-13080422D01*
X45350668Y-13080426D01*
X45152361Y-13172898D01*
X45152357Y-13172900D01*
X44973121Y-13298402D01*
X44818402Y-13453121D01*
X44692900Y-13632357D01*
X44692898Y-13632361D01*
X44600426Y-13830668D01*
X44600422Y-13830677D01*
X44543793Y-14042020D01*
X44543793Y-14042023D01*
X44543024Y-14050811D01*
X44529586Y-14204419D01*
X44524723Y-14260000D01*
X44543476Y-14474359D01*
X44543793Y-14477975D01*
X44543793Y-14477979D01*
X44600422Y-14689322D01*
X44600424Y-14689326D01*
X44600425Y-14689330D01*
X44626633Y-14745533D01*
X44692897Y-14887638D01*
X44717998Y-14923486D01*
X44818402Y-15066877D01*
X44973123Y-15221598D01*
X45128030Y-15330065D01*
X45152361Y-15347102D01*
X45303583Y-15417618D01*
X45356022Y-15463790D01*
X45375174Y-15530984D01*
X45354958Y-15597865D01*
X45303583Y-15642382D01*
X45152361Y-15712898D01*
X45152357Y-15712900D01*
X44973121Y-15838402D01*
X44818402Y-15993121D01*
X44692900Y-16172357D01*
X44692898Y-16172361D01*
X44622382Y-16323583D01*
X44576209Y-16376022D01*
X44509016Y-16395174D01*
X44442135Y-16374958D01*
X44397618Y-16323583D01*
X44335797Y-16191009D01*
X44327102Y-16172362D01*
X44327100Y-16172359D01*
X44327099Y-16172357D01*
X44201599Y-15993124D01*
X44126957Y-15918482D01*
X44046877Y-15838402D01*
X43889500Y-15728205D01*
X43867638Y-15712897D01*
X43754430Y-15660108D01*
X43669330Y-15620425D01*
X43669326Y-15620424D01*
X43669322Y-15620422D01*
X43457977Y-15563793D01*
X43240002Y-15544723D01*
X43239998Y-15544723D01*
X43094682Y-15557436D01*
X43022023Y-15563793D01*
X43022020Y-15563793D01*
X42810677Y-15620422D01*
X42810670Y-15620424D01*
X42810670Y-15620425D01*
X42807391Y-15621954D01*
X42612361Y-15712898D01*
X42612357Y-15712900D01*
X42433121Y-15838402D01*
X42278402Y-15993121D01*
X42152900Y-16172357D01*
X42152898Y-16172361D01*
X42082382Y-16323583D01*
X42036209Y-16376022D01*
X41969016Y-16395174D01*
X41902135Y-16374958D01*
X41857618Y-16323583D01*
X41795797Y-16191009D01*
X41787102Y-16172362D01*
X41787100Y-16172359D01*
X41787099Y-16172357D01*
X41661599Y-15993124D01*
X41586957Y-15918482D01*
X41506877Y-15838402D01*
X41327639Y-15712898D01*
X41176414Y-15642381D01*
X41123977Y-15596210D01*
X41104825Y-15529016D01*
X41125041Y-15462135D01*
X41176414Y-15417618D01*
X41327639Y-15347102D01*
X41506877Y-15221598D01*
X41661598Y-15066877D01*
X41787102Y-14887639D01*
X41879575Y-14689330D01*
X41927626Y-14510000D01*
X42218590Y-14510000D01*
X42265233Y-14663766D01*
X42362728Y-14846166D01*
X42362732Y-14846173D01*
X42493944Y-15006055D01*
X42653826Y-15137267D01*
X42653833Y-15137271D01*
X42836233Y-15234766D01*
X42990000Y-15281410D01*
X42990000Y-14695501D01*
X43097685Y-14744680D01*
X43204237Y-14760000D01*
X43275763Y-14760000D01*
X43382315Y-14744680D01*
X43490000Y-14695501D01*
X43490000Y-15281410D01*
X43643766Y-15234766D01*
X43826166Y-15137271D01*
X43826173Y-15137267D01*
X43986055Y-15006055D01*
X44117267Y-14846173D01*
X44117271Y-14846166D01*
X44214766Y-14663766D01*
X44261410Y-14510000D01*
X43673686Y-14510000D01*
X43699493Y-14469844D01*
X43740000Y-14331889D01*
X43740000Y-14188111D01*
X43699493Y-14050156D01*
X43673686Y-14010000D01*
X44261410Y-14010000D01*
X44214766Y-13856233D01*
X44117271Y-13673833D01*
X44117267Y-13673826D01*
X43986055Y-13513944D01*
X43826173Y-13382732D01*
X43826166Y-13382728D01*
X43643763Y-13285232D01*
X43490000Y-13238587D01*
X43490000Y-13824498D01*
X43382315Y-13775320D01*
X43275763Y-13760000D01*
X43204237Y-13760000D01*
X43097685Y-13775320D01*
X42990000Y-13824498D01*
X42990000Y-13238587D01*
X42836236Y-13285232D01*
X42653833Y-13382728D01*
X42653826Y-13382732D01*
X42493944Y-13513944D01*
X42362732Y-13673826D01*
X42362728Y-13673833D01*
X42265233Y-13856233D01*
X42218590Y-14010000D01*
X42806314Y-14010000D01*
X42780507Y-14050156D01*
X42740000Y-14188111D01*
X42740000Y-14331889D01*
X42780507Y-14469844D01*
X42806314Y-14510000D01*
X42218590Y-14510000D01*
X41927626Y-14510000D01*
X41936207Y-14477977D01*
X41955277Y-14260000D01*
X41936207Y-14042023D01*
X41896609Y-13894240D01*
X41879577Y-13830677D01*
X41879576Y-13830676D01*
X41879575Y-13830670D01*
X41787102Y-13632362D01*
X41787100Y-13632359D01*
X41787099Y-13632357D01*
X41661599Y-13453124D01*
X41591203Y-13382728D01*
X41506877Y-13298402D01*
X41353279Y-13190851D01*
X41327638Y-13172897D01*
X41228484Y-13126661D01*
X41129330Y-13080425D01*
X41129326Y-13080424D01*
X41129322Y-13080422D01*
X40917977Y-13023793D01*
X40700002Y-13004723D01*
X40699998Y-13004723D01*
X40554682Y-13017436D01*
X40482023Y-13023793D01*
X40482020Y-13023793D01*
X40270677Y-13080422D01*
X40270668Y-13080426D01*
X40072361Y-13172898D01*
X40072357Y-13172900D01*
X39893121Y-13298402D01*
X39738402Y-13453121D01*
X39612900Y-13632357D01*
X39612898Y-13632361D01*
X39542382Y-13783583D01*
X39496209Y-13836022D01*
X39429016Y-13855174D01*
X39362135Y-13834958D01*
X39317618Y-13783583D01*
X39266437Y-13673826D01*
X39247102Y-13632362D01*
X39247100Y-13632359D01*
X39247099Y-13632357D01*
X39121599Y-13453124D01*
X39051203Y-13382728D01*
X38966877Y-13298402D01*
X38813279Y-13190851D01*
X38787638Y-13172897D01*
X38688484Y-13126661D01*
X38589330Y-13080425D01*
X38589326Y-13080424D01*
X38589322Y-13080422D01*
X38377977Y-13023793D01*
X38160002Y-13004723D01*
X38159998Y-13004723D01*
X38014682Y-13017436D01*
X37942023Y-13023793D01*
X37942020Y-13023793D01*
X37794240Y-13063391D01*
X37724390Y-13061728D01*
X37674466Y-13031297D01*
X37364440Y-12721271D01*
X37361498Y-12718227D01*
X37358171Y-12714665D01*
X37319755Y-12673531D01*
X37319754Y-12673530D01*
X37319753Y-12673529D01*
X37319751Y-12673528D01*
X37286489Y-12653301D01*
X37275991Y-12646156D01*
X37244976Y-12622636D01*
X37236406Y-12619256D01*
X37229485Y-12616527D01*
X37210553Y-12607124D01*
X37196329Y-12598474D01*
X37158842Y-12587970D01*
X37146813Y-12583925D01*
X37110591Y-12569641D01*
X37110583Y-12569640D01*
X37094022Y-12567937D01*
X37073255Y-12563990D01*
X37057231Y-12559500D01*
X37057228Y-12559500D01*
X37018296Y-12559500D01*
X37005617Y-12558850D01*
X36966892Y-12554869D01*
X36966888Y-12554869D01*
X36957576Y-12556474D01*
X36950485Y-12557697D01*
X36929420Y-12559500D01*
X30064409Y-12559500D01*
X30060176Y-12559428D01*
X30051820Y-12559142D01*
X29999054Y-12557340D01*
X29999053Y-12557340D01*
X29999050Y-12557340D01*
X29961231Y-12566556D01*
X29948763Y-12568926D01*
X29910186Y-12574229D01*
X29894910Y-12580864D01*
X29874884Y-12587599D01*
X29858706Y-12591542D01*
X29858700Y-12591545D01*
X29824774Y-12610620D01*
X29813408Y-12616265D01*
X29777692Y-12631779D01*
X29777688Y-12631781D01*
X29764772Y-12642289D01*
X29747302Y-12654180D01*
X29732787Y-12662341D01*
X29705257Y-12689872D01*
X29695833Y-12698376D01*
X29665635Y-12722944D01*
X29665634Y-12722944D01*
X29656033Y-12736546D01*
X29642413Y-12752714D01*
X29039482Y-13355645D01*
X28978159Y-13389130D01*
X28908467Y-13384146D01*
X28864120Y-13355645D01*
X28806881Y-13298406D01*
X28806877Y-13298402D01*
X28653251Y-13190832D01*
X28627638Y-13172897D01*
X28528484Y-13126661D01*
X28429330Y-13080425D01*
X28429326Y-13080424D01*
X28429322Y-13080422D01*
X28217977Y-13023793D01*
X28000002Y-13004723D01*
X27999998Y-13004723D01*
X27854682Y-13017436D01*
X27782023Y-13023793D01*
X27782020Y-13023793D01*
X27570677Y-13080422D01*
X27570668Y-13080426D01*
X27372361Y-13172898D01*
X27372357Y-13172900D01*
X27193121Y-13298402D01*
X27038402Y-13453121D01*
X26912900Y-13632357D01*
X26912898Y-13632361D01*
X26820426Y-13830668D01*
X26820422Y-13830677D01*
X26763793Y-14042020D01*
X26763793Y-14042023D01*
X26763024Y-14050811D01*
X26749586Y-14204419D01*
X26744723Y-14260000D01*
X26763476Y-14474359D01*
X26763793Y-14477975D01*
X26763793Y-14477979D01*
X26820422Y-14689322D01*
X26820424Y-14689326D01*
X26820425Y-14689330D01*
X26846633Y-14745533D01*
X26912897Y-14887638D01*
X26937998Y-14923486D01*
X27038402Y-15066877D01*
X27193123Y-15221598D01*
X27348030Y-15330065D01*
X27372361Y-15347102D01*
X27523583Y-15417618D01*
X27576022Y-15463790D01*
X27595174Y-15530984D01*
X27574958Y-15597865D01*
X27523583Y-15642382D01*
X27372361Y-15712898D01*
X27372357Y-15712900D01*
X27193121Y-15838402D01*
X27038402Y-15993121D01*
X26912900Y-16172357D01*
X26912898Y-16172361D01*
X26842382Y-16323583D01*
X26796209Y-16376022D01*
X26729016Y-16395174D01*
X26662135Y-16374958D01*
X26617618Y-16323583D01*
X26555797Y-16191009D01*
X26547102Y-16172362D01*
X26547100Y-16172359D01*
X26547099Y-16172357D01*
X26421599Y-15993124D01*
X26346957Y-15918482D01*
X26266877Y-15838402D01*
X26109500Y-15728205D01*
X26087638Y-15712897D01*
X25974430Y-15660108D01*
X25889330Y-15620425D01*
X25889326Y-15620424D01*
X25889322Y-15620422D01*
X25677977Y-15563793D01*
X25460002Y-15544723D01*
X25459998Y-15544723D01*
X25314682Y-15557436D01*
X25242023Y-15563793D01*
X25242020Y-15563793D01*
X25030677Y-15620422D01*
X25030670Y-15620424D01*
X25030670Y-15620425D01*
X25027391Y-15621954D01*
X24832361Y-15712898D01*
X24832357Y-15712900D01*
X24653121Y-15838402D01*
X24498402Y-15993121D01*
X24372900Y-16172357D01*
X24372898Y-16172361D01*
X24302382Y-16323583D01*
X24256209Y-16376022D01*
X24189016Y-16395174D01*
X24122135Y-16374958D01*
X24077618Y-16323583D01*
X24015797Y-16191009D01*
X24007102Y-16172362D01*
X24007100Y-16172359D01*
X24007099Y-16172357D01*
X23881599Y-15993124D01*
X23806957Y-15918482D01*
X23726877Y-15838402D01*
X23547639Y-15712898D01*
X23396414Y-15642381D01*
X23343977Y-15596210D01*
X23324825Y-15529016D01*
X23345041Y-15462135D01*
X23396414Y-15417618D01*
X23547639Y-15347102D01*
X23726877Y-15221598D01*
X23881598Y-15066877D01*
X24007102Y-14887639D01*
X24099575Y-14689330D01*
X24147626Y-14510000D01*
X24438590Y-14510000D01*
X24485233Y-14663766D01*
X24582728Y-14846166D01*
X24582732Y-14846173D01*
X24713944Y-15006055D01*
X24873826Y-15137267D01*
X24873833Y-15137271D01*
X25056233Y-15234766D01*
X25210000Y-15281410D01*
X25210000Y-14695501D01*
X25317685Y-14744680D01*
X25424237Y-14760000D01*
X25495763Y-14760000D01*
X25602315Y-14744680D01*
X25710000Y-14695501D01*
X25710000Y-15281410D01*
X25863766Y-15234766D01*
X26046166Y-15137271D01*
X26046173Y-15137267D01*
X26206055Y-15006055D01*
X26337267Y-14846173D01*
X26337271Y-14846166D01*
X26434766Y-14663766D01*
X26481410Y-14510000D01*
X25893686Y-14510000D01*
X25919493Y-14469844D01*
X25960000Y-14331889D01*
X25960000Y-14188111D01*
X25919493Y-14050156D01*
X25893686Y-14010000D01*
X26481410Y-14010000D01*
X26434766Y-13856233D01*
X26337271Y-13673833D01*
X26337267Y-13673826D01*
X26206055Y-13513944D01*
X26046173Y-13382732D01*
X26046166Y-13382728D01*
X25863763Y-13285232D01*
X25710000Y-13238587D01*
X25710000Y-13824498D01*
X25602315Y-13775320D01*
X25495763Y-13760000D01*
X25424237Y-13760000D01*
X25317685Y-13775320D01*
X25210000Y-13824498D01*
X25210000Y-13238587D01*
X25056236Y-13285232D01*
X24873833Y-13382728D01*
X24873826Y-13382732D01*
X24713944Y-13513944D01*
X24582732Y-13673826D01*
X24582728Y-13673833D01*
X24485233Y-13856233D01*
X24438590Y-14010000D01*
X25026314Y-14010000D01*
X25000507Y-14050156D01*
X24960000Y-14188111D01*
X24960000Y-14331889D01*
X25000507Y-14469844D01*
X25026314Y-14510000D01*
X24438590Y-14510000D01*
X24147626Y-14510000D01*
X24156207Y-14477977D01*
X24175277Y-14260000D01*
X24156207Y-14042023D01*
X24116609Y-13894240D01*
X24099577Y-13830677D01*
X24099576Y-13830676D01*
X24099575Y-13830670D01*
X24007102Y-13632362D01*
X24007100Y-13632359D01*
X24007099Y-13632357D01*
X23881599Y-13453124D01*
X23811203Y-13382728D01*
X23726877Y-13298402D01*
X23573279Y-13190851D01*
X23547638Y-13172897D01*
X23448484Y-13126661D01*
X23349330Y-13080425D01*
X23349326Y-13080424D01*
X23349322Y-13080422D01*
X23137977Y-13023793D01*
X22920002Y-13004723D01*
X22919998Y-13004723D01*
X22774682Y-13017436D01*
X22702023Y-13023793D01*
X22702020Y-13023793D01*
X22490677Y-13080422D01*
X22490668Y-13080426D01*
X22292361Y-13172898D01*
X22292357Y-13172900D01*
X22113121Y-13298402D01*
X21958402Y-13453121D01*
X21832900Y-13632357D01*
X21832898Y-13632361D01*
X21762382Y-13783583D01*
X21716209Y-13836022D01*
X21649016Y-13855174D01*
X21582135Y-13834958D01*
X21537618Y-13783583D01*
X21486437Y-13673826D01*
X21467102Y-13632362D01*
X21467100Y-13632359D01*
X21467099Y-13632357D01*
X21341599Y-13453124D01*
X21271203Y-13382728D01*
X21186877Y-13298402D01*
X21033279Y-13190851D01*
X21007638Y-13172897D01*
X20908484Y-13126661D01*
X20809330Y-13080425D01*
X20809326Y-13080424D01*
X20809322Y-13080422D01*
X20597977Y-13023793D01*
X20380002Y-13004723D01*
X20379998Y-13004723D01*
X20234682Y-13017436D01*
X20162023Y-13023793D01*
X20162020Y-13023793D01*
X19950677Y-13080422D01*
X19950668Y-13080426D01*
X19752361Y-13172898D01*
X19752357Y-13172900D01*
X19573121Y-13298402D01*
X19418402Y-13453121D01*
X19292900Y-13632357D01*
X19292898Y-13632361D01*
X19200426Y-13830668D01*
X19200422Y-13830677D01*
X19143793Y-14042020D01*
X19143793Y-14042023D01*
X19143024Y-14050811D01*
X19129586Y-14204419D01*
X19124723Y-14260000D01*
X19143793Y-14477977D01*
X19174023Y-14590798D01*
X19183391Y-14625757D01*
X19181728Y-14695607D01*
X19151297Y-14745532D01*
X18778625Y-15118204D01*
X18717302Y-15151689D01*
X18647610Y-15146705D01*
X18591677Y-15104833D01*
X18568696Y-15051294D01*
X18561010Y-15006055D01*
X18527527Y-14808987D01*
X18431121Y-14474356D01*
X18297855Y-14152624D01*
X18129405Y-13847836D01*
X17927888Y-13563824D01*
X17695839Y-13304161D01*
X17436176Y-13072112D01*
X17152164Y-12870595D01*
X16847376Y-12702145D01*
X16828598Y-12694367D01*
X16721487Y-12650000D01*
X16525644Y-12568879D01*
X16217539Y-12480115D01*
X16191017Y-12472474D01*
X16191009Y-12472472D01*
X15847700Y-12414142D01*
X15847688Y-12414140D01*
X15500000Y-12394615D01*
X15152311Y-12414140D01*
X15152299Y-12414142D01*
X14808990Y-12472472D01*
X14808982Y-12472474D01*
X14477195Y-12568061D01*
X14474356Y-12568879D01*
X14382025Y-12607124D01*
X14152625Y-12702144D01*
X13847835Y-12870595D01*
X13675402Y-12992943D01*
X13563824Y-13072112D01*
X13304161Y-13304161D01*
X13072112Y-13563824D01*
X13023482Y-13632362D01*
X12870595Y-13847835D01*
X12702144Y-14152625D01*
X12568878Y-14474359D01*
X12472474Y-14808982D01*
X12472472Y-14808990D01*
X12414142Y-15152299D01*
X12414140Y-15152311D01*
X12394615Y-15500000D01*
X12414140Y-15847688D01*
X12414142Y-15847700D01*
X12472314Y-16190081D01*
X12472473Y-16191013D01*
X12568879Y-16525644D01*
X12702145Y-16847376D01*
X12870595Y-17152164D01*
X13072112Y-17436176D01*
X13304161Y-17695839D01*
X13563824Y-17927888D01*
X13847836Y-18129405D01*
X14152624Y-18297855D01*
X14474356Y-18431121D01*
X14808987Y-18527527D01*
X15152307Y-18585859D01*
X15500000Y-18605385D01*
X15847693Y-18585859D01*
X16191013Y-18527527D01*
X16485220Y-18442767D01*
X16555087Y-18443123D01*
X16613672Y-18481197D01*
X16642372Y-18544900D01*
X16632076Y-18614007D01*
X16607227Y-18649602D01*
X12336270Y-22920559D01*
X12333227Y-22923500D01*
X12288532Y-22965243D01*
X12288531Y-22965244D01*
X12268302Y-22998508D01*
X12261161Y-23009000D01*
X12237639Y-23040019D01*
X12233479Y-23047418D01*
X12230869Y-23045950D01*
X12196933Y-23089553D01*
X12131022Y-23112736D01*
X12063040Y-23096605D01*
X12014571Y-23046281D01*
X12000500Y-22988908D01*
X12000500Y-15003245D01*
X12000670Y-14996756D01*
X12004019Y-14932853D01*
X12007501Y-14866421D01*
X12017628Y-14686087D01*
X12018954Y-14673694D01*
X12042513Y-14524947D01*
X12042700Y-14523809D01*
X12069739Y-14364666D01*
X12072199Y-14353402D01*
X12112150Y-14204305D01*
X12112709Y-14202293D01*
X12156351Y-14050811D01*
X12159724Y-14040753D01*
X12215583Y-13895233D01*
X12216692Y-13892452D01*
X12276439Y-13748212D01*
X12280488Y-13739429D01*
X12351569Y-13599925D01*
X12353521Y-13596250D01*
X12428588Y-13460426D01*
X12433065Y-13452962D01*
X12518633Y-13321199D01*
X12521434Y-13317077D01*
X12611010Y-13190832D01*
X12615733Y-13184603D01*
X12714702Y-13062386D01*
X12718532Y-13057885D01*
X12821613Y-12942537D01*
X12826323Y-12937556D01*
X12937556Y-12826323D01*
X12942537Y-12821613D01*
X13057885Y-12718532D01*
X13062386Y-12714702D01*
X13184603Y-12615733D01*
X13190832Y-12611010D01*
X13317077Y-12521434D01*
X13321199Y-12518633D01*
X13452962Y-12433065D01*
X13460426Y-12428588D01*
X13596255Y-12353517D01*
X13599934Y-12351565D01*
X13739429Y-12280488D01*
X13748212Y-12276439D01*
X13892452Y-12216692D01*
X13895233Y-12215583D01*
X14040753Y-12159724D01*
X14050811Y-12156351D01*
X14202293Y-12112709D01*
X14204305Y-12112150D01*
X14353402Y-12072199D01*
X14364666Y-12069739D01*
X14523809Y-12042700D01*
X14524947Y-12042513D01*
X14673694Y-12018954D01*
X14686087Y-12017628D01*
X14866554Y-12007493D01*
X14996756Y-12000669D01*
X15003245Y-12000500D01*
X73996755Y-12000500D01*
X74003243Y-12000669D01*
G37*
%TD.AperFunction*%
%TA.AperFunction,Conductor*%
G36*
X26330703Y-59674318D02*
G01*
X26337166Y-59680336D01*
X28120125Y-61463294D01*
X29920544Y-63263713D01*
X29923485Y-63266756D01*
X29942033Y-63286615D01*
X29965245Y-63311469D01*
X29998507Y-63331696D01*
X30008994Y-63338833D01*
X30040025Y-63362365D01*
X30055525Y-63368477D01*
X30074453Y-63377879D01*
X30088672Y-63386526D01*
X30126152Y-63397027D01*
X30138179Y-63401072D01*
X30174411Y-63415360D01*
X30179314Y-63415864D01*
X30190975Y-63417063D01*
X30211749Y-63421011D01*
X30222953Y-63424150D01*
X30227772Y-63425500D01*
X30266694Y-63425500D01*
X30279373Y-63426150D01*
X30284585Y-63426685D01*
X30318110Y-63430132D01*
X30328068Y-63428415D01*
X30334519Y-63427303D01*
X30355587Y-63425500D01*
X47569361Y-63425500D01*
X47636400Y-63445185D01*
X47682155Y-63497989D01*
X47692099Y-63567147D01*
X47663074Y-63630703D01*
X47621766Y-63661882D01*
X47512361Y-63712898D01*
X47512357Y-63712900D01*
X47333121Y-63838402D01*
X47178402Y-63993121D01*
X47052900Y-64172357D01*
X47052898Y-64172361D01*
X46960426Y-64370668D01*
X46960422Y-64370677D01*
X46903793Y-64582020D01*
X46903793Y-64582023D01*
X46898644Y-64640873D01*
X46897528Y-64653634D01*
X46872076Y-64718703D01*
X46815485Y-64759682D01*
X46745723Y-64763560D01*
X46684939Y-64729106D01*
X46652431Y-64667259D01*
X46650000Y-64642827D01*
X46650000Y-63930301D01*
X46649999Y-63930297D01*
X46638397Y-63871966D01*
X46638396Y-63871965D01*
X46594191Y-63805808D01*
X46528034Y-63761603D01*
X46528033Y-63761602D01*
X46469702Y-63750000D01*
X45850000Y-63750000D01*
X45850000Y-64364498D01*
X45742315Y-64315320D01*
X45635763Y-64300000D01*
X45564237Y-64300000D01*
X45457685Y-64315320D01*
X45350000Y-64364498D01*
X45350000Y-63750000D01*
X44730297Y-63750000D01*
X44671966Y-63761602D01*
X44671965Y-63761603D01*
X44605808Y-63805808D01*
X44561603Y-63871965D01*
X44561602Y-63871966D01*
X44550000Y-63930297D01*
X44550000Y-64550000D01*
X45166314Y-64550000D01*
X45140507Y-64590156D01*
X45100000Y-64728111D01*
X45100000Y-64871889D01*
X45140507Y-65009844D01*
X45166314Y-65050000D01*
X44550000Y-65050000D01*
X44550000Y-65669702D01*
X44561602Y-65728033D01*
X44561603Y-65728034D01*
X44605808Y-65794191D01*
X44682119Y-65845181D01*
X44680503Y-65847599D01*
X44720438Y-65879782D01*
X44742501Y-65946077D01*
X44725220Y-66013776D01*
X44674082Y-66061385D01*
X44618580Y-66074500D01*
X32169031Y-66074500D01*
X32101992Y-66054815D01*
X32081350Y-66038181D01*
X26161819Y-60118650D01*
X26128334Y-60057327D01*
X26125500Y-60030969D01*
X26125500Y-59768031D01*
X26145185Y-59700992D01*
X26197989Y-59655237D01*
X26267147Y-59645293D01*
X26330703Y-59674318D01*
G37*
%TD.AperFunction*%
%TA.AperFunction,Conductor*%
G36*
X29130703Y-53374318D02*
G01*
X29137166Y-53380336D01*
X31718851Y-55962020D01*
X34338181Y-58581350D01*
X34371666Y-58642673D01*
X34374500Y-58669031D01*
X34374500Y-58842060D01*
X34354815Y-58909099D01*
X34338181Y-58929741D01*
X34270184Y-58997737D01*
X34174211Y-59150476D01*
X34114631Y-59320745D01*
X34114630Y-59320750D01*
X34094435Y-59499996D01*
X34094435Y-59500003D01*
X34114630Y-59679249D01*
X34114631Y-59679254D01*
X34174211Y-59849523D01*
X34226715Y-59933082D01*
X34270184Y-60002262D01*
X34397738Y-60129816D01*
X34488080Y-60186582D01*
X34518662Y-60205798D01*
X34550478Y-60225789D01*
X34719288Y-60284858D01*
X34720745Y-60285368D01*
X34720750Y-60285369D01*
X34899996Y-60305565D01*
X34900000Y-60305565D01*
X34900004Y-60305565D01*
X35079249Y-60285369D01*
X35079252Y-60285368D01*
X35079255Y-60285368D01*
X35079256Y-60285367D01*
X35079259Y-60285367D01*
X35114312Y-60273100D01*
X35169780Y-60253691D01*
X35239557Y-60250129D01*
X35300185Y-60284858D01*
X35332412Y-60346851D01*
X35326008Y-60416426D01*
X35298416Y-60458414D01*
X35219962Y-60536869D01*
X34993648Y-60763182D01*
X34932327Y-60796666D01*
X34905969Y-60799500D01*
X30994031Y-60799500D01*
X30926992Y-60779815D01*
X30906350Y-60763181D01*
X28961819Y-58818650D01*
X28928334Y-58757327D01*
X28925500Y-58730969D01*
X28925500Y-53468031D01*
X28945185Y-53400992D01*
X28997989Y-53355237D01*
X29067147Y-53345293D01*
X29130703Y-53374318D01*
G37*
%TD.AperFunction*%
%TA.AperFunction,Conductor*%
G36*
X52197865Y-14685041D02*
G01*
X52242381Y-14736414D01*
X52312898Y-14887639D01*
X52438402Y-15066877D01*
X52593123Y-15221598D01*
X52748030Y-15330065D01*
X52772361Y-15347102D01*
X52923583Y-15417618D01*
X52976022Y-15463790D01*
X52995174Y-15530984D01*
X52974958Y-15597865D01*
X52923583Y-15642382D01*
X52772361Y-15712898D01*
X52772357Y-15712900D01*
X52593121Y-15838402D01*
X52438402Y-15993121D01*
X52312900Y-16172357D01*
X52312898Y-16172361D01*
X52220426Y-16370668D01*
X52220422Y-16370677D01*
X52163793Y-16582020D01*
X52163793Y-16582023D01*
X52159025Y-16636517D01*
X52144723Y-16799997D01*
X52144723Y-16800002D01*
X52148868Y-16847376D01*
X52163081Y-17009844D01*
X52163793Y-17017975D01*
X52163793Y-17017979D01*
X52220422Y-17229322D01*
X52220424Y-17229326D01*
X52220425Y-17229330D01*
X52222675Y-17234155D01*
X52312897Y-17427638D01*
X52320257Y-17438149D01*
X52438402Y-17606877D01*
X52593123Y-17761598D01*
X52772361Y-17887102D01*
X52970670Y-17979575D01*
X52970676Y-17979576D01*
X52970677Y-17979577D01*
X52973965Y-17980458D01*
X53182023Y-18036207D01*
X53364926Y-18052208D01*
X53399998Y-18055277D01*
X53400000Y-18055277D01*
X53400002Y-18055277D01*
X53428254Y-18052805D01*
X53617977Y-18036207D01*
X53829330Y-17979575D01*
X54027639Y-17887102D01*
X54206877Y-17761598D01*
X54361598Y-17606877D01*
X54487102Y-17427639D01*
X54557618Y-17276414D01*
X54603790Y-17223977D01*
X54670984Y-17204825D01*
X54737865Y-17225041D01*
X54782381Y-17276414D01*
X54852898Y-17427639D01*
X54978402Y-17606877D01*
X55133123Y-17761598D01*
X55312361Y-17887102D01*
X55510670Y-17979575D01*
X55510676Y-17979576D01*
X55510677Y-17979577D01*
X55513965Y-17980458D01*
X55722023Y-18036207D01*
X55904926Y-18052208D01*
X55939998Y-18055277D01*
X55940000Y-18055277D01*
X55940002Y-18055277D01*
X55968254Y-18052805D01*
X56157977Y-18036207D01*
X56305761Y-17996608D01*
X56375608Y-17998271D01*
X56425533Y-18028702D01*
X59538181Y-21141350D01*
X59571666Y-21202673D01*
X59574500Y-21229031D01*
X59574500Y-51430968D01*
X59554815Y-51498007D01*
X59538181Y-51518649D01*
X55778049Y-55278780D01*
X55716726Y-55312265D01*
X55676485Y-55314319D01*
X55500004Y-55294435D01*
X55499996Y-55294435D01*
X55320750Y-55314630D01*
X55320745Y-55314631D01*
X55150476Y-55374211D01*
X54997737Y-55470184D01*
X54870184Y-55597737D01*
X54774211Y-55750476D01*
X54714631Y-55920745D01*
X54714630Y-55920750D01*
X54694435Y-56099996D01*
X54694435Y-56100003D01*
X54714630Y-56279249D01*
X54714631Y-56279254D01*
X54774211Y-56449523D01*
X54842485Y-56558179D01*
X54870184Y-56602262D01*
X54997738Y-56729816D01*
X55150478Y-56825789D01*
X55172043Y-56833335D01*
X55228819Y-56874056D01*
X55254567Y-56939009D01*
X55241111Y-57007571D01*
X55218770Y-57038058D01*
X52318650Y-59938181D01*
X52257327Y-59971666D01*
X52230969Y-59974500D01*
X44757940Y-59974500D01*
X44690901Y-59954815D01*
X44670259Y-59938181D01*
X44602262Y-59870184D01*
X44449523Y-59774211D01*
X44279254Y-59714631D01*
X44279249Y-59714630D01*
X44100004Y-59694435D01*
X44099996Y-59694435D01*
X43920750Y-59714630D01*
X43920745Y-59714631D01*
X43750476Y-59774211D01*
X43597739Y-59870183D01*
X43534840Y-59933082D01*
X43473516Y-59966566D01*
X43403825Y-59961581D01*
X43347891Y-59919710D01*
X43330117Y-59886354D01*
X43313136Y-59837825D01*
X43291324Y-59803111D01*
X43217163Y-59685085D01*
X43144259Y-59612181D01*
X43110774Y-59550858D01*
X43115758Y-59481166D01*
X43157630Y-59425233D01*
X43223094Y-59400816D01*
X43231940Y-59400500D01*
X49542060Y-59400500D01*
X49609099Y-59420185D01*
X49629741Y-59436819D01*
X49697738Y-59504816D01*
X49850478Y-59600789D01*
X50020745Y-59660368D01*
X50020750Y-59660369D01*
X50199996Y-59680565D01*
X50200000Y-59680565D01*
X50200004Y-59680565D01*
X50379249Y-59660369D01*
X50379252Y-59660368D01*
X50379255Y-59660368D01*
X50549522Y-59600789D01*
X50702262Y-59504816D01*
X50829816Y-59377262D01*
X50925789Y-59224522D01*
X50985368Y-59054255D01*
X50990884Y-59005301D01*
X51005565Y-58875003D01*
X51005565Y-58874996D01*
X50985369Y-58695750D01*
X50985368Y-58695745D01*
X50929196Y-58535215D01*
X50925789Y-58525478D01*
X50917913Y-58512944D01*
X50871442Y-58438985D01*
X50829816Y-58372738D01*
X50702262Y-58245184D01*
X50638951Y-58205403D01*
X50549523Y-58149211D01*
X50379254Y-58089631D01*
X50379249Y-58089630D01*
X50200004Y-58069435D01*
X50199996Y-58069435D01*
X50020750Y-58089630D01*
X50020745Y-58089631D01*
X49850476Y-58149211D01*
X49697737Y-58245184D01*
X49629741Y-58313181D01*
X49568418Y-58346666D01*
X49542060Y-58349500D01*
X37636110Y-58349500D01*
X37631877Y-58349428D01*
X37623521Y-58349142D01*
X37570755Y-58347340D01*
X37570754Y-58347340D01*
X37570751Y-58347340D01*
X37532931Y-58356556D01*
X37520463Y-58358926D01*
X37481889Y-58364228D01*
X37466610Y-58370865D01*
X37446576Y-58377602D01*
X37430406Y-58381542D01*
X37396469Y-58400623D01*
X37385104Y-58406267D01*
X37349393Y-58421779D01*
X37336467Y-58432294D01*
X37319002Y-58444180D01*
X37304491Y-58452340D01*
X37276961Y-58479869D01*
X37267539Y-58488371D01*
X37237336Y-58512943D01*
X37237335Y-58512944D01*
X37227728Y-58526554D01*
X37214109Y-58542720D01*
X35858415Y-59898415D01*
X35797092Y-59931900D01*
X35727400Y-59926916D01*
X35671467Y-59885044D01*
X35647050Y-59819580D01*
X35653693Y-59769779D01*
X35685366Y-59679262D01*
X35685369Y-59679249D01*
X35705565Y-59500003D01*
X35705565Y-59499996D01*
X35685369Y-59320750D01*
X35685368Y-59320745D01*
X35625788Y-59150476D01*
X35534568Y-59005301D01*
X35529816Y-58997738D01*
X35461819Y-58929741D01*
X35428334Y-58868418D01*
X35425500Y-58842060D01*
X35425500Y-58411108D01*
X35425572Y-58406875D01*
X35425679Y-58403735D01*
X35427660Y-58345755D01*
X35418443Y-58307934D01*
X35416072Y-58295459D01*
X35410771Y-58256889D01*
X35410770Y-58256887D01*
X35404137Y-58241616D01*
X35397397Y-58221574D01*
X35396599Y-58218301D01*
X35393457Y-58205406D01*
X35393456Y-58205404D01*
X35393456Y-58205403D01*
X35374382Y-58171481D01*
X35368733Y-58160108D01*
X35353219Y-58124392D01*
X35353218Y-58124390D01*
X35342708Y-58111472D01*
X35330813Y-58093994D01*
X35322657Y-58079488D01*
X35295133Y-58051964D01*
X35286627Y-58042539D01*
X35262055Y-58012336D01*
X35262050Y-58012332D01*
X35248450Y-58002732D01*
X35232278Y-57989109D01*
X29926819Y-52683650D01*
X29893334Y-52622327D01*
X29890500Y-52595969D01*
X29890500Y-17850300D01*
X29910185Y-17783261D01*
X29962989Y-17737506D01*
X30032147Y-17727562D01*
X30072953Y-17740942D01*
X30136233Y-17774766D01*
X30290000Y-17821410D01*
X30290000Y-17235501D01*
X30397685Y-17284680D01*
X30504237Y-17300000D01*
X30575763Y-17300000D01*
X30682315Y-17284680D01*
X30790000Y-17235501D01*
X30790000Y-17821410D01*
X30943766Y-17774766D01*
X31126166Y-17677271D01*
X31126167Y-17677270D01*
X31171834Y-17639793D01*
X31236144Y-17612480D01*
X31305012Y-17624271D01*
X31356572Y-17671422D01*
X31374500Y-17735646D01*
X31374500Y-25288890D01*
X31374428Y-25293123D01*
X31372340Y-25354250D01*
X31381556Y-25392068D01*
X31383927Y-25404540D01*
X31389228Y-25443109D01*
X31395864Y-25458387D01*
X31402602Y-25478424D01*
X31406542Y-25494593D01*
X31406543Y-25494594D01*
X31425618Y-25528520D01*
X31431266Y-25539890D01*
X31446782Y-25575612D01*
X31457283Y-25588518D01*
X31469182Y-25606000D01*
X31477342Y-25620512D01*
X31504878Y-25648048D01*
X31513377Y-25657466D01*
X31537943Y-25687662D01*
X31537944Y-25687663D01*
X31537946Y-25687665D01*
X31551544Y-25697264D01*
X31567715Y-25710885D01*
X48318181Y-42461350D01*
X48351666Y-42522673D01*
X48354500Y-42549031D01*
X48354500Y-48246273D01*
X48334815Y-48313312D01*
X48282906Y-48358655D01*
X48252359Y-48372899D01*
X48073121Y-48498402D01*
X47918402Y-48653121D01*
X47792900Y-48832357D01*
X47792898Y-48832361D01*
X47722382Y-48983583D01*
X47676209Y-49036022D01*
X47609016Y-49055174D01*
X47542135Y-49034958D01*
X47497618Y-48983583D01*
X47454351Y-48890798D01*
X47427102Y-48832362D01*
X47427100Y-48832359D01*
X47427099Y-48832357D01*
X47301599Y-48653124D01*
X47226678Y-48578203D01*
X47146877Y-48498402D01*
X46967642Y-48372900D01*
X46967638Y-48372897D01*
X46838072Y-48312480D01*
X46769330Y-48280425D01*
X46769326Y-48280424D01*
X46769322Y-48280422D01*
X46557977Y-48223793D01*
X46340002Y-48204723D01*
X46339998Y-48204723D01*
X46194682Y-48217436D01*
X46122023Y-48223793D01*
X46122020Y-48223793D01*
X45910677Y-48280422D01*
X45910668Y-48280426D01*
X45712361Y-48372898D01*
X45712357Y-48372900D01*
X45533121Y-48498402D01*
X45378402Y-48653121D01*
X45252900Y-48832357D01*
X45252898Y-48832361D01*
X45182382Y-48983583D01*
X45136209Y-49036022D01*
X45069016Y-49055174D01*
X45002135Y-49034958D01*
X44957618Y-48983583D01*
X44914351Y-48890798D01*
X44887102Y-48832362D01*
X44887100Y-48832359D01*
X44887099Y-48832357D01*
X44761599Y-48653124D01*
X44686678Y-48578203D01*
X44606877Y-48498402D01*
X44427642Y-48372900D01*
X44427638Y-48372897D01*
X44298072Y-48312480D01*
X44229330Y-48280425D01*
X44229326Y-48280424D01*
X44229322Y-48280422D01*
X44017977Y-48223793D01*
X43800002Y-48204723D01*
X43799998Y-48204723D01*
X43654682Y-48217436D01*
X43582023Y-48223793D01*
X43582020Y-48223793D01*
X43370677Y-48280422D01*
X43370668Y-48280426D01*
X43172361Y-48372898D01*
X43172357Y-48372900D01*
X42993121Y-48498402D01*
X42838402Y-48653121D01*
X42712900Y-48832357D01*
X42712898Y-48832361D01*
X42642382Y-48983583D01*
X42596209Y-49036022D01*
X42529016Y-49055174D01*
X42462135Y-49034958D01*
X42417618Y-48983583D01*
X42374351Y-48890798D01*
X42347102Y-48832362D01*
X42347100Y-48832359D01*
X42347099Y-48832357D01*
X42221599Y-48653124D01*
X42146678Y-48578203D01*
X42066877Y-48498402D01*
X41887642Y-48372900D01*
X41887638Y-48372897D01*
X41758072Y-48312480D01*
X41689330Y-48280425D01*
X41689326Y-48280424D01*
X41689322Y-48280422D01*
X41477977Y-48223793D01*
X41260002Y-48204723D01*
X41259998Y-48204723D01*
X41114682Y-48217436D01*
X41042023Y-48223793D01*
X41042020Y-48223793D01*
X40830677Y-48280422D01*
X40830668Y-48280426D01*
X40632361Y-48372898D01*
X40632357Y-48372900D01*
X40453121Y-48498402D01*
X40298402Y-48653121D01*
X40172900Y-48832357D01*
X40172898Y-48832361D01*
X40102382Y-48983583D01*
X40056209Y-49036022D01*
X39989016Y-49055174D01*
X39922135Y-49034958D01*
X39877618Y-48983583D01*
X39834351Y-48890798D01*
X39807102Y-48832362D01*
X39807100Y-48832359D01*
X39807099Y-48832357D01*
X39681599Y-48653124D01*
X39606678Y-48578203D01*
X39526877Y-48498402D01*
X39347642Y-48372900D01*
X39347638Y-48372897D01*
X39218072Y-48312480D01*
X39149330Y-48280425D01*
X39149326Y-48280424D01*
X39149322Y-48280422D01*
X38937977Y-48223793D01*
X38720002Y-48204723D01*
X38719998Y-48204723D01*
X38574682Y-48217436D01*
X38502023Y-48223793D01*
X38502020Y-48223793D01*
X38290677Y-48280422D01*
X38290668Y-48280426D01*
X38092361Y-48372898D01*
X38092357Y-48372900D01*
X37913121Y-48498402D01*
X37758402Y-48653121D01*
X37632900Y-48832357D01*
X37632898Y-48832361D01*
X37562382Y-48983583D01*
X37516209Y-49036022D01*
X37449016Y-49055174D01*
X37382135Y-49034958D01*
X37337618Y-48983583D01*
X37294351Y-48890798D01*
X37267102Y-48832362D01*
X37267100Y-48832359D01*
X37267099Y-48832357D01*
X37141599Y-48653124D01*
X37066678Y-48578203D01*
X36986877Y-48498402D01*
X36807642Y-48372900D01*
X36807638Y-48372897D01*
X36678072Y-48312480D01*
X36609330Y-48280425D01*
X36609326Y-48280424D01*
X36609322Y-48280422D01*
X36397977Y-48223793D01*
X36180002Y-48204723D01*
X36179998Y-48204723D01*
X36034682Y-48217436D01*
X35962023Y-48223793D01*
X35962020Y-48223793D01*
X35750677Y-48280422D01*
X35750668Y-48280426D01*
X35552361Y-48372898D01*
X35552357Y-48372900D01*
X35373121Y-48498402D01*
X35218402Y-48653121D01*
X35092900Y-48832357D01*
X35092898Y-48832361D01*
X35022382Y-48983583D01*
X34976209Y-49036022D01*
X34909016Y-49055174D01*
X34842135Y-49034958D01*
X34797618Y-48983583D01*
X34754351Y-48890798D01*
X34727102Y-48832362D01*
X34727100Y-48832359D01*
X34727099Y-48832357D01*
X34601599Y-48653124D01*
X34526678Y-48578203D01*
X34446877Y-48498402D01*
X34267642Y-48372900D01*
X34267638Y-48372897D01*
X34138072Y-48312480D01*
X34069330Y-48280425D01*
X34069326Y-48280424D01*
X34069322Y-48280422D01*
X33857977Y-48223793D01*
X33640002Y-48204723D01*
X33639998Y-48204723D01*
X33494682Y-48217436D01*
X33422023Y-48223793D01*
X33422020Y-48223793D01*
X33210677Y-48280422D01*
X33210668Y-48280426D01*
X33012361Y-48372898D01*
X33012357Y-48372900D01*
X32833121Y-48498402D01*
X32678402Y-48653121D01*
X32552900Y-48832357D01*
X32552898Y-48832361D01*
X32460426Y-49030668D01*
X32460422Y-49030677D01*
X32403793Y-49242020D01*
X32403793Y-49242024D01*
X32384723Y-49459997D01*
X32384723Y-49460002D01*
X32403793Y-49677975D01*
X32403793Y-49677979D01*
X32460422Y-49889322D01*
X32460424Y-49889326D01*
X32460425Y-49889330D01*
X32482382Y-49936416D01*
X32552897Y-50087638D01*
X32552898Y-50087639D01*
X32678402Y-50266877D01*
X32833123Y-50421598D01*
X33012361Y-50547102D01*
X33210670Y-50639575D01*
X33422023Y-50696207D01*
X33493635Y-50702472D01*
X33558704Y-50727924D01*
X33599683Y-50784515D01*
X33603561Y-50854277D01*
X33569107Y-50915061D01*
X33507260Y-50947569D01*
X33482828Y-50950000D01*
X32770297Y-50950000D01*
X32711966Y-50961602D01*
X32711965Y-50961603D01*
X32645808Y-51005808D01*
X32601603Y-51071965D01*
X32601602Y-51071966D01*
X32590000Y-51130297D01*
X32590000Y-51750000D01*
X33206314Y-51750000D01*
X33180507Y-51790156D01*
X33140000Y-51928111D01*
X33140000Y-52071889D01*
X33180507Y-52209844D01*
X33206314Y-52250000D01*
X32590000Y-52250000D01*
X32590000Y-52869702D01*
X32601602Y-52928033D01*
X32601603Y-52928034D01*
X32645808Y-52994191D01*
X32711965Y-53038396D01*
X32711966Y-53038397D01*
X32770297Y-53049999D01*
X32770301Y-53050000D01*
X33390000Y-53050000D01*
X33390000Y-52435501D01*
X33497685Y-52484680D01*
X33604237Y-52500000D01*
X33675763Y-52500000D01*
X33782315Y-52484680D01*
X33890000Y-52435501D01*
X33890000Y-53050000D01*
X34509699Y-53050000D01*
X34509702Y-53049999D01*
X34568033Y-53038397D01*
X34568034Y-53038396D01*
X34634191Y-52994191D01*
X34678396Y-52928034D01*
X34678397Y-52928033D01*
X34689999Y-52869702D01*
X34690000Y-52869699D01*
X34690000Y-52250000D01*
X35158590Y-52250000D01*
X35205233Y-52403766D01*
X35302728Y-52586166D01*
X35302732Y-52586173D01*
X35433944Y-52746055D01*
X35593826Y-52877267D01*
X35593833Y-52877271D01*
X35776233Y-52974766D01*
X35930000Y-53021410D01*
X35930000Y-52435501D01*
X36037685Y-52484680D01*
X36144237Y-52500000D01*
X36215763Y-52500000D01*
X36322315Y-52484680D01*
X36430000Y-52435501D01*
X36430000Y-53021410D01*
X36583766Y-52974766D01*
X36766166Y-52877271D01*
X36766173Y-52877267D01*
X36926055Y-52746055D01*
X37057267Y-52586173D01*
X37057271Y-52586166D01*
X37154766Y-52403766D01*
X37201410Y-52250000D01*
X37698590Y-52250000D01*
X37745233Y-52403766D01*
X37842728Y-52586166D01*
X37842732Y-52586173D01*
X37973944Y-52746055D01*
X38133826Y-52877267D01*
X38133833Y-52877271D01*
X38316233Y-52974766D01*
X38470000Y-53021410D01*
X38470000Y-52435501D01*
X38577685Y-52484680D01*
X38684237Y-52500000D01*
X38755763Y-52500000D01*
X38862315Y-52484680D01*
X38970000Y-52435501D01*
X38970000Y-53021410D01*
X39123766Y-52974766D01*
X39306166Y-52877271D01*
X39306173Y-52877267D01*
X39466055Y-52746055D01*
X39597267Y-52586173D01*
X39597271Y-52586166D01*
X39694766Y-52403766D01*
X39741410Y-52250000D01*
X40238590Y-52250000D01*
X40285233Y-52403766D01*
X40382728Y-52586166D01*
X40382732Y-52586173D01*
X40513944Y-52746055D01*
X40673826Y-52877267D01*
X40673833Y-52877271D01*
X40856233Y-52974766D01*
X41010000Y-53021410D01*
X41010000Y-52435501D01*
X41117685Y-52484680D01*
X41224237Y-52500000D01*
X41295763Y-52500000D01*
X41402315Y-52484680D01*
X41510000Y-52435501D01*
X41510000Y-53021410D01*
X41663766Y-52974766D01*
X41846166Y-52877271D01*
X41846173Y-52877267D01*
X42006055Y-52746055D01*
X42137267Y-52586173D01*
X42137271Y-52586166D01*
X42234766Y-52403766D01*
X42281410Y-52250000D01*
X42778590Y-52250000D01*
X42825233Y-52403766D01*
X42922728Y-52586166D01*
X42922732Y-52586173D01*
X43053944Y-52746055D01*
X43213826Y-52877267D01*
X43213833Y-52877271D01*
X43396233Y-52974766D01*
X43550000Y-53021410D01*
X43550000Y-52435501D01*
X43657685Y-52484680D01*
X43764237Y-52500000D01*
X43835763Y-52500000D01*
X43942315Y-52484680D01*
X44050000Y-52435501D01*
X44050000Y-53021410D01*
X44203766Y-52974766D01*
X44386166Y-52877271D01*
X44386173Y-52877267D01*
X44546055Y-52746055D01*
X44677267Y-52586173D01*
X44677271Y-52586166D01*
X44774766Y-52403766D01*
X44821410Y-52250000D01*
X45318590Y-52250000D01*
X45365233Y-52403766D01*
X45462728Y-52586166D01*
X45462732Y-52586173D01*
X45593944Y-52746055D01*
X45753826Y-52877267D01*
X45753833Y-52877271D01*
X45936233Y-52974766D01*
X46090000Y-53021410D01*
X46090000Y-52435501D01*
X46197685Y-52484680D01*
X46304237Y-52500000D01*
X46375763Y-52500000D01*
X46482315Y-52484680D01*
X46590000Y-52435501D01*
X46590000Y-53021410D01*
X46743766Y-52974766D01*
X46926166Y-52877271D01*
X46926173Y-52877267D01*
X47086055Y-52746055D01*
X47217267Y-52586173D01*
X47217271Y-52586166D01*
X47314766Y-52403766D01*
X47361410Y-52250000D01*
X47858590Y-52250000D01*
X47905233Y-52403766D01*
X48002728Y-52586166D01*
X48002732Y-52586173D01*
X48133944Y-52746055D01*
X48293826Y-52877267D01*
X48293833Y-52877271D01*
X48476233Y-52974766D01*
X48630000Y-53021410D01*
X48630000Y-52435501D01*
X48737685Y-52484680D01*
X48844237Y-52500000D01*
X48915763Y-52500000D01*
X49022315Y-52484680D01*
X49130000Y-52435501D01*
X49130000Y-53021410D01*
X49283766Y-52974766D01*
X49466166Y-52877271D01*
X49466173Y-52877267D01*
X49626055Y-52746055D01*
X49757267Y-52586173D01*
X49757271Y-52586166D01*
X49854766Y-52403766D01*
X49901410Y-52250000D01*
X50398590Y-52250000D01*
X50445233Y-52403766D01*
X50542728Y-52586166D01*
X50542732Y-52586173D01*
X50673944Y-52746055D01*
X50833826Y-52877267D01*
X50833833Y-52877271D01*
X51016233Y-52974766D01*
X51170000Y-53021410D01*
X51170000Y-52435501D01*
X51277685Y-52484680D01*
X51384237Y-52500000D01*
X51455763Y-52500000D01*
X51562315Y-52484680D01*
X51670000Y-52435501D01*
X51670000Y-53021410D01*
X51823766Y-52974766D01*
X52006166Y-52877271D01*
X52006173Y-52877267D01*
X52166055Y-52746055D01*
X52297267Y-52586173D01*
X52297271Y-52586166D01*
X52394766Y-52403766D01*
X52441410Y-52250000D01*
X52938590Y-52250000D01*
X52985233Y-52403766D01*
X53082728Y-52586166D01*
X53082732Y-52586173D01*
X53213944Y-52746055D01*
X53373826Y-52877267D01*
X53373833Y-52877271D01*
X53556233Y-52974766D01*
X53710000Y-53021410D01*
X53710000Y-52435501D01*
X53817685Y-52484680D01*
X53924237Y-52500000D01*
X53995763Y-52500000D01*
X54102315Y-52484680D01*
X54210000Y-52435501D01*
X54210000Y-53021410D01*
X54363766Y-52974766D01*
X54546166Y-52877271D01*
X54546173Y-52877267D01*
X54706055Y-52746055D01*
X54837267Y-52586173D01*
X54837271Y-52586166D01*
X54934766Y-52403766D01*
X54981410Y-52250000D01*
X55478590Y-52250000D01*
X55525233Y-52403766D01*
X55622728Y-52586166D01*
X55622732Y-52586173D01*
X55753944Y-52746055D01*
X55913826Y-52877267D01*
X55913833Y-52877271D01*
X56096233Y-52974766D01*
X56250000Y-53021410D01*
X56250000Y-52435501D01*
X56357685Y-52484680D01*
X56464237Y-52500000D01*
X56535763Y-52500000D01*
X56642315Y-52484680D01*
X56750000Y-52435501D01*
X56750000Y-53021410D01*
X56903766Y-52974766D01*
X57086166Y-52877271D01*
X57086173Y-52877267D01*
X57246055Y-52746055D01*
X57377267Y-52586173D01*
X57377271Y-52586166D01*
X57474766Y-52403766D01*
X57521410Y-52250000D01*
X56933686Y-52250000D01*
X56959493Y-52209844D01*
X57000000Y-52071889D01*
X57000000Y-51928111D01*
X56959493Y-51790156D01*
X56933686Y-51750000D01*
X57521410Y-51750000D01*
X57474766Y-51596233D01*
X57377271Y-51413833D01*
X57377267Y-51413826D01*
X57246055Y-51253944D01*
X57086173Y-51122732D01*
X57086166Y-51122728D01*
X56903763Y-51025232D01*
X56750000Y-50978587D01*
X56750000Y-51564498D01*
X56642315Y-51515320D01*
X56535763Y-51500000D01*
X56464237Y-51500000D01*
X56357685Y-51515320D01*
X56250000Y-51564498D01*
X56250000Y-50978587D01*
X56096236Y-51025232D01*
X55913833Y-51122728D01*
X55913826Y-51122732D01*
X55753944Y-51253944D01*
X55622732Y-51413826D01*
X55622728Y-51413833D01*
X55525233Y-51596233D01*
X55478590Y-51750000D01*
X56066314Y-51750000D01*
X56040507Y-51790156D01*
X56000000Y-51928111D01*
X56000000Y-52071889D01*
X56040507Y-52209844D01*
X56066314Y-52250000D01*
X55478590Y-52250000D01*
X54981410Y-52250000D01*
X54393686Y-52250000D01*
X54419493Y-52209844D01*
X54460000Y-52071889D01*
X54460000Y-51928111D01*
X54419493Y-51790156D01*
X54393686Y-51750000D01*
X54981410Y-51750000D01*
X54934766Y-51596233D01*
X54837271Y-51413833D01*
X54837267Y-51413826D01*
X54706055Y-51253944D01*
X54546173Y-51122732D01*
X54546166Y-51122728D01*
X54363763Y-51025232D01*
X54210000Y-50978587D01*
X54210000Y-51564498D01*
X54102315Y-51515320D01*
X53995763Y-51500000D01*
X53924237Y-51500000D01*
X53817685Y-51515320D01*
X53710000Y-51564498D01*
X53710000Y-50978587D01*
X53556236Y-51025232D01*
X53373833Y-51122728D01*
X53373826Y-51122732D01*
X53213944Y-51253944D01*
X53082732Y-51413826D01*
X53082728Y-51413833D01*
X52985233Y-51596233D01*
X52938590Y-51750000D01*
X53526314Y-51750000D01*
X53500507Y-51790156D01*
X53460000Y-51928111D01*
X53460000Y-52071889D01*
X53500507Y-52209844D01*
X53526314Y-52250000D01*
X52938590Y-52250000D01*
X52441410Y-52250000D01*
X51853686Y-52250000D01*
X51879493Y-52209844D01*
X51920000Y-52071889D01*
X51920000Y-51928111D01*
X51879493Y-51790156D01*
X51853686Y-51750000D01*
X52441410Y-51750000D01*
X52394766Y-51596233D01*
X52297271Y-51413833D01*
X52297267Y-51413826D01*
X52166055Y-51253944D01*
X52006173Y-51122732D01*
X52006166Y-51122728D01*
X51823763Y-51025232D01*
X51670000Y-50978587D01*
X51670000Y-51564498D01*
X51562315Y-51515320D01*
X51455763Y-51500000D01*
X51384237Y-51500000D01*
X51277685Y-51515320D01*
X51170000Y-51564498D01*
X51170000Y-50978587D01*
X51016236Y-51025232D01*
X50833833Y-51122728D01*
X50833826Y-51122732D01*
X50673944Y-51253944D01*
X50542732Y-51413826D01*
X50542728Y-51413833D01*
X50445233Y-51596233D01*
X50398590Y-51750000D01*
X50986314Y-51750000D01*
X50960507Y-51790156D01*
X50920000Y-51928111D01*
X50920000Y-52071889D01*
X50960507Y-52209844D01*
X50986314Y-52250000D01*
X50398590Y-52250000D01*
X49901410Y-52250000D01*
X49313686Y-52250000D01*
X49339493Y-52209844D01*
X49380000Y-52071889D01*
X49380000Y-51928111D01*
X49339493Y-51790156D01*
X49313686Y-51750000D01*
X49901410Y-51750000D01*
X49854766Y-51596233D01*
X49757271Y-51413833D01*
X49757267Y-51413826D01*
X49626055Y-51253944D01*
X49466173Y-51122732D01*
X49466166Y-51122728D01*
X49283763Y-51025232D01*
X49130000Y-50978587D01*
X49130000Y-51564498D01*
X49022315Y-51515320D01*
X48915763Y-51500000D01*
X48844237Y-51500000D01*
X48737685Y-51515320D01*
X48630000Y-51564498D01*
X48630000Y-50978587D01*
X48476236Y-51025232D01*
X48293833Y-51122728D01*
X48293826Y-51122732D01*
X48133944Y-51253944D01*
X48002732Y-51413826D01*
X48002728Y-51413833D01*
X47905233Y-51596233D01*
X47858590Y-51750000D01*
X48446314Y-51750000D01*
X48420507Y-51790156D01*
X48380000Y-51928111D01*
X48380000Y-52071889D01*
X48420507Y-52209844D01*
X48446314Y-52250000D01*
X47858590Y-52250000D01*
X47361410Y-52250000D01*
X46773686Y-52250000D01*
X46799493Y-52209844D01*
X46840000Y-52071889D01*
X46840000Y-51928111D01*
X46799493Y-51790156D01*
X46773686Y-51750000D01*
X47361410Y-51750000D01*
X47314766Y-51596233D01*
X47217271Y-51413833D01*
X47217267Y-51413826D01*
X47086055Y-51253944D01*
X46926173Y-51122732D01*
X46926166Y-51122728D01*
X46743763Y-51025232D01*
X46590000Y-50978587D01*
X46590000Y-51564498D01*
X46482315Y-51515320D01*
X46375763Y-51500000D01*
X46304237Y-51500000D01*
X46197685Y-51515320D01*
X46090000Y-51564498D01*
X46090000Y-50978587D01*
X45936236Y-51025232D01*
X45753833Y-51122728D01*
X45753826Y-51122732D01*
X45593944Y-51253944D01*
X45462732Y-51413826D01*
X45462728Y-51413833D01*
X45365233Y-51596233D01*
X45318590Y-51750000D01*
X45906314Y-51750000D01*
X45880507Y-51790156D01*
X45840000Y-51928111D01*
X45840000Y-52071889D01*
X45880507Y-52209844D01*
X45906314Y-52250000D01*
X45318590Y-52250000D01*
X44821410Y-52250000D01*
X44233686Y-52250000D01*
X44259493Y-52209844D01*
X44300000Y-52071889D01*
X44300000Y-51928111D01*
X44259493Y-51790156D01*
X44233686Y-51750000D01*
X44821410Y-51750000D01*
X44774766Y-51596233D01*
X44677271Y-51413833D01*
X44677267Y-51413826D01*
X44546055Y-51253944D01*
X44386173Y-51122732D01*
X44386166Y-51122728D01*
X44203763Y-51025232D01*
X44050000Y-50978587D01*
X44050000Y-51564498D01*
X43942315Y-51515320D01*
X43835763Y-51500000D01*
X43764237Y-51500000D01*
X43657685Y-51515320D01*
X43550000Y-51564498D01*
X43550000Y-50978587D01*
X43396236Y-51025232D01*
X43213833Y-51122728D01*
X43213826Y-51122732D01*
X43053944Y-51253944D01*
X42922732Y-51413826D01*
X42922728Y-51413833D01*
X42825233Y-51596233D01*
X42778590Y-51750000D01*
X43366314Y-51750000D01*
X43340507Y-51790156D01*
X43300000Y-51928111D01*
X43300000Y-52071889D01*
X43340507Y-52209844D01*
X43366314Y-52250000D01*
X42778590Y-52250000D01*
X42281410Y-52250000D01*
X41693686Y-52250000D01*
X41719493Y-52209844D01*
X41760000Y-52071889D01*
X41760000Y-51928111D01*
X41719493Y-51790156D01*
X41693686Y-51750000D01*
X42281410Y-51750000D01*
X42234766Y-51596233D01*
X42137271Y-51413833D01*
X42137267Y-51413826D01*
X42006055Y-51253944D01*
X41846173Y-51122732D01*
X41846166Y-51122728D01*
X41663763Y-51025232D01*
X41510000Y-50978587D01*
X41510000Y-51564498D01*
X41402315Y-51515320D01*
X41295763Y-51500000D01*
X41224237Y-51500000D01*
X41117685Y-51515320D01*
X41010000Y-51564498D01*
X41010000Y-50978587D01*
X40856236Y-51025232D01*
X40673833Y-51122728D01*
X40673826Y-51122732D01*
X40513944Y-51253944D01*
X40382732Y-51413826D01*
X40382728Y-51413833D01*
X40285233Y-51596233D01*
X40238590Y-51750000D01*
X40826314Y-51750000D01*
X40800507Y-51790156D01*
X40760000Y-51928111D01*
X40760000Y-52071889D01*
X40800507Y-52209844D01*
X40826314Y-52250000D01*
X40238590Y-52250000D01*
X39741410Y-52250000D01*
X39153686Y-52250000D01*
X39179493Y-52209844D01*
X39220000Y-52071889D01*
X39220000Y-51928111D01*
X39179493Y-51790156D01*
X39153686Y-51750000D01*
X39741410Y-51750000D01*
X39694766Y-51596233D01*
X39597271Y-51413833D01*
X39597267Y-51413826D01*
X39466055Y-51253944D01*
X39306173Y-51122732D01*
X39306166Y-51122728D01*
X39123763Y-51025232D01*
X38970000Y-50978587D01*
X38970000Y-51564498D01*
X38862315Y-51515320D01*
X38755763Y-51500000D01*
X38684237Y-51500000D01*
X38577685Y-51515320D01*
X38470000Y-51564498D01*
X38470000Y-50978587D01*
X38316236Y-51025232D01*
X38133833Y-51122728D01*
X38133826Y-51122732D01*
X37973944Y-51253944D01*
X37842732Y-51413826D01*
X37842728Y-51413833D01*
X37745233Y-51596233D01*
X37698590Y-51750000D01*
X38286314Y-51750000D01*
X38260507Y-51790156D01*
X38220000Y-51928111D01*
X38220000Y-52071889D01*
X38260507Y-52209844D01*
X38286314Y-52250000D01*
X37698590Y-52250000D01*
X37201410Y-52250000D01*
X36613686Y-52250000D01*
X36639493Y-52209844D01*
X36680000Y-52071889D01*
X36680000Y-51928111D01*
X36639493Y-51790156D01*
X36613686Y-51750000D01*
X37201410Y-51750000D01*
X37154766Y-51596233D01*
X37057271Y-51413833D01*
X37057267Y-51413826D01*
X36926055Y-51253944D01*
X36766173Y-51122732D01*
X36766166Y-51122728D01*
X36583763Y-51025232D01*
X36430000Y-50978587D01*
X36430000Y-51564498D01*
X36322315Y-51515320D01*
X36215763Y-51500000D01*
X36144237Y-51500000D01*
X36037685Y-51515320D01*
X35930000Y-51564498D01*
X35930000Y-50978587D01*
X35776236Y-51025232D01*
X35593833Y-51122728D01*
X35593826Y-51122732D01*
X35433944Y-51253944D01*
X35302732Y-51413826D01*
X35302728Y-51413833D01*
X35205233Y-51596233D01*
X35158590Y-51750000D01*
X35746314Y-51750000D01*
X35720507Y-51790156D01*
X35680000Y-51928111D01*
X35680000Y-52071889D01*
X35720507Y-52209844D01*
X35746314Y-52250000D01*
X35158590Y-52250000D01*
X34690000Y-52250000D01*
X34073686Y-52250000D01*
X34099493Y-52209844D01*
X34140000Y-52071889D01*
X34140000Y-51928111D01*
X34099493Y-51790156D01*
X34073686Y-51750000D01*
X34690000Y-51750000D01*
X34690000Y-51130301D01*
X34689999Y-51130297D01*
X34678397Y-51071966D01*
X34678396Y-51071965D01*
X34634191Y-51005808D01*
X34568034Y-50961603D01*
X34568033Y-50961602D01*
X34509702Y-50950000D01*
X33797172Y-50950000D01*
X33730133Y-50930315D01*
X33684378Y-50877511D01*
X33674434Y-50808353D01*
X33703459Y-50744797D01*
X33762237Y-50707023D01*
X33786364Y-50702472D01*
X33857977Y-50696207D01*
X34069330Y-50639575D01*
X34267639Y-50547102D01*
X34446877Y-50421598D01*
X34601598Y-50266877D01*
X34727102Y-50087639D01*
X34797618Y-49936414D01*
X34843790Y-49883977D01*
X34910984Y-49864825D01*
X34977865Y-49885041D01*
X35022381Y-49936414D01*
X35092898Y-50087639D01*
X35218402Y-50266877D01*
X35373123Y-50421598D01*
X35552361Y-50547102D01*
X35750670Y-50639575D01*
X35962023Y-50696207D01*
X36144926Y-50712208D01*
X36179998Y-50715277D01*
X36180000Y-50715277D01*
X36180002Y-50715277D01*
X36208254Y-50712805D01*
X36397977Y-50696207D01*
X36609330Y-50639575D01*
X36807639Y-50547102D01*
X36986877Y-50421598D01*
X37141598Y-50266877D01*
X37267102Y-50087639D01*
X37337618Y-49936414D01*
X37383790Y-49883977D01*
X37450984Y-49864825D01*
X37517865Y-49885041D01*
X37562381Y-49936414D01*
X37632898Y-50087639D01*
X37758402Y-50266877D01*
X37913123Y-50421598D01*
X38092361Y-50547102D01*
X38290670Y-50639575D01*
X38502023Y-50696207D01*
X38684926Y-50712208D01*
X38719998Y-50715277D01*
X38720000Y-50715277D01*
X38720002Y-50715277D01*
X38748254Y-50712805D01*
X38937977Y-50696207D01*
X39149330Y-50639575D01*
X39347639Y-50547102D01*
X39526877Y-50421598D01*
X39681598Y-50266877D01*
X39807102Y-50087639D01*
X39877618Y-49936414D01*
X39923790Y-49883977D01*
X39990984Y-49864825D01*
X40057865Y-49885041D01*
X40102381Y-49936414D01*
X40172898Y-50087639D01*
X40298402Y-50266877D01*
X40453123Y-50421598D01*
X40632361Y-50547102D01*
X40830670Y-50639575D01*
X41042023Y-50696207D01*
X41224926Y-50712208D01*
X41259998Y-50715277D01*
X41260000Y-50715277D01*
X41260002Y-50715277D01*
X41288254Y-50712805D01*
X41477977Y-50696207D01*
X41689330Y-50639575D01*
X41887639Y-50547102D01*
X42066877Y-50421598D01*
X42221598Y-50266877D01*
X42347102Y-50087639D01*
X42417618Y-49936414D01*
X42463790Y-49883977D01*
X42530984Y-49864825D01*
X42597865Y-49885041D01*
X42642381Y-49936414D01*
X42712898Y-50087639D01*
X42838402Y-50266877D01*
X42993123Y-50421598D01*
X43172361Y-50547102D01*
X43370670Y-50639575D01*
X43582023Y-50696207D01*
X43764926Y-50712208D01*
X43799998Y-50715277D01*
X43800000Y-50715277D01*
X43800002Y-50715277D01*
X43828254Y-50712805D01*
X44017977Y-50696207D01*
X44229330Y-50639575D01*
X44427639Y-50547102D01*
X44606877Y-50421598D01*
X44761598Y-50266877D01*
X44887102Y-50087639D01*
X44957618Y-49936414D01*
X45003790Y-49883977D01*
X45070984Y-49864825D01*
X45137865Y-49885041D01*
X45182381Y-49936414D01*
X45252898Y-50087639D01*
X45378402Y-50266877D01*
X45533123Y-50421598D01*
X45712361Y-50547102D01*
X45910670Y-50639575D01*
X46122023Y-50696207D01*
X46304926Y-50712208D01*
X46339998Y-50715277D01*
X46340000Y-50715277D01*
X46340002Y-50715277D01*
X46368254Y-50712805D01*
X46557977Y-50696207D01*
X46769330Y-50639575D01*
X46967639Y-50547102D01*
X47146877Y-50421598D01*
X47301598Y-50266877D01*
X47427102Y-50087639D01*
X47497618Y-49936414D01*
X47543790Y-49883977D01*
X47610984Y-49864825D01*
X47677865Y-49885041D01*
X47722381Y-49936414D01*
X47792898Y-50087639D01*
X47918402Y-50266877D01*
X48073123Y-50421598D01*
X48252361Y-50547102D01*
X48450670Y-50639575D01*
X48662023Y-50696207D01*
X48844926Y-50712208D01*
X48879998Y-50715277D01*
X48880000Y-50715277D01*
X48880002Y-50715277D01*
X48908254Y-50712805D01*
X49097977Y-50696207D01*
X49309330Y-50639575D01*
X49507639Y-50547102D01*
X49686877Y-50421598D01*
X49841598Y-50266877D01*
X49967102Y-50087639D01*
X50037618Y-49936414D01*
X50083790Y-49883977D01*
X50150984Y-49864825D01*
X50217865Y-49885041D01*
X50262381Y-49936414D01*
X50332898Y-50087639D01*
X50458402Y-50266877D01*
X50613123Y-50421598D01*
X50792361Y-50547102D01*
X50990670Y-50639575D01*
X51202023Y-50696207D01*
X51384926Y-50712208D01*
X51419998Y-50715277D01*
X51420000Y-50715277D01*
X51420002Y-50715277D01*
X51448254Y-50712805D01*
X51637977Y-50696207D01*
X51849330Y-50639575D01*
X52047639Y-50547102D01*
X52226877Y-50421598D01*
X52381598Y-50266877D01*
X52507102Y-50087639D01*
X52577618Y-49936414D01*
X52623790Y-49883977D01*
X52690984Y-49864825D01*
X52757865Y-49885041D01*
X52802381Y-49936414D01*
X52872898Y-50087639D01*
X52998402Y-50266877D01*
X53153123Y-50421598D01*
X53332361Y-50547102D01*
X53530670Y-50639575D01*
X53742023Y-50696207D01*
X53924926Y-50712208D01*
X53959998Y-50715277D01*
X53960000Y-50715277D01*
X53960002Y-50715277D01*
X53988254Y-50712805D01*
X54177977Y-50696207D01*
X54389330Y-50639575D01*
X54587639Y-50547102D01*
X54766877Y-50421598D01*
X54791656Y-50396819D01*
X54852979Y-50363334D01*
X54879337Y-50360500D01*
X55580663Y-50360500D01*
X55647702Y-50380185D01*
X55668344Y-50396819D01*
X55693123Y-50421598D01*
X55872361Y-50547102D01*
X56070670Y-50639575D01*
X56282023Y-50696207D01*
X56464926Y-50712208D01*
X56499998Y-50715277D01*
X56500000Y-50715277D01*
X56500002Y-50715277D01*
X56528254Y-50712805D01*
X56717977Y-50696207D01*
X56929330Y-50639575D01*
X57127639Y-50547102D01*
X57306877Y-50421598D01*
X57461598Y-50266877D01*
X57587102Y-50087639D01*
X57679575Y-49889330D01*
X57736207Y-49677977D01*
X57755277Y-49460000D01*
X57755191Y-49459022D01*
X57747130Y-49366877D01*
X57736207Y-49242023D01*
X57679575Y-49030670D01*
X57587102Y-48832362D01*
X57587100Y-48832359D01*
X57587099Y-48832357D01*
X57461599Y-48653124D01*
X57386678Y-48578203D01*
X57306877Y-48498402D01*
X57127642Y-48372900D01*
X57127638Y-48372897D01*
X56998072Y-48312480D01*
X56929330Y-48280425D01*
X56929326Y-48280424D01*
X56929322Y-48280422D01*
X56717977Y-48223793D01*
X56500002Y-48204723D01*
X56499998Y-48204723D01*
X56354682Y-48217436D01*
X56282023Y-48223793D01*
X56282020Y-48223793D01*
X56070677Y-48280422D01*
X56070668Y-48280426D01*
X55872361Y-48372898D01*
X55872357Y-48372900D01*
X55693121Y-48498402D01*
X55668343Y-48523181D01*
X55607020Y-48556666D01*
X55580662Y-48559500D01*
X54984500Y-48559500D01*
X54917461Y-48539815D01*
X54871706Y-48487011D01*
X54860500Y-48435500D01*
X54860500Y-39440626D01*
X54862027Y-39421225D01*
X54864219Y-39407388D01*
X54860670Y-39339663D01*
X54860500Y-39333174D01*
X54860500Y-39312809D01*
X54860499Y-39312800D01*
X54858371Y-39292552D01*
X54857862Y-39286098D01*
X54854313Y-39218355D01*
X54850685Y-39204814D01*
X54847139Y-39185688D01*
X54845674Y-39171744D01*
X54824710Y-39107227D01*
X54822871Y-39101015D01*
X54805321Y-39035515D01*
X54805320Y-39035514D01*
X54805320Y-39035512D01*
X54798956Y-39023022D01*
X54791511Y-39005050D01*
X54787179Y-38991716D01*
X54787174Y-38991707D01*
X54753265Y-38932975D01*
X54750178Y-38927292D01*
X54719383Y-38866851D01*
X54710557Y-38855952D01*
X54699540Y-38839920D01*
X54692533Y-38827784D01*
X54647145Y-38777375D01*
X54642943Y-38772456D01*
X54630120Y-38756620D01*
X54615697Y-38742197D01*
X54611244Y-38737504D01*
X54565875Y-38687115D01*
X54565869Y-38687110D01*
X54554529Y-38678871D01*
X54539736Y-38666236D01*
X41636819Y-25763319D01*
X41603334Y-25701996D01*
X41600500Y-25675638D01*
X41600500Y-17719337D01*
X41620185Y-17652298D01*
X41636819Y-17631656D01*
X41644204Y-17624271D01*
X41661598Y-17606877D01*
X41787102Y-17427639D01*
X41857618Y-17276414D01*
X41903790Y-17223977D01*
X41970984Y-17204825D01*
X42037865Y-17225041D01*
X42082381Y-17276414D01*
X42152898Y-17427639D01*
X42278402Y-17606877D01*
X42433123Y-17761598D01*
X42612361Y-17887102D01*
X42642905Y-17901344D01*
X42695343Y-17947515D01*
X42714500Y-18013726D01*
X42714500Y-24002059D01*
X42694815Y-24069098D01*
X42678182Y-24089740D01*
X42570183Y-24197739D01*
X42474211Y-24350476D01*
X42414631Y-24520745D01*
X42414630Y-24520750D01*
X42394435Y-24699996D01*
X42394435Y-24700003D01*
X42414630Y-24879249D01*
X42414631Y-24879254D01*
X42474211Y-25049523D01*
X42506424Y-25100789D01*
X42570184Y-25202262D01*
X42697738Y-25329816D01*
X42850478Y-25425789D01*
X42911853Y-25447265D01*
X43020745Y-25485368D01*
X43020750Y-25485369D01*
X43199996Y-25505565D01*
X43200000Y-25505565D01*
X43200004Y-25505565D01*
X43379249Y-25485369D01*
X43379252Y-25485368D01*
X43379255Y-25485368D01*
X43549522Y-25425789D01*
X43702262Y-25329816D01*
X43829816Y-25202262D01*
X43925789Y-25049522D01*
X43985368Y-24879255D01*
X43985593Y-24877262D01*
X44005565Y-24700003D01*
X44005565Y-24699996D01*
X43985369Y-24520750D01*
X43985368Y-24520745D01*
X43925789Y-24350478D01*
X43829816Y-24197738D01*
X43801819Y-24169741D01*
X43768334Y-24108418D01*
X43765500Y-24082060D01*
X43765500Y-18013726D01*
X43785185Y-17946687D01*
X43837094Y-17901344D01*
X43867639Y-17887102D01*
X44046877Y-17761598D01*
X44201598Y-17606877D01*
X44327102Y-17427639D01*
X44397618Y-17276414D01*
X44443790Y-17223977D01*
X44510984Y-17204825D01*
X44577865Y-17225041D01*
X44622381Y-17276414D01*
X44692898Y-17427639D01*
X44818402Y-17606877D01*
X44973123Y-17761598D01*
X45152361Y-17887102D01*
X45350670Y-17979575D01*
X45350676Y-17979576D01*
X45350677Y-17979577D01*
X45353965Y-17980458D01*
X45562023Y-18036207D01*
X45744926Y-18052208D01*
X45779998Y-18055277D01*
X45780000Y-18055277D01*
X45780002Y-18055277D01*
X45808254Y-18052805D01*
X45997977Y-18036207D01*
X46209330Y-17979575D01*
X46407639Y-17887102D01*
X46586877Y-17761598D01*
X46741598Y-17606877D01*
X46867102Y-17427639D01*
X46937618Y-17276414D01*
X46983790Y-17223977D01*
X47050984Y-17204825D01*
X47117865Y-17225041D01*
X47162381Y-17276414D01*
X47232898Y-17427639D01*
X47358402Y-17606877D01*
X47513123Y-17761598D01*
X47692361Y-17887102D01*
X47890670Y-17979575D01*
X47890676Y-17979576D01*
X47890677Y-17979577D01*
X47893965Y-17980458D01*
X48102023Y-18036207D01*
X48284926Y-18052208D01*
X48319998Y-18055277D01*
X48320000Y-18055277D01*
X48320002Y-18055277D01*
X48348254Y-18052805D01*
X48537977Y-18036207D01*
X48749330Y-17979575D01*
X48947639Y-17887102D01*
X49126877Y-17761598D01*
X49281598Y-17606877D01*
X49407102Y-17427639D01*
X49499575Y-17229330D01*
X49547626Y-17050000D01*
X49838590Y-17050000D01*
X49885233Y-17203766D01*
X49982728Y-17386166D01*
X49982732Y-17386173D01*
X50113944Y-17546055D01*
X50273826Y-17677267D01*
X50273833Y-17677271D01*
X50456233Y-17774766D01*
X50610000Y-17821410D01*
X50610000Y-17235501D01*
X50717685Y-17284680D01*
X50824237Y-17300000D01*
X50895763Y-17300000D01*
X51002315Y-17284680D01*
X51110000Y-17235501D01*
X51110000Y-17821410D01*
X51263766Y-17774766D01*
X51446166Y-17677271D01*
X51446173Y-17677267D01*
X51606055Y-17546055D01*
X51737267Y-17386173D01*
X51737271Y-17386166D01*
X51834766Y-17203766D01*
X51881410Y-17050000D01*
X51293686Y-17050000D01*
X51319493Y-17009844D01*
X51360000Y-16871889D01*
X51360000Y-16728111D01*
X51319493Y-16590156D01*
X51293686Y-16550000D01*
X51881410Y-16550000D01*
X51834766Y-16396233D01*
X51737271Y-16213833D01*
X51737267Y-16213826D01*
X51606055Y-16053944D01*
X51446173Y-15922732D01*
X51446166Y-15922728D01*
X51263763Y-15825232D01*
X51110000Y-15778587D01*
X51110000Y-16364498D01*
X51002315Y-16315320D01*
X50895763Y-16300000D01*
X50824237Y-16300000D01*
X50717685Y-16315320D01*
X50610000Y-16364498D01*
X50610000Y-15778587D01*
X50456236Y-15825232D01*
X50273833Y-15922728D01*
X50273826Y-15922732D01*
X50113944Y-16053944D01*
X49982732Y-16213826D01*
X49982728Y-16213833D01*
X49885233Y-16396233D01*
X49838590Y-16550000D01*
X50426314Y-16550000D01*
X50400507Y-16590156D01*
X50360000Y-16728111D01*
X50360000Y-16871889D01*
X50400507Y-17009844D01*
X50426314Y-17050000D01*
X49838590Y-17050000D01*
X49547626Y-17050000D01*
X49556207Y-17017977D01*
X49575277Y-16800000D01*
X49556207Y-16582023D01*
X49499575Y-16370670D01*
X49407102Y-16172362D01*
X49407100Y-16172359D01*
X49407099Y-16172357D01*
X49281599Y-15993124D01*
X49206957Y-15918482D01*
X49126877Y-15838402D01*
X48947639Y-15712898D01*
X48796414Y-15642381D01*
X48743977Y-15596210D01*
X48724825Y-15529016D01*
X48745041Y-15462135D01*
X48796414Y-15417618D01*
X48947639Y-15347102D01*
X49126877Y-15221598D01*
X49281598Y-15066877D01*
X49407102Y-14887639D01*
X49477618Y-14736414D01*
X49523790Y-14683977D01*
X49590984Y-14664825D01*
X49657865Y-14685041D01*
X49702381Y-14736414D01*
X49772898Y-14887639D01*
X49898402Y-15066877D01*
X50053123Y-15221598D01*
X50232361Y-15347102D01*
X50430670Y-15439575D01*
X50642023Y-15496207D01*
X50824926Y-15512208D01*
X50859998Y-15515277D01*
X50860000Y-15515277D01*
X50860002Y-15515277D01*
X50888254Y-15512805D01*
X51077977Y-15496207D01*
X51289330Y-15439575D01*
X51487639Y-15347102D01*
X51666877Y-15221598D01*
X51821598Y-15066877D01*
X51947102Y-14887639D01*
X52017618Y-14736414D01*
X52063790Y-14683977D01*
X52130984Y-14664825D01*
X52197865Y-14685041D01*
G37*
%TD.AperFunction*%
%TA.AperFunction,Conductor*%
G36*
X13430703Y-44124319D02*
G01*
X13437181Y-44130351D01*
X15070558Y-45763728D01*
X15073499Y-45766771D01*
X15095593Y-45790427D01*
X15115245Y-45811469D01*
X15148499Y-45831691D01*
X15158990Y-45838830D01*
X15190025Y-45862365D01*
X15190028Y-45862366D01*
X15190028Y-45862367D01*
X15205509Y-45868471D01*
X15224451Y-45877878D01*
X15238672Y-45886526D01*
X15276160Y-45897029D01*
X15288184Y-45901072D01*
X15324411Y-45915359D01*
X15340977Y-45917061D01*
X15361741Y-45921008D01*
X15377772Y-45925500D01*
X15416696Y-45925500D01*
X15429376Y-45926150D01*
X15432275Y-45926447D01*
X15468110Y-45930132D01*
X15484518Y-45927303D01*
X15505586Y-45925500D01*
X21030968Y-45925500D01*
X21098007Y-45945185D01*
X21118649Y-45961819D01*
X22498994Y-47342164D01*
X22532479Y-47403487D01*
X22527495Y-47473179D01*
X22485623Y-47529112D01*
X22447309Y-47548505D01*
X22326239Y-47585231D01*
X22184529Y-47660975D01*
X22184529Y-47660976D01*
X22597466Y-48073913D01*
X22587685Y-48075320D01*
X22456900Y-48135048D01*
X22348239Y-48229202D01*
X22270507Y-48350156D01*
X22246923Y-48430476D01*
X21830976Y-48014529D01*
X21830975Y-48014529D01*
X21755234Y-48156234D01*
X21695191Y-48354166D01*
X21684012Y-48467671D01*
X21657851Y-48532458D01*
X21618317Y-48560432D01*
X21649670Y-48578203D01*
X21682178Y-48640050D01*
X21684012Y-48652328D01*
X21695191Y-48765835D01*
X21755233Y-48963766D01*
X21830975Y-49105469D01*
X21830976Y-49105469D01*
X22246922Y-48689523D01*
X22270507Y-48769844D01*
X22348239Y-48890798D01*
X22456900Y-48984952D01*
X22587685Y-49044680D01*
X22597466Y-49046086D01*
X22184528Y-49459023D01*
X22326233Y-49534766D01*
X22524165Y-49594808D01*
X22730000Y-49615080D01*
X22935834Y-49594808D01*
X23133764Y-49534766D01*
X23275470Y-49459022D01*
X22862534Y-49046086D01*
X22872315Y-49044680D01*
X23003100Y-48984952D01*
X23111761Y-48890798D01*
X23189493Y-48769844D01*
X23213076Y-48689523D01*
X23629022Y-49105469D01*
X23704767Y-48963763D01*
X23741493Y-48842692D01*
X23779790Y-48784253D01*
X23843602Y-48755796D01*
X23912669Y-48766355D01*
X23947835Y-48791005D01*
X26088181Y-50931351D01*
X26121666Y-50992674D01*
X26124500Y-51019032D01*
X26124500Y-55281968D01*
X26104815Y-55349007D01*
X26052011Y-55394762D01*
X25982853Y-55404706D01*
X25919297Y-55375681D01*
X25912819Y-55369649D01*
X23479440Y-52936271D01*
X23476498Y-52933227D01*
X23434753Y-52888529D01*
X23434751Y-52888528D01*
X23401489Y-52868301D01*
X23390991Y-52861156D01*
X23359976Y-52837636D01*
X23351406Y-52834256D01*
X23344485Y-52831527D01*
X23325553Y-52822124D01*
X23311329Y-52813474D01*
X23273842Y-52802970D01*
X23261813Y-52798925D01*
X23225591Y-52784641D01*
X23225583Y-52784640D01*
X23209022Y-52782937D01*
X23188255Y-52778990D01*
X23172231Y-52774500D01*
X23172228Y-52774500D01*
X23133296Y-52774500D01*
X23120617Y-52773850D01*
X23081892Y-52769869D01*
X23081888Y-52769869D01*
X23072576Y-52771474D01*
X23065485Y-52772697D01*
X23044420Y-52774500D01*
X15969031Y-52774500D01*
X15901992Y-52754815D01*
X15881350Y-52738181D01*
X13261819Y-50118650D01*
X13228334Y-50057327D01*
X13225500Y-50030969D01*
X13225500Y-48560002D01*
X13854723Y-48560002D01*
X13857226Y-48588608D01*
X13873081Y-48769844D01*
X13873793Y-48777975D01*
X13873793Y-48777979D01*
X13930422Y-48989322D01*
X13930424Y-48989326D01*
X13930425Y-48989330D01*
X13951702Y-49034958D01*
X14022897Y-49187638D01*
X14022898Y-49187639D01*
X14148402Y-49366877D01*
X14303123Y-49521598D01*
X14482361Y-49647102D01*
X14680670Y-49739575D01*
X14892023Y-49796207D01*
X15074926Y-49812208D01*
X15109998Y-49815277D01*
X15110000Y-49815277D01*
X15110002Y-49815277D01*
X15138254Y-49812805D01*
X15327977Y-49796207D01*
X15539330Y-49739575D01*
X15737639Y-49647102D01*
X15916877Y-49521598D01*
X16071598Y-49366877D01*
X16197102Y-49187639D01*
X16267618Y-49036414D01*
X16313790Y-48983977D01*
X16380984Y-48964825D01*
X16447865Y-48985041D01*
X16492381Y-49036414D01*
X16562898Y-49187639D01*
X16688402Y-49366877D01*
X16843123Y-49521598D01*
X17022361Y-49647102D01*
X17220670Y-49739575D01*
X17432023Y-49796207D01*
X17614926Y-49812208D01*
X17649998Y-49815277D01*
X17650000Y-49815277D01*
X17650002Y-49815277D01*
X17678254Y-49812805D01*
X17867977Y-49796207D01*
X18079330Y-49739575D01*
X18277639Y-49647102D01*
X18456877Y-49521598D01*
X18611598Y-49366877D01*
X18737102Y-49187639D01*
X18807618Y-49036414D01*
X18853790Y-48983977D01*
X18920984Y-48964825D01*
X18987865Y-48985041D01*
X19032381Y-49036414D01*
X19102898Y-49187639D01*
X19228402Y-49366877D01*
X19383123Y-49521598D01*
X19562361Y-49647102D01*
X19760670Y-49739575D01*
X19972023Y-49796207D01*
X20154926Y-49812208D01*
X20189998Y-49815277D01*
X20190000Y-49815277D01*
X20190002Y-49815277D01*
X20218254Y-49812805D01*
X20407977Y-49796207D01*
X20619330Y-49739575D01*
X20817639Y-49647102D01*
X20996877Y-49521598D01*
X21151598Y-49366877D01*
X21277102Y-49187639D01*
X21369575Y-48989330D01*
X21426207Y-48777977D01*
X21437081Y-48653673D01*
X21462533Y-48588608D01*
X21502738Y-48559494D01*
X21470611Y-48540818D01*
X21438780Y-48478620D01*
X21437082Y-48466333D01*
X21426207Y-48342023D01*
X21391548Y-48212675D01*
X21369577Y-48130677D01*
X21369576Y-48130676D01*
X21369575Y-48130670D01*
X21277102Y-47932362D01*
X21277100Y-47932359D01*
X21277099Y-47932357D01*
X21151599Y-47753124D01*
X21151596Y-47753121D01*
X20996877Y-47598402D01*
X20858978Y-47501844D01*
X20817638Y-47472897D01*
X20718484Y-47426661D01*
X20619330Y-47380425D01*
X20619326Y-47380424D01*
X20619322Y-47380422D01*
X20407977Y-47323793D01*
X20190002Y-47304723D01*
X20189998Y-47304723D01*
X20044682Y-47317436D01*
X19972023Y-47323793D01*
X19972020Y-47323793D01*
X19760677Y-47380422D01*
X19760668Y-47380426D01*
X19562361Y-47472898D01*
X19562357Y-47472900D01*
X19383121Y-47598402D01*
X19228402Y-47753121D01*
X19102900Y-47932357D01*
X19102898Y-47932361D01*
X19032382Y-48083583D01*
X18986209Y-48136022D01*
X18919016Y-48155174D01*
X18852135Y-48134958D01*
X18807618Y-48083583D01*
X18775417Y-48014529D01*
X18737102Y-47932362D01*
X18737100Y-47932359D01*
X18737099Y-47932357D01*
X18611599Y-47753124D01*
X18611596Y-47753121D01*
X18456877Y-47598402D01*
X18318978Y-47501844D01*
X18277638Y-47472897D01*
X18178484Y-47426661D01*
X18079330Y-47380425D01*
X18079326Y-47380424D01*
X18079322Y-47380422D01*
X17867977Y-47323793D01*
X17650002Y-47304723D01*
X17649998Y-47304723D01*
X17504682Y-47317436D01*
X17432023Y-47323793D01*
X17432020Y-47323793D01*
X17220677Y-47380422D01*
X17220668Y-47380426D01*
X17022361Y-47472898D01*
X17022357Y-47472900D01*
X16843121Y-47598402D01*
X16688402Y-47753121D01*
X16562900Y-47932357D01*
X16562898Y-47932361D01*
X16492382Y-48083583D01*
X16446209Y-48136022D01*
X16379016Y-48155174D01*
X16312135Y-48134958D01*
X16267618Y-48083583D01*
X16235417Y-48014529D01*
X16197102Y-47932362D01*
X16197100Y-47932359D01*
X16197099Y-47932357D01*
X16071599Y-47753124D01*
X16071596Y-47753121D01*
X15916877Y-47598402D01*
X15778978Y-47501844D01*
X15737638Y-47472897D01*
X15638484Y-47426661D01*
X15539330Y-47380425D01*
X15539326Y-47380424D01*
X15539322Y-47380422D01*
X15327977Y-47323793D01*
X15110002Y-47304723D01*
X15109998Y-47304723D01*
X14964682Y-47317436D01*
X14892023Y-47323793D01*
X14892020Y-47323793D01*
X14680677Y-47380422D01*
X14680668Y-47380426D01*
X14482361Y-47472898D01*
X14482357Y-47472900D01*
X14303121Y-47598402D01*
X14148402Y-47753121D01*
X14022900Y-47932357D01*
X14022898Y-47932361D01*
X13930426Y-48130668D01*
X13930422Y-48130677D01*
X13873793Y-48342020D01*
X13873793Y-48342023D01*
X13872731Y-48354166D01*
X13854723Y-48559997D01*
X13854723Y-48560002D01*
X13225500Y-48560002D01*
X13225500Y-44218032D01*
X13245185Y-44150993D01*
X13297989Y-44105238D01*
X13367147Y-44095294D01*
X13430703Y-44124319D01*
G37*
%TD.AperFunction*%
%TA.AperFunction,Conductor*%
G36*
X26797865Y-17225041D02*
G01*
X26842381Y-17276414D01*
X26912898Y-17427639D01*
X27038402Y-17606877D01*
X27193123Y-17761598D01*
X27372361Y-17887102D01*
X27570670Y-17979575D01*
X27570676Y-17979576D01*
X27570677Y-17979577D01*
X27573965Y-17980458D01*
X27782023Y-18036207D01*
X27782027Y-18036207D01*
X27782593Y-18036359D01*
X27842254Y-18072724D01*
X27872783Y-18135571D01*
X27874500Y-18156134D01*
X27874500Y-19321707D01*
X27854815Y-19388746D01*
X27802011Y-19434501D01*
X27732853Y-19444445D01*
X27709546Y-19438749D01*
X27641569Y-19414963D01*
X27641561Y-19414961D01*
X27462316Y-19394766D01*
X27462308Y-19394766D01*
X27283062Y-19414961D01*
X27283057Y-19414962D01*
X27112788Y-19474542D01*
X26960049Y-19570515D01*
X26892053Y-19638512D01*
X26830730Y-19671997D01*
X26804372Y-19674831D01*
X25285779Y-19674831D01*
X25281546Y-19674759D01*
X25273190Y-19674473D01*
X25220424Y-19672671D01*
X25220423Y-19672671D01*
X25220420Y-19672671D01*
X25182601Y-19681887D01*
X25170133Y-19684257D01*
X25131556Y-19689560D01*
X25116280Y-19696195D01*
X25096254Y-19702930D01*
X25080076Y-19706873D01*
X25080070Y-19706876D01*
X25046144Y-19725951D01*
X25034778Y-19731596D01*
X24999062Y-19747110D01*
X24999058Y-19747112D01*
X24986142Y-19757620D01*
X24968672Y-19769511D01*
X24954157Y-19777673D01*
X24926624Y-19805205D01*
X24917202Y-19813707D01*
X24887005Y-19838274D01*
X24887005Y-19838275D01*
X24877404Y-19851876D01*
X24863783Y-19868045D01*
X23736270Y-20995559D01*
X23733227Y-20998500D01*
X23688532Y-21040243D01*
X23688531Y-21040244D01*
X23668302Y-21073508D01*
X23661161Y-21084000D01*
X23637639Y-21115019D01*
X23637633Y-21115029D01*
X23631525Y-21130517D01*
X23622125Y-21149442D01*
X23613477Y-21163664D01*
X23613475Y-21163670D01*
X23602971Y-21201155D01*
X23598926Y-21213181D01*
X23584641Y-21249409D01*
X23584640Y-21249411D01*
X23582937Y-21265976D01*
X23578991Y-21286739D01*
X23574500Y-21302767D01*
X23574500Y-21341703D01*
X23573850Y-21354382D01*
X23569869Y-21393107D01*
X23569869Y-21393111D01*
X23572697Y-21409511D01*
X23574500Y-21430580D01*
X23574500Y-23717060D01*
X23554815Y-23784099D01*
X23538181Y-23804741D01*
X23470184Y-23872737D01*
X23374211Y-24025476D01*
X23314631Y-24195745D01*
X23314630Y-24195750D01*
X23294435Y-24374996D01*
X23294435Y-24375003D01*
X23314630Y-24554249D01*
X23314631Y-24554254D01*
X23374211Y-24724523D01*
X23442160Y-24832662D01*
X23470184Y-24877262D01*
X23597738Y-25004816D01*
X23648384Y-25036639D01*
X23744046Y-25096748D01*
X23750478Y-25100789D01*
X23801522Y-25118650D01*
X23920745Y-25160368D01*
X23920750Y-25160369D01*
X24099996Y-25180565D01*
X24100000Y-25180565D01*
X24100004Y-25180565D01*
X24279249Y-25160369D01*
X24279252Y-25160368D01*
X24279255Y-25160368D01*
X24449522Y-25100789D01*
X24602262Y-25004816D01*
X24729816Y-24877262D01*
X24825789Y-24724522D01*
X24885368Y-24554255D01*
X24885369Y-24554249D01*
X24905565Y-24375003D01*
X24905565Y-24374996D01*
X24885369Y-24195750D01*
X24885368Y-24195745D01*
X24841052Y-24069098D01*
X24825789Y-24025478D01*
X24729816Y-23872738D01*
X24661819Y-23804741D01*
X24628334Y-23743418D01*
X24625500Y-23717060D01*
X24625500Y-23343263D01*
X24645185Y-23276224D01*
X24697989Y-23230469D01*
X24767147Y-23220525D01*
X24830703Y-23249550D01*
X24854492Y-23277289D01*
X24870184Y-23302262D01*
X24997738Y-23429816D01*
X25150478Y-23525789D01*
X25274054Y-23569030D01*
X25320745Y-23585368D01*
X25320750Y-23585369D01*
X25499996Y-23605565D01*
X25500000Y-23605565D01*
X25500004Y-23605565D01*
X25679249Y-23585369D01*
X25679252Y-23585368D01*
X25679255Y-23585368D01*
X25849522Y-23525789D01*
X26002262Y-23429816D01*
X26070259Y-23361819D01*
X26131582Y-23328334D01*
X26157940Y-23325500D01*
X26742060Y-23325500D01*
X26809099Y-23345185D01*
X26829741Y-23361819D01*
X26897738Y-23429816D01*
X27050478Y-23525789D01*
X27174054Y-23569030D01*
X27220745Y-23585368D01*
X27220750Y-23585369D01*
X27399996Y-23605565D01*
X27400000Y-23605565D01*
X27400004Y-23605565D01*
X27579249Y-23585369D01*
X27579251Y-23585368D01*
X27579255Y-23585368D01*
X27579258Y-23585366D01*
X27579262Y-23585366D01*
X27709545Y-23539778D01*
X27779324Y-23536216D01*
X27839951Y-23570944D01*
X27872179Y-23632938D01*
X27874500Y-23656819D01*
X27874500Y-49531968D01*
X27854815Y-49599007D01*
X27802011Y-49644762D01*
X27732853Y-49654706D01*
X27669297Y-49625681D01*
X27662819Y-49619649D01*
X22279440Y-44236271D01*
X22276498Y-44233227D01*
X22234753Y-44188529D01*
X22234751Y-44188528D01*
X22201489Y-44168301D01*
X22190991Y-44161156D01*
X22159976Y-44137636D01*
X22151406Y-44134256D01*
X22144485Y-44131527D01*
X22125553Y-44122124D01*
X22111329Y-44113474D01*
X22073842Y-44102970D01*
X22061813Y-44098925D01*
X22025591Y-44084641D01*
X22025583Y-44084640D01*
X22009022Y-44082937D01*
X21988255Y-44078990D01*
X21972231Y-44074500D01*
X21972228Y-44074500D01*
X21933296Y-44074500D01*
X21920617Y-44073850D01*
X21881892Y-44069869D01*
X21881888Y-44069869D01*
X21872576Y-44071474D01*
X21865485Y-44072697D01*
X21844420Y-44074500D01*
X17666689Y-44074500D01*
X17599650Y-44054815D01*
X17553895Y-44002011D01*
X17543951Y-43932853D01*
X17572976Y-43869297D01*
X17607262Y-43841668D01*
X17781045Y-43746774D01*
X17844315Y-43712226D01*
X18073395Y-43540739D01*
X18275739Y-43338395D01*
X18447226Y-43109315D01*
X18584367Y-42858161D01*
X18684369Y-42590046D01*
X18745196Y-42310428D01*
X18765610Y-42025000D01*
X18745196Y-41739572D01*
X18723028Y-41637669D01*
X18684371Y-41459962D01*
X18684370Y-41459960D01*
X18684369Y-41459954D01*
X18584367Y-41191839D01*
X18558458Y-41144391D01*
X18447229Y-40940690D01*
X18447224Y-40940682D01*
X18275745Y-40711612D01*
X18275729Y-40711594D01*
X18073405Y-40509270D01*
X18073387Y-40509254D01*
X17844317Y-40337775D01*
X17844309Y-40337770D01*
X17593166Y-40200635D01*
X17593167Y-40200635D01*
X17449234Y-40146951D01*
X17325046Y-40100631D01*
X17325043Y-40100630D01*
X17325037Y-40100628D01*
X17045433Y-40039804D01*
X16760001Y-40019390D01*
X16759999Y-40019390D01*
X16474566Y-40039804D01*
X16194960Y-40100629D01*
X16194955Y-40100630D01*
X16194954Y-40100631D01*
X16156498Y-40114974D01*
X16084127Y-40141967D01*
X16014435Y-40146951D01*
X16011252Y-40145213D01*
X15981622Y-40177808D01*
X15960421Y-40188107D01*
X15940332Y-40195600D01*
X15926833Y-40200635D01*
X15675690Y-40337770D01*
X15675682Y-40337775D01*
X15446612Y-40509254D01*
X15446594Y-40509270D01*
X15244270Y-40711594D01*
X15244254Y-40711612D01*
X15072775Y-40940682D01*
X15072770Y-40940690D01*
X14935635Y-41191833D01*
X14935633Y-41191839D01*
X14865680Y-41379387D01*
X14823810Y-41435319D01*
X14758346Y-41459736D01*
X14690073Y-41444884D01*
X14640668Y-41395479D01*
X14625500Y-41336052D01*
X14625500Y-39930061D01*
X14645185Y-39863022D01*
X14697989Y-39817267D01*
X14767147Y-39807323D01*
X14820623Y-39828487D01*
X14842787Y-39844006D01*
X15047280Y-39939363D01*
X15265225Y-39997761D01*
X15425778Y-40011807D01*
X15489998Y-40017426D01*
X15490000Y-40017426D01*
X15490002Y-40017426D01*
X15546193Y-40012509D01*
X15714775Y-39997761D01*
X15884991Y-39952152D01*
X15946203Y-39953609D01*
X15966484Y-39926517D01*
X15988385Y-39913405D01*
X16137213Y-39844006D01*
X16322041Y-39714588D01*
X16481588Y-39555041D01*
X16611006Y-39370213D01*
X16706363Y-39165720D01*
X16764761Y-38947775D01*
X16784426Y-38723000D01*
X16764761Y-38498225D01*
X16706363Y-38280280D01*
X16611006Y-38075787D01*
X16611004Y-38075784D01*
X16611003Y-38075782D01*
X16481591Y-37890963D01*
X16481586Y-37890957D01*
X16322042Y-37731413D01*
X16322036Y-37731408D01*
X16137217Y-37601996D01*
X16137213Y-37601994D01*
X16058697Y-37565381D01*
X16006259Y-37519210D01*
X15987107Y-37452016D01*
X16007323Y-37385135D01*
X16058697Y-37340618D01*
X16137213Y-37304006D01*
X16322041Y-37174588D01*
X16481588Y-37015041D01*
X16611006Y-36830213D01*
X16706363Y-36625720D01*
X16764761Y-36407775D01*
X16782499Y-36205024D01*
X16807951Y-36139956D01*
X16818338Y-36128159D01*
X20979742Y-31966756D01*
X20994525Y-31954130D01*
X21005871Y-31945888D01*
X21051256Y-31895481D01*
X21055687Y-31890811D01*
X21070120Y-31876380D01*
X21082958Y-31860523D01*
X21087128Y-31855641D01*
X21132533Y-31805216D01*
X21139537Y-31793083D01*
X21150563Y-31777041D01*
X21159383Y-31766149D01*
X21190177Y-31705709D01*
X21193264Y-31700025D01*
X21227179Y-31641284D01*
X21231510Y-31627951D01*
X21238955Y-31609976D01*
X21245320Y-31597487D01*
X21262874Y-31531973D01*
X21264715Y-31525759D01*
X21285674Y-31461255D01*
X21287139Y-31447317D01*
X21290687Y-31428175D01*
X21294313Y-31414645D01*
X21297862Y-31346903D01*
X21298371Y-31340448D01*
X21299703Y-31327775D01*
X21300500Y-31320192D01*
X21300500Y-31299824D01*
X21300670Y-31293335D01*
X21304219Y-31225612D01*
X21302027Y-31211772D01*
X21300500Y-31192373D01*
X21300500Y-18139557D01*
X21320185Y-18072518D01*
X21368203Y-18029073D01*
X21468342Y-17978050D01*
X21558050Y-17888342D01*
X21615646Y-17775304D01*
X21615646Y-17775302D01*
X21615647Y-17775301D01*
X21630499Y-17681524D01*
X21630500Y-17681519D01*
X21630499Y-17531859D01*
X21650183Y-17464823D01*
X21702987Y-17419068D01*
X21772145Y-17409124D01*
X21835701Y-17438149D01*
X21856073Y-17460738D01*
X21958402Y-17606877D01*
X22113123Y-17761598D01*
X22292361Y-17887102D01*
X22490670Y-17979575D01*
X22490676Y-17979576D01*
X22490677Y-17979577D01*
X22493965Y-17980458D01*
X22702023Y-18036207D01*
X22884926Y-18052208D01*
X22919998Y-18055277D01*
X22920000Y-18055277D01*
X22920002Y-18055277D01*
X22948254Y-18052805D01*
X23137977Y-18036207D01*
X23349330Y-17979575D01*
X23547639Y-17887102D01*
X23726877Y-17761598D01*
X23881598Y-17606877D01*
X24007102Y-17427639D01*
X24077618Y-17276414D01*
X24123790Y-17223977D01*
X24190984Y-17204825D01*
X24257865Y-17225041D01*
X24302381Y-17276414D01*
X24372898Y-17427639D01*
X24498402Y-17606877D01*
X24653123Y-17761598D01*
X24832361Y-17887102D01*
X25030670Y-17979575D01*
X25030676Y-17979576D01*
X25030677Y-17979577D01*
X25033965Y-17980458D01*
X25242023Y-18036207D01*
X25424926Y-18052208D01*
X25459998Y-18055277D01*
X25460000Y-18055277D01*
X25460002Y-18055277D01*
X25488254Y-18052805D01*
X25677977Y-18036207D01*
X25889330Y-17979575D01*
X26087639Y-17887102D01*
X26266877Y-17761598D01*
X26421598Y-17606877D01*
X26547102Y-17427639D01*
X26617618Y-17276414D01*
X26663790Y-17223977D01*
X26730984Y-17204825D01*
X26797865Y-17225041D01*
G37*
%TD.AperFunction*%
%TA.AperFunction,Conductor*%
G36*
X33858349Y-17870065D02*
G01*
X33906163Y-17921012D01*
X33919500Y-17976957D01*
X33919500Y-24433890D01*
X33919428Y-24438123D01*
X33917340Y-24499243D01*
X33917340Y-24499247D01*
X33926555Y-24537058D01*
X33928926Y-24549531D01*
X33934228Y-24588109D01*
X33934229Y-24588111D01*
X33940864Y-24603387D01*
X33947602Y-24623424D01*
X33951542Y-24639593D01*
X33951543Y-24639594D01*
X33970618Y-24673520D01*
X33976266Y-24684890D01*
X33991782Y-24720612D01*
X34002283Y-24733518D01*
X34014182Y-24751000D01*
X34022342Y-24765512D01*
X34049878Y-24793048D01*
X34058377Y-24802466D01*
X34082943Y-24832662D01*
X34082944Y-24832663D01*
X34082946Y-24832665D01*
X34096544Y-24842264D01*
X34112715Y-24855885D01*
X50858181Y-41601350D01*
X50891666Y-41662673D01*
X50894500Y-41689031D01*
X50894500Y-48246273D01*
X50874815Y-48313312D01*
X50822906Y-48358655D01*
X50792359Y-48372899D01*
X50613121Y-48498402D01*
X50458402Y-48653121D01*
X50332900Y-48832357D01*
X50332898Y-48832361D01*
X50262382Y-48983583D01*
X50216209Y-49036022D01*
X50149016Y-49055174D01*
X50082135Y-49034958D01*
X50037618Y-48983583D01*
X49994351Y-48890798D01*
X49967102Y-48832362D01*
X49967100Y-48832359D01*
X49967099Y-48832357D01*
X49841599Y-48653124D01*
X49766678Y-48578203D01*
X49686877Y-48498402D01*
X49507639Y-48372898D01*
X49507635Y-48372896D01*
X49477093Y-48358653D01*
X49424655Y-48312480D01*
X49405500Y-48246272D01*
X49405500Y-42291108D01*
X49405572Y-42286875D01*
X49407660Y-42225755D01*
X49398440Y-42187925D01*
X49396072Y-42175459D01*
X49390771Y-42136889D01*
X49390770Y-42136886D01*
X49384139Y-42121622D01*
X49377396Y-42101571D01*
X49373457Y-42085405D01*
X49354376Y-42051469D01*
X49348733Y-42040108D01*
X49333219Y-42004391D01*
X49322706Y-41991469D01*
X49310811Y-41973990D01*
X49302657Y-41959488D01*
X49275123Y-41931954D01*
X49266636Y-41922550D01*
X49242054Y-41892335D01*
X49228450Y-41882732D01*
X49212278Y-41869109D01*
X32461819Y-25118650D01*
X32428334Y-25057327D01*
X32425500Y-25030969D01*
X32425500Y-18069217D01*
X32445185Y-18002178D01*
X32497989Y-17956423D01*
X32567147Y-17946479D01*
X32601901Y-17956834D01*
X32650670Y-17979575D01*
X32650675Y-17979576D01*
X32650677Y-17979577D01*
X32653965Y-17980458D01*
X32862023Y-18036207D01*
X33044926Y-18052208D01*
X33079998Y-18055277D01*
X33080000Y-18055277D01*
X33080002Y-18055277D01*
X33108254Y-18052805D01*
X33297977Y-18036207D01*
X33509330Y-17979575D01*
X33707639Y-17887102D01*
X33719376Y-17878884D01*
X33724376Y-17875383D01*
X33790582Y-17853055D01*
X33858349Y-17870065D01*
G37*
%TD.AperFunction*%
%TA.AperFunction,Conductor*%
G36*
X39497865Y-17225041D02*
G01*
X39542381Y-17276414D01*
X39612898Y-17427639D01*
X39738402Y-17606877D01*
X39738406Y-17606881D01*
X39763181Y-17631656D01*
X39796666Y-17692979D01*
X39799500Y-17719337D01*
X39799500Y-26019373D01*
X39797973Y-26038772D01*
X39795781Y-26052611D01*
X39799330Y-26120335D01*
X39799500Y-26126824D01*
X39799500Y-26147188D01*
X39801628Y-26167448D01*
X39802136Y-26173909D01*
X39805686Y-26241643D01*
X39805688Y-26241653D01*
X39809315Y-26255189D01*
X39812860Y-26274314D01*
X39814325Y-26288249D01*
X39814326Y-26288256D01*
X39814328Y-26288262D01*
X39835282Y-26352755D01*
X39837125Y-26358976D01*
X39854679Y-26424486D01*
X39854684Y-26424498D01*
X39861043Y-26436978D01*
X39868488Y-26454949D01*
X39872820Y-26468282D01*
X39906726Y-26527009D01*
X39909822Y-26532712D01*
X39940616Y-26593147D01*
X39940620Y-26593153D01*
X39949438Y-26604043D01*
X39960454Y-26620070D01*
X39967465Y-26632213D01*
X39967470Y-26632220D01*
X40012855Y-26682627D01*
X40017063Y-26687554D01*
X40029883Y-26703383D01*
X40044275Y-26717775D01*
X40048743Y-26722483D01*
X40094128Y-26772887D01*
X40105468Y-26781126D01*
X40120265Y-26793764D01*
X53023181Y-39696680D01*
X53056666Y-39758003D01*
X53059500Y-39784361D01*
X53059500Y-48540662D01*
X53039815Y-48607701D01*
X53023181Y-48628343D01*
X52998402Y-48653121D01*
X52872900Y-48832357D01*
X52872898Y-48832361D01*
X52802382Y-48983583D01*
X52756209Y-49036022D01*
X52689016Y-49055174D01*
X52622135Y-49034958D01*
X52577618Y-48983583D01*
X52534351Y-48890798D01*
X52507102Y-48832362D01*
X52507100Y-48832359D01*
X52507099Y-48832357D01*
X52381599Y-48653124D01*
X52306678Y-48578203D01*
X52226877Y-48498402D01*
X52047639Y-48372898D01*
X52047635Y-48372896D01*
X52017093Y-48358653D01*
X51964655Y-48312480D01*
X51945500Y-48246272D01*
X51945500Y-41431108D01*
X51945572Y-41426875D01*
X51947660Y-41365755D01*
X51938440Y-41327925D01*
X51936072Y-41315459D01*
X51930771Y-41276889D01*
X51930770Y-41276886D01*
X51924139Y-41261622D01*
X51917396Y-41241571D01*
X51913457Y-41225405D01*
X51894584Y-41191839D01*
X51894376Y-41191469D01*
X51888733Y-41180108D01*
X51873219Y-41144391D01*
X51862706Y-41131469D01*
X51850811Y-41113990D01*
X51842657Y-41099488D01*
X51815123Y-41071954D01*
X51806636Y-41062550D01*
X51782054Y-41032335D01*
X51768450Y-41022732D01*
X51752278Y-41009109D01*
X35006819Y-24263650D01*
X34973334Y-24202327D01*
X34970500Y-24175969D01*
X34970500Y-18071548D01*
X34990185Y-18004509D01*
X35042989Y-17958754D01*
X35112147Y-17948810D01*
X35146902Y-17959166D01*
X35175786Y-17972634D01*
X35190663Y-17979572D01*
X35190665Y-17979572D01*
X35190670Y-17979575D01*
X35190675Y-17979576D01*
X35190677Y-17979577D01*
X35193965Y-17980458D01*
X35402023Y-18036207D01*
X35584926Y-18052208D01*
X35619998Y-18055277D01*
X35620000Y-18055277D01*
X35620002Y-18055277D01*
X35648254Y-18052805D01*
X35837977Y-18036207D01*
X36049330Y-17979575D01*
X36247639Y-17887102D01*
X36426877Y-17761598D01*
X36581598Y-17606877D01*
X36707102Y-17427639D01*
X36777618Y-17276414D01*
X36823790Y-17223977D01*
X36890984Y-17204825D01*
X36957865Y-17225041D01*
X37002381Y-17276414D01*
X37072898Y-17427639D01*
X37198402Y-17606877D01*
X37353123Y-17761598D01*
X37532361Y-17887102D01*
X37730670Y-17979575D01*
X37730676Y-17979576D01*
X37730677Y-17979577D01*
X37733965Y-17980458D01*
X37942023Y-18036207D01*
X38124926Y-18052208D01*
X38159998Y-18055277D01*
X38160000Y-18055277D01*
X38160002Y-18055277D01*
X38188254Y-18052805D01*
X38377977Y-18036207D01*
X38589330Y-17979575D01*
X38787639Y-17887102D01*
X38966877Y-17761598D01*
X39121598Y-17606877D01*
X39247102Y-17427639D01*
X39317618Y-17276414D01*
X39363790Y-17223977D01*
X39430984Y-17204825D01*
X39497865Y-17225041D01*
G37*
%TD.AperFunction*%
%TA.AperFunction,Conductor*%
G36*
X19095114Y-17750567D02*
G01*
X19151047Y-17792439D01*
X19162258Y-17810444D01*
X19201950Y-17888342D01*
X19201951Y-17888343D01*
X19201954Y-17888347D01*
X19291652Y-17978045D01*
X19291654Y-17978046D01*
X19291658Y-17978050D01*
X19404696Y-18035646D01*
X19404702Y-18035646D01*
X19413819Y-18038610D01*
X19471494Y-18078048D01*
X19498692Y-18142407D01*
X19499500Y-18156541D01*
X19499500Y-30848638D01*
X19479815Y-30915677D01*
X19463181Y-30936319D01*
X16962384Y-33437115D01*
X16901061Y-33470600D01*
X16831369Y-33465616D01*
X16775436Y-33423744D01*
X16754928Y-33381527D01*
X16706365Y-33200287D01*
X16706364Y-33200286D01*
X16706363Y-33200280D01*
X16611006Y-32995787D01*
X16611004Y-32995784D01*
X16611003Y-32995782D01*
X16481591Y-32810963D01*
X16481586Y-32810957D01*
X16322042Y-32651413D01*
X16322036Y-32651408D01*
X16137217Y-32521996D01*
X16137213Y-32521994D01*
X16058697Y-32485381D01*
X16006259Y-32439210D01*
X15987107Y-32372016D01*
X16007323Y-32305135D01*
X16058697Y-32260618D01*
X16137213Y-32224006D01*
X16322041Y-32094588D01*
X16481588Y-31935041D01*
X16611006Y-31750213D01*
X16706363Y-31545720D01*
X16764761Y-31327775D01*
X16784426Y-31103000D01*
X16764761Y-30878225D01*
X16706363Y-30660280D01*
X16611006Y-30455787D01*
X16611004Y-30455784D01*
X16611003Y-30455782D01*
X16481591Y-30270963D01*
X16481586Y-30270957D01*
X16322042Y-30111413D01*
X16322036Y-30111408D01*
X16137217Y-29981996D01*
X16137213Y-29981994D01*
X16058697Y-29945381D01*
X16006259Y-29899210D01*
X15987107Y-29832016D01*
X16007323Y-29765135D01*
X16058697Y-29720618D01*
X16137213Y-29684006D01*
X16322041Y-29554588D01*
X16481588Y-29395041D01*
X16611006Y-29210213D01*
X16706363Y-29005720D01*
X16764761Y-28787775D01*
X16784426Y-28563000D01*
X16764761Y-28338225D01*
X16706363Y-28120280D01*
X16611006Y-27915787D01*
X16611004Y-27915784D01*
X16611003Y-27915782D01*
X16481591Y-27730963D01*
X16481586Y-27730957D01*
X16322042Y-27571413D01*
X16322036Y-27571408D01*
X16137217Y-27441996D01*
X16137213Y-27441994D01*
X15932720Y-27346637D01*
X15932716Y-27346636D01*
X15932714Y-27346635D01*
X15800021Y-27311080D01*
X15740361Y-27274715D01*
X15709832Y-27211868D01*
X15718127Y-27142492D01*
X15762612Y-27088614D01*
X15787322Y-27075678D01*
X15977484Y-27002010D01*
X15977488Y-27002008D01*
X16062696Y-26949249D01*
X15629600Y-26516152D01*
X15634592Y-26515435D01*
X15767470Y-26454752D01*
X15877869Y-26359090D01*
X15956845Y-26236201D01*
X15979522Y-26158968D01*
X16419611Y-26599057D01*
X16419612Y-26599057D01*
X16419851Y-26598742D01*
X16509811Y-26418078D01*
X16509814Y-26418072D01*
X16565042Y-26223962D01*
X16565043Y-26223959D01*
X16583665Y-26023000D01*
X16583665Y-26022999D01*
X16565043Y-25822040D01*
X16565042Y-25822037D01*
X16509814Y-25627927D01*
X16509811Y-25627921D01*
X16419853Y-25447261D01*
X16419849Y-25447254D01*
X16419612Y-25446941D01*
X15979522Y-25887030D01*
X15956845Y-25809799D01*
X15877869Y-25686910D01*
X15767470Y-25591248D01*
X15634592Y-25530565D01*
X15629599Y-25529847D01*
X16062696Y-25096749D01*
X16055785Y-25037180D01*
X16060441Y-25036639D01*
X16055701Y-25007079D01*
X16083693Y-24943061D01*
X16141851Y-24904340D01*
X16205067Y-24901569D01*
X16474566Y-24960195D01*
X16474568Y-24960195D01*
X16474572Y-24960196D01*
X16728220Y-24978337D01*
X16759999Y-24980610D01*
X16760000Y-24980610D01*
X16760001Y-24980610D01*
X16788595Y-24978564D01*
X17045428Y-24960196D01*
X17064267Y-24956098D01*
X17325037Y-24899371D01*
X17325037Y-24899370D01*
X17325046Y-24899369D01*
X17593161Y-24799367D01*
X17844315Y-24662226D01*
X18073395Y-24490739D01*
X18275739Y-24288395D01*
X18447226Y-24059315D01*
X18584367Y-23808161D01*
X18684369Y-23540046D01*
X18730424Y-23328334D01*
X18745195Y-23260433D01*
X18745195Y-23260432D01*
X18745196Y-23260428D01*
X18765610Y-22975000D01*
X18745196Y-22689572D01*
X18693184Y-22450478D01*
X18684371Y-22409962D01*
X18684370Y-22409960D01*
X18684369Y-22409954D01*
X18584367Y-22141839D01*
X18580245Y-22134291D01*
X18447229Y-21890690D01*
X18447224Y-21890682D01*
X18275745Y-21661612D01*
X18275729Y-21661594D01*
X18073405Y-21459270D01*
X18073387Y-21459254D01*
X17844317Y-21287775D01*
X17844309Y-21287770D01*
X17593166Y-21150635D01*
X17593167Y-21150635D01*
X17485915Y-21110632D01*
X17325046Y-21050631D01*
X17325043Y-21050630D01*
X17325037Y-21050628D01*
X17045433Y-20989804D01*
X16760001Y-20969390D01*
X16759999Y-20969390D01*
X16474566Y-20989804D01*
X16194960Y-21050629D01*
X16194955Y-21050630D01*
X16194954Y-21050631D01*
X16022297Y-21115029D01*
X15927753Y-21150292D01*
X15858062Y-21155276D01*
X15796739Y-21121791D01*
X15763254Y-21060468D01*
X15768238Y-20990776D01*
X15796737Y-20946430D01*
X18964101Y-17779066D01*
X19025422Y-17745583D01*
X19095114Y-17750567D01*
G37*
%TD.AperFunction*%
%TA.AperFunction,Conductor*%
G36*
X14862443Y-21983238D02*
G01*
X14918376Y-22025110D01*
X14942793Y-22090574D01*
X14935291Y-22142753D01*
X14835629Y-22409960D01*
X14774804Y-22689566D01*
X14754390Y-22974998D01*
X14754390Y-22975001D01*
X14774804Y-23260433D01*
X14835628Y-23540037D01*
X14835630Y-23540043D01*
X14835631Y-23540046D01*
X14935633Y-23808161D01*
X14935635Y-23808166D01*
X15072770Y-24059309D01*
X15072775Y-24059317D01*
X15244254Y-24288387D01*
X15244270Y-24288405D01*
X15446594Y-24490729D01*
X15446612Y-24490745D01*
X15675682Y-24662224D01*
X15675690Y-24662229D01*
X15791337Y-24725377D01*
X15840742Y-24774782D01*
X15855594Y-24843055D01*
X15831177Y-24908519D01*
X15775244Y-24950391D01*
X15709125Y-24956098D01*
X15590909Y-24934000D01*
X15389091Y-24934000D01*
X15190706Y-24971085D01*
X15190705Y-24971085D01*
X15002513Y-25043990D01*
X15002509Y-25043992D01*
X14917302Y-25096749D01*
X15350400Y-25529847D01*
X15345408Y-25530565D01*
X15212530Y-25591248D01*
X15102131Y-25686910D01*
X15023155Y-25809799D01*
X15000477Y-25887031D01*
X14560387Y-25446941D01*
X14560147Y-25447259D01*
X14560144Y-25447265D01*
X14470188Y-25627921D01*
X14470185Y-25627927D01*
X14414957Y-25822037D01*
X14414956Y-25822040D01*
X14396335Y-26022999D01*
X14396335Y-26023000D01*
X14414956Y-26223959D01*
X14414957Y-26223962D01*
X14470185Y-26418072D01*
X14470188Y-26418078D01*
X14560146Y-26598739D01*
X14560150Y-26598745D01*
X14560386Y-26599057D01*
X14560387Y-26599058D01*
X15000477Y-26158968D01*
X15023155Y-26236201D01*
X15102131Y-26359090D01*
X15212530Y-26454752D01*
X15345408Y-26515435D01*
X15350399Y-26516152D01*
X14917302Y-26949249D01*
X14917303Y-26949250D01*
X15002508Y-27002007D01*
X15002517Y-27002011D01*
X15192677Y-27075678D01*
X15248079Y-27118250D01*
X15271670Y-27184017D01*
X15255959Y-27252098D01*
X15205936Y-27300877D01*
X15179978Y-27311080D01*
X15047285Y-27346635D01*
X15047278Y-27346638D01*
X14842786Y-27441994D01*
X14842782Y-27441996D01*
X14657963Y-27571408D01*
X14657957Y-27571413D01*
X14498413Y-27730957D01*
X14498408Y-27730963D01*
X14368996Y-27915782D01*
X14368994Y-27915786D01*
X14273638Y-28120278D01*
X14273634Y-28120287D01*
X14215240Y-28338219D01*
X14215238Y-28338230D01*
X14195574Y-28562998D01*
X14195574Y-28563001D01*
X14215238Y-28787769D01*
X14215240Y-28787780D01*
X14273634Y-29005712D01*
X14273636Y-29005716D01*
X14273637Y-29005720D01*
X14368994Y-29210213D01*
X14368996Y-29210217D01*
X14498408Y-29395036D01*
X14498413Y-29395042D01*
X14657957Y-29554586D01*
X14657963Y-29554591D01*
X14842782Y-29684003D01*
X14842783Y-29684003D01*
X14842787Y-29684006D01*
X14908937Y-29714852D01*
X14921301Y-29720618D01*
X14973740Y-29766791D01*
X14992892Y-29833984D01*
X14972676Y-29900866D01*
X14921301Y-29945382D01*
X14842787Y-29981994D01*
X14842782Y-29981996D01*
X14657963Y-30111408D01*
X14657957Y-30111413D01*
X14498413Y-30270957D01*
X14498408Y-30270963D01*
X14368996Y-30455782D01*
X14368994Y-30455786D01*
X14273638Y-30660278D01*
X14273634Y-30660287D01*
X14215240Y-30878219D01*
X14215238Y-30878230D01*
X14195574Y-31102998D01*
X14195574Y-31103001D01*
X14215238Y-31327769D01*
X14215240Y-31327780D01*
X14261547Y-31500602D01*
X14259884Y-31570452D01*
X14229453Y-31620376D01*
X13437181Y-32412649D01*
X13375858Y-32446134D01*
X13306167Y-32441150D01*
X13250233Y-32399278D01*
X13225816Y-32333814D01*
X13225500Y-32324968D01*
X13225500Y-23569030D01*
X13245185Y-23501991D01*
X13261814Y-23481354D01*
X14731431Y-22011736D01*
X14792751Y-21978254D01*
X14862443Y-21983238D01*
G37*
%TD.AperFunction*%
%TA.AperFunction,Conductor*%
G36*
X36783007Y-13630185D02*
G01*
X36803644Y-13646814D01*
X36931298Y-13774467D01*
X36964782Y-13835788D01*
X36963391Y-13894240D01*
X36923793Y-14042020D01*
X36923793Y-14042023D01*
X36923024Y-14050811D01*
X36909586Y-14204419D01*
X36904723Y-14260000D01*
X36923476Y-14474359D01*
X36923793Y-14477975D01*
X36923793Y-14477979D01*
X36980422Y-14689322D01*
X36980424Y-14689326D01*
X36980425Y-14689330D01*
X37006633Y-14745533D01*
X37072897Y-14887638D01*
X37097998Y-14923486D01*
X37198402Y-15066877D01*
X37353123Y-15221598D01*
X37508030Y-15330065D01*
X37532361Y-15347102D01*
X37683583Y-15417618D01*
X37736022Y-15463790D01*
X37755174Y-15530984D01*
X37734958Y-15597865D01*
X37683583Y-15642382D01*
X37532361Y-15712898D01*
X37532357Y-15712900D01*
X37353121Y-15838402D01*
X37198402Y-15993121D01*
X37072900Y-16172357D01*
X37072898Y-16172361D01*
X37002382Y-16323583D01*
X36956209Y-16376022D01*
X36889016Y-16395174D01*
X36822135Y-16374958D01*
X36777618Y-16323583D01*
X36715797Y-16191009D01*
X36707102Y-16172362D01*
X36707100Y-16172359D01*
X36707099Y-16172357D01*
X36581599Y-15993124D01*
X36506957Y-15918482D01*
X36426877Y-15838402D01*
X36269500Y-15728205D01*
X36247638Y-15712897D01*
X36134430Y-15660108D01*
X36049330Y-15620425D01*
X36049326Y-15620424D01*
X36049322Y-15620422D01*
X35837977Y-15563793D01*
X35620002Y-15544723D01*
X35619998Y-15544723D01*
X35474682Y-15557436D01*
X35402023Y-15563793D01*
X35402020Y-15563793D01*
X35190677Y-15620422D01*
X35190663Y-15620427D01*
X35142844Y-15642726D01*
X35073767Y-15653218D01*
X35009983Y-15624698D01*
X34971744Y-15566221D01*
X34969974Y-15559736D01*
X34963439Y-15532920D01*
X34961070Y-15520449D01*
X34959955Y-15512335D01*
X34955771Y-15481889D01*
X34949135Y-15466613D01*
X34942400Y-15446583D01*
X34938458Y-15430406D01*
X34919372Y-15396462D01*
X34913735Y-15385114D01*
X34898219Y-15349391D01*
X34887711Y-15336476D01*
X34875816Y-15318999D01*
X34872474Y-15313055D01*
X34870156Y-15308932D01*
X34854457Y-15240852D01*
X34878058Y-15175089D01*
X34933467Y-15132525D01*
X35003091Y-15126674D01*
X35036695Y-15138801D01*
X35216233Y-15234766D01*
X35370000Y-15281410D01*
X35370000Y-14695501D01*
X35477685Y-14744680D01*
X35584237Y-14760000D01*
X35655763Y-14760000D01*
X35762315Y-14744680D01*
X35870000Y-14695501D01*
X35870000Y-15281410D01*
X36023766Y-15234766D01*
X36206166Y-15137271D01*
X36206173Y-15137267D01*
X36366055Y-15006055D01*
X36497267Y-14846173D01*
X36497271Y-14846166D01*
X36594766Y-14663766D01*
X36641410Y-14510000D01*
X36053686Y-14510000D01*
X36079493Y-14469844D01*
X36120000Y-14331889D01*
X36120000Y-14188111D01*
X36079493Y-14050156D01*
X36053686Y-14010000D01*
X36641410Y-14010000D01*
X36594766Y-13856233D01*
X36560942Y-13792953D01*
X36546700Y-13724551D01*
X36571700Y-13659307D01*
X36628005Y-13617936D01*
X36670300Y-13610500D01*
X36715968Y-13610500D01*
X36783007Y-13630185D01*
G37*
%TD.AperFunction*%
%TA.AperFunction,Conductor*%
G36*
X30066902Y-15419166D02*
G01*
X30091005Y-15430405D01*
X30110663Y-15439572D01*
X30110665Y-15439572D01*
X30110670Y-15439575D01*
X30322023Y-15496207D01*
X30504926Y-15512208D01*
X30539998Y-15515277D01*
X30540000Y-15515277D01*
X30540002Y-15515277D01*
X30568254Y-15512805D01*
X30757977Y-15496207D01*
X30905761Y-15456608D01*
X30975608Y-15458271D01*
X31025533Y-15488702D01*
X31251289Y-15714458D01*
X31284774Y-15775781D01*
X31279790Y-15845473D01*
X31237918Y-15901406D01*
X31172454Y-15925823D01*
X31105155Y-15911497D01*
X30943763Y-15825232D01*
X30790000Y-15778587D01*
X30790000Y-16364498D01*
X30682315Y-16315320D01*
X30575763Y-16300000D01*
X30504237Y-16300000D01*
X30397685Y-16315320D01*
X30290000Y-16364498D01*
X30290000Y-15778587D01*
X30136238Y-15825231D01*
X30072952Y-15859058D01*
X30004549Y-15873299D01*
X29939306Y-15848298D01*
X29897936Y-15791993D01*
X29890500Y-15749699D01*
X29890500Y-15531548D01*
X29910185Y-15464509D01*
X29962989Y-15418754D01*
X30032147Y-15408810D01*
X30066902Y-15419166D01*
G37*
%TD.AperFunction*%
%TA.AperFunction,Conductor*%
G36*
X34636739Y-13630185D02*
G01*
X34682494Y-13682989D01*
X34692438Y-13752147D01*
X34679058Y-13792953D01*
X34645233Y-13856233D01*
X34598590Y-14010000D01*
X35186314Y-14010000D01*
X35160507Y-14050156D01*
X35120000Y-14188111D01*
X35120000Y-14331889D01*
X35160507Y-14469844D01*
X35186314Y-14510000D01*
X34598590Y-14510000D01*
X34645233Y-14663766D01*
X34731497Y-14825155D01*
X34745739Y-14893558D01*
X34720739Y-14958802D01*
X34664434Y-15000172D01*
X34594700Y-15004534D01*
X34534458Y-14971289D01*
X34308702Y-14745533D01*
X34275217Y-14684210D01*
X34276607Y-14625762D01*
X34316207Y-14477977D01*
X34335277Y-14260000D01*
X34316207Y-14042023D01*
X34276609Y-13894240D01*
X34259577Y-13830677D01*
X34259572Y-13830663D01*
X34239167Y-13786904D01*
X34228675Y-13717827D01*
X34257195Y-13654043D01*
X34315672Y-13615804D01*
X34351549Y-13610500D01*
X34569700Y-13610500D01*
X34636739Y-13630185D01*
G37*
%TD.AperFunction*%
%TD*%
D19*
X62500000Y-54200000D03*
X63500000Y-55800000D03*
X21200000Y-40800000D03*
X20900000Y-51400000D03*
X65400000Y-21800000D03*
X65800000Y-37400000D03*
X62200000Y-66800000D03*
X55900000Y-24400000D03*
X23025000Y-19300000D03*
X30100000Y-55600000D03*
X22100000Y-26800000D03*
X67600000Y-55700000D03*
X37700000Y-24700000D03*
X30900000Y-49700000D03*
X39200000Y-64800000D03*
X56800000Y-41600000D03*
X59100000Y-61300000D03*
X57800000Y-51100000D03*
X30900000Y-46700000D03*
X46000000Y-37700000D03*
X73700000Y-51100000D03*
X14100000Y-54500000D03*
X23800000Y-58700000D03*
X19400000Y-37300000D03*
X17000000Y-61000000D03*
X36800000Y-56300000D03*
X68800000Y-25300000D03*
X25200000Y-51000000D03*
X35200000Y-22900000D03*
X40900000Y-39900000D03*
X66000000Y-46800000D03*
X30900000Y-41300000D03*
X50200000Y-58875000D03*
X27462312Y-20200331D03*
X24100000Y-24375000D03*
X25500000Y-21500000D03*
X27450000Y-21500000D03*
X25500000Y-22800000D03*
X27400000Y-22800000D03*
X34900000Y-59500000D03*
X43200000Y-24700000D03*
X55500000Y-56100000D03*
X42587347Y-60187347D03*
X44100000Y-60500000D03*
X45600000Y-64800000D03*
X48140000Y-64800000D03*
X20380000Y-16800000D03*
X20380000Y-14260000D03*
X22920000Y-16800000D03*
X22920000Y-14260000D03*
X25460000Y-16800000D03*
X25460000Y-14260000D03*
X28000000Y-16800000D03*
X28000000Y-14260000D03*
X30540000Y-16800000D03*
X30540000Y-14260000D03*
X33080000Y-16800000D03*
X33080000Y-14260000D03*
X35620000Y-16800000D03*
X35620000Y-14260000D03*
X38160000Y-16800000D03*
X38160000Y-14260000D03*
X40700000Y-16800000D03*
X40700000Y-14260000D03*
X43240000Y-16800000D03*
X43240000Y-14260000D03*
X45780000Y-16800000D03*
X45780000Y-14260000D03*
X48320000Y-16800000D03*
X48320000Y-14260000D03*
X50860000Y-16800000D03*
X50860000Y-14260000D03*
X53400000Y-16800000D03*
X53400000Y-14260000D03*
X55940000Y-16800000D03*
X55940000Y-14260000D03*
X58480000Y-16800000D03*
X58480000Y-14260000D03*
X61020000Y-16800000D03*
X61020000Y-14260000D03*
X63560000Y-16800000D03*
X63560000Y-14260000D03*
X66100000Y-16800000D03*
X66100000Y-14260000D03*
X68640000Y-16800000D03*
X68640000Y-14260000D03*
X33640000Y-52000000D03*
X33640000Y-49460000D03*
X36180000Y-52000000D03*
X36180000Y-49460000D03*
X38720000Y-52000000D03*
X38720000Y-49460000D03*
X41260000Y-52000000D03*
X41260000Y-49460000D03*
X43800000Y-52000000D03*
X43800000Y-49460000D03*
X46340000Y-52000000D03*
X46340000Y-49460000D03*
X48880000Y-52000000D03*
X48880000Y-49460000D03*
X51420000Y-52000000D03*
X51420000Y-49460000D03*
X53960000Y-52000000D03*
X53960000Y-49460000D03*
X56500000Y-52000000D03*
X56500000Y-49460000D03*
X15500000Y-64500000D03*
X73500000Y-64500000D03*
X15490000Y-26023000D03*
X73783000Y-26023000D03*
X15490000Y-28563000D03*
X73783000Y-28563000D03*
X16760000Y-22975000D03*
X72640000Y-22975000D03*
X16760000Y-42025000D03*
X72640000Y-42025000D03*
X15490000Y-31103000D03*
X73783000Y-31103000D03*
X15490000Y-33643000D03*
X73783000Y-33643000D03*
X15490000Y-38723000D03*
X73783000Y-38723000D03*
X15490000Y-36183000D03*
X73783000Y-36183000D03*
X17700000Y-56180000D03*
X20240000Y-56180000D03*
X22780000Y-56180000D03*
X22730000Y-48560000D03*
X20190000Y-48560000D03*
X17650000Y-48560000D03*
X15110000Y-48560000D03*
X73500000Y-15500000D03*
X15500000Y-15500000D03*
X20470000Y-64800000D03*
X23010000Y-64800000D03*
X25550000Y-64800000D03*
X67900000Y-59875000D03*
X67900000Y-62415000D03*
X67900000Y-64955000D03*
M02*
