%TF.GenerationSoftware,KiCad,Pcbnew,7.0.10*%
%TF.CreationDate,2024-08-19T10:26:00+10:00*%
%TF.ProjectId,AI4R-SENSORPCB,41493452-2d53-4454-9e53-4f525043422e,rev?*%
%TF.SameCoordinates,Original*%
%TF.FileFunction,Profile,NP*%
%FSLAX46Y46*%
G04 Gerber Fmt 4.6, Leading zero omitted, Abs format (unit mm)*
G04 Created by KiCad (PCBNEW 7.0.10) date 2024-08-19 10:26:00*
%MOMM*%
%LPD*%
G01*
G04 APERTURE LIST*
%TA.AperFunction,Profile*%
%ADD10C,0.100000*%
%TD*%
G04 APERTURE END LIST*
D10*
X12000000Y-89000000D02*
X12000000Y-15000000D01*
X59000000Y-92000000D02*
X15000000Y-92000000D01*
X15000000Y-12000000D02*
G75*
G03*
X12000000Y-15000000I0J-3000000D01*
G01*
X62000000Y-15000000D02*
X62000000Y-89000000D01*
X62000000Y-15000000D02*
G75*
G03*
X59000000Y-12000000I-3000000J0D01*
G01*
X15000000Y-12000000D02*
X59000000Y-12000000D01*
X12000000Y-89000000D02*
G75*
G03*
X15000000Y-92000000I3000000J0D01*
G01*
X59000000Y-92000000D02*
G75*
G03*
X62000000Y-89000000I0J3000000D01*
G01*
%TO.C,RP2*%
X34100000Y-35575000D02*
X16400000Y-35575000D01*
X15400000Y-34575000D02*
X15400000Y-24575000D01*
X35100000Y-24575000D02*
X35100000Y-34575000D01*
X16400000Y-23575000D02*
X34100000Y-23575000D01*
X15400000Y-34575000D02*
G75*
G03*
X16400000Y-35575000I1000000J0D01*
G01*
X34100000Y-35575000D02*
G75*
G03*
X35100000Y-34575000I0J1000000D01*
G01*
X16400000Y-23575000D02*
G75*
G03*
X15400000Y-24575000I0J-1000000D01*
G01*
X35100000Y-24575000D02*
G75*
G03*
X34100000Y-23575000I-1000000J0D01*
G01*
%TO.C,RP1*%
X34100000Y-58825000D02*
X16400000Y-58825000D01*
X15400000Y-57825000D02*
X15400000Y-47825000D01*
X35100000Y-47825000D02*
X35100000Y-57825000D01*
X16400000Y-46825000D02*
X34100000Y-46825000D01*
X15400000Y-57825000D02*
G75*
G03*
X16400000Y-58825000I1000000J0D01*
G01*
X34100000Y-58825000D02*
G75*
G03*
X35100000Y-57825000I0J1000000D01*
G01*
X16400000Y-46825000D02*
G75*
G03*
X15400000Y-47825000I0J-1000000D01*
G01*
X35100000Y-47825000D02*
G75*
G03*
X34100000Y-46825000I-1000000J0D01*
G01*
%TD*%
M02*
