%TF.GenerationSoftware,KiCad,Pcbnew,7.0.10*%
%TF.CreationDate,2024-08-19T10:26:00+10:00*%
%TF.ProjectId,AI4R-SENSORPCB,41493452-2d53-4454-9e53-4f525043422e,rev?*%
%TF.SameCoordinates,Original*%
%TF.FileFunction,Soldermask,Top*%
%TF.FilePolarity,Negative*%
%FSLAX46Y46*%
G04 Gerber Fmt 4.6, Leading zero omitted, Abs format (unit mm)*
G04 Created by KiCad (PCBNEW 7.0.10) date 2024-08-19 10:26:00*
%MOMM*%
%LPD*%
G01*
G04 APERTURE LIST*
G04 Aperture macros list*
%AMRoundRect*
0 Rectangle with rounded corners*
0 $1 Rounding radius*
0 $2 $3 $4 $5 $6 $7 $8 $9 X,Y pos of 4 corners*
0 Add a 4 corners polygon primitive as box body*
4,1,4,$2,$3,$4,$5,$6,$7,$8,$9,$2,$3,0*
0 Add four circle primitives for the rounded corners*
1,1,$1+$1,$2,$3*
1,1,$1+$1,$4,$5*
1,1,$1+$1,$6,$7*
1,1,$1+$1,$8,$9*
0 Add four rect primitives between the rounded corners*
20,1,$1+$1,$2,$3,$4,$5,0*
20,1,$1+$1,$4,$5,$6,$7,0*
20,1,$1+$1,$6,$7,$8,$9,0*
20,1,$1+$1,$8,$9,$2,$3,0*%
G04 Aperture macros list end*
%ADD10RoundRect,0.150000X0.625000X-0.150000X0.625000X0.150000X-0.625000X0.150000X-0.625000X-0.150000X0*%
%ADD11RoundRect,0.250000X0.650000X-0.350000X0.650000X0.350000X-0.650000X0.350000X-0.650000X-0.350000X0*%
%ADD12RoundRect,0.381000X0.381000X-0.762000X0.381000X0.762000X-0.381000X0.762000X-0.381000X-0.762000X0*%
%ADD13RoundRect,0.381000X0.762000X0.381000X-0.762000X0.381000X-0.762000X-0.381000X0.762000X-0.381000X0*%
%ADD14RoundRect,0.381000X-0.381000X0.762000X-0.381000X-0.762000X0.381000X-0.762000X0.381000X0.762000X0*%
%ADD15C,1.000000*%
%ADD16R,2.000000X0.500000*%
%ADD17R,1.700000X2.000000*%
%ADD18C,5.600000*%
%ADD19R,1.200000X1.200000*%
%ADD20C,1.200000*%
%ADD21R,1.700000X1.700000*%
%ADD22O,1.700000X1.700000*%
%ADD23C,1.700000*%
%ADD24RoundRect,0.250000X-0.450000X0.262500X-0.450000X-0.262500X0.450000X-0.262500X0.450000X0.262500X0*%
%ADD25R,1.050000X1.500000*%
%ADD26O,1.050000X1.500000*%
%ADD27O,1.905000X2.000000*%
%ADD28R,1.905000X2.000000*%
G04 APERTURE END LIST*
D10*
%TO.C,J3*%
X56470000Y-83000000D03*
X56470000Y-82000000D03*
X56470000Y-81000000D03*
X56470000Y-80000000D03*
D11*
X60345000Y-84300000D03*
X60345000Y-78700000D03*
%TD*%
D12*
%TO.C,RP2*%
X16030000Y-20575000D03*
X18570000Y-20575000D03*
X21110000Y-20575000D03*
X23650000Y-20575000D03*
X26190000Y-20575000D03*
X28730000Y-20575000D03*
X31270000Y-20575000D03*
X33810000Y-20575000D03*
X36350000Y-20575000D03*
D13*
X38100000Y-24575000D03*
X38100000Y-27115000D03*
X38100000Y-29655000D03*
X38100000Y-32195000D03*
X38100000Y-34735000D03*
D14*
X36350000Y-38575000D03*
X33810000Y-38575000D03*
X31270000Y-38575000D03*
X28730000Y-38575000D03*
X26190000Y-38575000D03*
X23650000Y-38575000D03*
X21110000Y-38575000D03*
X18570000Y-38575000D03*
X16030000Y-38575000D03*
%TD*%
D10*
%TO.C,J4*%
X56500000Y-58900000D03*
X56500000Y-57900000D03*
X56500000Y-56900000D03*
X56500000Y-55900000D03*
D11*
X60375000Y-60200000D03*
X60375000Y-54600000D03*
%TD*%
D15*
%TO.C,J11*%
X18800000Y-76900000D03*
X18800000Y-81300000D03*
D16*
X21500000Y-77500000D03*
X21500000Y-78300000D03*
X21500000Y-79100000D03*
X21500000Y-79900000D03*
X21500000Y-80700000D03*
D17*
X21400000Y-74650000D03*
X15950000Y-74650000D03*
X21400000Y-83550000D03*
X15950000Y-83550000D03*
%TD*%
D18*
%TO.C,H2*%
X58500000Y-15500000D03*
%TD*%
D19*
%TO.C,C2*%
X27500000Y-66300000D03*
D20*
X29500000Y-66300000D03*
%TD*%
D21*
%TO.C,J6*%
X59700000Y-46120000D03*
D22*
X57160000Y-46120000D03*
X59700000Y-43580000D03*
X57160000Y-43580000D03*
X59700000Y-41040000D03*
X57160000Y-41040000D03*
X59700000Y-38500000D03*
X57160000Y-38500000D03*
X59700000Y-35960000D03*
X57160000Y-35960000D03*
X59700000Y-33420000D03*
X57160000Y-33420000D03*
X59700000Y-30880000D03*
X57160000Y-30880000D03*
X59700000Y-28340000D03*
X57160000Y-28340000D03*
X59700000Y-25800000D03*
X57160000Y-25800000D03*
X59700000Y-23260000D03*
X57160000Y-23260000D03*
X59700000Y-20720000D03*
X57160000Y-20720000D03*
%TD*%
D21*
%TO.C,J8*%
X54560000Y-20720000D03*
D22*
X54560000Y-23260000D03*
X54560000Y-25800000D03*
X54560000Y-28340000D03*
X54560000Y-30880000D03*
X54560000Y-33420000D03*
X54560000Y-35960000D03*
X54560000Y-38500000D03*
X54560000Y-41040000D03*
X54560000Y-43580000D03*
%TD*%
D18*
%TO.C,H4*%
X15500000Y-88500000D03*
%TD*%
D12*
%TO.C,RP1*%
X16030000Y-43825000D03*
X18570000Y-43825000D03*
X21110000Y-43825000D03*
X23650000Y-43825000D03*
X26190000Y-43825000D03*
X28730000Y-43825000D03*
X31270000Y-43825000D03*
X33810000Y-43825000D03*
X36350000Y-43825000D03*
D13*
X38100000Y-47825000D03*
X38100000Y-50365000D03*
X38100000Y-52905000D03*
X38100000Y-55445000D03*
X38100000Y-57985000D03*
D14*
X36350000Y-61825000D03*
X33810000Y-61825000D03*
X31270000Y-61825000D03*
X28730000Y-61825000D03*
X26190000Y-61825000D03*
X23650000Y-61825000D03*
X21110000Y-61825000D03*
X18570000Y-61825000D03*
X16030000Y-61825000D03*
%TD*%
D23*
%TO.C,U2*%
X46950000Y-15270000D03*
X44410000Y-15270000D03*
X41870000Y-15270000D03*
X41920000Y-22890000D03*
X44460000Y-22890000D03*
X47000000Y-22890000D03*
X49540000Y-22890000D03*
%TD*%
D10*
%TO.C,J2*%
X56500000Y-75000000D03*
X56500000Y-74000000D03*
X56500000Y-73000000D03*
X56500000Y-72000000D03*
D11*
X60375000Y-76300000D03*
X60375000Y-70700000D03*
%TD*%
D21*
%TO.C,J10*%
X28993500Y-89840000D03*
D22*
X28993500Y-87300000D03*
X31533500Y-89840000D03*
X31533500Y-87300000D03*
X34073500Y-89840000D03*
X34073500Y-87300000D03*
X36613500Y-89840000D03*
X36613500Y-87300000D03*
X39153500Y-89840000D03*
X39153500Y-87300000D03*
X41693500Y-89840000D03*
X41693500Y-87300000D03*
X44233500Y-89840000D03*
X44233500Y-87300000D03*
X46773500Y-89840000D03*
X46773500Y-87300000D03*
X49313500Y-89840000D03*
X49313500Y-87300000D03*
X51853500Y-89840000D03*
X51853500Y-87300000D03*
%TD*%
D24*
%TO.C,R1*%
X51900000Y-14787500D03*
X51900000Y-16612500D03*
%TD*%
D19*
%TO.C,C1*%
X27627401Y-71200000D03*
D20*
X29627401Y-71200000D03*
%TD*%
D25*
%TO.C,Q1*%
X42360000Y-19500000D03*
D26*
X43630000Y-19500000D03*
X44900000Y-19500000D03*
%TD*%
D21*
%TO.C,J7*%
X38725000Y-15400000D03*
D22*
X36185000Y-15400000D03*
X33645000Y-15400000D03*
%TD*%
D27*
%TO.C,U3*%
X21980000Y-70000000D03*
X19440000Y-70000000D03*
D28*
X16900000Y-70000000D03*
%TD*%
D18*
%TO.C,H3*%
X58500000Y-88500000D03*
%TD*%
D10*
%TO.C,J5*%
X56500000Y-67000000D03*
X56500000Y-66000000D03*
X56500000Y-65000000D03*
X56500000Y-64000000D03*
D11*
X60375000Y-68300000D03*
X60375000Y-62700000D03*
%TD*%
D21*
%TO.C,J9*%
X60000000Y-51500000D03*
D22*
X57460000Y-51500000D03*
X54920000Y-51500000D03*
%TD*%
D18*
%TO.C,H1*%
X15500000Y-15500000D03*
%TD*%
D24*
%TO.C,R2*%
X54100000Y-14787500D03*
X54100000Y-16612500D03*
%TD*%
M02*
