%TF.GenerationSoftware,KiCad,Pcbnew,7.0.10*%
%TF.CreationDate,2024-08-04T17:12:35+10:00*%
%TF.ProjectId,AI4R-PIHAT,41493452-2d50-4494-9841-542e6b696361,rev?*%
%TF.SameCoordinates,Original*%
%TF.FileFunction,Legend,Bot*%
%TF.FilePolarity,Positive*%
%FSLAX46Y46*%
G04 Gerber Fmt 4.6, Leading zero omitted, Abs format (unit mm)*
G04 Created by KiCad (PCBNEW 7.0.10) date 2024-08-04 17:12:35*
%MOMM*%
%LPD*%
G01*
G04 APERTURE LIST*
%ADD10C,0.150000*%
%ADD11C,0.100000*%
%ADD12C,0.300000*%
%ADD13C,0.350000*%
G04 APERTURE END LIST*
D10*
X51882561Y-47039411D02*
X51930180Y-47134649D01*
X51930180Y-47134649D02*
X51930180Y-47277506D01*
X51930180Y-47277506D02*
X51882561Y-47420363D01*
X51882561Y-47420363D02*
X51787323Y-47515601D01*
X51787323Y-47515601D02*
X51692085Y-47563220D01*
X51692085Y-47563220D02*
X51501609Y-47610839D01*
X51501609Y-47610839D02*
X51358752Y-47610839D01*
X51358752Y-47610839D02*
X51168276Y-47563220D01*
X51168276Y-47563220D02*
X51073038Y-47515601D01*
X51073038Y-47515601D02*
X50977800Y-47420363D01*
X50977800Y-47420363D02*
X50930180Y-47277506D01*
X50930180Y-47277506D02*
X50930180Y-47182268D01*
X50930180Y-47182268D02*
X50977800Y-47039411D01*
X50977800Y-47039411D02*
X51025419Y-46991792D01*
X51025419Y-46991792D02*
X51358752Y-46991792D01*
X51358752Y-46991792D02*
X51358752Y-47182268D01*
X50930180Y-46563220D02*
X51930180Y-46563220D01*
X51930180Y-46563220D02*
X51930180Y-46182268D01*
X51930180Y-46182268D02*
X51882561Y-46087030D01*
X51882561Y-46087030D02*
X51834942Y-46039411D01*
X51834942Y-46039411D02*
X51739704Y-45991792D01*
X51739704Y-45991792D02*
X51596847Y-45991792D01*
X51596847Y-45991792D02*
X51501609Y-46039411D01*
X51501609Y-46039411D02*
X51453990Y-46087030D01*
X51453990Y-46087030D02*
X51406371Y-46182268D01*
X51406371Y-46182268D02*
X51406371Y-46563220D01*
X50930180Y-45563220D02*
X51930180Y-45563220D01*
X51930180Y-44896554D02*
X51930180Y-44706078D01*
X51930180Y-44706078D02*
X51882561Y-44610840D01*
X51882561Y-44610840D02*
X51787323Y-44515602D01*
X51787323Y-44515602D02*
X51596847Y-44467983D01*
X51596847Y-44467983D02*
X51263514Y-44467983D01*
X51263514Y-44467983D02*
X51073038Y-44515602D01*
X51073038Y-44515602D02*
X50977800Y-44610840D01*
X50977800Y-44610840D02*
X50930180Y-44706078D01*
X50930180Y-44706078D02*
X50930180Y-44896554D01*
X50930180Y-44896554D02*
X50977800Y-44991792D01*
X50977800Y-44991792D02*
X51073038Y-45087030D01*
X51073038Y-45087030D02*
X51263514Y-45134649D01*
X51263514Y-45134649D02*
X51596847Y-45134649D01*
X51596847Y-45134649D02*
X51787323Y-45087030D01*
X51787323Y-45087030D02*
X51882561Y-44991792D01*
X51882561Y-44991792D02*
X51930180Y-44896554D01*
X50930180Y-43515602D02*
X50930180Y-44087030D01*
X50930180Y-43801316D02*
X51930180Y-43801316D01*
X51930180Y-43801316D02*
X51787323Y-43896554D01*
X51787323Y-43896554D02*
X51692085Y-43991792D01*
X51692085Y-43991792D02*
X51644466Y-44087030D01*
X51501609Y-42944173D02*
X51549228Y-43039411D01*
X51549228Y-43039411D02*
X51596847Y-43087030D01*
X51596847Y-43087030D02*
X51692085Y-43134649D01*
X51692085Y-43134649D02*
X51739704Y-43134649D01*
X51739704Y-43134649D02*
X51834942Y-43087030D01*
X51834942Y-43087030D02*
X51882561Y-43039411D01*
X51882561Y-43039411D02*
X51930180Y-42944173D01*
X51930180Y-42944173D02*
X51930180Y-42753697D01*
X51930180Y-42753697D02*
X51882561Y-42658459D01*
X51882561Y-42658459D02*
X51834942Y-42610840D01*
X51834942Y-42610840D02*
X51739704Y-42563221D01*
X51739704Y-42563221D02*
X51692085Y-42563221D01*
X51692085Y-42563221D02*
X51596847Y-42610840D01*
X51596847Y-42610840D02*
X51549228Y-42658459D01*
X51549228Y-42658459D02*
X51501609Y-42753697D01*
X51501609Y-42753697D02*
X51501609Y-42944173D01*
X51501609Y-42944173D02*
X51453990Y-43039411D01*
X51453990Y-43039411D02*
X51406371Y-43087030D01*
X51406371Y-43087030D02*
X51311133Y-43134649D01*
X51311133Y-43134649D02*
X51120657Y-43134649D01*
X51120657Y-43134649D02*
X51025419Y-43087030D01*
X51025419Y-43087030D02*
X50977800Y-43039411D01*
X50977800Y-43039411D02*
X50930180Y-42944173D01*
X50930180Y-42944173D02*
X50930180Y-42753697D01*
X50930180Y-42753697D02*
X50977800Y-42658459D01*
X50977800Y-42658459D02*
X51025419Y-42610840D01*
X51025419Y-42610840D02*
X51120657Y-42563221D01*
X51120657Y-42563221D02*
X51311133Y-42563221D01*
X51311133Y-42563221D02*
X51406371Y-42610840D01*
X51406371Y-42610840D02*
X51453990Y-42658459D01*
X51453990Y-42658459D02*
X51501609Y-42753697D01*
X49382561Y-47039411D02*
X49430180Y-47134649D01*
X49430180Y-47134649D02*
X49430180Y-47277506D01*
X49430180Y-47277506D02*
X49382561Y-47420363D01*
X49382561Y-47420363D02*
X49287323Y-47515601D01*
X49287323Y-47515601D02*
X49192085Y-47563220D01*
X49192085Y-47563220D02*
X49001609Y-47610839D01*
X49001609Y-47610839D02*
X48858752Y-47610839D01*
X48858752Y-47610839D02*
X48668276Y-47563220D01*
X48668276Y-47563220D02*
X48573038Y-47515601D01*
X48573038Y-47515601D02*
X48477800Y-47420363D01*
X48477800Y-47420363D02*
X48430180Y-47277506D01*
X48430180Y-47277506D02*
X48430180Y-47182268D01*
X48430180Y-47182268D02*
X48477800Y-47039411D01*
X48477800Y-47039411D02*
X48525419Y-46991792D01*
X48525419Y-46991792D02*
X48858752Y-46991792D01*
X48858752Y-46991792D02*
X48858752Y-47182268D01*
X48430180Y-46563220D02*
X49430180Y-46563220D01*
X49430180Y-46563220D02*
X49430180Y-46182268D01*
X49430180Y-46182268D02*
X49382561Y-46087030D01*
X49382561Y-46087030D02*
X49334942Y-46039411D01*
X49334942Y-46039411D02*
X49239704Y-45991792D01*
X49239704Y-45991792D02*
X49096847Y-45991792D01*
X49096847Y-45991792D02*
X49001609Y-46039411D01*
X49001609Y-46039411D02*
X48953990Y-46087030D01*
X48953990Y-46087030D02*
X48906371Y-46182268D01*
X48906371Y-46182268D02*
X48906371Y-46563220D01*
X48430180Y-45563220D02*
X49430180Y-45563220D01*
X49430180Y-44896554D02*
X49430180Y-44706078D01*
X49430180Y-44706078D02*
X49382561Y-44610840D01*
X49382561Y-44610840D02*
X49287323Y-44515602D01*
X49287323Y-44515602D02*
X49096847Y-44467983D01*
X49096847Y-44467983D02*
X48763514Y-44467983D01*
X48763514Y-44467983D02*
X48573038Y-44515602D01*
X48573038Y-44515602D02*
X48477800Y-44610840D01*
X48477800Y-44610840D02*
X48430180Y-44706078D01*
X48430180Y-44706078D02*
X48430180Y-44896554D01*
X48430180Y-44896554D02*
X48477800Y-44991792D01*
X48477800Y-44991792D02*
X48573038Y-45087030D01*
X48573038Y-45087030D02*
X48763514Y-45134649D01*
X48763514Y-45134649D02*
X49096847Y-45134649D01*
X49096847Y-45134649D02*
X49287323Y-45087030D01*
X49287323Y-45087030D02*
X49382561Y-44991792D01*
X49382561Y-44991792D02*
X49430180Y-44896554D01*
X48430180Y-43515602D02*
X48430180Y-44087030D01*
X48430180Y-43801316D02*
X49430180Y-43801316D01*
X49430180Y-43801316D02*
X49287323Y-43896554D01*
X49287323Y-43896554D02*
X49192085Y-43991792D01*
X49192085Y-43991792D02*
X49144466Y-44087030D01*
X49430180Y-42610840D02*
X49430180Y-43087030D01*
X49430180Y-43087030D02*
X48953990Y-43134649D01*
X48953990Y-43134649D02*
X49001609Y-43087030D01*
X49001609Y-43087030D02*
X49049228Y-42991792D01*
X49049228Y-42991792D02*
X49049228Y-42753697D01*
X49049228Y-42753697D02*
X49001609Y-42658459D01*
X49001609Y-42658459D02*
X48953990Y-42610840D01*
X48953990Y-42610840D02*
X48858752Y-42563221D01*
X48858752Y-42563221D02*
X48620657Y-42563221D01*
X48620657Y-42563221D02*
X48525419Y-42610840D01*
X48525419Y-42610840D02*
X48477800Y-42658459D01*
X48477800Y-42658459D02*
X48430180Y-42753697D01*
X48430180Y-42753697D02*
X48430180Y-42991792D01*
X48430180Y-42991792D02*
X48477800Y-43087030D01*
X48477800Y-43087030D02*
X48525419Y-43134649D01*
D11*
X69538972Y-66272419D02*
X69205639Y-67272419D01*
X69205639Y-67272419D02*
X68872306Y-66272419D01*
X68015163Y-67272419D02*
X68586591Y-67272419D01*
X68300877Y-67272419D02*
X68300877Y-66272419D01*
X68300877Y-66272419D02*
X68396115Y-66415276D01*
X68396115Y-66415276D02*
X68491353Y-66510514D01*
X68491353Y-66510514D02*
X68586591Y-66558133D01*
X67586591Y-67177180D02*
X67538972Y-67224800D01*
X67538972Y-67224800D02*
X67586591Y-67272419D01*
X67586591Y-67272419D02*
X67634210Y-67224800D01*
X67634210Y-67224800D02*
X67586591Y-67177180D01*
X67586591Y-67177180D02*
X67586591Y-67272419D01*
X66919925Y-66272419D02*
X66824687Y-66272419D01*
X66824687Y-66272419D02*
X66729449Y-66320038D01*
X66729449Y-66320038D02*
X66681830Y-66367657D01*
X66681830Y-66367657D02*
X66634211Y-66462895D01*
X66634211Y-66462895D02*
X66586592Y-66653371D01*
X66586592Y-66653371D02*
X66586592Y-66891466D01*
X66586592Y-66891466D02*
X66634211Y-67081942D01*
X66634211Y-67081942D02*
X66681830Y-67177180D01*
X66681830Y-67177180D02*
X66729449Y-67224800D01*
X66729449Y-67224800D02*
X66824687Y-67272419D01*
X66824687Y-67272419D02*
X66919925Y-67272419D01*
X66919925Y-67272419D02*
X67015163Y-67224800D01*
X67015163Y-67224800D02*
X67062782Y-67177180D01*
X67062782Y-67177180D02*
X67110401Y-67081942D01*
X67110401Y-67081942D02*
X67158020Y-66891466D01*
X67158020Y-66891466D02*
X67158020Y-66653371D01*
X67158020Y-66653371D02*
X67110401Y-66462895D01*
X67110401Y-66462895D02*
X67062782Y-66367657D01*
X67062782Y-66367657D02*
X67015163Y-66320038D01*
X67015163Y-66320038D02*
X66919925Y-66272419D01*
X65110401Y-66272419D02*
X65110401Y-66986704D01*
X65110401Y-66986704D02*
X65158020Y-67129561D01*
X65158020Y-67129561D02*
X65253258Y-67224800D01*
X65253258Y-67224800D02*
X65396115Y-67272419D01*
X65396115Y-67272419D02*
X65491353Y-67272419D01*
X64205639Y-66605752D02*
X64205639Y-67272419D01*
X64634210Y-66605752D02*
X64634210Y-67129561D01*
X64634210Y-67129561D02*
X64586591Y-67224800D01*
X64586591Y-67224800D02*
X64491353Y-67272419D01*
X64491353Y-67272419D02*
X64348496Y-67272419D01*
X64348496Y-67272419D02*
X64253258Y-67224800D01*
X64253258Y-67224800D02*
X64205639Y-67177180D01*
X63729448Y-66605752D02*
X63729448Y-67272419D01*
X63729448Y-66700990D02*
X63681829Y-66653371D01*
X63681829Y-66653371D02*
X63586591Y-66605752D01*
X63586591Y-66605752D02*
X63443734Y-66605752D01*
X63443734Y-66605752D02*
X63348496Y-66653371D01*
X63348496Y-66653371D02*
X63300877Y-66748609D01*
X63300877Y-66748609D02*
X63300877Y-67272419D01*
X62443734Y-67224800D02*
X62538972Y-67272419D01*
X62538972Y-67272419D02*
X62729448Y-67272419D01*
X62729448Y-67272419D02*
X62824686Y-67224800D01*
X62824686Y-67224800D02*
X62872305Y-67129561D01*
X62872305Y-67129561D02*
X62872305Y-66748609D01*
X62872305Y-66748609D02*
X62824686Y-66653371D01*
X62824686Y-66653371D02*
X62729448Y-66605752D01*
X62729448Y-66605752D02*
X62538972Y-66605752D01*
X62538972Y-66605752D02*
X62443734Y-66653371D01*
X62443734Y-66653371D02*
X62396115Y-66748609D01*
X62396115Y-66748609D02*
X62396115Y-66843847D01*
X62396115Y-66843847D02*
X62872305Y-66939085D01*
X61253257Y-66367657D02*
X61205638Y-66320038D01*
X61205638Y-66320038D02*
X61110400Y-66272419D01*
X61110400Y-66272419D02*
X60872305Y-66272419D01*
X60872305Y-66272419D02*
X60777067Y-66320038D01*
X60777067Y-66320038D02*
X60729448Y-66367657D01*
X60729448Y-66367657D02*
X60681829Y-66462895D01*
X60681829Y-66462895D02*
X60681829Y-66558133D01*
X60681829Y-66558133D02*
X60729448Y-66700990D01*
X60729448Y-66700990D02*
X61300876Y-67272419D01*
X61300876Y-67272419D02*
X60681829Y-67272419D01*
X60062781Y-66272419D02*
X59967543Y-66272419D01*
X59967543Y-66272419D02*
X59872305Y-66320038D01*
X59872305Y-66320038D02*
X59824686Y-66367657D01*
X59824686Y-66367657D02*
X59777067Y-66462895D01*
X59777067Y-66462895D02*
X59729448Y-66653371D01*
X59729448Y-66653371D02*
X59729448Y-66891466D01*
X59729448Y-66891466D02*
X59777067Y-67081942D01*
X59777067Y-67081942D02*
X59824686Y-67177180D01*
X59824686Y-67177180D02*
X59872305Y-67224800D01*
X59872305Y-67224800D02*
X59967543Y-67272419D01*
X59967543Y-67272419D02*
X60062781Y-67272419D01*
X60062781Y-67272419D02*
X60158019Y-67224800D01*
X60158019Y-67224800D02*
X60205638Y-67177180D01*
X60205638Y-67177180D02*
X60253257Y-67081942D01*
X60253257Y-67081942D02*
X60300876Y-66891466D01*
X60300876Y-66891466D02*
X60300876Y-66653371D01*
X60300876Y-66653371D02*
X60253257Y-66462895D01*
X60253257Y-66462895D02*
X60205638Y-66367657D01*
X60205638Y-66367657D02*
X60158019Y-66320038D01*
X60158019Y-66320038D02*
X60062781Y-66272419D01*
X59348495Y-66367657D02*
X59300876Y-66320038D01*
X59300876Y-66320038D02*
X59205638Y-66272419D01*
X59205638Y-66272419D02*
X58967543Y-66272419D01*
X58967543Y-66272419D02*
X58872305Y-66320038D01*
X58872305Y-66320038D02*
X58824686Y-66367657D01*
X58824686Y-66367657D02*
X58777067Y-66462895D01*
X58777067Y-66462895D02*
X58777067Y-66558133D01*
X58777067Y-66558133D02*
X58824686Y-66700990D01*
X58824686Y-66700990D02*
X59396114Y-67272419D01*
X59396114Y-67272419D02*
X58777067Y-67272419D01*
X57919924Y-66605752D02*
X57919924Y-67272419D01*
X58158019Y-66224800D02*
X58396114Y-66939085D01*
X58396114Y-66939085D02*
X57777067Y-66939085D01*
D10*
X39182561Y-47039411D02*
X39230180Y-47134649D01*
X39230180Y-47134649D02*
X39230180Y-47277506D01*
X39230180Y-47277506D02*
X39182561Y-47420363D01*
X39182561Y-47420363D02*
X39087323Y-47515601D01*
X39087323Y-47515601D02*
X38992085Y-47563220D01*
X38992085Y-47563220D02*
X38801609Y-47610839D01*
X38801609Y-47610839D02*
X38658752Y-47610839D01*
X38658752Y-47610839D02*
X38468276Y-47563220D01*
X38468276Y-47563220D02*
X38373038Y-47515601D01*
X38373038Y-47515601D02*
X38277800Y-47420363D01*
X38277800Y-47420363D02*
X38230180Y-47277506D01*
X38230180Y-47277506D02*
X38230180Y-47182268D01*
X38230180Y-47182268D02*
X38277800Y-47039411D01*
X38277800Y-47039411D02*
X38325419Y-46991792D01*
X38325419Y-46991792D02*
X38658752Y-46991792D01*
X38658752Y-46991792D02*
X38658752Y-47182268D01*
X38230180Y-46563220D02*
X39230180Y-46563220D01*
X39230180Y-46563220D02*
X39230180Y-46182268D01*
X39230180Y-46182268D02*
X39182561Y-46087030D01*
X39182561Y-46087030D02*
X39134942Y-46039411D01*
X39134942Y-46039411D02*
X39039704Y-45991792D01*
X39039704Y-45991792D02*
X38896847Y-45991792D01*
X38896847Y-45991792D02*
X38801609Y-46039411D01*
X38801609Y-46039411D02*
X38753990Y-46087030D01*
X38753990Y-46087030D02*
X38706371Y-46182268D01*
X38706371Y-46182268D02*
X38706371Y-46563220D01*
X38230180Y-45563220D02*
X39230180Y-45563220D01*
X39230180Y-44896554D02*
X39230180Y-44706078D01*
X39230180Y-44706078D02*
X39182561Y-44610840D01*
X39182561Y-44610840D02*
X39087323Y-44515602D01*
X39087323Y-44515602D02*
X38896847Y-44467983D01*
X38896847Y-44467983D02*
X38563514Y-44467983D01*
X38563514Y-44467983D02*
X38373038Y-44515602D01*
X38373038Y-44515602D02*
X38277800Y-44610840D01*
X38277800Y-44610840D02*
X38230180Y-44706078D01*
X38230180Y-44706078D02*
X38230180Y-44896554D01*
X38230180Y-44896554D02*
X38277800Y-44991792D01*
X38277800Y-44991792D02*
X38373038Y-45087030D01*
X38373038Y-45087030D02*
X38563514Y-45134649D01*
X38563514Y-45134649D02*
X38896847Y-45134649D01*
X38896847Y-45134649D02*
X39087323Y-45087030D01*
X39087323Y-45087030D02*
X39182561Y-44991792D01*
X39182561Y-44991792D02*
X39230180Y-44896554D01*
X38230180Y-43991792D02*
X38230180Y-43801316D01*
X38230180Y-43801316D02*
X38277800Y-43706078D01*
X38277800Y-43706078D02*
X38325419Y-43658459D01*
X38325419Y-43658459D02*
X38468276Y-43563221D01*
X38468276Y-43563221D02*
X38658752Y-43515602D01*
X38658752Y-43515602D02*
X39039704Y-43515602D01*
X39039704Y-43515602D02*
X39134942Y-43563221D01*
X39134942Y-43563221D02*
X39182561Y-43610840D01*
X39182561Y-43610840D02*
X39230180Y-43706078D01*
X39230180Y-43706078D02*
X39230180Y-43896554D01*
X39230180Y-43896554D02*
X39182561Y-43991792D01*
X39182561Y-43991792D02*
X39134942Y-44039411D01*
X39134942Y-44039411D02*
X39039704Y-44087030D01*
X39039704Y-44087030D02*
X38801609Y-44087030D01*
X38801609Y-44087030D02*
X38706371Y-44039411D01*
X38706371Y-44039411D02*
X38658752Y-43991792D01*
X38658752Y-43991792D02*
X38611133Y-43896554D01*
X38611133Y-43896554D02*
X38611133Y-43706078D01*
X38611133Y-43706078D02*
X38658752Y-43610840D01*
X38658752Y-43610840D02*
X38706371Y-43563221D01*
X38706371Y-43563221D02*
X38801609Y-43515602D01*
X57625125Y-54903152D02*
X57625125Y-53474580D01*
X56910839Y-54188866D02*
X56148935Y-54188866D01*
X55672744Y-54188866D02*
X54910840Y-54188866D01*
X54434649Y-54188866D02*
X53672745Y-54188866D01*
X53196554Y-54188866D02*
X52434650Y-54188866D01*
X51958459Y-54188866D02*
X51196555Y-54188866D01*
X50720364Y-54188866D02*
X49958460Y-54188866D01*
X49482269Y-54188866D02*
X48720365Y-54188866D01*
X48244174Y-54188866D02*
X47482270Y-54188866D01*
X46482270Y-53617438D02*
X46577508Y-53569819D01*
X46577508Y-53569819D02*
X46720365Y-53569819D01*
X46720365Y-53569819D02*
X46863222Y-53617438D01*
X46863222Y-53617438D02*
X46958460Y-53712676D01*
X46958460Y-53712676D02*
X47006079Y-53807914D01*
X47006079Y-53807914D02*
X47053698Y-53998390D01*
X47053698Y-53998390D02*
X47053698Y-54141247D01*
X47053698Y-54141247D02*
X47006079Y-54331723D01*
X47006079Y-54331723D02*
X46958460Y-54426961D01*
X46958460Y-54426961D02*
X46863222Y-54522200D01*
X46863222Y-54522200D02*
X46720365Y-54569819D01*
X46720365Y-54569819D02*
X46625127Y-54569819D01*
X46625127Y-54569819D02*
X46482270Y-54522200D01*
X46482270Y-54522200D02*
X46434651Y-54474580D01*
X46434651Y-54474580D02*
X46434651Y-54141247D01*
X46434651Y-54141247D02*
X46625127Y-54141247D01*
X46006079Y-54569819D02*
X46006079Y-53569819D01*
X46006079Y-53569819D02*
X45434651Y-54569819D01*
X45434651Y-54569819D02*
X45434651Y-53569819D01*
X44958460Y-54569819D02*
X44958460Y-53569819D01*
X44958460Y-53569819D02*
X44720365Y-53569819D01*
X44720365Y-53569819D02*
X44577508Y-53617438D01*
X44577508Y-53617438D02*
X44482270Y-53712676D01*
X44482270Y-53712676D02*
X44434651Y-53807914D01*
X44434651Y-53807914D02*
X44387032Y-53998390D01*
X44387032Y-53998390D02*
X44387032Y-54141247D01*
X44387032Y-54141247D02*
X44434651Y-54331723D01*
X44434651Y-54331723D02*
X44482270Y-54426961D01*
X44482270Y-54426961D02*
X44577508Y-54522200D01*
X44577508Y-54522200D02*
X44720365Y-54569819D01*
X44720365Y-54569819D02*
X44958460Y-54569819D01*
X43958460Y-54188866D02*
X43196556Y-54188866D01*
X42720365Y-54188866D02*
X41958461Y-54188866D01*
X41482270Y-54188866D02*
X40720366Y-54188866D01*
X40244175Y-54188866D02*
X39482271Y-54188866D01*
X39006080Y-54188866D02*
X38244176Y-54188866D01*
X37767985Y-54188866D02*
X37006081Y-54188866D01*
X36529890Y-54188866D02*
X35767986Y-54188866D01*
X35291795Y-54188866D02*
X34529891Y-54188866D01*
X34053700Y-54188866D02*
X33291796Y-54188866D01*
X32577510Y-54903152D02*
X32577510Y-53474580D01*
X54530180Y-47658458D02*
X54530180Y-47039411D01*
X54530180Y-47039411D02*
X54149228Y-47372744D01*
X54149228Y-47372744D02*
X54149228Y-47229887D01*
X54149228Y-47229887D02*
X54101609Y-47134649D01*
X54101609Y-47134649D02*
X54053990Y-47087030D01*
X54053990Y-47087030D02*
X53958752Y-47039411D01*
X53958752Y-47039411D02*
X53720657Y-47039411D01*
X53720657Y-47039411D02*
X53625419Y-47087030D01*
X53625419Y-47087030D02*
X53577800Y-47134649D01*
X53577800Y-47134649D02*
X53530180Y-47229887D01*
X53530180Y-47229887D02*
X53530180Y-47515601D01*
X53530180Y-47515601D02*
X53577800Y-47610839D01*
X53577800Y-47610839D02*
X53625419Y-47658458D01*
X54530180Y-46753696D02*
X53530180Y-46420363D01*
X53530180Y-46420363D02*
X54530180Y-46087030D01*
X54530180Y-45848934D02*
X54530180Y-45229887D01*
X54530180Y-45229887D02*
X54149228Y-45563220D01*
X54149228Y-45563220D02*
X54149228Y-45420363D01*
X54149228Y-45420363D02*
X54101609Y-45325125D01*
X54101609Y-45325125D02*
X54053990Y-45277506D01*
X54053990Y-45277506D02*
X53958752Y-45229887D01*
X53958752Y-45229887D02*
X53720657Y-45229887D01*
X53720657Y-45229887D02*
X53625419Y-45277506D01*
X53625419Y-45277506D02*
X53577800Y-45325125D01*
X53577800Y-45325125D02*
X53530180Y-45420363D01*
X53530180Y-45420363D02*
X53530180Y-45706077D01*
X53530180Y-45706077D02*
X53577800Y-45801315D01*
X53577800Y-45801315D02*
X53625419Y-45848934D01*
X46782561Y-47039411D02*
X46830180Y-47134649D01*
X46830180Y-47134649D02*
X46830180Y-47277506D01*
X46830180Y-47277506D02*
X46782561Y-47420363D01*
X46782561Y-47420363D02*
X46687323Y-47515601D01*
X46687323Y-47515601D02*
X46592085Y-47563220D01*
X46592085Y-47563220D02*
X46401609Y-47610839D01*
X46401609Y-47610839D02*
X46258752Y-47610839D01*
X46258752Y-47610839D02*
X46068276Y-47563220D01*
X46068276Y-47563220D02*
X45973038Y-47515601D01*
X45973038Y-47515601D02*
X45877800Y-47420363D01*
X45877800Y-47420363D02*
X45830180Y-47277506D01*
X45830180Y-47277506D02*
X45830180Y-47182268D01*
X45830180Y-47182268D02*
X45877800Y-47039411D01*
X45877800Y-47039411D02*
X45925419Y-46991792D01*
X45925419Y-46991792D02*
X46258752Y-46991792D01*
X46258752Y-46991792D02*
X46258752Y-47182268D01*
X45830180Y-46563220D02*
X46830180Y-46563220D01*
X46830180Y-46563220D02*
X46830180Y-46182268D01*
X46830180Y-46182268D02*
X46782561Y-46087030D01*
X46782561Y-46087030D02*
X46734942Y-46039411D01*
X46734942Y-46039411D02*
X46639704Y-45991792D01*
X46639704Y-45991792D02*
X46496847Y-45991792D01*
X46496847Y-45991792D02*
X46401609Y-46039411D01*
X46401609Y-46039411D02*
X46353990Y-46087030D01*
X46353990Y-46087030D02*
X46306371Y-46182268D01*
X46306371Y-46182268D02*
X46306371Y-46563220D01*
X45830180Y-45563220D02*
X46830180Y-45563220D01*
X46830180Y-44896554D02*
X46830180Y-44706078D01*
X46830180Y-44706078D02*
X46782561Y-44610840D01*
X46782561Y-44610840D02*
X46687323Y-44515602D01*
X46687323Y-44515602D02*
X46496847Y-44467983D01*
X46496847Y-44467983D02*
X46163514Y-44467983D01*
X46163514Y-44467983D02*
X45973038Y-44515602D01*
X45973038Y-44515602D02*
X45877800Y-44610840D01*
X45877800Y-44610840D02*
X45830180Y-44706078D01*
X45830180Y-44706078D02*
X45830180Y-44896554D01*
X45830180Y-44896554D02*
X45877800Y-44991792D01*
X45877800Y-44991792D02*
X45973038Y-45087030D01*
X45973038Y-45087030D02*
X46163514Y-45134649D01*
X46163514Y-45134649D02*
X46496847Y-45134649D01*
X46496847Y-45134649D02*
X46687323Y-45087030D01*
X46687323Y-45087030D02*
X46782561Y-44991792D01*
X46782561Y-44991792D02*
X46830180Y-44896554D01*
X45830180Y-43515602D02*
X45830180Y-44087030D01*
X45830180Y-43801316D02*
X46830180Y-43801316D01*
X46830180Y-43801316D02*
X46687323Y-43896554D01*
X46687323Y-43896554D02*
X46592085Y-43991792D01*
X46592085Y-43991792D02*
X46544466Y-44087030D01*
X46496847Y-42658459D02*
X45830180Y-42658459D01*
X46877800Y-42896554D02*
X46163514Y-43134649D01*
X46163514Y-43134649D02*
X46163514Y-42515602D01*
X57030180Y-47758458D02*
X57030180Y-47139411D01*
X57030180Y-47139411D02*
X56649228Y-47472744D01*
X56649228Y-47472744D02*
X56649228Y-47329887D01*
X56649228Y-47329887D02*
X56601609Y-47234649D01*
X56601609Y-47234649D02*
X56553990Y-47187030D01*
X56553990Y-47187030D02*
X56458752Y-47139411D01*
X56458752Y-47139411D02*
X56220657Y-47139411D01*
X56220657Y-47139411D02*
X56125419Y-47187030D01*
X56125419Y-47187030D02*
X56077800Y-47234649D01*
X56077800Y-47234649D02*
X56030180Y-47329887D01*
X56030180Y-47329887D02*
X56030180Y-47615601D01*
X56030180Y-47615601D02*
X56077800Y-47710839D01*
X56077800Y-47710839D02*
X56125419Y-47758458D01*
X57030180Y-46853696D02*
X56030180Y-46520363D01*
X56030180Y-46520363D02*
X57030180Y-46187030D01*
X57030180Y-45948934D02*
X57030180Y-45329887D01*
X57030180Y-45329887D02*
X56649228Y-45663220D01*
X56649228Y-45663220D02*
X56649228Y-45520363D01*
X56649228Y-45520363D02*
X56601609Y-45425125D01*
X56601609Y-45425125D02*
X56553990Y-45377506D01*
X56553990Y-45377506D02*
X56458752Y-45329887D01*
X56458752Y-45329887D02*
X56220657Y-45329887D01*
X56220657Y-45329887D02*
X56125419Y-45377506D01*
X56125419Y-45377506D02*
X56077800Y-45425125D01*
X56077800Y-45425125D02*
X56030180Y-45520363D01*
X56030180Y-45520363D02*
X56030180Y-45806077D01*
X56030180Y-45806077D02*
X56077800Y-45901315D01*
X56077800Y-45901315D02*
X56125419Y-45948934D01*
D12*
X64961906Y-29399638D02*
X63819049Y-29399638D01*
X64390478Y-31399638D02*
X64390478Y-29399638D01*
X63152382Y-31399638D02*
X63152382Y-29399638D01*
X62295239Y-31399638D02*
X62295239Y-30352019D01*
X62295239Y-30352019D02*
X62390477Y-30161542D01*
X62390477Y-30161542D02*
X62580953Y-30066304D01*
X62580953Y-30066304D02*
X62866668Y-30066304D01*
X62866668Y-30066304D02*
X63057144Y-30161542D01*
X63057144Y-30161542D02*
X63152382Y-30256780D01*
X60580953Y-31304400D02*
X60771429Y-31399638D01*
X60771429Y-31399638D02*
X61152382Y-31399638D01*
X61152382Y-31399638D02*
X61342858Y-31304400D01*
X61342858Y-31304400D02*
X61438096Y-31113923D01*
X61438096Y-31113923D02*
X61438096Y-30352019D01*
X61438096Y-30352019D02*
X61342858Y-30161542D01*
X61342858Y-30161542D02*
X61152382Y-30066304D01*
X61152382Y-30066304D02*
X60771429Y-30066304D01*
X60771429Y-30066304D02*
X60580953Y-30161542D01*
X60580953Y-30161542D02*
X60485715Y-30352019D01*
X60485715Y-30352019D02*
X60485715Y-30542495D01*
X60485715Y-30542495D02*
X61438096Y-30732971D01*
X58104762Y-29399638D02*
X58104762Y-31018685D01*
X58104762Y-31018685D02*
X58009524Y-31209161D01*
X58009524Y-31209161D02*
X57914286Y-31304400D01*
X57914286Y-31304400D02*
X57723810Y-31399638D01*
X57723810Y-31399638D02*
X57342857Y-31399638D01*
X57342857Y-31399638D02*
X57152381Y-31304400D01*
X57152381Y-31304400D02*
X57057143Y-31209161D01*
X57057143Y-31209161D02*
X56961905Y-31018685D01*
X56961905Y-31018685D02*
X56961905Y-29399638D01*
X56009524Y-30066304D02*
X56009524Y-31399638D01*
X56009524Y-30256780D02*
X55914286Y-30161542D01*
X55914286Y-30161542D02*
X55723810Y-30066304D01*
X55723810Y-30066304D02*
X55438095Y-30066304D01*
X55438095Y-30066304D02*
X55247619Y-30161542D01*
X55247619Y-30161542D02*
X55152381Y-30352019D01*
X55152381Y-30352019D02*
X55152381Y-31399638D01*
X54200000Y-31399638D02*
X54200000Y-30066304D01*
X54200000Y-29399638D02*
X54295238Y-29494876D01*
X54295238Y-29494876D02*
X54200000Y-29590114D01*
X54200000Y-29590114D02*
X54104762Y-29494876D01*
X54104762Y-29494876D02*
X54200000Y-29399638D01*
X54200000Y-29399638D02*
X54200000Y-29590114D01*
X53438095Y-30066304D02*
X52961905Y-31399638D01*
X52961905Y-31399638D02*
X52485714Y-30066304D01*
X50961904Y-31304400D02*
X51152380Y-31399638D01*
X51152380Y-31399638D02*
X51533333Y-31399638D01*
X51533333Y-31399638D02*
X51723809Y-31304400D01*
X51723809Y-31304400D02*
X51819047Y-31113923D01*
X51819047Y-31113923D02*
X51819047Y-30352019D01*
X51819047Y-30352019D02*
X51723809Y-30161542D01*
X51723809Y-30161542D02*
X51533333Y-30066304D01*
X51533333Y-30066304D02*
X51152380Y-30066304D01*
X51152380Y-30066304D02*
X50961904Y-30161542D01*
X50961904Y-30161542D02*
X50866666Y-30352019D01*
X50866666Y-30352019D02*
X50866666Y-30542495D01*
X50866666Y-30542495D02*
X51819047Y-30732971D01*
X50009523Y-31399638D02*
X50009523Y-30066304D01*
X50009523Y-30447257D02*
X49914285Y-30256780D01*
X49914285Y-30256780D02*
X49819047Y-30161542D01*
X49819047Y-30161542D02*
X49628571Y-30066304D01*
X49628571Y-30066304D02*
X49438094Y-30066304D01*
X48866666Y-31304400D02*
X48676190Y-31399638D01*
X48676190Y-31399638D02*
X48295238Y-31399638D01*
X48295238Y-31399638D02*
X48104761Y-31304400D01*
X48104761Y-31304400D02*
X48009523Y-31113923D01*
X48009523Y-31113923D02*
X48009523Y-31018685D01*
X48009523Y-31018685D02*
X48104761Y-30828209D01*
X48104761Y-30828209D02*
X48295238Y-30732971D01*
X48295238Y-30732971D02*
X48580952Y-30732971D01*
X48580952Y-30732971D02*
X48771428Y-30637733D01*
X48771428Y-30637733D02*
X48866666Y-30447257D01*
X48866666Y-30447257D02*
X48866666Y-30352019D01*
X48866666Y-30352019D02*
X48771428Y-30161542D01*
X48771428Y-30161542D02*
X48580952Y-30066304D01*
X48580952Y-30066304D02*
X48295238Y-30066304D01*
X48295238Y-30066304D02*
X48104761Y-30161542D01*
X47152380Y-31399638D02*
X47152380Y-30066304D01*
X47152380Y-29399638D02*
X47247618Y-29494876D01*
X47247618Y-29494876D02*
X47152380Y-29590114D01*
X47152380Y-29590114D02*
X47057142Y-29494876D01*
X47057142Y-29494876D02*
X47152380Y-29399638D01*
X47152380Y-29399638D02*
X47152380Y-29590114D01*
X46485713Y-30066304D02*
X45723809Y-30066304D01*
X46199999Y-29399638D02*
X46199999Y-31113923D01*
X46199999Y-31113923D02*
X46104761Y-31304400D01*
X46104761Y-31304400D02*
X45914285Y-31399638D01*
X45914285Y-31399638D02*
X45723809Y-31399638D01*
X45247618Y-30066304D02*
X44771428Y-31399638D01*
X44295237Y-30066304D02*
X44771428Y-31399638D01*
X44771428Y-31399638D02*
X44961904Y-31875828D01*
X44961904Y-31875828D02*
X45057142Y-31971066D01*
X45057142Y-31971066D02*
X45247618Y-32066304D01*
X41723808Y-31399638D02*
X41914284Y-31304400D01*
X41914284Y-31304400D02*
X42009522Y-31209161D01*
X42009522Y-31209161D02*
X42104760Y-31018685D01*
X42104760Y-31018685D02*
X42104760Y-30447257D01*
X42104760Y-30447257D02*
X42009522Y-30256780D01*
X42009522Y-30256780D02*
X41914284Y-30161542D01*
X41914284Y-30161542D02*
X41723808Y-30066304D01*
X41723808Y-30066304D02*
X41438093Y-30066304D01*
X41438093Y-30066304D02*
X41247617Y-30161542D01*
X41247617Y-30161542D02*
X41152379Y-30256780D01*
X41152379Y-30256780D02*
X41057141Y-30447257D01*
X41057141Y-30447257D02*
X41057141Y-31018685D01*
X41057141Y-31018685D02*
X41152379Y-31209161D01*
X41152379Y-31209161D02*
X41247617Y-31304400D01*
X41247617Y-31304400D02*
X41438093Y-31399638D01*
X41438093Y-31399638D02*
X41723808Y-31399638D01*
X40485712Y-30066304D02*
X39723808Y-30066304D01*
X40199998Y-31399638D02*
X40199998Y-29685352D01*
X40199998Y-29685352D02*
X40104760Y-29494876D01*
X40104760Y-29494876D02*
X39914284Y-29399638D01*
X39914284Y-29399638D02*
X39723808Y-29399638D01*
X37533331Y-31399638D02*
X37533331Y-29399638D01*
X37533331Y-29399638D02*
X36866664Y-30828209D01*
X36866664Y-30828209D02*
X36199998Y-29399638D01*
X36199998Y-29399638D02*
X36199998Y-31399638D01*
X34485712Y-31304400D02*
X34676188Y-31399638D01*
X34676188Y-31399638D02*
X35057141Y-31399638D01*
X35057141Y-31399638D02*
X35247617Y-31304400D01*
X35247617Y-31304400D02*
X35342855Y-31113923D01*
X35342855Y-31113923D02*
X35342855Y-30352019D01*
X35342855Y-30352019D02*
X35247617Y-30161542D01*
X35247617Y-30161542D02*
X35057141Y-30066304D01*
X35057141Y-30066304D02*
X34676188Y-30066304D01*
X34676188Y-30066304D02*
X34485712Y-30161542D01*
X34485712Y-30161542D02*
X34390474Y-30352019D01*
X34390474Y-30352019D02*
X34390474Y-30542495D01*
X34390474Y-30542495D02*
X35342855Y-30732971D01*
X33247617Y-31399638D02*
X33438093Y-31304400D01*
X33438093Y-31304400D02*
X33533331Y-31113923D01*
X33533331Y-31113923D02*
X33533331Y-29399638D01*
X32485712Y-31399638D02*
X32485712Y-29399638D01*
X32485712Y-30161542D02*
X32295236Y-30066304D01*
X32295236Y-30066304D02*
X31914283Y-30066304D01*
X31914283Y-30066304D02*
X31723807Y-30161542D01*
X31723807Y-30161542D02*
X31628569Y-30256780D01*
X31628569Y-30256780D02*
X31533331Y-30447257D01*
X31533331Y-30447257D02*
X31533331Y-31018685D01*
X31533331Y-31018685D02*
X31628569Y-31209161D01*
X31628569Y-31209161D02*
X31723807Y-31304400D01*
X31723807Y-31304400D02*
X31914283Y-31399638D01*
X31914283Y-31399638D02*
X32295236Y-31399638D01*
X32295236Y-31399638D02*
X32485712Y-31304400D01*
X30390474Y-31399638D02*
X30580950Y-31304400D01*
X30580950Y-31304400D02*
X30676188Y-31209161D01*
X30676188Y-31209161D02*
X30771426Y-31018685D01*
X30771426Y-31018685D02*
X30771426Y-30447257D01*
X30771426Y-30447257D02*
X30676188Y-30256780D01*
X30676188Y-30256780D02*
X30580950Y-30161542D01*
X30580950Y-30161542D02*
X30390474Y-30066304D01*
X30390474Y-30066304D02*
X30104759Y-30066304D01*
X30104759Y-30066304D02*
X29914283Y-30161542D01*
X29914283Y-30161542D02*
X29819045Y-30256780D01*
X29819045Y-30256780D02*
X29723807Y-30447257D01*
X29723807Y-30447257D02*
X29723807Y-31018685D01*
X29723807Y-31018685D02*
X29819045Y-31209161D01*
X29819045Y-31209161D02*
X29914283Y-31304400D01*
X29914283Y-31304400D02*
X30104759Y-31399638D01*
X30104759Y-31399638D02*
X30390474Y-31399638D01*
X28009521Y-30066304D02*
X28009521Y-31399638D01*
X28866664Y-30066304D02*
X28866664Y-31113923D01*
X28866664Y-31113923D02*
X28771426Y-31304400D01*
X28771426Y-31304400D02*
X28580950Y-31399638D01*
X28580950Y-31399638D02*
X28295235Y-31399638D01*
X28295235Y-31399638D02*
X28104759Y-31304400D01*
X28104759Y-31304400D02*
X28009521Y-31209161D01*
X27057140Y-31399638D02*
X27057140Y-30066304D01*
X27057140Y-30447257D02*
X26961902Y-30256780D01*
X26961902Y-30256780D02*
X26866664Y-30161542D01*
X26866664Y-30161542D02*
X26676188Y-30066304D01*
X26676188Y-30066304D02*
X26485711Y-30066304D01*
X25819045Y-30066304D02*
X25819045Y-31399638D01*
X25819045Y-30256780D02*
X25723807Y-30161542D01*
X25723807Y-30161542D02*
X25533331Y-30066304D01*
X25533331Y-30066304D02*
X25247616Y-30066304D01*
X25247616Y-30066304D02*
X25057140Y-30161542D01*
X25057140Y-30161542D02*
X24961902Y-30352019D01*
X24961902Y-30352019D02*
X24961902Y-31399638D01*
X23247616Y-31304400D02*
X23438092Y-31399638D01*
X23438092Y-31399638D02*
X23819045Y-31399638D01*
X23819045Y-31399638D02*
X24009521Y-31304400D01*
X24009521Y-31304400D02*
X24104759Y-31113923D01*
X24104759Y-31113923D02*
X24104759Y-30352019D01*
X24104759Y-30352019D02*
X24009521Y-30161542D01*
X24009521Y-30161542D02*
X23819045Y-30066304D01*
X23819045Y-30066304D02*
X23438092Y-30066304D01*
X23438092Y-30066304D02*
X23247616Y-30161542D01*
X23247616Y-30161542D02*
X23152378Y-30352019D01*
X23152378Y-30352019D02*
X23152378Y-30542495D01*
X23152378Y-30542495D02*
X24104759Y-30732971D01*
X65580954Y-34619638D02*
X65580954Y-32619638D01*
X65580954Y-32619638D02*
X65104764Y-32619638D01*
X65104764Y-32619638D02*
X64819049Y-32714876D01*
X64819049Y-32714876D02*
X64628573Y-32905352D01*
X64628573Y-32905352D02*
X64533335Y-33095828D01*
X64533335Y-33095828D02*
X64438097Y-33476780D01*
X64438097Y-33476780D02*
X64438097Y-33762495D01*
X64438097Y-33762495D02*
X64533335Y-34143447D01*
X64533335Y-34143447D02*
X64628573Y-34333923D01*
X64628573Y-34333923D02*
X64819049Y-34524400D01*
X64819049Y-34524400D02*
X65104764Y-34619638D01*
X65104764Y-34619638D02*
X65580954Y-34619638D01*
X62819049Y-34524400D02*
X63009525Y-34619638D01*
X63009525Y-34619638D02*
X63390478Y-34619638D01*
X63390478Y-34619638D02*
X63580954Y-34524400D01*
X63580954Y-34524400D02*
X63676192Y-34333923D01*
X63676192Y-34333923D02*
X63676192Y-33572019D01*
X63676192Y-33572019D02*
X63580954Y-33381542D01*
X63580954Y-33381542D02*
X63390478Y-33286304D01*
X63390478Y-33286304D02*
X63009525Y-33286304D01*
X63009525Y-33286304D02*
X62819049Y-33381542D01*
X62819049Y-33381542D02*
X62723811Y-33572019D01*
X62723811Y-33572019D02*
X62723811Y-33762495D01*
X62723811Y-33762495D02*
X63676192Y-33952971D01*
X61866668Y-33286304D02*
X61866668Y-35286304D01*
X61866668Y-33381542D02*
X61676192Y-33286304D01*
X61676192Y-33286304D02*
X61295239Y-33286304D01*
X61295239Y-33286304D02*
X61104763Y-33381542D01*
X61104763Y-33381542D02*
X61009525Y-33476780D01*
X61009525Y-33476780D02*
X60914287Y-33667257D01*
X60914287Y-33667257D02*
X60914287Y-34238685D01*
X60914287Y-34238685D02*
X61009525Y-34429161D01*
X61009525Y-34429161D02*
X61104763Y-34524400D01*
X61104763Y-34524400D02*
X61295239Y-34619638D01*
X61295239Y-34619638D02*
X61676192Y-34619638D01*
X61676192Y-34619638D02*
X61866668Y-34524400D01*
X59200001Y-34619638D02*
X59200001Y-33572019D01*
X59200001Y-33572019D02*
X59295239Y-33381542D01*
X59295239Y-33381542D02*
X59485715Y-33286304D01*
X59485715Y-33286304D02*
X59866668Y-33286304D01*
X59866668Y-33286304D02*
X60057144Y-33381542D01*
X59200001Y-34524400D02*
X59390477Y-34619638D01*
X59390477Y-34619638D02*
X59866668Y-34619638D01*
X59866668Y-34619638D02*
X60057144Y-34524400D01*
X60057144Y-34524400D02*
X60152382Y-34333923D01*
X60152382Y-34333923D02*
X60152382Y-34143447D01*
X60152382Y-34143447D02*
X60057144Y-33952971D01*
X60057144Y-33952971D02*
X59866668Y-33857733D01*
X59866668Y-33857733D02*
X59390477Y-33857733D01*
X59390477Y-33857733D02*
X59200001Y-33762495D01*
X58247620Y-34619638D02*
X58247620Y-33286304D01*
X58247620Y-33667257D02*
X58152382Y-33476780D01*
X58152382Y-33476780D02*
X58057144Y-33381542D01*
X58057144Y-33381542D02*
X57866668Y-33286304D01*
X57866668Y-33286304D02*
X57676191Y-33286304D01*
X57295239Y-33286304D02*
X56533335Y-33286304D01*
X57009525Y-32619638D02*
X57009525Y-34333923D01*
X57009525Y-34333923D02*
X56914287Y-34524400D01*
X56914287Y-34524400D02*
X56723811Y-34619638D01*
X56723811Y-34619638D02*
X56533335Y-34619638D01*
X55866668Y-34619638D02*
X55866668Y-33286304D01*
X55866668Y-33476780D02*
X55771430Y-33381542D01*
X55771430Y-33381542D02*
X55580954Y-33286304D01*
X55580954Y-33286304D02*
X55295239Y-33286304D01*
X55295239Y-33286304D02*
X55104763Y-33381542D01*
X55104763Y-33381542D02*
X55009525Y-33572019D01*
X55009525Y-33572019D02*
X55009525Y-34619638D01*
X55009525Y-33572019D02*
X54914287Y-33381542D01*
X54914287Y-33381542D02*
X54723811Y-33286304D01*
X54723811Y-33286304D02*
X54438097Y-33286304D01*
X54438097Y-33286304D02*
X54247620Y-33381542D01*
X54247620Y-33381542D02*
X54152382Y-33572019D01*
X54152382Y-33572019D02*
X54152382Y-34619638D01*
X52438096Y-34524400D02*
X52628572Y-34619638D01*
X52628572Y-34619638D02*
X53009525Y-34619638D01*
X53009525Y-34619638D02*
X53200001Y-34524400D01*
X53200001Y-34524400D02*
X53295239Y-34333923D01*
X53295239Y-34333923D02*
X53295239Y-33572019D01*
X53295239Y-33572019D02*
X53200001Y-33381542D01*
X53200001Y-33381542D02*
X53009525Y-33286304D01*
X53009525Y-33286304D02*
X52628572Y-33286304D01*
X52628572Y-33286304D02*
X52438096Y-33381542D01*
X52438096Y-33381542D02*
X52342858Y-33572019D01*
X52342858Y-33572019D02*
X52342858Y-33762495D01*
X52342858Y-33762495D02*
X53295239Y-33952971D01*
X51485715Y-33286304D02*
X51485715Y-34619638D01*
X51485715Y-33476780D02*
X51390477Y-33381542D01*
X51390477Y-33381542D02*
X51200001Y-33286304D01*
X51200001Y-33286304D02*
X50914286Y-33286304D01*
X50914286Y-33286304D02*
X50723810Y-33381542D01*
X50723810Y-33381542D02*
X50628572Y-33572019D01*
X50628572Y-33572019D02*
X50628572Y-34619638D01*
X49961905Y-33286304D02*
X49200001Y-33286304D01*
X49676191Y-32619638D02*
X49676191Y-34333923D01*
X49676191Y-34333923D02*
X49580953Y-34524400D01*
X49580953Y-34524400D02*
X49390477Y-34619638D01*
X49390477Y-34619638D02*
X49200001Y-34619638D01*
X46723810Y-34619638D02*
X46914286Y-34524400D01*
X46914286Y-34524400D02*
X47009524Y-34429161D01*
X47009524Y-34429161D02*
X47104762Y-34238685D01*
X47104762Y-34238685D02*
X47104762Y-33667257D01*
X47104762Y-33667257D02*
X47009524Y-33476780D01*
X47009524Y-33476780D02*
X46914286Y-33381542D01*
X46914286Y-33381542D02*
X46723810Y-33286304D01*
X46723810Y-33286304D02*
X46438095Y-33286304D01*
X46438095Y-33286304D02*
X46247619Y-33381542D01*
X46247619Y-33381542D02*
X46152381Y-33476780D01*
X46152381Y-33476780D02*
X46057143Y-33667257D01*
X46057143Y-33667257D02*
X46057143Y-34238685D01*
X46057143Y-34238685D02*
X46152381Y-34429161D01*
X46152381Y-34429161D02*
X46247619Y-34524400D01*
X46247619Y-34524400D02*
X46438095Y-34619638D01*
X46438095Y-34619638D02*
X46723810Y-34619638D01*
X45485714Y-33286304D02*
X44723810Y-33286304D01*
X45200000Y-34619638D02*
X45200000Y-32905352D01*
X45200000Y-32905352D02*
X45104762Y-32714876D01*
X45104762Y-32714876D02*
X44914286Y-32619638D01*
X44914286Y-32619638D02*
X44723810Y-32619638D01*
X42533333Y-33572019D02*
X41866666Y-33572019D01*
X41580952Y-34619638D02*
X42533333Y-34619638D01*
X42533333Y-34619638D02*
X42533333Y-32619638D01*
X42533333Y-32619638D02*
X41580952Y-32619638D01*
X40438095Y-34619638D02*
X40628571Y-34524400D01*
X40628571Y-34524400D02*
X40723809Y-34333923D01*
X40723809Y-34333923D02*
X40723809Y-32619638D01*
X38914285Y-34524400D02*
X39104761Y-34619638D01*
X39104761Y-34619638D02*
X39485714Y-34619638D01*
X39485714Y-34619638D02*
X39676190Y-34524400D01*
X39676190Y-34524400D02*
X39771428Y-34333923D01*
X39771428Y-34333923D02*
X39771428Y-33572019D01*
X39771428Y-33572019D02*
X39676190Y-33381542D01*
X39676190Y-33381542D02*
X39485714Y-33286304D01*
X39485714Y-33286304D02*
X39104761Y-33286304D01*
X39104761Y-33286304D02*
X38914285Y-33381542D01*
X38914285Y-33381542D02*
X38819047Y-33572019D01*
X38819047Y-33572019D02*
X38819047Y-33762495D01*
X38819047Y-33762495D02*
X39771428Y-33952971D01*
X37104761Y-34524400D02*
X37295237Y-34619638D01*
X37295237Y-34619638D02*
X37676190Y-34619638D01*
X37676190Y-34619638D02*
X37866666Y-34524400D01*
X37866666Y-34524400D02*
X37961904Y-34429161D01*
X37961904Y-34429161D02*
X38057142Y-34238685D01*
X38057142Y-34238685D02*
X38057142Y-33667257D01*
X38057142Y-33667257D02*
X37961904Y-33476780D01*
X37961904Y-33476780D02*
X37866666Y-33381542D01*
X37866666Y-33381542D02*
X37676190Y-33286304D01*
X37676190Y-33286304D02*
X37295237Y-33286304D01*
X37295237Y-33286304D02*
X37104761Y-33381542D01*
X36533332Y-33286304D02*
X35771428Y-33286304D01*
X36247618Y-32619638D02*
X36247618Y-34333923D01*
X36247618Y-34333923D02*
X36152380Y-34524400D01*
X36152380Y-34524400D02*
X35961904Y-34619638D01*
X35961904Y-34619638D02*
X35771428Y-34619638D01*
X35104761Y-34619638D02*
X35104761Y-33286304D01*
X35104761Y-33667257D02*
X35009523Y-33476780D01*
X35009523Y-33476780D02*
X34914285Y-33381542D01*
X34914285Y-33381542D02*
X34723809Y-33286304D01*
X34723809Y-33286304D02*
X34533332Y-33286304D01*
X33866666Y-34619638D02*
X33866666Y-33286304D01*
X33866666Y-32619638D02*
X33961904Y-32714876D01*
X33961904Y-32714876D02*
X33866666Y-32810114D01*
X33866666Y-32810114D02*
X33771428Y-32714876D01*
X33771428Y-32714876D02*
X33866666Y-32619638D01*
X33866666Y-32619638D02*
X33866666Y-32810114D01*
X32057142Y-34524400D02*
X32247618Y-34619638D01*
X32247618Y-34619638D02*
X32628571Y-34619638D01*
X32628571Y-34619638D02*
X32819047Y-34524400D01*
X32819047Y-34524400D02*
X32914285Y-34429161D01*
X32914285Y-34429161D02*
X33009523Y-34238685D01*
X33009523Y-34238685D02*
X33009523Y-33667257D01*
X33009523Y-33667257D02*
X32914285Y-33476780D01*
X32914285Y-33476780D02*
X32819047Y-33381542D01*
X32819047Y-33381542D02*
X32628571Y-33286304D01*
X32628571Y-33286304D02*
X32247618Y-33286304D01*
X32247618Y-33286304D02*
X32057142Y-33381542D01*
X30342856Y-34619638D02*
X30342856Y-33572019D01*
X30342856Y-33572019D02*
X30438094Y-33381542D01*
X30438094Y-33381542D02*
X30628570Y-33286304D01*
X30628570Y-33286304D02*
X31009523Y-33286304D01*
X31009523Y-33286304D02*
X31199999Y-33381542D01*
X30342856Y-34524400D02*
X30533332Y-34619638D01*
X30533332Y-34619638D02*
X31009523Y-34619638D01*
X31009523Y-34619638D02*
X31199999Y-34524400D01*
X31199999Y-34524400D02*
X31295237Y-34333923D01*
X31295237Y-34333923D02*
X31295237Y-34143447D01*
X31295237Y-34143447D02*
X31199999Y-33952971D01*
X31199999Y-33952971D02*
X31009523Y-33857733D01*
X31009523Y-33857733D02*
X30533332Y-33857733D01*
X30533332Y-33857733D02*
X30342856Y-33762495D01*
X29104761Y-34619638D02*
X29295237Y-34524400D01*
X29295237Y-34524400D02*
X29390475Y-34333923D01*
X29390475Y-34333923D02*
X29390475Y-32619638D01*
X25961903Y-34619638D02*
X25961903Y-33572019D01*
X25961903Y-33572019D02*
X26057141Y-33381542D01*
X26057141Y-33381542D02*
X26247617Y-33286304D01*
X26247617Y-33286304D02*
X26628570Y-33286304D01*
X26628570Y-33286304D02*
X26819046Y-33381542D01*
X25961903Y-34524400D02*
X26152379Y-34619638D01*
X26152379Y-34619638D02*
X26628570Y-34619638D01*
X26628570Y-34619638D02*
X26819046Y-34524400D01*
X26819046Y-34524400D02*
X26914284Y-34333923D01*
X26914284Y-34333923D02*
X26914284Y-34143447D01*
X26914284Y-34143447D02*
X26819046Y-33952971D01*
X26819046Y-33952971D02*
X26628570Y-33857733D01*
X26628570Y-33857733D02*
X26152379Y-33857733D01*
X26152379Y-33857733D02*
X25961903Y-33762495D01*
X25009522Y-33286304D02*
X25009522Y-34619638D01*
X25009522Y-33476780D02*
X24914284Y-33381542D01*
X24914284Y-33381542D02*
X24723808Y-33286304D01*
X24723808Y-33286304D02*
X24438093Y-33286304D01*
X24438093Y-33286304D02*
X24247617Y-33381542D01*
X24247617Y-33381542D02*
X24152379Y-33572019D01*
X24152379Y-33572019D02*
X24152379Y-34619638D01*
X22342855Y-34619638D02*
X22342855Y-32619638D01*
X22342855Y-34524400D02*
X22533331Y-34619638D01*
X22533331Y-34619638D02*
X22914284Y-34619638D01*
X22914284Y-34619638D02*
X23104760Y-34524400D01*
X23104760Y-34524400D02*
X23199998Y-34429161D01*
X23199998Y-34429161D02*
X23295236Y-34238685D01*
X23295236Y-34238685D02*
X23295236Y-33667257D01*
X23295236Y-33667257D02*
X23199998Y-33476780D01*
X23199998Y-33476780D02*
X23104760Y-33381542D01*
X23104760Y-33381542D02*
X22914284Y-33286304D01*
X22914284Y-33286304D02*
X22533331Y-33286304D01*
X22533331Y-33286304D02*
X22342855Y-33381542D01*
X59676191Y-36792019D02*
X59009524Y-36792019D01*
X58723810Y-37839638D02*
X59676191Y-37839638D01*
X59676191Y-37839638D02*
X59676191Y-35839638D01*
X59676191Y-35839638D02*
X58723810Y-35839638D01*
X57580953Y-37839638D02*
X57771429Y-37744400D01*
X57771429Y-37744400D02*
X57866667Y-37553923D01*
X57866667Y-37553923D02*
X57866667Y-35839638D01*
X56057143Y-37744400D02*
X56247619Y-37839638D01*
X56247619Y-37839638D02*
X56628572Y-37839638D01*
X56628572Y-37839638D02*
X56819048Y-37744400D01*
X56819048Y-37744400D02*
X56914286Y-37553923D01*
X56914286Y-37553923D02*
X56914286Y-36792019D01*
X56914286Y-36792019D02*
X56819048Y-36601542D01*
X56819048Y-36601542D02*
X56628572Y-36506304D01*
X56628572Y-36506304D02*
X56247619Y-36506304D01*
X56247619Y-36506304D02*
X56057143Y-36601542D01*
X56057143Y-36601542D02*
X55961905Y-36792019D01*
X55961905Y-36792019D02*
X55961905Y-36982495D01*
X55961905Y-36982495D02*
X56914286Y-37172971D01*
X54247619Y-37744400D02*
X54438095Y-37839638D01*
X54438095Y-37839638D02*
X54819048Y-37839638D01*
X54819048Y-37839638D02*
X55009524Y-37744400D01*
X55009524Y-37744400D02*
X55104762Y-37649161D01*
X55104762Y-37649161D02*
X55200000Y-37458685D01*
X55200000Y-37458685D02*
X55200000Y-36887257D01*
X55200000Y-36887257D02*
X55104762Y-36696780D01*
X55104762Y-36696780D02*
X55009524Y-36601542D01*
X55009524Y-36601542D02*
X54819048Y-36506304D01*
X54819048Y-36506304D02*
X54438095Y-36506304D01*
X54438095Y-36506304D02*
X54247619Y-36601542D01*
X53676190Y-36506304D02*
X52914286Y-36506304D01*
X53390476Y-35839638D02*
X53390476Y-37553923D01*
X53390476Y-37553923D02*
X53295238Y-37744400D01*
X53295238Y-37744400D02*
X53104762Y-37839638D01*
X53104762Y-37839638D02*
X52914286Y-37839638D01*
X52247619Y-37839638D02*
X52247619Y-36506304D01*
X52247619Y-36887257D02*
X52152381Y-36696780D01*
X52152381Y-36696780D02*
X52057143Y-36601542D01*
X52057143Y-36601542D02*
X51866667Y-36506304D01*
X51866667Y-36506304D02*
X51676190Y-36506304D01*
X50723810Y-37839638D02*
X50914286Y-37744400D01*
X50914286Y-37744400D02*
X51009524Y-37649161D01*
X51009524Y-37649161D02*
X51104762Y-37458685D01*
X51104762Y-37458685D02*
X51104762Y-36887257D01*
X51104762Y-36887257D02*
X51009524Y-36696780D01*
X51009524Y-36696780D02*
X50914286Y-36601542D01*
X50914286Y-36601542D02*
X50723810Y-36506304D01*
X50723810Y-36506304D02*
X50438095Y-36506304D01*
X50438095Y-36506304D02*
X50247619Y-36601542D01*
X50247619Y-36601542D02*
X50152381Y-36696780D01*
X50152381Y-36696780D02*
X50057143Y-36887257D01*
X50057143Y-36887257D02*
X50057143Y-37458685D01*
X50057143Y-37458685D02*
X50152381Y-37649161D01*
X50152381Y-37649161D02*
X50247619Y-37744400D01*
X50247619Y-37744400D02*
X50438095Y-37839638D01*
X50438095Y-37839638D02*
X50723810Y-37839638D01*
X49200000Y-36506304D02*
X49200000Y-37839638D01*
X49200000Y-36696780D02*
X49104762Y-36601542D01*
X49104762Y-36601542D02*
X48914286Y-36506304D01*
X48914286Y-36506304D02*
X48628571Y-36506304D01*
X48628571Y-36506304D02*
X48438095Y-36601542D01*
X48438095Y-36601542D02*
X48342857Y-36792019D01*
X48342857Y-36792019D02*
X48342857Y-37839638D01*
X47390476Y-37839638D02*
X47390476Y-36506304D01*
X47390476Y-35839638D02*
X47485714Y-35934876D01*
X47485714Y-35934876D02*
X47390476Y-36030114D01*
X47390476Y-36030114D02*
X47295238Y-35934876D01*
X47295238Y-35934876D02*
X47390476Y-35839638D01*
X47390476Y-35839638D02*
X47390476Y-36030114D01*
X45580952Y-37744400D02*
X45771428Y-37839638D01*
X45771428Y-37839638D02*
X46152381Y-37839638D01*
X46152381Y-37839638D02*
X46342857Y-37744400D01*
X46342857Y-37744400D02*
X46438095Y-37649161D01*
X46438095Y-37649161D02*
X46533333Y-37458685D01*
X46533333Y-37458685D02*
X46533333Y-36887257D01*
X46533333Y-36887257D02*
X46438095Y-36696780D01*
X46438095Y-36696780D02*
X46342857Y-36601542D01*
X46342857Y-36601542D02*
X46152381Y-36506304D01*
X46152381Y-36506304D02*
X45771428Y-36506304D01*
X45771428Y-36506304D02*
X45580952Y-36601542D01*
X43199999Y-36792019D02*
X42533332Y-36792019D01*
X42247618Y-37839638D02*
X43199999Y-37839638D01*
X43199999Y-37839638D02*
X43199999Y-35839638D01*
X43199999Y-35839638D02*
X42247618Y-35839638D01*
X41390475Y-36506304D02*
X41390475Y-37839638D01*
X41390475Y-36696780D02*
X41295237Y-36601542D01*
X41295237Y-36601542D02*
X41104761Y-36506304D01*
X41104761Y-36506304D02*
X40819046Y-36506304D01*
X40819046Y-36506304D02*
X40628570Y-36601542D01*
X40628570Y-36601542D02*
X40533332Y-36792019D01*
X40533332Y-36792019D02*
X40533332Y-37839638D01*
X38723808Y-36506304D02*
X38723808Y-38125352D01*
X38723808Y-38125352D02*
X38819046Y-38315828D01*
X38819046Y-38315828D02*
X38914284Y-38411066D01*
X38914284Y-38411066D02*
X39104761Y-38506304D01*
X39104761Y-38506304D02*
X39390475Y-38506304D01*
X39390475Y-38506304D02*
X39580951Y-38411066D01*
X38723808Y-37744400D02*
X38914284Y-37839638D01*
X38914284Y-37839638D02*
X39295237Y-37839638D01*
X39295237Y-37839638D02*
X39485713Y-37744400D01*
X39485713Y-37744400D02*
X39580951Y-37649161D01*
X39580951Y-37649161D02*
X39676189Y-37458685D01*
X39676189Y-37458685D02*
X39676189Y-36887257D01*
X39676189Y-36887257D02*
X39580951Y-36696780D01*
X39580951Y-36696780D02*
X39485713Y-36601542D01*
X39485713Y-36601542D02*
X39295237Y-36506304D01*
X39295237Y-36506304D02*
X38914284Y-36506304D01*
X38914284Y-36506304D02*
X38723808Y-36601542D01*
X37771427Y-37839638D02*
X37771427Y-36506304D01*
X37771427Y-35839638D02*
X37866665Y-35934876D01*
X37866665Y-35934876D02*
X37771427Y-36030114D01*
X37771427Y-36030114D02*
X37676189Y-35934876D01*
X37676189Y-35934876D02*
X37771427Y-35839638D01*
X37771427Y-35839638D02*
X37771427Y-36030114D01*
X36819046Y-36506304D02*
X36819046Y-37839638D01*
X36819046Y-36696780D02*
X36723808Y-36601542D01*
X36723808Y-36601542D02*
X36533332Y-36506304D01*
X36533332Y-36506304D02*
X36247617Y-36506304D01*
X36247617Y-36506304D02*
X36057141Y-36601542D01*
X36057141Y-36601542D02*
X35961903Y-36792019D01*
X35961903Y-36792019D02*
X35961903Y-37839638D01*
X34247617Y-37744400D02*
X34438093Y-37839638D01*
X34438093Y-37839638D02*
X34819046Y-37839638D01*
X34819046Y-37839638D02*
X35009522Y-37744400D01*
X35009522Y-37744400D02*
X35104760Y-37553923D01*
X35104760Y-37553923D02*
X35104760Y-36792019D01*
X35104760Y-36792019D02*
X35009522Y-36601542D01*
X35009522Y-36601542D02*
X34819046Y-36506304D01*
X34819046Y-36506304D02*
X34438093Y-36506304D01*
X34438093Y-36506304D02*
X34247617Y-36601542D01*
X34247617Y-36601542D02*
X34152379Y-36792019D01*
X34152379Y-36792019D02*
X34152379Y-36982495D01*
X34152379Y-36982495D02*
X35104760Y-37172971D01*
X32533331Y-37744400D02*
X32723807Y-37839638D01*
X32723807Y-37839638D02*
X33104760Y-37839638D01*
X33104760Y-37839638D02*
X33295236Y-37744400D01*
X33295236Y-37744400D02*
X33390474Y-37553923D01*
X33390474Y-37553923D02*
X33390474Y-36792019D01*
X33390474Y-36792019D02*
X33295236Y-36601542D01*
X33295236Y-36601542D02*
X33104760Y-36506304D01*
X33104760Y-36506304D02*
X32723807Y-36506304D01*
X32723807Y-36506304D02*
X32533331Y-36601542D01*
X32533331Y-36601542D02*
X32438093Y-36792019D01*
X32438093Y-36792019D02*
X32438093Y-36982495D01*
X32438093Y-36982495D02*
X33390474Y-37172971D01*
X31580950Y-37839638D02*
X31580950Y-36506304D01*
X31580950Y-36887257D02*
X31485712Y-36696780D01*
X31485712Y-36696780D02*
X31390474Y-36601542D01*
X31390474Y-36601542D02*
X31199998Y-36506304D01*
X31199998Y-36506304D02*
X31009521Y-36506304D01*
X30342855Y-37839638D02*
X30342855Y-36506304D01*
X30342855Y-35839638D02*
X30438093Y-35934876D01*
X30438093Y-35934876D02*
X30342855Y-36030114D01*
X30342855Y-36030114D02*
X30247617Y-35934876D01*
X30247617Y-35934876D02*
X30342855Y-35839638D01*
X30342855Y-35839638D02*
X30342855Y-36030114D01*
X29390474Y-36506304D02*
X29390474Y-37839638D01*
X29390474Y-36696780D02*
X29295236Y-36601542D01*
X29295236Y-36601542D02*
X29104760Y-36506304D01*
X29104760Y-36506304D02*
X28819045Y-36506304D01*
X28819045Y-36506304D02*
X28628569Y-36601542D01*
X28628569Y-36601542D02*
X28533331Y-36792019D01*
X28533331Y-36792019D02*
X28533331Y-37839638D01*
X26723807Y-36506304D02*
X26723807Y-38125352D01*
X26723807Y-38125352D02*
X26819045Y-38315828D01*
X26819045Y-38315828D02*
X26914283Y-38411066D01*
X26914283Y-38411066D02*
X27104760Y-38506304D01*
X27104760Y-38506304D02*
X27390474Y-38506304D01*
X27390474Y-38506304D02*
X27580950Y-38411066D01*
X26723807Y-37744400D02*
X26914283Y-37839638D01*
X26914283Y-37839638D02*
X27295236Y-37839638D01*
X27295236Y-37839638D02*
X27485712Y-37744400D01*
X27485712Y-37744400D02*
X27580950Y-37649161D01*
X27580950Y-37649161D02*
X27676188Y-37458685D01*
X27676188Y-37458685D02*
X27676188Y-36887257D01*
X27676188Y-36887257D02*
X27580950Y-36696780D01*
X27580950Y-36696780D02*
X27485712Y-36601542D01*
X27485712Y-36601542D02*
X27295236Y-36506304D01*
X27295236Y-36506304D02*
X26914283Y-36506304D01*
X26914283Y-36506304D02*
X26723807Y-36601542D01*
D10*
X44282561Y-47039411D02*
X44330180Y-47134649D01*
X44330180Y-47134649D02*
X44330180Y-47277506D01*
X44330180Y-47277506D02*
X44282561Y-47420363D01*
X44282561Y-47420363D02*
X44187323Y-47515601D01*
X44187323Y-47515601D02*
X44092085Y-47563220D01*
X44092085Y-47563220D02*
X43901609Y-47610839D01*
X43901609Y-47610839D02*
X43758752Y-47610839D01*
X43758752Y-47610839D02*
X43568276Y-47563220D01*
X43568276Y-47563220D02*
X43473038Y-47515601D01*
X43473038Y-47515601D02*
X43377800Y-47420363D01*
X43377800Y-47420363D02*
X43330180Y-47277506D01*
X43330180Y-47277506D02*
X43330180Y-47182268D01*
X43330180Y-47182268D02*
X43377800Y-47039411D01*
X43377800Y-47039411D02*
X43425419Y-46991792D01*
X43425419Y-46991792D02*
X43758752Y-46991792D01*
X43758752Y-46991792D02*
X43758752Y-47182268D01*
X43330180Y-46563220D02*
X44330180Y-46563220D01*
X44330180Y-46563220D02*
X44330180Y-46182268D01*
X44330180Y-46182268D02*
X44282561Y-46087030D01*
X44282561Y-46087030D02*
X44234942Y-46039411D01*
X44234942Y-46039411D02*
X44139704Y-45991792D01*
X44139704Y-45991792D02*
X43996847Y-45991792D01*
X43996847Y-45991792D02*
X43901609Y-46039411D01*
X43901609Y-46039411D02*
X43853990Y-46087030D01*
X43853990Y-46087030D02*
X43806371Y-46182268D01*
X43806371Y-46182268D02*
X43806371Y-46563220D01*
X43330180Y-45563220D02*
X44330180Y-45563220D01*
X44330180Y-44896554D02*
X44330180Y-44706078D01*
X44330180Y-44706078D02*
X44282561Y-44610840D01*
X44282561Y-44610840D02*
X44187323Y-44515602D01*
X44187323Y-44515602D02*
X43996847Y-44467983D01*
X43996847Y-44467983D02*
X43663514Y-44467983D01*
X43663514Y-44467983D02*
X43473038Y-44515602D01*
X43473038Y-44515602D02*
X43377800Y-44610840D01*
X43377800Y-44610840D02*
X43330180Y-44706078D01*
X43330180Y-44706078D02*
X43330180Y-44896554D01*
X43330180Y-44896554D02*
X43377800Y-44991792D01*
X43377800Y-44991792D02*
X43473038Y-45087030D01*
X43473038Y-45087030D02*
X43663514Y-45134649D01*
X43663514Y-45134649D02*
X43996847Y-45134649D01*
X43996847Y-45134649D02*
X44187323Y-45087030D01*
X44187323Y-45087030D02*
X44282561Y-44991792D01*
X44282561Y-44991792D02*
X44330180Y-44896554D01*
X44330180Y-44134649D02*
X44330180Y-43467983D01*
X44330180Y-43467983D02*
X43330180Y-43896554D01*
X34082561Y-47039411D02*
X34130180Y-47134649D01*
X34130180Y-47134649D02*
X34130180Y-47277506D01*
X34130180Y-47277506D02*
X34082561Y-47420363D01*
X34082561Y-47420363D02*
X33987323Y-47515601D01*
X33987323Y-47515601D02*
X33892085Y-47563220D01*
X33892085Y-47563220D02*
X33701609Y-47610839D01*
X33701609Y-47610839D02*
X33558752Y-47610839D01*
X33558752Y-47610839D02*
X33368276Y-47563220D01*
X33368276Y-47563220D02*
X33273038Y-47515601D01*
X33273038Y-47515601D02*
X33177800Y-47420363D01*
X33177800Y-47420363D02*
X33130180Y-47277506D01*
X33130180Y-47277506D02*
X33130180Y-47182268D01*
X33130180Y-47182268D02*
X33177800Y-47039411D01*
X33177800Y-47039411D02*
X33225419Y-46991792D01*
X33225419Y-46991792D02*
X33558752Y-46991792D01*
X33558752Y-46991792D02*
X33558752Y-47182268D01*
X33130180Y-46563220D02*
X34130180Y-46563220D01*
X34130180Y-46563220D02*
X34130180Y-46182268D01*
X34130180Y-46182268D02*
X34082561Y-46087030D01*
X34082561Y-46087030D02*
X34034942Y-46039411D01*
X34034942Y-46039411D02*
X33939704Y-45991792D01*
X33939704Y-45991792D02*
X33796847Y-45991792D01*
X33796847Y-45991792D02*
X33701609Y-46039411D01*
X33701609Y-46039411D02*
X33653990Y-46087030D01*
X33653990Y-46087030D02*
X33606371Y-46182268D01*
X33606371Y-46182268D02*
X33606371Y-46563220D01*
X33130180Y-45563220D02*
X34130180Y-45563220D01*
X34130180Y-44896554D02*
X34130180Y-44706078D01*
X34130180Y-44706078D02*
X34082561Y-44610840D01*
X34082561Y-44610840D02*
X33987323Y-44515602D01*
X33987323Y-44515602D02*
X33796847Y-44467983D01*
X33796847Y-44467983D02*
X33463514Y-44467983D01*
X33463514Y-44467983D02*
X33273038Y-44515602D01*
X33273038Y-44515602D02*
X33177800Y-44610840D01*
X33177800Y-44610840D02*
X33130180Y-44706078D01*
X33130180Y-44706078D02*
X33130180Y-44896554D01*
X33130180Y-44896554D02*
X33177800Y-44991792D01*
X33177800Y-44991792D02*
X33273038Y-45087030D01*
X33273038Y-45087030D02*
X33463514Y-45134649D01*
X33463514Y-45134649D02*
X33796847Y-45134649D01*
X33796847Y-45134649D02*
X33987323Y-45087030D01*
X33987323Y-45087030D02*
X34082561Y-44991792D01*
X34082561Y-44991792D02*
X34130180Y-44896554D01*
X33130180Y-43515602D02*
X33130180Y-44087030D01*
X33130180Y-43801316D02*
X34130180Y-43801316D01*
X34130180Y-43801316D02*
X33987323Y-43896554D01*
X33987323Y-43896554D02*
X33892085Y-43991792D01*
X33892085Y-43991792D02*
X33844466Y-44087030D01*
X33130180Y-42563221D02*
X33130180Y-43134649D01*
X33130180Y-42848935D02*
X34130180Y-42848935D01*
X34130180Y-42848935D02*
X33987323Y-42944173D01*
X33987323Y-42944173D02*
X33892085Y-43039411D01*
X33892085Y-43039411D02*
X33844466Y-43134649D01*
X41782561Y-47039411D02*
X41830180Y-47134649D01*
X41830180Y-47134649D02*
X41830180Y-47277506D01*
X41830180Y-47277506D02*
X41782561Y-47420363D01*
X41782561Y-47420363D02*
X41687323Y-47515601D01*
X41687323Y-47515601D02*
X41592085Y-47563220D01*
X41592085Y-47563220D02*
X41401609Y-47610839D01*
X41401609Y-47610839D02*
X41258752Y-47610839D01*
X41258752Y-47610839D02*
X41068276Y-47563220D01*
X41068276Y-47563220D02*
X40973038Y-47515601D01*
X40973038Y-47515601D02*
X40877800Y-47420363D01*
X40877800Y-47420363D02*
X40830180Y-47277506D01*
X40830180Y-47277506D02*
X40830180Y-47182268D01*
X40830180Y-47182268D02*
X40877800Y-47039411D01*
X40877800Y-47039411D02*
X40925419Y-46991792D01*
X40925419Y-46991792D02*
X41258752Y-46991792D01*
X41258752Y-46991792D02*
X41258752Y-47182268D01*
X40830180Y-46563220D02*
X41830180Y-46563220D01*
X41830180Y-46563220D02*
X41830180Y-46182268D01*
X41830180Y-46182268D02*
X41782561Y-46087030D01*
X41782561Y-46087030D02*
X41734942Y-46039411D01*
X41734942Y-46039411D02*
X41639704Y-45991792D01*
X41639704Y-45991792D02*
X41496847Y-45991792D01*
X41496847Y-45991792D02*
X41401609Y-46039411D01*
X41401609Y-46039411D02*
X41353990Y-46087030D01*
X41353990Y-46087030D02*
X41306371Y-46182268D01*
X41306371Y-46182268D02*
X41306371Y-46563220D01*
X40830180Y-45563220D02*
X41830180Y-45563220D01*
X41830180Y-44896554D02*
X41830180Y-44706078D01*
X41830180Y-44706078D02*
X41782561Y-44610840D01*
X41782561Y-44610840D02*
X41687323Y-44515602D01*
X41687323Y-44515602D02*
X41496847Y-44467983D01*
X41496847Y-44467983D02*
X41163514Y-44467983D01*
X41163514Y-44467983D02*
X40973038Y-44515602D01*
X40973038Y-44515602D02*
X40877800Y-44610840D01*
X40877800Y-44610840D02*
X40830180Y-44706078D01*
X40830180Y-44706078D02*
X40830180Y-44896554D01*
X40830180Y-44896554D02*
X40877800Y-44991792D01*
X40877800Y-44991792D02*
X40973038Y-45087030D01*
X40973038Y-45087030D02*
X41163514Y-45134649D01*
X41163514Y-45134649D02*
X41496847Y-45134649D01*
X41496847Y-45134649D02*
X41687323Y-45087030D01*
X41687323Y-45087030D02*
X41782561Y-44991792D01*
X41782561Y-44991792D02*
X41830180Y-44896554D01*
X41401609Y-43896554D02*
X41449228Y-43991792D01*
X41449228Y-43991792D02*
X41496847Y-44039411D01*
X41496847Y-44039411D02*
X41592085Y-44087030D01*
X41592085Y-44087030D02*
X41639704Y-44087030D01*
X41639704Y-44087030D02*
X41734942Y-44039411D01*
X41734942Y-44039411D02*
X41782561Y-43991792D01*
X41782561Y-43991792D02*
X41830180Y-43896554D01*
X41830180Y-43896554D02*
X41830180Y-43706078D01*
X41830180Y-43706078D02*
X41782561Y-43610840D01*
X41782561Y-43610840D02*
X41734942Y-43563221D01*
X41734942Y-43563221D02*
X41639704Y-43515602D01*
X41639704Y-43515602D02*
X41592085Y-43515602D01*
X41592085Y-43515602D02*
X41496847Y-43563221D01*
X41496847Y-43563221D02*
X41449228Y-43610840D01*
X41449228Y-43610840D02*
X41401609Y-43706078D01*
X41401609Y-43706078D02*
X41401609Y-43896554D01*
X41401609Y-43896554D02*
X41353990Y-43991792D01*
X41353990Y-43991792D02*
X41306371Y-44039411D01*
X41306371Y-44039411D02*
X41211133Y-44087030D01*
X41211133Y-44087030D02*
X41020657Y-44087030D01*
X41020657Y-44087030D02*
X40925419Y-44039411D01*
X40925419Y-44039411D02*
X40877800Y-43991792D01*
X40877800Y-43991792D02*
X40830180Y-43896554D01*
X40830180Y-43896554D02*
X40830180Y-43706078D01*
X40830180Y-43706078D02*
X40877800Y-43610840D01*
X40877800Y-43610840D02*
X40925419Y-43563221D01*
X40925419Y-43563221D02*
X41020657Y-43515602D01*
X41020657Y-43515602D02*
X41211133Y-43515602D01*
X41211133Y-43515602D02*
X41306371Y-43563221D01*
X41306371Y-43563221D02*
X41353990Y-43610840D01*
X41353990Y-43610840D02*
X41401609Y-43706078D01*
D11*
X76327580Y-60691353D02*
X75327580Y-60453258D01*
X75327580Y-60453258D02*
X76041866Y-60262782D01*
X76041866Y-60262782D02*
X75327580Y-60072306D01*
X75327580Y-60072306D02*
X76327580Y-59834211D01*
X75327580Y-59024687D02*
X75851390Y-59024687D01*
X75851390Y-59024687D02*
X75946628Y-59072306D01*
X75946628Y-59072306D02*
X75994247Y-59167544D01*
X75994247Y-59167544D02*
X75994247Y-59358020D01*
X75994247Y-59358020D02*
X75946628Y-59453258D01*
X75375200Y-59024687D02*
X75327580Y-59119925D01*
X75327580Y-59119925D02*
X75327580Y-59358020D01*
X75327580Y-59358020D02*
X75375200Y-59453258D01*
X75375200Y-59453258D02*
X75470438Y-59500877D01*
X75470438Y-59500877D02*
X75565676Y-59500877D01*
X75565676Y-59500877D02*
X75660914Y-59453258D01*
X75660914Y-59453258D02*
X75708533Y-59358020D01*
X75708533Y-59358020D02*
X75708533Y-59119925D01*
X75708533Y-59119925D02*
X75756152Y-59024687D01*
X75994247Y-58643734D02*
X75327580Y-58405639D01*
X75994247Y-58167544D02*
X75327580Y-58405639D01*
X75327580Y-58405639D02*
X75089485Y-58500877D01*
X75089485Y-58500877D02*
X75041866Y-58548496D01*
X75041866Y-58548496D02*
X74994247Y-58643734D01*
X76327580Y-57881829D02*
X75327580Y-57643734D01*
X75327580Y-57643734D02*
X76041866Y-57453258D01*
X76041866Y-57453258D02*
X75327580Y-57262782D01*
X75327580Y-57262782D02*
X76327580Y-57024687D01*
X75327580Y-56215163D02*
X75851390Y-56215163D01*
X75851390Y-56215163D02*
X75946628Y-56262782D01*
X75946628Y-56262782D02*
X75994247Y-56358020D01*
X75994247Y-56358020D02*
X75994247Y-56548496D01*
X75994247Y-56548496D02*
X75946628Y-56643734D01*
X75375200Y-56215163D02*
X75327580Y-56310401D01*
X75327580Y-56310401D02*
X75327580Y-56548496D01*
X75327580Y-56548496D02*
X75375200Y-56643734D01*
X75375200Y-56643734D02*
X75470438Y-56691353D01*
X75470438Y-56691353D02*
X75565676Y-56691353D01*
X75565676Y-56691353D02*
X75660914Y-56643734D01*
X75660914Y-56643734D02*
X75708533Y-56548496D01*
X75708533Y-56548496D02*
X75708533Y-56310401D01*
X75708533Y-56310401D02*
X75756152Y-56215163D01*
X75994247Y-55834210D02*
X75327580Y-55596115D01*
X75994247Y-55358020D02*
X75327580Y-55596115D01*
X75327580Y-55596115D02*
X75089485Y-55691353D01*
X75089485Y-55691353D02*
X75041866Y-55738972D01*
X75041866Y-55738972D02*
X74994247Y-55834210D01*
X76327580Y-55072305D02*
X75327580Y-54834210D01*
X75327580Y-54834210D02*
X76041866Y-54643734D01*
X76041866Y-54643734D02*
X75327580Y-54453258D01*
X75327580Y-54453258D02*
X76327580Y-54215163D01*
X75327580Y-53405639D02*
X75851390Y-53405639D01*
X75851390Y-53405639D02*
X75946628Y-53453258D01*
X75946628Y-53453258D02*
X75994247Y-53548496D01*
X75994247Y-53548496D02*
X75994247Y-53738972D01*
X75994247Y-53738972D02*
X75946628Y-53834210D01*
X75375200Y-53405639D02*
X75327580Y-53500877D01*
X75327580Y-53500877D02*
X75327580Y-53738972D01*
X75327580Y-53738972D02*
X75375200Y-53834210D01*
X75375200Y-53834210D02*
X75470438Y-53881829D01*
X75470438Y-53881829D02*
X75565676Y-53881829D01*
X75565676Y-53881829D02*
X75660914Y-53834210D01*
X75660914Y-53834210D02*
X75708533Y-53738972D01*
X75708533Y-53738972D02*
X75708533Y-53500877D01*
X75708533Y-53500877D02*
X75756152Y-53405639D01*
X75994247Y-53024686D02*
X75327580Y-52786591D01*
X75994247Y-52548496D02*
X75327580Y-52786591D01*
X75327580Y-52786591D02*
X75089485Y-52881829D01*
X75089485Y-52881829D02*
X75041866Y-52929448D01*
X75041866Y-52929448D02*
X74994247Y-53024686D01*
D10*
X36582561Y-47039411D02*
X36630180Y-47134649D01*
X36630180Y-47134649D02*
X36630180Y-47277506D01*
X36630180Y-47277506D02*
X36582561Y-47420363D01*
X36582561Y-47420363D02*
X36487323Y-47515601D01*
X36487323Y-47515601D02*
X36392085Y-47563220D01*
X36392085Y-47563220D02*
X36201609Y-47610839D01*
X36201609Y-47610839D02*
X36058752Y-47610839D01*
X36058752Y-47610839D02*
X35868276Y-47563220D01*
X35868276Y-47563220D02*
X35773038Y-47515601D01*
X35773038Y-47515601D02*
X35677800Y-47420363D01*
X35677800Y-47420363D02*
X35630180Y-47277506D01*
X35630180Y-47277506D02*
X35630180Y-47182268D01*
X35630180Y-47182268D02*
X35677800Y-47039411D01*
X35677800Y-47039411D02*
X35725419Y-46991792D01*
X35725419Y-46991792D02*
X36058752Y-46991792D01*
X36058752Y-46991792D02*
X36058752Y-47182268D01*
X35630180Y-46563220D02*
X36630180Y-46563220D01*
X36630180Y-46563220D02*
X36630180Y-46182268D01*
X36630180Y-46182268D02*
X36582561Y-46087030D01*
X36582561Y-46087030D02*
X36534942Y-46039411D01*
X36534942Y-46039411D02*
X36439704Y-45991792D01*
X36439704Y-45991792D02*
X36296847Y-45991792D01*
X36296847Y-45991792D02*
X36201609Y-46039411D01*
X36201609Y-46039411D02*
X36153990Y-46087030D01*
X36153990Y-46087030D02*
X36106371Y-46182268D01*
X36106371Y-46182268D02*
X36106371Y-46563220D01*
X35630180Y-45563220D02*
X36630180Y-45563220D01*
X36630180Y-44896554D02*
X36630180Y-44706078D01*
X36630180Y-44706078D02*
X36582561Y-44610840D01*
X36582561Y-44610840D02*
X36487323Y-44515602D01*
X36487323Y-44515602D02*
X36296847Y-44467983D01*
X36296847Y-44467983D02*
X35963514Y-44467983D01*
X35963514Y-44467983D02*
X35773038Y-44515602D01*
X35773038Y-44515602D02*
X35677800Y-44610840D01*
X35677800Y-44610840D02*
X35630180Y-44706078D01*
X35630180Y-44706078D02*
X35630180Y-44896554D01*
X35630180Y-44896554D02*
X35677800Y-44991792D01*
X35677800Y-44991792D02*
X35773038Y-45087030D01*
X35773038Y-45087030D02*
X35963514Y-45134649D01*
X35963514Y-45134649D02*
X36296847Y-45134649D01*
X36296847Y-45134649D02*
X36487323Y-45087030D01*
X36487323Y-45087030D02*
X36582561Y-44991792D01*
X36582561Y-44991792D02*
X36630180Y-44896554D01*
X35630180Y-43515602D02*
X35630180Y-44087030D01*
X35630180Y-43801316D02*
X36630180Y-43801316D01*
X36630180Y-43801316D02*
X36487323Y-43896554D01*
X36487323Y-43896554D02*
X36392085Y-43991792D01*
X36392085Y-43991792D02*
X36344466Y-44087030D01*
X36630180Y-42896554D02*
X36630180Y-42801316D01*
X36630180Y-42801316D02*
X36582561Y-42706078D01*
X36582561Y-42706078D02*
X36534942Y-42658459D01*
X36534942Y-42658459D02*
X36439704Y-42610840D01*
X36439704Y-42610840D02*
X36249228Y-42563221D01*
X36249228Y-42563221D02*
X36011133Y-42563221D01*
X36011133Y-42563221D02*
X35820657Y-42610840D01*
X35820657Y-42610840D02*
X35725419Y-42658459D01*
X35725419Y-42658459D02*
X35677800Y-42706078D01*
X35677800Y-42706078D02*
X35630180Y-42801316D01*
X35630180Y-42801316D02*
X35630180Y-42896554D01*
X35630180Y-42896554D02*
X35677800Y-42991792D01*
X35677800Y-42991792D02*
X35725419Y-43039411D01*
X35725419Y-43039411D02*
X35820657Y-43087030D01*
X35820657Y-43087030D02*
X36011133Y-43134649D01*
X36011133Y-43134649D02*
X36249228Y-43134649D01*
X36249228Y-43134649D02*
X36439704Y-43087030D01*
X36439704Y-43087030D02*
X36534942Y-43039411D01*
X36534942Y-43039411D02*
X36582561Y-42991792D01*
X36582561Y-42991792D02*
X36630180Y-42896554D01*
D13*
X36800000Y-56300000D03*
X62500000Y-54200000D03*
X63500000Y-55800000D03*
X59100000Y-61300000D03*
X50200000Y-58875000D03*
X34900000Y-59500000D03*
X25225000Y-52800000D03*
X21200000Y-40800000D03*
X20700000Y-53200000D03*
X65400000Y-21800000D03*
X65800000Y-37400000D03*
X62200000Y-66800000D03*
X55900000Y-24400000D03*
X23025000Y-19300000D03*
X30100000Y-55600000D03*
X20800000Y-30000000D03*
X67600000Y-55700000D03*
X37700000Y-24700000D03*
X30900000Y-49700000D03*
X39100000Y-66700000D03*
X56800000Y-41600000D03*
X57800000Y-51100000D03*
X30900000Y-46700000D03*
X46000000Y-37700000D03*
X73700000Y-51100000D03*
X15200000Y-52400000D03*
X25400000Y-54400000D03*
X19400000Y-37300000D03*
X17000000Y-61000000D03*
X68800000Y-25300000D03*
X25200000Y-51000000D03*
X35200000Y-22900000D03*
X40900000Y-39900000D03*
X66000000Y-46800000D03*
X30900000Y-41300000D03*
X27462312Y-20200331D03*
X24100000Y-24375000D03*
X25500000Y-21500000D03*
X27450000Y-21500000D03*
X25500000Y-22800000D03*
X27400000Y-22800000D03*
X43200000Y-24700000D03*
X55500000Y-56100000D03*
X42587347Y-60187347D03*
X44100000Y-60500000D03*
X15490000Y-26023000D03*
X73783000Y-26023000D03*
X15490000Y-28563000D03*
X73783000Y-28563000D03*
X16760000Y-22975000D03*
X72640000Y-22975000D03*
X16760000Y-42025000D03*
X72640000Y-42025000D03*
X15490000Y-31103000D03*
X73783000Y-31103000D03*
X15490000Y-33643000D03*
X73783000Y-33643000D03*
X15490000Y-38723000D03*
X73783000Y-38723000D03*
X15490000Y-36183000D03*
X73783000Y-36183000D03*
X17700000Y-56180000D03*
X20240000Y-56180000D03*
X22780000Y-56180000D03*
X22730000Y-48560000D03*
X20190000Y-48560000D03*
X17650000Y-48560000D03*
X15110000Y-48560000D03*
X48140000Y-64800000D03*
X45600000Y-64800000D03*
X20380000Y-16800000D03*
X20380000Y-14260000D03*
X22920000Y-16800000D03*
X22920000Y-14260000D03*
X25460000Y-16800000D03*
X25460000Y-14260000D03*
X28000000Y-16800000D03*
X28000000Y-14260000D03*
X30540000Y-16800000D03*
X30540000Y-14260000D03*
X33080000Y-16800000D03*
X33080000Y-14260000D03*
X35620000Y-16800000D03*
X35620000Y-14260000D03*
X38160000Y-16800000D03*
X38160000Y-14260000D03*
X40700000Y-16800000D03*
X40700000Y-14260000D03*
X43240000Y-16800000D03*
X43240000Y-14260000D03*
X45780000Y-16800000D03*
X45780000Y-14260000D03*
X48320000Y-16800000D03*
X48320000Y-14260000D03*
X50860000Y-16800000D03*
X50860000Y-14260000D03*
X53400000Y-16800000D03*
X53400000Y-14260000D03*
X55940000Y-16800000D03*
X55940000Y-14260000D03*
X58480000Y-16800000D03*
X58480000Y-14260000D03*
X61020000Y-16800000D03*
X61020000Y-14260000D03*
X63560000Y-16800000D03*
X63560000Y-14260000D03*
X66100000Y-16800000D03*
X66100000Y-14260000D03*
X68640000Y-16800000D03*
X68640000Y-14260000D03*
X33640000Y-52000000D03*
X33640000Y-49460000D03*
X36180000Y-52000000D03*
X36180000Y-49460000D03*
X38720000Y-52000000D03*
X38720000Y-49460000D03*
X41260000Y-52000000D03*
X41260000Y-49460000D03*
X43800000Y-52000000D03*
X43800000Y-49460000D03*
X46340000Y-52000000D03*
X46340000Y-49460000D03*
X48880000Y-52000000D03*
X48880000Y-49460000D03*
X51420000Y-52000000D03*
X51420000Y-49460000D03*
X53960000Y-52000000D03*
X53960000Y-49460000D03*
X56500000Y-52000000D03*
X56500000Y-49460000D03*
X15500000Y-64500000D03*
X73500000Y-64500000D03*
X73500000Y-15500000D03*
X15500000Y-15500000D03*
X20470000Y-64800000D03*
X23010000Y-64800000D03*
X25550000Y-64800000D03*
X67900000Y-59875000D03*
X67900000Y-62415000D03*
X67900000Y-64955000D03*
M02*
