%TF.GenerationSoftware,KiCad,Pcbnew,7.0.10*%
%TF.CreationDate,2024-08-04T17:12:35+10:00*%
%TF.ProjectId,AI4R-PIHAT,41493452-2d50-4494-9841-542e6b696361,rev?*%
%TF.SameCoordinates,Original*%
%TF.FileFunction,Soldermask,Bot*%
%TF.FilePolarity,Negative*%
%FSLAX46Y46*%
G04 Gerber Fmt 4.6, Leading zero omitted, Abs format (unit mm)*
G04 Created by KiCad (PCBNEW 7.0.10) date 2024-08-04 17:12:35*
%MOMM*%
%LPD*%
G01*
G04 APERTURE LIST*
%ADD10C,1.982000*%
%ADD11C,3.404000*%
%ADD12C,1.524000*%
%ADD13O,1.700000X1.700000*%
%ADD14R,1.700000X1.700000*%
%ADD15C,5.400000*%
G04 APERTURE END LIST*
D10*
%TO.C,U1*%
X15490000Y-26023000D03*
X73783000Y-26023000D03*
X15490000Y-28563000D03*
X73783000Y-28563000D03*
D11*
X16760000Y-22975000D03*
X72640000Y-22975000D03*
X16760000Y-42025000D03*
X72640000Y-42025000D03*
D10*
X15490000Y-31103000D03*
X73783000Y-31103000D03*
X15490000Y-33643000D03*
X73783000Y-33643000D03*
X15490000Y-38723000D03*
X73783000Y-38723000D03*
X15490000Y-36183000D03*
X73783000Y-36183000D03*
%TD*%
D12*
%TO.C,U2*%
X17700000Y-56180000D03*
X20240000Y-56180000D03*
X22780000Y-56180000D03*
X22730000Y-48560000D03*
X20190000Y-48560000D03*
X17650000Y-48560000D03*
X15110000Y-48560000D03*
%TD*%
D13*
%TO.C,J9*%
X48140000Y-64800000D03*
D14*
X45600000Y-64800000D03*
%TD*%
%TO.C,J1*%
X20380000Y-16800000D03*
D13*
X20380000Y-14260000D03*
X22920000Y-16800000D03*
X22920000Y-14260000D03*
X25460000Y-16800000D03*
X25460000Y-14260000D03*
X28000000Y-16800000D03*
X28000000Y-14260000D03*
X30540000Y-16800000D03*
X30540000Y-14260000D03*
X33080000Y-16800000D03*
X33080000Y-14260000D03*
X35620000Y-16800000D03*
X35620000Y-14260000D03*
X38160000Y-16800000D03*
X38160000Y-14260000D03*
X40700000Y-16800000D03*
X40700000Y-14260000D03*
X43240000Y-16800000D03*
X43240000Y-14260000D03*
X45780000Y-16800000D03*
X45780000Y-14260000D03*
X48320000Y-16800000D03*
X48320000Y-14260000D03*
X50860000Y-16800000D03*
X50860000Y-14260000D03*
X53400000Y-16800000D03*
X53400000Y-14260000D03*
X55940000Y-16800000D03*
X55940000Y-14260000D03*
X58480000Y-16800000D03*
X58480000Y-14260000D03*
X61020000Y-16800000D03*
X61020000Y-14260000D03*
X63560000Y-16800000D03*
X63560000Y-14260000D03*
X66100000Y-16800000D03*
X66100000Y-14260000D03*
X68640000Y-16800000D03*
X68640000Y-14260000D03*
%TD*%
D14*
%TO.C,J6*%
X33640000Y-52000000D03*
D13*
X33640000Y-49460000D03*
X36180000Y-52000000D03*
X36180000Y-49460000D03*
X38720000Y-52000000D03*
X38720000Y-49460000D03*
X41260000Y-52000000D03*
X41260000Y-49460000D03*
X43800000Y-52000000D03*
X43800000Y-49460000D03*
X46340000Y-52000000D03*
X46340000Y-49460000D03*
X48880000Y-52000000D03*
X48880000Y-49460000D03*
X51420000Y-52000000D03*
X51420000Y-49460000D03*
X53960000Y-52000000D03*
X53960000Y-49460000D03*
X56500000Y-52000000D03*
X56500000Y-49460000D03*
%TD*%
D15*
%TO.C,H3*%
X15500000Y-64500000D03*
%TD*%
%TO.C,H4*%
X73500000Y-64500000D03*
%TD*%
%TO.C,H2*%
X73500000Y-15500000D03*
%TD*%
%TO.C,H1*%
X15500000Y-15500000D03*
%TD*%
D14*
%TO.C,J7*%
X20470000Y-64800000D03*
D13*
X23010000Y-64800000D03*
X25550000Y-64800000D03*
%TD*%
D14*
%TO.C,J8*%
X67900000Y-59875000D03*
D13*
X67900000Y-62415000D03*
X67900000Y-64955000D03*
%TD*%
M02*
