%TF.GenerationSoftware,KiCad,Pcbnew,7.0.10*%
%TF.CreationDate,2024-08-04T17:12:35+10:00*%
%TF.ProjectId,AI4R-PIHAT,41493452-2d50-4494-9841-542e6b696361,rev?*%
%TF.SameCoordinates,Original*%
%TF.FileFunction,Copper,L1,Top*%
%TF.FilePolarity,Positive*%
%FSLAX46Y46*%
G04 Gerber Fmt 4.6, Leading zero omitted, Abs format (unit mm)*
G04 Created by KiCad (PCBNEW 7.0.10) date 2024-08-04 17:12:35*
%MOMM*%
%LPD*%
G01*
G04 APERTURE LIST*
G04 Aperture macros list*
%AMRoundRect*
0 Rectangle with rounded corners*
0 $1 Rounding radius*
0 $2 $3 $4 $5 $6 $7 $8 $9 X,Y pos of 4 corners*
0 Add a 4 corners polygon primitive as box body*
4,1,4,$2,$3,$4,$5,$6,$7,$8,$9,$2,$3,0*
0 Add four circle primitives for the rounded corners*
1,1,$1+$1,$2,$3*
1,1,$1+$1,$4,$5*
1,1,$1+$1,$6,$7*
1,1,$1+$1,$8,$9*
0 Add four rect primitives between the rounded corners*
20,1,$1+$1,$2,$3,$4,$5,0*
20,1,$1+$1,$4,$5,$6,$7,0*
20,1,$1+$1,$6,$7,$8,$9,0*
20,1,$1+$1,$8,$9,$2,$3,0*%
G04 Aperture macros list end*
%TA.AperFunction,ComponentPad*%
%ADD10C,1.778000*%
%TD*%
%TA.AperFunction,ComponentPad*%
%ADD11C,3.200000*%
%TD*%
%TA.AperFunction,ComponentPad*%
%ADD12C,1.524000*%
%TD*%
%TA.AperFunction,SMDPad,CuDef*%
%ADD13RoundRect,0.150000X-0.150000X-0.625000X0.150000X-0.625000X0.150000X0.625000X-0.150000X0.625000X0*%
%TD*%
%TA.AperFunction,SMDPad,CuDef*%
%ADD14RoundRect,0.250000X-0.350000X-0.650000X0.350000X-0.650000X0.350000X0.650000X-0.350000X0.650000X0*%
%TD*%
%TA.AperFunction,ComponentPad*%
%ADD15O,1.700000X1.700000*%
%TD*%
%TA.AperFunction,ComponentPad*%
%ADD16R,1.700000X1.700000*%
%TD*%
%TA.AperFunction,ComponentPad*%
%ADD17C,5.400000*%
%TD*%
%TA.AperFunction,ViaPad*%
%ADD18C,0.800000*%
%TD*%
%TA.AperFunction,Conductor*%
%ADD19C,0.250000*%
%TD*%
%TA.AperFunction,Conductor*%
%ADD20C,0.750000*%
%TD*%
%ADD21C,0.350000*%
G04 APERTURE END LIST*
D10*
%TO.P,U1,GND,GND*%
%TO.N,GND*%
X15490000Y-26023000D03*
X73783000Y-26023000D03*
%TO.P,U1,OE,~{OE}*%
%TO.N,unconnected-(U1-~{OE}-PadOE)*%
X15490000Y-28563000D03*
X73783000Y-28563000D03*
D11*
%TO.P,U1,S1*%
%TO.N,N/C*%
X16760000Y-22975000D03*
%TO.P,U1,S2*%
X72640000Y-22975000D03*
%TO.P,U1,S3*%
X16760000Y-42025000D03*
%TO.P,U1,S4*%
X72640000Y-42025000D03*
D10*
%TO.P,U1,SCL,SCL*%
%TO.N,SCL1*%
X15490000Y-31103000D03*
X73783000Y-31103000D03*
%TO.P,U1,SDA,SDA*%
%TO.N,SDA1*%
X15490000Y-33643000D03*
X73783000Y-33643000D03*
%TO.P,U1,V+,V+*%
%TO.N,unconnected-(U1-PadV+)*%
X15490000Y-38723000D03*
X73783000Y-38723000D03*
%TO.P,U1,VCC,VCC*%
%TO.N,VCC*%
X15490000Y-36183000D03*
X73783000Y-36183000D03*
%TD*%
D12*
%TO.P,U2,1,RCIN*%
%TO.N,Net-(J7-Pin_3)*%
X17700000Y-56180000D03*
%TO.P,U2,2,VRC*%
%TO.N,Net-(J7-Pin_2)*%
X20240000Y-56180000D03*
%TO.P,U2,3,GND*%
%TO.N,GND*%
X22780000Y-56180000D03*
%TO.P,U2,4,GND*%
X22730000Y-48560000D03*
%TO.P,U2,5,VCC*%
%TO.N,3.3V*%
X20190000Y-48560000D03*
%TO.P,U2,6,OUT*%
%TO.N,GPIO17*%
X17650000Y-48560000D03*
%TO.P,U2,7,GOOD*%
%TO.N,GPIO27*%
X15110000Y-48560000D03*
%TD*%
D13*
%TO.P,J2,1,Pin_1*%
%TO.N,GND*%
X60500000Y-61300000D03*
%TO.P,J2,2,Pin_2*%
%TO.N,3.3V*%
X61500000Y-61300000D03*
%TO.P,J2,3,Pin_3*%
%TO.N,SDA1*%
X62500000Y-61300000D03*
%TO.P,J2,4,Pin_4*%
%TO.N,SCL1*%
X63500000Y-61300000D03*
D14*
%TO.P,J2,MP*%
%TO.N,N/C*%
X59200000Y-65175000D03*
X64800000Y-65175000D03*
%TD*%
D15*
%TO.P,J9,2,Pin_2*%
%TO.N,VCC*%
X48140000Y-64800000D03*
D16*
%TO.P,J9,1,Pin_1*%
%TO.N,GND*%
X45600000Y-64800000D03*
%TD*%
%TO.P,J1,1,Pin_1*%
%TO.N,3.3V*%
X20380000Y-16800000D03*
D15*
%TO.P,J1,2,Pin_2*%
%TO.N,VCC*%
X20380000Y-14260000D03*
%TO.P,J1,3,Pin_3*%
%TO.N,SDA1*%
X22920000Y-16800000D03*
%TO.P,J1,4,Pin_4*%
%TO.N,unconnected-(J1-Pin_4-Pad4)*%
X22920000Y-14260000D03*
%TO.P,J1,5,Pin_5*%
%TO.N,SCL1*%
X25460000Y-16800000D03*
%TO.P,J1,6,Pin_6*%
%TO.N,GND*%
X25460000Y-14260000D03*
%TO.P,J1,7,Pin_7*%
%TO.N,SDA2*%
X28000000Y-16800000D03*
%TO.P,J1,8,Pin_8*%
%TO.N,GPIO14*%
X28000000Y-14260000D03*
%TO.P,J1,9,Pin_9*%
%TO.N,GND*%
X30540000Y-16800000D03*
%TO.P,J1,10,Pin_10*%
%TO.N,GPIO15*%
X30540000Y-14260000D03*
%TO.P,J1,11,Pin_11*%
%TO.N,GPIO17*%
X33080000Y-16800000D03*
%TO.P,J1,12,Pin_12*%
%TO.N,GPIO18*%
X33080000Y-14260000D03*
%TO.P,J1,13,Pin_13*%
%TO.N,GPIO27*%
X35620000Y-16800000D03*
%TO.P,J1,14,Pin_14*%
%TO.N,GND*%
X35620000Y-14260000D03*
%TO.P,J1,15,Pin_15*%
%TO.N,SDA4*%
X38160000Y-16800000D03*
%TO.P,J1,16,Pin_16*%
%TO.N,SCL4*%
X38160000Y-14260000D03*
%TO.P,J1,17,Pin_17*%
%TO.N,3.3V*%
X40700000Y-16800000D03*
%TO.P,J1,18,Pin_18*%
%TO.N,unconnected-(J1-Pin_18-Pad18)*%
X40700000Y-14260000D03*
%TO.P,J1,19,Pin_19*%
%TO.N,GPIO10*%
X43240000Y-16800000D03*
%TO.P,J1,20,Pin_20*%
%TO.N,GND*%
X43240000Y-14260000D03*
%TO.P,J1,21,Pin_21*%
%TO.N,GPIO9*%
X45780000Y-16800000D03*
%TO.P,J1,22,Pin_22*%
%TO.N,unconnected-(J1-Pin_22-Pad22)*%
X45780000Y-14260000D03*
%TO.P,J1,23,Pin_23*%
%TO.N,GPIO11*%
X48320000Y-16800000D03*
%TO.P,J1,24,Pin_24*%
%TO.N,GPIO8*%
X48320000Y-14260000D03*
%TO.P,J1,25,Pin_25*%
%TO.N,GND*%
X50860000Y-16800000D03*
%TO.P,J1,26,Pin_26*%
%TO.N,GPIO7*%
X50860000Y-14260000D03*
%TO.P,J1,27,Pin_27*%
%TO.N,unconnected-(J1-Pin_27-Pad27)*%
X53400000Y-16800000D03*
%TO.P,J1,28,Pin_28*%
%TO.N,unconnected-(J1-Pin_28-Pad28)*%
X53400000Y-14260000D03*
%TO.P,J1,29,Pin_29*%
%TO.N,SCL2*%
X55940000Y-16800000D03*
%TO.P,J1,30,Pin_30*%
%TO.N,GND*%
X55940000Y-14260000D03*
%TO.P,J1,31,Pin_31*%
%TO.N,unconnected-(J1-Pin_31-Pad31)*%
X58480000Y-16800000D03*
%TO.P,J1,32,Pin_32*%
%TO.N,SDA3*%
X58480000Y-14260000D03*
%TO.P,J1,33,Pin_33*%
%TO.N,SCL3*%
X61020000Y-16800000D03*
%TO.P,J1,34,Pin_34*%
%TO.N,GND*%
X61020000Y-14260000D03*
%TO.P,J1,35,Pin_35*%
%TO.N,unconnected-(J1-Pin_35-Pad35)*%
X63560000Y-16800000D03*
%TO.P,J1,36,Pin_36*%
%TO.N,unconnected-(J1-Pin_36-Pad36)*%
X63560000Y-14260000D03*
%TO.P,J1,37,Pin_37*%
%TO.N,GPIO26*%
X66100000Y-16800000D03*
%TO.P,J1,38,Pin_38*%
%TO.N,unconnected-(J1-Pin_38-Pad38)*%
X66100000Y-14260000D03*
%TO.P,J1,39,Pin_39*%
%TO.N,GND*%
X68640000Y-16800000D03*
%TO.P,J1,40,Pin_40*%
%TO.N,unconnected-(J1-Pin_40-Pad40)*%
X68640000Y-14260000D03*
%TD*%
D16*
%TO.P,J6,1,Pin_1*%
%TO.N,GND*%
X33640000Y-52000000D03*
D15*
%TO.P,J6,2,Pin_2*%
%TO.N,GPIO11*%
X33640000Y-49460000D03*
%TO.P,J6,3,Pin_3*%
%TO.N,GND*%
X36180000Y-52000000D03*
%TO.P,J6,4,Pin_4*%
%TO.N,GPIO10*%
X36180000Y-49460000D03*
%TO.P,J6,5,Pin_5*%
%TO.N,GND*%
X38720000Y-52000000D03*
%TO.P,J6,6,Pin_6*%
%TO.N,GPIO9*%
X38720000Y-49460000D03*
%TO.P,J6,7,Pin_7*%
%TO.N,GND*%
X41260000Y-52000000D03*
%TO.P,J6,8,Pin_8*%
%TO.N,GPIO8*%
X41260000Y-49460000D03*
%TO.P,J6,9,Pin_9*%
%TO.N,GND*%
X43800000Y-52000000D03*
%TO.P,J6,10,Pin_10*%
%TO.N,GPIO7*%
X43800000Y-49460000D03*
%TO.P,J6,11,Pin_11*%
%TO.N,GND*%
X46340000Y-52000000D03*
%TO.P,J6,12,Pin_12*%
%TO.N,GPIO14*%
X46340000Y-49460000D03*
%TO.P,J6,13,Pin_13*%
%TO.N,GND*%
X48880000Y-52000000D03*
%TO.P,J6,14,Pin_14*%
%TO.N,GPIO15*%
X48880000Y-49460000D03*
%TO.P,J6,15,Pin_15*%
%TO.N,GND*%
X51420000Y-52000000D03*
%TO.P,J6,16,Pin_16*%
%TO.N,GPIO18*%
X51420000Y-49460000D03*
%TO.P,J6,17,Pin_17*%
%TO.N,GND*%
X53960000Y-52000000D03*
%TO.P,J6,18,Pin_18*%
%TO.N,3.3V*%
X53960000Y-49460000D03*
%TO.P,J6,19,Pin_19*%
%TO.N,GND*%
X56500000Y-52000000D03*
%TO.P,J6,20,Pin_20*%
%TO.N,3.3V*%
X56500000Y-49460000D03*
%TD*%
D17*
%TO.P,H3,1*%
%TO.N,N/C*%
X15500000Y-64500000D03*
%TD*%
%TO.P,H4,1*%
%TO.N,N/C*%
X73500000Y-64500000D03*
%TD*%
%TO.P,H2,1*%
%TO.N,N/C*%
X73500000Y-15500000D03*
%TD*%
D13*
%TO.P,J5,1,Pin_1*%
%TO.N,GND*%
X30100000Y-61325000D03*
%TO.P,J5,2,Pin_2*%
%TO.N,3.3V*%
X31100000Y-61325000D03*
%TO.P,J5,3,Pin_3*%
%TO.N,SDA4*%
X32100000Y-61325000D03*
%TO.P,J5,4,Pin_4*%
%TO.N,SCL4*%
X33100000Y-61325000D03*
D14*
%TO.P,J5,MP*%
%TO.N,N/C*%
X28800000Y-65200000D03*
X34400000Y-65200000D03*
%TD*%
D17*
%TO.P,H1,1*%
%TO.N,N/C*%
X15500000Y-15500000D03*
%TD*%
D16*
%TO.P,J7,1,Pin_1*%
%TO.N,GND*%
X20470000Y-64800000D03*
D15*
%TO.P,J7,2,Pin_2*%
%TO.N,Net-(J7-Pin_2)*%
X23010000Y-64800000D03*
%TO.P,J7,3,Pin_3*%
%TO.N,Net-(J7-Pin_3)*%
X25550000Y-64800000D03*
%TD*%
D16*
%TO.P,J8,1,Pin_1*%
%TO.N,GND*%
X67900000Y-59875000D03*
D15*
%TO.P,J8,2,Pin_2*%
%TO.N,3.3V*%
X67900000Y-62415000D03*
%TO.P,J8,3,Pin_3*%
%TO.N,GPIO26*%
X67900000Y-64955000D03*
%TD*%
D14*
%TO.P,J3,MP*%
%TO.N,N/C*%
X56800000Y-65175000D03*
X51200000Y-65175000D03*
D13*
%TO.P,J3,4,Pin_4*%
%TO.N,SCL2*%
X55500000Y-61300000D03*
%TO.P,J3,3,Pin_3*%
%TO.N,SDA2*%
X54500000Y-61300000D03*
%TO.P,J3,2,Pin_2*%
%TO.N,3.3V*%
X53500000Y-61300000D03*
%TO.P,J3,1,Pin_1*%
%TO.N,GND*%
X52500000Y-61300000D03*
%TD*%
%TO.P,J4,1,Pin_1*%
%TO.N,GND*%
X38200000Y-61325000D03*
%TO.P,J4,2,Pin_2*%
%TO.N,3.3V*%
X39200000Y-61325000D03*
%TO.P,J4,3,Pin_3*%
%TO.N,SDA3*%
X40200000Y-61325000D03*
%TO.P,J4,4,Pin_4*%
%TO.N,SCL3*%
X41200000Y-61325000D03*
D14*
%TO.P,J4,MP*%
%TO.N,N/C*%
X36900000Y-65200000D03*
X42500000Y-65200000D03*
%TD*%
D18*
%TO.N,GND*%
X36800000Y-56300000D03*
%TO.N,SDA1*%
X62500000Y-54200000D03*
%TO.N,SCL1*%
X63500000Y-55800000D03*
%TO.N,GND*%
X59100000Y-61300000D03*
%TO.N,SDA2*%
X50200000Y-58875000D03*
%TO.N,SCL4*%
X34900000Y-59500000D03*
%TO.N,3.3V*%
X25225000Y-52800000D03*
%TO.N,GND*%
X21200000Y-40800000D03*
X20700000Y-53200000D03*
X65400000Y-21800000D03*
X65800000Y-37400000D03*
X62200000Y-66800000D03*
X55900000Y-24400000D03*
X23025000Y-19300000D03*
X30100000Y-55600000D03*
X20800000Y-30000000D03*
X67600000Y-55700000D03*
X37700000Y-24700000D03*
X30900000Y-49700000D03*
X39100000Y-66700000D03*
X56800000Y-41600000D03*
X57800000Y-51100000D03*
X30900000Y-46700000D03*
X46000000Y-37700000D03*
X73700000Y-51100000D03*
X15200000Y-52400000D03*
X25400000Y-54400000D03*
X19400000Y-37300000D03*
X17000000Y-61000000D03*
X68800000Y-25300000D03*
X25200000Y-51000000D03*
X35200000Y-22900000D03*
X40900000Y-39900000D03*
X66000000Y-46800000D03*
X30900000Y-41300000D03*
%TO.N,GPIO17*%
X27462312Y-20200331D03*
X24100000Y-24375000D03*
%TO.N,GPIO27*%
X25500000Y-21500000D03*
X27450000Y-21500000D03*
%TO.N,SDA4*%
X25500000Y-22800000D03*
X27400000Y-22800000D03*
%TO.N,GPIO10*%
X43200000Y-24700000D03*
%TO.N,SCL2*%
X55500000Y-56100000D03*
%TO.N,SDA3*%
X42587347Y-60187347D03*
%TO.N,SCL3*%
X44100000Y-60500000D03*
%TD*%
D19*
%TO.N,GPIO9*%
X37065000Y-50635000D02*
X35693299Y-50635000D01*
X45780000Y-17645305D02*
X45780000Y-16800000D01*
X35693299Y-50635000D02*
X34900000Y-51428299D01*
X32465000Y-53175000D02*
X32015000Y-52725000D01*
X34900000Y-51428299D02*
X34900000Y-53090000D01*
X38240000Y-49460000D02*
X37065000Y-50635000D01*
X38720000Y-49460000D02*
X38240000Y-49460000D01*
X34900000Y-53090000D02*
X34815000Y-53175000D01*
X34815000Y-53175000D02*
X32465000Y-53175000D01*
X32015000Y-52725000D02*
X32015000Y-31410305D01*
X32015000Y-31410305D02*
X45780000Y-17645305D01*
%TO.N,GPIO14*%
X46340000Y-49460000D02*
X45000000Y-50800000D01*
X37355000Y-52486701D02*
X36041701Y-53800000D01*
X29175000Y-15435000D02*
X28000000Y-14260000D01*
X45000000Y-50800000D02*
X38068299Y-50800000D01*
X37355000Y-51513299D02*
X37355000Y-52486701D01*
X32100000Y-53800000D02*
X26500000Y-48200000D01*
X36041701Y-53800000D02*
X32100000Y-53800000D01*
X28225000Y-17975000D02*
X28486701Y-17975000D01*
X26500000Y-48200000D02*
X26500000Y-19700000D01*
X28486701Y-17975000D02*
X29175000Y-17286701D01*
X26500000Y-19700000D02*
X28225000Y-17975000D01*
X38068299Y-50800000D02*
X37355000Y-51513299D01*
X29175000Y-17286701D02*
X29175000Y-15435000D01*
%TO.N,GPIO26*%
X67900000Y-64955000D02*
X68345000Y-64955000D01*
X68345000Y-64955000D02*
X69700000Y-63600000D01*
X69700000Y-63600000D02*
X69700000Y-20400000D01*
X69700000Y-20400000D02*
X66100000Y-16800000D01*
%TO.N,SDA1*%
X62500000Y-61300000D02*
X62500000Y-54200000D01*
%TO.N,SCL1*%
X63500000Y-61300000D02*
X63500000Y-55800000D01*
X15417000Y-31103000D02*
X15597000Y-31103000D01*
X17275000Y-26075305D02*
X25460000Y-17890305D01*
X25460000Y-17890305D02*
X25460000Y-16800000D01*
X15597000Y-31103000D02*
X17275000Y-29425000D01*
X17275000Y-29425000D02*
X17275000Y-26075305D01*
%TO.N,SCL4*%
X34900000Y-59500000D02*
X33100000Y-61300000D01*
X33100000Y-61300000D02*
X33100000Y-61325000D01*
X34900000Y-59500000D02*
X34700000Y-59700000D01*
%TO.N,SDA2*%
X50200000Y-58875000D02*
X53475000Y-58875000D01*
X53475000Y-58875000D02*
X54500000Y-59900000D01*
X54500000Y-59900000D02*
X54500000Y-61225000D01*
%TO.N,3.3V*%
X56400000Y-55000000D02*
X56400000Y-60100000D01*
D20*
X53200000Y-55000000D02*
X58300000Y-55000000D01*
X58300000Y-55000000D02*
X58900000Y-54400000D01*
X59500000Y-53800000D02*
X59500000Y-51300000D01*
X59500000Y-51300000D02*
X57660000Y-49460000D01*
X58900000Y-54400000D02*
X59500000Y-53800000D01*
X57660000Y-49460000D02*
X56500000Y-49460000D01*
D19*
%TO.N,VCC*%
X13300000Y-38373000D02*
X13300000Y-58600000D01*
X46800000Y-63100000D02*
X48140000Y-64440000D01*
X13300000Y-58600000D02*
X14600000Y-59900000D01*
X15490000Y-36183000D02*
X13300000Y-38373000D01*
X28500000Y-63100000D02*
X46800000Y-63100000D01*
X14600000Y-59900000D02*
X25300000Y-59900000D01*
X25300000Y-59900000D02*
X28500000Y-63100000D01*
X48140000Y-64440000D02*
X48140000Y-64800000D01*
%TO.N,GPIO27*%
X15110000Y-48560000D02*
X15640000Y-48560000D01*
X15640000Y-48560000D02*
X22850000Y-41350000D01*
X22850000Y-41350000D02*
X22850000Y-22700000D01*
X22850000Y-22700000D02*
X24050000Y-21500000D01*
X24050000Y-21500000D02*
X25500000Y-21500000D01*
%TO.N,3.3V*%
X56700000Y-62000000D02*
X56400000Y-61700000D01*
X57100000Y-62400000D02*
X56700000Y-62000000D01*
X53500000Y-61225000D02*
X53500000Y-61999999D01*
X53500000Y-61999999D02*
X53900001Y-62400000D01*
X56300000Y-62400000D02*
X56700000Y-62000000D01*
X53900001Y-62400000D02*
X56300000Y-62400000D01*
X56400000Y-61000000D02*
X56400000Y-60100000D01*
X61500000Y-61225000D02*
X61500000Y-60450001D01*
X61500000Y-60450001D02*
X61149999Y-60100000D01*
X61149999Y-60100000D02*
X56400000Y-60100000D01*
%TO.N,SCL2*%
X55500000Y-56100000D02*
X55500000Y-61225000D01*
%TO.N,SCL3*%
X44100000Y-60500000D02*
X44000000Y-60500000D01*
X44000000Y-60500000D02*
X43175000Y-61325000D01*
X43175000Y-61325000D02*
X41200000Y-61325000D01*
%TO.N,SDA3*%
X42587347Y-60187347D02*
X40886745Y-60187347D01*
X40886745Y-60187347D02*
X40200000Y-60874092D01*
X40200000Y-60874092D02*
X40200000Y-61325000D01*
%TO.N,3.3V*%
X39200000Y-61325000D02*
X39200000Y-55800000D01*
X39200000Y-55800000D02*
X40000000Y-55000000D01*
%TO.N,SDA4*%
X32100000Y-61775908D02*
X31450908Y-62425000D01*
X25500000Y-43647144D02*
X25500000Y-22800000D01*
X31450908Y-62425000D02*
X29749092Y-62425000D01*
X24275000Y-56950908D02*
X24275000Y-44872144D01*
X29749092Y-62425000D02*
X24275000Y-56950908D01*
X32100000Y-61325000D02*
X32100000Y-61775908D01*
X24275000Y-44872144D02*
X25500000Y-43647144D01*
%TO.N,3.3V*%
X31100000Y-61325000D02*
X31100000Y-56850000D01*
X31100000Y-56850000D02*
X32000000Y-55950000D01*
X68500000Y-62015000D02*
X68100000Y-62415000D01*
X68100000Y-62415000D02*
X67900000Y-62415000D01*
X67900000Y-62415000D02*
X67885000Y-62400000D01*
X67885000Y-62400000D02*
X57100000Y-62400000D01*
X56400000Y-61700000D02*
X56400000Y-61000000D01*
X48200000Y-55100000D02*
X48300000Y-55000000D01*
X25225000Y-52800000D02*
X28850000Y-52800000D01*
D20*
X44600000Y-55000000D02*
X45100000Y-55000000D01*
X47900000Y-55000000D02*
X48300000Y-55000000D01*
X32950000Y-55000000D02*
X35200000Y-55000000D01*
X50600000Y-55000000D02*
X52700000Y-55000000D01*
X35200000Y-55000000D02*
X35800000Y-55000000D01*
X37400000Y-55000000D02*
X39600000Y-55000000D01*
D19*
X32000000Y-55950000D02*
X32950000Y-55000000D01*
D20*
X52700000Y-55000000D02*
X53200000Y-55000000D01*
X40000000Y-55000000D02*
X42950000Y-55000000D01*
X48300000Y-55000000D02*
X49450000Y-55000000D01*
X46700000Y-55000000D02*
X47900000Y-55000000D01*
X42950000Y-55000000D02*
X44600000Y-55000000D01*
X45100000Y-55000000D02*
X46700000Y-55000000D01*
D19*
X28850000Y-52800000D02*
X32000000Y-55950000D01*
D20*
X49450000Y-55000000D02*
X50600000Y-55000000D01*
X35800000Y-55000000D02*
X37400000Y-55000000D01*
X39600000Y-55000000D02*
X40000000Y-55000000D01*
D19*
%TO.N,SDA1*%
X13500000Y-32500000D02*
X13500000Y-22000000D01*
X15357000Y-33643000D02*
X15000000Y-34000000D01*
X15000000Y-34000000D02*
X13500000Y-32500000D01*
X15417000Y-33643000D02*
X15357000Y-33643000D01*
X19720000Y-20000000D02*
X22920000Y-16800000D01*
X13500000Y-22000000D02*
X15500000Y-20000000D01*
X15500000Y-20000000D02*
X19720000Y-20000000D01*
%TO.N,GPIO17*%
X27462312Y-20200331D02*
X29679669Y-20200331D01*
X29679669Y-20200331D02*
X33080000Y-16800000D01*
X24100000Y-42110000D02*
X24100000Y-24375000D01*
X24100000Y-24375000D02*
X24075000Y-24350000D01*
X17610000Y-48600000D02*
X24100000Y-42110000D01*
%TO.N,GPIO27*%
X27450000Y-21500000D02*
X30920000Y-21500000D01*
X30920000Y-21500000D02*
X35620000Y-16800000D01*
%TO.N,SDA4*%
X32160000Y-22800000D02*
X38160000Y-16800000D01*
X27400000Y-22800000D02*
X32160000Y-22800000D01*
X25500000Y-22800000D02*
X25500000Y-22900000D01*
%TO.N,GPIO10*%
X36180000Y-49460000D02*
X36180000Y-31720000D01*
X36180000Y-31720000D02*
X43200000Y-24700000D01*
%TO.N,GPIO11*%
X33640000Y-31480000D02*
X48320000Y-16800000D01*
X33640000Y-49460000D02*
X33640000Y-31480000D01*
%TO.N,GPIO8*%
X49500000Y-41220000D02*
X49500000Y-15440000D01*
X41260000Y-49460000D02*
X49500000Y-41220000D01*
X49500000Y-15440000D02*
X48320000Y-14260000D01*
%TO.N,GPIO7*%
X52035000Y-41225000D02*
X52035000Y-15435000D01*
X52035000Y-15435000D02*
X50860000Y-14260000D01*
X43800000Y-49460000D02*
X52035000Y-41225000D01*
%TD*%
%TA.AperFunction,Conductor*%
%TO.N,GND*%
G36*
X24930743Y-24823727D02*
G01*
X24969115Y-24882116D01*
X24974500Y-24918263D01*
X24974500Y-43378112D01*
X24954815Y-43445151D01*
X24938181Y-43465793D01*
X23911270Y-44492703D01*
X23908227Y-44495644D01*
X23863532Y-44537387D01*
X23863531Y-44537388D01*
X23843302Y-44570652D01*
X23836161Y-44581144D01*
X23812639Y-44612163D01*
X23812633Y-44612173D01*
X23806525Y-44627661D01*
X23797125Y-44646586D01*
X23788477Y-44660808D01*
X23788475Y-44660814D01*
X23777971Y-44698299D01*
X23773926Y-44710325D01*
X23759641Y-44746553D01*
X23759640Y-44746555D01*
X23757937Y-44763120D01*
X23753991Y-44783883D01*
X23749500Y-44799911D01*
X23749500Y-44838847D01*
X23748850Y-44851526D01*
X23744869Y-44890251D01*
X23744869Y-44890255D01*
X23747697Y-44906655D01*
X23749500Y-44927724D01*
X23749500Y-47963320D01*
X23729815Y-48030359D01*
X23677011Y-48076114D01*
X23607853Y-48086058D01*
X23607307Y-48085978D01*
X23563997Y-48079554D01*
X23114903Y-48528648D01*
X23114949Y-48528102D01*
X23083734Y-48404838D01*
X23014187Y-48298388D01*
X22913843Y-48220287D01*
X22793578Y-48179000D01*
X22757448Y-48179000D01*
X23210444Y-47726002D01*
X23099925Y-47666928D01*
X22918583Y-47611918D01*
X22730000Y-47593345D01*
X22541416Y-47611918D01*
X22360072Y-47666928D01*
X22249555Y-47726001D01*
X22249555Y-47726002D01*
X22702553Y-48179000D01*
X22698431Y-48179000D01*
X22604579Y-48194661D01*
X22492749Y-48255180D01*
X22406629Y-48348731D01*
X22355552Y-48465177D01*
X22349894Y-48533447D01*
X21896002Y-48079555D01*
X21896001Y-48079555D01*
X21836928Y-48190072D01*
X21781918Y-48371416D01*
X21763345Y-48560000D01*
X21781918Y-48748583D01*
X21836928Y-48929925D01*
X21896002Y-49040444D01*
X22345096Y-48591350D01*
X22345051Y-48591898D01*
X22376266Y-48715162D01*
X22445813Y-48821612D01*
X22546157Y-48899713D01*
X22666422Y-48941000D01*
X22702553Y-48941000D01*
X22249554Y-49393997D01*
X22360074Y-49453071D01*
X22541416Y-49508081D01*
X22730000Y-49526654D01*
X22918583Y-49508081D01*
X23099927Y-49453071D01*
X23210444Y-49393997D01*
X23210444Y-49393996D01*
X22757448Y-48941000D01*
X22761569Y-48941000D01*
X22855421Y-48925339D01*
X22967251Y-48864820D01*
X23053371Y-48771269D01*
X23104448Y-48654823D01*
X23110105Y-48586552D01*
X23563996Y-49040444D01*
X23607306Y-49034020D01*
X23676508Y-49043655D01*
X23729516Y-49089174D01*
X23749499Y-49156125D01*
X23749500Y-49156678D01*
X23749500Y-55575904D01*
X23729815Y-55642943D01*
X23677011Y-55688698D01*
X23616095Y-55697456D01*
X23164903Y-56148648D01*
X23164949Y-56148102D01*
X23133734Y-56024838D01*
X23064187Y-55918388D01*
X22963843Y-55840287D01*
X22843578Y-55799000D01*
X22807448Y-55799000D01*
X23260444Y-55346002D01*
X23149925Y-55286928D01*
X22968583Y-55231918D01*
X22780000Y-55213345D01*
X22591416Y-55231918D01*
X22410072Y-55286928D01*
X22299555Y-55346001D01*
X22299555Y-55346002D01*
X22752553Y-55799000D01*
X22748431Y-55799000D01*
X22654579Y-55814661D01*
X22542749Y-55875180D01*
X22456629Y-55968731D01*
X22405552Y-56085177D01*
X22399894Y-56153447D01*
X21946002Y-55699555D01*
X21946001Y-55699555D01*
X21886928Y-55810072D01*
X21831918Y-55991416D01*
X21813345Y-56180000D01*
X21831918Y-56368583D01*
X21886928Y-56549925D01*
X21946002Y-56660444D01*
X22395096Y-56211350D01*
X22395051Y-56211898D01*
X22426266Y-56335162D01*
X22495813Y-56441612D01*
X22596157Y-56519713D01*
X22716422Y-56561000D01*
X22752553Y-56561000D01*
X22299554Y-57013997D01*
X22410074Y-57073071D01*
X22591416Y-57128081D01*
X22780000Y-57146654D01*
X22968583Y-57128081D01*
X23149927Y-57073071D01*
X23260444Y-57013997D01*
X23260444Y-57013996D01*
X22807448Y-56561000D01*
X22811569Y-56561000D01*
X22905421Y-56545339D01*
X23017251Y-56484820D01*
X23103371Y-56391269D01*
X23154448Y-56274823D01*
X23160105Y-56206552D01*
X23616231Y-56662678D01*
X23676507Y-56671071D01*
X23729515Y-56716589D01*
X23749499Y-56783540D01*
X23749500Y-56784094D01*
X23749500Y-56939798D01*
X23749428Y-56944031D01*
X23748660Y-56966528D01*
X23747340Y-57005158D01*
X23756556Y-57042976D01*
X23758927Y-57055448D01*
X23764228Y-57094017D01*
X23770864Y-57109295D01*
X23777602Y-57129332D01*
X23781542Y-57145501D01*
X23781543Y-57145502D01*
X23800618Y-57179428D01*
X23806266Y-57190798D01*
X23821782Y-57226520D01*
X23832283Y-57239426D01*
X23844182Y-57256908D01*
X23852342Y-57271420D01*
X23879878Y-57298956D01*
X23888377Y-57308374D01*
X23912943Y-57338570D01*
X23912944Y-57338571D01*
X23912946Y-57338573D01*
X23926544Y-57348172D01*
X23942715Y-57361793D01*
X26542503Y-59961581D01*
X28943742Y-62362819D01*
X28977227Y-62424142D01*
X28972243Y-62493834D01*
X28930371Y-62549767D01*
X28864907Y-62574184D01*
X28856061Y-62574500D01*
X28769031Y-62574500D01*
X28701992Y-62554815D01*
X28681350Y-62538181D01*
X25679440Y-59536271D01*
X25676498Y-59533227D01*
X25645466Y-59500000D01*
X25634755Y-59488531D01*
X25634754Y-59488530D01*
X25634753Y-59488529D01*
X25634751Y-59488528D01*
X25601489Y-59468301D01*
X25590991Y-59461156D01*
X25559976Y-59437636D01*
X25551406Y-59434256D01*
X25544485Y-59431527D01*
X25525553Y-59422124D01*
X25511329Y-59413474D01*
X25473842Y-59402970D01*
X25461813Y-59398925D01*
X25425591Y-59384641D01*
X25425583Y-59384640D01*
X25409022Y-59382937D01*
X25388255Y-59378990D01*
X25372231Y-59374500D01*
X25372228Y-59374500D01*
X25333296Y-59374500D01*
X25320617Y-59373850D01*
X25281892Y-59369869D01*
X25281888Y-59369869D01*
X25272576Y-59371474D01*
X25265485Y-59372697D01*
X25244420Y-59374500D01*
X14869031Y-59374500D01*
X14801992Y-59354815D01*
X14781350Y-59338181D01*
X13861819Y-58418650D01*
X13828334Y-58357327D01*
X13825500Y-58330969D01*
X13825500Y-56180000D01*
X16532520Y-56180000D01*
X16552398Y-56394519D01*
X16552398Y-56394521D01*
X16552399Y-56394524D01*
X16570442Y-56457940D01*
X16611356Y-56601740D01*
X16611360Y-56601750D01*
X16707386Y-56794597D01*
X16837223Y-56966528D01*
X16996435Y-57111668D01*
X16996437Y-57111670D01*
X17179605Y-57225083D01*
X17179611Y-57225086D01*
X17183305Y-57226517D01*
X17380504Y-57302912D01*
X17592279Y-57342500D01*
X17592281Y-57342500D01*
X17807719Y-57342500D01*
X17807721Y-57342500D01*
X18019496Y-57302912D01*
X18220391Y-57225085D01*
X18403564Y-57111669D01*
X18562778Y-56966526D01*
X18692612Y-56794599D01*
X18788643Y-56601742D01*
X18847601Y-56394524D01*
X18847602Y-56394514D01*
X18848112Y-56391791D01*
X18848715Y-56390604D01*
X18849169Y-56389010D01*
X18849480Y-56389098D01*
X18879780Y-56329511D01*
X18940093Y-56294239D01*
X19009901Y-56297173D01*
X19067041Y-56337383D01*
X19090642Y-56389063D01*
X19090831Y-56389010D01*
X19091183Y-56390247D01*
X19091888Y-56391791D01*
X19092397Y-56394514D01*
X19092398Y-56394519D01*
X19092399Y-56394524D01*
X19126747Y-56515245D01*
X19151356Y-56601740D01*
X19151360Y-56601750D01*
X19247386Y-56794597D01*
X19377223Y-56966528D01*
X19536435Y-57111668D01*
X19536437Y-57111670D01*
X19719605Y-57225083D01*
X19719611Y-57225086D01*
X19723305Y-57226517D01*
X19920504Y-57302912D01*
X20132279Y-57342500D01*
X20132281Y-57342500D01*
X20347719Y-57342500D01*
X20347721Y-57342500D01*
X20559496Y-57302912D01*
X20760391Y-57225085D01*
X20943564Y-57111669D01*
X21102778Y-56966526D01*
X21232612Y-56794599D01*
X21328643Y-56601742D01*
X21387601Y-56394524D01*
X21407480Y-56180000D01*
X21387601Y-55965476D01*
X21328643Y-55758258D01*
X21328639Y-55758249D01*
X21232613Y-55565402D01*
X21102776Y-55393471D01*
X20943564Y-55248331D01*
X20943562Y-55248329D01*
X20760394Y-55134916D01*
X20760388Y-55134913D01*
X20599653Y-55072645D01*
X20559496Y-55057088D01*
X20347721Y-55017500D01*
X20132279Y-55017500D01*
X19920504Y-55057088D01*
X19920501Y-55057088D01*
X19920501Y-55057089D01*
X19719611Y-55134913D01*
X19719605Y-55134916D01*
X19536437Y-55248329D01*
X19536435Y-55248331D01*
X19377223Y-55393471D01*
X19247386Y-55565402D01*
X19151360Y-55758249D01*
X19151356Y-55758259D01*
X19092397Y-55965482D01*
X19091888Y-55968210D01*
X19091284Y-55969397D01*
X19090831Y-55970990D01*
X19090519Y-55970901D01*
X19060218Y-56030490D01*
X18999904Y-56065761D01*
X18930096Y-56062825D01*
X18872957Y-56022614D01*
X18849357Y-55970936D01*
X18849169Y-55970990D01*
X18848817Y-55969755D01*
X18848112Y-55968210D01*
X18847602Y-55965482D01*
X18847601Y-55965479D01*
X18847601Y-55965476D01*
X18788643Y-55758258D01*
X18788639Y-55758249D01*
X18692613Y-55565402D01*
X18562776Y-55393471D01*
X18403564Y-55248331D01*
X18403562Y-55248329D01*
X18220394Y-55134916D01*
X18220388Y-55134913D01*
X18059653Y-55072645D01*
X18019496Y-55057088D01*
X17807721Y-55017500D01*
X17592279Y-55017500D01*
X17380504Y-55057088D01*
X17380501Y-55057088D01*
X17380501Y-55057089D01*
X17179611Y-55134913D01*
X17179605Y-55134916D01*
X16996437Y-55248329D01*
X16996435Y-55248331D01*
X16837223Y-55393471D01*
X16707386Y-55565402D01*
X16611360Y-55758249D01*
X16611356Y-55758259D01*
X16552398Y-55965480D01*
X16532520Y-56180000D01*
X13825500Y-56180000D01*
X13825500Y-49115624D01*
X13845185Y-49048585D01*
X13897989Y-49002830D01*
X13967147Y-48992886D01*
X14030703Y-49021911D01*
X14060500Y-49060353D01*
X14117386Y-49174597D01*
X14247223Y-49346528D01*
X14406435Y-49491668D01*
X14406437Y-49491670D01*
X14589605Y-49605083D01*
X14589611Y-49605086D01*
X14632169Y-49621573D01*
X14790504Y-49682912D01*
X15002279Y-49722500D01*
X15002281Y-49722500D01*
X15217719Y-49722500D01*
X15217721Y-49722500D01*
X15429496Y-49682912D01*
X15630391Y-49605085D01*
X15813564Y-49491669D01*
X15972778Y-49346526D01*
X16102612Y-49174599D01*
X16198643Y-48981742D01*
X16257601Y-48774524D01*
X16257602Y-48774504D01*
X16258108Y-48771805D01*
X16258711Y-48770617D01*
X16259169Y-48769010D01*
X16259483Y-48769099D01*
X16289770Y-48709521D01*
X16350078Y-48674242D01*
X16419887Y-48677169D01*
X16477031Y-48717372D01*
X16500645Y-48769062D01*
X16500831Y-48769010D01*
X16501177Y-48770229D01*
X16501885Y-48771777D01*
X16502397Y-48774514D01*
X16502398Y-48774519D01*
X16502399Y-48774524D01*
X16526420Y-48858949D01*
X16561356Y-48981740D01*
X16561360Y-48981750D01*
X16657386Y-49174597D01*
X16787223Y-49346528D01*
X16946435Y-49491668D01*
X16946437Y-49491670D01*
X17129605Y-49605083D01*
X17129611Y-49605086D01*
X17172169Y-49621573D01*
X17330504Y-49682912D01*
X17542279Y-49722500D01*
X17542281Y-49722500D01*
X17757719Y-49722500D01*
X17757721Y-49722500D01*
X17969496Y-49682912D01*
X18170391Y-49605085D01*
X18353564Y-49491669D01*
X18512778Y-49346526D01*
X18642612Y-49174599D01*
X18738643Y-48981742D01*
X18797601Y-48774524D01*
X18797602Y-48774514D01*
X18798112Y-48771791D01*
X18798715Y-48770604D01*
X18799169Y-48769010D01*
X18799480Y-48769098D01*
X18829780Y-48709511D01*
X18890093Y-48674239D01*
X18959901Y-48677173D01*
X19017041Y-48717383D01*
X19040642Y-48769063D01*
X19040831Y-48769010D01*
X19041183Y-48770247D01*
X19041888Y-48771791D01*
X19042397Y-48774514D01*
X19042398Y-48774519D01*
X19042399Y-48774524D01*
X19066420Y-48858949D01*
X19101356Y-48981740D01*
X19101360Y-48981750D01*
X19197386Y-49174597D01*
X19327223Y-49346528D01*
X19486435Y-49491668D01*
X19486437Y-49491670D01*
X19669605Y-49605083D01*
X19669611Y-49605086D01*
X19712169Y-49621573D01*
X19870504Y-49682912D01*
X20082279Y-49722500D01*
X20082281Y-49722500D01*
X20297719Y-49722500D01*
X20297721Y-49722500D01*
X20509496Y-49682912D01*
X20710391Y-49605085D01*
X20893564Y-49491669D01*
X21052778Y-49346526D01*
X21182612Y-49174599D01*
X21278643Y-48981742D01*
X21337601Y-48774524D01*
X21357480Y-48560000D01*
X21337601Y-48345476D01*
X21278643Y-48138258D01*
X21271733Y-48124380D01*
X21182613Y-47945402D01*
X21052776Y-47773471D01*
X20893564Y-47628331D01*
X20893562Y-47628329D01*
X20710394Y-47514916D01*
X20710388Y-47514913D01*
X20539924Y-47448876D01*
X20509496Y-47437088D01*
X20297721Y-47397500D01*
X20082279Y-47397500D01*
X19966251Y-47419189D01*
X19870497Y-47437089D01*
X19840071Y-47448876D01*
X19770448Y-47454736D01*
X19708709Y-47422024D01*
X19674456Y-47361127D01*
X19678564Y-47291378D01*
X19707596Y-47245572D01*
X24463754Y-42489413D01*
X24466740Y-42486527D01*
X24511469Y-42444755D01*
X24531702Y-42411480D01*
X24538833Y-42401004D01*
X24562364Y-42369975D01*
X24568473Y-42354482D01*
X24577876Y-42335551D01*
X24586526Y-42321328D01*
X24597030Y-42283835D01*
X24601071Y-42271818D01*
X24615359Y-42235589D01*
X24617061Y-42219022D01*
X24621006Y-42198264D01*
X24625500Y-42182228D01*
X24625500Y-42143295D01*
X24626150Y-42130615D01*
X24630131Y-42091890D01*
X24627303Y-42075486D01*
X24625500Y-42054419D01*
X24625500Y-25032940D01*
X24645185Y-24965901D01*
X24661819Y-24945259D01*
X24692763Y-24914315D01*
X24729816Y-24877262D01*
X24745506Y-24852290D01*
X24797841Y-24806000D01*
X24866894Y-24795352D01*
X24930743Y-24823727D01*
G37*
%TD.AperFunction*%
%TA.AperFunction,Conductor*%
G36*
X38617539Y-55795185D02*
G01*
X38663294Y-55847989D01*
X38674500Y-55899500D01*
X38674500Y-60242403D01*
X38654815Y-60309442D01*
X38649305Y-60317327D01*
X38633812Y-60337758D01*
X38577620Y-60379282D01*
X38507898Y-60383834D01*
X38480547Y-60374235D01*
X38451247Y-60359911D01*
X38450000Y-60359729D01*
X38450000Y-62290269D01*
X38451244Y-62290089D01*
X38480544Y-62275765D01*
X38549417Y-62264005D01*
X38613715Y-62291348D01*
X38633809Y-62312239D01*
X38657076Y-62342920D01*
X38657078Y-62342922D01*
X38668647Y-62351695D01*
X38710171Y-62407887D01*
X38714724Y-62477609D01*
X38680859Y-62538723D01*
X38619330Y-62571827D01*
X38593723Y-62574500D01*
X33706277Y-62574500D01*
X33639238Y-62554815D01*
X33593483Y-62502011D01*
X33583539Y-62432853D01*
X33612564Y-62369297D01*
X33631353Y-62351695D01*
X33642922Y-62342922D01*
X33734361Y-62222342D01*
X33789877Y-62081564D01*
X33800500Y-61993102D01*
X33800500Y-61575000D01*
X37700001Y-61575000D01*
X37700001Y-61983217D01*
X37709912Y-62051249D01*
X37761215Y-62156191D01*
X37843808Y-62238784D01*
X37948755Y-62290089D01*
X37950000Y-62290269D01*
X37950000Y-61575000D01*
X37700001Y-61575000D01*
X33800500Y-61575000D01*
X33800500Y-61394030D01*
X33820185Y-61326991D01*
X33836814Y-61306353D01*
X34068167Y-61075000D01*
X37700000Y-61075000D01*
X37950000Y-61075000D01*
X37950000Y-60359730D01*
X37949999Y-60359729D01*
X37948750Y-60359911D01*
X37843811Y-60411212D01*
X37761212Y-60493811D01*
X37709912Y-60598748D01*
X37709911Y-60598751D01*
X37700000Y-60666780D01*
X37700000Y-61075000D01*
X34068167Y-61075000D01*
X34801698Y-60341469D01*
X34863019Y-60307986D01*
X34893035Y-60306457D01*
X34893035Y-60305565D01*
X34900003Y-60305565D01*
X35079249Y-60285369D01*
X35079252Y-60285368D01*
X35079255Y-60285368D01*
X35249522Y-60225789D01*
X35402262Y-60129816D01*
X35529816Y-60002262D01*
X35625789Y-59849522D01*
X35685368Y-59679255D01*
X35685670Y-59676576D01*
X35705565Y-59500003D01*
X35705565Y-59499996D01*
X35685369Y-59320750D01*
X35685368Y-59320745D01*
X35625788Y-59150476D01*
X35565324Y-59054249D01*
X35529816Y-58997738D01*
X35402262Y-58870184D01*
X35249523Y-58774211D01*
X35079254Y-58714631D01*
X35079249Y-58714630D01*
X34900004Y-58694435D01*
X34899996Y-58694435D01*
X34720750Y-58714630D01*
X34720745Y-58714631D01*
X34550476Y-58774211D01*
X34397737Y-58870184D01*
X34270184Y-58997737D01*
X34174211Y-59150476D01*
X34114631Y-59320745D01*
X34114630Y-59320750D01*
X34094435Y-59499996D01*
X34094435Y-59506963D01*
X34092276Y-59506963D01*
X34082012Y-59565560D01*
X34058528Y-59598301D01*
X33521652Y-60135177D01*
X33460329Y-60168662D01*
X33390637Y-60163678D01*
X33388483Y-60162851D01*
X33381565Y-60160123D01*
X33366820Y-60158352D01*
X33293102Y-60149500D01*
X32906898Y-60149500D01*
X32867853Y-60154188D01*
X32818438Y-60160122D01*
X32677656Y-60215639D01*
X32674924Y-60217712D01*
X32671981Y-60218830D01*
X32670266Y-60219795D01*
X32670121Y-60219537D01*
X32609612Y-60242534D01*
X32541248Y-60228105D01*
X32525076Y-60217712D01*
X32522343Y-60215639D01*
X32426192Y-60177722D01*
X32381564Y-60160123D01*
X32381563Y-60160122D01*
X32381561Y-60160122D01*
X32335926Y-60154642D01*
X32293102Y-60149500D01*
X31906898Y-60149500D01*
X31843710Y-60157087D01*
X31818434Y-60160123D01*
X31794988Y-60169369D01*
X31725401Y-60175650D01*
X31663466Y-60143312D01*
X31628845Y-60082623D01*
X31625500Y-60054014D01*
X31625500Y-57119030D01*
X31645185Y-57051991D01*
X31661815Y-57031353D01*
X32310300Y-56382867D01*
X32310310Y-56382860D01*
X32320512Y-56372658D01*
X32355908Y-56337260D01*
X32362084Y-56331493D01*
X32364357Y-56329511D01*
X32399800Y-56298607D01*
X32402791Y-56294046D01*
X32418794Y-56274374D01*
X32881350Y-55811819D01*
X32942673Y-55778334D01*
X32969031Y-55775500D01*
X35156448Y-55775500D01*
X35756448Y-55775500D01*
X37356448Y-55775500D01*
X38550500Y-55775500D01*
X38617539Y-55795185D01*
G37*
%TD.AperFunction*%
%TA.AperFunction,Conductor*%
G36*
X59943039Y-60645185D02*
G01*
X59988794Y-60697989D01*
X60000000Y-60749500D01*
X60000000Y-61050000D01*
X60626000Y-61050000D01*
X60693039Y-61069685D01*
X60738794Y-61122489D01*
X60750000Y-61174000D01*
X60750000Y-61426000D01*
X60730315Y-61493039D01*
X60677511Y-61538794D01*
X60626000Y-61550000D01*
X60000001Y-61550000D01*
X60000001Y-61750500D01*
X59980316Y-61817539D01*
X59927512Y-61863294D01*
X59876001Y-61874500D01*
X57369031Y-61874500D01*
X57301992Y-61854815D01*
X57281350Y-61838181D01*
X57087276Y-61644107D01*
X57081496Y-61637918D01*
X57048610Y-61600202D01*
X57048606Y-61600198D01*
X57044039Y-61597203D01*
X57024369Y-61581200D01*
X56961819Y-61518650D01*
X56928334Y-61457327D01*
X56925500Y-61430969D01*
X56925500Y-60749500D01*
X56945185Y-60682461D01*
X56997989Y-60636706D01*
X57049500Y-60625500D01*
X59876000Y-60625500D01*
X59943039Y-60645185D01*
G37*
%TD.AperFunction*%
%TA.AperFunction,Conductor*%
G36*
X64897865Y-17225041D02*
G01*
X64942381Y-17276414D01*
X65012898Y-17427639D01*
X65138402Y-17606877D01*
X65293123Y-17761598D01*
X65472361Y-17887102D01*
X65670670Y-17979575D01*
X65882023Y-18036207D01*
X66063857Y-18052115D01*
X66099998Y-18055277D01*
X66100000Y-18055277D01*
X66100002Y-18055277D01*
X66128254Y-18052805D01*
X66317977Y-18036207D01*
X66465761Y-17996608D01*
X66535607Y-17998271D01*
X66585532Y-18028702D01*
X69138181Y-20581351D01*
X69171666Y-20642674D01*
X69174500Y-20669032D01*
X69174500Y-58893580D01*
X69154815Y-58960619D01*
X69102011Y-59006374D01*
X69032853Y-59016318D01*
X68969297Y-58987293D01*
X68946771Y-58956056D01*
X68945181Y-58957119D01*
X68894191Y-58880808D01*
X68828034Y-58836603D01*
X68828033Y-58836602D01*
X68769702Y-58825000D01*
X68150000Y-58825000D01*
X68150000Y-59439498D01*
X68042315Y-59390320D01*
X67935763Y-59375000D01*
X67864237Y-59375000D01*
X67757685Y-59390320D01*
X67650000Y-59439498D01*
X67650000Y-58825000D01*
X67030297Y-58825000D01*
X66971966Y-58836602D01*
X66971965Y-58836603D01*
X66905808Y-58880808D01*
X66861603Y-58946965D01*
X66861602Y-58946966D01*
X66850000Y-59005297D01*
X66850000Y-59625000D01*
X67466314Y-59625000D01*
X67440507Y-59665156D01*
X67400000Y-59803111D01*
X67400000Y-59946889D01*
X67440507Y-60084844D01*
X67466314Y-60125000D01*
X66850000Y-60125000D01*
X66850000Y-60744702D01*
X66861602Y-60803033D01*
X66861603Y-60803034D01*
X66905808Y-60869191D01*
X66971965Y-60913396D01*
X66971966Y-60913397D01*
X67030297Y-60924999D01*
X67030301Y-60925000D01*
X67742828Y-60925000D01*
X67809867Y-60944685D01*
X67855622Y-60997489D01*
X67865566Y-61066647D01*
X67836541Y-61130203D01*
X67777763Y-61167977D01*
X67753635Y-61172527D01*
X67682023Y-61178793D01*
X67682020Y-61178793D01*
X67470677Y-61235422D01*
X67470668Y-61235426D01*
X67272361Y-61327898D01*
X67272357Y-61327900D01*
X67093121Y-61453402D01*
X66938403Y-61608120D01*
X66812898Y-61787361D01*
X66812896Y-61787364D01*
X66805649Y-61802907D01*
X66759476Y-61855345D01*
X66693268Y-61874500D01*
X64324500Y-61874500D01*
X64257461Y-61854815D01*
X64211706Y-61802011D01*
X64200500Y-61750500D01*
X64200500Y-60631903D01*
X64200500Y-60631898D01*
X64189877Y-60543436D01*
X64134361Y-60402658D01*
X64134360Y-60402657D01*
X64134360Y-60402656D01*
X64050696Y-60292329D01*
X64025873Y-60227018D01*
X64025500Y-60217404D01*
X64025500Y-56457940D01*
X64045185Y-56390901D01*
X64061819Y-56370259D01*
X64094802Y-56337276D01*
X64129816Y-56302262D01*
X64225789Y-56149522D01*
X64285368Y-55979255D01*
X64285369Y-55979249D01*
X64305565Y-55800003D01*
X64305565Y-55799996D01*
X64285369Y-55620750D01*
X64285368Y-55620745D01*
X64225788Y-55450476D01*
X64129815Y-55297737D01*
X64002262Y-55170184D01*
X63849523Y-55074211D01*
X63679254Y-55014631D01*
X63679249Y-55014630D01*
X63500004Y-54994435D01*
X63499996Y-54994435D01*
X63320750Y-55014630D01*
X63320742Y-55014632D01*
X63190454Y-55060222D01*
X63120675Y-55063783D01*
X63060048Y-55029054D01*
X63027821Y-54967061D01*
X63025500Y-54943180D01*
X63025500Y-54857940D01*
X63045185Y-54790901D01*
X63061819Y-54770259D01*
X63129816Y-54702262D01*
X63225789Y-54549522D01*
X63285368Y-54379255D01*
X63291222Y-54327303D01*
X63305565Y-54200003D01*
X63305565Y-54199996D01*
X63285369Y-54020750D01*
X63285368Y-54020745D01*
X63268890Y-53973655D01*
X63225789Y-53850478D01*
X63129816Y-53697738D01*
X63002262Y-53570184D01*
X62931608Y-53525789D01*
X62849523Y-53474211D01*
X62679254Y-53414631D01*
X62679249Y-53414630D01*
X62500004Y-53394435D01*
X62499996Y-53394435D01*
X62320750Y-53414630D01*
X62320745Y-53414631D01*
X62150476Y-53474211D01*
X61997737Y-53570184D01*
X61870184Y-53697737D01*
X61774211Y-53850476D01*
X61714631Y-54020745D01*
X61714630Y-54020750D01*
X61694435Y-54199996D01*
X61694435Y-54200003D01*
X61714630Y-54379249D01*
X61714631Y-54379254D01*
X61774211Y-54549523D01*
X61870184Y-54702262D01*
X61938181Y-54770259D01*
X61971666Y-54831582D01*
X61974500Y-54857940D01*
X61974500Y-59881970D01*
X61954815Y-59949009D01*
X61902011Y-59994764D01*
X61832853Y-60004708D01*
X61769297Y-59975683D01*
X61762819Y-59969651D01*
X61529439Y-59736271D01*
X61526497Y-59733227D01*
X61510484Y-59716081D01*
X61484754Y-59688531D01*
X61484753Y-59688530D01*
X61484752Y-59688529D01*
X61484750Y-59688528D01*
X61451488Y-59668301D01*
X61440990Y-59661156D01*
X61409975Y-59637636D01*
X61401405Y-59634256D01*
X61394484Y-59631527D01*
X61375552Y-59622124D01*
X61361328Y-59613474D01*
X61323841Y-59602970D01*
X61311812Y-59598925D01*
X61275590Y-59584641D01*
X61275582Y-59584640D01*
X61259021Y-59582937D01*
X61238254Y-59578990D01*
X61222230Y-59574500D01*
X61222227Y-59574500D01*
X61183295Y-59574500D01*
X61170616Y-59573850D01*
X61131891Y-59569869D01*
X61131887Y-59569869D01*
X61122575Y-59571474D01*
X61115484Y-59572697D01*
X61094419Y-59574500D01*
X57049500Y-59574500D01*
X56982461Y-59554815D01*
X56936706Y-59502011D01*
X56925500Y-59450500D01*
X56925500Y-55899500D01*
X56945185Y-55832461D01*
X56997989Y-55786706D01*
X57049500Y-55775500D01*
X58387373Y-55775500D01*
X58387378Y-55775500D01*
X58423335Y-55767292D01*
X58437010Y-55764969D01*
X58473657Y-55760841D01*
X58508463Y-55748660D01*
X58521816Y-55744814D01*
X58557752Y-55736613D01*
X58590971Y-55720614D01*
X58603802Y-55715299D01*
X58638606Y-55703122D01*
X58669820Y-55683507D01*
X58681976Y-55676789D01*
X58715202Y-55660790D01*
X58744023Y-55637804D01*
X58755369Y-55629755D01*
X58786574Y-55610148D01*
X58786573Y-55610148D01*
X58786576Y-55610147D01*
X58910147Y-55486576D01*
X58910147Y-55486574D01*
X58920355Y-55476367D01*
X58920356Y-55476364D01*
X59479157Y-54917565D01*
X59986573Y-54410148D01*
X59986576Y-54410147D01*
X60110147Y-54286576D01*
X60129757Y-54255366D01*
X60137806Y-54244022D01*
X60160788Y-54215204D01*
X60160790Y-54215202D01*
X60176789Y-54181976D01*
X60183507Y-54169820D01*
X60203122Y-54138606D01*
X60215299Y-54103802D01*
X60220614Y-54090971D01*
X60236613Y-54057752D01*
X60244814Y-54021816D01*
X60248663Y-54008456D01*
X60260841Y-53973657D01*
X60264969Y-53937010D01*
X60267292Y-53923335D01*
X60275500Y-53887378D01*
X60275500Y-53712622D01*
X60275500Y-51256448D01*
X60275500Y-51212622D01*
X60267296Y-51176681D01*
X60264969Y-51162982D01*
X60260841Y-51126343D01*
X60248659Y-51091531D01*
X60244815Y-51078186D01*
X60236613Y-51042248D01*
X60220618Y-51009034D01*
X60215296Y-50996186D01*
X60203655Y-50962918D01*
X60203122Y-50961394D01*
X60183511Y-50930185D01*
X60176785Y-50918014D01*
X60160790Y-50884799D01*
X60160790Y-50884798D01*
X60137803Y-50855973D01*
X60129758Y-50844635D01*
X60110147Y-50813424D01*
X59986576Y-50689853D01*
X59986575Y-50689852D01*
X59982245Y-50685522D01*
X59982234Y-50685512D01*
X58277217Y-48980495D01*
X58277215Y-48980492D01*
X58146578Y-48849855D01*
X58146576Y-48849853D01*
X58137635Y-48844234D01*
X58115359Y-48830237D01*
X58104022Y-48822193D01*
X58103293Y-48821612D01*
X58075202Y-48799210D01*
X58075199Y-48799208D01*
X58075196Y-48799206D01*
X58041980Y-48783210D01*
X58029811Y-48776485D01*
X57998608Y-48756879D01*
X57998609Y-48756879D01*
X57992688Y-48754807D01*
X57963811Y-48744702D01*
X57950972Y-48739384D01*
X57917753Y-48723387D01*
X57917752Y-48723386D01*
X57881817Y-48715184D01*
X57868462Y-48711337D01*
X57849202Y-48704598D01*
X57833657Y-48699159D01*
X57811362Y-48696646D01*
X57797017Y-48695030D01*
X57783312Y-48692701D01*
X57747383Y-48684500D01*
X57747378Y-48684500D01*
X57703552Y-48684500D01*
X57544338Y-48684500D01*
X57477299Y-48664815D01*
X57456657Y-48648182D01*
X57387818Y-48579343D01*
X57306877Y-48498402D01*
X57127642Y-48372900D01*
X57127638Y-48372897D01*
X56998072Y-48312480D01*
X56929330Y-48280425D01*
X56929326Y-48280424D01*
X56929322Y-48280422D01*
X56717977Y-48223793D01*
X56500002Y-48204723D01*
X56499998Y-48204723D01*
X56354682Y-48217436D01*
X56282023Y-48223793D01*
X56282020Y-48223793D01*
X56070677Y-48280422D01*
X56070668Y-48280426D01*
X55872361Y-48372898D01*
X55872357Y-48372900D01*
X55693121Y-48498402D01*
X55538402Y-48653121D01*
X55412900Y-48832357D01*
X55412898Y-48832361D01*
X55342382Y-48983583D01*
X55296209Y-49036022D01*
X55229016Y-49055174D01*
X55162135Y-49034958D01*
X55117618Y-48983583D01*
X55062237Y-48864820D01*
X55047102Y-48832362D01*
X55047100Y-48832359D01*
X55047099Y-48832357D01*
X54921599Y-48653124D01*
X54847818Y-48579343D01*
X54766877Y-48498402D01*
X54587642Y-48372900D01*
X54587638Y-48372897D01*
X54458072Y-48312480D01*
X54389330Y-48280425D01*
X54389326Y-48280424D01*
X54389322Y-48280422D01*
X54177977Y-48223793D01*
X53960002Y-48204723D01*
X53959998Y-48204723D01*
X53814682Y-48217436D01*
X53742023Y-48223793D01*
X53742020Y-48223793D01*
X53530677Y-48280422D01*
X53530668Y-48280426D01*
X53332361Y-48372898D01*
X53332357Y-48372900D01*
X53153121Y-48498402D01*
X52998402Y-48653121D01*
X52872900Y-48832357D01*
X52872898Y-48832361D01*
X52802382Y-48983583D01*
X52756209Y-49036022D01*
X52689016Y-49055174D01*
X52622135Y-49034958D01*
X52577618Y-48983583D01*
X52522237Y-48864820D01*
X52507102Y-48832362D01*
X52507100Y-48832359D01*
X52507099Y-48832357D01*
X52381599Y-48653124D01*
X52307818Y-48579343D01*
X52226877Y-48498402D01*
X52047642Y-48372900D01*
X52047638Y-48372897D01*
X51918072Y-48312480D01*
X51849330Y-48280425D01*
X51849326Y-48280424D01*
X51849322Y-48280422D01*
X51637977Y-48223793D01*
X51420002Y-48204723D01*
X51419998Y-48204723D01*
X51274682Y-48217436D01*
X51202023Y-48223793D01*
X51202020Y-48223793D01*
X50990677Y-48280422D01*
X50990668Y-48280426D01*
X50792361Y-48372898D01*
X50792357Y-48372900D01*
X50613121Y-48498402D01*
X50458402Y-48653121D01*
X50332900Y-48832357D01*
X50332898Y-48832361D01*
X50262382Y-48983583D01*
X50216209Y-49036022D01*
X50149016Y-49055174D01*
X50082135Y-49034958D01*
X50037618Y-48983583D01*
X49982237Y-48864820D01*
X49967102Y-48832362D01*
X49967100Y-48832359D01*
X49967099Y-48832357D01*
X49841599Y-48653124D01*
X49767818Y-48579343D01*
X49686877Y-48498402D01*
X49507642Y-48372900D01*
X49507638Y-48372897D01*
X49378072Y-48312480D01*
X49309330Y-48280425D01*
X49309326Y-48280424D01*
X49309322Y-48280422D01*
X49097977Y-48223793D01*
X48880002Y-48204723D01*
X48879998Y-48204723D01*
X48734682Y-48217436D01*
X48662023Y-48223793D01*
X48662020Y-48223793D01*
X48450677Y-48280422D01*
X48450668Y-48280426D01*
X48252361Y-48372898D01*
X48252357Y-48372900D01*
X48073121Y-48498402D01*
X47918402Y-48653121D01*
X47792900Y-48832357D01*
X47792898Y-48832361D01*
X47722382Y-48983583D01*
X47676209Y-49036022D01*
X47609016Y-49055174D01*
X47542135Y-49034958D01*
X47497618Y-48983583D01*
X47442237Y-48864820D01*
X47427102Y-48832362D01*
X47427100Y-48832359D01*
X47427099Y-48832357D01*
X47301599Y-48653124D01*
X47227818Y-48579343D01*
X47146877Y-48498402D01*
X46967642Y-48372900D01*
X46967638Y-48372897D01*
X46838072Y-48312480D01*
X46769330Y-48280425D01*
X46769326Y-48280424D01*
X46769322Y-48280422D01*
X46557977Y-48223793D01*
X46340002Y-48204723D01*
X46339998Y-48204723D01*
X46194682Y-48217436D01*
X46122023Y-48223793D01*
X46122021Y-48223793D01*
X46122017Y-48223794D01*
X46100961Y-48229436D01*
X46031111Y-48227773D01*
X45973249Y-48188609D01*
X45945746Y-48124380D01*
X45957333Y-48055478D01*
X45981185Y-48021983D01*
X52398769Y-41604399D01*
X52401755Y-41601513D01*
X52446469Y-41559755D01*
X52448404Y-41556574D01*
X52466692Y-41526498D01*
X52473828Y-41516011D01*
X52497365Y-41484975D01*
X52503472Y-41469485D01*
X52512877Y-41450549D01*
X52521526Y-41436328D01*
X52532029Y-41398838D01*
X52536073Y-41386813D01*
X52539965Y-41376946D01*
X52550359Y-41350589D01*
X52552061Y-41334023D01*
X52556007Y-41313260D01*
X52560500Y-41297228D01*
X52560500Y-41258303D01*
X52561150Y-41245623D01*
X52561664Y-41240623D01*
X52565132Y-41206890D01*
X52562303Y-41190481D01*
X52560500Y-41169413D01*
X52560500Y-17976957D01*
X52580185Y-17909918D01*
X52632989Y-17864163D01*
X52702147Y-17854219D01*
X52755624Y-17875383D01*
X52767392Y-17883623D01*
X52772361Y-17887102D01*
X52970670Y-17979575D01*
X53182023Y-18036207D01*
X53363857Y-18052115D01*
X53399998Y-18055277D01*
X53400000Y-18055277D01*
X53400002Y-18055277D01*
X53428254Y-18052805D01*
X53617977Y-18036207D01*
X53829330Y-17979575D01*
X54027639Y-17887102D01*
X54206877Y-17761598D01*
X54361598Y-17606877D01*
X54487102Y-17427639D01*
X54557618Y-17276414D01*
X54603790Y-17223977D01*
X54670984Y-17204825D01*
X54737865Y-17225041D01*
X54782381Y-17276414D01*
X54852898Y-17427639D01*
X54978402Y-17606877D01*
X55133123Y-17761598D01*
X55312361Y-17887102D01*
X55510670Y-17979575D01*
X55722023Y-18036207D01*
X55903857Y-18052115D01*
X55939998Y-18055277D01*
X55940000Y-18055277D01*
X55940002Y-18055277D01*
X55968254Y-18052805D01*
X56157977Y-18036207D01*
X56369330Y-17979575D01*
X56567639Y-17887102D01*
X56746877Y-17761598D01*
X56901598Y-17606877D01*
X57027102Y-17427639D01*
X57097618Y-17276414D01*
X57143790Y-17223977D01*
X57210984Y-17204825D01*
X57277865Y-17225041D01*
X57322381Y-17276414D01*
X57392898Y-17427639D01*
X57518402Y-17606877D01*
X57673123Y-17761598D01*
X57852361Y-17887102D01*
X58050670Y-17979575D01*
X58262023Y-18036207D01*
X58443857Y-18052115D01*
X58479998Y-18055277D01*
X58480000Y-18055277D01*
X58480002Y-18055277D01*
X58508254Y-18052805D01*
X58697977Y-18036207D01*
X58909330Y-17979575D01*
X59107639Y-17887102D01*
X59286877Y-17761598D01*
X59441598Y-17606877D01*
X59567102Y-17427639D01*
X59637618Y-17276414D01*
X59683790Y-17223977D01*
X59750984Y-17204825D01*
X59817865Y-17225041D01*
X59862381Y-17276414D01*
X59932898Y-17427639D01*
X60058402Y-17606877D01*
X60213123Y-17761598D01*
X60392361Y-17887102D01*
X60590670Y-17979575D01*
X60802023Y-18036207D01*
X60983857Y-18052115D01*
X61019998Y-18055277D01*
X61020000Y-18055277D01*
X61020002Y-18055277D01*
X61048254Y-18052805D01*
X61237977Y-18036207D01*
X61449330Y-17979575D01*
X61647639Y-17887102D01*
X61826877Y-17761598D01*
X61981598Y-17606877D01*
X62107102Y-17427639D01*
X62177618Y-17276414D01*
X62223790Y-17223977D01*
X62290984Y-17204825D01*
X62357865Y-17225041D01*
X62402381Y-17276414D01*
X62472898Y-17427639D01*
X62598402Y-17606877D01*
X62753123Y-17761598D01*
X62932361Y-17887102D01*
X63130670Y-17979575D01*
X63342023Y-18036207D01*
X63523857Y-18052115D01*
X63559998Y-18055277D01*
X63560000Y-18055277D01*
X63560002Y-18055277D01*
X63588254Y-18052805D01*
X63777977Y-18036207D01*
X63989330Y-17979575D01*
X64187639Y-17887102D01*
X64366877Y-17761598D01*
X64521598Y-17606877D01*
X64647102Y-17427639D01*
X64717618Y-17276414D01*
X64763790Y-17223977D01*
X64830984Y-17204825D01*
X64897865Y-17225041D01*
G37*
%TD.AperFunction*%
%TA.AperFunction,Conductor*%
G36*
X28648007Y-53345185D02*
G01*
X28668649Y-53361819D01*
X31169149Y-55862319D01*
X31202634Y-55923642D01*
X31197650Y-55993334D01*
X31169149Y-56037681D01*
X30736270Y-56470559D01*
X30733227Y-56473500D01*
X30688532Y-56515243D01*
X30688531Y-56515244D01*
X30668302Y-56548508D01*
X30661161Y-56559000D01*
X30637639Y-56590019D01*
X30637633Y-56590029D01*
X30631525Y-56605517D01*
X30622125Y-56624442D01*
X30613477Y-56638664D01*
X30613475Y-56638670D01*
X30602971Y-56676155D01*
X30598926Y-56688181D01*
X30584641Y-56724409D01*
X30584640Y-56724411D01*
X30582937Y-56740976D01*
X30578991Y-56761739D01*
X30574500Y-56777767D01*
X30574500Y-56816703D01*
X30573850Y-56829382D01*
X30569869Y-56868107D01*
X30569869Y-56868111D01*
X30572697Y-56884511D01*
X30574500Y-56905580D01*
X30574500Y-60242403D01*
X30554815Y-60309442D01*
X30549305Y-60317327D01*
X30533812Y-60337758D01*
X30477620Y-60379282D01*
X30407898Y-60383834D01*
X30380547Y-60374235D01*
X30351247Y-60359911D01*
X30350000Y-60359729D01*
X30350000Y-61451000D01*
X30330315Y-61518039D01*
X30277511Y-61563794D01*
X30226000Y-61575000D01*
X29693623Y-61575000D01*
X29626584Y-61555315D01*
X29605942Y-61538681D01*
X29142261Y-61075000D01*
X29600000Y-61075000D01*
X29850000Y-61075000D01*
X29850000Y-60359730D01*
X29849999Y-60359729D01*
X29848750Y-60359911D01*
X29743811Y-60411212D01*
X29661212Y-60493811D01*
X29609912Y-60598748D01*
X29609911Y-60598751D01*
X29600000Y-60666780D01*
X29600000Y-61075000D01*
X29142261Y-61075000D01*
X24836819Y-56769558D01*
X24803334Y-56708235D01*
X24800500Y-56681877D01*
X24800500Y-53674315D01*
X24820185Y-53607276D01*
X24872989Y-53561521D01*
X24942147Y-53551577D01*
X24965455Y-53557274D01*
X25045737Y-53585366D01*
X25045743Y-53585367D01*
X25045745Y-53585368D01*
X25045746Y-53585368D01*
X25045750Y-53585369D01*
X25224996Y-53605565D01*
X25225000Y-53605565D01*
X25225004Y-53605565D01*
X25404249Y-53585369D01*
X25404252Y-53585368D01*
X25404255Y-53585368D01*
X25574522Y-53525789D01*
X25727262Y-53429816D01*
X25795259Y-53361819D01*
X25856582Y-53328334D01*
X25882940Y-53325500D01*
X28580968Y-53325500D01*
X28648007Y-53345185D01*
G37*
%TD.AperFunction*%
%TA.AperFunction,Conductor*%
G36*
X25893834Y-44098993D02*
G01*
X25949767Y-44140865D01*
X25974184Y-44206329D01*
X25974500Y-44215175D01*
X25974500Y-48188890D01*
X25974428Y-48193123D01*
X25972613Y-48246272D01*
X25972340Y-48254250D01*
X25981556Y-48292068D01*
X25983927Y-48304540D01*
X25989228Y-48343109D01*
X25995864Y-48358387D01*
X26002602Y-48378424D01*
X26006542Y-48394593D01*
X26006543Y-48394594D01*
X26025618Y-48428520D01*
X26031266Y-48439890D01*
X26046782Y-48475612D01*
X26057283Y-48488518D01*
X26069182Y-48506000D01*
X26077342Y-48520512D01*
X26104878Y-48548048D01*
X26113377Y-48557466D01*
X26137943Y-48587662D01*
X26137944Y-48587663D01*
X26137946Y-48587665D01*
X26151544Y-48597264D01*
X26167715Y-48610885D01*
X31720543Y-54163712D01*
X31723485Y-54166756D01*
X31765243Y-54211468D01*
X31798501Y-54231692D01*
X31808998Y-54238836D01*
X31823019Y-54249468D01*
X31840025Y-54262364D01*
X31855510Y-54268470D01*
X31874448Y-54277876D01*
X31888672Y-54286526D01*
X31926168Y-54297031D01*
X31938180Y-54301071D01*
X31974411Y-54315359D01*
X31980067Y-54315940D01*
X31990968Y-54317061D01*
X32011746Y-54321009D01*
X32027772Y-54325500D01*
X32066704Y-54325500D01*
X32079383Y-54326150D01*
X32084428Y-54326668D01*
X32118110Y-54330131D01*
X32134514Y-54327302D01*
X32155580Y-54325500D01*
X32233572Y-54325500D01*
X32300611Y-54345185D01*
X32346366Y-54397989D01*
X32356310Y-54467147D01*
X32338566Y-54515471D01*
X32246878Y-54661392D01*
X32189159Y-54826341D01*
X32189157Y-54826351D01*
X32169722Y-54998847D01*
X32142656Y-55063261D01*
X32134183Y-55072645D01*
X32087680Y-55119148D01*
X32026357Y-55152633D01*
X31956665Y-55147649D01*
X31912318Y-55119148D01*
X29229440Y-52436271D01*
X29226498Y-52433227D01*
X29184753Y-52388529D01*
X29184751Y-52388528D01*
X29151489Y-52368301D01*
X29140991Y-52361156D01*
X29109976Y-52337636D01*
X29101406Y-52334256D01*
X29094485Y-52331527D01*
X29075553Y-52322124D01*
X29061329Y-52313474D01*
X29023842Y-52302970D01*
X29011813Y-52298925D01*
X28975591Y-52284641D01*
X28975583Y-52284640D01*
X28959022Y-52282937D01*
X28938255Y-52278990D01*
X28922231Y-52274500D01*
X28922228Y-52274500D01*
X28883296Y-52274500D01*
X28870617Y-52273850D01*
X28831892Y-52269869D01*
X28831888Y-52269869D01*
X28822576Y-52271474D01*
X28815485Y-52272697D01*
X28794420Y-52274500D01*
X25882940Y-52274500D01*
X25815901Y-52254815D01*
X25795259Y-52238181D01*
X25727262Y-52170184D01*
X25574523Y-52074211D01*
X25404254Y-52014631D01*
X25404249Y-52014630D01*
X25225004Y-51994435D01*
X25224996Y-51994435D01*
X25045750Y-52014630D01*
X25045742Y-52014632D01*
X24965454Y-52042726D01*
X24895675Y-52046287D01*
X24835048Y-52011558D01*
X24802821Y-51949564D01*
X24800500Y-51925684D01*
X24800500Y-45141175D01*
X24820185Y-45074136D01*
X24836814Y-45053498D01*
X25762819Y-44127493D01*
X25824142Y-44094009D01*
X25893834Y-44098993D01*
G37*
%TD.AperFunction*%
%TA.AperFunction,Conductor*%
G36*
X55297865Y-49885041D02*
G01*
X55342381Y-49936414D01*
X55412898Y-50087639D01*
X55538402Y-50266877D01*
X55693123Y-50421598D01*
X55872361Y-50547102D01*
X56070670Y-50639575D01*
X56282023Y-50696207D01*
X56464926Y-50712208D01*
X56499998Y-50715277D01*
X56500000Y-50715277D01*
X56500002Y-50715277D01*
X56528254Y-50712805D01*
X56717977Y-50696207D01*
X56929330Y-50639575D01*
X57127639Y-50547102D01*
X57306877Y-50421598D01*
X57328194Y-50400280D01*
X57389515Y-50366794D01*
X57459207Y-50371777D01*
X57503557Y-50400279D01*
X58688181Y-51584903D01*
X58721666Y-51646226D01*
X58724500Y-51672584D01*
X58724500Y-53427416D01*
X58704815Y-53494455D01*
X58688181Y-53515097D01*
X58015097Y-54188181D01*
X57953774Y-54221666D01*
X57927416Y-54224500D01*
X36659732Y-54224500D01*
X36592693Y-54204815D01*
X36546938Y-54152011D01*
X36536994Y-54082853D01*
X36566019Y-54019297D01*
X36572051Y-54012819D01*
X36764027Y-53820843D01*
X37718754Y-52866114D01*
X37721740Y-52863228D01*
X37766469Y-52821456D01*
X37786702Y-52788181D01*
X37793836Y-52777701D01*
X37799857Y-52769761D01*
X37856045Y-52728237D01*
X37925766Y-52723683D01*
X37977327Y-52748831D01*
X38133826Y-52877267D01*
X38133833Y-52877271D01*
X38316233Y-52974766D01*
X38470000Y-53021410D01*
X38470000Y-52435501D01*
X38577685Y-52484680D01*
X38684237Y-52500000D01*
X38755763Y-52500000D01*
X38862315Y-52484680D01*
X38970000Y-52435501D01*
X38970000Y-53021410D01*
X39123766Y-52974766D01*
X39306166Y-52877271D01*
X39306173Y-52877267D01*
X39466055Y-52746055D01*
X39597267Y-52586173D01*
X39597271Y-52586166D01*
X39694766Y-52403766D01*
X39741410Y-52250000D01*
X39153686Y-52250000D01*
X39179493Y-52209844D01*
X39220000Y-52071889D01*
X39220000Y-51928111D01*
X39179493Y-51790156D01*
X39153686Y-51750000D01*
X39741410Y-51750000D01*
X39694767Y-51596237D01*
X39647579Y-51507953D01*
X39633338Y-51439550D01*
X39658338Y-51374306D01*
X39714644Y-51332936D01*
X39756938Y-51325500D01*
X40223062Y-51325500D01*
X40290101Y-51345185D01*
X40335856Y-51397989D01*
X40345800Y-51467147D01*
X40332421Y-51507953D01*
X40285232Y-51596237D01*
X40238590Y-51750000D01*
X40826314Y-51750000D01*
X40800507Y-51790156D01*
X40760000Y-51928111D01*
X40760000Y-52071889D01*
X40800507Y-52209844D01*
X40826314Y-52250000D01*
X40238590Y-52250000D01*
X40285233Y-52403766D01*
X40382728Y-52586166D01*
X40382732Y-52586173D01*
X40513944Y-52746055D01*
X40673826Y-52877267D01*
X40673833Y-52877271D01*
X40856233Y-52974766D01*
X41010000Y-53021410D01*
X41010000Y-52435501D01*
X41117685Y-52484680D01*
X41224237Y-52500000D01*
X41295763Y-52500000D01*
X41402315Y-52484680D01*
X41510000Y-52435501D01*
X41510000Y-53021410D01*
X41663766Y-52974766D01*
X41846166Y-52877271D01*
X41846173Y-52877267D01*
X42006055Y-52746055D01*
X42137267Y-52586173D01*
X42137271Y-52586166D01*
X42234766Y-52403766D01*
X42281410Y-52250000D01*
X41693686Y-52250000D01*
X41719493Y-52209844D01*
X41760000Y-52071889D01*
X41760000Y-51928111D01*
X41719493Y-51790156D01*
X41693686Y-51750000D01*
X42281410Y-51750000D01*
X42234767Y-51596237D01*
X42187579Y-51507953D01*
X42173338Y-51439550D01*
X42198338Y-51374306D01*
X42254644Y-51332936D01*
X42296938Y-51325500D01*
X42763062Y-51325500D01*
X42830101Y-51345185D01*
X42875856Y-51397989D01*
X42885800Y-51467147D01*
X42872421Y-51507953D01*
X42825232Y-51596237D01*
X42778590Y-51750000D01*
X43366314Y-51750000D01*
X43340507Y-51790156D01*
X43300000Y-51928111D01*
X43300000Y-52071889D01*
X43340507Y-52209844D01*
X43366314Y-52250000D01*
X42778590Y-52250000D01*
X42825233Y-52403766D01*
X42922728Y-52586166D01*
X42922732Y-52586173D01*
X43053944Y-52746055D01*
X43213826Y-52877267D01*
X43213833Y-52877271D01*
X43396233Y-52974766D01*
X43550000Y-53021410D01*
X43550000Y-52435501D01*
X43657685Y-52484680D01*
X43764237Y-52500000D01*
X43835763Y-52500000D01*
X43942315Y-52484680D01*
X44050000Y-52435501D01*
X44050000Y-53021410D01*
X44203766Y-52974766D01*
X44386166Y-52877271D01*
X44386173Y-52877267D01*
X44546055Y-52746055D01*
X44677267Y-52586173D01*
X44677271Y-52586166D01*
X44774766Y-52403766D01*
X44821410Y-52250000D01*
X44233686Y-52250000D01*
X44259493Y-52209844D01*
X44300000Y-52071889D01*
X44300000Y-51928111D01*
X44259493Y-51790156D01*
X44233686Y-51750000D01*
X44821410Y-51750000D01*
X44774767Y-51596237D01*
X44727579Y-51507953D01*
X44713338Y-51439550D01*
X44738338Y-51374306D01*
X44794644Y-51332936D01*
X44836938Y-51325500D01*
X44988890Y-51325500D01*
X44993122Y-51325572D01*
X44996352Y-51325682D01*
X45054245Y-51327660D01*
X45092070Y-51318441D01*
X45104513Y-51316075D01*
X45143111Y-51310771D01*
X45158386Y-51304135D01*
X45178421Y-51297397D01*
X45194594Y-51293457D01*
X45228531Y-51274374D01*
X45239879Y-51268737D01*
X45273940Y-51253944D01*
X45275605Y-51253221D01*
X45275605Y-51253220D01*
X45275609Y-51253219D01*
X45281693Y-51248268D01*
X45346115Y-51221227D01*
X45414932Y-51233308D01*
X45466294Y-51280676D01*
X45483893Y-51348293D01*
X45464766Y-51408007D01*
X45465603Y-51408455D01*
X45463156Y-51413031D01*
X45463060Y-51413334D01*
X45462735Y-51413819D01*
X45365233Y-51596233D01*
X45318590Y-51750000D01*
X45906314Y-51750000D01*
X45880507Y-51790156D01*
X45840000Y-51928111D01*
X45840000Y-52071889D01*
X45880507Y-52209844D01*
X45906314Y-52250000D01*
X45318590Y-52250000D01*
X45365233Y-52403766D01*
X45462728Y-52586166D01*
X45462732Y-52586173D01*
X45593944Y-52746055D01*
X45753826Y-52877267D01*
X45753833Y-52877271D01*
X45936233Y-52974766D01*
X46090000Y-53021410D01*
X46090000Y-52435501D01*
X46197685Y-52484680D01*
X46304237Y-52500000D01*
X46375763Y-52500000D01*
X46482315Y-52484680D01*
X46590000Y-52435501D01*
X46590000Y-53021410D01*
X46743766Y-52974766D01*
X46926166Y-52877271D01*
X46926173Y-52877267D01*
X47086055Y-52746055D01*
X47217267Y-52586173D01*
X47217271Y-52586166D01*
X47314766Y-52403766D01*
X47361410Y-52250000D01*
X47858590Y-52250000D01*
X47905233Y-52403766D01*
X48002728Y-52586166D01*
X48002732Y-52586173D01*
X48133944Y-52746055D01*
X48293826Y-52877267D01*
X48293833Y-52877271D01*
X48476233Y-52974766D01*
X48630000Y-53021410D01*
X48630000Y-52435501D01*
X48737685Y-52484680D01*
X48844237Y-52500000D01*
X48915763Y-52500000D01*
X49022315Y-52484680D01*
X49130000Y-52435501D01*
X49130000Y-53021410D01*
X49283766Y-52974766D01*
X49466166Y-52877271D01*
X49466173Y-52877267D01*
X49626055Y-52746055D01*
X49757267Y-52586173D01*
X49757271Y-52586166D01*
X49854766Y-52403766D01*
X49901410Y-52250000D01*
X50398590Y-52250000D01*
X50445233Y-52403766D01*
X50542728Y-52586166D01*
X50542732Y-52586173D01*
X50673944Y-52746055D01*
X50833826Y-52877267D01*
X50833833Y-52877271D01*
X51016233Y-52974766D01*
X51170000Y-53021410D01*
X51170000Y-52435501D01*
X51277685Y-52484680D01*
X51384237Y-52500000D01*
X51455763Y-52500000D01*
X51562315Y-52484680D01*
X51670000Y-52435501D01*
X51670000Y-53021410D01*
X51823766Y-52974766D01*
X52006166Y-52877271D01*
X52006173Y-52877267D01*
X52166055Y-52746055D01*
X52297267Y-52586173D01*
X52297271Y-52586166D01*
X52394766Y-52403766D01*
X52441410Y-52250000D01*
X52938590Y-52250000D01*
X52985233Y-52403766D01*
X53082728Y-52586166D01*
X53082732Y-52586173D01*
X53213944Y-52746055D01*
X53373826Y-52877267D01*
X53373833Y-52877271D01*
X53556233Y-52974766D01*
X53710000Y-53021410D01*
X53710000Y-52435501D01*
X53817685Y-52484680D01*
X53924237Y-52500000D01*
X53995763Y-52500000D01*
X54102315Y-52484680D01*
X54210000Y-52435501D01*
X54210000Y-53021410D01*
X54363766Y-52974766D01*
X54546166Y-52877271D01*
X54546173Y-52877267D01*
X54706055Y-52746055D01*
X54837267Y-52586173D01*
X54837271Y-52586166D01*
X54934766Y-52403766D01*
X54981410Y-52250000D01*
X55478590Y-52250000D01*
X55525233Y-52403766D01*
X55622728Y-52586166D01*
X55622732Y-52586173D01*
X55753944Y-52746055D01*
X55913826Y-52877267D01*
X55913833Y-52877271D01*
X56096233Y-52974766D01*
X56250000Y-53021410D01*
X56250000Y-52435501D01*
X56357685Y-52484680D01*
X56464237Y-52500000D01*
X56535763Y-52500000D01*
X56642315Y-52484680D01*
X56750000Y-52435501D01*
X56750000Y-53021410D01*
X56903766Y-52974766D01*
X57086166Y-52877271D01*
X57086173Y-52877267D01*
X57246055Y-52746055D01*
X57377267Y-52586173D01*
X57377271Y-52586166D01*
X57474766Y-52403766D01*
X57521410Y-52250000D01*
X56933686Y-52250000D01*
X56959493Y-52209844D01*
X57000000Y-52071889D01*
X57000000Y-51928111D01*
X56959493Y-51790156D01*
X56933686Y-51750000D01*
X57521410Y-51750000D01*
X57474766Y-51596233D01*
X57377271Y-51413833D01*
X57377267Y-51413826D01*
X57246055Y-51253944D01*
X57086173Y-51122732D01*
X57086166Y-51122728D01*
X56903763Y-51025232D01*
X56750000Y-50978587D01*
X56750000Y-51564498D01*
X56642315Y-51515320D01*
X56535763Y-51500000D01*
X56464237Y-51500000D01*
X56357685Y-51515320D01*
X56250000Y-51564498D01*
X56250000Y-50978587D01*
X56096236Y-51025232D01*
X55913833Y-51122728D01*
X55913826Y-51122732D01*
X55753944Y-51253944D01*
X55622732Y-51413826D01*
X55622728Y-51413833D01*
X55525233Y-51596233D01*
X55478590Y-51750000D01*
X56066314Y-51750000D01*
X56040507Y-51790156D01*
X56000000Y-51928111D01*
X56000000Y-52071889D01*
X56040507Y-52209844D01*
X56066314Y-52250000D01*
X55478590Y-52250000D01*
X54981410Y-52250000D01*
X54393686Y-52250000D01*
X54419493Y-52209844D01*
X54460000Y-52071889D01*
X54460000Y-51928111D01*
X54419493Y-51790156D01*
X54393686Y-51750000D01*
X54981410Y-51750000D01*
X54934766Y-51596233D01*
X54837271Y-51413833D01*
X54837267Y-51413826D01*
X54706055Y-51253944D01*
X54546173Y-51122732D01*
X54546166Y-51122728D01*
X54363763Y-51025232D01*
X54210000Y-50978587D01*
X54210000Y-51564498D01*
X54102315Y-51515320D01*
X53995763Y-51500000D01*
X53924237Y-51500000D01*
X53817685Y-51515320D01*
X53710000Y-51564498D01*
X53710000Y-50978587D01*
X53556236Y-51025232D01*
X53373833Y-51122728D01*
X53373826Y-51122732D01*
X53213944Y-51253944D01*
X53082732Y-51413826D01*
X53082728Y-51413833D01*
X52985233Y-51596233D01*
X52938590Y-51750000D01*
X53526314Y-51750000D01*
X53500507Y-51790156D01*
X53460000Y-51928111D01*
X53460000Y-52071889D01*
X53500507Y-52209844D01*
X53526314Y-52250000D01*
X52938590Y-52250000D01*
X52441410Y-52250000D01*
X51853686Y-52250000D01*
X51879493Y-52209844D01*
X51920000Y-52071889D01*
X51920000Y-51928111D01*
X51879493Y-51790156D01*
X51853686Y-51750000D01*
X52441410Y-51750000D01*
X52394766Y-51596233D01*
X52297271Y-51413833D01*
X52297267Y-51413826D01*
X52166055Y-51253944D01*
X52006173Y-51122732D01*
X52006166Y-51122728D01*
X51823763Y-51025232D01*
X51670000Y-50978587D01*
X51670000Y-51564498D01*
X51562315Y-51515320D01*
X51455763Y-51500000D01*
X51384237Y-51500000D01*
X51277685Y-51515320D01*
X51170000Y-51564498D01*
X51170000Y-50978587D01*
X51016236Y-51025232D01*
X50833833Y-51122728D01*
X50833826Y-51122732D01*
X50673944Y-51253944D01*
X50542732Y-51413826D01*
X50542728Y-51413833D01*
X50445233Y-51596233D01*
X50398590Y-51750000D01*
X50986314Y-51750000D01*
X50960507Y-51790156D01*
X50920000Y-51928111D01*
X50920000Y-52071889D01*
X50960507Y-52209844D01*
X50986314Y-52250000D01*
X50398590Y-52250000D01*
X49901410Y-52250000D01*
X49313686Y-52250000D01*
X49339493Y-52209844D01*
X49380000Y-52071889D01*
X49380000Y-51928111D01*
X49339493Y-51790156D01*
X49313686Y-51750000D01*
X49901410Y-51750000D01*
X49854766Y-51596233D01*
X49757271Y-51413833D01*
X49757267Y-51413826D01*
X49626055Y-51253944D01*
X49466173Y-51122732D01*
X49466166Y-51122728D01*
X49283763Y-51025232D01*
X49130000Y-50978587D01*
X49130000Y-51564498D01*
X49022315Y-51515320D01*
X48915763Y-51500000D01*
X48844237Y-51500000D01*
X48737685Y-51515320D01*
X48630000Y-51564498D01*
X48630000Y-50978587D01*
X48476236Y-51025232D01*
X48293833Y-51122728D01*
X48293826Y-51122732D01*
X48133944Y-51253944D01*
X48002732Y-51413826D01*
X48002728Y-51413833D01*
X47905233Y-51596233D01*
X47858590Y-51750000D01*
X48446314Y-51750000D01*
X48420507Y-51790156D01*
X48380000Y-51928111D01*
X48380000Y-52071889D01*
X48420507Y-52209844D01*
X48446314Y-52250000D01*
X47858590Y-52250000D01*
X47361410Y-52250000D01*
X46773686Y-52250000D01*
X46799493Y-52209844D01*
X46840000Y-52071889D01*
X46840000Y-51928111D01*
X46799493Y-51790156D01*
X46773686Y-51750000D01*
X47361410Y-51750000D01*
X47314766Y-51596233D01*
X47217271Y-51413833D01*
X47217267Y-51413826D01*
X47086055Y-51253944D01*
X46926173Y-51122732D01*
X46926166Y-51122728D01*
X46743763Y-51025232D01*
X46590000Y-50978587D01*
X46590000Y-51564498D01*
X46482315Y-51515320D01*
X46375763Y-51500000D01*
X46304237Y-51500000D01*
X46197685Y-51515320D01*
X46090000Y-51564498D01*
X46090000Y-50978587D01*
X45936236Y-51025232D01*
X45774843Y-51111498D01*
X45706440Y-51125740D01*
X45641196Y-51100740D01*
X45599826Y-51044434D01*
X45595464Y-50974701D01*
X45628708Y-50914460D01*
X45854467Y-50688700D01*
X45915788Y-50655217D01*
X45974237Y-50656607D01*
X46122023Y-50696207D01*
X46309787Y-50712633D01*
X46339998Y-50715277D01*
X46340000Y-50715277D01*
X46340002Y-50715277D01*
X46368254Y-50712805D01*
X46557977Y-50696207D01*
X46769330Y-50639575D01*
X46967639Y-50547102D01*
X47146877Y-50421598D01*
X47301598Y-50266877D01*
X47427102Y-50087639D01*
X47497618Y-49936414D01*
X47543790Y-49883977D01*
X47610984Y-49864825D01*
X47677865Y-49885041D01*
X47722381Y-49936414D01*
X47792898Y-50087639D01*
X47918402Y-50266877D01*
X48073123Y-50421598D01*
X48252361Y-50547102D01*
X48450670Y-50639575D01*
X48662023Y-50696207D01*
X48844926Y-50712208D01*
X48879998Y-50715277D01*
X48880000Y-50715277D01*
X48880002Y-50715277D01*
X48908254Y-50712805D01*
X49097977Y-50696207D01*
X49309330Y-50639575D01*
X49507639Y-50547102D01*
X49686877Y-50421598D01*
X49841598Y-50266877D01*
X49967102Y-50087639D01*
X50037618Y-49936414D01*
X50083790Y-49883977D01*
X50150984Y-49864825D01*
X50217865Y-49885041D01*
X50262381Y-49936414D01*
X50332898Y-50087639D01*
X50458402Y-50266877D01*
X50613123Y-50421598D01*
X50792361Y-50547102D01*
X50990670Y-50639575D01*
X51202023Y-50696207D01*
X51384926Y-50712208D01*
X51419998Y-50715277D01*
X51420000Y-50715277D01*
X51420002Y-50715277D01*
X51448254Y-50712805D01*
X51637977Y-50696207D01*
X51849330Y-50639575D01*
X52047639Y-50547102D01*
X52226877Y-50421598D01*
X52381598Y-50266877D01*
X52507102Y-50087639D01*
X52577618Y-49936414D01*
X52623790Y-49883977D01*
X52690984Y-49864825D01*
X52757865Y-49885041D01*
X52802381Y-49936414D01*
X52872898Y-50087639D01*
X52998402Y-50266877D01*
X53153123Y-50421598D01*
X53332361Y-50547102D01*
X53530670Y-50639575D01*
X53742023Y-50696207D01*
X53924926Y-50712208D01*
X53959998Y-50715277D01*
X53960000Y-50715277D01*
X53960002Y-50715277D01*
X53988254Y-50712805D01*
X54177977Y-50696207D01*
X54389330Y-50639575D01*
X54587639Y-50547102D01*
X54766877Y-50421598D01*
X54921598Y-50266877D01*
X55047102Y-50087639D01*
X55117618Y-49936414D01*
X55163790Y-49883977D01*
X55230984Y-49864825D01*
X55297865Y-49885041D01*
G37*
%TD.AperFunction*%
%TA.AperFunction,Conductor*%
G36*
X44577865Y-17225041D02*
G01*
X44622381Y-17276414D01*
X44692898Y-17427639D01*
X44818402Y-17606877D01*
X44818406Y-17606881D01*
X44859149Y-17647624D01*
X44892634Y-17708947D01*
X44887650Y-17778639D01*
X44859149Y-17822986D01*
X31651270Y-31030864D01*
X31648227Y-31033805D01*
X31603532Y-31075548D01*
X31603531Y-31075549D01*
X31583302Y-31108813D01*
X31576161Y-31119305D01*
X31552639Y-31150324D01*
X31552633Y-31150334D01*
X31546525Y-31165822D01*
X31537125Y-31184747D01*
X31528477Y-31198969D01*
X31528475Y-31198975D01*
X31517971Y-31236460D01*
X31513926Y-31248486D01*
X31499641Y-31284714D01*
X31499640Y-31284716D01*
X31497937Y-31301281D01*
X31493991Y-31322044D01*
X31489500Y-31338072D01*
X31489500Y-31377008D01*
X31488850Y-31389687D01*
X31484869Y-31428412D01*
X31484869Y-31428416D01*
X31487697Y-31444816D01*
X31489500Y-31465885D01*
X31489500Y-52146968D01*
X31469815Y-52214007D01*
X31417011Y-52259762D01*
X31347853Y-52269706D01*
X31284297Y-52240681D01*
X31277819Y-52234649D01*
X27061819Y-48018649D01*
X27028334Y-47957326D01*
X27025500Y-47930968D01*
X27025500Y-23691810D01*
X27045185Y-23624771D01*
X27097989Y-23579016D01*
X27167147Y-23569072D01*
X27190456Y-23574769D01*
X27220745Y-23585368D01*
X27220747Y-23585368D01*
X27220750Y-23585369D01*
X27399996Y-23605565D01*
X27400000Y-23605565D01*
X27400004Y-23605565D01*
X27579249Y-23585369D01*
X27579252Y-23585368D01*
X27579255Y-23585368D01*
X27749522Y-23525789D01*
X27902262Y-23429816D01*
X27970259Y-23361819D01*
X28031582Y-23328334D01*
X28057940Y-23325500D01*
X32148890Y-23325500D01*
X32153122Y-23325572D01*
X32156352Y-23325682D01*
X32214245Y-23327660D01*
X32252070Y-23318441D01*
X32264513Y-23316075D01*
X32303111Y-23310771D01*
X32318386Y-23304135D01*
X32338421Y-23297397D01*
X32354594Y-23293457D01*
X32388531Y-23274374D01*
X32399879Y-23268737D01*
X32429737Y-23255769D01*
X32435605Y-23253221D01*
X32435605Y-23253220D01*
X32435609Y-23253219D01*
X32448528Y-23242707D01*
X32465997Y-23230818D01*
X32480512Y-23222658D01*
X32508052Y-23195116D01*
X32517457Y-23186628D01*
X32547665Y-23162054D01*
X32557264Y-23148453D01*
X32570881Y-23132287D01*
X37674467Y-18028700D01*
X37735788Y-17995217D01*
X37794237Y-17996607D01*
X37942023Y-18036207D01*
X38129787Y-18052633D01*
X38159998Y-18055277D01*
X38160000Y-18055277D01*
X38160002Y-18055277D01*
X38188254Y-18052805D01*
X38377977Y-18036207D01*
X38589330Y-17979575D01*
X38787639Y-17887102D01*
X38966877Y-17761598D01*
X39121598Y-17606877D01*
X39247102Y-17427639D01*
X39317618Y-17276414D01*
X39363790Y-17223977D01*
X39430984Y-17204825D01*
X39497865Y-17225041D01*
X39542381Y-17276414D01*
X39612898Y-17427639D01*
X39738402Y-17606877D01*
X39893123Y-17761598D01*
X40072361Y-17887102D01*
X40270670Y-17979575D01*
X40482023Y-18036207D01*
X40663857Y-18052115D01*
X40699998Y-18055277D01*
X40700000Y-18055277D01*
X40700002Y-18055277D01*
X40728254Y-18052805D01*
X40917977Y-18036207D01*
X41129330Y-17979575D01*
X41327639Y-17887102D01*
X41506877Y-17761598D01*
X41661598Y-17606877D01*
X41787102Y-17427639D01*
X41857618Y-17276414D01*
X41903790Y-17223977D01*
X41970984Y-17204825D01*
X42037865Y-17225041D01*
X42082381Y-17276414D01*
X42152898Y-17427639D01*
X42278402Y-17606877D01*
X42433123Y-17761598D01*
X42612361Y-17887102D01*
X42810670Y-17979575D01*
X43022023Y-18036207D01*
X43203857Y-18052115D01*
X43239998Y-18055277D01*
X43240000Y-18055277D01*
X43240002Y-18055277D01*
X43268254Y-18052805D01*
X43457977Y-18036207D01*
X43669330Y-17979575D01*
X43867639Y-17887102D01*
X44046877Y-17761598D01*
X44201598Y-17606877D01*
X44327102Y-17427639D01*
X44397618Y-17276414D01*
X44443790Y-17223977D01*
X44510984Y-17204825D01*
X44577865Y-17225041D01*
G37*
%TD.AperFunction*%
%TA.AperFunction,Conductor*%
G36*
X48930956Y-17974862D02*
G01*
X48969196Y-18033339D01*
X48974500Y-18069217D01*
X48974500Y-40950968D01*
X48954815Y-41018007D01*
X48938181Y-41038649D01*
X41745532Y-48231297D01*
X41684209Y-48264782D01*
X41625758Y-48263391D01*
X41477977Y-48223793D01*
X41368988Y-48214258D01*
X41260002Y-48204723D01*
X41259998Y-48204723D01*
X41114682Y-48217436D01*
X41042023Y-48223793D01*
X41042020Y-48223793D01*
X40830677Y-48280422D01*
X40830668Y-48280426D01*
X40632361Y-48372898D01*
X40632357Y-48372900D01*
X40453121Y-48498402D01*
X40298402Y-48653121D01*
X40172900Y-48832357D01*
X40172898Y-48832361D01*
X40102382Y-48983583D01*
X40056209Y-49036022D01*
X39989016Y-49055174D01*
X39922135Y-49034958D01*
X39877618Y-48983583D01*
X39822237Y-48864820D01*
X39807102Y-48832362D01*
X39807100Y-48832359D01*
X39807099Y-48832357D01*
X39681599Y-48653124D01*
X39607818Y-48579343D01*
X39526877Y-48498402D01*
X39347642Y-48372900D01*
X39347638Y-48372897D01*
X39218072Y-48312480D01*
X39149330Y-48280425D01*
X39149326Y-48280424D01*
X39149322Y-48280422D01*
X38937977Y-48223793D01*
X38720002Y-48204723D01*
X38719998Y-48204723D01*
X38574682Y-48217436D01*
X38502023Y-48223793D01*
X38502020Y-48223793D01*
X38290677Y-48280422D01*
X38290668Y-48280426D01*
X38092361Y-48372898D01*
X38092357Y-48372900D01*
X37913121Y-48498402D01*
X37758402Y-48653121D01*
X37632900Y-48832357D01*
X37632898Y-48832361D01*
X37562382Y-48983583D01*
X37516209Y-49036022D01*
X37449016Y-49055174D01*
X37382135Y-49034958D01*
X37337618Y-48983583D01*
X37282237Y-48864820D01*
X37267102Y-48832362D01*
X37267100Y-48832359D01*
X37267099Y-48832357D01*
X37141599Y-48653124D01*
X37067818Y-48579343D01*
X36986877Y-48498402D01*
X36807639Y-48372898D01*
X36804461Y-48371416D01*
X36777093Y-48358653D01*
X36724655Y-48312480D01*
X36705500Y-48246272D01*
X36705500Y-31989030D01*
X36725185Y-31921991D01*
X36741814Y-31901354D01*
X43101698Y-25541469D01*
X43163019Y-25507986D01*
X43193035Y-25506457D01*
X43193035Y-25505565D01*
X43200003Y-25505565D01*
X43379249Y-25485369D01*
X43379252Y-25485368D01*
X43379255Y-25485368D01*
X43549522Y-25425789D01*
X43702262Y-25329816D01*
X43829816Y-25202262D01*
X43925789Y-25049522D01*
X43985368Y-24879255D01*
X43985593Y-24877262D01*
X44005565Y-24700003D01*
X44005565Y-24699996D01*
X43985369Y-24520750D01*
X43985368Y-24520745D01*
X43925789Y-24350478D01*
X43829816Y-24197738D01*
X43702262Y-24070184D01*
X43631113Y-24025478D01*
X43549523Y-23974211D01*
X43379254Y-23914631D01*
X43379249Y-23914630D01*
X43200004Y-23894435D01*
X43199996Y-23894435D01*
X43020750Y-23914630D01*
X43020745Y-23914631D01*
X42850476Y-23974211D01*
X42697737Y-24070184D01*
X42570184Y-24197737D01*
X42474211Y-24350476D01*
X42414631Y-24520745D01*
X42414630Y-24520750D01*
X42394435Y-24699996D01*
X42394435Y-24706963D01*
X42392276Y-24706963D01*
X42382012Y-24765560D01*
X42358528Y-24798301D01*
X35816270Y-31340559D01*
X35813227Y-31343500D01*
X35768532Y-31385243D01*
X35768531Y-31385244D01*
X35748302Y-31418508D01*
X35741161Y-31429000D01*
X35717639Y-31460019D01*
X35717633Y-31460029D01*
X35711525Y-31475517D01*
X35702125Y-31494442D01*
X35693477Y-31508664D01*
X35693475Y-31508670D01*
X35682971Y-31546155D01*
X35678926Y-31558181D01*
X35664641Y-31594409D01*
X35664640Y-31594411D01*
X35662937Y-31610976D01*
X35658991Y-31631739D01*
X35654500Y-31647767D01*
X35654500Y-31686703D01*
X35653850Y-31699382D01*
X35649869Y-31738110D01*
X35651956Y-31750217D01*
X35652697Y-31754511D01*
X35654500Y-31775580D01*
X35654500Y-48246273D01*
X35634815Y-48313312D01*
X35582906Y-48358655D01*
X35552359Y-48372899D01*
X35373121Y-48498402D01*
X35218402Y-48653121D01*
X35092900Y-48832357D01*
X35092898Y-48832361D01*
X35022382Y-48983583D01*
X34976209Y-49036022D01*
X34909016Y-49055174D01*
X34842135Y-49034958D01*
X34797618Y-48983583D01*
X34742237Y-48864820D01*
X34727102Y-48832362D01*
X34727100Y-48832359D01*
X34727099Y-48832357D01*
X34601599Y-48653124D01*
X34527818Y-48579343D01*
X34446877Y-48498402D01*
X34267639Y-48372898D01*
X34264461Y-48371416D01*
X34237093Y-48358653D01*
X34184655Y-48312480D01*
X34165500Y-48246272D01*
X34165500Y-31749030D01*
X34185185Y-31681991D01*
X34201814Y-31661354D01*
X47834467Y-18028700D01*
X47895788Y-17995217D01*
X47954237Y-17996607D01*
X48102023Y-18036207D01*
X48289787Y-18052633D01*
X48319998Y-18055277D01*
X48320000Y-18055277D01*
X48320002Y-18055277D01*
X48348254Y-18052805D01*
X48537977Y-18036207D01*
X48749330Y-17979575D01*
X48798096Y-17956834D01*
X48867172Y-17946343D01*
X48930956Y-17974862D01*
G37*
%TD.AperFunction*%
%TA.AperFunction,Conductor*%
G36*
X51110000Y-17821410D02*
G01*
X51263766Y-17774766D01*
X51327047Y-17740942D01*
X51395449Y-17726700D01*
X51460693Y-17751700D01*
X51502064Y-17808005D01*
X51509500Y-17850300D01*
X51509500Y-40955968D01*
X51489815Y-41023007D01*
X51473181Y-41043649D01*
X44285532Y-48231297D01*
X44224209Y-48264782D01*
X44165758Y-48263391D01*
X44017977Y-48223793D01*
X43908988Y-48214258D01*
X43800002Y-48204723D01*
X43799998Y-48204723D01*
X43654682Y-48217436D01*
X43582023Y-48223793D01*
X43582021Y-48223793D01*
X43582017Y-48223794D01*
X43560961Y-48229436D01*
X43491111Y-48227773D01*
X43433249Y-48188609D01*
X43405746Y-48124380D01*
X43417333Y-48055478D01*
X43441185Y-48021983D01*
X49863769Y-41599399D01*
X49866755Y-41596513D01*
X49911469Y-41554755D01*
X49911880Y-41554080D01*
X49931692Y-41521498D01*
X49938828Y-41511011D01*
X49962365Y-41479975D01*
X49968472Y-41464485D01*
X49977877Y-41445549D01*
X49986526Y-41431328D01*
X49997029Y-41393838D01*
X50001073Y-41381813D01*
X50002993Y-41376946D01*
X50015359Y-41345589D01*
X50017061Y-41329023D01*
X50021007Y-41308260D01*
X50025500Y-41292228D01*
X50025500Y-41253303D01*
X50026150Y-41240623D01*
X50030132Y-41201890D01*
X50027303Y-41185481D01*
X50025500Y-41164413D01*
X50025500Y-17735646D01*
X50045185Y-17668607D01*
X50097989Y-17622852D01*
X50167147Y-17612908D01*
X50228166Y-17639793D01*
X50273832Y-17677270D01*
X50273833Y-17677271D01*
X50456233Y-17774766D01*
X50610000Y-17821410D01*
X50610000Y-17235501D01*
X50717685Y-17284680D01*
X50824237Y-17300000D01*
X50895763Y-17300000D01*
X51002315Y-17284680D01*
X51110000Y-17235501D01*
X51110000Y-17821410D01*
G37*
%TD.AperFunction*%
%TA.AperFunction,Conductor*%
G36*
X26797865Y-17225041D02*
G01*
X26842381Y-17276414D01*
X26912898Y-17427639D01*
X27038402Y-17606877D01*
X27193123Y-17761598D01*
X27367393Y-17883623D01*
X27411018Y-17938201D01*
X27418210Y-18007699D01*
X27386688Y-18070054D01*
X27383950Y-18072879D01*
X26136270Y-19320559D01*
X26133227Y-19323500D01*
X26088532Y-19365243D01*
X26088531Y-19365244D01*
X26068302Y-19398508D01*
X26061161Y-19409000D01*
X26037639Y-19440019D01*
X26037633Y-19440029D01*
X26031525Y-19455517D01*
X26022125Y-19474442D01*
X26013477Y-19488664D01*
X26013475Y-19488670D01*
X26002971Y-19526155D01*
X25998926Y-19538181D01*
X25984641Y-19574409D01*
X25984640Y-19574411D01*
X25982937Y-19590976D01*
X25978991Y-19611739D01*
X25974500Y-19627767D01*
X25974500Y-19666703D01*
X25973850Y-19679382D01*
X25969869Y-19718107D01*
X25969869Y-19718111D01*
X25972697Y-19734511D01*
X25974500Y-19755580D01*
X25974500Y-20643180D01*
X25954815Y-20710219D01*
X25902011Y-20755974D01*
X25832853Y-20765918D01*
X25809546Y-20760222D01*
X25679257Y-20714632D01*
X25679249Y-20714630D01*
X25500004Y-20694435D01*
X25499996Y-20694435D01*
X25320750Y-20714630D01*
X25320745Y-20714631D01*
X25150476Y-20774211D01*
X24997737Y-20870184D01*
X24929741Y-20938181D01*
X24868418Y-20971666D01*
X24842060Y-20974500D01*
X24061110Y-20974500D01*
X24056877Y-20974428D01*
X24048521Y-20974142D01*
X23995755Y-20972340D01*
X23995754Y-20972340D01*
X23995751Y-20972340D01*
X23957931Y-20981556D01*
X23945463Y-20983926D01*
X23906889Y-20989228D01*
X23891610Y-20995865D01*
X23871576Y-21002602D01*
X23855406Y-21006542D01*
X23821469Y-21025623D01*
X23810104Y-21031267D01*
X23774393Y-21046779D01*
X23761467Y-21057294D01*
X23744002Y-21069180D01*
X23729491Y-21077340D01*
X23701961Y-21104869D01*
X23692539Y-21113371D01*
X23662336Y-21137943D01*
X23662335Y-21137944D01*
X23652728Y-21151554D01*
X23639109Y-21167720D01*
X22486270Y-22320559D01*
X22483227Y-22323500D01*
X22438532Y-22365243D01*
X22438531Y-22365244D01*
X22418302Y-22398508D01*
X22411161Y-22409000D01*
X22387639Y-22440019D01*
X22387633Y-22440029D01*
X22381525Y-22455517D01*
X22372125Y-22474442D01*
X22363477Y-22488664D01*
X22363475Y-22488670D01*
X22352971Y-22526155D01*
X22348926Y-22538181D01*
X22334641Y-22574409D01*
X22334640Y-22574411D01*
X22332937Y-22590976D01*
X22328991Y-22611739D01*
X22324500Y-22627767D01*
X22324500Y-22666703D01*
X22323850Y-22679382D01*
X22319869Y-22718107D01*
X22319869Y-22718111D01*
X22322697Y-22734511D01*
X22324500Y-22755580D01*
X22324500Y-41080968D01*
X22304815Y-41148007D01*
X22288181Y-41168649D01*
X15892239Y-47564590D01*
X15830916Y-47598075D01*
X15761224Y-47593091D01*
X15739281Y-47582336D01*
X15630394Y-47514916D01*
X15630388Y-47514913D01*
X15459924Y-47448876D01*
X15429496Y-47437088D01*
X15217721Y-47397500D01*
X15002279Y-47397500D01*
X14790504Y-47437088D01*
X14790501Y-47437088D01*
X14790501Y-47437089D01*
X14589611Y-47514913D01*
X14589605Y-47514916D01*
X14406437Y-47628329D01*
X14406435Y-47628331D01*
X14247223Y-47773471D01*
X14117388Y-47945400D01*
X14060500Y-48059647D01*
X14012997Y-48110884D01*
X13945334Y-48128305D01*
X13878994Y-48106379D01*
X13835039Y-48052068D01*
X13825500Y-48004375D01*
X13825500Y-42025001D01*
X14754390Y-42025001D01*
X14774804Y-42310433D01*
X14835628Y-42590037D01*
X14935635Y-42858166D01*
X15072770Y-43109309D01*
X15072775Y-43109317D01*
X15244254Y-43338387D01*
X15244270Y-43338405D01*
X15446594Y-43540729D01*
X15446612Y-43540745D01*
X15675682Y-43712224D01*
X15675690Y-43712229D01*
X15926833Y-43849364D01*
X15926832Y-43849364D01*
X15926836Y-43849365D01*
X15926839Y-43849367D01*
X16194954Y-43949369D01*
X16194960Y-43949370D01*
X16194962Y-43949371D01*
X16474566Y-44010195D01*
X16474568Y-44010195D01*
X16474572Y-44010196D01*
X16728220Y-44028337D01*
X16759999Y-44030610D01*
X16760000Y-44030610D01*
X16760001Y-44030610D01*
X16788595Y-44028564D01*
X17045428Y-44010196D01*
X17325046Y-43949369D01*
X17593161Y-43849367D01*
X17844315Y-43712226D01*
X18073395Y-43540739D01*
X18275739Y-43338395D01*
X18447226Y-43109315D01*
X18584367Y-42858161D01*
X18684369Y-42590046D01*
X18745196Y-42310428D01*
X18765610Y-42025000D01*
X18745196Y-41739572D01*
X18742989Y-41729428D01*
X18684371Y-41459962D01*
X18684370Y-41459960D01*
X18684369Y-41459954D01*
X18584367Y-41191839D01*
X18583625Y-41190481D01*
X18447229Y-40940690D01*
X18447224Y-40940682D01*
X18275745Y-40711612D01*
X18275729Y-40711594D01*
X18073405Y-40509270D01*
X18073387Y-40509254D01*
X17844317Y-40337775D01*
X17844309Y-40337770D01*
X17593166Y-40200635D01*
X17593167Y-40200635D01*
X17449234Y-40146951D01*
X17325046Y-40100631D01*
X17325043Y-40100630D01*
X17325037Y-40100628D01*
X17045433Y-40039804D01*
X16760001Y-40019390D01*
X16759999Y-40019390D01*
X16474566Y-40039804D01*
X16194960Y-40100629D01*
X16194955Y-40100630D01*
X16194954Y-40100631D01*
X16156498Y-40114974D01*
X16084127Y-40141967D01*
X16014435Y-40146951D01*
X16011252Y-40145213D01*
X15981622Y-40177808D01*
X15960421Y-40188107D01*
X15940332Y-40195600D01*
X15926833Y-40200635D01*
X15675690Y-40337770D01*
X15675682Y-40337775D01*
X15446612Y-40509254D01*
X15446594Y-40509270D01*
X15244270Y-40711594D01*
X15244254Y-40711612D01*
X15072775Y-40940682D01*
X15072770Y-40940690D01*
X14935635Y-41191833D01*
X14835628Y-41459962D01*
X14774804Y-41739566D01*
X14754390Y-42024998D01*
X14754390Y-42025001D01*
X13825500Y-42025001D01*
X13825500Y-38642031D01*
X13845185Y-38574992D01*
X13861809Y-38554359D01*
X14002844Y-38413324D01*
X14064162Y-38379843D01*
X14133854Y-38384827D01*
X14189788Y-38426698D01*
X14214205Y-38492163D01*
X14214049Y-38511816D01*
X14195574Y-38722997D01*
X14195574Y-38723001D01*
X14215238Y-38947769D01*
X14215240Y-38947780D01*
X14273634Y-39165712D01*
X14273636Y-39165716D01*
X14273637Y-39165720D01*
X14368994Y-39370213D01*
X14368996Y-39370217D01*
X14498408Y-39555036D01*
X14498413Y-39555042D01*
X14657957Y-39714586D01*
X14657963Y-39714591D01*
X14842782Y-39844003D01*
X14842784Y-39844004D01*
X14842787Y-39844006D01*
X15047280Y-39939363D01*
X15265225Y-39997761D01*
X15425778Y-40011807D01*
X15489998Y-40017426D01*
X15490000Y-40017426D01*
X15490002Y-40017426D01*
X15546193Y-40012509D01*
X15714775Y-39997761D01*
X15884991Y-39952152D01*
X15946203Y-39953609D01*
X15966484Y-39926517D01*
X15988385Y-39913405D01*
X16137213Y-39844006D01*
X16322041Y-39714588D01*
X16481588Y-39555041D01*
X16611006Y-39370213D01*
X16706363Y-39165720D01*
X16764761Y-38947775D01*
X16784426Y-38723000D01*
X16764761Y-38498225D01*
X16711854Y-38300772D01*
X16706365Y-38280287D01*
X16706364Y-38280286D01*
X16706363Y-38280280D01*
X16611006Y-38075787D01*
X16611004Y-38075784D01*
X16611003Y-38075782D01*
X16481591Y-37890963D01*
X16481586Y-37890957D01*
X16322042Y-37731413D01*
X16322036Y-37731408D01*
X16137217Y-37601996D01*
X16137213Y-37601994D01*
X16058697Y-37565381D01*
X16006259Y-37519210D01*
X15987107Y-37452016D01*
X16007323Y-37385135D01*
X16058697Y-37340618D01*
X16137213Y-37304006D01*
X16322041Y-37174588D01*
X16481588Y-37015041D01*
X16611006Y-36830213D01*
X16706363Y-36625720D01*
X16764761Y-36407775D01*
X16784426Y-36183000D01*
X16764761Y-35958225D01*
X16706363Y-35740280D01*
X16611006Y-35535787D01*
X16611004Y-35535784D01*
X16611003Y-35535782D01*
X16481591Y-35350963D01*
X16481586Y-35350957D01*
X16322042Y-35191413D01*
X16322036Y-35191408D01*
X16137217Y-35061996D01*
X16137213Y-35061994D01*
X16058697Y-35025381D01*
X16006259Y-34979210D01*
X15987107Y-34912016D01*
X16007323Y-34845135D01*
X16058697Y-34800618D01*
X16137213Y-34764006D01*
X16322041Y-34634588D01*
X16481588Y-34475041D01*
X16611006Y-34290213D01*
X16706363Y-34085720D01*
X16764761Y-33867775D01*
X16784426Y-33643000D01*
X16764761Y-33418225D01*
X16706363Y-33200280D01*
X16611006Y-32995787D01*
X16611004Y-32995784D01*
X16611003Y-32995782D01*
X16481591Y-32810963D01*
X16481586Y-32810957D01*
X16322042Y-32651413D01*
X16322036Y-32651408D01*
X16137217Y-32521996D01*
X16137213Y-32521994D01*
X16075299Y-32493123D01*
X16058697Y-32485381D01*
X16006259Y-32439210D01*
X15987107Y-32372016D01*
X16007323Y-32305135D01*
X16058697Y-32260618D01*
X16137213Y-32224006D01*
X16322041Y-32094588D01*
X16481588Y-31935041D01*
X16611006Y-31750213D01*
X16706363Y-31545720D01*
X16764761Y-31327775D01*
X16783442Y-31114244D01*
X16784426Y-31103001D01*
X16784426Y-31102998D01*
X16764761Y-30878230D01*
X16764761Y-30878225D01*
X16741063Y-30789784D01*
X16742726Y-30719935D01*
X16773155Y-30670012D01*
X17638754Y-29804413D01*
X17641740Y-29801527D01*
X17686469Y-29759755D01*
X17706702Y-29726480D01*
X17713833Y-29716004D01*
X17737364Y-29684975D01*
X17743473Y-29669482D01*
X17752876Y-29650551D01*
X17761526Y-29636328D01*
X17772030Y-29598835D01*
X17776071Y-29586818D01*
X17790359Y-29550589D01*
X17792061Y-29534023D01*
X17796007Y-29513260D01*
X17800500Y-29497228D01*
X17800500Y-29458296D01*
X17801150Y-29445616D01*
X17805131Y-29406891D01*
X17802303Y-29390487D01*
X17800500Y-29369420D01*
X17800500Y-26344335D01*
X17820185Y-26277296D01*
X17836814Y-26256659D01*
X25823754Y-18269718D01*
X25826740Y-18266832D01*
X25871469Y-18225060D01*
X25891702Y-18191785D01*
X25898833Y-18181309D01*
X25922364Y-18150280D01*
X25928473Y-18134787D01*
X25937876Y-18115856D01*
X25946526Y-18101633D01*
X25957030Y-18064140D01*
X25961071Y-18052123D01*
X25975359Y-18015894D01*
X25976418Y-18005587D01*
X26002850Y-17940915D01*
X26047361Y-17905883D01*
X26087639Y-17887102D01*
X26266877Y-17761598D01*
X26421598Y-17606877D01*
X26547102Y-17427639D01*
X26617618Y-17276414D01*
X26663790Y-17223977D01*
X26730984Y-17204825D01*
X26797865Y-17225041D01*
G37*
%TD.AperFunction*%
%TA.AperFunction,Conductor*%
G36*
X24257865Y-17225041D02*
G01*
X24302381Y-17276414D01*
X24372898Y-17427639D01*
X24498402Y-17606877D01*
X24653123Y-17761598D01*
X24653128Y-17761602D01*
X24654082Y-17762402D01*
X24654390Y-17762865D01*
X24656951Y-17765426D01*
X24656436Y-17765940D01*
X24692785Y-17820573D01*
X24693895Y-17890434D01*
X24662059Y-17945074D01*
X18859772Y-23747362D01*
X18798449Y-23780847D01*
X18728757Y-23775863D01*
X18672824Y-23733991D01*
X18648407Y-23668527D01*
X18655908Y-23616351D01*
X18684369Y-23540046D01*
X18731025Y-23325572D01*
X18745195Y-23260433D01*
X18745195Y-23260432D01*
X18745196Y-23260428D01*
X18765610Y-22975000D01*
X18745196Y-22689572D01*
X18742979Y-22679382D01*
X18684371Y-22409962D01*
X18684370Y-22409960D01*
X18684369Y-22409954D01*
X18584367Y-22141839D01*
X18579460Y-22132853D01*
X18447229Y-21890690D01*
X18447224Y-21890682D01*
X18275745Y-21661612D01*
X18275729Y-21661594D01*
X18073405Y-21459270D01*
X18073387Y-21459254D01*
X17844317Y-21287775D01*
X17844309Y-21287770D01*
X17593166Y-21150635D01*
X17593167Y-21150635D01*
X17396655Y-21077340D01*
X17325046Y-21050631D01*
X17325043Y-21050630D01*
X17325037Y-21050628D01*
X17045433Y-20989804D01*
X16760001Y-20969390D01*
X16759999Y-20969390D01*
X16474566Y-20989804D01*
X16194962Y-21050628D01*
X15926833Y-21150635D01*
X15675690Y-21287770D01*
X15675682Y-21287775D01*
X15446612Y-21459254D01*
X15446594Y-21459270D01*
X15244270Y-21661594D01*
X15244254Y-21661612D01*
X15072775Y-21890682D01*
X15072770Y-21890690D01*
X14935635Y-22141833D01*
X14835628Y-22409962D01*
X14774804Y-22689566D01*
X14754390Y-22974998D01*
X14754390Y-22975001D01*
X14774804Y-23260433D01*
X14835628Y-23540037D01*
X14835630Y-23540043D01*
X14835631Y-23540046D01*
X14926712Y-23784242D01*
X14935635Y-23808166D01*
X15072770Y-24059309D01*
X15072775Y-24059317D01*
X15244254Y-24288387D01*
X15244270Y-24288405D01*
X15446594Y-24490729D01*
X15446612Y-24490745D01*
X15675682Y-24662224D01*
X15675690Y-24662229D01*
X15791337Y-24725377D01*
X15840742Y-24774782D01*
X15855594Y-24843055D01*
X15831177Y-24908519D01*
X15775244Y-24950391D01*
X15709125Y-24956098D01*
X15590909Y-24934000D01*
X15389091Y-24934000D01*
X15190706Y-24971085D01*
X15190705Y-24971085D01*
X15002513Y-25043990D01*
X15002509Y-25043992D01*
X14917302Y-25096749D01*
X15350400Y-25529847D01*
X15345408Y-25530565D01*
X15212530Y-25591248D01*
X15102131Y-25686910D01*
X15023155Y-25809799D01*
X15000477Y-25887031D01*
X14560387Y-25446941D01*
X14560147Y-25447259D01*
X14560144Y-25447265D01*
X14470188Y-25627921D01*
X14470185Y-25627927D01*
X14414957Y-25822037D01*
X14414956Y-25822040D01*
X14396335Y-26022999D01*
X14396335Y-26023000D01*
X14414956Y-26223959D01*
X14414957Y-26223962D01*
X14470185Y-26418072D01*
X14470188Y-26418078D01*
X14560146Y-26598739D01*
X14560150Y-26598745D01*
X14560386Y-26599057D01*
X14560387Y-26599058D01*
X15000477Y-26158968D01*
X15023155Y-26236201D01*
X15102131Y-26359090D01*
X15212530Y-26454752D01*
X15345408Y-26515435D01*
X15350399Y-26516152D01*
X14917302Y-26949249D01*
X14917303Y-26949250D01*
X15002508Y-27002007D01*
X15002517Y-27002011D01*
X15192677Y-27075678D01*
X15248079Y-27118250D01*
X15271670Y-27184017D01*
X15255959Y-27252098D01*
X15205936Y-27300877D01*
X15179978Y-27311080D01*
X15047285Y-27346635D01*
X15047278Y-27346638D01*
X14842786Y-27441994D01*
X14842782Y-27441996D01*
X14657963Y-27571408D01*
X14657957Y-27571413D01*
X14498413Y-27730957D01*
X14498408Y-27730963D01*
X14368996Y-27915782D01*
X14368994Y-27915786D01*
X14273638Y-28120278D01*
X14273634Y-28120287D01*
X14269275Y-28136558D01*
X14232910Y-28196219D01*
X14170063Y-28226748D01*
X14100688Y-28218453D01*
X14046810Y-28173968D01*
X14025535Y-28107416D01*
X14025500Y-28104465D01*
X14025500Y-22269031D01*
X14045185Y-22201992D01*
X14061819Y-22181350D01*
X15681350Y-20561819D01*
X15742673Y-20528334D01*
X15769031Y-20525500D01*
X19708890Y-20525500D01*
X19713122Y-20525572D01*
X19716352Y-20525682D01*
X19774245Y-20527660D01*
X19812070Y-20518441D01*
X19824513Y-20516075D01*
X19863111Y-20510771D01*
X19878386Y-20504135D01*
X19898421Y-20497397D01*
X19914594Y-20493457D01*
X19948531Y-20474374D01*
X19959879Y-20468737D01*
X19989737Y-20455769D01*
X19995605Y-20453221D01*
X19995605Y-20453220D01*
X19995609Y-20453219D01*
X20008528Y-20442707D01*
X20025997Y-20430818D01*
X20040512Y-20422658D01*
X20068052Y-20395116D01*
X20077457Y-20386628D01*
X20107665Y-20362054D01*
X20117264Y-20348453D01*
X20130881Y-20332287D01*
X22434467Y-18028700D01*
X22495788Y-17995217D01*
X22554237Y-17996607D01*
X22702023Y-18036207D01*
X22889787Y-18052633D01*
X22919998Y-18055277D01*
X22920000Y-18055277D01*
X22920002Y-18055277D01*
X22948254Y-18052805D01*
X23137977Y-18036207D01*
X23349330Y-17979575D01*
X23547639Y-17887102D01*
X23726877Y-17761598D01*
X23881598Y-17606877D01*
X24007102Y-17427639D01*
X24077618Y-17276414D01*
X24123790Y-17223977D01*
X24190984Y-17204825D01*
X24257865Y-17225041D01*
G37*
%TD.AperFunction*%
%TA.AperFunction,Conductor*%
G36*
X16419611Y-26599057D02*
G01*
X16419612Y-26599057D01*
X16419851Y-26598742D01*
X16509813Y-26418075D01*
X16509872Y-26417924D01*
X16509919Y-26417862D01*
X16512368Y-26412945D01*
X16513329Y-26413423D01*
X16552442Y-26362520D01*
X16618208Y-26338928D01*
X16686289Y-26354636D01*
X16735070Y-26404658D01*
X16749500Y-26462713D01*
X16749500Y-27720298D01*
X16729815Y-27787337D01*
X16677011Y-27833092D01*
X16607853Y-27843036D01*
X16544297Y-27814011D01*
X16523926Y-27791422D01*
X16481594Y-27730966D01*
X16481586Y-27730957D01*
X16322042Y-27571413D01*
X16322036Y-27571408D01*
X16137217Y-27441996D01*
X16137213Y-27441994D01*
X15932720Y-27346637D01*
X15932716Y-27346636D01*
X15932714Y-27346635D01*
X15800021Y-27311080D01*
X15740361Y-27274715D01*
X15709832Y-27211868D01*
X15718127Y-27142492D01*
X15762612Y-27088614D01*
X15787322Y-27075678D01*
X15977484Y-27002010D01*
X15977488Y-27002008D01*
X16062696Y-26949249D01*
X15629600Y-26516152D01*
X15634592Y-26515435D01*
X15767470Y-26454752D01*
X15877869Y-26359090D01*
X15956845Y-26236201D01*
X15979522Y-26158968D01*
X16419611Y-26599057D01*
G37*
%TD.AperFunction*%
%TA.AperFunction,Conductor*%
G36*
X17532362Y-24899409D02*
G01*
X17565847Y-24960732D01*
X17560863Y-25030424D01*
X17532362Y-25074772D01*
X16911270Y-25695864D01*
X16908227Y-25698805D01*
X16863532Y-25740548D01*
X16863531Y-25740549D01*
X16843302Y-25773813D01*
X16836161Y-25784305D01*
X16812639Y-25815324D01*
X16812633Y-25815334D01*
X16806525Y-25830822D01*
X16797124Y-25849750D01*
X16791888Y-25858361D01*
X16740238Y-25905415D01*
X16671348Y-25917076D01*
X16607090Y-25889641D01*
X16567866Y-25831820D01*
X16566777Y-25827507D01*
X16566612Y-25827554D01*
X16509814Y-25627927D01*
X16509811Y-25627921D01*
X16419853Y-25447261D01*
X16419849Y-25447254D01*
X16419612Y-25446941D01*
X15979522Y-25887030D01*
X15956845Y-25809799D01*
X15877869Y-25686910D01*
X15767470Y-25591248D01*
X15634592Y-25530565D01*
X15629599Y-25529847D01*
X16062696Y-25096749D01*
X16055785Y-25037180D01*
X16060441Y-25036639D01*
X16055701Y-25007079D01*
X16083693Y-24943061D01*
X16141851Y-24904340D01*
X16205067Y-24901569D01*
X16474566Y-24960195D01*
X16474568Y-24960195D01*
X16474572Y-24960196D01*
X16728220Y-24978337D01*
X16759999Y-24980610D01*
X16760000Y-24980610D01*
X16760001Y-24980610D01*
X16788595Y-24978564D01*
X17045428Y-24960196D01*
X17064267Y-24956098D01*
X17325037Y-24899371D01*
X17325037Y-24899370D01*
X17325046Y-24899369D01*
X17401350Y-24870908D01*
X17471039Y-24865925D01*
X17532362Y-24899409D01*
G37*
%TD.AperFunction*%
%TA.AperFunction,Conductor*%
G36*
X30790000Y-17821410D02*
G01*
X30943766Y-17774766D01*
X31105154Y-17688503D01*
X31173557Y-17674261D01*
X31238801Y-17699261D01*
X31280171Y-17755566D01*
X31284533Y-17825300D01*
X31251288Y-17885542D01*
X29498319Y-19638512D01*
X29436996Y-19671997D01*
X29410638Y-19674831D01*
X28120252Y-19674831D01*
X28053213Y-19655146D01*
X28032571Y-19638512D01*
X27964574Y-19570515D01*
X27811833Y-19474541D01*
X27743860Y-19450757D01*
X27687084Y-19410035D01*
X27661336Y-19345083D01*
X27674792Y-19276521D01*
X27697129Y-19246038D01*
X28405744Y-18537424D01*
X28467063Y-18503942D01*
X28497646Y-18501180D01*
X28540946Y-18502660D01*
X28578771Y-18493441D01*
X28591214Y-18491075D01*
X28629812Y-18485771D01*
X28645087Y-18479135D01*
X28665122Y-18472397D01*
X28681295Y-18468457D01*
X28715232Y-18449374D01*
X28726580Y-18443737D01*
X28756438Y-18430769D01*
X28762306Y-18428221D01*
X28762306Y-18428220D01*
X28762310Y-18428219D01*
X28775229Y-18417707D01*
X28792698Y-18405818D01*
X28807213Y-18397658D01*
X28834753Y-18370116D01*
X28844158Y-18361628D01*
X28874366Y-18337054D01*
X28883965Y-18323453D01*
X28897582Y-18307287D01*
X29538769Y-17666100D01*
X29541755Y-17663214D01*
X29586469Y-17621456D01*
X29606696Y-17588193D01*
X29613828Y-17577713D01*
X29619865Y-17569752D01*
X29676058Y-17528234D01*
X29745779Y-17523686D01*
X29797328Y-17548832D01*
X29953826Y-17677267D01*
X29953833Y-17677271D01*
X30136233Y-17774766D01*
X30290000Y-17821410D01*
X30290000Y-17235501D01*
X30397685Y-17284680D01*
X30504237Y-17300000D01*
X30575763Y-17300000D01*
X30682315Y-17284680D01*
X30790000Y-17235501D01*
X30790000Y-17821410D01*
G37*
%TD.AperFunction*%
%TA.AperFunction,Conductor*%
G36*
X31877865Y-14685041D02*
G01*
X31922381Y-14736414D01*
X31992898Y-14887639D01*
X32118402Y-15066877D01*
X32273123Y-15221598D01*
X32448355Y-15344297D01*
X32452361Y-15347102D01*
X32603583Y-15417618D01*
X32656022Y-15463790D01*
X32675174Y-15530984D01*
X32654958Y-15597865D01*
X32603583Y-15642382D01*
X32452361Y-15712898D01*
X32452357Y-15712900D01*
X32273121Y-15838402D01*
X32118402Y-15993121D01*
X31992900Y-16172357D01*
X31992898Y-16172361D01*
X31900426Y-16370668D01*
X31900422Y-16370677D01*
X31843793Y-16582020D01*
X31843793Y-16582023D01*
X31839025Y-16636517D01*
X31824723Y-16799997D01*
X31824723Y-16800002D01*
X31828868Y-16847376D01*
X31843793Y-17017977D01*
X31879748Y-17152164D01*
X31883391Y-17165757D01*
X31881728Y-17235607D01*
X31851297Y-17285532D01*
X31625542Y-17511287D01*
X31564219Y-17544772D01*
X31494527Y-17539788D01*
X31438594Y-17497916D01*
X31414177Y-17432452D01*
X31428503Y-17365153D01*
X31514766Y-17203766D01*
X31561410Y-17050000D01*
X30973686Y-17050000D01*
X30999493Y-17009844D01*
X31040000Y-16871889D01*
X31040000Y-16728111D01*
X30999493Y-16590156D01*
X30973686Y-16550000D01*
X31561410Y-16550000D01*
X31514766Y-16396233D01*
X31417271Y-16213833D01*
X31417267Y-16213826D01*
X31286055Y-16053944D01*
X31126173Y-15922732D01*
X31126166Y-15922728D01*
X30943763Y-15825232D01*
X30790000Y-15778587D01*
X30790000Y-16364498D01*
X30682315Y-16315320D01*
X30575763Y-16300000D01*
X30504237Y-16300000D01*
X30397685Y-16315320D01*
X30290000Y-16364498D01*
X30290000Y-15778587D01*
X30136236Y-15825232D01*
X29953833Y-15922728D01*
X29953827Y-15922732D01*
X29903164Y-15964310D01*
X29838854Y-15991622D01*
X29769987Y-15979831D01*
X29718427Y-15932678D01*
X29700500Y-15868456D01*
X29700500Y-15446108D01*
X29700572Y-15441879D01*
X29700877Y-15432941D01*
X29722837Y-15366612D01*
X29777170Y-15322684D01*
X29846628Y-15315105D01*
X29895928Y-15335596D01*
X29912361Y-15347102D01*
X30110670Y-15439575D01*
X30110676Y-15439576D01*
X30110677Y-15439577D01*
X30127121Y-15443983D01*
X30322023Y-15496207D01*
X30504926Y-15512208D01*
X30539998Y-15515277D01*
X30540000Y-15515277D01*
X30540002Y-15515277D01*
X30568254Y-15512805D01*
X30757977Y-15496207D01*
X30969330Y-15439575D01*
X31167639Y-15347102D01*
X31346877Y-15221598D01*
X31501598Y-15066877D01*
X31627102Y-14887639D01*
X31697618Y-14736414D01*
X31743790Y-14683977D01*
X31810984Y-14664825D01*
X31877865Y-14685041D01*
G37*
%TD.AperFunction*%
%TA.AperFunction,Conductor*%
G36*
X50220982Y-15339134D02*
G01*
X50232356Y-15347099D01*
X50232358Y-15347100D01*
X50232361Y-15347102D01*
X50430670Y-15439575D01*
X50430676Y-15439576D01*
X50430677Y-15439577D01*
X50447121Y-15443983D01*
X50642023Y-15496207D01*
X50824926Y-15512208D01*
X50859998Y-15515277D01*
X50860000Y-15515277D01*
X50860002Y-15515277D01*
X50888254Y-15512805D01*
X51077977Y-15496207D01*
X51225761Y-15456608D01*
X51295608Y-15458271D01*
X51345533Y-15488702D01*
X51473181Y-15616350D01*
X51506666Y-15677673D01*
X51509500Y-15704031D01*
X51509500Y-15749699D01*
X51489815Y-15816738D01*
X51437011Y-15862493D01*
X51367853Y-15872437D01*
X51327048Y-15859058D01*
X51263761Y-15825231D01*
X51110000Y-15778587D01*
X51110000Y-16364498D01*
X51002315Y-16315320D01*
X50895763Y-16300000D01*
X50824237Y-16300000D01*
X50717685Y-16315320D01*
X50610000Y-16364498D01*
X50610000Y-15778587D01*
X50456236Y-15825232D01*
X50273833Y-15922728D01*
X50273832Y-15922728D01*
X50228165Y-15960207D01*
X50163854Y-15987519D01*
X50094987Y-15975728D01*
X50043427Y-15928575D01*
X50025500Y-15864353D01*
X50025500Y-15451108D01*
X50025572Y-15446879D01*
X50025927Y-15436477D01*
X50047887Y-15370148D01*
X50102221Y-15326220D01*
X50171678Y-15318641D01*
X50220982Y-15339134D01*
G37*
%TD.AperFunction*%
%TA.AperFunction,Conductor*%
G36*
X74003243Y-12000669D02*
G01*
X74133379Y-12007490D01*
X74313908Y-12017628D01*
X74326309Y-12018955D01*
X74474990Y-12042504D01*
X74476245Y-12042709D01*
X74635324Y-12069738D01*
X74646606Y-12072202D01*
X74795635Y-12112134D01*
X74797761Y-12112725D01*
X74949174Y-12156347D01*
X74959260Y-12159729D01*
X75104710Y-12215562D01*
X75107599Y-12216714D01*
X75251768Y-12276430D01*
X75260594Y-12280500D01*
X75400064Y-12351565D01*
X75403748Y-12353521D01*
X75493848Y-12403316D01*
X75539548Y-12428574D01*
X75547061Y-12433081D01*
X75678754Y-12518604D01*
X75682947Y-12521452D01*
X75809147Y-12610996D01*
X75815428Y-12615759D01*
X75937567Y-12714665D01*
X75942158Y-12718571D01*
X76057424Y-12821579D01*
X76062478Y-12826358D01*
X76173640Y-12937520D01*
X76178419Y-12942574D01*
X76281427Y-13057840D01*
X76285333Y-13062431D01*
X76384239Y-13184570D01*
X76389002Y-13190851D01*
X76478546Y-13317051D01*
X76481409Y-13321266D01*
X76566907Y-13452921D01*
X76571430Y-13460460D01*
X76646477Y-13596250D01*
X76648433Y-13599934D01*
X76719498Y-13739404D01*
X76723575Y-13748247D01*
X76783259Y-13892337D01*
X76784462Y-13895353D01*
X76840265Y-14040727D01*
X76843655Y-14050836D01*
X76887258Y-14202185D01*
X76887879Y-14204419D01*
X76927791Y-14353370D01*
X76930264Y-14364694D01*
X76957282Y-14523715D01*
X76957507Y-14525087D01*
X76981040Y-14673666D01*
X76982372Y-14686111D01*
X76992498Y-14866421D01*
X76992523Y-14866884D01*
X76999330Y-14996756D01*
X76999500Y-15003246D01*
X76999500Y-64996753D01*
X76999330Y-65003243D01*
X76992523Y-65133114D01*
X76992498Y-65133577D01*
X76982372Y-65313887D01*
X76981040Y-65326332D01*
X76957507Y-65474911D01*
X76957282Y-65476283D01*
X76930264Y-65635304D01*
X76927791Y-65646628D01*
X76887879Y-65795579D01*
X76887258Y-65797813D01*
X76843655Y-65949162D01*
X76840265Y-65959271D01*
X76784462Y-66104645D01*
X76783259Y-66107661D01*
X76723575Y-66251751D01*
X76719498Y-66260594D01*
X76648433Y-66400064D01*
X76646477Y-66403748D01*
X76571430Y-66539538D01*
X76566897Y-66547094D01*
X76481412Y-66678728D01*
X76478546Y-66682947D01*
X76389002Y-66809147D01*
X76384239Y-66815428D01*
X76285333Y-66937567D01*
X76281427Y-66942158D01*
X76178419Y-67057424D01*
X76173640Y-67062478D01*
X76062478Y-67173640D01*
X76057424Y-67178419D01*
X75942158Y-67281427D01*
X75937567Y-67285333D01*
X75815428Y-67384239D01*
X75809147Y-67389002D01*
X75682947Y-67478546D01*
X75678728Y-67481412D01*
X75547094Y-67566897D01*
X75539538Y-67571430D01*
X75403748Y-67646477D01*
X75400064Y-67648433D01*
X75260594Y-67719498D01*
X75251751Y-67723575D01*
X75107661Y-67783259D01*
X75104645Y-67784462D01*
X74959271Y-67840265D01*
X74949162Y-67843655D01*
X74797813Y-67887258D01*
X74795579Y-67887879D01*
X74646628Y-67927791D01*
X74635304Y-67930264D01*
X74476283Y-67957282D01*
X74474911Y-67957507D01*
X74326332Y-67981040D01*
X74313887Y-67982372D01*
X74133577Y-67992498D01*
X74133114Y-67992523D01*
X74003243Y-67999330D01*
X73996753Y-67999500D01*
X15003247Y-67999500D01*
X14996757Y-67999330D01*
X14866884Y-67992523D01*
X14866421Y-67992498D01*
X14686111Y-67982372D01*
X14673666Y-67981040D01*
X14525087Y-67957507D01*
X14523715Y-67957282D01*
X14364694Y-67930264D01*
X14353370Y-67927791D01*
X14204419Y-67887879D01*
X14202185Y-67887258D01*
X14050836Y-67843655D01*
X14040727Y-67840265D01*
X13895353Y-67784462D01*
X13892337Y-67783259D01*
X13748247Y-67723575D01*
X13739404Y-67719498D01*
X13599934Y-67648433D01*
X13596250Y-67646477D01*
X13460460Y-67571430D01*
X13452921Y-67566907D01*
X13321266Y-67481409D01*
X13317051Y-67478546D01*
X13190851Y-67389002D01*
X13184570Y-67384239D01*
X13062431Y-67285333D01*
X13057840Y-67281427D01*
X12942574Y-67178419D01*
X12937520Y-67173640D01*
X12826358Y-67062478D01*
X12821579Y-67057424D01*
X12718571Y-66942158D01*
X12714665Y-66937567D01*
X12706825Y-66927886D01*
X12615757Y-66815426D01*
X12610996Y-66809147D01*
X12521452Y-66682947D01*
X12518604Y-66678754D01*
X12433081Y-66547061D01*
X12428568Y-66539538D01*
X12405388Y-66497597D01*
X12393176Y-66475500D01*
X12353521Y-66403748D01*
X12351565Y-66400064D01*
X12280500Y-66260594D01*
X12276430Y-66251768D01*
X12216714Y-66107599D01*
X12215562Y-66104710D01*
X12159729Y-65959260D01*
X12156347Y-65949174D01*
X12112725Y-65797761D01*
X12112134Y-65795635D01*
X12072202Y-65646606D01*
X12069738Y-65635324D01*
X12042709Y-65476245D01*
X12042491Y-65474911D01*
X12018955Y-65326309D01*
X12017628Y-65313908D01*
X12007485Y-65133285D01*
X12007476Y-65133114D01*
X12000670Y-65003243D01*
X12000500Y-64996754D01*
X12000500Y-64500000D01*
X12394615Y-64500000D01*
X12414140Y-64847688D01*
X12414142Y-64847700D01*
X12469408Y-65172977D01*
X12472473Y-65191013D01*
X12568879Y-65525644D01*
X12702145Y-65847376D01*
X12870595Y-66152164D01*
X13072112Y-66436176D01*
X13304161Y-66695839D01*
X13563824Y-66927888D01*
X13847836Y-67129405D01*
X14152624Y-67297855D01*
X14474356Y-67431121D01*
X14808987Y-67527527D01*
X15152307Y-67585859D01*
X15500000Y-67605385D01*
X15847693Y-67585859D01*
X16191013Y-67527527D01*
X16525644Y-67431121D01*
X16847376Y-67297855D01*
X17152164Y-67129405D01*
X17436176Y-66927888D01*
X17695839Y-66695839D01*
X17927888Y-66436176D01*
X18129405Y-66152164D01*
X18297855Y-65847376D01*
X18371450Y-65669702D01*
X19420000Y-65669702D01*
X19431602Y-65728033D01*
X19431603Y-65728034D01*
X19475808Y-65794191D01*
X19541965Y-65838396D01*
X19541966Y-65838397D01*
X19600297Y-65849999D01*
X19600301Y-65850000D01*
X20220000Y-65850000D01*
X20220000Y-65235501D01*
X20327685Y-65284680D01*
X20434237Y-65300000D01*
X20505763Y-65300000D01*
X20612315Y-65284680D01*
X20720000Y-65235501D01*
X20720000Y-65850000D01*
X21339699Y-65850000D01*
X21339702Y-65849999D01*
X21398033Y-65838397D01*
X21398034Y-65838396D01*
X21464191Y-65794191D01*
X21508396Y-65728034D01*
X21508397Y-65728033D01*
X21519999Y-65669702D01*
X21520000Y-65669699D01*
X21520000Y-64957172D01*
X21539685Y-64890133D01*
X21592489Y-64844378D01*
X21661647Y-64834434D01*
X21725203Y-64863459D01*
X21762977Y-64922237D01*
X21767527Y-64946364D01*
X21773081Y-65009844D01*
X21773793Y-65017975D01*
X21773793Y-65017979D01*
X21830422Y-65229322D01*
X21830424Y-65229326D01*
X21830425Y-65229330D01*
X21852382Y-65276416D01*
X21922897Y-65427638D01*
X21922898Y-65427639D01*
X22048402Y-65606877D01*
X22203123Y-65761598D01*
X22382361Y-65887102D01*
X22580670Y-65979575D01*
X22792023Y-66036207D01*
X22974926Y-66052208D01*
X23009998Y-66055277D01*
X23010000Y-66055277D01*
X23010002Y-66055277D01*
X23038254Y-66052805D01*
X23227977Y-66036207D01*
X23439330Y-65979575D01*
X23637639Y-65887102D01*
X23816877Y-65761598D01*
X23971598Y-65606877D01*
X24097102Y-65427639D01*
X24167618Y-65276414D01*
X24213790Y-65223977D01*
X24280984Y-65204825D01*
X24347865Y-65225041D01*
X24392381Y-65276414D01*
X24462898Y-65427639D01*
X24588402Y-65606877D01*
X24743123Y-65761598D01*
X24922361Y-65887102D01*
X25120670Y-65979575D01*
X25332023Y-66036207D01*
X25514926Y-66052208D01*
X25549998Y-66055277D01*
X25550000Y-66055277D01*
X25550002Y-66055277D01*
X25578254Y-66052805D01*
X25767977Y-66036207D01*
X25979330Y-65979575D01*
X26116308Y-65915701D01*
X27799500Y-65915701D01*
X27802401Y-65952567D01*
X27802402Y-65952573D01*
X27848254Y-66110393D01*
X27848255Y-66110396D01*
X27931917Y-66251862D01*
X27931923Y-66251870D01*
X28048129Y-66368076D01*
X28048133Y-66368079D01*
X28048135Y-66368081D01*
X28189602Y-66451744D01*
X28231224Y-66463836D01*
X28347426Y-66497597D01*
X28347429Y-66497597D01*
X28347431Y-66497598D01*
X28384306Y-66500500D01*
X28384314Y-66500500D01*
X29215686Y-66500500D01*
X29215694Y-66500500D01*
X29252569Y-66497598D01*
X29252571Y-66497597D01*
X29252573Y-66497597D01*
X29328630Y-66475500D01*
X29410398Y-66451744D01*
X29551865Y-66368081D01*
X29668081Y-66251865D01*
X29751744Y-66110398D01*
X29797598Y-65952569D01*
X29800499Y-65915701D01*
X33399500Y-65915701D01*
X33402401Y-65952567D01*
X33402402Y-65952573D01*
X33448254Y-66110393D01*
X33448255Y-66110396D01*
X33531917Y-66251862D01*
X33531923Y-66251870D01*
X33648129Y-66368076D01*
X33648133Y-66368079D01*
X33648135Y-66368081D01*
X33789602Y-66451744D01*
X33831224Y-66463836D01*
X33947426Y-66497597D01*
X33947429Y-66497597D01*
X33947431Y-66497598D01*
X33984306Y-66500500D01*
X33984314Y-66500500D01*
X34815686Y-66500500D01*
X34815694Y-66500500D01*
X34852569Y-66497598D01*
X34852571Y-66497597D01*
X34852573Y-66497597D01*
X34928630Y-66475500D01*
X35010398Y-66451744D01*
X35151865Y-66368081D01*
X35268081Y-66251865D01*
X35351744Y-66110398D01*
X35397598Y-65952569D01*
X35400499Y-65915701D01*
X35899500Y-65915701D01*
X35902401Y-65952567D01*
X35902402Y-65952573D01*
X35948254Y-66110393D01*
X35948255Y-66110396D01*
X36031917Y-66251862D01*
X36031923Y-66251870D01*
X36148129Y-66368076D01*
X36148133Y-66368079D01*
X36148135Y-66368081D01*
X36289602Y-66451744D01*
X36331224Y-66463836D01*
X36447426Y-66497597D01*
X36447429Y-66497597D01*
X36447431Y-66497598D01*
X36484306Y-66500500D01*
X36484314Y-66500500D01*
X37315686Y-66500500D01*
X37315694Y-66500500D01*
X37352569Y-66497598D01*
X37352571Y-66497597D01*
X37352573Y-66497597D01*
X37428630Y-66475500D01*
X37510398Y-66451744D01*
X37651865Y-66368081D01*
X37768081Y-66251865D01*
X37851744Y-66110398D01*
X37897598Y-65952569D01*
X37900499Y-65915701D01*
X41499500Y-65915701D01*
X41502401Y-65952567D01*
X41502402Y-65952573D01*
X41548254Y-66110393D01*
X41548255Y-66110396D01*
X41631917Y-66251862D01*
X41631923Y-66251870D01*
X41748129Y-66368076D01*
X41748133Y-66368079D01*
X41748135Y-66368081D01*
X41889602Y-66451744D01*
X41931224Y-66463836D01*
X42047426Y-66497597D01*
X42047429Y-66497597D01*
X42047431Y-66497598D01*
X42084306Y-66500500D01*
X42084314Y-66500500D01*
X42915686Y-66500500D01*
X42915694Y-66500500D01*
X42952569Y-66497598D01*
X42952571Y-66497597D01*
X42952573Y-66497597D01*
X43028630Y-66475500D01*
X43110398Y-66451744D01*
X43251865Y-66368081D01*
X43368081Y-66251865D01*
X43451744Y-66110398D01*
X43497598Y-65952569D01*
X43500500Y-65915694D01*
X43500500Y-64484306D01*
X43497598Y-64447431D01*
X43490333Y-64422426D01*
X43451745Y-64289606D01*
X43451744Y-64289603D01*
X43451744Y-64289602D01*
X43368081Y-64148135D01*
X43368079Y-64148133D01*
X43368076Y-64148129D01*
X43251870Y-64031923D01*
X43251862Y-64031917D01*
X43110396Y-63948255D01*
X43110393Y-63948254D01*
X42952573Y-63902402D01*
X42952567Y-63902401D01*
X42915701Y-63899500D01*
X42915694Y-63899500D01*
X42084306Y-63899500D01*
X42084298Y-63899500D01*
X42047432Y-63902401D01*
X42047426Y-63902402D01*
X41889606Y-63948254D01*
X41889603Y-63948255D01*
X41748137Y-64031917D01*
X41748129Y-64031923D01*
X41631923Y-64148129D01*
X41631917Y-64148137D01*
X41548255Y-64289603D01*
X41548254Y-64289606D01*
X41502402Y-64447426D01*
X41502401Y-64447432D01*
X41499500Y-64484298D01*
X41499500Y-65915701D01*
X37900499Y-65915701D01*
X37900500Y-65915694D01*
X37900500Y-64484306D01*
X37897598Y-64447431D01*
X37890333Y-64422426D01*
X37851745Y-64289606D01*
X37851744Y-64289603D01*
X37851744Y-64289602D01*
X37768081Y-64148135D01*
X37768079Y-64148133D01*
X37768076Y-64148129D01*
X37651870Y-64031923D01*
X37651862Y-64031917D01*
X37510396Y-63948255D01*
X37510393Y-63948254D01*
X37352573Y-63902402D01*
X37352567Y-63902401D01*
X37315701Y-63899500D01*
X37315694Y-63899500D01*
X36484306Y-63899500D01*
X36484298Y-63899500D01*
X36447432Y-63902401D01*
X36447426Y-63902402D01*
X36289606Y-63948254D01*
X36289603Y-63948255D01*
X36148137Y-64031917D01*
X36148129Y-64031923D01*
X36031923Y-64148129D01*
X36031917Y-64148137D01*
X35948255Y-64289603D01*
X35948254Y-64289606D01*
X35902402Y-64447426D01*
X35902401Y-64447432D01*
X35899500Y-64484298D01*
X35899500Y-65915701D01*
X35400499Y-65915701D01*
X35400500Y-65915694D01*
X35400500Y-64484306D01*
X35397598Y-64447431D01*
X35390333Y-64422426D01*
X35351745Y-64289606D01*
X35351744Y-64289603D01*
X35351744Y-64289602D01*
X35268081Y-64148135D01*
X35268079Y-64148133D01*
X35268076Y-64148129D01*
X35151870Y-64031923D01*
X35151862Y-64031917D01*
X35010396Y-63948255D01*
X35010393Y-63948254D01*
X34852573Y-63902402D01*
X34852567Y-63902401D01*
X34815701Y-63899500D01*
X34815694Y-63899500D01*
X33984306Y-63899500D01*
X33984298Y-63899500D01*
X33947432Y-63902401D01*
X33947426Y-63902402D01*
X33789606Y-63948254D01*
X33789603Y-63948255D01*
X33648137Y-64031917D01*
X33648129Y-64031923D01*
X33531923Y-64148129D01*
X33531917Y-64148137D01*
X33448255Y-64289603D01*
X33448254Y-64289606D01*
X33402402Y-64447426D01*
X33402401Y-64447432D01*
X33399500Y-64484298D01*
X33399500Y-65915701D01*
X29800499Y-65915701D01*
X29800500Y-65915694D01*
X29800500Y-64484306D01*
X29797598Y-64447431D01*
X29790333Y-64422426D01*
X29751745Y-64289606D01*
X29751744Y-64289603D01*
X29751744Y-64289602D01*
X29668081Y-64148135D01*
X29668079Y-64148133D01*
X29668076Y-64148129D01*
X29551870Y-64031923D01*
X29551862Y-64031917D01*
X29410396Y-63948255D01*
X29410393Y-63948254D01*
X29252573Y-63902402D01*
X29252567Y-63902401D01*
X29215701Y-63899500D01*
X29215694Y-63899500D01*
X28384306Y-63899500D01*
X28384298Y-63899500D01*
X28347432Y-63902401D01*
X28347426Y-63902402D01*
X28189606Y-63948254D01*
X28189603Y-63948255D01*
X28048137Y-64031917D01*
X28048129Y-64031923D01*
X27931923Y-64148129D01*
X27931917Y-64148137D01*
X27848255Y-64289603D01*
X27848254Y-64289606D01*
X27802402Y-64447426D01*
X27802401Y-64447432D01*
X27799500Y-64484298D01*
X27799500Y-65915701D01*
X26116308Y-65915701D01*
X26177639Y-65887102D01*
X26356877Y-65761598D01*
X26511598Y-65606877D01*
X26637102Y-65427639D01*
X26729575Y-65229330D01*
X26786207Y-65017977D01*
X26805277Y-64800000D01*
X26786207Y-64582023D01*
X26729575Y-64370670D01*
X26637102Y-64172362D01*
X26637100Y-64172359D01*
X26637099Y-64172357D01*
X26511599Y-63993124D01*
X26441729Y-63923254D01*
X26356877Y-63838402D01*
X26218978Y-63741844D01*
X26177638Y-63712897D01*
X26045342Y-63651207D01*
X25979330Y-63620425D01*
X25979326Y-63620424D01*
X25979322Y-63620422D01*
X25767977Y-63563793D01*
X25550002Y-63544723D01*
X25549998Y-63544723D01*
X25432187Y-63555030D01*
X25332023Y-63563793D01*
X25332020Y-63563793D01*
X25120677Y-63620422D01*
X25120670Y-63620424D01*
X25120670Y-63620425D01*
X25109787Y-63625500D01*
X24922361Y-63712898D01*
X24922357Y-63712900D01*
X24743121Y-63838402D01*
X24588402Y-63993121D01*
X24462900Y-64172357D01*
X24462898Y-64172361D01*
X24392382Y-64323583D01*
X24346209Y-64376022D01*
X24279016Y-64395174D01*
X24212135Y-64374958D01*
X24167618Y-64323583D01*
X24140114Y-64264602D01*
X24097102Y-64172362D01*
X24097100Y-64172359D01*
X24097099Y-64172357D01*
X23971599Y-63993124D01*
X23901729Y-63923254D01*
X23816877Y-63838402D01*
X23678978Y-63741844D01*
X23637638Y-63712897D01*
X23505342Y-63651207D01*
X23439330Y-63620425D01*
X23439326Y-63620424D01*
X23439322Y-63620422D01*
X23227977Y-63563793D01*
X23010002Y-63544723D01*
X23009998Y-63544723D01*
X22892187Y-63555030D01*
X22792023Y-63563793D01*
X22792020Y-63563793D01*
X22580677Y-63620422D01*
X22580670Y-63620424D01*
X22580670Y-63620425D01*
X22569787Y-63625500D01*
X22382361Y-63712898D01*
X22382357Y-63712900D01*
X22203121Y-63838402D01*
X22048402Y-63993121D01*
X21922900Y-64172357D01*
X21922898Y-64172361D01*
X21830426Y-64370668D01*
X21830422Y-64370677D01*
X21773793Y-64582020D01*
X21773793Y-64582023D01*
X21770253Y-64622489D01*
X21767528Y-64653634D01*
X21742076Y-64718703D01*
X21685485Y-64759682D01*
X21615723Y-64763560D01*
X21554939Y-64729106D01*
X21522431Y-64667259D01*
X21520000Y-64642827D01*
X21520000Y-63930301D01*
X21519999Y-63930297D01*
X21508397Y-63871966D01*
X21508396Y-63871965D01*
X21464191Y-63805808D01*
X21398034Y-63761603D01*
X21398033Y-63761602D01*
X21339702Y-63750000D01*
X20720000Y-63750000D01*
X20720000Y-64364498D01*
X20612315Y-64315320D01*
X20505763Y-64300000D01*
X20434237Y-64300000D01*
X20327685Y-64315320D01*
X20220000Y-64364498D01*
X20220000Y-63750000D01*
X19600297Y-63750000D01*
X19541966Y-63761602D01*
X19541965Y-63761603D01*
X19475808Y-63805808D01*
X19431603Y-63871965D01*
X19431602Y-63871966D01*
X19420000Y-63930297D01*
X19420000Y-64550000D01*
X20036314Y-64550000D01*
X20010507Y-64590156D01*
X19970000Y-64728111D01*
X19970000Y-64871889D01*
X20010507Y-65009844D01*
X20036314Y-65050000D01*
X19420000Y-65050000D01*
X19420000Y-65669702D01*
X18371450Y-65669702D01*
X18431121Y-65525644D01*
X18527527Y-65191013D01*
X18585859Y-64847693D01*
X18605385Y-64500000D01*
X18585859Y-64152307D01*
X18527527Y-63808987D01*
X18431121Y-63474356D01*
X18297855Y-63152624D01*
X18129405Y-62847836D01*
X17927888Y-62563824D01*
X17695839Y-62304161D01*
X17436176Y-62072112D01*
X17152164Y-61870595D01*
X16847376Y-61702145D01*
X16525644Y-61568879D01*
X16225231Y-61482331D01*
X16191017Y-61472474D01*
X16191009Y-61472472D01*
X15847700Y-61414142D01*
X15847688Y-61414140D01*
X15500000Y-61394615D01*
X15152311Y-61414140D01*
X15152299Y-61414142D01*
X14808990Y-61472472D01*
X14808982Y-61472474D01*
X14521437Y-61555315D01*
X14474356Y-61568879D01*
X14405976Y-61597203D01*
X14152625Y-61702144D01*
X13847835Y-61870595D01*
X13701395Y-61974500D01*
X13563824Y-62072112D01*
X13304161Y-62304161D01*
X13072112Y-62563824D01*
X13030746Y-62622124D01*
X12870595Y-62847835D01*
X12702144Y-63152625D01*
X12628272Y-63330968D01*
X12573288Y-63463713D01*
X12568878Y-63474359D01*
X12472474Y-63808982D01*
X12472472Y-63808990D01*
X12414142Y-64152299D01*
X12414140Y-64152311D01*
X12394615Y-64500000D01*
X12000500Y-64500000D01*
X12000500Y-38391111D01*
X12769869Y-38391111D01*
X12772697Y-38407511D01*
X12774500Y-38428580D01*
X12774500Y-58588890D01*
X12774428Y-58593123D01*
X12772340Y-58654250D01*
X12781556Y-58692068D01*
X12783927Y-58704540D01*
X12789228Y-58743109D01*
X12795864Y-58758387D01*
X12802602Y-58778424D01*
X12806542Y-58794593D01*
X12806543Y-58794594D01*
X12825618Y-58828520D01*
X12831266Y-58839890D01*
X12846782Y-58875612D01*
X12857283Y-58888518D01*
X12869182Y-58906000D01*
X12877342Y-58920512D01*
X12904878Y-58948048D01*
X12913377Y-58957466D01*
X12937943Y-58987662D01*
X12937944Y-58987663D01*
X12937946Y-58987665D01*
X12951544Y-58997264D01*
X12967715Y-59010885D01*
X14220558Y-60263728D01*
X14223499Y-60266771D01*
X14240868Y-60285368D01*
X14265245Y-60311469D01*
X14298499Y-60331691D01*
X14308990Y-60338830D01*
X14340025Y-60362365D01*
X14340028Y-60362366D01*
X14340028Y-60362367D01*
X14355509Y-60368471D01*
X14374451Y-60377878D01*
X14388672Y-60386526D01*
X14426160Y-60397029D01*
X14438184Y-60401072D01*
X14474411Y-60415359D01*
X14490977Y-60417061D01*
X14511741Y-60421008D01*
X14527772Y-60425500D01*
X14566696Y-60425500D01*
X14579376Y-60426150D01*
X14582275Y-60426447D01*
X14618110Y-60430132D01*
X14634518Y-60427303D01*
X14655586Y-60425500D01*
X25030968Y-60425500D01*
X25098007Y-60445185D01*
X25118649Y-60461819D01*
X28120544Y-63463713D01*
X28123486Y-63466757D01*
X28165243Y-63511468D01*
X28198501Y-63531692D01*
X28208998Y-63538836D01*
X28232897Y-63556959D01*
X28240025Y-63562364D01*
X28247945Y-63565487D01*
X28255512Y-63568471D01*
X28274452Y-63577878D01*
X28281042Y-63581886D01*
X28288668Y-63586524D01*
X28288669Y-63586524D01*
X28288672Y-63586526D01*
X28326171Y-63597032D01*
X28338185Y-63601073D01*
X28374410Y-63615359D01*
X28390977Y-63617061D01*
X28411741Y-63621008D01*
X28427772Y-63625500D01*
X28466703Y-63625500D01*
X28479382Y-63626150D01*
X28484427Y-63626668D01*
X28518109Y-63630131D01*
X28534513Y-63627302D01*
X28555579Y-63625500D01*
X44494299Y-63625500D01*
X44561338Y-63645185D01*
X44607093Y-63697989D01*
X44617037Y-63767147D01*
X44597401Y-63818391D01*
X44561603Y-63871965D01*
X44561602Y-63871966D01*
X44550000Y-63930297D01*
X44550000Y-64550000D01*
X45166314Y-64550000D01*
X45140507Y-64590156D01*
X45100000Y-64728111D01*
X45100000Y-64871889D01*
X45140507Y-65009844D01*
X45166314Y-65050000D01*
X44550000Y-65050000D01*
X44550000Y-65669702D01*
X44561602Y-65728033D01*
X44561603Y-65728034D01*
X44605808Y-65794191D01*
X44671965Y-65838396D01*
X44671966Y-65838397D01*
X44730297Y-65849999D01*
X44730301Y-65850000D01*
X45350000Y-65850000D01*
X45350000Y-65235501D01*
X45457685Y-65284680D01*
X45564237Y-65300000D01*
X45635763Y-65300000D01*
X45742315Y-65284680D01*
X45850000Y-65235501D01*
X45850000Y-65850000D01*
X46469699Y-65850000D01*
X46469702Y-65849999D01*
X46528033Y-65838397D01*
X46528034Y-65838396D01*
X46594191Y-65794191D01*
X46638396Y-65728034D01*
X46638397Y-65728033D01*
X46649999Y-65669702D01*
X46650000Y-65669699D01*
X46650000Y-64957172D01*
X46669685Y-64890133D01*
X46722489Y-64844378D01*
X46791647Y-64834434D01*
X46855203Y-64863459D01*
X46892977Y-64922237D01*
X46897527Y-64946364D01*
X46903081Y-65009844D01*
X46903793Y-65017975D01*
X46903793Y-65017979D01*
X46960422Y-65229322D01*
X46960424Y-65229326D01*
X46960425Y-65229330D01*
X46982382Y-65276416D01*
X47052897Y-65427638D01*
X47052898Y-65427639D01*
X47178402Y-65606877D01*
X47333123Y-65761598D01*
X47512361Y-65887102D01*
X47710670Y-65979575D01*
X47922023Y-66036207D01*
X48104926Y-66052208D01*
X48139998Y-66055277D01*
X48140000Y-66055277D01*
X48140002Y-66055277D01*
X48168254Y-66052805D01*
X48357977Y-66036207D01*
X48569330Y-65979575D01*
X48759921Y-65890701D01*
X50199500Y-65890701D01*
X50202401Y-65927567D01*
X50202402Y-65927573D01*
X50248254Y-66085393D01*
X50248255Y-66085396D01*
X50331917Y-66226862D01*
X50331923Y-66226870D01*
X50448129Y-66343076D01*
X50448133Y-66343079D01*
X50448135Y-66343081D01*
X50589602Y-66426744D01*
X50622067Y-66436176D01*
X50747426Y-66472597D01*
X50747429Y-66472597D01*
X50747431Y-66472598D01*
X50784306Y-66475500D01*
X50784314Y-66475500D01*
X51615686Y-66475500D01*
X51615694Y-66475500D01*
X51652569Y-66472598D01*
X51652571Y-66472597D01*
X51652573Y-66472597D01*
X51694191Y-66460505D01*
X51810398Y-66426744D01*
X51951865Y-66343081D01*
X52068081Y-66226865D01*
X52151744Y-66085398D01*
X52197598Y-65927569D01*
X52200499Y-65890701D01*
X55799500Y-65890701D01*
X55802401Y-65927567D01*
X55802402Y-65927573D01*
X55848254Y-66085393D01*
X55848255Y-66085396D01*
X55931917Y-66226862D01*
X55931923Y-66226870D01*
X56048129Y-66343076D01*
X56048133Y-66343079D01*
X56048135Y-66343081D01*
X56189602Y-66426744D01*
X56222067Y-66436176D01*
X56347426Y-66472597D01*
X56347429Y-66472597D01*
X56347431Y-66472598D01*
X56384306Y-66475500D01*
X56384314Y-66475500D01*
X57215686Y-66475500D01*
X57215694Y-66475500D01*
X57252569Y-66472598D01*
X57252571Y-66472597D01*
X57252573Y-66472597D01*
X57294191Y-66460505D01*
X57410398Y-66426744D01*
X57551865Y-66343081D01*
X57668081Y-66226865D01*
X57751744Y-66085398D01*
X57797598Y-65927569D01*
X57800499Y-65890701D01*
X58199500Y-65890701D01*
X58202401Y-65927567D01*
X58202402Y-65927573D01*
X58248254Y-66085393D01*
X58248255Y-66085396D01*
X58331917Y-66226862D01*
X58331923Y-66226870D01*
X58448129Y-66343076D01*
X58448133Y-66343079D01*
X58448135Y-66343081D01*
X58589602Y-66426744D01*
X58622067Y-66436176D01*
X58747426Y-66472597D01*
X58747429Y-66472597D01*
X58747431Y-66472598D01*
X58784306Y-66475500D01*
X58784314Y-66475500D01*
X59615686Y-66475500D01*
X59615694Y-66475500D01*
X59652569Y-66472598D01*
X59652571Y-66472597D01*
X59652573Y-66472597D01*
X59694191Y-66460505D01*
X59810398Y-66426744D01*
X59951865Y-66343081D01*
X60068081Y-66226865D01*
X60151744Y-66085398D01*
X60197598Y-65927569D01*
X60200499Y-65890701D01*
X63799500Y-65890701D01*
X63802401Y-65927567D01*
X63802402Y-65927573D01*
X63848254Y-66085393D01*
X63848255Y-66085396D01*
X63931917Y-66226862D01*
X63931923Y-66226870D01*
X64048129Y-66343076D01*
X64048133Y-66343079D01*
X64048135Y-66343081D01*
X64189602Y-66426744D01*
X64222067Y-66436176D01*
X64347426Y-66472597D01*
X64347429Y-66472597D01*
X64347431Y-66472598D01*
X64384306Y-66475500D01*
X64384314Y-66475500D01*
X65215686Y-66475500D01*
X65215694Y-66475500D01*
X65252569Y-66472598D01*
X65252571Y-66472597D01*
X65252573Y-66472597D01*
X65294191Y-66460505D01*
X65410398Y-66426744D01*
X65551865Y-66343081D01*
X65668081Y-66226865D01*
X65751744Y-66085398D01*
X65797598Y-65927569D01*
X65800500Y-65890694D01*
X65800500Y-64459306D01*
X65797598Y-64422431D01*
X65782559Y-64370668D01*
X65759008Y-64289606D01*
X65751744Y-64264602D01*
X65668081Y-64123135D01*
X65668079Y-64123133D01*
X65668076Y-64123129D01*
X65551870Y-64006923D01*
X65551862Y-64006917D01*
X65422310Y-63930301D01*
X65410398Y-63923256D01*
X65410397Y-63923255D01*
X65410396Y-63923255D01*
X65410393Y-63923254D01*
X65252573Y-63877402D01*
X65252567Y-63877401D01*
X65215701Y-63874500D01*
X65215694Y-63874500D01*
X64384306Y-63874500D01*
X64384298Y-63874500D01*
X64347432Y-63877401D01*
X64347426Y-63877402D01*
X64189606Y-63923254D01*
X64189603Y-63923255D01*
X64048137Y-64006917D01*
X64048129Y-64006923D01*
X63931923Y-64123129D01*
X63931917Y-64123137D01*
X63848255Y-64264603D01*
X63848254Y-64264606D01*
X63802402Y-64422426D01*
X63802401Y-64422432D01*
X63799500Y-64459298D01*
X63799500Y-65890701D01*
X60200499Y-65890701D01*
X60200500Y-65890694D01*
X60200500Y-64459306D01*
X60197598Y-64422431D01*
X60182559Y-64370668D01*
X60159008Y-64289606D01*
X60151744Y-64264602D01*
X60068081Y-64123135D01*
X60068079Y-64123133D01*
X60068076Y-64123129D01*
X59951870Y-64006923D01*
X59951862Y-64006917D01*
X59822310Y-63930301D01*
X59810398Y-63923256D01*
X59810397Y-63923255D01*
X59810396Y-63923255D01*
X59810393Y-63923254D01*
X59652573Y-63877402D01*
X59652567Y-63877401D01*
X59615701Y-63874500D01*
X59615694Y-63874500D01*
X58784306Y-63874500D01*
X58784298Y-63874500D01*
X58747432Y-63877401D01*
X58747426Y-63877402D01*
X58589606Y-63923254D01*
X58589603Y-63923255D01*
X58448137Y-64006917D01*
X58448129Y-64006923D01*
X58331923Y-64123129D01*
X58331917Y-64123137D01*
X58248255Y-64264603D01*
X58248254Y-64264606D01*
X58202402Y-64422426D01*
X58202401Y-64422432D01*
X58199500Y-64459298D01*
X58199500Y-65890701D01*
X57800499Y-65890701D01*
X57800500Y-65890694D01*
X57800500Y-64459306D01*
X57797598Y-64422431D01*
X57782559Y-64370668D01*
X57759008Y-64289606D01*
X57751744Y-64264602D01*
X57668081Y-64123135D01*
X57668079Y-64123133D01*
X57668076Y-64123129D01*
X57551870Y-64006923D01*
X57551862Y-64006917D01*
X57422310Y-63930301D01*
X57410398Y-63923256D01*
X57410397Y-63923255D01*
X57410396Y-63923255D01*
X57410393Y-63923254D01*
X57252573Y-63877402D01*
X57252567Y-63877401D01*
X57215701Y-63874500D01*
X57215694Y-63874500D01*
X56384306Y-63874500D01*
X56384298Y-63874500D01*
X56347432Y-63877401D01*
X56347426Y-63877402D01*
X56189606Y-63923254D01*
X56189603Y-63923255D01*
X56048137Y-64006917D01*
X56048129Y-64006923D01*
X55931923Y-64123129D01*
X55931917Y-64123137D01*
X55848255Y-64264603D01*
X55848254Y-64264606D01*
X55802402Y-64422426D01*
X55802401Y-64422432D01*
X55799500Y-64459298D01*
X55799500Y-65890701D01*
X52200499Y-65890701D01*
X52200500Y-65890694D01*
X52200500Y-64459306D01*
X52197598Y-64422431D01*
X52182559Y-64370668D01*
X52159008Y-64289606D01*
X52151744Y-64264602D01*
X52068081Y-64123135D01*
X52068079Y-64123133D01*
X52068076Y-64123129D01*
X51951870Y-64006923D01*
X51951862Y-64006917D01*
X51822310Y-63930301D01*
X51810398Y-63923256D01*
X51810397Y-63923255D01*
X51810396Y-63923255D01*
X51810393Y-63923254D01*
X51652573Y-63877402D01*
X51652567Y-63877401D01*
X51615701Y-63874500D01*
X51615694Y-63874500D01*
X50784306Y-63874500D01*
X50784298Y-63874500D01*
X50747432Y-63877401D01*
X50747426Y-63877402D01*
X50589606Y-63923254D01*
X50589603Y-63923255D01*
X50448137Y-64006917D01*
X50448129Y-64006923D01*
X50331923Y-64123129D01*
X50331917Y-64123137D01*
X50248255Y-64264603D01*
X50248254Y-64264606D01*
X50202402Y-64422426D01*
X50202401Y-64422432D01*
X50199500Y-64459298D01*
X50199500Y-65890701D01*
X48759921Y-65890701D01*
X48767639Y-65887102D01*
X48946877Y-65761598D01*
X49101598Y-65606877D01*
X49227102Y-65427639D01*
X49319575Y-65229330D01*
X49376207Y-65017977D01*
X49395277Y-64800000D01*
X49376207Y-64582023D01*
X49319575Y-64370670D01*
X49227102Y-64172362D01*
X49227100Y-64172359D01*
X49227099Y-64172357D01*
X49101599Y-63993124D01*
X49031729Y-63923254D01*
X48946877Y-63838402D01*
X48808978Y-63741844D01*
X48767638Y-63712897D01*
X48635342Y-63651207D01*
X48569330Y-63620425D01*
X48569326Y-63620424D01*
X48569322Y-63620422D01*
X48357977Y-63563793D01*
X48140002Y-63544723D01*
X48139996Y-63544723D01*
X48057727Y-63551919D01*
X47989227Y-63538151D01*
X47959241Y-63516072D01*
X47179440Y-62736271D01*
X47176498Y-62733227D01*
X47134753Y-62688529D01*
X47134751Y-62688528D01*
X47101489Y-62668301D01*
X47090991Y-62661156D01*
X47059976Y-62637636D01*
X47048161Y-62632977D01*
X47044485Y-62631527D01*
X47025553Y-62622124D01*
X47011329Y-62613474D01*
X46973842Y-62602970D01*
X46961813Y-62598925D01*
X46925591Y-62584641D01*
X46925583Y-62584640D01*
X46909022Y-62582937D01*
X46888255Y-62578990D01*
X46872231Y-62574500D01*
X46872228Y-62574500D01*
X46833296Y-62574500D01*
X46820617Y-62573850D01*
X46781892Y-62569869D01*
X46781888Y-62569869D01*
X46772576Y-62571474D01*
X46765485Y-62572697D01*
X46744420Y-62574500D01*
X41806277Y-62574500D01*
X41739238Y-62554815D01*
X41693483Y-62502011D01*
X41683539Y-62432853D01*
X41712564Y-62369297D01*
X41731353Y-62351695D01*
X41742922Y-62342922D01*
X41834361Y-62222342D01*
X41889877Y-62081564D01*
X41900500Y-61993102D01*
X41900500Y-61974500D01*
X41920185Y-61907461D01*
X41972989Y-61861706D01*
X42024500Y-61850500D01*
X43163890Y-61850500D01*
X43168122Y-61850572D01*
X43171352Y-61850682D01*
X43229245Y-61852660D01*
X43267070Y-61843441D01*
X43279513Y-61841075D01*
X43318111Y-61835771D01*
X43333386Y-61829135D01*
X43353421Y-61822397D01*
X43369594Y-61818457D01*
X43403531Y-61799374D01*
X43414879Y-61793737D01*
X43444737Y-61780769D01*
X43450605Y-61778221D01*
X43450605Y-61778220D01*
X43450609Y-61778219D01*
X43463528Y-61767707D01*
X43480997Y-61755818D01*
X43495512Y-61747658D01*
X43523052Y-61720116D01*
X43532457Y-61711628D01*
X43562665Y-61687054D01*
X43572264Y-61673453D01*
X43585881Y-61657287D01*
X43693168Y-61550000D01*
X52000001Y-61550000D01*
X52000001Y-61958217D01*
X52009912Y-62026249D01*
X52061215Y-62131191D01*
X52143808Y-62213784D01*
X52248755Y-62265089D01*
X52250000Y-62265269D01*
X52250000Y-61550000D01*
X52000001Y-61550000D01*
X43693168Y-61550000D01*
X43911825Y-61331343D01*
X43973146Y-61297860D01*
X44013388Y-61295806D01*
X44099998Y-61305565D01*
X44100000Y-61305565D01*
X44100004Y-61305565D01*
X44279249Y-61285369D01*
X44279252Y-61285368D01*
X44279255Y-61285368D01*
X44449522Y-61225789D01*
X44602262Y-61129816D01*
X44682078Y-61050000D01*
X52000000Y-61050000D01*
X52250000Y-61050000D01*
X52250000Y-60334730D01*
X52249999Y-60334729D01*
X52248750Y-60334911D01*
X52143811Y-60386212D01*
X52061212Y-60468811D01*
X52009912Y-60573748D01*
X52009911Y-60573751D01*
X52000000Y-60641780D01*
X52000000Y-61050000D01*
X44682078Y-61050000D01*
X44729816Y-61002262D01*
X44825789Y-60849522D01*
X44885368Y-60679255D01*
X44889207Y-60645185D01*
X44905565Y-60500003D01*
X44905565Y-60499996D01*
X44885369Y-60320750D01*
X44885368Y-60320745D01*
X44852952Y-60228105D01*
X44825789Y-60150478D01*
X44825174Y-60149500D01*
X44770406Y-60062336D01*
X44729816Y-59997738D01*
X44602262Y-59870184D01*
X44602260Y-59870183D01*
X44449523Y-59774211D01*
X44279254Y-59714631D01*
X44279249Y-59714630D01*
X44100004Y-59694435D01*
X44099996Y-59694435D01*
X43920750Y-59714630D01*
X43920745Y-59714631D01*
X43750476Y-59774211D01*
X43597739Y-59870183D01*
X43534840Y-59933082D01*
X43473516Y-59966566D01*
X43403825Y-59961581D01*
X43347891Y-59919710D01*
X43330117Y-59886354D01*
X43313136Y-59837825D01*
X43284478Y-59792216D01*
X43217163Y-59685085D01*
X43089609Y-59557531D01*
X43053387Y-59534771D01*
X42936870Y-59461558D01*
X42766601Y-59401978D01*
X42766596Y-59401977D01*
X42587351Y-59381782D01*
X42587343Y-59381782D01*
X42408097Y-59401977D01*
X42408092Y-59401978D01*
X42237823Y-59461558D01*
X42085084Y-59557531D01*
X42017088Y-59625528D01*
X41955765Y-59659013D01*
X41929407Y-59661847D01*
X40897855Y-59661847D01*
X40893622Y-59661775D01*
X40885266Y-59661489D01*
X40832500Y-59659687D01*
X40832499Y-59659687D01*
X40832496Y-59659687D01*
X40794677Y-59668903D01*
X40782209Y-59671273D01*
X40743632Y-59676576D01*
X40728356Y-59683211D01*
X40708330Y-59689946D01*
X40692152Y-59693889D01*
X40692150Y-59693890D01*
X40658223Y-59712966D01*
X40646856Y-59718611D01*
X40611140Y-59734125D01*
X40611136Y-59734127D01*
X40598216Y-59744639D01*
X40580736Y-59756535D01*
X40566235Y-59764688D01*
X40566231Y-59764691D01*
X40538705Y-59792216D01*
X40529285Y-59800717D01*
X40499080Y-59825292D01*
X40489473Y-59838901D01*
X40475854Y-59855067D01*
X40217740Y-60113182D01*
X40156420Y-60146666D01*
X40130061Y-60149500D01*
X40006898Y-60149500D01*
X39943710Y-60157087D01*
X39918434Y-60160123D01*
X39894988Y-60169369D01*
X39825401Y-60175650D01*
X39763466Y-60143312D01*
X39728845Y-60082623D01*
X39725500Y-60054014D01*
X39725500Y-56069032D01*
X39745185Y-56001993D01*
X39761819Y-55981351D01*
X39931351Y-55811819D01*
X39992674Y-55778334D01*
X40019032Y-55775500D01*
X42906448Y-55775500D01*
X44556448Y-55775500D01*
X45056448Y-55775500D01*
X46656448Y-55775500D01*
X47856448Y-55775500D01*
X48256448Y-55775500D01*
X49406448Y-55775500D01*
X50556448Y-55775500D01*
X52656448Y-55775500D01*
X53156448Y-55775500D01*
X54592292Y-55775500D01*
X54659331Y-55795185D01*
X54705086Y-55847989D01*
X54714538Y-55913726D01*
X54715411Y-55913825D01*
X54694435Y-56099996D01*
X54694435Y-56100003D01*
X54714630Y-56279249D01*
X54714631Y-56279254D01*
X54774211Y-56449523D01*
X54870184Y-56602262D01*
X54938181Y-56670259D01*
X54971666Y-56731582D01*
X54974500Y-56757940D01*
X54974500Y-59331968D01*
X54954815Y-59399007D01*
X54902011Y-59444762D01*
X54832853Y-59454706D01*
X54769297Y-59425681D01*
X54762819Y-59419649D01*
X53854440Y-58511271D01*
X53851498Y-58508227D01*
X53809753Y-58463529D01*
X53809751Y-58463528D01*
X53776489Y-58443301D01*
X53765991Y-58436156D01*
X53734976Y-58412636D01*
X53726406Y-58409256D01*
X53719485Y-58406527D01*
X53700553Y-58397124D01*
X53686329Y-58388474D01*
X53648842Y-58377970D01*
X53636813Y-58373925D01*
X53600591Y-58359641D01*
X53600583Y-58359640D01*
X53584022Y-58357937D01*
X53563255Y-58353990D01*
X53547231Y-58349500D01*
X53547228Y-58349500D01*
X53508296Y-58349500D01*
X53495617Y-58348850D01*
X53456892Y-58344869D01*
X53456888Y-58344869D01*
X53447576Y-58346474D01*
X53440485Y-58347697D01*
X53419420Y-58349500D01*
X50857940Y-58349500D01*
X50790901Y-58329815D01*
X50770259Y-58313181D01*
X50702262Y-58245184D01*
X50549523Y-58149211D01*
X50379254Y-58089631D01*
X50379249Y-58089630D01*
X50200004Y-58069435D01*
X50199996Y-58069435D01*
X50020750Y-58089630D01*
X50020745Y-58089631D01*
X49850476Y-58149211D01*
X49697737Y-58245184D01*
X49570184Y-58372737D01*
X49474211Y-58525476D01*
X49414631Y-58695745D01*
X49414630Y-58695750D01*
X49394435Y-58874996D01*
X49394435Y-58875003D01*
X49414630Y-59054249D01*
X49414631Y-59054254D01*
X49474211Y-59224523D01*
X49534672Y-59320745D01*
X49570184Y-59377262D01*
X49697738Y-59504816D01*
X49765609Y-59547462D01*
X49824778Y-59584641D01*
X49850478Y-59600789D01*
X49938328Y-59631529D01*
X50020745Y-59660368D01*
X50020750Y-59660369D01*
X50199996Y-59680565D01*
X50200000Y-59680565D01*
X50200004Y-59680565D01*
X50379249Y-59660369D01*
X50379252Y-59660368D01*
X50379255Y-59660368D01*
X50549522Y-59600789D01*
X50702262Y-59504816D01*
X50770259Y-59436819D01*
X50831582Y-59403334D01*
X50857940Y-59400500D01*
X53205968Y-59400500D01*
X53273007Y-59420185D01*
X53293649Y-59436819D01*
X53613365Y-59756535D01*
X53769650Y-59912819D01*
X53803135Y-59974142D01*
X53798151Y-60043833D01*
X53756280Y-60099767D01*
X53690815Y-60124184D01*
X53681969Y-60124500D01*
X53306898Y-60124500D01*
X53267853Y-60129188D01*
X53218438Y-60135122D01*
X53077656Y-60190639D01*
X52957076Y-60282078D01*
X52933810Y-60312760D01*
X52877618Y-60354283D01*
X52807896Y-60358834D01*
X52780547Y-60349235D01*
X52751247Y-60334911D01*
X52750000Y-60334729D01*
X52750000Y-62265269D01*
X52751244Y-62265089D01*
X52780544Y-62250765D01*
X52849417Y-62239005D01*
X52913715Y-62266348D01*
X52933809Y-62287239D01*
X52957076Y-62317921D01*
X53077656Y-62409360D01*
X53077657Y-62409360D01*
X53077658Y-62409361D01*
X53199870Y-62457555D01*
X53242059Y-62485228D01*
X53520559Y-62763728D01*
X53523500Y-62766771D01*
X53545594Y-62790427D01*
X53565246Y-62811469D01*
X53576972Y-62818600D01*
X53598500Y-62831691D01*
X53608991Y-62838830D01*
X53640026Y-62862365D01*
X53640029Y-62862366D01*
X53640029Y-62862367D01*
X53655510Y-62868471D01*
X53674452Y-62877878D01*
X53688673Y-62886526D01*
X53726161Y-62897029D01*
X53738185Y-62901072D01*
X53774412Y-62915359D01*
X53790978Y-62917061D01*
X53811742Y-62921008D01*
X53827773Y-62925500D01*
X53866697Y-62925500D01*
X53879377Y-62926150D01*
X53882276Y-62926447D01*
X53918111Y-62930132D01*
X53934519Y-62927303D01*
X53955587Y-62925500D01*
X56288890Y-62925500D01*
X56293122Y-62925572D01*
X56296352Y-62925682D01*
X56354245Y-62927660D01*
X56392070Y-62918441D01*
X56404513Y-62916075D01*
X56443111Y-62910771D01*
X56458386Y-62904135D01*
X56478421Y-62897397D01*
X56494594Y-62893457D01*
X56528531Y-62874374D01*
X56539879Y-62868737D01*
X56569737Y-62855769D01*
X56575605Y-62853221D01*
X56575605Y-62853220D01*
X56575609Y-62853219D01*
X56588528Y-62842707D01*
X56605997Y-62830818D01*
X56620512Y-62822658D01*
X56620517Y-62822652D01*
X56625862Y-62818600D01*
X56691173Y-62793775D01*
X56759537Y-62808200D01*
X56765219Y-62811453D01*
X56765244Y-62811468D01*
X56765245Y-62811469D01*
X56798499Y-62831691D01*
X56798501Y-62831692D01*
X56808998Y-62838836D01*
X56827968Y-62853221D01*
X56840025Y-62862364D01*
X56855512Y-62868471D01*
X56874452Y-62877878D01*
X56882162Y-62882567D01*
X56888668Y-62886524D01*
X56888669Y-62886524D01*
X56888672Y-62886526D01*
X56926171Y-62897032D01*
X56938185Y-62901073D01*
X56974410Y-62915359D01*
X56990977Y-62917061D01*
X57011741Y-62921008D01*
X57027772Y-62925500D01*
X57066703Y-62925500D01*
X57079382Y-62926150D01*
X57084427Y-62926668D01*
X57118109Y-62930131D01*
X57134513Y-62927302D01*
X57155579Y-62925500D01*
X66679278Y-62925500D01*
X66746317Y-62945185D01*
X66791660Y-62997095D01*
X66812896Y-63042636D01*
X66812897Y-63042638D01*
X66812898Y-63042639D01*
X66938402Y-63221877D01*
X67093123Y-63376598D01*
X67232736Y-63474356D01*
X67272361Y-63502102D01*
X67423583Y-63572618D01*
X67476022Y-63618790D01*
X67495174Y-63685984D01*
X67474958Y-63752865D01*
X67423583Y-63797382D01*
X67272361Y-63867898D01*
X67272357Y-63867900D01*
X67093121Y-63993402D01*
X66938402Y-64148121D01*
X66812900Y-64327357D01*
X66812898Y-64327361D01*
X66720426Y-64525668D01*
X66720422Y-64525677D01*
X66663793Y-64737020D01*
X66663793Y-64737024D01*
X66645082Y-64950902D01*
X66644723Y-64955000D01*
X66660320Y-65133285D01*
X66663793Y-65172975D01*
X66663793Y-65172979D01*
X66720422Y-65384322D01*
X66720424Y-65384326D01*
X66720425Y-65384330D01*
X66760386Y-65470026D01*
X66812897Y-65582638D01*
X66812898Y-65582639D01*
X66938402Y-65761877D01*
X67093123Y-65916598D01*
X67272361Y-66042102D01*
X67470670Y-66134575D01*
X67682023Y-66191207D01*
X67864926Y-66207208D01*
X67899998Y-66210277D01*
X67900000Y-66210277D01*
X67900002Y-66210277D01*
X67928254Y-66207805D01*
X68117977Y-66191207D01*
X68329330Y-66134575D01*
X68527639Y-66042102D01*
X68706877Y-65916598D01*
X68861598Y-65761877D01*
X68987102Y-65582639D01*
X69079575Y-65384330D01*
X69136207Y-65172977D01*
X69155277Y-64955000D01*
X69154918Y-64950900D01*
X69168679Y-64882401D01*
X69190761Y-64852407D01*
X69543168Y-64500000D01*
X70394615Y-64500000D01*
X70414140Y-64847688D01*
X70414142Y-64847700D01*
X70469408Y-65172977D01*
X70472473Y-65191013D01*
X70568879Y-65525644D01*
X70702145Y-65847376D01*
X70870595Y-66152164D01*
X71072112Y-66436176D01*
X71304161Y-66695839D01*
X71563824Y-66927888D01*
X71847836Y-67129405D01*
X72152624Y-67297855D01*
X72474356Y-67431121D01*
X72808987Y-67527527D01*
X73152307Y-67585859D01*
X73500000Y-67605385D01*
X73847693Y-67585859D01*
X74191013Y-67527527D01*
X74525644Y-67431121D01*
X74847376Y-67297855D01*
X75152164Y-67129405D01*
X75436176Y-66927888D01*
X75695839Y-66695839D01*
X75927888Y-66436176D01*
X76129405Y-66152164D01*
X76297855Y-65847376D01*
X76431121Y-65525644D01*
X76527527Y-65191013D01*
X76585859Y-64847693D01*
X76605385Y-64500000D01*
X76585859Y-64152307D01*
X76527527Y-63808987D01*
X76431121Y-63474356D01*
X76297855Y-63152624D01*
X76129405Y-62847836D01*
X75927888Y-62563824D01*
X75695839Y-62304161D01*
X75436176Y-62072112D01*
X75152164Y-61870595D01*
X74847376Y-61702145D01*
X74525644Y-61568879D01*
X74225231Y-61482331D01*
X74191017Y-61472474D01*
X74191009Y-61472472D01*
X73847700Y-61414142D01*
X73847688Y-61414140D01*
X73500000Y-61394615D01*
X73152311Y-61414140D01*
X73152299Y-61414142D01*
X72808990Y-61472472D01*
X72808982Y-61472474D01*
X72521437Y-61555315D01*
X72474356Y-61568879D01*
X72405976Y-61597203D01*
X72152625Y-61702144D01*
X71847835Y-61870595D01*
X71701395Y-61974500D01*
X71563824Y-62072112D01*
X71304161Y-62304161D01*
X71072112Y-62563824D01*
X71030746Y-62622124D01*
X70870595Y-62847835D01*
X70702144Y-63152625D01*
X70628272Y-63330968D01*
X70573288Y-63463713D01*
X70568878Y-63474359D01*
X70472474Y-63808982D01*
X70472472Y-63808990D01*
X70414142Y-64152299D01*
X70414140Y-64152311D01*
X70394615Y-64500000D01*
X69543168Y-64500000D01*
X70063754Y-63979413D01*
X70066740Y-63976527D01*
X70111469Y-63934755D01*
X70131699Y-63901485D01*
X70138836Y-63891000D01*
X70162364Y-63859975D01*
X70168474Y-63844479D01*
X70177880Y-63825544D01*
X70186526Y-63811328D01*
X70197031Y-63773832D01*
X70201068Y-63761826D01*
X70215359Y-63725590D01*
X70217061Y-63709023D01*
X70221007Y-63688260D01*
X70225500Y-63672228D01*
X70225500Y-63633296D01*
X70226150Y-63620616D01*
X70226516Y-63617059D01*
X70230131Y-63581891D01*
X70228532Y-63572618D01*
X70227303Y-63565487D01*
X70225500Y-63544420D01*
X70225500Y-42025001D01*
X70634390Y-42025001D01*
X70654804Y-42310433D01*
X70715628Y-42590037D01*
X70815635Y-42858166D01*
X70952770Y-43109309D01*
X70952775Y-43109317D01*
X71124254Y-43338387D01*
X71124270Y-43338405D01*
X71326594Y-43540729D01*
X71326612Y-43540745D01*
X71555682Y-43712224D01*
X71555690Y-43712229D01*
X71806833Y-43849364D01*
X71806832Y-43849364D01*
X71806836Y-43849365D01*
X71806839Y-43849367D01*
X72074954Y-43949369D01*
X72074960Y-43949370D01*
X72074962Y-43949371D01*
X72354566Y-44010195D01*
X72354568Y-44010195D01*
X72354572Y-44010196D01*
X72608220Y-44028337D01*
X72639999Y-44030610D01*
X72640000Y-44030610D01*
X72640001Y-44030610D01*
X72668595Y-44028564D01*
X72925428Y-44010196D01*
X73205046Y-43949369D01*
X73473161Y-43849367D01*
X73724315Y-43712226D01*
X73953395Y-43540739D01*
X74155739Y-43338395D01*
X74327226Y-43109315D01*
X74464367Y-42858161D01*
X74564369Y-42590046D01*
X74625196Y-42310428D01*
X74645610Y-42025000D01*
X74625196Y-41739572D01*
X74622989Y-41729428D01*
X74564371Y-41459962D01*
X74564370Y-41459960D01*
X74564369Y-41459954D01*
X74464367Y-41191839D01*
X74463625Y-41190481D01*
X74327229Y-40940690D01*
X74327224Y-40940682D01*
X74155745Y-40711612D01*
X74155729Y-40711594D01*
X73953405Y-40509270D01*
X73953387Y-40509254D01*
X73724317Y-40337775D01*
X73724309Y-40337770D01*
X73534638Y-40234202D01*
X73485233Y-40184797D01*
X73470381Y-40116524D01*
X73494798Y-40051060D01*
X73550731Y-40009188D01*
X73604872Y-40001842D01*
X73782998Y-40017426D01*
X73783000Y-40017426D01*
X73783002Y-40017426D01*
X73839193Y-40012509D01*
X74007775Y-39997761D01*
X74225720Y-39939363D01*
X74430213Y-39844006D01*
X74615041Y-39714588D01*
X74774588Y-39555041D01*
X74904006Y-39370213D01*
X74999363Y-39165720D01*
X75057761Y-38947775D01*
X75077426Y-38723000D01*
X75057761Y-38498225D01*
X75004854Y-38300772D01*
X74999365Y-38280287D01*
X74999364Y-38280286D01*
X74999363Y-38280280D01*
X74904006Y-38075787D01*
X74904004Y-38075784D01*
X74904003Y-38075782D01*
X74774591Y-37890963D01*
X74774586Y-37890957D01*
X74615042Y-37731413D01*
X74615036Y-37731408D01*
X74430217Y-37601996D01*
X74430213Y-37601994D01*
X74351697Y-37565381D01*
X74299259Y-37519210D01*
X74280107Y-37452016D01*
X74300323Y-37385135D01*
X74351697Y-37340618D01*
X74430213Y-37304006D01*
X74615041Y-37174588D01*
X74774588Y-37015041D01*
X74904006Y-36830213D01*
X74999363Y-36625720D01*
X75057761Y-36407775D01*
X75077426Y-36183000D01*
X75057761Y-35958225D01*
X74999363Y-35740280D01*
X74904006Y-35535787D01*
X74904004Y-35535784D01*
X74904003Y-35535782D01*
X74774591Y-35350963D01*
X74774586Y-35350957D01*
X74615042Y-35191413D01*
X74615036Y-35191408D01*
X74430217Y-35061996D01*
X74430213Y-35061994D01*
X74351697Y-35025381D01*
X74299259Y-34979210D01*
X74280107Y-34912016D01*
X74300323Y-34845135D01*
X74351697Y-34800618D01*
X74430213Y-34764006D01*
X74615041Y-34634588D01*
X74774588Y-34475041D01*
X74904006Y-34290213D01*
X74999363Y-34085720D01*
X75057761Y-33867775D01*
X75077426Y-33643000D01*
X75057761Y-33418225D01*
X74999363Y-33200280D01*
X74904006Y-32995787D01*
X74904004Y-32995784D01*
X74904003Y-32995782D01*
X74774591Y-32810963D01*
X74774586Y-32810957D01*
X74615042Y-32651413D01*
X74615036Y-32651408D01*
X74430217Y-32521996D01*
X74430213Y-32521994D01*
X74368299Y-32493123D01*
X74351697Y-32485381D01*
X74299259Y-32439210D01*
X74280107Y-32372016D01*
X74300323Y-32305135D01*
X74351697Y-32260618D01*
X74430213Y-32224006D01*
X74615041Y-32094588D01*
X74774588Y-31935041D01*
X74904006Y-31750213D01*
X74999363Y-31545720D01*
X75057761Y-31327775D01*
X75076442Y-31114244D01*
X75077426Y-31103001D01*
X75077426Y-31102998D01*
X75057761Y-30878230D01*
X75057761Y-30878225D01*
X74999363Y-30660280D01*
X74904006Y-30455787D01*
X74904004Y-30455784D01*
X74904003Y-30455782D01*
X74774591Y-30270963D01*
X74774586Y-30270957D01*
X74615042Y-30111413D01*
X74615036Y-30111408D01*
X74430217Y-29981996D01*
X74430213Y-29981994D01*
X74351697Y-29945381D01*
X74299259Y-29899210D01*
X74280107Y-29832016D01*
X74300323Y-29765135D01*
X74351697Y-29720618D01*
X74430213Y-29684006D01*
X74615041Y-29554588D01*
X74774588Y-29395041D01*
X74904006Y-29210213D01*
X74999363Y-29005720D01*
X75057761Y-28787775D01*
X75077426Y-28563000D01*
X75057761Y-28338225D01*
X74999363Y-28120280D01*
X74904006Y-27915787D01*
X74904004Y-27915784D01*
X74904003Y-27915782D01*
X74774591Y-27730963D01*
X74774586Y-27730957D01*
X74615042Y-27571413D01*
X74615036Y-27571408D01*
X74430217Y-27441996D01*
X74430213Y-27441994D01*
X74225720Y-27346637D01*
X74225716Y-27346636D01*
X74225714Y-27346635D01*
X74093021Y-27311080D01*
X74033361Y-27274715D01*
X74002832Y-27211868D01*
X74011127Y-27142492D01*
X74055612Y-27088614D01*
X74080322Y-27075678D01*
X74270484Y-27002010D01*
X74270488Y-27002008D01*
X74355696Y-26949249D01*
X73922600Y-26516152D01*
X73927592Y-26515435D01*
X74060470Y-26454752D01*
X74170869Y-26359090D01*
X74249845Y-26236201D01*
X74272522Y-26158968D01*
X74712611Y-26599057D01*
X74712612Y-26599057D01*
X74712851Y-26598742D01*
X74802811Y-26418078D01*
X74802814Y-26418072D01*
X74858042Y-26223962D01*
X74858043Y-26223959D01*
X74876665Y-26023000D01*
X74876665Y-26022999D01*
X74858043Y-25822040D01*
X74858042Y-25822037D01*
X74802814Y-25627927D01*
X74802811Y-25627921D01*
X74712853Y-25447261D01*
X74712849Y-25447254D01*
X74712612Y-25446941D01*
X74272522Y-25887030D01*
X74249845Y-25809799D01*
X74170869Y-25686910D01*
X74060470Y-25591248D01*
X73927592Y-25530565D01*
X73922599Y-25529847D01*
X74355696Y-25096749D01*
X74355695Y-25096748D01*
X74270491Y-25043993D01*
X74270482Y-25043988D01*
X74082298Y-24971086D01*
X74082293Y-24971085D01*
X73883909Y-24934000D01*
X73712426Y-24934000D01*
X73645387Y-24914315D01*
X73599632Y-24861511D01*
X73589688Y-24792353D01*
X73618713Y-24728797D01*
X73652999Y-24701168D01*
X73693557Y-24679020D01*
X73724315Y-24662226D01*
X73953395Y-24490739D01*
X74155739Y-24288395D01*
X74327226Y-24059315D01*
X74464367Y-23808161D01*
X74564369Y-23540046D01*
X74611025Y-23325572D01*
X74625195Y-23260433D01*
X74625195Y-23260432D01*
X74625196Y-23260428D01*
X74645610Y-22975000D01*
X74625196Y-22689572D01*
X74622979Y-22679382D01*
X74564371Y-22409962D01*
X74564370Y-22409960D01*
X74564369Y-22409954D01*
X74464367Y-22141839D01*
X74459460Y-22132853D01*
X74327229Y-21890690D01*
X74327224Y-21890682D01*
X74155745Y-21661612D01*
X74155729Y-21661594D01*
X73953405Y-21459270D01*
X73953387Y-21459254D01*
X73724317Y-21287775D01*
X73724309Y-21287770D01*
X73473166Y-21150635D01*
X73473167Y-21150635D01*
X73276655Y-21077340D01*
X73205046Y-21050631D01*
X73205043Y-21050630D01*
X73205037Y-21050628D01*
X72925433Y-20989804D01*
X72640001Y-20969390D01*
X72639999Y-20969390D01*
X72354566Y-20989804D01*
X72074962Y-21050628D01*
X71806833Y-21150635D01*
X71555690Y-21287770D01*
X71555682Y-21287775D01*
X71326612Y-21459254D01*
X71326594Y-21459270D01*
X71124270Y-21661594D01*
X71124254Y-21661612D01*
X70952775Y-21890682D01*
X70952770Y-21890690D01*
X70815635Y-22141833D01*
X70715628Y-22409962D01*
X70654804Y-22689566D01*
X70634390Y-22974998D01*
X70634390Y-22975001D01*
X70654804Y-23260433D01*
X70715628Y-23540037D01*
X70715630Y-23540043D01*
X70715631Y-23540046D01*
X70806712Y-23784242D01*
X70815635Y-23808166D01*
X70952770Y-24059309D01*
X70952775Y-24059317D01*
X71124254Y-24288387D01*
X71124270Y-24288405D01*
X71326594Y-24490729D01*
X71326612Y-24490745D01*
X71555682Y-24662224D01*
X71555690Y-24662229D01*
X71806833Y-24799364D01*
X71806832Y-24799364D01*
X71806836Y-24799365D01*
X71806839Y-24799367D01*
X72074954Y-24899369D01*
X72074960Y-24899370D01*
X72074962Y-24899371D01*
X72354566Y-24960195D01*
X72354568Y-24960195D01*
X72354572Y-24960196D01*
X72608220Y-24978337D01*
X72639999Y-24980610D01*
X72640000Y-24980610D01*
X72640001Y-24980610D01*
X72663822Y-24978906D01*
X72925428Y-24960196D01*
X73064406Y-24929963D01*
X73134096Y-24934947D01*
X73190030Y-24976818D01*
X73214447Y-25042282D01*
X73213937Y-25065418D01*
X73210302Y-25096749D01*
X73643400Y-25529847D01*
X73638408Y-25530565D01*
X73505530Y-25591248D01*
X73395131Y-25686910D01*
X73316155Y-25809799D01*
X73293477Y-25887031D01*
X72853387Y-25446941D01*
X72853147Y-25447259D01*
X72853144Y-25447265D01*
X72763188Y-25627921D01*
X72763185Y-25627927D01*
X72707957Y-25822037D01*
X72707956Y-25822040D01*
X72689335Y-26022999D01*
X72689335Y-26023000D01*
X72707956Y-26223959D01*
X72707957Y-26223962D01*
X72763185Y-26418072D01*
X72763188Y-26418078D01*
X72853146Y-26598739D01*
X72853150Y-26598745D01*
X72853386Y-26599057D01*
X72853387Y-26599058D01*
X73293477Y-26158968D01*
X73316155Y-26236201D01*
X73395131Y-26359090D01*
X73505530Y-26454752D01*
X73638408Y-26515435D01*
X73643399Y-26516152D01*
X73210302Y-26949249D01*
X73210303Y-26949250D01*
X73295508Y-27002007D01*
X73295517Y-27002011D01*
X73485677Y-27075678D01*
X73541079Y-27118250D01*
X73564670Y-27184017D01*
X73548959Y-27252098D01*
X73498936Y-27300877D01*
X73472978Y-27311080D01*
X73340285Y-27346635D01*
X73340278Y-27346638D01*
X73135786Y-27441994D01*
X73135782Y-27441996D01*
X72950963Y-27571408D01*
X72950957Y-27571413D01*
X72791413Y-27730957D01*
X72791408Y-27730963D01*
X72661996Y-27915782D01*
X72661994Y-27915786D01*
X72566638Y-28120278D01*
X72566634Y-28120287D01*
X72508240Y-28338219D01*
X72508238Y-28338230D01*
X72488574Y-28562998D01*
X72488574Y-28563001D01*
X72508238Y-28787769D01*
X72508240Y-28787780D01*
X72566634Y-29005712D01*
X72566636Y-29005716D01*
X72566637Y-29005720D01*
X72660650Y-29207331D01*
X72661994Y-29210213D01*
X72661996Y-29210217D01*
X72791408Y-29395036D01*
X72791413Y-29395042D01*
X72950957Y-29554586D01*
X72950963Y-29554591D01*
X73135782Y-29684003D01*
X73135783Y-29684003D01*
X73135787Y-29684006D01*
X73201937Y-29714852D01*
X73214301Y-29720618D01*
X73266740Y-29766791D01*
X73285892Y-29833984D01*
X73265676Y-29900866D01*
X73214301Y-29945382D01*
X73135787Y-29981994D01*
X73135782Y-29981996D01*
X72950963Y-30111408D01*
X72950957Y-30111413D01*
X72791413Y-30270957D01*
X72791408Y-30270963D01*
X72661996Y-30455782D01*
X72661994Y-30455786D01*
X72566638Y-30660278D01*
X72566634Y-30660287D01*
X72508240Y-30878219D01*
X72508238Y-30878230D01*
X72488574Y-31102998D01*
X72488574Y-31103001D01*
X72508238Y-31327769D01*
X72508240Y-31327780D01*
X72566634Y-31545712D01*
X72566636Y-31545716D01*
X72566637Y-31545720D01*
X72632379Y-31686703D01*
X72661994Y-31750213D01*
X72661996Y-31750217D01*
X72791408Y-31935036D01*
X72791413Y-31935042D01*
X72950957Y-32094586D01*
X72950963Y-32094591D01*
X73135782Y-32224003D01*
X73135783Y-32224003D01*
X73135787Y-32224006D01*
X73201937Y-32254852D01*
X73214301Y-32260618D01*
X73266740Y-32306791D01*
X73285892Y-32373984D01*
X73265676Y-32440866D01*
X73214301Y-32485382D01*
X73135787Y-32521994D01*
X73135782Y-32521996D01*
X72950963Y-32651408D01*
X72950957Y-32651413D01*
X72791413Y-32810957D01*
X72791408Y-32810963D01*
X72661996Y-32995782D01*
X72661994Y-32995786D01*
X72566638Y-33200278D01*
X72566634Y-33200287D01*
X72508240Y-33418219D01*
X72508238Y-33418230D01*
X72488574Y-33642998D01*
X72488574Y-33643001D01*
X72508238Y-33867769D01*
X72508240Y-33867780D01*
X72566634Y-34085712D01*
X72566636Y-34085716D01*
X72566637Y-34085720D01*
X72661994Y-34290213D01*
X72661996Y-34290217D01*
X72791408Y-34475036D01*
X72791413Y-34475042D01*
X72950957Y-34634586D01*
X72950963Y-34634591D01*
X73135782Y-34764003D01*
X73135783Y-34764003D01*
X73135787Y-34764006D01*
X73201937Y-34794852D01*
X73214301Y-34800618D01*
X73266740Y-34846791D01*
X73285892Y-34913984D01*
X73265676Y-34980866D01*
X73214301Y-35025382D01*
X73135787Y-35061994D01*
X73135782Y-35061996D01*
X72950963Y-35191408D01*
X72950957Y-35191413D01*
X72791413Y-35350957D01*
X72791408Y-35350963D01*
X72661996Y-35535782D01*
X72661994Y-35535786D01*
X72566638Y-35740278D01*
X72566634Y-35740287D01*
X72508240Y-35958219D01*
X72508238Y-35958230D01*
X72488574Y-36182998D01*
X72488574Y-36183001D01*
X72508238Y-36407769D01*
X72508240Y-36407780D01*
X72566634Y-36625712D01*
X72566636Y-36625716D01*
X72566637Y-36625720D01*
X72576328Y-36646502D01*
X72661994Y-36830213D01*
X72661996Y-36830217D01*
X72791408Y-37015036D01*
X72791413Y-37015042D01*
X72950957Y-37174586D01*
X72950963Y-37174591D01*
X73135782Y-37304003D01*
X73135783Y-37304003D01*
X73135787Y-37304006D01*
X73201937Y-37334852D01*
X73214301Y-37340618D01*
X73266740Y-37386791D01*
X73285892Y-37453984D01*
X73265676Y-37520866D01*
X73214301Y-37565382D01*
X73135787Y-37601994D01*
X73135782Y-37601996D01*
X72950963Y-37731408D01*
X72950957Y-37731413D01*
X72791413Y-37890957D01*
X72791408Y-37890963D01*
X72661996Y-38075782D01*
X72661994Y-38075786D01*
X72566638Y-38280278D01*
X72566634Y-38280287D01*
X72508240Y-38498219D01*
X72508238Y-38498230D01*
X72488574Y-38722998D01*
X72488574Y-38723001D01*
X72508238Y-38947769D01*
X72508240Y-38947780D01*
X72566634Y-39165712D01*
X72566636Y-39165716D01*
X72566637Y-39165720D01*
X72661994Y-39370213D01*
X72661996Y-39370217D01*
X72791408Y-39555036D01*
X72791413Y-39555042D01*
X72950957Y-39714586D01*
X72950963Y-39714591D01*
X73130837Y-39840540D01*
X73174462Y-39895117D01*
X73181656Y-39964615D01*
X73150133Y-40026970D01*
X73089903Y-40062384D01*
X73033357Y-40063281D01*
X72925437Y-40039805D01*
X72925433Y-40039804D01*
X72640001Y-40019390D01*
X72639999Y-40019390D01*
X72354566Y-40039804D01*
X72074962Y-40100628D01*
X71806833Y-40200635D01*
X71555690Y-40337770D01*
X71555682Y-40337775D01*
X71326612Y-40509254D01*
X71326594Y-40509270D01*
X71124270Y-40711594D01*
X71124254Y-40711612D01*
X70952775Y-40940682D01*
X70952770Y-40940690D01*
X70815635Y-41191833D01*
X70715628Y-41459962D01*
X70654804Y-41739566D01*
X70634390Y-42024998D01*
X70634390Y-42025001D01*
X70225500Y-42025001D01*
X70225500Y-20411108D01*
X70225572Y-20406875D01*
X70226264Y-20386615D01*
X70227660Y-20345755D01*
X70218443Y-20307934D01*
X70216072Y-20295459D01*
X70210771Y-20256889D01*
X70210770Y-20256887D01*
X70204137Y-20241616D01*
X70197397Y-20221574D01*
X70193457Y-20205407D01*
X70193455Y-20205403D01*
X70174379Y-20171475D01*
X70168731Y-20160103D01*
X70153219Y-20124391D01*
X70153217Y-20124388D01*
X70142713Y-20111477D01*
X70130812Y-20093990D01*
X70122660Y-20079491D01*
X70122658Y-20079488D01*
X70095128Y-20051958D01*
X70086630Y-20042543D01*
X70062054Y-20012335D01*
X70062050Y-20012332D01*
X70062045Y-20012328D01*
X70048453Y-20002733D01*
X70032281Y-19989111D01*
X67928710Y-17885541D01*
X67895225Y-17824218D01*
X67900209Y-17754526D01*
X67942081Y-17698593D01*
X68007545Y-17674176D01*
X68074844Y-17688502D01*
X68236233Y-17774766D01*
X68390000Y-17821410D01*
X68390000Y-17235501D01*
X68497685Y-17284680D01*
X68604237Y-17300000D01*
X68675763Y-17300000D01*
X68782315Y-17284680D01*
X68890000Y-17235501D01*
X68890000Y-17821410D01*
X69043766Y-17774766D01*
X69226166Y-17677271D01*
X69226173Y-17677267D01*
X69386055Y-17546055D01*
X69517267Y-17386173D01*
X69517271Y-17386166D01*
X69614766Y-17203766D01*
X69661410Y-17050000D01*
X69073686Y-17050000D01*
X69099493Y-17009844D01*
X69140000Y-16871889D01*
X69140000Y-16728111D01*
X69099493Y-16590156D01*
X69073686Y-16550000D01*
X69661410Y-16550000D01*
X69614766Y-16396233D01*
X69517271Y-16213833D01*
X69517267Y-16213826D01*
X69386055Y-16053944D01*
X69226173Y-15922732D01*
X69226166Y-15922728D01*
X69043763Y-15825232D01*
X68890000Y-15778587D01*
X68890000Y-16364498D01*
X68782315Y-16315320D01*
X68675763Y-16300000D01*
X68604237Y-16300000D01*
X68497685Y-16315320D01*
X68390000Y-16364498D01*
X68390000Y-15778587D01*
X68236236Y-15825232D01*
X68053833Y-15922728D01*
X68053826Y-15922732D01*
X67893944Y-16053944D01*
X67762732Y-16213826D01*
X67762728Y-16213833D01*
X67665233Y-16396233D01*
X67618590Y-16550000D01*
X68206314Y-16550000D01*
X68180507Y-16590156D01*
X68140000Y-16728111D01*
X68140000Y-16871889D01*
X68180507Y-17009844D01*
X68206314Y-17050000D01*
X67618590Y-17050000D01*
X67665233Y-17203766D01*
X67751497Y-17365155D01*
X67765739Y-17433558D01*
X67740739Y-17498802D01*
X67684434Y-17540172D01*
X67614700Y-17544534D01*
X67554458Y-17511289D01*
X67328702Y-17285533D01*
X67295217Y-17224210D01*
X67296607Y-17165762D01*
X67336207Y-17017977D01*
X67355277Y-16800000D01*
X67336207Y-16582023D01*
X67279575Y-16370670D01*
X67187102Y-16172362D01*
X67187100Y-16172359D01*
X67187099Y-16172357D01*
X67061599Y-15993124D01*
X66986950Y-15918475D01*
X66906877Y-15838402D01*
X66727639Y-15712898D01*
X66576414Y-15642381D01*
X66523977Y-15596210D01*
X66504825Y-15529016D01*
X66525041Y-15462135D01*
X66576414Y-15417618D01*
X66727639Y-15347102D01*
X66906877Y-15221598D01*
X67061598Y-15066877D01*
X67187102Y-14887639D01*
X67257618Y-14736414D01*
X67303790Y-14683977D01*
X67370984Y-14664825D01*
X67437865Y-14685041D01*
X67482381Y-14736414D01*
X67552898Y-14887639D01*
X67678402Y-15066877D01*
X67833123Y-15221598D01*
X68012361Y-15347102D01*
X68210670Y-15439575D01*
X68210676Y-15439576D01*
X68210677Y-15439577D01*
X68227121Y-15443983D01*
X68422023Y-15496207D01*
X68604926Y-15512208D01*
X68639998Y-15515277D01*
X68640000Y-15515277D01*
X68640002Y-15515277D01*
X68668254Y-15512805D01*
X68814621Y-15500000D01*
X70394615Y-15500000D01*
X70414140Y-15847688D01*
X70414142Y-15847700D01*
X70472314Y-16190081D01*
X70472473Y-16191013D01*
X70568879Y-16525644D01*
X70702145Y-16847376D01*
X70870595Y-17152164D01*
X71072112Y-17436176D01*
X71304161Y-17695839D01*
X71563824Y-17927888D01*
X71847836Y-18129405D01*
X72152624Y-18297855D01*
X72474356Y-18431121D01*
X72808987Y-18527527D01*
X73152307Y-18585859D01*
X73500000Y-18605385D01*
X73847693Y-18585859D01*
X74191013Y-18527527D01*
X74525644Y-18431121D01*
X74847376Y-18297855D01*
X75152164Y-18129405D01*
X75436176Y-17927888D01*
X75695839Y-17695839D01*
X75927888Y-17436176D01*
X76129405Y-17152164D01*
X76297855Y-16847376D01*
X76431121Y-16525644D01*
X76527527Y-16191013D01*
X76585859Y-15847693D01*
X76605385Y-15500000D01*
X76585859Y-15152307D01*
X76527527Y-14808987D01*
X76431121Y-14474356D01*
X76297855Y-14152624D01*
X76129405Y-13847836D01*
X75927888Y-13563824D01*
X75695839Y-13304161D01*
X75436176Y-13072112D01*
X75152164Y-12870595D01*
X74847376Y-12702145D01*
X74525644Y-12568879D01*
X74217539Y-12480115D01*
X74191017Y-12472474D01*
X74191009Y-12472472D01*
X73847700Y-12414142D01*
X73847688Y-12414140D01*
X73500000Y-12394615D01*
X73152311Y-12414140D01*
X73152299Y-12414142D01*
X72808990Y-12472472D01*
X72808982Y-12472474D01*
X72474359Y-12568878D01*
X72474356Y-12568879D01*
X72380124Y-12607911D01*
X72152625Y-12702144D01*
X71847835Y-12870595D01*
X71675402Y-12992943D01*
X71563824Y-13072112D01*
X71304161Y-13304161D01*
X71072112Y-13563824D01*
X71023482Y-13632362D01*
X70870595Y-13847835D01*
X70702144Y-14152625D01*
X70568878Y-14474359D01*
X70472474Y-14808982D01*
X70472472Y-14808990D01*
X70414142Y-15152299D01*
X70414140Y-15152311D01*
X70394615Y-15500000D01*
X68814621Y-15500000D01*
X68857977Y-15496207D01*
X69069330Y-15439575D01*
X69267639Y-15347102D01*
X69446877Y-15221598D01*
X69601598Y-15066877D01*
X69727102Y-14887639D01*
X69819575Y-14689330D01*
X69876207Y-14477977D01*
X69895277Y-14260000D01*
X69876207Y-14042023D01*
X69836907Y-13895353D01*
X69819577Y-13830677D01*
X69819576Y-13830676D01*
X69819575Y-13830670D01*
X69727102Y-13632362D01*
X69727100Y-13632359D01*
X69727099Y-13632357D01*
X69601599Y-13453124D01*
X69531203Y-13382728D01*
X69446877Y-13298402D01*
X69293279Y-13190851D01*
X69267638Y-13172897D01*
X69168484Y-13126661D01*
X69069330Y-13080425D01*
X69069326Y-13080424D01*
X69069322Y-13080422D01*
X68857977Y-13023793D01*
X68640002Y-13004723D01*
X68639998Y-13004723D01*
X68494682Y-13017436D01*
X68422023Y-13023793D01*
X68422020Y-13023793D01*
X68210677Y-13080422D01*
X68210668Y-13080426D01*
X68012361Y-13172898D01*
X68012357Y-13172900D01*
X67833121Y-13298402D01*
X67678402Y-13453121D01*
X67552900Y-13632357D01*
X67552898Y-13632361D01*
X67482382Y-13783583D01*
X67436209Y-13836022D01*
X67369016Y-13855174D01*
X67302135Y-13834958D01*
X67257618Y-13783583D01*
X67206437Y-13673826D01*
X67187102Y-13632362D01*
X67187100Y-13632359D01*
X67187099Y-13632357D01*
X67061599Y-13453124D01*
X66991203Y-13382728D01*
X66906877Y-13298402D01*
X66753279Y-13190851D01*
X66727638Y-13172897D01*
X66628484Y-13126661D01*
X66529330Y-13080425D01*
X66529326Y-13080424D01*
X66529322Y-13080422D01*
X66317977Y-13023793D01*
X66100002Y-13004723D01*
X66099998Y-13004723D01*
X65954682Y-13017436D01*
X65882023Y-13023793D01*
X65882020Y-13023793D01*
X65670677Y-13080422D01*
X65670668Y-13080426D01*
X65472361Y-13172898D01*
X65472357Y-13172900D01*
X65293121Y-13298402D01*
X65138402Y-13453121D01*
X65012900Y-13632357D01*
X65012898Y-13632361D01*
X64942382Y-13783583D01*
X64896209Y-13836022D01*
X64829016Y-13855174D01*
X64762135Y-13834958D01*
X64717618Y-13783583D01*
X64666437Y-13673826D01*
X64647102Y-13632362D01*
X64647100Y-13632359D01*
X64647099Y-13632357D01*
X64521599Y-13453124D01*
X64451203Y-13382728D01*
X64366877Y-13298402D01*
X64213279Y-13190851D01*
X64187638Y-13172897D01*
X64088484Y-13126661D01*
X63989330Y-13080425D01*
X63989326Y-13080424D01*
X63989322Y-13080422D01*
X63777977Y-13023793D01*
X63560002Y-13004723D01*
X63559998Y-13004723D01*
X63414682Y-13017436D01*
X63342023Y-13023793D01*
X63342020Y-13023793D01*
X63130677Y-13080422D01*
X63130668Y-13080426D01*
X62932361Y-13172898D01*
X62932357Y-13172900D01*
X62753121Y-13298402D01*
X62598402Y-13453121D01*
X62472900Y-13632357D01*
X62472898Y-13632361D01*
X62380426Y-13830668D01*
X62380422Y-13830677D01*
X62323793Y-14042020D01*
X62323793Y-14042023D01*
X62323024Y-14050811D01*
X62309586Y-14204419D01*
X62304723Y-14260000D01*
X62323476Y-14474359D01*
X62323793Y-14477975D01*
X62323793Y-14477979D01*
X62380422Y-14689322D01*
X62380424Y-14689326D01*
X62380425Y-14689330D01*
X62382675Y-14694155D01*
X62472897Y-14887638D01*
X62472898Y-14887639D01*
X62598402Y-15066877D01*
X62753123Y-15221598D01*
X62928355Y-15344297D01*
X62932361Y-15347102D01*
X63083583Y-15417618D01*
X63136022Y-15463790D01*
X63155174Y-15530984D01*
X63134958Y-15597865D01*
X63083583Y-15642382D01*
X62932361Y-15712898D01*
X62932357Y-15712900D01*
X62753121Y-15838402D01*
X62598402Y-15993121D01*
X62472900Y-16172357D01*
X62472898Y-16172361D01*
X62402382Y-16323583D01*
X62356209Y-16376022D01*
X62289016Y-16395174D01*
X62222135Y-16374958D01*
X62177618Y-16323583D01*
X62115797Y-16191009D01*
X62107102Y-16172362D01*
X62107100Y-16172359D01*
X62107099Y-16172357D01*
X61981599Y-15993124D01*
X61906950Y-15918475D01*
X61826877Y-15838402D01*
X61669500Y-15728205D01*
X61647638Y-15712897D01*
X61518477Y-15652669D01*
X61449330Y-15620425D01*
X61449326Y-15620424D01*
X61449322Y-15620422D01*
X61237977Y-15563793D01*
X61020002Y-15544723D01*
X61019998Y-15544723D01*
X60874682Y-15557436D01*
X60802023Y-15563793D01*
X60802020Y-15563793D01*
X60590677Y-15620422D01*
X60590670Y-15620424D01*
X60590670Y-15620425D01*
X60587391Y-15621954D01*
X60392361Y-15712898D01*
X60392357Y-15712900D01*
X60213121Y-15838402D01*
X60058402Y-15993121D01*
X59932900Y-16172357D01*
X59932898Y-16172361D01*
X59862382Y-16323583D01*
X59816209Y-16376022D01*
X59749016Y-16395174D01*
X59682135Y-16374958D01*
X59637618Y-16323583D01*
X59575797Y-16191009D01*
X59567102Y-16172362D01*
X59567100Y-16172359D01*
X59567099Y-16172357D01*
X59441599Y-15993124D01*
X59366950Y-15918475D01*
X59286877Y-15838402D01*
X59107639Y-15712898D01*
X58956414Y-15642381D01*
X58903977Y-15596210D01*
X58884825Y-15529016D01*
X58905041Y-15462135D01*
X58956414Y-15417618D01*
X59107639Y-15347102D01*
X59286877Y-15221598D01*
X59441598Y-15066877D01*
X59567102Y-14887639D01*
X59659575Y-14689330D01*
X59707626Y-14510000D01*
X59998590Y-14510000D01*
X60045233Y-14663766D01*
X60142728Y-14846166D01*
X60142732Y-14846173D01*
X60273944Y-15006055D01*
X60433826Y-15137267D01*
X60433833Y-15137271D01*
X60616233Y-15234766D01*
X60770000Y-15281410D01*
X60770000Y-14695501D01*
X60877685Y-14744680D01*
X60984237Y-14760000D01*
X61055763Y-14760000D01*
X61162315Y-14744680D01*
X61270000Y-14695501D01*
X61270000Y-15281410D01*
X61423766Y-15234766D01*
X61606166Y-15137271D01*
X61606173Y-15137267D01*
X61766055Y-15006055D01*
X61897267Y-14846173D01*
X61897271Y-14846166D01*
X61994766Y-14663766D01*
X62041410Y-14510000D01*
X61453686Y-14510000D01*
X61479493Y-14469844D01*
X61520000Y-14331889D01*
X61520000Y-14188111D01*
X61479493Y-14050156D01*
X61453686Y-14010000D01*
X62041410Y-14010000D01*
X61994766Y-13856233D01*
X61897271Y-13673833D01*
X61897267Y-13673826D01*
X61766055Y-13513944D01*
X61606173Y-13382732D01*
X61606166Y-13382728D01*
X61423763Y-13285232D01*
X61270000Y-13238587D01*
X61270000Y-13824498D01*
X61162315Y-13775320D01*
X61055763Y-13760000D01*
X60984237Y-13760000D01*
X60877685Y-13775320D01*
X60770000Y-13824498D01*
X60770000Y-13238587D01*
X60616236Y-13285232D01*
X60433833Y-13382728D01*
X60433826Y-13382732D01*
X60273944Y-13513944D01*
X60142732Y-13673826D01*
X60142728Y-13673833D01*
X60045233Y-13856233D01*
X59998590Y-14010000D01*
X60586314Y-14010000D01*
X60560507Y-14050156D01*
X60520000Y-14188111D01*
X60520000Y-14331889D01*
X60560507Y-14469844D01*
X60586314Y-14510000D01*
X59998590Y-14510000D01*
X59707626Y-14510000D01*
X59716207Y-14477977D01*
X59735277Y-14260000D01*
X59716207Y-14042023D01*
X59676907Y-13895353D01*
X59659577Y-13830677D01*
X59659576Y-13830676D01*
X59659575Y-13830670D01*
X59567102Y-13632362D01*
X59567100Y-13632359D01*
X59567099Y-13632357D01*
X59441599Y-13453124D01*
X59371203Y-13382728D01*
X59286877Y-13298402D01*
X59133279Y-13190851D01*
X59107638Y-13172897D01*
X59008484Y-13126661D01*
X58909330Y-13080425D01*
X58909326Y-13080424D01*
X58909322Y-13080422D01*
X58697977Y-13023793D01*
X58480002Y-13004723D01*
X58479998Y-13004723D01*
X58334682Y-13017436D01*
X58262023Y-13023793D01*
X58262020Y-13023793D01*
X58050677Y-13080422D01*
X58050668Y-13080426D01*
X57852361Y-13172898D01*
X57852357Y-13172900D01*
X57673121Y-13298402D01*
X57518402Y-13453121D01*
X57392900Y-13632357D01*
X57392898Y-13632361D01*
X57300426Y-13830668D01*
X57300422Y-13830677D01*
X57243793Y-14042020D01*
X57243793Y-14042023D01*
X57243024Y-14050811D01*
X57229586Y-14204419D01*
X57224723Y-14260000D01*
X57243476Y-14474359D01*
X57243793Y-14477975D01*
X57243793Y-14477979D01*
X57300422Y-14689322D01*
X57300424Y-14689326D01*
X57300425Y-14689330D01*
X57302675Y-14694155D01*
X57392897Y-14887638D01*
X57392898Y-14887639D01*
X57518402Y-15066877D01*
X57673123Y-15221598D01*
X57848355Y-15344297D01*
X57852361Y-15347102D01*
X58003583Y-15417618D01*
X58056022Y-15463790D01*
X58075174Y-15530984D01*
X58054958Y-15597865D01*
X58003583Y-15642382D01*
X57852361Y-15712898D01*
X57852357Y-15712900D01*
X57673121Y-15838402D01*
X57518402Y-15993121D01*
X57392900Y-16172357D01*
X57392898Y-16172361D01*
X57322382Y-16323583D01*
X57276209Y-16376022D01*
X57209016Y-16395174D01*
X57142135Y-16374958D01*
X57097618Y-16323583D01*
X57035797Y-16191009D01*
X57027102Y-16172362D01*
X57027100Y-16172359D01*
X57027099Y-16172357D01*
X56901599Y-15993124D01*
X56826950Y-15918475D01*
X56746877Y-15838402D01*
X56589500Y-15728205D01*
X56567638Y-15712897D01*
X56438477Y-15652669D01*
X56369330Y-15620425D01*
X56369326Y-15620424D01*
X56369322Y-15620422D01*
X56157977Y-15563793D01*
X55940002Y-15544723D01*
X55939998Y-15544723D01*
X55794682Y-15557436D01*
X55722023Y-15563793D01*
X55722020Y-15563793D01*
X55510677Y-15620422D01*
X55510670Y-15620424D01*
X55510670Y-15620425D01*
X55507391Y-15621954D01*
X55312361Y-15712898D01*
X55312357Y-15712900D01*
X55133121Y-15838402D01*
X54978402Y-15993121D01*
X54852900Y-16172357D01*
X54852898Y-16172361D01*
X54782382Y-16323583D01*
X54736209Y-16376022D01*
X54669016Y-16395174D01*
X54602135Y-16374958D01*
X54557618Y-16323583D01*
X54495797Y-16191009D01*
X54487102Y-16172362D01*
X54487100Y-16172359D01*
X54487099Y-16172357D01*
X54361599Y-15993124D01*
X54286950Y-15918475D01*
X54206877Y-15838402D01*
X54027639Y-15712898D01*
X53876414Y-15642381D01*
X53823977Y-15596210D01*
X53804825Y-15529016D01*
X53825041Y-15462135D01*
X53876414Y-15417618D01*
X54027639Y-15347102D01*
X54206877Y-15221598D01*
X54361598Y-15066877D01*
X54487102Y-14887639D01*
X54579575Y-14689330D01*
X54627626Y-14510000D01*
X54918590Y-14510000D01*
X54965233Y-14663766D01*
X55062728Y-14846166D01*
X55062732Y-14846173D01*
X55193944Y-15006055D01*
X55353826Y-15137267D01*
X55353833Y-15137271D01*
X55536233Y-15234766D01*
X55690000Y-15281410D01*
X55690000Y-14695501D01*
X55797685Y-14744680D01*
X55904237Y-14760000D01*
X55975763Y-14760000D01*
X56082315Y-14744680D01*
X56190000Y-14695501D01*
X56190000Y-15281410D01*
X56343766Y-15234766D01*
X56526166Y-15137271D01*
X56526173Y-15137267D01*
X56686055Y-15006055D01*
X56817267Y-14846173D01*
X56817271Y-14846166D01*
X56914766Y-14663766D01*
X56961410Y-14510000D01*
X56373686Y-14510000D01*
X56399493Y-14469844D01*
X56440000Y-14331889D01*
X56440000Y-14188111D01*
X56399493Y-14050156D01*
X56373686Y-14010000D01*
X56961410Y-14010000D01*
X56914766Y-13856233D01*
X56817271Y-13673833D01*
X56817267Y-13673826D01*
X56686055Y-13513944D01*
X56526173Y-13382732D01*
X56526166Y-13382728D01*
X56343763Y-13285232D01*
X56190000Y-13238587D01*
X56190000Y-13824498D01*
X56082315Y-13775320D01*
X55975763Y-13760000D01*
X55904237Y-13760000D01*
X55797685Y-13775320D01*
X55690000Y-13824498D01*
X55690000Y-13238587D01*
X55536236Y-13285232D01*
X55353833Y-13382728D01*
X55353826Y-13382732D01*
X55193944Y-13513944D01*
X55062732Y-13673826D01*
X55062728Y-13673833D01*
X54965233Y-13856233D01*
X54918590Y-14010000D01*
X55506314Y-14010000D01*
X55480507Y-14050156D01*
X55440000Y-14188111D01*
X55440000Y-14331889D01*
X55480507Y-14469844D01*
X55506314Y-14510000D01*
X54918590Y-14510000D01*
X54627626Y-14510000D01*
X54636207Y-14477977D01*
X54655277Y-14260000D01*
X54636207Y-14042023D01*
X54596907Y-13895353D01*
X54579577Y-13830677D01*
X54579576Y-13830676D01*
X54579575Y-13830670D01*
X54487102Y-13632362D01*
X54487100Y-13632359D01*
X54487099Y-13632357D01*
X54361599Y-13453124D01*
X54291203Y-13382728D01*
X54206877Y-13298402D01*
X54053279Y-13190851D01*
X54027638Y-13172897D01*
X53928484Y-13126661D01*
X53829330Y-13080425D01*
X53829326Y-13080424D01*
X53829322Y-13080422D01*
X53617977Y-13023793D01*
X53400002Y-13004723D01*
X53399998Y-13004723D01*
X53254682Y-13017436D01*
X53182023Y-13023793D01*
X53182020Y-13023793D01*
X52970677Y-13080422D01*
X52970668Y-13080426D01*
X52772361Y-13172898D01*
X52772357Y-13172900D01*
X52593121Y-13298402D01*
X52438402Y-13453121D01*
X52312900Y-13632357D01*
X52312898Y-13632361D01*
X52242382Y-13783583D01*
X52196209Y-13836022D01*
X52129016Y-13855174D01*
X52062135Y-13834958D01*
X52017618Y-13783583D01*
X51966437Y-13673826D01*
X51947102Y-13632362D01*
X51947100Y-13632359D01*
X51947099Y-13632357D01*
X51821599Y-13453124D01*
X51751203Y-13382728D01*
X51666877Y-13298402D01*
X51513279Y-13190851D01*
X51487638Y-13172897D01*
X51388484Y-13126661D01*
X51289330Y-13080425D01*
X51289326Y-13080424D01*
X51289322Y-13080422D01*
X51077977Y-13023793D01*
X50860002Y-13004723D01*
X50859998Y-13004723D01*
X50714682Y-13017436D01*
X50642023Y-13023793D01*
X50642020Y-13023793D01*
X50430677Y-13080422D01*
X50430668Y-13080426D01*
X50232361Y-13172898D01*
X50232357Y-13172900D01*
X50053121Y-13298402D01*
X49898402Y-13453121D01*
X49772900Y-13632357D01*
X49772898Y-13632361D01*
X49702382Y-13783583D01*
X49656209Y-13836022D01*
X49589016Y-13855174D01*
X49522135Y-13834958D01*
X49477618Y-13783583D01*
X49426437Y-13673826D01*
X49407102Y-13632362D01*
X49407100Y-13632359D01*
X49407099Y-13632357D01*
X49281599Y-13453124D01*
X49211203Y-13382728D01*
X49126877Y-13298402D01*
X48973279Y-13190851D01*
X48947638Y-13172897D01*
X48848484Y-13126661D01*
X48749330Y-13080425D01*
X48749326Y-13080424D01*
X48749322Y-13080422D01*
X48537977Y-13023793D01*
X48320002Y-13004723D01*
X48319998Y-13004723D01*
X48174682Y-13017436D01*
X48102023Y-13023793D01*
X48102020Y-13023793D01*
X47890677Y-13080422D01*
X47890668Y-13080426D01*
X47692361Y-13172898D01*
X47692357Y-13172900D01*
X47513121Y-13298402D01*
X47358402Y-13453121D01*
X47232900Y-13632357D01*
X47232898Y-13632361D01*
X47162382Y-13783583D01*
X47116209Y-13836022D01*
X47049016Y-13855174D01*
X46982135Y-13834958D01*
X46937618Y-13783583D01*
X46886437Y-13673826D01*
X46867102Y-13632362D01*
X46867100Y-13632359D01*
X46867099Y-13632357D01*
X46741599Y-13453124D01*
X46671203Y-13382728D01*
X46586877Y-13298402D01*
X46433279Y-13190851D01*
X46407638Y-13172897D01*
X46308484Y-13126661D01*
X46209330Y-13080425D01*
X46209326Y-13080424D01*
X46209322Y-13080422D01*
X45997977Y-13023793D01*
X45780002Y-13004723D01*
X45779998Y-13004723D01*
X45634682Y-13017436D01*
X45562023Y-13023793D01*
X45562020Y-13023793D01*
X45350677Y-13080422D01*
X45350668Y-13080426D01*
X45152361Y-13172898D01*
X45152357Y-13172900D01*
X44973121Y-13298402D01*
X44818402Y-13453121D01*
X44692900Y-13632357D01*
X44692898Y-13632361D01*
X44600426Y-13830668D01*
X44600422Y-13830677D01*
X44543793Y-14042020D01*
X44543793Y-14042023D01*
X44543024Y-14050811D01*
X44529586Y-14204419D01*
X44524723Y-14260000D01*
X44543476Y-14474359D01*
X44543793Y-14477975D01*
X44543793Y-14477979D01*
X44600422Y-14689322D01*
X44600424Y-14689326D01*
X44600425Y-14689330D01*
X44602675Y-14694155D01*
X44692897Y-14887638D01*
X44692898Y-14887639D01*
X44818402Y-15066877D01*
X44973123Y-15221598D01*
X45148355Y-15344297D01*
X45152361Y-15347102D01*
X45303583Y-15417618D01*
X45356022Y-15463790D01*
X45375174Y-15530984D01*
X45354958Y-15597865D01*
X45303583Y-15642382D01*
X45152361Y-15712898D01*
X45152357Y-15712900D01*
X44973121Y-15838402D01*
X44818402Y-15993121D01*
X44692900Y-16172357D01*
X44692898Y-16172361D01*
X44622382Y-16323583D01*
X44576209Y-16376022D01*
X44509016Y-16395174D01*
X44442135Y-16374958D01*
X44397618Y-16323583D01*
X44335797Y-16191009D01*
X44327102Y-16172362D01*
X44327100Y-16172359D01*
X44327099Y-16172357D01*
X44201599Y-15993124D01*
X44126950Y-15918475D01*
X44046877Y-15838402D01*
X43889500Y-15728205D01*
X43867638Y-15712897D01*
X43738477Y-15652669D01*
X43669330Y-15620425D01*
X43669326Y-15620424D01*
X43669322Y-15620422D01*
X43457977Y-15563793D01*
X43240002Y-15544723D01*
X43239998Y-15544723D01*
X43094682Y-15557436D01*
X43022023Y-15563793D01*
X43022020Y-15563793D01*
X42810677Y-15620422D01*
X42810670Y-15620424D01*
X42810670Y-15620425D01*
X42807391Y-15621954D01*
X42612361Y-15712898D01*
X42612357Y-15712900D01*
X42433121Y-15838402D01*
X42278402Y-15993121D01*
X42152900Y-16172357D01*
X42152898Y-16172361D01*
X42082382Y-16323583D01*
X42036209Y-16376022D01*
X41969016Y-16395174D01*
X41902135Y-16374958D01*
X41857618Y-16323583D01*
X41795797Y-16191009D01*
X41787102Y-16172362D01*
X41787100Y-16172359D01*
X41787099Y-16172357D01*
X41661599Y-15993124D01*
X41586950Y-15918475D01*
X41506877Y-15838402D01*
X41327639Y-15712898D01*
X41176414Y-15642381D01*
X41123977Y-15596210D01*
X41104825Y-15529016D01*
X41125041Y-15462135D01*
X41176414Y-15417618D01*
X41327639Y-15347102D01*
X41506877Y-15221598D01*
X41661598Y-15066877D01*
X41787102Y-14887639D01*
X41879575Y-14689330D01*
X41927626Y-14510000D01*
X42218590Y-14510000D01*
X42265233Y-14663766D01*
X42362728Y-14846166D01*
X42362732Y-14846173D01*
X42493944Y-15006055D01*
X42653826Y-15137267D01*
X42653833Y-15137271D01*
X42836233Y-15234766D01*
X42990000Y-15281410D01*
X42990000Y-14695501D01*
X43097685Y-14744680D01*
X43204237Y-14760000D01*
X43275763Y-14760000D01*
X43382315Y-14744680D01*
X43490000Y-14695501D01*
X43490000Y-15281410D01*
X43643766Y-15234766D01*
X43826166Y-15137271D01*
X43826173Y-15137267D01*
X43986055Y-15006055D01*
X44117267Y-14846173D01*
X44117271Y-14846166D01*
X44214766Y-14663766D01*
X44261410Y-14510000D01*
X43673686Y-14510000D01*
X43699493Y-14469844D01*
X43740000Y-14331889D01*
X43740000Y-14188111D01*
X43699493Y-14050156D01*
X43673686Y-14010000D01*
X44261410Y-14010000D01*
X44214766Y-13856233D01*
X44117271Y-13673833D01*
X44117267Y-13673826D01*
X43986055Y-13513944D01*
X43826173Y-13382732D01*
X43826166Y-13382728D01*
X43643763Y-13285232D01*
X43490000Y-13238587D01*
X43490000Y-13824498D01*
X43382315Y-13775320D01*
X43275763Y-13760000D01*
X43204237Y-13760000D01*
X43097685Y-13775320D01*
X42990000Y-13824498D01*
X42990000Y-13238587D01*
X42836236Y-13285232D01*
X42653833Y-13382728D01*
X42653826Y-13382732D01*
X42493944Y-13513944D01*
X42362732Y-13673826D01*
X42362728Y-13673833D01*
X42265233Y-13856233D01*
X42218590Y-14010000D01*
X42806314Y-14010000D01*
X42780507Y-14050156D01*
X42740000Y-14188111D01*
X42740000Y-14331889D01*
X42780507Y-14469844D01*
X42806314Y-14510000D01*
X42218590Y-14510000D01*
X41927626Y-14510000D01*
X41936207Y-14477977D01*
X41955277Y-14260000D01*
X41936207Y-14042023D01*
X41896907Y-13895353D01*
X41879577Y-13830677D01*
X41879576Y-13830676D01*
X41879575Y-13830670D01*
X41787102Y-13632362D01*
X41787100Y-13632359D01*
X41787099Y-13632357D01*
X41661599Y-13453124D01*
X41591203Y-13382728D01*
X41506877Y-13298402D01*
X41353279Y-13190851D01*
X41327638Y-13172897D01*
X41228484Y-13126661D01*
X41129330Y-13080425D01*
X41129326Y-13080424D01*
X41129322Y-13080422D01*
X40917977Y-13023793D01*
X40700002Y-13004723D01*
X40699998Y-13004723D01*
X40554682Y-13017436D01*
X40482023Y-13023793D01*
X40482020Y-13023793D01*
X40270677Y-13080422D01*
X40270668Y-13080426D01*
X40072361Y-13172898D01*
X40072357Y-13172900D01*
X39893121Y-13298402D01*
X39738402Y-13453121D01*
X39612900Y-13632357D01*
X39612898Y-13632361D01*
X39542382Y-13783583D01*
X39496209Y-13836022D01*
X39429016Y-13855174D01*
X39362135Y-13834958D01*
X39317618Y-13783583D01*
X39266437Y-13673826D01*
X39247102Y-13632362D01*
X39247100Y-13632359D01*
X39247099Y-13632357D01*
X39121599Y-13453124D01*
X39051203Y-13382728D01*
X38966877Y-13298402D01*
X38813279Y-13190851D01*
X38787638Y-13172897D01*
X38688484Y-13126661D01*
X38589330Y-13080425D01*
X38589326Y-13080424D01*
X38589322Y-13080422D01*
X38377977Y-13023793D01*
X38160002Y-13004723D01*
X38159998Y-13004723D01*
X38014682Y-13017436D01*
X37942023Y-13023793D01*
X37942020Y-13023793D01*
X37730677Y-13080422D01*
X37730668Y-13080426D01*
X37532361Y-13172898D01*
X37532357Y-13172900D01*
X37353121Y-13298402D01*
X37198402Y-13453121D01*
X37072900Y-13632357D01*
X37072898Y-13632361D01*
X36980426Y-13830668D01*
X36980422Y-13830677D01*
X36923793Y-14042020D01*
X36923793Y-14042023D01*
X36923024Y-14050811D01*
X36909586Y-14204419D01*
X36904723Y-14260000D01*
X36923476Y-14474359D01*
X36923793Y-14477975D01*
X36923793Y-14477979D01*
X36980422Y-14689322D01*
X36980424Y-14689326D01*
X36980425Y-14689330D01*
X36982675Y-14694155D01*
X37072897Y-14887638D01*
X37072898Y-14887639D01*
X37198402Y-15066877D01*
X37353123Y-15221598D01*
X37528355Y-15344297D01*
X37532361Y-15347102D01*
X37683583Y-15417618D01*
X37736022Y-15463790D01*
X37755174Y-15530984D01*
X37734958Y-15597865D01*
X37683583Y-15642382D01*
X37532361Y-15712898D01*
X37532357Y-15712900D01*
X37353121Y-15838402D01*
X37198402Y-15993121D01*
X37072900Y-16172357D01*
X37072898Y-16172361D01*
X37002382Y-16323583D01*
X36956209Y-16376022D01*
X36889016Y-16395174D01*
X36822135Y-16374958D01*
X36777618Y-16323583D01*
X36715797Y-16191009D01*
X36707102Y-16172362D01*
X36707100Y-16172359D01*
X36707099Y-16172357D01*
X36581599Y-15993124D01*
X36506950Y-15918475D01*
X36426877Y-15838402D01*
X36269500Y-15728205D01*
X36247638Y-15712897D01*
X36118477Y-15652669D01*
X36049330Y-15620425D01*
X36049326Y-15620424D01*
X36049322Y-15620422D01*
X35837977Y-15563793D01*
X35620002Y-15544723D01*
X35619998Y-15544723D01*
X35474682Y-15557436D01*
X35402023Y-15563793D01*
X35402020Y-15563793D01*
X35190677Y-15620422D01*
X35190670Y-15620424D01*
X35190670Y-15620425D01*
X35187391Y-15621954D01*
X34992361Y-15712898D01*
X34992357Y-15712900D01*
X34813121Y-15838402D01*
X34658402Y-15993121D01*
X34532900Y-16172357D01*
X34532898Y-16172361D01*
X34462382Y-16323583D01*
X34416209Y-16376022D01*
X34349016Y-16395174D01*
X34282135Y-16374958D01*
X34237618Y-16323583D01*
X34175797Y-16191009D01*
X34167102Y-16172362D01*
X34167100Y-16172359D01*
X34167099Y-16172357D01*
X34041599Y-15993124D01*
X33966950Y-15918475D01*
X33886877Y-15838402D01*
X33707639Y-15712898D01*
X33556414Y-15642381D01*
X33503977Y-15596210D01*
X33484825Y-15529016D01*
X33505041Y-15462135D01*
X33556414Y-15417618D01*
X33707639Y-15347102D01*
X33886877Y-15221598D01*
X34041598Y-15066877D01*
X34167102Y-14887639D01*
X34259575Y-14689330D01*
X34307626Y-14510000D01*
X34598590Y-14510000D01*
X34645233Y-14663766D01*
X34742728Y-14846166D01*
X34742732Y-14846173D01*
X34873944Y-15006055D01*
X35033826Y-15137267D01*
X35033833Y-15137271D01*
X35216233Y-15234766D01*
X35370000Y-15281410D01*
X35370000Y-14695501D01*
X35477685Y-14744680D01*
X35584237Y-14760000D01*
X35655763Y-14760000D01*
X35762315Y-14744680D01*
X35870000Y-14695501D01*
X35870000Y-15281410D01*
X36023766Y-15234766D01*
X36206166Y-15137271D01*
X36206173Y-15137267D01*
X36366055Y-15006055D01*
X36497267Y-14846173D01*
X36497271Y-14846166D01*
X36594766Y-14663766D01*
X36641410Y-14510000D01*
X36053686Y-14510000D01*
X36079493Y-14469844D01*
X36120000Y-14331889D01*
X36120000Y-14188111D01*
X36079493Y-14050156D01*
X36053686Y-14010000D01*
X36641410Y-14010000D01*
X36594766Y-13856233D01*
X36497271Y-13673833D01*
X36497267Y-13673826D01*
X36366055Y-13513944D01*
X36206173Y-13382732D01*
X36206166Y-13382728D01*
X36023763Y-13285232D01*
X35870000Y-13238587D01*
X35870000Y-13824498D01*
X35762315Y-13775320D01*
X35655763Y-13760000D01*
X35584237Y-13760000D01*
X35477685Y-13775320D01*
X35370000Y-13824498D01*
X35370000Y-13238587D01*
X35216236Y-13285232D01*
X35033833Y-13382728D01*
X35033826Y-13382732D01*
X34873944Y-13513944D01*
X34742732Y-13673826D01*
X34742728Y-13673833D01*
X34645233Y-13856233D01*
X34598590Y-14010000D01*
X35186314Y-14010000D01*
X35160507Y-14050156D01*
X35120000Y-14188111D01*
X35120000Y-14331889D01*
X35160507Y-14469844D01*
X35186314Y-14510000D01*
X34598590Y-14510000D01*
X34307626Y-14510000D01*
X34316207Y-14477977D01*
X34335277Y-14260000D01*
X34316207Y-14042023D01*
X34276907Y-13895353D01*
X34259577Y-13830677D01*
X34259576Y-13830676D01*
X34259575Y-13830670D01*
X34167102Y-13632362D01*
X34167100Y-13632359D01*
X34167099Y-13632357D01*
X34041599Y-13453124D01*
X33971203Y-13382728D01*
X33886877Y-13298402D01*
X33733279Y-13190851D01*
X33707638Y-13172897D01*
X33608484Y-13126661D01*
X33509330Y-13080425D01*
X33509326Y-13080424D01*
X33509322Y-13080422D01*
X33297977Y-13023793D01*
X33080002Y-13004723D01*
X33079998Y-13004723D01*
X32934682Y-13017436D01*
X32862023Y-13023793D01*
X32862020Y-13023793D01*
X32650677Y-13080422D01*
X32650668Y-13080426D01*
X32452361Y-13172898D01*
X32452357Y-13172900D01*
X32273121Y-13298402D01*
X32118402Y-13453121D01*
X31992900Y-13632357D01*
X31992898Y-13632361D01*
X31922382Y-13783583D01*
X31876209Y-13836022D01*
X31809016Y-13855174D01*
X31742135Y-13834958D01*
X31697618Y-13783583D01*
X31646437Y-13673826D01*
X31627102Y-13632362D01*
X31627100Y-13632359D01*
X31627099Y-13632357D01*
X31501599Y-13453124D01*
X31431203Y-13382728D01*
X31346877Y-13298402D01*
X31193279Y-13190851D01*
X31167638Y-13172897D01*
X31068484Y-13126661D01*
X30969330Y-13080425D01*
X30969326Y-13080424D01*
X30969322Y-13080422D01*
X30757977Y-13023793D01*
X30540002Y-13004723D01*
X30539998Y-13004723D01*
X30394682Y-13017436D01*
X30322023Y-13023793D01*
X30322020Y-13023793D01*
X30110677Y-13080422D01*
X30110668Y-13080426D01*
X29912361Y-13172898D01*
X29912357Y-13172900D01*
X29733121Y-13298402D01*
X29578402Y-13453121D01*
X29452900Y-13632357D01*
X29452898Y-13632361D01*
X29382382Y-13783583D01*
X29336209Y-13836022D01*
X29269016Y-13855174D01*
X29202135Y-13834958D01*
X29157618Y-13783583D01*
X29106437Y-13673826D01*
X29087102Y-13632362D01*
X29087100Y-13632359D01*
X29087099Y-13632357D01*
X28961599Y-13453124D01*
X28891203Y-13382728D01*
X28806877Y-13298402D01*
X28653279Y-13190851D01*
X28627638Y-13172897D01*
X28528484Y-13126661D01*
X28429330Y-13080425D01*
X28429326Y-13080424D01*
X28429322Y-13080422D01*
X28217977Y-13023793D01*
X28000002Y-13004723D01*
X27999998Y-13004723D01*
X27854682Y-13017436D01*
X27782023Y-13023793D01*
X27782020Y-13023793D01*
X27570677Y-13080422D01*
X27570668Y-13080426D01*
X27372361Y-13172898D01*
X27372357Y-13172900D01*
X27193121Y-13298402D01*
X27038402Y-13453121D01*
X26912900Y-13632357D01*
X26912898Y-13632361D01*
X26820426Y-13830668D01*
X26820422Y-13830677D01*
X26763793Y-14042020D01*
X26763793Y-14042023D01*
X26763024Y-14050811D01*
X26749586Y-14204419D01*
X26744723Y-14260000D01*
X26763476Y-14474359D01*
X26763793Y-14477975D01*
X26763793Y-14477979D01*
X26820422Y-14689322D01*
X26820424Y-14689326D01*
X26820425Y-14689330D01*
X26822675Y-14694155D01*
X26912897Y-14887638D01*
X26912898Y-14887639D01*
X27038402Y-15066877D01*
X27193123Y-15221598D01*
X27368355Y-15344297D01*
X27372361Y-15347102D01*
X27523583Y-15417618D01*
X27576022Y-15463790D01*
X27595174Y-15530984D01*
X27574958Y-15597865D01*
X27523583Y-15642382D01*
X27372361Y-15712898D01*
X27372357Y-15712900D01*
X27193121Y-15838402D01*
X27038402Y-15993121D01*
X26912900Y-16172357D01*
X26912898Y-16172361D01*
X26842382Y-16323583D01*
X26796209Y-16376022D01*
X26729016Y-16395174D01*
X26662135Y-16374958D01*
X26617618Y-16323583D01*
X26555797Y-16191009D01*
X26547102Y-16172362D01*
X26547100Y-16172359D01*
X26547099Y-16172357D01*
X26421599Y-15993124D01*
X26346950Y-15918475D01*
X26266877Y-15838402D01*
X26109500Y-15728205D01*
X26087638Y-15712897D01*
X25958477Y-15652669D01*
X25889330Y-15620425D01*
X25889326Y-15620424D01*
X25889322Y-15620422D01*
X25677977Y-15563793D01*
X25460002Y-15544723D01*
X25459998Y-15544723D01*
X25314682Y-15557436D01*
X25242023Y-15563793D01*
X25242020Y-15563793D01*
X25030677Y-15620422D01*
X25030670Y-15620424D01*
X25030670Y-15620425D01*
X25027391Y-15621954D01*
X24832361Y-15712898D01*
X24832357Y-15712900D01*
X24653121Y-15838402D01*
X24498402Y-15993121D01*
X24372900Y-16172357D01*
X24372898Y-16172361D01*
X24302382Y-16323583D01*
X24256209Y-16376022D01*
X24189016Y-16395174D01*
X24122135Y-16374958D01*
X24077618Y-16323583D01*
X24015797Y-16191009D01*
X24007102Y-16172362D01*
X24007100Y-16172359D01*
X24007099Y-16172357D01*
X23881599Y-15993124D01*
X23806950Y-15918475D01*
X23726877Y-15838402D01*
X23547639Y-15712898D01*
X23396414Y-15642381D01*
X23343977Y-15596210D01*
X23324825Y-15529016D01*
X23345041Y-15462135D01*
X23396414Y-15417618D01*
X23547639Y-15347102D01*
X23726877Y-15221598D01*
X23881598Y-15066877D01*
X24007102Y-14887639D01*
X24099575Y-14689330D01*
X24147626Y-14510000D01*
X24438590Y-14510000D01*
X24485233Y-14663766D01*
X24582728Y-14846166D01*
X24582732Y-14846173D01*
X24713944Y-15006055D01*
X24873826Y-15137267D01*
X24873833Y-15137271D01*
X25056233Y-15234766D01*
X25210000Y-15281410D01*
X25210000Y-14695501D01*
X25317685Y-14744680D01*
X25424237Y-14760000D01*
X25495763Y-14760000D01*
X25602315Y-14744680D01*
X25710000Y-14695501D01*
X25710000Y-15281410D01*
X25863766Y-15234766D01*
X26046166Y-15137271D01*
X26046173Y-15137267D01*
X26206055Y-15006055D01*
X26337267Y-14846173D01*
X26337271Y-14846166D01*
X26434766Y-14663766D01*
X26481410Y-14510000D01*
X25893686Y-14510000D01*
X25919493Y-14469844D01*
X25960000Y-14331889D01*
X25960000Y-14188111D01*
X25919493Y-14050156D01*
X25893686Y-14010000D01*
X26481410Y-14010000D01*
X26434766Y-13856233D01*
X26337271Y-13673833D01*
X26337267Y-13673826D01*
X26206055Y-13513944D01*
X26046173Y-13382732D01*
X26046166Y-13382728D01*
X25863763Y-13285232D01*
X25710000Y-13238587D01*
X25710000Y-13824498D01*
X25602315Y-13775320D01*
X25495763Y-13760000D01*
X25424237Y-13760000D01*
X25317685Y-13775320D01*
X25210000Y-13824498D01*
X25210000Y-13238587D01*
X25056236Y-13285232D01*
X24873833Y-13382728D01*
X24873826Y-13382732D01*
X24713944Y-13513944D01*
X24582732Y-13673826D01*
X24582728Y-13673833D01*
X24485233Y-13856233D01*
X24438590Y-14010000D01*
X25026314Y-14010000D01*
X25000507Y-14050156D01*
X24960000Y-14188111D01*
X24960000Y-14331889D01*
X25000507Y-14469844D01*
X25026314Y-14510000D01*
X24438590Y-14510000D01*
X24147626Y-14510000D01*
X24156207Y-14477977D01*
X24175277Y-14260000D01*
X24156207Y-14042023D01*
X24116907Y-13895353D01*
X24099577Y-13830677D01*
X24099576Y-13830676D01*
X24099575Y-13830670D01*
X24007102Y-13632362D01*
X24007100Y-13632359D01*
X24007099Y-13632357D01*
X23881599Y-13453124D01*
X23811203Y-13382728D01*
X23726877Y-13298402D01*
X23573279Y-13190851D01*
X23547638Y-13172897D01*
X23448484Y-13126661D01*
X23349330Y-13080425D01*
X23349326Y-13080424D01*
X23349322Y-13080422D01*
X23137977Y-13023793D01*
X22920002Y-13004723D01*
X22919998Y-13004723D01*
X22774682Y-13017436D01*
X22702023Y-13023793D01*
X22702020Y-13023793D01*
X22490677Y-13080422D01*
X22490668Y-13080426D01*
X22292361Y-13172898D01*
X22292357Y-13172900D01*
X22113121Y-13298402D01*
X21958402Y-13453121D01*
X21832900Y-13632357D01*
X21832898Y-13632361D01*
X21762382Y-13783583D01*
X21716209Y-13836022D01*
X21649016Y-13855174D01*
X21582135Y-13834958D01*
X21537618Y-13783583D01*
X21486437Y-13673826D01*
X21467102Y-13632362D01*
X21467100Y-13632359D01*
X21467099Y-13632357D01*
X21341599Y-13453124D01*
X21271203Y-13382728D01*
X21186877Y-13298402D01*
X21033279Y-13190851D01*
X21007638Y-13172897D01*
X20908484Y-13126661D01*
X20809330Y-13080425D01*
X20809326Y-13080424D01*
X20809322Y-13080422D01*
X20597977Y-13023793D01*
X20380002Y-13004723D01*
X20379998Y-13004723D01*
X20234682Y-13017436D01*
X20162023Y-13023793D01*
X20162020Y-13023793D01*
X19950677Y-13080422D01*
X19950668Y-13080426D01*
X19752361Y-13172898D01*
X19752357Y-13172900D01*
X19573121Y-13298402D01*
X19418402Y-13453121D01*
X19292900Y-13632357D01*
X19292898Y-13632361D01*
X19200426Y-13830668D01*
X19200422Y-13830677D01*
X19143793Y-14042020D01*
X19143793Y-14042023D01*
X19143024Y-14050811D01*
X19129586Y-14204419D01*
X19124723Y-14260000D01*
X19143476Y-14474359D01*
X19143793Y-14477975D01*
X19143793Y-14477979D01*
X19200422Y-14689322D01*
X19200424Y-14689326D01*
X19200425Y-14689330D01*
X19202675Y-14694155D01*
X19292897Y-14887638D01*
X19292898Y-14887639D01*
X19418402Y-15066877D01*
X19573123Y-15221598D01*
X19719263Y-15323926D01*
X19762887Y-15378502D01*
X19770081Y-15448000D01*
X19738558Y-15510355D01*
X19678328Y-15545769D01*
X19648140Y-15549500D01*
X19498482Y-15549500D01*
X19417519Y-15562323D01*
X19404696Y-15564354D01*
X19291658Y-15621950D01*
X19291657Y-15621951D01*
X19291652Y-15621954D01*
X19201954Y-15711652D01*
X19201951Y-15711657D01*
X19201950Y-15711658D01*
X19195346Y-15724619D01*
X19144352Y-15824698D01*
X19129500Y-15918475D01*
X19129500Y-17681517D01*
X19137017Y-17728975D01*
X19144354Y-17775304D01*
X19201950Y-17888342D01*
X19201952Y-17888344D01*
X19201954Y-17888347D01*
X19291652Y-17978045D01*
X19291654Y-17978046D01*
X19291658Y-17978050D01*
X19391068Y-18028702D01*
X19404698Y-18035647D01*
X19498475Y-18050499D01*
X19498481Y-18050500D01*
X20626968Y-18050499D01*
X20694007Y-18070184D01*
X20739762Y-18122987D01*
X20749706Y-18192146D01*
X20720681Y-18255702D01*
X20714649Y-18262180D01*
X19538650Y-19438181D01*
X19477327Y-19471666D01*
X19450969Y-19474500D01*
X15511110Y-19474500D01*
X15506877Y-19474428D01*
X15498521Y-19474142D01*
X15445755Y-19472340D01*
X15445754Y-19472340D01*
X15445751Y-19472340D01*
X15407932Y-19481556D01*
X15395464Y-19483926D01*
X15356887Y-19489229D01*
X15341611Y-19495864D01*
X15321585Y-19502599D01*
X15305407Y-19506542D01*
X15305405Y-19506543D01*
X15271478Y-19525619D01*
X15260111Y-19531264D01*
X15224395Y-19546778D01*
X15224391Y-19546780D01*
X15211471Y-19557292D01*
X15193991Y-19569188D01*
X15179490Y-19577341D01*
X15179486Y-19577344D01*
X15151960Y-19604869D01*
X15142540Y-19613370D01*
X15112335Y-19637945D01*
X15102728Y-19651554D01*
X15089109Y-19667720D01*
X13136270Y-21620559D01*
X13133227Y-21623500D01*
X13088532Y-21665243D01*
X13088531Y-21665244D01*
X13068302Y-21698508D01*
X13061161Y-21709000D01*
X13037639Y-21740019D01*
X13037633Y-21740029D01*
X13031525Y-21755517D01*
X13022125Y-21774442D01*
X13013477Y-21788664D01*
X13013475Y-21788670D01*
X13002971Y-21826155D01*
X12998926Y-21838181D01*
X12984641Y-21874409D01*
X12984640Y-21874411D01*
X12982937Y-21890976D01*
X12978991Y-21911739D01*
X12974500Y-21927767D01*
X12974500Y-21966703D01*
X12973850Y-21979382D01*
X12969869Y-22018107D01*
X12969869Y-22018111D01*
X12972697Y-22034511D01*
X12974500Y-22055580D01*
X12974500Y-32488890D01*
X12974428Y-32493123D01*
X12972340Y-32554250D01*
X12981556Y-32592068D01*
X12983927Y-32604540D01*
X12989228Y-32643109D01*
X12995864Y-32658387D01*
X13002602Y-32678424D01*
X13006542Y-32694593D01*
X13006543Y-32694594D01*
X13025618Y-32728520D01*
X13031266Y-32739890D01*
X13046782Y-32775612D01*
X13057283Y-32788518D01*
X13069182Y-32806000D01*
X13077342Y-32820512D01*
X13104878Y-32848048D01*
X13113377Y-32857466D01*
X13137943Y-32887662D01*
X13137944Y-32887663D01*
X13137946Y-32887665D01*
X13151544Y-32897264D01*
X13167715Y-32910885D01*
X14224917Y-33968087D01*
X14257010Y-34023672D01*
X14273636Y-34085719D01*
X14368994Y-34290213D01*
X14368996Y-34290217D01*
X14498408Y-34475036D01*
X14498413Y-34475042D01*
X14657957Y-34634586D01*
X14657963Y-34634591D01*
X14842782Y-34764003D01*
X14842783Y-34764003D01*
X14842787Y-34764006D01*
X14908937Y-34794852D01*
X14921301Y-34800618D01*
X14973740Y-34846791D01*
X14992892Y-34913984D01*
X14972676Y-34980866D01*
X14921301Y-35025382D01*
X14842787Y-35061994D01*
X14842782Y-35061996D01*
X14657963Y-35191408D01*
X14657957Y-35191413D01*
X14498413Y-35350957D01*
X14498408Y-35350963D01*
X14368996Y-35535782D01*
X14368994Y-35535786D01*
X14273638Y-35740278D01*
X14273634Y-35740287D01*
X14215240Y-35958219D01*
X14215238Y-35958230D01*
X14195574Y-36182998D01*
X14195574Y-36183001D01*
X14215238Y-36407769D01*
X14215240Y-36407780D01*
X14261547Y-36580602D01*
X14259884Y-36650452D01*
X14229453Y-36700376D01*
X12936270Y-37993559D01*
X12933227Y-37996500D01*
X12888532Y-38038243D01*
X12888531Y-38038244D01*
X12868302Y-38071508D01*
X12861161Y-38082000D01*
X12837639Y-38113019D01*
X12837633Y-38113029D01*
X12831525Y-38128517D01*
X12822125Y-38147442D01*
X12813477Y-38161664D01*
X12813475Y-38161670D01*
X12802971Y-38199155D01*
X12798926Y-38211181D01*
X12784641Y-38247409D01*
X12784640Y-38247411D01*
X12782937Y-38263976D01*
X12778991Y-38284739D01*
X12774500Y-38300767D01*
X12774500Y-38339703D01*
X12773850Y-38352382D01*
X12769869Y-38391107D01*
X12769869Y-38391111D01*
X12000500Y-38391111D01*
X12000500Y-15500000D01*
X12394615Y-15500000D01*
X12414140Y-15847688D01*
X12414142Y-15847700D01*
X12472314Y-16190081D01*
X12472473Y-16191013D01*
X12568879Y-16525644D01*
X12702145Y-16847376D01*
X12870595Y-17152164D01*
X13072112Y-17436176D01*
X13304161Y-17695839D01*
X13563824Y-17927888D01*
X13847836Y-18129405D01*
X14152624Y-18297855D01*
X14474356Y-18431121D01*
X14808987Y-18527527D01*
X15152307Y-18585859D01*
X15500000Y-18605385D01*
X15847693Y-18585859D01*
X16191013Y-18527527D01*
X16525644Y-18431121D01*
X16847376Y-18297855D01*
X17152164Y-18129405D01*
X17436176Y-17927888D01*
X17695839Y-17695839D01*
X17927888Y-17436176D01*
X18129405Y-17152164D01*
X18297855Y-16847376D01*
X18431121Y-16525644D01*
X18527527Y-16191013D01*
X18585859Y-15847693D01*
X18605385Y-15500000D01*
X18585859Y-15152307D01*
X18527527Y-14808987D01*
X18431121Y-14474356D01*
X18297855Y-14152624D01*
X18129405Y-13847836D01*
X17927888Y-13563824D01*
X17695839Y-13304161D01*
X17436176Y-13072112D01*
X17152164Y-12870595D01*
X16847376Y-12702145D01*
X16525644Y-12568879D01*
X16217539Y-12480115D01*
X16191017Y-12472474D01*
X16191009Y-12472472D01*
X15847700Y-12414142D01*
X15847688Y-12414140D01*
X15500000Y-12394615D01*
X15152311Y-12414140D01*
X15152299Y-12414142D01*
X14808990Y-12472472D01*
X14808982Y-12472474D01*
X14474359Y-12568878D01*
X14474356Y-12568879D01*
X14380124Y-12607911D01*
X14152625Y-12702144D01*
X13847835Y-12870595D01*
X13675402Y-12992943D01*
X13563824Y-13072112D01*
X13304161Y-13304161D01*
X13072112Y-13563824D01*
X13023482Y-13632362D01*
X12870595Y-13847835D01*
X12702144Y-14152625D01*
X12568878Y-14474359D01*
X12472474Y-14808982D01*
X12472472Y-14808990D01*
X12414142Y-15152299D01*
X12414140Y-15152311D01*
X12394615Y-15500000D01*
X12000500Y-15500000D01*
X12000500Y-15003245D01*
X12000670Y-14996756D01*
X12007501Y-14866421D01*
X12017628Y-14686087D01*
X12018954Y-14673694D01*
X12042513Y-14524947D01*
X12042700Y-14523809D01*
X12069739Y-14364666D01*
X12072199Y-14353402D01*
X12112150Y-14204305D01*
X12112709Y-14202293D01*
X12156351Y-14050811D01*
X12159724Y-14040753D01*
X12215583Y-13895233D01*
X12216692Y-13892452D01*
X12276439Y-13748212D01*
X12280488Y-13739429D01*
X12351569Y-13599925D01*
X12353521Y-13596250D01*
X12428588Y-13460426D01*
X12433065Y-13452962D01*
X12518633Y-13321199D01*
X12521434Y-13317077D01*
X12611010Y-13190832D01*
X12615733Y-13184603D01*
X12714702Y-13062386D01*
X12718532Y-13057885D01*
X12821613Y-12942537D01*
X12826323Y-12937556D01*
X12937556Y-12826323D01*
X12942537Y-12821613D01*
X13057885Y-12718532D01*
X13062386Y-12714702D01*
X13184603Y-12615733D01*
X13190832Y-12611010D01*
X13317077Y-12521434D01*
X13321199Y-12518633D01*
X13452962Y-12433065D01*
X13460426Y-12428588D01*
X13596255Y-12353517D01*
X13599934Y-12351565D01*
X13739429Y-12280488D01*
X13748212Y-12276439D01*
X13892452Y-12216692D01*
X13895233Y-12215583D01*
X14040753Y-12159724D01*
X14050811Y-12156351D01*
X14202293Y-12112709D01*
X14204305Y-12112150D01*
X14353402Y-12072199D01*
X14364666Y-12069739D01*
X14523809Y-12042700D01*
X14524947Y-12042513D01*
X14673694Y-12018954D01*
X14686087Y-12017628D01*
X14866554Y-12007493D01*
X14996756Y-12000669D01*
X15003245Y-12000500D01*
X73996755Y-12000500D01*
X74003243Y-12000669D01*
G37*
%TD.AperFunction*%
%TD*%
D21*
X36800000Y-56300000D03*
X62500000Y-54200000D03*
X63500000Y-55800000D03*
X59100000Y-61300000D03*
X50200000Y-58875000D03*
X34900000Y-59500000D03*
X25225000Y-52800000D03*
X21200000Y-40800000D03*
X20700000Y-53200000D03*
X65400000Y-21800000D03*
X65800000Y-37400000D03*
X62200000Y-66800000D03*
X55900000Y-24400000D03*
X23025000Y-19300000D03*
X30100000Y-55600000D03*
X20800000Y-30000000D03*
X67600000Y-55700000D03*
X37700000Y-24700000D03*
X30900000Y-49700000D03*
X39100000Y-66700000D03*
X56800000Y-41600000D03*
X57800000Y-51100000D03*
X30900000Y-46700000D03*
X46000000Y-37700000D03*
X73700000Y-51100000D03*
X15200000Y-52400000D03*
X25400000Y-54400000D03*
X19400000Y-37300000D03*
X17000000Y-61000000D03*
X68800000Y-25300000D03*
X25200000Y-51000000D03*
X35200000Y-22900000D03*
X40900000Y-39900000D03*
X66000000Y-46800000D03*
X30900000Y-41300000D03*
X27462312Y-20200331D03*
X24100000Y-24375000D03*
X25500000Y-21500000D03*
X27450000Y-21500000D03*
X25500000Y-22800000D03*
X27400000Y-22800000D03*
X43200000Y-24700000D03*
X55500000Y-56100000D03*
X42587347Y-60187347D03*
X44100000Y-60500000D03*
X15490000Y-26023000D03*
X73783000Y-26023000D03*
X15490000Y-28563000D03*
X73783000Y-28563000D03*
X16760000Y-22975000D03*
X72640000Y-22975000D03*
X16760000Y-42025000D03*
X72640000Y-42025000D03*
X15490000Y-31103000D03*
X73783000Y-31103000D03*
X15490000Y-33643000D03*
X73783000Y-33643000D03*
X15490000Y-38723000D03*
X73783000Y-38723000D03*
X15490000Y-36183000D03*
X73783000Y-36183000D03*
X17700000Y-56180000D03*
X20240000Y-56180000D03*
X22780000Y-56180000D03*
X22730000Y-48560000D03*
X20190000Y-48560000D03*
X17650000Y-48560000D03*
X15110000Y-48560000D03*
X48140000Y-64800000D03*
X45600000Y-64800000D03*
X20380000Y-16800000D03*
X20380000Y-14260000D03*
X22920000Y-16800000D03*
X22920000Y-14260000D03*
X25460000Y-16800000D03*
X25460000Y-14260000D03*
X28000000Y-16800000D03*
X28000000Y-14260000D03*
X30540000Y-16800000D03*
X30540000Y-14260000D03*
X33080000Y-16800000D03*
X33080000Y-14260000D03*
X35620000Y-16800000D03*
X35620000Y-14260000D03*
X38160000Y-16800000D03*
X38160000Y-14260000D03*
X40700000Y-16800000D03*
X40700000Y-14260000D03*
X43240000Y-16800000D03*
X43240000Y-14260000D03*
X45780000Y-16800000D03*
X45780000Y-14260000D03*
X48320000Y-16800000D03*
X48320000Y-14260000D03*
X50860000Y-16800000D03*
X50860000Y-14260000D03*
X53400000Y-16800000D03*
X53400000Y-14260000D03*
X55940000Y-16800000D03*
X55940000Y-14260000D03*
X58480000Y-16800000D03*
X58480000Y-14260000D03*
X61020000Y-16800000D03*
X61020000Y-14260000D03*
X63560000Y-16800000D03*
X63560000Y-14260000D03*
X66100000Y-16800000D03*
X66100000Y-14260000D03*
X68640000Y-16800000D03*
X68640000Y-14260000D03*
X33640000Y-52000000D03*
X33640000Y-49460000D03*
X36180000Y-52000000D03*
X36180000Y-49460000D03*
X38720000Y-52000000D03*
X38720000Y-49460000D03*
X41260000Y-52000000D03*
X41260000Y-49460000D03*
X43800000Y-52000000D03*
X43800000Y-49460000D03*
X46340000Y-52000000D03*
X46340000Y-49460000D03*
X48880000Y-52000000D03*
X48880000Y-49460000D03*
X51420000Y-52000000D03*
X51420000Y-49460000D03*
X53960000Y-52000000D03*
X53960000Y-49460000D03*
X56500000Y-52000000D03*
X56500000Y-49460000D03*
X15500000Y-64500000D03*
X73500000Y-64500000D03*
X73500000Y-15500000D03*
X15500000Y-15500000D03*
X20470000Y-64800000D03*
X23010000Y-64800000D03*
X25550000Y-64800000D03*
X67900000Y-59875000D03*
X67900000Y-62415000D03*
X67900000Y-64955000D03*
M02*
