M48
METRIC,TZ
T1C0.400
T2C0.762
T3C1.000
T4C1.016
T5C2.500
T6C2.700
%
G90
G05
T1
X15200Y-52400
X17000Y-61000
X19400Y-37300
X20700Y-53200
X20800Y-30000
X21200Y-40800
X23025Y-19300
X24100Y-24375
X25200Y-51000
X25225Y-52800
X25400Y-54400
X25500Y-21500
X25500Y-22800
X27400Y-22800
X27450Y-21500
X27462Y-20200
X30100Y-55600
X30900Y-41300
X30900Y-46700
X30900Y-49700
X34900Y-59500
X35200Y-22900
X36800Y-56300
X37700Y-24700
X39100Y-66700
X40900Y-39900
X42587Y-60187
X43200Y-24700
X44100Y-60500
X46000Y-37700
X50200Y-58875
X55500Y-56100
X55900Y-24400
X56800Y-41600
X57800Y-51100
X59100Y-61300
X62200Y-66800
X62500Y-54200
X63500Y-55800
X65400Y-21800
X65800Y-37400
X66000Y-46800
X67600Y-55700
X68800Y-25300
X73700Y-51100
T2
X15110Y-48560
X17650Y-48560
X17700Y-56180
X20190Y-48560
X20240Y-56180
X22730Y-48560
X22780Y-56180
T3
X20380Y-14260
X20380Y-16800
X20470Y-64800
X22920Y-14260
X22920Y-16800
X23010Y-64800
X25460Y-14260
X25460Y-16800
X25550Y-64800
X28000Y-14260
X28000Y-16800
X30540Y-14260
X30540Y-16800
X33080Y-14260
X33080Y-16800
X33640Y-49460
X33640Y-52000
X35620Y-14260
X35620Y-16800
X36180Y-49460
X36180Y-52000
X38160Y-14260
X38160Y-16800
X38720Y-49460
X38720Y-52000
X40700Y-14260
X40700Y-16800
X41260Y-49460
X41260Y-52000
X43240Y-14260
X43240Y-16800
X43800Y-49460
X43800Y-52000
X45600Y-64800
X45780Y-14260
X45780Y-16800
X46340Y-49460
X46340Y-52000
X48140Y-64800
X48320Y-14260
X48320Y-16800
X48880Y-49460
X48880Y-52000
X50860Y-14260
X50860Y-16800
X51420Y-49460
X51420Y-52000
X53400Y-14260
X53400Y-16800
X53960Y-49460
X53960Y-52000
X55940Y-14260
X55940Y-16800
X56500Y-49460
X56500Y-52000
X58480Y-14260
X58480Y-16800
X61020Y-14260
X61020Y-16800
X63560Y-14260
X63560Y-16800
X66100Y-14260
X66100Y-16800
X67900Y-59875
X67900Y-62415
X67900Y-64955
X68640Y-14260
X68640Y-16800
T4
X15490Y-26023
X15490Y-28563
X15490Y-31103
X15490Y-33643
X15490Y-36183
X15490Y-38723
X73783Y-26023
X73783Y-28563
X73783Y-31103
X73783Y-33643
X73783Y-36183
X73783Y-38723
T5
X16760Y-22975
X16760Y-42025
X72640Y-22975
X72640Y-42025
T6
X15500Y-15500
X15500Y-64500
X73500Y-15500
X73500Y-64500
M30
