M48
METRIC,TZ
T1C0.400
T2C0.600
T3C0.750
T4C1.000
T5C1.100
T6C3.200
%
G90
G05
T1
X14000Y-81050
X20200Y-14500
X20300Y-75300
X21100Y-18600
X21100Y-42100
X21150Y-40700
X21150Y-63850
X21700Y-88050
X23600Y-14450
X23650Y-18600
X23650Y-42300
X24900Y-40400
X26184Y-42267
X26200Y-18450
X28600Y-75600
X28730Y-42350
X28750Y-18400
X31300Y-40300
X32500Y-68300
X32500Y-75100
X36300Y-31050
X38200Y-19500
X40000Y-42200
X43800Y-42900
X47900Y-28500
X47900Y-61300
X48600Y-75850
X48900Y-68400
X49511Y-55374
X49550Y-53750
X49564Y-16278
X49650Y-71750
X49900Y-14100
X50450Y-54800
X50650Y-20100
X50900Y-58925
X50900Y-62800
X51275Y-56725
X51800Y-13400
X52250Y-25050
X52300Y-42950
X52300Y-78800
X52400Y-57450
X53500Y-67400
X53500Y-78000
X53750Y-47150
X54200Y-70200
X54800Y-88400
X55100Y-61300
X57750Y-59700
X58900Y-56750
X60250Y-81550
T2
X27500Y-66300
X27627Y-71200
X29500Y-66300
X29627Y-71200
T3
X42360Y-19500
X43630Y-19500
X44900Y-19500
T4
X28993Y-87300
X28993Y-89840
X31534Y-87300
X31534Y-89840
X33645Y-15400
X34073Y-87300
X34073Y-89840
X36185Y-15400
X36613Y-87300
X36613Y-89840
X38725Y-15400
X39154Y-87300
X39154Y-89840
X41694Y-87300
X41694Y-89840
X41870Y-15270
X41920Y-22890
X44233Y-87300
X44233Y-89840
X44410Y-15270
X44460Y-22890
X46774Y-87300
X46774Y-89840
X46950Y-15270
X47000Y-22890
X49314Y-87300
X49314Y-89840
X49540Y-22890
X51853Y-87300
X51853Y-89840
X54560Y-20720
X54560Y-23260
X54560Y-25800
X54560Y-28340
X54560Y-30880
X54560Y-33420
X54560Y-35960
X54560Y-38500
X54560Y-41040
X54560Y-43580
X54920Y-51500
X57160Y-20720
X57160Y-23260
X57160Y-25800
X57160Y-28340
X57160Y-30880
X57160Y-33420
X57160Y-35960
X57160Y-38500
X57160Y-41040
X57160Y-43580
X57160Y-46120
X57460Y-51500
X59700Y-20720
X59700Y-23260
X59700Y-25800
X59700Y-28340
X59700Y-30880
X59700Y-33420
X59700Y-35960
X59700Y-38500
X59700Y-41040
X59700Y-43580
X59700Y-46120
X60000Y-51500
T5
X16900Y-70000
X19440Y-70000
X21980Y-70000
T6
X15500Y-15500
X15500Y-88500
X58500Y-15500
X58500Y-88500
M30
