%TF.GenerationSoftware,KiCad,Pcbnew,7.0.10*%
%TF.CreationDate,2024-08-04T17:16:23+10:00*%
%TF.ProjectId,AI4R-SENSORPCB,41493452-2d53-4454-9e53-4f525043422e,rev?*%
%TF.SameCoordinates,Original*%
%TF.FileFunction,Copper,L2,Bot*%
%TF.FilePolarity,Positive*%
%FSLAX46Y46*%
G04 Gerber Fmt 4.6, Leading zero omitted, Abs format (unit mm)*
G04 Created by KiCad (PCBNEW 7.0.10) date 2024-08-04 17:16:23*
%MOMM*%
%LPD*%
G01*
G04 APERTURE LIST*
%TA.AperFunction,ComponentPad*%
%ADD10C,5.600000*%
%TD*%
%TA.AperFunction,ComponentPad*%
%ADD11R,1.200000X1.200000*%
%TD*%
%TA.AperFunction,ComponentPad*%
%ADD12C,1.200000*%
%TD*%
%TA.AperFunction,ComponentPad*%
%ADD13R,1.700000X1.700000*%
%TD*%
%TA.AperFunction,ComponentPad*%
%ADD14O,1.700000X1.700000*%
%TD*%
%TA.AperFunction,ComponentPad*%
%ADD15C,1.524000*%
%TD*%
%TA.AperFunction,ComponentPad*%
%ADD16R,1.050000X1.500000*%
%TD*%
%TA.AperFunction,ComponentPad*%
%ADD17O,1.050000X1.500000*%
%TD*%
%TA.AperFunction,ComponentPad*%
%ADD18R,1.905000X2.000000*%
%TD*%
%TA.AperFunction,ComponentPad*%
%ADD19O,1.905000X2.000000*%
%TD*%
%TA.AperFunction,SMDPad,CuDef*%
%ADD20R,1.500000X1.000000*%
%TD*%
%TA.AperFunction,SMDPad,CuDef*%
%ADD21R,1.600000X1.200000*%
%TD*%
%TA.AperFunction,ViaPad*%
%ADD22C,0.800000*%
%TD*%
%TA.AperFunction,Conductor*%
%ADD23C,0.250000*%
%TD*%
%ADD24C,0.350000*%
G04 APERTURE END LIST*
D10*
%TO.P,H2,1*%
%TO.N,N/C*%
X58500000Y-15500000D03*
%TD*%
D11*
%TO.P,C2,1*%
%TO.N,VCC_TOF*%
X27500000Y-66300000D03*
D12*
%TO.P,C2,2*%
%TO.N,GND*%
X29500000Y-66300000D03*
%TD*%
D13*
%TO.P,J6,1,Pin_1*%
%TO.N,GND*%
X59700000Y-46120000D03*
D14*
%TO.P,J6,2,Pin_2*%
%TO.N,VCC*%
X57160000Y-46120000D03*
%TO.P,J6,3,Pin_3*%
%TO.N,GND*%
X59700000Y-43580000D03*
%TO.P,J6,4,Pin_4*%
%TO.N,VCC*%
X57160000Y-43580000D03*
%TO.P,J6,5,Pin_5*%
%TO.N,GND*%
X59700000Y-41040000D03*
%TO.P,J6,6,Pin_6*%
%TO.N,VCC*%
X57160000Y-41040000D03*
%TO.P,J6,7,Pin_7*%
%TO.N,GND*%
X59700000Y-38500000D03*
%TO.P,J6,8,Pin_8*%
%TO.N,VCC*%
X57160000Y-38500000D03*
%TO.P,J6,9,Pin_9*%
%TO.N,GND*%
X59700000Y-35960000D03*
%TO.P,J6,10,Pin_10*%
%TO.N,VCC*%
X57160000Y-35960000D03*
%TO.P,J6,11,Pin_11*%
%TO.N,GND*%
X59700000Y-33420000D03*
%TO.P,J6,12,Pin_12*%
%TO.N,VCC*%
X57160000Y-33420000D03*
%TO.P,J6,13,Pin_13*%
%TO.N,GND*%
X59700000Y-30880000D03*
%TO.P,J6,14,Pin_14*%
%TO.N,VCC*%
X57160000Y-30880000D03*
%TO.P,J6,15,Pin_15*%
%TO.N,GND*%
X59700000Y-28340000D03*
%TO.P,J6,16,Pin_16*%
%TO.N,VCC*%
X57160000Y-28340000D03*
%TO.P,J6,17,Pin_17*%
%TO.N,GND*%
X59700000Y-25800000D03*
%TO.P,J6,18,Pin_18*%
%TO.N,VCC*%
X57160000Y-25800000D03*
%TO.P,J6,19,Pin_19*%
%TO.N,GND*%
X59700000Y-23260000D03*
%TO.P,J6,20,Pin_20*%
%TO.N,VCC*%
X57160000Y-23260000D03*
%TO.P,J6,21,Pin_21*%
%TO.N,GND*%
X59700000Y-20720000D03*
%TO.P,J6,22,Pin_22*%
%TO.N,VCC*%
X57160000Y-20720000D03*
%TD*%
D13*
%TO.P,J8,1,Pin_1*%
%TO.N,GP6B*%
X54560000Y-20720000D03*
D14*
%TO.P,J8,2,Pin_2*%
%TO.N,GP7B*%
X54560000Y-23260000D03*
%TO.P,J8,3,Pin_3*%
%TO.N,GP8B*%
X54560000Y-25800000D03*
%TO.P,J8,4,Pin_4*%
%TO.N,GP9B*%
X54560000Y-28340000D03*
%TO.P,J8,5,Pin_5*%
%TO.N,GP10B*%
X54560000Y-30880000D03*
%TO.P,J8,6,Pin_6*%
%TO.N,GP11B*%
X54560000Y-33420000D03*
%TO.P,J8,7,Pin_7*%
%TO.N,GP12B*%
X54560000Y-35960000D03*
%TO.P,J8,8,Pin_8*%
%TO.N,GP13B*%
X54560000Y-38500000D03*
%TO.P,J8,9,Pin_9*%
%TO.N,GP14B*%
X54560000Y-41040000D03*
%TO.P,J8,10,Pin_10*%
%TO.N,GP15B*%
X54560000Y-43580000D03*
%TD*%
D10*
%TO.P,H4,1*%
%TO.N,N/C*%
X15500000Y-88500000D03*
%TD*%
D15*
%TO.P,U2,1,RCIN*%
%TO.N,Net-(J7-Pin_3)*%
X46950000Y-15270000D03*
%TO.P,U2,2,VRC*%
%TO.N,Net-(J7-Pin_2)*%
X44410000Y-15270000D03*
%TO.P,U2,3,GND*%
%TO.N,GND*%
X41870000Y-15270000D03*
%TO.P,U2,4,GND*%
X41920000Y-22890000D03*
%TO.P,U2,5,VCC*%
%TO.N,3V3B*%
X44460000Y-22890000D03*
%TO.P,U2,6,OUT*%
%TO.N,GPIO1B*%
X47000000Y-22890000D03*
%TO.P,U2,7,GOOD*%
X49540000Y-22890000D03*
%TD*%
D13*
%TO.P,J10,1,Pin_1*%
%TO.N,GND*%
X28993500Y-89840000D03*
D14*
%TO.P,J10,2,Pin_2*%
%TO.N,GP15*%
X28993500Y-87300000D03*
%TO.P,J10,3,Pin_3*%
%TO.N,GND*%
X31533500Y-89840000D03*
%TO.P,J10,4,Pin_4*%
%TO.N,GP14*%
X31533500Y-87300000D03*
%TO.P,J10,5,Pin_5*%
%TO.N,GND*%
X34073500Y-89840000D03*
%TO.P,J10,6,Pin_6*%
%TO.N,GP13*%
X34073500Y-87300000D03*
%TO.P,J10,7,Pin_7*%
%TO.N,GND*%
X36613500Y-89840000D03*
%TO.P,J10,8,Pin_8*%
%TO.N,GP12*%
X36613500Y-87300000D03*
%TO.P,J10,9,Pin_9*%
%TO.N,GND*%
X39153500Y-89840000D03*
%TO.P,J10,10,Pin_10*%
%TO.N,GP11*%
X39153500Y-87300000D03*
%TO.P,J10,11,Pin_11*%
%TO.N,GND*%
X41693500Y-89840000D03*
%TO.P,J10,12,Pin_12*%
%TO.N,GP10*%
X41693500Y-87300000D03*
%TO.P,J10,13,Pin_13*%
%TO.N,GND*%
X44233500Y-89840000D03*
%TO.P,J10,14,Pin_14*%
%TO.N,GP9*%
X44233500Y-87300000D03*
%TO.P,J10,15,Pin_15*%
%TO.N,GND*%
X46773500Y-89840000D03*
%TO.P,J10,16,Pin_16*%
%TO.N,GP8*%
X46773500Y-87300000D03*
%TO.P,J10,17,Pin_17*%
%TO.N,GND*%
X49313500Y-89840000D03*
%TO.P,J10,18,Pin_18*%
%TO.N,GP7*%
X49313500Y-87300000D03*
%TO.P,J10,19,Pin_19*%
%TO.N,GND*%
X51853500Y-89840000D03*
%TO.P,J10,20,Pin_20*%
%TO.N,GP6*%
X51853500Y-87300000D03*
%TD*%
D11*
%TO.P,C1,1*%
%TO.N,3V3PS*%
X27627401Y-71200000D03*
D12*
%TO.P,C1,2*%
%TO.N,GND*%
X29627401Y-71200000D03*
%TD*%
D16*
%TO.P,Q1,1,E*%
%TO.N,GND*%
X42360000Y-19500000D03*
D17*
%TO.P,Q1,2,B*%
%TO.N,Net-(Q1-B)*%
X43630000Y-19500000D03*
%TO.P,Q1,3,C*%
%TO.N,GPIO1B*%
X44900000Y-19500000D03*
%TD*%
D13*
%TO.P,J7,1,Pin_1*%
%TO.N,GND*%
X38725000Y-15400000D03*
D14*
%TO.P,J7,2,Pin_2*%
%TO.N,Net-(J7-Pin_2)*%
X36185000Y-15400000D03*
%TO.P,J7,3,Pin_3*%
%TO.N,Net-(J7-Pin_3)*%
X33645000Y-15400000D03*
%TD*%
D18*
%TO.P,U3,1,GND*%
%TO.N,GND*%
X16900000Y-70000000D03*
D19*
%TO.P,U3,2,VO*%
%TO.N,3V3PS*%
X19440000Y-70000000D03*
%TO.P,U3,3,VI*%
%TO.N,VCC_TOF*%
X21980000Y-70000000D03*
%TD*%
D10*
%TO.P,H3,1*%
%TO.N,N/C*%
X58500000Y-88500000D03*
%TD*%
D13*
%TO.P,J9,1,Pin_1*%
%TO.N,GND*%
X60000000Y-51500000D03*
D14*
%TO.P,J9,2,Pin_2*%
%TO.N,3V3B*%
X57460000Y-51500000D03*
%TO.P,J9,3,Pin_3*%
%TO.N,GP26B*%
X54920000Y-51500000D03*
%TD*%
D10*
%TO.P,H1,1*%
%TO.N,N/C*%
X15500000Y-15500000D03*
%TD*%
D20*
%TO.P,JP1,1,A*%
%TO.N,3V3*%
X33300000Y-70650000D03*
%TO.P,JP1,2,B*%
%TO.N,3V3PS*%
X33300000Y-71950000D03*
%TD*%
D21*
%TO.P,U1,1,VDD*%
%TO.N,3V3*%
X40300000Y-77300000D03*
%TO.P,U1,2,GND_1*%
%TO.N,GND*%
X40300000Y-75300000D03*
%TO.P,U1,3,RSVR_1*%
%TO.N,unconnected-(U1-RSVR_1-Pad3)*%
X40300000Y-73300000D03*
%TO.P,U1,4,RSVR_2*%
%TO.N,unconnected-(U1-RSVR_2-Pad4)*%
X40300000Y-69300000D03*
%TO.P,U1,5,HINTN*%
%TO.N,unconnected-(U1-HINTN-Pad5)*%
X40300000Y-67300000D03*
%TO.P,U1,6,BOOTN*%
%TO.N,unconnected-(U1-BOOTN-Pad6)*%
X40300000Y-65300000D03*
%TO.P,U1,7,PS1*%
%TO.N,unconnected-(U1-PS1-Pad7)*%
X40300000Y-63300000D03*
%TO.P,U1,8,GND_2*%
%TO.N,unconnected-(U1-GND_2-Pad8)*%
X40300000Y-61300000D03*
%TO.P,U1,9,PS0/WAKEN*%
%TO.N,GND*%
X40300000Y-59300000D03*
%TO.P,U1,10,RSVR_3*%
%TO.N,unconnected-(U1-RSVR_3-Pad10)*%
X59300000Y-59300000D03*
%TO.P,U1,11,SDA/MISO/TXD*%
%TO.N,SDA1*%
X59300000Y-61300000D03*
%TO.P,U1,12,SCL/SCK/RXD*%
%TO.N,SCL1*%
X59300000Y-63300000D03*
%TO.P,U1,13,RSVR_4*%
%TO.N,unconnected-(U1-RSVR_4-Pad13)*%
X59300000Y-65300000D03*
%TO.P,U1,14,SA0/MOSI*%
%TO.N,unconnected-(U1-SA0{slash}MOSI-Pad14)*%
X59300000Y-67300000D03*
%TO.P,U1,15,CSN*%
%TO.N,unconnected-(U1-CSN-Pad15)*%
X59300000Y-69300000D03*
%TO.P,U1,16,RSVR_5*%
%TO.N,unconnected-(U1-RSVR_5-Pad16)*%
X59300000Y-73300000D03*
%TO.P,U1,17,RSVR_6*%
%TO.N,unconnected-(U1-RSVR_6-Pad17)*%
X59300000Y-75300000D03*
%TO.P,U1,18,NRST*%
%TO.N,unconnected-(U1-NRST-Pad18)*%
X59300000Y-77300000D03*
%TD*%
D22*
%TO.N,GND*%
X20300000Y-75300000D03*
X24900000Y-40400000D03*
X30250000Y-77850000D03*
X38200000Y-19500000D03*
X60250000Y-81550000D03*
X23600000Y-14450000D03*
X47250000Y-68000000D03*
X49200000Y-64250000D03*
X54800000Y-88400000D03*
X52250000Y-66400000D03*
X36300000Y-31050000D03*
X48600000Y-75850000D03*
X37375000Y-73825000D03*
X21700000Y-88050000D03*
X53750000Y-47150000D03*
X20200000Y-14500000D03*
X52250000Y-25050000D03*
X14000000Y-81050000D03*
X58900000Y-56750000D03*
X50650000Y-20550000D03*
X55100000Y-61300000D03*
X47900000Y-28500000D03*
%TO.N,3V3*%
X32500000Y-68300000D03*
X21150000Y-63850000D03*
X32500000Y-75100000D03*
%TO.N,SDA1*%
X26183560Y-42266950D03*
X57750000Y-59700000D03*
%TO.N,SCL1*%
X28730000Y-42350000D03*
X54200000Y-70200000D03*
X50900000Y-58925000D03*
X50900000Y-62200000D03*
%TO.N,SDA2*%
X21100000Y-42100000D03*
X52300000Y-78800000D03*
%TO.N,SCL2*%
X23650000Y-42300000D03*
X53500000Y-78000000D03*
%TO.N,SDA3*%
X50450000Y-54800000D03*
X26200000Y-18450000D03*
%TO.N,SCL3*%
X49550000Y-53750000D03*
X28750000Y-18400000D03*
%TO.N,SDA4*%
X52400000Y-57450000D03*
X21100000Y-18600000D03*
%TO.N,SCL4*%
X51200000Y-56800000D03*
X23650000Y-18600000D03*
%TO.N,Net-(J7-Pin_2)*%
X51800000Y-13400000D03*
%TO.N,3V3B*%
X43800000Y-42900000D03*
X52300000Y-42950000D03*
X21150000Y-40700000D03*
X49511388Y-55373596D03*
%TO.N,GPIO1B*%
X49564191Y-16277847D03*
%TO.N,GP26B*%
X31300000Y-40300000D03*
X40000000Y-42200000D03*
%TO.N,Net-(Q1-B)*%
X49900000Y-14100000D03*
%TO.N,3V3PS*%
X49650000Y-71750000D03*
%TD*%
D23*
%TO.N,GND*%
X60000000Y-51500000D02*
X60000000Y-46060000D01*
X60000000Y-46060000D02*
X59700000Y-45760000D01*
%TO.N,3V3*%
X40300000Y-77300000D02*
X34500000Y-77300000D01*
X32500000Y-75300000D02*
X32500000Y-75100000D01*
X32150000Y-63850000D02*
X21150000Y-63850000D01*
X33300000Y-65000000D02*
X32150000Y-63850000D01*
X33300000Y-68300000D02*
X32500000Y-68300000D01*
X33300000Y-68300000D02*
X33300000Y-65000000D01*
X32500000Y-75100000D02*
X32500000Y-75200000D01*
X34500000Y-77300000D02*
X32500000Y-75300000D01*
X33300000Y-70650000D02*
X33300000Y-68300000D01*
%TO.N,SDA1*%
X50558273Y-59750000D02*
X57700000Y-59750000D01*
X26183560Y-42266950D02*
X27366610Y-43450000D01*
X57700000Y-59750000D02*
X57750000Y-59700000D01*
X59300000Y-61300000D02*
X58800000Y-61300000D01*
X57750000Y-59700000D02*
X57650000Y-59650000D01*
X27366610Y-43450000D02*
X34258273Y-43450000D01*
X34258273Y-43450000D02*
X50558273Y-59750000D01*
X57750000Y-60250000D02*
X57750000Y-59700000D01*
X57650000Y-59650000D02*
X57600000Y-59650000D01*
X58800000Y-61300000D02*
X57750000Y-60250000D01*
%TO.N,SCL1*%
X60100000Y-63300000D02*
X61000000Y-62400000D01*
X50900000Y-62200000D02*
X50900000Y-66900000D01*
X59300000Y-63300000D02*
X60100000Y-63300000D01*
X61000000Y-58950000D02*
X60325000Y-58275000D01*
X61000000Y-62400000D02*
X61000000Y-58950000D01*
X60325000Y-58275000D02*
X51000000Y-58275000D01*
X50900000Y-58175000D02*
X50900000Y-58925000D01*
X28730000Y-42350000D02*
X35050000Y-42350000D01*
X51000000Y-58275000D02*
X50900000Y-58175000D01*
X50900000Y-66900000D02*
X54200000Y-70200000D01*
X50875000Y-58175000D02*
X50900000Y-58175000D01*
X35050000Y-42350000D02*
X50875000Y-58175000D01*
%TO.N,SDA2*%
X13300000Y-46300000D02*
X13300000Y-75200000D01*
X17500000Y-42100000D02*
X13300000Y-46300000D01*
X13300000Y-75200000D02*
X16900000Y-78800000D01*
X21100000Y-42100000D02*
X17500000Y-42100000D01*
X16900000Y-78800000D02*
X52300000Y-78800000D01*
X52300000Y-78800000D02*
X52200000Y-78800000D01*
%TO.N,SCL2*%
X24000000Y-42300000D02*
X26200000Y-44500000D01*
X56050000Y-64800000D02*
X56050000Y-71950000D01*
X53500000Y-78000000D02*
X53500000Y-78100000D01*
X53500000Y-74500000D02*
X53500000Y-78000000D01*
X23650000Y-42300000D02*
X24000000Y-42300000D01*
X52300000Y-61050000D02*
X56050000Y-64800000D01*
X34150000Y-44500000D02*
X50700000Y-61050000D01*
X26200000Y-44500000D02*
X34150000Y-44500000D01*
X56050000Y-71950000D02*
X53500000Y-74500000D01*
X50700000Y-61050000D02*
X52300000Y-61050000D01*
%TO.N,SDA3*%
X27250000Y-17400000D02*
X26200000Y-18450000D01*
X50450000Y-54800000D02*
X50375000Y-54725000D01*
X30800000Y-17400000D02*
X27250000Y-17400000D01*
X49100000Y-35700000D02*
X30800000Y-17400000D01*
X49100000Y-46050000D02*
X49100000Y-35700000D01*
X50375000Y-47325000D02*
X49100000Y-46050000D01*
X50375000Y-54725000D02*
X50375000Y-47325000D01*
%TO.N,SCL3*%
X49550000Y-48050000D02*
X48100000Y-46600000D01*
X30700000Y-18400000D02*
X28750000Y-18400000D01*
X49550000Y-53750000D02*
X49550000Y-48050000D01*
X48100000Y-35800000D02*
X30700000Y-18400000D01*
X48100000Y-46600000D02*
X48100000Y-35800000D01*
%TO.N,SDA4*%
X51050000Y-35150000D02*
X31700000Y-15800000D01*
X31700000Y-15800000D02*
X23900000Y-15800000D01*
X23900000Y-15800000D02*
X21100000Y-18600000D01*
X52225000Y-57275000D02*
X52225000Y-46275000D01*
X52400000Y-57450000D02*
X52225000Y-57275000D01*
X51050000Y-45100000D02*
X51050000Y-35150000D01*
X52225000Y-46275000D02*
X51050000Y-45100000D01*
%TO.N,SCL4*%
X31250000Y-16500000D02*
X25750000Y-16500000D01*
X51275000Y-46775000D02*
X50100000Y-45600000D01*
X25750000Y-16500000D02*
X23650000Y-18600000D01*
X51275000Y-56725000D02*
X51275000Y-46775000D01*
X51200000Y-56800000D02*
X51275000Y-56725000D01*
X50100000Y-45600000D02*
X50100000Y-35350000D01*
X50100000Y-35350000D02*
X31250000Y-16500000D01*
%TO.N,Net-(J7-Pin_2)*%
X45730000Y-13950000D02*
X48883273Y-13950000D01*
X36185000Y-15400000D02*
X37685000Y-16900000D01*
X42780000Y-16900000D02*
X44410000Y-15270000D01*
X48883273Y-13950000D02*
X49558273Y-13275000D01*
X44410000Y-15270000D02*
X45730000Y-13950000D01*
X51675000Y-13275000D02*
X51800000Y-13400000D01*
X51800000Y-13400000D02*
X51825000Y-13375000D01*
X37685000Y-16900000D02*
X42780000Y-16900000D01*
X51875000Y-13375000D02*
X51900000Y-13400000D01*
X49558273Y-13275000D02*
X51675000Y-13275000D01*
X51825000Y-13375000D02*
X51875000Y-13375000D01*
%TO.N,Net-(J7-Pin_3)*%
X44620000Y-17600000D02*
X46950000Y-15270000D01*
X33920000Y-15400000D02*
X33645000Y-15400000D01*
X33645000Y-15400000D02*
X35845000Y-17600000D01*
X35845000Y-17600000D02*
X44620000Y-17600000D01*
%TO.N,3V3B*%
X40700000Y-46500000D02*
X49511388Y-55311388D01*
X52300000Y-44400000D02*
X57460000Y-49560000D01*
X36100000Y-41400000D02*
X40700000Y-46000000D01*
X40700000Y-46000000D02*
X40700000Y-46500000D01*
X52300000Y-42950000D02*
X52300000Y-44400000D01*
X50200000Y-24800000D02*
X46370000Y-24800000D01*
X21850000Y-41400000D02*
X36100000Y-41400000D01*
X57460000Y-49560000D02*
X57460000Y-51500000D01*
X43800000Y-42900000D02*
X40700000Y-46000000D01*
X52300000Y-42950000D02*
X52150000Y-42800000D01*
X52300000Y-26900000D02*
X50200000Y-24800000D01*
X52300000Y-42950000D02*
X52300000Y-26900000D01*
X21150000Y-40700000D02*
X21850000Y-41400000D01*
X46370000Y-24800000D02*
X44460000Y-22890000D01*
X49511388Y-55311388D02*
X49511388Y-55373596D01*
%TO.N,GPIO1B*%
X45650000Y-19500000D02*
X47000000Y-20850000D01*
X47000000Y-20850000D02*
X47000000Y-22890000D01*
X49564191Y-16277847D02*
X49540000Y-16302038D01*
X49540000Y-16302038D02*
X49540000Y-22890000D01*
X44900000Y-19500000D02*
X45650000Y-19500000D01*
%TO.N,GP26B*%
X38100000Y-40300000D02*
X31300000Y-40300000D01*
X40000000Y-42200000D02*
X38100000Y-40300000D01*
%TO.N,Net-(Q1-B)*%
X43630000Y-19500000D02*
X43630000Y-18570000D01*
X43630000Y-18570000D02*
X44000000Y-18200000D01*
X45800000Y-18200000D02*
X49900000Y-14100000D01*
X44000000Y-18200000D02*
X45800000Y-18200000D01*
%TO.N,3V3PS*%
X28652401Y-72225000D02*
X33025000Y-72225000D01*
X27627401Y-71200000D02*
X27402401Y-71425000D01*
X20865000Y-71425000D02*
X19440000Y-70000000D01*
X49650000Y-71750000D02*
X49600000Y-71700000D01*
X33300000Y-71950000D02*
X33500000Y-71750000D01*
X27627401Y-71200000D02*
X28652401Y-72225000D01*
X33500000Y-71750000D02*
X49650000Y-71750000D01*
X33025000Y-72225000D02*
X33300000Y-71950000D01*
X27402401Y-71425000D02*
X20865000Y-71425000D01*
%TD*%
%TA.AperFunction,Conductor*%
%TO.N,GND*%
G36*
X31074007Y-89630156D02*
G01*
X31033500Y-89768111D01*
X31033500Y-89911889D01*
X31074007Y-90049844D01*
X31099814Y-90090000D01*
X29427186Y-90090000D01*
X29452993Y-90049844D01*
X29493500Y-89911889D01*
X29493500Y-89768111D01*
X29452993Y-89630156D01*
X29427186Y-89590000D01*
X31099814Y-89590000D01*
X31074007Y-89630156D01*
G37*
%TD.AperFunction*%
%TA.AperFunction,Conductor*%
G36*
X33614007Y-89630156D02*
G01*
X33573500Y-89768111D01*
X33573500Y-89911889D01*
X33614007Y-90049844D01*
X33639814Y-90090000D01*
X31967186Y-90090000D01*
X31992993Y-90049844D01*
X32033500Y-89911889D01*
X32033500Y-89768111D01*
X31992993Y-89630156D01*
X31967186Y-89590000D01*
X33639814Y-89590000D01*
X33614007Y-89630156D01*
G37*
%TD.AperFunction*%
%TA.AperFunction,Conductor*%
G36*
X36154007Y-89630156D02*
G01*
X36113500Y-89768111D01*
X36113500Y-89911889D01*
X36154007Y-90049844D01*
X36179814Y-90090000D01*
X34507186Y-90090000D01*
X34532993Y-90049844D01*
X34573500Y-89911889D01*
X34573500Y-89768111D01*
X34532993Y-89630156D01*
X34507186Y-89590000D01*
X36179814Y-89590000D01*
X36154007Y-89630156D01*
G37*
%TD.AperFunction*%
%TA.AperFunction,Conductor*%
G36*
X38694007Y-89630156D02*
G01*
X38653500Y-89768111D01*
X38653500Y-89911889D01*
X38694007Y-90049844D01*
X38719814Y-90090000D01*
X37047186Y-90090000D01*
X37072993Y-90049844D01*
X37113500Y-89911889D01*
X37113500Y-89768111D01*
X37072993Y-89630156D01*
X37047186Y-89590000D01*
X38719814Y-89590000D01*
X38694007Y-89630156D01*
G37*
%TD.AperFunction*%
%TA.AperFunction,Conductor*%
G36*
X41234007Y-89630156D02*
G01*
X41193500Y-89768111D01*
X41193500Y-89911889D01*
X41234007Y-90049844D01*
X41259814Y-90090000D01*
X39587186Y-90090000D01*
X39612993Y-90049844D01*
X39653500Y-89911889D01*
X39653500Y-89768111D01*
X39612993Y-89630156D01*
X39587186Y-89590000D01*
X41259814Y-89590000D01*
X41234007Y-89630156D01*
G37*
%TD.AperFunction*%
%TA.AperFunction,Conductor*%
G36*
X43774007Y-89630156D02*
G01*
X43733500Y-89768111D01*
X43733500Y-89911889D01*
X43774007Y-90049844D01*
X43799814Y-90090000D01*
X42127186Y-90090000D01*
X42152993Y-90049844D01*
X42193500Y-89911889D01*
X42193500Y-89768111D01*
X42152993Y-89630156D01*
X42127186Y-89590000D01*
X43799814Y-89590000D01*
X43774007Y-89630156D01*
G37*
%TD.AperFunction*%
%TA.AperFunction,Conductor*%
G36*
X46314007Y-89630156D02*
G01*
X46273500Y-89768111D01*
X46273500Y-89911889D01*
X46314007Y-90049844D01*
X46339814Y-90090000D01*
X44667186Y-90090000D01*
X44692993Y-90049844D01*
X44733500Y-89911889D01*
X44733500Y-89768111D01*
X44692993Y-89630156D01*
X44667186Y-89590000D01*
X46339814Y-89590000D01*
X46314007Y-89630156D01*
G37*
%TD.AperFunction*%
%TA.AperFunction,Conductor*%
G36*
X48854007Y-89630156D02*
G01*
X48813500Y-89768111D01*
X48813500Y-89911889D01*
X48854007Y-90049844D01*
X48879814Y-90090000D01*
X47207186Y-90090000D01*
X47232993Y-90049844D01*
X47273500Y-89911889D01*
X47273500Y-89768111D01*
X47232993Y-89630156D01*
X47207186Y-89590000D01*
X48879814Y-89590000D01*
X48854007Y-89630156D01*
G37*
%TD.AperFunction*%
%TA.AperFunction,Conductor*%
G36*
X51394007Y-89630156D02*
G01*
X51353500Y-89768111D01*
X51353500Y-89911889D01*
X51394007Y-90049844D01*
X51419814Y-90090000D01*
X49747186Y-90090000D01*
X49772993Y-90049844D01*
X49813500Y-89911889D01*
X49813500Y-89768111D01*
X49772993Y-89630156D01*
X49747186Y-89590000D01*
X51419814Y-89590000D01*
X51394007Y-89630156D01*
G37*
%TD.AperFunction*%
%TA.AperFunction,Conductor*%
G36*
X22825228Y-41945185D02*
G01*
X22870983Y-41997989D01*
X22880927Y-42067147D01*
X22875230Y-42090455D01*
X22864633Y-42120737D01*
X22864630Y-42120750D01*
X22844435Y-42299996D01*
X22844435Y-42300003D01*
X22864630Y-42479249D01*
X22864631Y-42479254D01*
X22924211Y-42649523D01*
X23000384Y-42770750D01*
X23020184Y-42802262D01*
X23147738Y-42929816D01*
X23300478Y-43025789D01*
X23453258Y-43079249D01*
X23470745Y-43085368D01*
X23470750Y-43085369D01*
X23649996Y-43105565D01*
X23650000Y-43105565D01*
X23650004Y-43105565D01*
X23829249Y-43085369D01*
X23829250Y-43085368D01*
X23829255Y-43085368D01*
X23913460Y-43055902D01*
X23983235Y-43052340D01*
X24042093Y-43085263D01*
X25820558Y-44863728D01*
X25823499Y-44866771D01*
X25838031Y-44882330D01*
X25865245Y-44911469D01*
X25898499Y-44931691D01*
X25908990Y-44938830D01*
X25940025Y-44962365D01*
X25940028Y-44962366D01*
X25940028Y-44962367D01*
X25955509Y-44968471D01*
X25974451Y-44977878D01*
X25988672Y-44986526D01*
X26026160Y-44997029D01*
X26038184Y-45001072D01*
X26074411Y-45015359D01*
X26090977Y-45017061D01*
X26111741Y-45021008D01*
X26127772Y-45025500D01*
X26166696Y-45025500D01*
X26179376Y-45026150D01*
X26182275Y-45026447D01*
X26218110Y-45030132D01*
X26234518Y-45027303D01*
X26255586Y-45025500D01*
X33880968Y-45025500D01*
X33948007Y-45045185D01*
X33968649Y-45061819D01*
X50320543Y-61413712D01*
X50323486Y-61416757D01*
X50351642Y-61446905D01*
X50383014Y-61509336D01*
X50375652Y-61578816D01*
X50348700Y-61619222D01*
X50270183Y-61697739D01*
X50174211Y-61850476D01*
X50114631Y-62020745D01*
X50114630Y-62020750D01*
X50094435Y-62199996D01*
X50094435Y-62200003D01*
X50114630Y-62379249D01*
X50114631Y-62379254D01*
X50174211Y-62549523D01*
X50270184Y-62702262D01*
X50338181Y-62770259D01*
X50371666Y-62831582D01*
X50374500Y-62857940D01*
X50374500Y-66888890D01*
X50374428Y-66893123D01*
X50373117Y-66931517D01*
X50372340Y-66954250D01*
X50381556Y-66992068D01*
X50383927Y-67004540D01*
X50389228Y-67043109D01*
X50395864Y-67058387D01*
X50402602Y-67078424D01*
X50406542Y-67094593D01*
X50406543Y-67094594D01*
X50425618Y-67128520D01*
X50431266Y-67139890D01*
X50446782Y-67175612D01*
X50457283Y-67188518D01*
X50469182Y-67206000D01*
X50477342Y-67220512D01*
X50504878Y-67248048D01*
X50513377Y-67257466D01*
X50537943Y-67287662D01*
X50537944Y-67287663D01*
X50537946Y-67287665D01*
X50551544Y-67297264D01*
X50567715Y-67310885D01*
X53358528Y-70101698D01*
X53392013Y-70163021D01*
X53393546Y-70193037D01*
X53394435Y-70193037D01*
X53394435Y-70200003D01*
X53414630Y-70379249D01*
X53414631Y-70379254D01*
X53474211Y-70549523D01*
X53570184Y-70702262D01*
X53697738Y-70829816D01*
X53850478Y-70925789D01*
X53961479Y-70964630D01*
X54020745Y-70985368D01*
X54020750Y-70985369D01*
X54199996Y-71005565D01*
X54200000Y-71005565D01*
X54200004Y-71005565D01*
X54379249Y-70985369D01*
X54379252Y-70985368D01*
X54379255Y-70985368D01*
X54549522Y-70925789D01*
X54702262Y-70829816D01*
X54829816Y-70702262D01*
X54925789Y-70549522D01*
X54985368Y-70379255D01*
X54987351Y-70361657D01*
X55005565Y-70200003D01*
X55005565Y-70199996D01*
X54985369Y-70020750D01*
X54985368Y-70020745D01*
X54925788Y-69850476D01*
X54845701Y-69723019D01*
X54829816Y-69697738D01*
X54702262Y-69570184D01*
X54700932Y-69569348D01*
X54549523Y-69474211D01*
X54379254Y-69414631D01*
X54379249Y-69414630D01*
X54200004Y-69394435D01*
X54193037Y-69394435D01*
X54193037Y-69392277D01*
X54134436Y-69382010D01*
X54101698Y-69358528D01*
X51461819Y-66718649D01*
X51428334Y-66657326D01*
X51425500Y-66630968D01*
X51425500Y-62857940D01*
X51445185Y-62790901D01*
X51461819Y-62770259D01*
X51529816Y-62702262D01*
X51625789Y-62549522D01*
X51685368Y-62379255D01*
X51686191Y-62371950D01*
X51705565Y-62200003D01*
X51705565Y-62199996D01*
X51685369Y-62020750D01*
X51685368Y-62020745D01*
X51654146Y-61931518D01*
X51625789Y-61850478D01*
X51572375Y-61765471D01*
X51553376Y-61698236D01*
X51573744Y-61631400D01*
X51627011Y-61586186D01*
X51677370Y-61575500D01*
X52030968Y-61575500D01*
X52098007Y-61595185D01*
X52118649Y-61611819D01*
X55488181Y-64981350D01*
X55521666Y-65042673D01*
X55524500Y-65069031D01*
X55524500Y-71680968D01*
X55504815Y-71748007D01*
X55488181Y-71768649D01*
X53136270Y-74120559D01*
X53133227Y-74123500D01*
X53088532Y-74165243D01*
X53088531Y-74165244D01*
X53068302Y-74198508D01*
X53061161Y-74209000D01*
X53037639Y-74240019D01*
X53037633Y-74240029D01*
X53031525Y-74255517D01*
X53022125Y-74274442D01*
X53013477Y-74288664D01*
X53013474Y-74288670D01*
X53013474Y-74288672D01*
X53010300Y-74299999D01*
X53002971Y-74326155D01*
X52998926Y-74338181D01*
X52984641Y-74374409D01*
X52984640Y-74374411D01*
X52982937Y-74390976D01*
X52978991Y-74411739D01*
X52974500Y-74427767D01*
X52974500Y-74466703D01*
X52973850Y-74479382D01*
X52969869Y-74518107D01*
X52969869Y-74518111D01*
X52972697Y-74534511D01*
X52974500Y-74555580D01*
X52974500Y-77342060D01*
X52954815Y-77409099D01*
X52938181Y-77429741D01*
X52870184Y-77497737D01*
X52774211Y-77650476D01*
X52714631Y-77820745D01*
X52714630Y-77820750D01*
X52702096Y-77932001D01*
X52675030Y-77996415D01*
X52617435Y-78035971D01*
X52547598Y-78038108D01*
X52537922Y-78035160D01*
X52479257Y-78014632D01*
X52479249Y-78014630D01*
X52300004Y-77994435D01*
X52299996Y-77994435D01*
X52120750Y-78014630D01*
X52120745Y-78014631D01*
X51950476Y-78074211D01*
X51797737Y-78170184D01*
X51729741Y-78238181D01*
X51668418Y-78271666D01*
X51642060Y-78274500D01*
X41561023Y-78274500D01*
X41493984Y-78254815D01*
X41448229Y-78202011D01*
X41438285Y-78132853D01*
X41450539Y-78094205D01*
X41485646Y-78025304D01*
X41485646Y-78025302D01*
X41485647Y-78025301D01*
X41496282Y-77958147D01*
X41500500Y-77931519D01*
X41500499Y-76668482D01*
X41485646Y-76574696D01*
X41428050Y-76461658D01*
X41428046Y-76461654D01*
X41428045Y-76461652D01*
X41424781Y-76458388D01*
X41391296Y-76397065D01*
X41396280Y-76327373D01*
X41438151Y-76271440D01*
X41457191Y-76257186D01*
X41543350Y-76142093D01*
X41543354Y-76142086D01*
X41593596Y-76007379D01*
X41593598Y-76007372D01*
X41599999Y-75947844D01*
X41600000Y-75947827D01*
X41600000Y-75550000D01*
X39000000Y-75550000D01*
X39000000Y-75947844D01*
X39006401Y-76007372D01*
X39006403Y-76007379D01*
X39056645Y-76142086D01*
X39056649Y-76142093D01*
X39142809Y-76257187D01*
X39161849Y-76271441D01*
X39203720Y-76327376D01*
X39208703Y-76397068D01*
X39175223Y-76458384D01*
X39171953Y-76461653D01*
X39171951Y-76461657D01*
X39114352Y-76574698D01*
X39099275Y-76669898D01*
X39069346Y-76733032D01*
X39010035Y-76769964D01*
X38976802Y-76774500D01*
X34769031Y-76774500D01*
X34701992Y-76754815D01*
X34681350Y-76738181D01*
X33321219Y-75378050D01*
X33287734Y-75316727D01*
X33285680Y-75276485D01*
X33305565Y-75100002D01*
X33305565Y-75099996D01*
X33285369Y-74920750D01*
X33285368Y-74920745D01*
X33225788Y-74750476D01*
X33164019Y-74652172D01*
X33129816Y-74597738D01*
X33002262Y-74470184D01*
X32988691Y-74461657D01*
X32849523Y-74374211D01*
X32679254Y-74314631D01*
X32679249Y-74314630D01*
X32500004Y-74294435D01*
X32499996Y-74294435D01*
X32320750Y-74314630D01*
X32320745Y-74314631D01*
X32150476Y-74374211D01*
X31997737Y-74470184D01*
X31870184Y-74597737D01*
X31774211Y-74750476D01*
X31714631Y-74920745D01*
X31714630Y-74920750D01*
X31694435Y-75099996D01*
X31694435Y-75100003D01*
X31714630Y-75279249D01*
X31714631Y-75279254D01*
X31774211Y-75449523D01*
X31842037Y-75557466D01*
X31870184Y-75602262D01*
X31997738Y-75729816D01*
X32150478Y-75825789D01*
X32327032Y-75887568D01*
X32373759Y-75916929D01*
X34120544Y-77663713D01*
X34123486Y-77666757D01*
X34165243Y-77711468D01*
X34198501Y-77731692D01*
X34208998Y-77738836D01*
X34231342Y-77755779D01*
X34240025Y-77762364D01*
X34255510Y-77768470D01*
X34274448Y-77777876D01*
X34288672Y-77786526D01*
X34326168Y-77797031D01*
X34338180Y-77801071D01*
X34374411Y-77815359D01*
X34380067Y-77815940D01*
X34390968Y-77817061D01*
X34411746Y-77821009D01*
X34427772Y-77825500D01*
X34466704Y-77825500D01*
X34479383Y-77826150D01*
X34484428Y-77826668D01*
X34518110Y-77830131D01*
X34534514Y-77827302D01*
X34555580Y-77825500D01*
X38976803Y-77825500D01*
X39043842Y-77845185D01*
X39089597Y-77897989D01*
X39099277Y-77930103D01*
X39099501Y-77931517D01*
X39099501Y-77931518D01*
X39114354Y-78025304D01*
X39149462Y-78094208D01*
X39162358Y-78162874D01*
X39136082Y-78227614D01*
X39078976Y-78267872D01*
X39038977Y-78274500D01*
X17169032Y-78274500D01*
X17101993Y-78254815D01*
X17081351Y-78238181D01*
X15787103Y-76943933D01*
X18045668Y-76943933D01*
X18061058Y-77031210D01*
X18076135Y-77116711D01*
X18145623Y-77277804D01*
X18145624Y-77277806D01*
X18145626Y-77277809D01*
X18193460Y-77342060D01*
X18250390Y-77418530D01*
X18384786Y-77531302D01*
X18462488Y-77570325D01*
X18541562Y-77610038D01*
X18541563Y-77610038D01*
X18541567Y-77610040D01*
X18712279Y-77650500D01*
X18712282Y-77650500D01*
X18843701Y-77650500D01*
X18843709Y-77650500D01*
X18974255Y-77635241D01*
X19139117Y-77575237D01*
X19285696Y-77478830D01*
X19406092Y-77351218D01*
X19493812Y-77199281D01*
X19544130Y-77031210D01*
X19554331Y-76856065D01*
X19523865Y-76683289D01*
X19454377Y-76522196D01*
X19349610Y-76381470D01*
X19304161Y-76343334D01*
X19215214Y-76268698D01*
X19215212Y-76268697D01*
X19058437Y-76189961D01*
X19058433Y-76189960D01*
X18887721Y-76149500D01*
X18756291Y-76149500D01*
X18651854Y-76161707D01*
X18625743Y-76164759D01*
X18625740Y-76164760D01*
X18460884Y-76224762D01*
X18460880Y-76224764D01*
X18314306Y-76321167D01*
X18314305Y-76321168D01*
X18193910Y-76448778D01*
X18106188Y-76600718D01*
X18055870Y-76768789D01*
X18055869Y-76768794D01*
X18045668Y-76943933D01*
X15787103Y-76943933D01*
X13861819Y-75018649D01*
X13828334Y-74957326D01*
X13825500Y-74930968D01*
X13825500Y-71047844D01*
X15447500Y-71047844D01*
X15453901Y-71107372D01*
X15453903Y-71107379D01*
X15504145Y-71242086D01*
X15504149Y-71242093D01*
X15590309Y-71357187D01*
X15590312Y-71357190D01*
X15705406Y-71443350D01*
X15705413Y-71443354D01*
X15840120Y-71493596D01*
X15840127Y-71493598D01*
X15899655Y-71499999D01*
X15899672Y-71500000D01*
X16650000Y-71500000D01*
X16650000Y-70491683D01*
X16678819Y-70509209D01*
X16824404Y-70550000D01*
X16937622Y-70550000D01*
X17049783Y-70534584D01*
X17150000Y-70491053D01*
X17150000Y-71500000D01*
X17900328Y-71500000D01*
X17900344Y-71499999D01*
X17959872Y-71493598D01*
X17959879Y-71493596D01*
X18094586Y-71443354D01*
X18094593Y-71443350D01*
X18209687Y-71357190D01*
X18209690Y-71357187D01*
X18295850Y-71242093D01*
X18295855Y-71242084D01*
X18343184Y-71115188D01*
X18385055Y-71059254D01*
X18450519Y-71034836D01*
X18518792Y-71049687D01*
X18541290Y-71065437D01*
X18542876Y-71066833D01*
X18728042Y-71203782D01*
X18728044Y-71203783D01*
X18728047Y-71203785D01*
X18933701Y-71307473D01*
X19153920Y-71374914D01*
X19382369Y-71404168D01*
X19612476Y-71394394D01*
X19837622Y-71345871D01*
X19907917Y-71317623D01*
X19977459Y-71310893D01*
X20039603Y-71342828D01*
X20041831Y-71345001D01*
X20485544Y-71788713D01*
X20488486Y-71791757D01*
X20530243Y-71836468D01*
X20563501Y-71856692D01*
X20573998Y-71863836D01*
X20596342Y-71880779D01*
X20605025Y-71887364D01*
X20620510Y-71893470D01*
X20639448Y-71902876D01*
X20653672Y-71911526D01*
X20691168Y-71922031D01*
X20703180Y-71926071D01*
X20739411Y-71940359D01*
X20755977Y-71942061D01*
X20776741Y-71946008D01*
X20792772Y-71950500D01*
X20831703Y-71950500D01*
X20844382Y-71951150D01*
X20849427Y-71951668D01*
X20883109Y-71955131D01*
X20899513Y-71952302D01*
X20920579Y-71950500D01*
X26578606Y-71950500D01*
X26645645Y-71970185D01*
X26689090Y-72018204D01*
X26699350Y-72038340D01*
X26699355Y-72038347D01*
X26789053Y-72128045D01*
X26789055Y-72128046D01*
X26789059Y-72128050D01*
X26900066Y-72184611D01*
X26902099Y-72185647D01*
X26995876Y-72200499D01*
X26995882Y-72200500D01*
X27833368Y-72200499D01*
X27900407Y-72220183D01*
X27921049Y-72236818D01*
X28272945Y-72588713D01*
X28275887Y-72591757D01*
X28317644Y-72636468D01*
X28350902Y-72656692D01*
X28361399Y-72663836D01*
X28367517Y-72668475D01*
X28392426Y-72687364D01*
X28407911Y-72693470D01*
X28426849Y-72702876D01*
X28441073Y-72711526D01*
X28478569Y-72722031D01*
X28490581Y-72726071D01*
X28526812Y-72740359D01*
X28532468Y-72740940D01*
X28543369Y-72742061D01*
X28564147Y-72746009D01*
X28580173Y-72750500D01*
X28619105Y-72750500D01*
X28631784Y-72751150D01*
X28636829Y-72751668D01*
X28670511Y-72755131D01*
X28686915Y-72752302D01*
X28707981Y-72750500D01*
X32233448Y-72750500D01*
X32300487Y-72770185D01*
X32306329Y-72774179D01*
X32311653Y-72778046D01*
X32311655Y-72778047D01*
X32311658Y-72778050D01*
X32424694Y-72835645D01*
X32424698Y-72835647D01*
X32518475Y-72850499D01*
X32518481Y-72850500D01*
X34081518Y-72850499D01*
X34175304Y-72835646D01*
X34288342Y-72778050D01*
X34378050Y-72688342D01*
X34435646Y-72575304D01*
X34435646Y-72575302D01*
X34435647Y-72575301D01*
X34450500Y-72481524D01*
X34450500Y-72399500D01*
X34470185Y-72332461D01*
X34522989Y-72286706D01*
X34574500Y-72275500D01*
X39064453Y-72275500D01*
X39131492Y-72295185D01*
X39177247Y-72347989D01*
X39187191Y-72417147D01*
X39174938Y-72455795D01*
X39171951Y-72461656D01*
X39171950Y-72461658D01*
X39161828Y-72481524D01*
X39114352Y-72574698D01*
X39099500Y-72668475D01*
X39099500Y-73931517D01*
X39110292Y-73999657D01*
X39114354Y-74025304D01*
X39171950Y-74138342D01*
X39171952Y-74138344D01*
X39171954Y-74138347D01*
X39175218Y-74141611D01*
X39208703Y-74202934D01*
X39203719Y-74272626D01*
X39161852Y-74328556D01*
X39142810Y-74342811D01*
X39142809Y-74342812D01*
X39056649Y-74457906D01*
X39056645Y-74457913D01*
X39006403Y-74592620D01*
X39006401Y-74592627D01*
X39000000Y-74652155D01*
X39000000Y-75050000D01*
X41600000Y-75050000D01*
X41600000Y-74652172D01*
X41599999Y-74652155D01*
X41593598Y-74592627D01*
X41593596Y-74592620D01*
X41543354Y-74457913D01*
X41543350Y-74457906D01*
X41457190Y-74342812D01*
X41457188Y-74342810D01*
X41438149Y-74328557D01*
X41396279Y-74272622D01*
X41391296Y-74202931D01*
X41424781Y-74141610D01*
X41428050Y-74138342D01*
X41485646Y-74025304D01*
X41485646Y-74025302D01*
X41485647Y-74025301D01*
X41500499Y-73931524D01*
X41500500Y-73931519D01*
X41500499Y-72668482D01*
X41485646Y-72574696D01*
X41428050Y-72461658D01*
X41428048Y-72461656D01*
X41425062Y-72455795D01*
X41412166Y-72387126D01*
X41438442Y-72322385D01*
X41495549Y-72282128D01*
X41535547Y-72275500D01*
X48992060Y-72275500D01*
X49059099Y-72295185D01*
X49079741Y-72311819D01*
X49147738Y-72379816D01*
X49159372Y-72387126D01*
X49277988Y-72461658D01*
X49300478Y-72475789D01*
X49316868Y-72481524D01*
X49470745Y-72535368D01*
X49470750Y-72535369D01*
X49649996Y-72555565D01*
X49650000Y-72555565D01*
X49650004Y-72555565D01*
X49829249Y-72535369D01*
X49829252Y-72535368D01*
X49829255Y-72535368D01*
X49999522Y-72475789D01*
X50152262Y-72379816D01*
X50279816Y-72252262D01*
X50375789Y-72099522D01*
X50435368Y-71929255D01*
X50435369Y-71929249D01*
X50455565Y-71750003D01*
X50455565Y-71749996D01*
X50435369Y-71570750D01*
X50435368Y-71570745D01*
X50390792Y-71443354D01*
X50375789Y-71400478D01*
X50348587Y-71357187D01*
X50317349Y-71307472D01*
X50279816Y-71247738D01*
X50152262Y-71120184D01*
X50120935Y-71100500D01*
X49999523Y-71024211D01*
X49829254Y-70964631D01*
X49829249Y-70964630D01*
X49650004Y-70944435D01*
X49649996Y-70944435D01*
X49470750Y-70964630D01*
X49470745Y-70964631D01*
X49300476Y-71024211D01*
X49147737Y-71120184D01*
X49079741Y-71188181D01*
X49018418Y-71221666D01*
X48992060Y-71224500D01*
X34574500Y-71224500D01*
X34507461Y-71204815D01*
X34461706Y-71152011D01*
X34450500Y-71100500D01*
X34450499Y-70118482D01*
X34447572Y-70100000D01*
X34435646Y-70024696D01*
X34378050Y-69911658D01*
X34378046Y-69911654D01*
X34378045Y-69911652D01*
X34288347Y-69821954D01*
X34288344Y-69821952D01*
X34288342Y-69821950D01*
X34211517Y-69782805D01*
X34175301Y-69764352D01*
X34081524Y-69749500D01*
X34081519Y-69749500D01*
X33949500Y-69749500D01*
X33882461Y-69729815D01*
X33836706Y-69677011D01*
X33825500Y-69625500D01*
X33825500Y-68322188D01*
X33825789Y-68313725D01*
X33829204Y-68263801D01*
X33829203Y-68263795D01*
X33828093Y-68258451D01*
X33825500Y-68233227D01*
X33825500Y-65011108D01*
X33825572Y-65006875D01*
X33826444Y-64981350D01*
X33827660Y-64945755D01*
X33818441Y-64907927D01*
X33816070Y-64895449D01*
X33810771Y-64856891D01*
X33810771Y-64856889D01*
X33804135Y-64841613D01*
X33797400Y-64821583D01*
X33793458Y-64805406D01*
X33774372Y-64771462D01*
X33768735Y-64760114D01*
X33753219Y-64724391D01*
X33742711Y-64711476D01*
X33730816Y-64693998D01*
X33722659Y-64679491D01*
X33722658Y-64679489D01*
X33695133Y-64651964D01*
X33686627Y-64642539D01*
X33662055Y-64612336D01*
X33662050Y-64612332D01*
X33648450Y-64602732D01*
X33632278Y-64589109D01*
X32529440Y-63486271D01*
X32526498Y-63483227D01*
X32484753Y-63438529D01*
X32484751Y-63438528D01*
X32451489Y-63418301D01*
X32440991Y-63411156D01*
X32409976Y-63387636D01*
X32401406Y-63384256D01*
X32394485Y-63381527D01*
X32375553Y-63372124D01*
X32361329Y-63363474D01*
X32323842Y-63352970D01*
X32311813Y-63348925D01*
X32275591Y-63334641D01*
X32275583Y-63334640D01*
X32259022Y-63332937D01*
X32238255Y-63328990D01*
X32222231Y-63324500D01*
X32222228Y-63324500D01*
X32183296Y-63324500D01*
X32170617Y-63323850D01*
X32131892Y-63319869D01*
X32131888Y-63319869D01*
X32122576Y-63321474D01*
X32115485Y-63322697D01*
X32094420Y-63324500D01*
X21807940Y-63324500D01*
X21740901Y-63304815D01*
X21720259Y-63288181D01*
X21652262Y-63220184D01*
X21499523Y-63124211D01*
X21329254Y-63064631D01*
X21329249Y-63064630D01*
X21150004Y-63044435D01*
X21149996Y-63044435D01*
X20970750Y-63064630D01*
X20970745Y-63064631D01*
X20800476Y-63124211D01*
X20647737Y-63220184D01*
X20520184Y-63347737D01*
X20424211Y-63500476D01*
X20364631Y-63670745D01*
X20364630Y-63670750D01*
X20344435Y-63849996D01*
X20344435Y-63850003D01*
X20364630Y-64029249D01*
X20364631Y-64029254D01*
X20424211Y-64199523D01*
X20496365Y-64314354D01*
X20520184Y-64352262D01*
X20647738Y-64479816D01*
X20670296Y-64493990D01*
X20798741Y-64574698D01*
X20800478Y-64575789D01*
X20931324Y-64621574D01*
X20970745Y-64635368D01*
X20970750Y-64635369D01*
X21149996Y-64655565D01*
X21150000Y-64655565D01*
X21150004Y-64655565D01*
X21329249Y-64635369D01*
X21329252Y-64635368D01*
X21329255Y-64635368D01*
X21499522Y-64575789D01*
X21652262Y-64479816D01*
X21720259Y-64411819D01*
X21781582Y-64378334D01*
X21807940Y-64375500D01*
X31880968Y-64375500D01*
X31948007Y-64395185D01*
X31968649Y-64411819D01*
X32738181Y-65181351D01*
X32771666Y-65242674D01*
X32774500Y-65269032D01*
X32774500Y-67386607D01*
X32754815Y-67453646D01*
X32702011Y-67499401D01*
X32636617Y-67509827D01*
X32500004Y-67494435D01*
X32499996Y-67494435D01*
X32320750Y-67514630D01*
X32320745Y-67514631D01*
X32150476Y-67574211D01*
X31997737Y-67670184D01*
X31870184Y-67797737D01*
X31774211Y-67950476D01*
X31714631Y-68120745D01*
X31714630Y-68120750D01*
X31694435Y-68299996D01*
X31694435Y-68300003D01*
X31714630Y-68479249D01*
X31714631Y-68479254D01*
X31774211Y-68649523D01*
X31866384Y-68796215D01*
X31870184Y-68802262D01*
X31997738Y-68929816D01*
X32045096Y-68959573D01*
X32130006Y-69012926D01*
X32150478Y-69025789D01*
X32320745Y-69085368D01*
X32320750Y-69085369D01*
X32499996Y-69105565D01*
X32500000Y-69105565D01*
X32500003Y-69105565D01*
X32583232Y-69096187D01*
X32636616Y-69090172D01*
X32705438Y-69102226D01*
X32756818Y-69149575D01*
X32774500Y-69213392D01*
X32774500Y-69625500D01*
X32754815Y-69692539D01*
X32702011Y-69738294D01*
X32650501Y-69749500D01*
X32518482Y-69749500D01*
X32437519Y-69762323D01*
X32424696Y-69764354D01*
X32311658Y-69821950D01*
X32311657Y-69821951D01*
X32311652Y-69821954D01*
X32221954Y-69911652D01*
X32221951Y-69911657D01*
X32221950Y-69911658D01*
X32211828Y-69931524D01*
X32164352Y-70024698D01*
X32149500Y-70118475D01*
X32149500Y-71181518D01*
X32165193Y-71280603D01*
X32165192Y-71319396D01*
X32149500Y-71418474D01*
X32149500Y-71575500D01*
X32129815Y-71642539D01*
X32077011Y-71688294D01*
X32025500Y-71699500D01*
X30793142Y-71699500D01*
X30726103Y-71679815D01*
X30680348Y-71627011D01*
X30670404Y-71557853D01*
X30673876Y-71541566D01*
X30713303Y-71402992D01*
X30713304Y-71402989D01*
X30732114Y-71200000D01*
X30732114Y-71199999D01*
X30713304Y-70997010D01*
X30713303Y-70997007D01*
X30657517Y-70800936D01*
X30657514Y-70800930D01*
X30566650Y-70618449D01*
X30566648Y-70618447D01*
X30564866Y-70616087D01*
X29922747Y-71258205D01*
X29931296Y-71228160D01*
X29920947Y-71116479D01*
X29870953Y-71016078D01*
X29788067Y-70940516D01*
X29683481Y-70900000D01*
X29599599Y-70900000D01*
X29517151Y-70915412D01*
X29421791Y-70974457D01*
X29354200Y-71063962D01*
X29323506Y-71171840D01*
X29331453Y-71257606D01*
X28653675Y-70579828D01*
X28620190Y-70518505D01*
X28618885Y-70511560D01*
X28613047Y-70474696D01*
X28555451Y-70361658D01*
X28555447Y-70361654D01*
X28555446Y-70361652D01*
X28465748Y-70271954D01*
X28465745Y-70271952D01*
X28465743Y-70271950D01*
X28453591Y-70265758D01*
X29046712Y-70265758D01*
X29627401Y-70846446D01*
X29627402Y-70846446D01*
X30208088Y-70265758D01*
X30119814Y-70211101D01*
X30119812Y-70211100D01*
X29929722Y-70137460D01*
X29729329Y-70100000D01*
X29525473Y-70100000D01*
X29325079Y-70137460D01*
X29134989Y-70211100D01*
X29134982Y-70211104D01*
X29046713Y-70265757D01*
X29046712Y-70265758D01*
X28453591Y-70265758D01*
X28379575Y-70228045D01*
X28352702Y-70214352D01*
X28258925Y-70199500D01*
X26995883Y-70199500D01*
X26922637Y-70211101D01*
X26902097Y-70214354D01*
X26789059Y-70271950D01*
X26789058Y-70271951D01*
X26789053Y-70271954D01*
X26699355Y-70361652D01*
X26699352Y-70361657D01*
X26699351Y-70361658D01*
X26690385Y-70379255D01*
X26641753Y-70474698D01*
X26626901Y-70568475D01*
X26626901Y-70775500D01*
X26607216Y-70842539D01*
X26554412Y-70888294D01*
X26502901Y-70899500D01*
X23265155Y-70899500D01*
X23198116Y-70879815D01*
X23152361Y-70827011D01*
X23142417Y-70757853D01*
X23156901Y-70715026D01*
X23217348Y-70606820D01*
X23217350Y-70606817D01*
X23294077Y-70389659D01*
X23309365Y-70300499D01*
X23332999Y-70162666D01*
X23333000Y-70162655D01*
X23333000Y-69895023D01*
X23332999Y-69895004D01*
X23318361Y-69723019D01*
X23260326Y-69500132D01*
X23165462Y-69290268D01*
X23165457Y-69290260D01*
X23036490Y-69099446D01*
X22877124Y-68933167D01*
X22877123Y-68933166D01*
X22691957Y-68796217D01*
X22615971Y-68757906D01*
X22486299Y-68692527D01*
X22266080Y-68625086D01*
X22266078Y-68625085D01*
X22266076Y-68625085D01*
X22037625Y-68595831D01*
X21807527Y-68605605D01*
X21807526Y-68605605D01*
X21582375Y-68654129D01*
X21368675Y-68740001D01*
X21172552Y-68860758D01*
X20999661Y-69012922D01*
X20999657Y-69012926D01*
X20854971Y-69192116D01*
X20854970Y-69192118D01*
X20819312Y-69255949D01*
X20769432Y-69304875D01*
X20701019Y-69319067D01*
X20635794Y-69294019D01*
X20608324Y-69264910D01*
X20496493Y-69099450D01*
X20496491Y-69099447D01*
X20337124Y-68933167D01*
X20337123Y-68933166D01*
X20151957Y-68796217D01*
X20075971Y-68757906D01*
X19946299Y-68692527D01*
X19726080Y-68625086D01*
X19726078Y-68625085D01*
X19726076Y-68625085D01*
X19497625Y-68595831D01*
X19267527Y-68605605D01*
X19267526Y-68605605D01*
X19042375Y-68654129D01*
X18828675Y-68740001D01*
X18632552Y-68860758D01*
X18543119Y-68939469D01*
X18479789Y-68968983D01*
X18410556Y-68959573D01*
X18357401Y-68914227D01*
X18345014Y-68889718D01*
X18295854Y-68757913D01*
X18295850Y-68757906D01*
X18209690Y-68642812D01*
X18209687Y-68642809D01*
X18094593Y-68556649D01*
X18094586Y-68556645D01*
X17959879Y-68506403D01*
X17959872Y-68506401D01*
X17900344Y-68500000D01*
X17150000Y-68500000D01*
X17150000Y-69508316D01*
X17121181Y-69490791D01*
X16975596Y-69450000D01*
X16862378Y-69450000D01*
X16750217Y-69465416D01*
X16650000Y-69508946D01*
X16650000Y-68500000D01*
X15899655Y-68500000D01*
X15840127Y-68506401D01*
X15840120Y-68506403D01*
X15705413Y-68556645D01*
X15705406Y-68556649D01*
X15590312Y-68642809D01*
X15590309Y-68642812D01*
X15504149Y-68757906D01*
X15504145Y-68757913D01*
X15453903Y-68892620D01*
X15453901Y-68892627D01*
X15447500Y-68952155D01*
X15447500Y-69750000D01*
X16405148Y-69750000D01*
X16356441Y-69887047D01*
X16346123Y-70037886D01*
X16376884Y-70185915D01*
X16410090Y-70250000D01*
X15447500Y-70250000D01*
X15447500Y-71047844D01*
X13825500Y-71047844D01*
X13825500Y-66931517D01*
X26499500Y-66931517D01*
X26503100Y-66954245D01*
X26514354Y-67025304D01*
X26571950Y-67138342D01*
X26571952Y-67138344D01*
X26571954Y-67138347D01*
X26661652Y-67228045D01*
X26661654Y-67228046D01*
X26661658Y-67228050D01*
X26774694Y-67285645D01*
X26774698Y-67285647D01*
X26868475Y-67300499D01*
X26868481Y-67300500D01*
X28131518Y-67300499D01*
X28225304Y-67285646D01*
X28326193Y-67234240D01*
X28919311Y-67234240D01*
X29007585Y-67288897D01*
X29197678Y-67362539D01*
X29398072Y-67400000D01*
X29601928Y-67400000D01*
X29802322Y-67362539D01*
X29992412Y-67288899D01*
X29992416Y-67288897D01*
X30080686Y-67234241D01*
X30080686Y-67234240D01*
X29500001Y-66653553D01*
X29500000Y-66653553D01*
X28919311Y-67234240D01*
X28326193Y-67234240D01*
X28338342Y-67228050D01*
X28428050Y-67138342D01*
X28485646Y-67025304D01*
X28491482Y-66988451D01*
X28521411Y-66925318D01*
X28526275Y-66920169D01*
X29146446Y-66300000D01*
X29118286Y-66271840D01*
X29196105Y-66271840D01*
X29206454Y-66383521D01*
X29256448Y-66483922D01*
X29339334Y-66559484D01*
X29443920Y-66600000D01*
X29527802Y-66600000D01*
X29610250Y-66584588D01*
X29705610Y-66525543D01*
X29773201Y-66436038D01*
X29803895Y-66328160D01*
X29801286Y-66300000D01*
X29853553Y-66300000D01*
X30437465Y-66883912D01*
X30439247Y-66881553D01*
X30439248Y-66881551D01*
X30530113Y-66699069D01*
X30530116Y-66699063D01*
X30585902Y-66502992D01*
X30585903Y-66502989D01*
X30604713Y-66300000D01*
X30604713Y-66299999D01*
X30585903Y-66097010D01*
X30585902Y-66097007D01*
X30530116Y-65900936D01*
X30530113Y-65900930D01*
X30439249Y-65718449D01*
X30439247Y-65718447D01*
X30437465Y-65716087D01*
X29853553Y-66300000D01*
X29801286Y-66300000D01*
X29793546Y-66216479D01*
X29743552Y-66116078D01*
X29660666Y-66040516D01*
X29556080Y-66000000D01*
X29472198Y-66000000D01*
X29389750Y-66015412D01*
X29294390Y-66074457D01*
X29226799Y-66163962D01*
X29196105Y-66271840D01*
X29118286Y-66271840D01*
X28526274Y-65679828D01*
X28492789Y-65618505D01*
X28491484Y-65611560D01*
X28485646Y-65574696D01*
X28428050Y-65461658D01*
X28428046Y-65461654D01*
X28428045Y-65461652D01*
X28338347Y-65371954D01*
X28338344Y-65371952D01*
X28338342Y-65371950D01*
X28326190Y-65365758D01*
X28919311Y-65365758D01*
X29500000Y-65946446D01*
X29500001Y-65946446D01*
X30080687Y-65365758D01*
X29992413Y-65311101D01*
X29992411Y-65311100D01*
X29802321Y-65237460D01*
X29601928Y-65200000D01*
X29398072Y-65200000D01*
X29197678Y-65237460D01*
X29007588Y-65311100D01*
X29007581Y-65311104D01*
X28919312Y-65365757D01*
X28919311Y-65365758D01*
X28326190Y-65365758D01*
X28261517Y-65332805D01*
X28225301Y-65314352D01*
X28131524Y-65299500D01*
X26868482Y-65299500D01*
X26795236Y-65311101D01*
X26774696Y-65314354D01*
X26661658Y-65371950D01*
X26661657Y-65371951D01*
X26661652Y-65371954D01*
X26571954Y-65461652D01*
X26571951Y-65461657D01*
X26514352Y-65574698D01*
X26499500Y-65668475D01*
X26499500Y-66931517D01*
X13825500Y-66931517D01*
X13825500Y-59550000D01*
X39000000Y-59550000D01*
X39000000Y-59947844D01*
X39006401Y-60007372D01*
X39006403Y-60007379D01*
X39056645Y-60142086D01*
X39056649Y-60142093D01*
X39142809Y-60257187D01*
X39161849Y-60271441D01*
X39203720Y-60327376D01*
X39208703Y-60397068D01*
X39175223Y-60458384D01*
X39171953Y-60461653D01*
X39171951Y-60461657D01*
X39171950Y-60461658D01*
X39160534Y-60484063D01*
X39114352Y-60574698D01*
X39099500Y-60668475D01*
X39099500Y-61931517D01*
X39110292Y-61999657D01*
X39114354Y-62025304D01*
X39171950Y-62138342D01*
X39171952Y-62138344D01*
X39171954Y-62138347D01*
X39245926Y-62212319D01*
X39279411Y-62273642D01*
X39274427Y-62343334D01*
X39245926Y-62387681D01*
X39171954Y-62461652D01*
X39171951Y-62461657D01*
X39171950Y-62461658D01*
X39158403Y-62488246D01*
X39114352Y-62574698D01*
X39099500Y-62668475D01*
X39099500Y-63931517D01*
X39110292Y-63999657D01*
X39114354Y-64025304D01*
X39171950Y-64138342D01*
X39171952Y-64138344D01*
X39171954Y-64138347D01*
X39245926Y-64212319D01*
X39279411Y-64273642D01*
X39274427Y-64343334D01*
X39245926Y-64387681D01*
X39171954Y-64461652D01*
X39171951Y-64461657D01*
X39114352Y-64574698D01*
X39099500Y-64668475D01*
X39099500Y-65931517D01*
X39101865Y-65946446D01*
X39114354Y-66025304D01*
X39171950Y-66138342D01*
X39171952Y-66138344D01*
X39171954Y-66138347D01*
X39245926Y-66212319D01*
X39279411Y-66273642D01*
X39274427Y-66343334D01*
X39245926Y-66387681D01*
X39171954Y-66461652D01*
X39171951Y-66461657D01*
X39114352Y-66574698D01*
X39099500Y-66668475D01*
X39099500Y-67931517D01*
X39110292Y-67999657D01*
X39114354Y-68025304D01*
X39171950Y-68138342D01*
X39171952Y-68138344D01*
X39171954Y-68138347D01*
X39245926Y-68212319D01*
X39279411Y-68273642D01*
X39274427Y-68343334D01*
X39245926Y-68387681D01*
X39171954Y-68461652D01*
X39171951Y-68461657D01*
X39171950Y-68461658D01*
X39162984Y-68479255D01*
X39114352Y-68574698D01*
X39099500Y-68668475D01*
X39099500Y-69931517D01*
X39110292Y-69999657D01*
X39114354Y-70025304D01*
X39171950Y-70138342D01*
X39171952Y-70138344D01*
X39171954Y-70138347D01*
X39261652Y-70228045D01*
X39261654Y-70228046D01*
X39261658Y-70228050D01*
X39357698Y-70276985D01*
X39374698Y-70285647D01*
X39468475Y-70300499D01*
X39468481Y-70300500D01*
X41131518Y-70300499D01*
X41225304Y-70285646D01*
X41338342Y-70228050D01*
X41428050Y-70138342D01*
X41485646Y-70025304D01*
X41485646Y-70025302D01*
X41485647Y-70025301D01*
X41500499Y-69931524D01*
X41500500Y-69931519D01*
X41500499Y-68668482D01*
X41485646Y-68574696D01*
X41428050Y-68461658D01*
X41428046Y-68461654D01*
X41428045Y-68461652D01*
X41354074Y-68387681D01*
X41320589Y-68326358D01*
X41325573Y-68256666D01*
X41354074Y-68212319D01*
X41428045Y-68138347D01*
X41428050Y-68138342D01*
X41485646Y-68025304D01*
X41485646Y-68025302D01*
X41485647Y-68025301D01*
X41497497Y-67950478D01*
X41500500Y-67931519D01*
X41500499Y-66668482D01*
X41485646Y-66574696D01*
X41428050Y-66461658D01*
X41428046Y-66461654D01*
X41428045Y-66461652D01*
X41354074Y-66387681D01*
X41320589Y-66326358D01*
X41325573Y-66256666D01*
X41354074Y-66212319D01*
X41428045Y-66138347D01*
X41428050Y-66138342D01*
X41485646Y-66025304D01*
X41485646Y-66025302D01*
X41485647Y-66025301D01*
X41500499Y-65931524D01*
X41500500Y-65931519D01*
X41500499Y-64668482D01*
X41485646Y-64574696D01*
X41428050Y-64461658D01*
X41428046Y-64461654D01*
X41428045Y-64461652D01*
X41354074Y-64387681D01*
X41320589Y-64326358D01*
X41325573Y-64256666D01*
X41354074Y-64212319D01*
X41428045Y-64138347D01*
X41428050Y-64138342D01*
X41485646Y-64025304D01*
X41485646Y-64025302D01*
X41485647Y-64025301D01*
X41500499Y-63931524D01*
X41500500Y-63931519D01*
X41500499Y-62668482D01*
X41485646Y-62574696D01*
X41428050Y-62461658D01*
X41428046Y-62461654D01*
X41428045Y-62461652D01*
X41354074Y-62387681D01*
X41320589Y-62326358D01*
X41325573Y-62256666D01*
X41354074Y-62212319D01*
X41428045Y-62138347D01*
X41428050Y-62138342D01*
X41485646Y-62025304D01*
X41485646Y-62025302D01*
X41485647Y-62025301D01*
X41500499Y-61931524D01*
X41500500Y-61931519D01*
X41500499Y-60668482D01*
X41485646Y-60574696D01*
X41428050Y-60461658D01*
X41428046Y-60461654D01*
X41428045Y-60461652D01*
X41424781Y-60458388D01*
X41391296Y-60397065D01*
X41396280Y-60327373D01*
X41438151Y-60271440D01*
X41457191Y-60257186D01*
X41543350Y-60142093D01*
X41543354Y-60142086D01*
X41593596Y-60007379D01*
X41593598Y-60007372D01*
X41599999Y-59947844D01*
X41600000Y-59947827D01*
X41600000Y-59550000D01*
X39000000Y-59550000D01*
X13825500Y-59550000D01*
X13825500Y-59050000D01*
X39000000Y-59050000D01*
X40050000Y-59050000D01*
X40050000Y-58200000D01*
X40550000Y-58200000D01*
X40550000Y-59050000D01*
X41600000Y-59050000D01*
X41600000Y-58652172D01*
X41599999Y-58652155D01*
X41593598Y-58592627D01*
X41593596Y-58592620D01*
X41543354Y-58457913D01*
X41543350Y-58457906D01*
X41457190Y-58342812D01*
X41457187Y-58342809D01*
X41342093Y-58256649D01*
X41342086Y-58256645D01*
X41207379Y-58206403D01*
X41207372Y-58206401D01*
X41147844Y-58200000D01*
X40550000Y-58200000D01*
X40050000Y-58200000D01*
X39452155Y-58200000D01*
X39392627Y-58206401D01*
X39392620Y-58206403D01*
X39257913Y-58256645D01*
X39257906Y-58256649D01*
X39142812Y-58342809D01*
X39142809Y-58342812D01*
X39056649Y-58457906D01*
X39056645Y-58457913D01*
X39006403Y-58592620D01*
X39006401Y-58592627D01*
X39000000Y-58652155D01*
X39000000Y-59050000D01*
X13825500Y-59050000D01*
X13825500Y-57919486D01*
X14399500Y-57919486D01*
X14429059Y-58106118D01*
X14487454Y-58285836D01*
X14540698Y-58390332D01*
X14573240Y-58454199D01*
X14684310Y-58607073D01*
X14817927Y-58740690D01*
X14970801Y-58851760D01*
X15050347Y-58892290D01*
X15139163Y-58937545D01*
X15139165Y-58937545D01*
X15139168Y-58937547D01*
X15205141Y-58958983D01*
X15318881Y-58995940D01*
X15505514Y-59025500D01*
X15505519Y-59025500D01*
X34194486Y-59025500D01*
X34381118Y-58995940D01*
X34560832Y-58937547D01*
X34729199Y-58851760D01*
X34882073Y-58740690D01*
X35015690Y-58607073D01*
X35126760Y-58454199D01*
X35212547Y-58285832D01*
X35270940Y-58106118D01*
X35300500Y-57919486D01*
X35300500Y-47730513D01*
X35270940Y-47543881D01*
X35243846Y-47460497D01*
X35212547Y-47364168D01*
X35212545Y-47364165D01*
X35212545Y-47364163D01*
X35135061Y-47212093D01*
X35126760Y-47195801D01*
X35015690Y-47042927D01*
X34882073Y-46909310D01*
X34729199Y-46798240D01*
X34690308Y-46778424D01*
X34560836Y-46712454D01*
X34381118Y-46654059D01*
X34194486Y-46624500D01*
X34194481Y-46624500D01*
X34122590Y-46624500D01*
X15639882Y-46624500D01*
X15600000Y-46624500D01*
X15505519Y-46624500D01*
X15505514Y-46624500D01*
X15318881Y-46654059D01*
X15139163Y-46712454D01*
X14970800Y-46798240D01*
X14940146Y-46820512D01*
X14817927Y-46909310D01*
X14817925Y-46909312D01*
X14817924Y-46909312D01*
X14684312Y-47042924D01*
X14684312Y-47042925D01*
X14684310Y-47042927D01*
X14636610Y-47108579D01*
X14573240Y-47195800D01*
X14487454Y-47364163D01*
X14429059Y-47543881D01*
X14399500Y-47730513D01*
X14399500Y-57919486D01*
X13825500Y-57919486D01*
X13825500Y-46569031D01*
X13845185Y-46501992D01*
X13861819Y-46481350D01*
X17681350Y-42661819D01*
X17742673Y-42628334D01*
X17769031Y-42625500D01*
X20442060Y-42625500D01*
X20509099Y-42645185D01*
X20529741Y-42661819D01*
X20597738Y-42729816D01*
X20750478Y-42825789D01*
X20872822Y-42868599D01*
X20920745Y-42885368D01*
X20920750Y-42885369D01*
X21099996Y-42905565D01*
X21100000Y-42905565D01*
X21100004Y-42905565D01*
X21279249Y-42885369D01*
X21279252Y-42885368D01*
X21279255Y-42885368D01*
X21449522Y-42825789D01*
X21602262Y-42729816D01*
X21729816Y-42602262D01*
X21825789Y-42449522D01*
X21885368Y-42279255D01*
X21885369Y-42279249D01*
X21905565Y-42100003D01*
X21905565Y-42099995D01*
X21901440Y-42063383D01*
X21913495Y-41994561D01*
X21960844Y-41943182D01*
X22024660Y-41925500D01*
X22758189Y-41925500D01*
X22825228Y-41945185D01*
G37*
%TD.AperFunction*%
%TA.AperFunction,Conductor*%
G36*
X34080607Y-16598271D02*
G01*
X34130532Y-16628702D01*
X35465558Y-17963728D01*
X35468499Y-17966771D01*
X35490593Y-17990427D01*
X35510245Y-18011469D01*
X35543499Y-18031691D01*
X35553990Y-18038830D01*
X35585025Y-18062365D01*
X35585028Y-18062366D01*
X35585028Y-18062367D01*
X35600509Y-18068471D01*
X35619451Y-18077878D01*
X35633672Y-18086526D01*
X35671160Y-18097029D01*
X35683184Y-18101072D01*
X35719411Y-18115359D01*
X35735977Y-18117061D01*
X35756741Y-18121008D01*
X35772772Y-18125500D01*
X35811696Y-18125500D01*
X35824376Y-18126150D01*
X35827275Y-18126447D01*
X35863110Y-18130132D01*
X35879518Y-18127303D01*
X35900586Y-18125500D01*
X41462336Y-18125500D01*
X41529375Y-18145185D01*
X41575130Y-18197989D01*
X41585074Y-18267147D01*
X41556049Y-18330703D01*
X41536647Y-18348767D01*
X41477809Y-18392813D01*
X41391649Y-18507906D01*
X41391645Y-18507913D01*
X41341403Y-18642620D01*
X41341401Y-18642627D01*
X41335000Y-18702155D01*
X41335000Y-19250000D01*
X42080440Y-19250000D01*
X42041722Y-19292059D01*
X41991449Y-19406670D01*
X41981114Y-19531395D01*
X42011837Y-19652719D01*
X42075394Y-19750000D01*
X41335000Y-19750000D01*
X41335000Y-20297844D01*
X41341401Y-20357372D01*
X41341403Y-20357379D01*
X41391645Y-20492086D01*
X41391649Y-20492093D01*
X41477809Y-20607187D01*
X41477812Y-20607190D01*
X41592906Y-20693350D01*
X41592913Y-20693354D01*
X41727620Y-20743596D01*
X41727627Y-20743598D01*
X41787155Y-20749999D01*
X41787172Y-20750000D01*
X42110000Y-20750000D01*
X42110000Y-19780617D01*
X42179052Y-19834363D01*
X42297424Y-19875000D01*
X42391073Y-19875000D01*
X42483446Y-19859586D01*
X42593514Y-19800019D01*
X42610000Y-19782110D01*
X42610000Y-20750000D01*
X42932828Y-20750000D01*
X42932844Y-20749999D01*
X42992372Y-20743598D01*
X42992379Y-20743596D01*
X43127086Y-20693354D01*
X43127089Y-20693352D01*
X43218912Y-20624613D01*
X43284376Y-20600195D01*
X43335859Y-20609229D01*
X43336245Y-20608042D01*
X43342429Y-20610051D01*
X43532726Y-20650500D01*
X43727274Y-20650500D01*
X43917571Y-20610051D01*
X44095299Y-20530922D01*
X44192115Y-20460580D01*
X44257920Y-20437101D01*
X44325974Y-20452926D01*
X44337878Y-20460576D01*
X44381248Y-20492086D01*
X44434702Y-20530923D01*
X44464052Y-20543990D01*
X44612429Y-20610051D01*
X44802726Y-20650500D01*
X44997274Y-20650500D01*
X45187571Y-20610051D01*
X45365299Y-20530922D01*
X45522692Y-20416569D01*
X45577733Y-20355439D01*
X45637218Y-20318793D01*
X45707075Y-20320122D01*
X45757563Y-20350732D01*
X46438181Y-21031350D01*
X46471666Y-21092673D01*
X46474500Y-21119031D01*
X46474500Y-21779010D01*
X46454815Y-21846049D01*
X46415778Y-21884437D01*
X46296434Y-21958332D01*
X46137223Y-22103471D01*
X46007386Y-22275402D01*
X45911360Y-22468249D01*
X45911356Y-22468259D01*
X45852397Y-22675482D01*
X45851888Y-22678210D01*
X45851284Y-22679397D01*
X45850831Y-22680990D01*
X45850519Y-22680901D01*
X45820218Y-22740490D01*
X45759904Y-22775761D01*
X45690096Y-22772825D01*
X45632957Y-22732614D01*
X45609357Y-22680936D01*
X45609169Y-22680990D01*
X45608817Y-22679755D01*
X45608112Y-22678210D01*
X45607602Y-22675482D01*
X45607601Y-22675479D01*
X45607601Y-22675476D01*
X45548643Y-22468258D01*
X45548639Y-22468249D01*
X45452613Y-22275402D01*
X45322776Y-22103471D01*
X45163564Y-21958331D01*
X45163562Y-21958329D01*
X44980394Y-21844916D01*
X44980388Y-21844913D01*
X44810270Y-21779010D01*
X44779496Y-21767088D01*
X44567721Y-21727500D01*
X44352279Y-21727500D01*
X44140504Y-21767088D01*
X44140501Y-21767088D01*
X44140501Y-21767089D01*
X43939611Y-21844913D01*
X43939605Y-21844916D01*
X43756437Y-21958329D01*
X43756435Y-21958331D01*
X43597223Y-22103471D01*
X43467386Y-22275402D01*
X43371360Y-22468249D01*
X43371353Y-22468267D01*
X43361419Y-22503184D01*
X43324140Y-22562277D01*
X43260830Y-22591834D01*
X43191591Y-22582472D01*
X43138404Y-22537162D01*
X43122378Y-22501342D01*
X43110424Y-22456729D01*
X43110420Y-22456720D01*
X43017096Y-22256586D01*
X42971741Y-22191811D01*
X42971740Y-22191810D01*
X42304903Y-22858648D01*
X42304949Y-22858102D01*
X42273734Y-22734838D01*
X42204187Y-22628388D01*
X42103843Y-22550287D01*
X41983578Y-22509000D01*
X41947448Y-22509000D01*
X42618188Y-21838259D01*
X42618187Y-21838258D01*
X42553411Y-21792901D01*
X42553405Y-21792898D01*
X42353284Y-21699580D01*
X42353270Y-21699575D01*
X42139986Y-21642426D01*
X42139976Y-21642424D01*
X41920001Y-21623179D01*
X41919999Y-21623179D01*
X41700023Y-21642424D01*
X41700013Y-21642426D01*
X41486729Y-21699575D01*
X41486720Y-21699579D01*
X41286590Y-21792901D01*
X41221811Y-21838258D01*
X41892553Y-22509000D01*
X41888431Y-22509000D01*
X41794579Y-22524661D01*
X41682749Y-22585180D01*
X41596629Y-22678731D01*
X41545552Y-22795177D01*
X41539894Y-22863447D01*
X40868258Y-22191811D01*
X40822901Y-22256590D01*
X40729579Y-22456720D01*
X40729575Y-22456729D01*
X40672426Y-22670013D01*
X40672424Y-22670023D01*
X40653179Y-22889999D01*
X40653179Y-22890000D01*
X40672424Y-23109976D01*
X40672426Y-23109986D01*
X40729575Y-23323270D01*
X40729580Y-23323284D01*
X40822898Y-23523405D01*
X40822901Y-23523411D01*
X40868258Y-23588187D01*
X40868259Y-23588188D01*
X41535096Y-22921350D01*
X41535051Y-22921898D01*
X41566266Y-23045162D01*
X41635813Y-23151612D01*
X41736157Y-23229713D01*
X41856422Y-23271000D01*
X41892553Y-23271000D01*
X41221810Y-23941740D01*
X41286590Y-23987099D01*
X41286592Y-23987100D01*
X41486715Y-24080419D01*
X41486729Y-24080424D01*
X41700013Y-24137573D01*
X41700023Y-24137575D01*
X41919999Y-24156821D01*
X41920001Y-24156821D01*
X42139976Y-24137575D01*
X42139986Y-24137573D01*
X42353270Y-24080424D01*
X42353284Y-24080419D01*
X42553407Y-23987100D01*
X42553417Y-23987094D01*
X42618188Y-23941741D01*
X41947448Y-23271000D01*
X41951569Y-23271000D01*
X42045421Y-23255339D01*
X42157251Y-23194820D01*
X42243371Y-23101269D01*
X42294448Y-22984823D01*
X42300105Y-22916552D01*
X42971741Y-23588188D01*
X43017094Y-23523417D01*
X43017100Y-23523407D01*
X43110419Y-23323284D01*
X43110425Y-23323268D01*
X43122378Y-23278658D01*
X43158742Y-23218997D01*
X43221589Y-23188467D01*
X43290964Y-23196761D01*
X43344843Y-23241246D01*
X43361420Y-23276816D01*
X43371356Y-23311740D01*
X43371360Y-23311750D01*
X43467386Y-23504597D01*
X43597223Y-23676528D01*
X43756435Y-23821668D01*
X43756437Y-23821670D01*
X43939605Y-23935083D01*
X43939611Y-23935086D01*
X43967270Y-23945801D01*
X44140504Y-24012912D01*
X44352279Y-24052500D01*
X44352281Y-24052500D01*
X44567719Y-24052500D01*
X44567721Y-24052500D01*
X44766008Y-24015433D01*
X44835520Y-24022464D01*
X44876471Y-24049641D01*
X45990544Y-25163713D01*
X45993486Y-25166757D01*
X46035243Y-25211468D01*
X46068501Y-25231692D01*
X46078998Y-25238836D01*
X46101342Y-25255779D01*
X46110025Y-25262364D01*
X46125510Y-25268470D01*
X46144448Y-25277876D01*
X46158672Y-25286526D01*
X46196168Y-25297031D01*
X46208180Y-25301071D01*
X46244411Y-25315359D01*
X46250067Y-25315940D01*
X46260968Y-25317061D01*
X46281746Y-25321009D01*
X46297772Y-25325500D01*
X46336704Y-25325500D01*
X46349383Y-25326150D01*
X46354428Y-25326668D01*
X46388110Y-25330131D01*
X46404514Y-25327302D01*
X46425580Y-25325500D01*
X49930968Y-25325500D01*
X49998007Y-25345185D01*
X50018649Y-25361819D01*
X51738181Y-27081350D01*
X51771666Y-27142673D01*
X51774500Y-27169031D01*
X51774500Y-34892776D01*
X51754815Y-34959815D01*
X51702011Y-35005570D01*
X51632853Y-35015514D01*
X51569297Y-34986489D01*
X51542415Y-34953550D01*
X51524377Y-34921470D01*
X51518733Y-34910108D01*
X51503219Y-34874391D01*
X51492706Y-34861469D01*
X51480811Y-34843990D01*
X51472657Y-34829488D01*
X51445123Y-34801954D01*
X51436636Y-34792550D01*
X51412054Y-34762335D01*
X51398450Y-34752732D01*
X51382278Y-34739109D01*
X33506121Y-16862952D01*
X33472636Y-16801629D01*
X33477620Y-16731937D01*
X33519492Y-16676004D01*
X33584956Y-16651587D01*
X33604604Y-16651742D01*
X33645000Y-16655277D01*
X33645002Y-16655277D01*
X33673254Y-16652805D01*
X33862977Y-16636207D01*
X34010761Y-16596608D01*
X34080607Y-16598271D01*
G37*
%TD.AperFunction*%
%TA.AperFunction,Conductor*%
G36*
X59950000Y-45684498D02*
G01*
X59842315Y-45635320D01*
X59735763Y-45620000D01*
X59664237Y-45620000D01*
X59557685Y-45635320D01*
X59450000Y-45684498D01*
X59450000Y-44015501D01*
X59557685Y-44064680D01*
X59664237Y-44080000D01*
X59735763Y-44080000D01*
X59842315Y-44064680D01*
X59950000Y-44015501D01*
X59950000Y-45684498D01*
G37*
%TD.AperFunction*%
%TA.AperFunction,Conductor*%
G36*
X59950000Y-43144498D02*
G01*
X59842315Y-43095320D01*
X59735763Y-43080000D01*
X59664237Y-43080000D01*
X59557685Y-43095320D01*
X59450000Y-43144498D01*
X59450000Y-41475501D01*
X59557685Y-41524680D01*
X59664237Y-41540000D01*
X59735763Y-41540000D01*
X59842315Y-41524680D01*
X59950000Y-41475501D01*
X59950000Y-43144498D01*
G37*
%TD.AperFunction*%
%TA.AperFunction,Conductor*%
G36*
X59950000Y-40604498D02*
G01*
X59842315Y-40555320D01*
X59735763Y-40540000D01*
X59664237Y-40540000D01*
X59557685Y-40555320D01*
X59450000Y-40604498D01*
X59450000Y-38935501D01*
X59557685Y-38984680D01*
X59664237Y-39000000D01*
X59735763Y-39000000D01*
X59842315Y-38984680D01*
X59950000Y-38935501D01*
X59950000Y-40604498D01*
G37*
%TD.AperFunction*%
%TA.AperFunction,Conductor*%
G36*
X59950000Y-38064498D02*
G01*
X59842315Y-38015320D01*
X59735763Y-38000000D01*
X59664237Y-38000000D01*
X59557685Y-38015320D01*
X59450000Y-38064498D01*
X59450000Y-36395501D01*
X59557685Y-36444680D01*
X59664237Y-36460000D01*
X59735763Y-36460000D01*
X59842315Y-36444680D01*
X59950000Y-36395501D01*
X59950000Y-38064498D01*
G37*
%TD.AperFunction*%
%TA.AperFunction,Conductor*%
G36*
X59950000Y-35524498D02*
G01*
X59842315Y-35475320D01*
X59735763Y-35460000D01*
X59664237Y-35460000D01*
X59557685Y-35475320D01*
X59450000Y-35524498D01*
X59450000Y-33855501D01*
X59557685Y-33904680D01*
X59664237Y-33920000D01*
X59735763Y-33920000D01*
X59842315Y-33904680D01*
X59950000Y-33855501D01*
X59950000Y-35524498D01*
G37*
%TD.AperFunction*%
%TA.AperFunction,Conductor*%
G36*
X59950000Y-32984498D02*
G01*
X59842315Y-32935320D01*
X59735763Y-32920000D01*
X59664237Y-32920000D01*
X59557685Y-32935320D01*
X59450000Y-32984498D01*
X59450000Y-31315501D01*
X59557685Y-31364680D01*
X59664237Y-31380000D01*
X59735763Y-31380000D01*
X59842315Y-31364680D01*
X59950000Y-31315501D01*
X59950000Y-32984498D01*
G37*
%TD.AperFunction*%
%TA.AperFunction,Conductor*%
G36*
X59950000Y-30444498D02*
G01*
X59842315Y-30395320D01*
X59735763Y-30380000D01*
X59664237Y-30380000D01*
X59557685Y-30395320D01*
X59450000Y-30444498D01*
X59450000Y-28775501D01*
X59557685Y-28824680D01*
X59664237Y-28840000D01*
X59735763Y-28840000D01*
X59842315Y-28824680D01*
X59950000Y-28775501D01*
X59950000Y-30444498D01*
G37*
%TD.AperFunction*%
%TA.AperFunction,Conductor*%
G36*
X59950000Y-27904498D02*
G01*
X59842315Y-27855320D01*
X59735763Y-27840000D01*
X59664237Y-27840000D01*
X59557685Y-27855320D01*
X59450000Y-27904498D01*
X59450000Y-26235501D01*
X59557685Y-26284680D01*
X59664237Y-26300000D01*
X59735763Y-26300000D01*
X59842315Y-26284680D01*
X59950000Y-26235501D01*
X59950000Y-27904498D01*
G37*
%TD.AperFunction*%
%TA.AperFunction,Conductor*%
G36*
X59950000Y-25364498D02*
G01*
X59842315Y-25315320D01*
X59735763Y-25300000D01*
X59664237Y-25300000D01*
X59557685Y-25315320D01*
X59450000Y-25364498D01*
X59450000Y-23695501D01*
X59557685Y-23744680D01*
X59664237Y-23760000D01*
X59735763Y-23760000D01*
X59842315Y-23744680D01*
X59950000Y-23695501D01*
X59950000Y-25364498D01*
G37*
%TD.AperFunction*%
%TA.AperFunction,Conductor*%
G36*
X59950000Y-22824498D02*
G01*
X59842315Y-22775320D01*
X59735763Y-22760000D01*
X59664237Y-22760000D01*
X59557685Y-22775320D01*
X59450000Y-22824498D01*
X59450000Y-21155501D01*
X59557685Y-21204680D01*
X59664237Y-21220000D01*
X59735763Y-21220000D01*
X59842315Y-21204680D01*
X59950000Y-21155501D01*
X59950000Y-22824498D01*
G37*
%TD.AperFunction*%
%TA.AperFunction,Conductor*%
G36*
X57580505Y-12220185D02*
G01*
X57626260Y-12272989D01*
X57636204Y-12342147D01*
X57607179Y-12405703D01*
X57548401Y-12443477D01*
X57547793Y-12443654D01*
X57441281Y-12474339D01*
X57109168Y-12611905D01*
X56794545Y-12785790D01*
X56501377Y-12993805D01*
X56233339Y-13233339D01*
X55993805Y-13501377D01*
X55785790Y-13794545D01*
X55611905Y-14109168D01*
X55500943Y-14377053D01*
X55475532Y-14438402D01*
X55474339Y-14441281D01*
X55374828Y-14786694D01*
X55374826Y-14786703D01*
X55314614Y-15141085D01*
X55314612Y-15141097D01*
X55294457Y-15500000D01*
X55314612Y-15858902D01*
X55314614Y-15858914D01*
X55374826Y-16213296D01*
X55374828Y-16213305D01*
X55468548Y-16538616D01*
X55474341Y-16558724D01*
X55611906Y-16890833D01*
X55687900Y-17028334D01*
X55785790Y-17205454D01*
X55808302Y-17237181D01*
X55993806Y-17498623D01*
X56233339Y-17766661D01*
X56455553Y-17965243D01*
X56501377Y-18006194D01*
X56631810Y-18098742D01*
X56794548Y-18214211D01*
X57109167Y-18388094D01*
X57441276Y-18525659D01*
X57786700Y-18625173D01*
X58141093Y-18685387D01*
X58500000Y-18705543D01*
X58858907Y-18685387D01*
X59213300Y-18625173D01*
X59558724Y-18525659D01*
X59890833Y-18388094D01*
X60205452Y-18214211D01*
X60498623Y-18006194D01*
X60766661Y-17766661D01*
X61006194Y-17498623D01*
X61214211Y-17205452D01*
X61388094Y-16890833D01*
X61525659Y-16558724D01*
X61556346Y-16452205D01*
X61593820Y-16393236D01*
X61657227Y-16363887D01*
X61726435Y-16373477D01*
X61779472Y-16418962D01*
X61799498Y-16485900D01*
X61799500Y-16486533D01*
X61799500Y-87513466D01*
X61779815Y-87580505D01*
X61727011Y-87626260D01*
X61657853Y-87636204D01*
X61594297Y-87607179D01*
X61556523Y-87548401D01*
X61556346Y-87547793D01*
X61525660Y-87441281D01*
X61525659Y-87441276D01*
X61388094Y-87109167D01*
X61214211Y-86794548D01*
X61006194Y-86501377D01*
X60766661Y-86233339D01*
X60498623Y-85993806D01*
X60498622Y-85993805D01*
X60205454Y-85785790D01*
X59890831Y-85611905D01*
X59804086Y-85575974D01*
X59558724Y-85474341D01*
X59558720Y-85474339D01*
X59558718Y-85474339D01*
X59213305Y-85374828D01*
X59213296Y-85374826D01*
X58858914Y-85314614D01*
X58858902Y-85314612D01*
X58500000Y-85294457D01*
X58141097Y-85314612D01*
X58141085Y-85314614D01*
X57786703Y-85374826D01*
X57786694Y-85374828D01*
X57441281Y-85474339D01*
X57109168Y-85611905D01*
X56794545Y-85785790D01*
X56501377Y-85993805D01*
X56233339Y-86233339D01*
X55993805Y-86501377D01*
X55785790Y-86794545D01*
X55611905Y-87109168D01*
X55474339Y-87441281D01*
X55374828Y-87786694D01*
X55374826Y-87786703D01*
X55314614Y-88141085D01*
X55314612Y-88141097D01*
X55294457Y-88500000D01*
X55314612Y-88858902D01*
X55314614Y-88858914D01*
X55374826Y-89213296D01*
X55374828Y-89213305D01*
X55460074Y-89509202D01*
X55474341Y-89558724D01*
X55561073Y-89768111D01*
X55611905Y-89890831D01*
X55785790Y-90205454D01*
X55993805Y-90498622D01*
X55993806Y-90498623D01*
X56233339Y-90766661D01*
X56418450Y-90932086D01*
X56501377Y-91006194D01*
X56760424Y-91189999D01*
X56794548Y-91214211D01*
X57109167Y-91388094D01*
X57441276Y-91525659D01*
X57507238Y-91544662D01*
X57547793Y-91556346D01*
X57606763Y-91593820D01*
X57636112Y-91657227D01*
X57626522Y-91726435D01*
X57581037Y-91779472D01*
X57514099Y-91799498D01*
X57513466Y-91799500D01*
X16486534Y-91799500D01*
X16419495Y-91779815D01*
X16373740Y-91727011D01*
X16363796Y-91657853D01*
X16392821Y-91594297D01*
X16451599Y-91556523D01*
X16452207Y-91556346D01*
X16481070Y-91548030D01*
X16558724Y-91525659D01*
X16890833Y-91388094D01*
X17205452Y-91214211D01*
X17498623Y-91006194D01*
X17766661Y-90766661D01*
X17792413Y-90737844D01*
X27643500Y-90737844D01*
X27649901Y-90797372D01*
X27649903Y-90797379D01*
X27700145Y-90932086D01*
X27700149Y-90932093D01*
X27786309Y-91047187D01*
X27786312Y-91047190D01*
X27901406Y-91133350D01*
X27901413Y-91133354D01*
X28036120Y-91183596D01*
X28036127Y-91183598D01*
X28095655Y-91189999D01*
X28095672Y-91190000D01*
X28743500Y-91190000D01*
X28743500Y-90275501D01*
X28851185Y-90324680D01*
X28957737Y-90340000D01*
X29029263Y-90340000D01*
X29135815Y-90324680D01*
X29243500Y-90275501D01*
X29243500Y-91190000D01*
X29891328Y-91190000D01*
X29891344Y-91189999D01*
X29950872Y-91183598D01*
X29950879Y-91183596D01*
X30085586Y-91133354D01*
X30085593Y-91133350D01*
X30200687Y-91047190D01*
X30200690Y-91047187D01*
X30286850Y-90932093D01*
X30286854Y-90932086D01*
X30336114Y-90800013D01*
X30377985Y-90744079D01*
X30443449Y-90719662D01*
X30511722Y-90734513D01*
X30539977Y-90755665D01*
X30662417Y-90878105D01*
X30855921Y-91013600D01*
X31070007Y-91113429D01*
X31070016Y-91113433D01*
X31283500Y-91170634D01*
X31283500Y-90275501D01*
X31391185Y-90324680D01*
X31497737Y-90340000D01*
X31569263Y-90340000D01*
X31675815Y-90324680D01*
X31783500Y-90275501D01*
X31783500Y-91170634D01*
X31996983Y-91113433D01*
X31996992Y-91113429D01*
X32211078Y-91013600D01*
X32404582Y-90878105D01*
X32571605Y-90711082D01*
X32701925Y-90524968D01*
X32756502Y-90481344D01*
X32826001Y-90474151D01*
X32888355Y-90505673D01*
X32905075Y-90524968D01*
X33035394Y-90711082D01*
X33202417Y-90878105D01*
X33395921Y-91013600D01*
X33610007Y-91113429D01*
X33610016Y-91113433D01*
X33823500Y-91170634D01*
X33823500Y-90275501D01*
X33931185Y-90324680D01*
X34037737Y-90340000D01*
X34109263Y-90340000D01*
X34215815Y-90324680D01*
X34323500Y-90275501D01*
X34323500Y-91170633D01*
X34536983Y-91113433D01*
X34536992Y-91113429D01*
X34751078Y-91013600D01*
X34944582Y-90878105D01*
X35111605Y-90711082D01*
X35241925Y-90524968D01*
X35296502Y-90481344D01*
X35366001Y-90474151D01*
X35428355Y-90505673D01*
X35445075Y-90524968D01*
X35575394Y-90711082D01*
X35742417Y-90878105D01*
X35935921Y-91013600D01*
X36150007Y-91113429D01*
X36150016Y-91113433D01*
X36363500Y-91170634D01*
X36363500Y-90275501D01*
X36471185Y-90324680D01*
X36577737Y-90340000D01*
X36649263Y-90340000D01*
X36755815Y-90324680D01*
X36863500Y-90275501D01*
X36863500Y-91170633D01*
X37076983Y-91113433D01*
X37076992Y-91113429D01*
X37291078Y-91013600D01*
X37484582Y-90878105D01*
X37651605Y-90711082D01*
X37781925Y-90524968D01*
X37836502Y-90481344D01*
X37906001Y-90474151D01*
X37968355Y-90505673D01*
X37985075Y-90524968D01*
X38115394Y-90711082D01*
X38282417Y-90878105D01*
X38475921Y-91013600D01*
X38690007Y-91113429D01*
X38690016Y-91113433D01*
X38903500Y-91170634D01*
X38903500Y-90275501D01*
X39011185Y-90324680D01*
X39117737Y-90340000D01*
X39189263Y-90340000D01*
X39295815Y-90324680D01*
X39403500Y-90275501D01*
X39403500Y-91170633D01*
X39616983Y-91113433D01*
X39616992Y-91113429D01*
X39831078Y-91013600D01*
X40024582Y-90878105D01*
X40191605Y-90711082D01*
X40321925Y-90524968D01*
X40376502Y-90481344D01*
X40446001Y-90474151D01*
X40508355Y-90505673D01*
X40525075Y-90524968D01*
X40655394Y-90711082D01*
X40822417Y-90878105D01*
X41015921Y-91013600D01*
X41230007Y-91113429D01*
X41230016Y-91113433D01*
X41443500Y-91170634D01*
X41443500Y-90275501D01*
X41551185Y-90324680D01*
X41657737Y-90340000D01*
X41729263Y-90340000D01*
X41835815Y-90324680D01*
X41943500Y-90275501D01*
X41943500Y-91170633D01*
X42156983Y-91113433D01*
X42156992Y-91113429D01*
X42371078Y-91013600D01*
X42564582Y-90878105D01*
X42731605Y-90711082D01*
X42861925Y-90524968D01*
X42916502Y-90481344D01*
X42986001Y-90474151D01*
X43048355Y-90505673D01*
X43065075Y-90524968D01*
X43195394Y-90711082D01*
X43362417Y-90878105D01*
X43555921Y-91013600D01*
X43770007Y-91113429D01*
X43770016Y-91113433D01*
X43983500Y-91170634D01*
X43983500Y-90275501D01*
X44091185Y-90324680D01*
X44197737Y-90340000D01*
X44269263Y-90340000D01*
X44375815Y-90324680D01*
X44483500Y-90275501D01*
X44483500Y-91170634D01*
X44696983Y-91113433D01*
X44696992Y-91113429D01*
X44911078Y-91013600D01*
X45104582Y-90878105D01*
X45271605Y-90711082D01*
X45401925Y-90524968D01*
X45456502Y-90481344D01*
X45526001Y-90474151D01*
X45588355Y-90505673D01*
X45605075Y-90524968D01*
X45735394Y-90711082D01*
X45902417Y-90878105D01*
X46095921Y-91013600D01*
X46310007Y-91113429D01*
X46310016Y-91113433D01*
X46523500Y-91170634D01*
X46523500Y-90275501D01*
X46631185Y-90324680D01*
X46737737Y-90340000D01*
X46809263Y-90340000D01*
X46915815Y-90324680D01*
X47023500Y-90275501D01*
X47023500Y-91170634D01*
X47236983Y-91113433D01*
X47236992Y-91113429D01*
X47451078Y-91013600D01*
X47644582Y-90878105D01*
X47811605Y-90711082D01*
X47941925Y-90524968D01*
X47996502Y-90481344D01*
X48066001Y-90474151D01*
X48128355Y-90505673D01*
X48145075Y-90524968D01*
X48275394Y-90711082D01*
X48442417Y-90878105D01*
X48635921Y-91013600D01*
X48850007Y-91113429D01*
X48850016Y-91113433D01*
X49063500Y-91170634D01*
X49063500Y-90275501D01*
X49171185Y-90324680D01*
X49277737Y-90340000D01*
X49349263Y-90340000D01*
X49455815Y-90324680D01*
X49563500Y-90275501D01*
X49563500Y-91170634D01*
X49776983Y-91113433D01*
X49776992Y-91113429D01*
X49991078Y-91013600D01*
X50184582Y-90878105D01*
X50351605Y-90711082D01*
X50481925Y-90524968D01*
X50536502Y-90481344D01*
X50606001Y-90474151D01*
X50668355Y-90505673D01*
X50685075Y-90524968D01*
X50815394Y-90711082D01*
X50982417Y-90878105D01*
X51175921Y-91013600D01*
X51390007Y-91113429D01*
X51390016Y-91113433D01*
X51603500Y-91170634D01*
X51603500Y-90275501D01*
X51711185Y-90324680D01*
X51817737Y-90340000D01*
X51889263Y-90340000D01*
X51995815Y-90324680D01*
X52103500Y-90275501D01*
X52103500Y-91170634D01*
X52316983Y-91113433D01*
X52316992Y-91113429D01*
X52531078Y-91013600D01*
X52724582Y-90878105D01*
X52891605Y-90711082D01*
X53027100Y-90517578D01*
X53126929Y-90303492D01*
X53126932Y-90303486D01*
X53184136Y-90090000D01*
X52287186Y-90090000D01*
X52312993Y-90049844D01*
X52353500Y-89911889D01*
X52353500Y-89768111D01*
X52312993Y-89630156D01*
X52287186Y-89590000D01*
X53184136Y-89590000D01*
X53184135Y-89589999D01*
X53126932Y-89376513D01*
X53126929Y-89376507D01*
X53027100Y-89162422D01*
X53027099Y-89162420D01*
X52891613Y-88968926D01*
X52891608Y-88968920D01*
X52724582Y-88801894D01*
X52531078Y-88666399D01*
X52447634Y-88627489D01*
X52395195Y-88581317D01*
X52376043Y-88514123D01*
X52396259Y-88447242D01*
X52447632Y-88402726D01*
X52481139Y-88387102D01*
X52660377Y-88261598D01*
X52815098Y-88106877D01*
X52940602Y-87927639D01*
X53033075Y-87729330D01*
X53089707Y-87517977D01*
X53108777Y-87300000D01*
X53089707Y-87082023D01*
X53033075Y-86870670D01*
X52940602Y-86672362D01*
X52940600Y-86672359D01*
X52940599Y-86672357D01*
X52815099Y-86493124D01*
X52815096Y-86493121D01*
X52660377Y-86338402D01*
X52481139Y-86212898D01*
X52481140Y-86212898D01*
X52481138Y-86212897D01*
X52381984Y-86166661D01*
X52282830Y-86120425D01*
X52282826Y-86120424D01*
X52282822Y-86120422D01*
X52071477Y-86063793D01*
X51853502Y-86044723D01*
X51853498Y-86044723D01*
X51708182Y-86057436D01*
X51635523Y-86063793D01*
X51635520Y-86063793D01*
X51424177Y-86120422D01*
X51424168Y-86120426D01*
X51225861Y-86212898D01*
X51225857Y-86212900D01*
X51046621Y-86338402D01*
X50891902Y-86493121D01*
X50766400Y-86672357D01*
X50766398Y-86672361D01*
X50695882Y-86823583D01*
X50649709Y-86876022D01*
X50582516Y-86895174D01*
X50515635Y-86874958D01*
X50471118Y-86823583D01*
X50456618Y-86792488D01*
X50400602Y-86672362D01*
X50400600Y-86672359D01*
X50400599Y-86672357D01*
X50275099Y-86493124D01*
X50275096Y-86493121D01*
X50120377Y-86338402D01*
X49941139Y-86212898D01*
X49941140Y-86212898D01*
X49941138Y-86212897D01*
X49841984Y-86166661D01*
X49742830Y-86120425D01*
X49742826Y-86120424D01*
X49742822Y-86120422D01*
X49531477Y-86063793D01*
X49313502Y-86044723D01*
X49313498Y-86044723D01*
X49168182Y-86057436D01*
X49095523Y-86063793D01*
X49095520Y-86063793D01*
X48884177Y-86120422D01*
X48884168Y-86120426D01*
X48685861Y-86212898D01*
X48685857Y-86212900D01*
X48506621Y-86338402D01*
X48351902Y-86493121D01*
X48226400Y-86672357D01*
X48226398Y-86672361D01*
X48155882Y-86823583D01*
X48109709Y-86876022D01*
X48042516Y-86895174D01*
X47975635Y-86874958D01*
X47931118Y-86823583D01*
X47916618Y-86792488D01*
X47860602Y-86672362D01*
X47860600Y-86672359D01*
X47860599Y-86672357D01*
X47735099Y-86493124D01*
X47735096Y-86493121D01*
X47580377Y-86338402D01*
X47401139Y-86212898D01*
X47401140Y-86212898D01*
X47401138Y-86212897D01*
X47301984Y-86166661D01*
X47202830Y-86120425D01*
X47202826Y-86120424D01*
X47202822Y-86120422D01*
X46991477Y-86063793D01*
X46773502Y-86044723D01*
X46773498Y-86044723D01*
X46628182Y-86057436D01*
X46555523Y-86063793D01*
X46555520Y-86063793D01*
X46344177Y-86120422D01*
X46344168Y-86120426D01*
X46145861Y-86212898D01*
X46145857Y-86212900D01*
X45966621Y-86338402D01*
X45811902Y-86493121D01*
X45686400Y-86672357D01*
X45686398Y-86672361D01*
X45615882Y-86823583D01*
X45569709Y-86876022D01*
X45502516Y-86895174D01*
X45435635Y-86874958D01*
X45391118Y-86823583D01*
X45376618Y-86792488D01*
X45320602Y-86672362D01*
X45320600Y-86672359D01*
X45320599Y-86672357D01*
X45195099Y-86493124D01*
X45195096Y-86493121D01*
X45040377Y-86338402D01*
X44861139Y-86212898D01*
X44861140Y-86212898D01*
X44861138Y-86212897D01*
X44761984Y-86166661D01*
X44662830Y-86120425D01*
X44662826Y-86120424D01*
X44662822Y-86120422D01*
X44451477Y-86063793D01*
X44233502Y-86044723D01*
X44233498Y-86044723D01*
X44088182Y-86057436D01*
X44015523Y-86063793D01*
X44015520Y-86063793D01*
X43804177Y-86120422D01*
X43804168Y-86120426D01*
X43605861Y-86212898D01*
X43605857Y-86212900D01*
X43426621Y-86338402D01*
X43271902Y-86493121D01*
X43146400Y-86672357D01*
X43146398Y-86672361D01*
X43075882Y-86823583D01*
X43029709Y-86876022D01*
X42962516Y-86895174D01*
X42895635Y-86874958D01*
X42851118Y-86823583D01*
X42836618Y-86792488D01*
X42780602Y-86672362D01*
X42780600Y-86672359D01*
X42780599Y-86672357D01*
X42655099Y-86493124D01*
X42655096Y-86493121D01*
X42500377Y-86338402D01*
X42321139Y-86212898D01*
X42321140Y-86212898D01*
X42321138Y-86212897D01*
X42221984Y-86166661D01*
X42122830Y-86120425D01*
X42122826Y-86120424D01*
X42122822Y-86120422D01*
X41911477Y-86063793D01*
X41693502Y-86044723D01*
X41693498Y-86044723D01*
X41548182Y-86057436D01*
X41475523Y-86063793D01*
X41475520Y-86063793D01*
X41264177Y-86120422D01*
X41264168Y-86120426D01*
X41065861Y-86212898D01*
X41065857Y-86212900D01*
X40886621Y-86338402D01*
X40731902Y-86493121D01*
X40606400Y-86672357D01*
X40606398Y-86672361D01*
X40535882Y-86823583D01*
X40489709Y-86876022D01*
X40422516Y-86895174D01*
X40355635Y-86874958D01*
X40311118Y-86823583D01*
X40296618Y-86792488D01*
X40240602Y-86672362D01*
X40240600Y-86672359D01*
X40240599Y-86672357D01*
X40115099Y-86493124D01*
X40115096Y-86493121D01*
X39960377Y-86338402D01*
X39781139Y-86212898D01*
X39781140Y-86212898D01*
X39781138Y-86212897D01*
X39681984Y-86166661D01*
X39582830Y-86120425D01*
X39582826Y-86120424D01*
X39582822Y-86120422D01*
X39371477Y-86063793D01*
X39153502Y-86044723D01*
X39153498Y-86044723D01*
X39008182Y-86057436D01*
X38935523Y-86063793D01*
X38935520Y-86063793D01*
X38724177Y-86120422D01*
X38724168Y-86120426D01*
X38525861Y-86212898D01*
X38525857Y-86212900D01*
X38346621Y-86338402D01*
X38191902Y-86493121D01*
X38066400Y-86672357D01*
X38066398Y-86672361D01*
X37995882Y-86823583D01*
X37949709Y-86876022D01*
X37882516Y-86895174D01*
X37815635Y-86874958D01*
X37771118Y-86823583D01*
X37756618Y-86792488D01*
X37700602Y-86672362D01*
X37700600Y-86672359D01*
X37700599Y-86672357D01*
X37575099Y-86493124D01*
X37575096Y-86493121D01*
X37420377Y-86338402D01*
X37241139Y-86212898D01*
X37241140Y-86212898D01*
X37241138Y-86212897D01*
X37141984Y-86166661D01*
X37042830Y-86120425D01*
X37042826Y-86120424D01*
X37042822Y-86120422D01*
X36831477Y-86063793D01*
X36613502Y-86044723D01*
X36613498Y-86044723D01*
X36468182Y-86057436D01*
X36395523Y-86063793D01*
X36395520Y-86063793D01*
X36184177Y-86120422D01*
X36184168Y-86120426D01*
X35985861Y-86212898D01*
X35985857Y-86212900D01*
X35806621Y-86338402D01*
X35651902Y-86493121D01*
X35526400Y-86672357D01*
X35526398Y-86672361D01*
X35455882Y-86823583D01*
X35409709Y-86876022D01*
X35342516Y-86895174D01*
X35275635Y-86874958D01*
X35231118Y-86823583D01*
X35216618Y-86792488D01*
X35160602Y-86672362D01*
X35160600Y-86672359D01*
X35160599Y-86672357D01*
X35035099Y-86493124D01*
X35035096Y-86493121D01*
X34880377Y-86338402D01*
X34701139Y-86212898D01*
X34701140Y-86212898D01*
X34701138Y-86212897D01*
X34601984Y-86166661D01*
X34502830Y-86120425D01*
X34502826Y-86120424D01*
X34502822Y-86120422D01*
X34291477Y-86063793D01*
X34073502Y-86044723D01*
X34073498Y-86044723D01*
X33928182Y-86057436D01*
X33855523Y-86063793D01*
X33855520Y-86063793D01*
X33644177Y-86120422D01*
X33644168Y-86120426D01*
X33445861Y-86212898D01*
X33445857Y-86212900D01*
X33266621Y-86338402D01*
X33111902Y-86493121D01*
X32986400Y-86672357D01*
X32986398Y-86672361D01*
X32915882Y-86823583D01*
X32869709Y-86876022D01*
X32802516Y-86895174D01*
X32735635Y-86874958D01*
X32691118Y-86823583D01*
X32676618Y-86792488D01*
X32620602Y-86672362D01*
X32620600Y-86672359D01*
X32620599Y-86672357D01*
X32495099Y-86493124D01*
X32495096Y-86493121D01*
X32340377Y-86338402D01*
X32161139Y-86212898D01*
X32161140Y-86212898D01*
X32161138Y-86212897D01*
X32061984Y-86166661D01*
X31962830Y-86120425D01*
X31962826Y-86120424D01*
X31962822Y-86120422D01*
X31751477Y-86063793D01*
X31533502Y-86044723D01*
X31533498Y-86044723D01*
X31388182Y-86057436D01*
X31315523Y-86063793D01*
X31315520Y-86063793D01*
X31104177Y-86120422D01*
X31104168Y-86120426D01*
X30905861Y-86212898D01*
X30905857Y-86212900D01*
X30726621Y-86338402D01*
X30571902Y-86493121D01*
X30446400Y-86672357D01*
X30446398Y-86672361D01*
X30375882Y-86823583D01*
X30329709Y-86876022D01*
X30262516Y-86895174D01*
X30195635Y-86874958D01*
X30151118Y-86823583D01*
X30136618Y-86792488D01*
X30080602Y-86672362D01*
X30080600Y-86672359D01*
X30080599Y-86672357D01*
X29955099Y-86493124D01*
X29955096Y-86493121D01*
X29800377Y-86338402D01*
X29621139Y-86212898D01*
X29621140Y-86212898D01*
X29621138Y-86212897D01*
X29521984Y-86166661D01*
X29422830Y-86120425D01*
X29422826Y-86120424D01*
X29422822Y-86120422D01*
X29211477Y-86063793D01*
X28993502Y-86044723D01*
X28993498Y-86044723D01*
X28848182Y-86057436D01*
X28775523Y-86063793D01*
X28775520Y-86063793D01*
X28564177Y-86120422D01*
X28564168Y-86120426D01*
X28365861Y-86212898D01*
X28365857Y-86212900D01*
X28186621Y-86338402D01*
X28031902Y-86493121D01*
X27906400Y-86672357D01*
X27906398Y-86672361D01*
X27813926Y-86870668D01*
X27813922Y-86870677D01*
X27757293Y-87082020D01*
X27757293Y-87082023D01*
X27738223Y-87300000D01*
X27756898Y-87513466D01*
X27757293Y-87517975D01*
X27757293Y-87517979D01*
X27813922Y-87729322D01*
X27813924Y-87729326D01*
X27813925Y-87729330D01*
X27860161Y-87828484D01*
X27906397Y-87927638D01*
X27906398Y-87927639D01*
X28031902Y-88106877D01*
X28186623Y-88261598D01*
X28190664Y-88264427D01*
X28234287Y-88319003D01*
X28241479Y-88388502D01*
X28209956Y-88450856D01*
X28149726Y-88486269D01*
X28119538Y-88490000D01*
X28095655Y-88490000D01*
X28036127Y-88496401D01*
X28036120Y-88496403D01*
X27901413Y-88546645D01*
X27901406Y-88546649D01*
X27786312Y-88632809D01*
X27786309Y-88632812D01*
X27700149Y-88747906D01*
X27700145Y-88747913D01*
X27649903Y-88882620D01*
X27649901Y-88882627D01*
X27643500Y-88942155D01*
X27643500Y-89590000D01*
X28559814Y-89590000D01*
X28534007Y-89630156D01*
X28493500Y-89768111D01*
X28493500Y-89911889D01*
X28534007Y-90049844D01*
X28559814Y-90090000D01*
X27643500Y-90090000D01*
X27643500Y-90737844D01*
X17792413Y-90737844D01*
X18006194Y-90498623D01*
X18214211Y-90205452D01*
X18388094Y-89890833D01*
X18525659Y-89558724D01*
X18625173Y-89213300D01*
X18685387Y-88858907D01*
X18705543Y-88500000D01*
X18685387Y-88141093D01*
X18625173Y-87786700D01*
X18525659Y-87441276D01*
X18388094Y-87109167D01*
X18214211Y-86794548D01*
X18006194Y-86501377D01*
X17766661Y-86233339D01*
X17498623Y-85993806D01*
X17498622Y-85993805D01*
X17205454Y-85785790D01*
X16890831Y-85611905D01*
X16804086Y-85575974D01*
X16558724Y-85474341D01*
X16558720Y-85474339D01*
X16558718Y-85474339D01*
X16213305Y-85374828D01*
X16213296Y-85374826D01*
X15858914Y-85314614D01*
X15858902Y-85314612D01*
X15500000Y-85294457D01*
X15141097Y-85314612D01*
X15141085Y-85314614D01*
X14786703Y-85374826D01*
X14786694Y-85374828D01*
X14441281Y-85474339D01*
X14109168Y-85611905D01*
X13794545Y-85785790D01*
X13501377Y-85993805D01*
X13233339Y-86233339D01*
X12993805Y-86501377D01*
X12785790Y-86794545D01*
X12611905Y-87109168D01*
X12474339Y-87441281D01*
X12443654Y-87547793D01*
X12406180Y-87606763D01*
X12342773Y-87636112D01*
X12273565Y-87626522D01*
X12220528Y-87581037D01*
X12200502Y-87514099D01*
X12200500Y-87513466D01*
X12200500Y-81343933D01*
X18045668Y-81343933D01*
X18061058Y-81431210D01*
X18076135Y-81516711D01*
X18145623Y-81677804D01*
X18145624Y-81677806D01*
X18145626Y-81677809D01*
X18200278Y-81751218D01*
X18250390Y-81818530D01*
X18384786Y-81931302D01*
X18462488Y-81970325D01*
X18541562Y-82010038D01*
X18541563Y-82010038D01*
X18541567Y-82010040D01*
X18712279Y-82050500D01*
X18712282Y-82050500D01*
X18843701Y-82050500D01*
X18843709Y-82050500D01*
X18974255Y-82035241D01*
X19139117Y-81975237D01*
X19285696Y-81878830D01*
X19406092Y-81751218D01*
X19493812Y-81599281D01*
X19544130Y-81431210D01*
X19554331Y-81256065D01*
X19523865Y-81083289D01*
X19454377Y-80922196D01*
X19349610Y-80781470D01*
X19277747Y-80721170D01*
X19215214Y-80668698D01*
X19215212Y-80668697D01*
X19058437Y-80589961D01*
X19058433Y-80589960D01*
X18887721Y-80549500D01*
X18756291Y-80549500D01*
X18651854Y-80561707D01*
X18625743Y-80564759D01*
X18625740Y-80564760D01*
X18460884Y-80624762D01*
X18460880Y-80624764D01*
X18314306Y-80721167D01*
X18314305Y-80721168D01*
X18193910Y-80848778D01*
X18106188Y-81000718D01*
X18055870Y-81168789D01*
X18055869Y-81168794D01*
X18045668Y-81343933D01*
X12200500Y-81343933D01*
X12200500Y-46318111D01*
X12769869Y-46318111D01*
X12772697Y-46334511D01*
X12774500Y-46355580D01*
X12774500Y-75188890D01*
X12774428Y-75193123D01*
X12772340Y-75254250D01*
X12781556Y-75292068D01*
X12783927Y-75304540D01*
X12789228Y-75343109D01*
X12795864Y-75358387D01*
X12802602Y-75378424D01*
X12806542Y-75394593D01*
X12806543Y-75394594D01*
X12825618Y-75428520D01*
X12831266Y-75439890D01*
X12846782Y-75475612D01*
X12857283Y-75488518D01*
X12869182Y-75506000D01*
X12877342Y-75520512D01*
X12904878Y-75548048D01*
X12913377Y-75557466D01*
X12937943Y-75587662D01*
X12937944Y-75587663D01*
X12937946Y-75587665D01*
X12951544Y-75597264D01*
X12967715Y-75610885D01*
X16520558Y-79163728D01*
X16523499Y-79166771D01*
X16545593Y-79190427D01*
X16565245Y-79211469D01*
X16598499Y-79231691D01*
X16608990Y-79238830D01*
X16640025Y-79262365D01*
X16640028Y-79262366D01*
X16640028Y-79262367D01*
X16655509Y-79268471D01*
X16674451Y-79277878D01*
X16688672Y-79286526D01*
X16726160Y-79297029D01*
X16738184Y-79301072D01*
X16774411Y-79315359D01*
X16790977Y-79317061D01*
X16811741Y-79321008D01*
X16827772Y-79325500D01*
X16866696Y-79325500D01*
X16879376Y-79326150D01*
X16882275Y-79326447D01*
X16918110Y-79330132D01*
X16934518Y-79327303D01*
X16955586Y-79325500D01*
X51642060Y-79325500D01*
X51709099Y-79345185D01*
X51729741Y-79361819D01*
X51797738Y-79429816D01*
X51950478Y-79525789D01*
X52120745Y-79585368D01*
X52120750Y-79585369D01*
X52299996Y-79605565D01*
X52300000Y-79605565D01*
X52300004Y-79605565D01*
X52479249Y-79585369D01*
X52479252Y-79585368D01*
X52479255Y-79585368D01*
X52649522Y-79525789D01*
X52802262Y-79429816D01*
X52929816Y-79302262D01*
X53025789Y-79149522D01*
X53085368Y-78979255D01*
X53097904Y-78867998D01*
X53124970Y-78803584D01*
X53182565Y-78764029D01*
X53252402Y-78761891D01*
X53262074Y-78764838D01*
X53275793Y-78769638D01*
X53320740Y-78785367D01*
X53320750Y-78785369D01*
X53499996Y-78805565D01*
X53500000Y-78805565D01*
X53500004Y-78805565D01*
X53679249Y-78785369D01*
X53679252Y-78785368D01*
X53679255Y-78785368D01*
X53849522Y-78725789D01*
X54002262Y-78629816D01*
X54129816Y-78502262D01*
X54225789Y-78349522D01*
X54285368Y-78179255D01*
X54287214Y-78162874D01*
X54305565Y-78000003D01*
X54305565Y-77999996D01*
X54297849Y-77931517D01*
X58099500Y-77931517D01*
X58099577Y-77932001D01*
X58114354Y-78025304D01*
X58171950Y-78138342D01*
X58171952Y-78138344D01*
X58171954Y-78138347D01*
X58261652Y-78228045D01*
X58261654Y-78228046D01*
X58261658Y-78228050D01*
X58352821Y-78274500D01*
X58374698Y-78285647D01*
X58468475Y-78300499D01*
X58468481Y-78300500D01*
X60131518Y-78300499D01*
X60225304Y-78285646D01*
X60338342Y-78228050D01*
X60428050Y-78138342D01*
X60485646Y-78025304D01*
X60485646Y-78025302D01*
X60485647Y-78025301D01*
X60496282Y-77958147D01*
X60500500Y-77931519D01*
X60500499Y-76668482D01*
X60485646Y-76574696D01*
X60428050Y-76461658D01*
X60428046Y-76461654D01*
X60428045Y-76461652D01*
X60354074Y-76387681D01*
X60320589Y-76326358D01*
X60325573Y-76256666D01*
X60354074Y-76212319D01*
X60428045Y-76138347D01*
X60428050Y-76138342D01*
X60485646Y-76025304D01*
X60485646Y-76025302D01*
X60485647Y-76025301D01*
X60500499Y-75931524D01*
X60500500Y-75931519D01*
X60500499Y-74668482D01*
X60485646Y-74574696D01*
X60428050Y-74461658D01*
X60428046Y-74461654D01*
X60428045Y-74461652D01*
X60354074Y-74387681D01*
X60320589Y-74326358D01*
X60325573Y-74256666D01*
X60354074Y-74212319D01*
X60428045Y-74138347D01*
X60428050Y-74138342D01*
X60485646Y-74025304D01*
X60485646Y-74025302D01*
X60485647Y-74025301D01*
X60500499Y-73931524D01*
X60500500Y-73931519D01*
X60500499Y-72668482D01*
X60485646Y-72574696D01*
X60428050Y-72461658D01*
X60428046Y-72461654D01*
X60428045Y-72461652D01*
X60338347Y-72371954D01*
X60338344Y-72371952D01*
X60338342Y-72371950D01*
X60254888Y-72329428D01*
X60225301Y-72314352D01*
X60131524Y-72299500D01*
X58468482Y-72299500D01*
X58387519Y-72312323D01*
X58374696Y-72314354D01*
X58261658Y-72371950D01*
X58261657Y-72371951D01*
X58261652Y-72371954D01*
X58171954Y-72461652D01*
X58171951Y-72461657D01*
X58171950Y-72461658D01*
X58161828Y-72481524D01*
X58114352Y-72574698D01*
X58099500Y-72668475D01*
X58099500Y-73931517D01*
X58110292Y-73999657D01*
X58114354Y-74025304D01*
X58171950Y-74138342D01*
X58171952Y-74138344D01*
X58171954Y-74138347D01*
X58245926Y-74212319D01*
X58279411Y-74273642D01*
X58274427Y-74343334D01*
X58245926Y-74387681D01*
X58171954Y-74461652D01*
X58171951Y-74461657D01*
X58171950Y-74461658D01*
X58162919Y-74479382D01*
X58114352Y-74574698D01*
X58099500Y-74668475D01*
X58099500Y-75931517D01*
X58110292Y-75999657D01*
X58114354Y-76025304D01*
X58171950Y-76138342D01*
X58171952Y-76138344D01*
X58171954Y-76138347D01*
X58245926Y-76212319D01*
X58279411Y-76273642D01*
X58274427Y-76343334D01*
X58245926Y-76387681D01*
X58171954Y-76461652D01*
X58171951Y-76461657D01*
X58114352Y-76574698D01*
X58099500Y-76668475D01*
X58099500Y-77931517D01*
X54297849Y-77931517D01*
X54285369Y-77820750D01*
X54285368Y-77820745D01*
X54273394Y-77786526D01*
X54225789Y-77650478D01*
X54216214Y-77635240D01*
X54178511Y-77575235D01*
X54129816Y-77497738D01*
X54061819Y-77429741D01*
X54028334Y-77368418D01*
X54025500Y-77342060D01*
X54025500Y-74769031D01*
X54045185Y-74701992D01*
X54061814Y-74681355D01*
X56413769Y-72329399D01*
X56416755Y-72326513D01*
X56461469Y-72284755D01*
X56481701Y-72251483D01*
X56488831Y-72241007D01*
X56512365Y-72209975D01*
X56518476Y-72194477D01*
X56527878Y-72175547D01*
X56536526Y-72161328D01*
X56547029Y-72123839D01*
X56551069Y-72111826D01*
X56565360Y-72075589D01*
X56567063Y-72059018D01*
X56571011Y-72038248D01*
X56575500Y-72022227D01*
X56575500Y-71983305D01*
X56576150Y-71970625D01*
X56576195Y-71970185D01*
X56580132Y-71931890D01*
X56577303Y-71915481D01*
X56575500Y-71894413D01*
X56575500Y-64811108D01*
X56575572Y-64806875D01*
X56576781Y-64771477D01*
X56577660Y-64745755D01*
X56568443Y-64707934D01*
X56566072Y-64695459D01*
X56560771Y-64656889D01*
X56560770Y-64656887D01*
X56554137Y-64641616D01*
X56547397Y-64621574D01*
X56543457Y-64605407D01*
X56543455Y-64605403D01*
X56524379Y-64571475D01*
X56518731Y-64560103D01*
X56503219Y-64524391D01*
X56503217Y-64524388D01*
X56492713Y-64511477D01*
X56480812Y-64493990D01*
X56472660Y-64479491D01*
X56472658Y-64479488D01*
X56445128Y-64451958D01*
X56436630Y-64442543D01*
X56412054Y-64412335D01*
X56412050Y-64412332D01*
X56412045Y-64412328D01*
X56398453Y-64402733D01*
X56382281Y-64389111D01*
X52679440Y-60686271D01*
X52676498Y-60683227D01*
X52634753Y-60638529D01*
X52634751Y-60638528D01*
X52601489Y-60618301D01*
X52590991Y-60611156D01*
X52559976Y-60587636D01*
X52551406Y-60584256D01*
X52544485Y-60581527D01*
X52525553Y-60572124D01*
X52511329Y-60563474D01*
X52473842Y-60552970D01*
X52461813Y-60548925D01*
X52425591Y-60534641D01*
X52425583Y-60534640D01*
X52409022Y-60532937D01*
X52388255Y-60528990D01*
X52372231Y-60524500D01*
X52372228Y-60524500D01*
X52333296Y-60524500D01*
X52320617Y-60523850D01*
X52310888Y-60522850D01*
X52290999Y-60514720D01*
X52285155Y-60518477D01*
X52271289Y-60521696D01*
X52265486Y-60522697D01*
X52244420Y-60524500D01*
X50969031Y-60524500D01*
X50901992Y-60504815D01*
X50881350Y-60488181D01*
X50880350Y-60487181D01*
X50846865Y-60425858D01*
X50851849Y-60356166D01*
X50893721Y-60300233D01*
X50959185Y-60275816D01*
X50968031Y-60275500D01*
X52250220Y-60275500D01*
X52284942Y-60285695D01*
X52300980Y-60277574D01*
X52323567Y-60275500D01*
X57114941Y-60275500D01*
X57181980Y-60295185D01*
X57227735Y-60347989D01*
X57237786Y-60382614D01*
X57239228Y-60393109D01*
X57245864Y-60408387D01*
X57252602Y-60428424D01*
X57256542Y-60444593D01*
X57256543Y-60444594D01*
X57275618Y-60478520D01*
X57281266Y-60489890D01*
X57296782Y-60525612D01*
X57307283Y-60538518D01*
X57319182Y-60556000D01*
X57327342Y-60570512D01*
X57354878Y-60598048D01*
X57363377Y-60607466D01*
X57387943Y-60637662D01*
X57387944Y-60637663D01*
X57387946Y-60637665D01*
X57401544Y-60647264D01*
X57417715Y-60660885D01*
X58063181Y-61306350D01*
X58096666Y-61367673D01*
X58099500Y-61394031D01*
X58099500Y-61931517D01*
X58110292Y-61999657D01*
X58114354Y-62025304D01*
X58171950Y-62138342D01*
X58171952Y-62138344D01*
X58171954Y-62138347D01*
X58245926Y-62212319D01*
X58279411Y-62273642D01*
X58274427Y-62343334D01*
X58245926Y-62387681D01*
X58171954Y-62461652D01*
X58171951Y-62461657D01*
X58171950Y-62461658D01*
X58158403Y-62488246D01*
X58114352Y-62574698D01*
X58099500Y-62668475D01*
X58099500Y-63931517D01*
X58110292Y-63999657D01*
X58114354Y-64025304D01*
X58171950Y-64138342D01*
X58171952Y-64138344D01*
X58171954Y-64138347D01*
X58245926Y-64212319D01*
X58279411Y-64273642D01*
X58274427Y-64343334D01*
X58245926Y-64387681D01*
X58171954Y-64461652D01*
X58171951Y-64461657D01*
X58114352Y-64574698D01*
X58099500Y-64668475D01*
X58099500Y-65931517D01*
X58101865Y-65946446D01*
X58114354Y-66025304D01*
X58171950Y-66138342D01*
X58171952Y-66138344D01*
X58171954Y-66138347D01*
X58245926Y-66212319D01*
X58279411Y-66273642D01*
X58274427Y-66343334D01*
X58245926Y-66387681D01*
X58171954Y-66461652D01*
X58171951Y-66461657D01*
X58114352Y-66574698D01*
X58099500Y-66668475D01*
X58099500Y-67931517D01*
X58110292Y-67999657D01*
X58114354Y-68025304D01*
X58171950Y-68138342D01*
X58171952Y-68138344D01*
X58171954Y-68138347D01*
X58245926Y-68212319D01*
X58279411Y-68273642D01*
X58274427Y-68343334D01*
X58245926Y-68387681D01*
X58171954Y-68461652D01*
X58171951Y-68461657D01*
X58171950Y-68461658D01*
X58162984Y-68479255D01*
X58114352Y-68574698D01*
X58099500Y-68668475D01*
X58099500Y-69931517D01*
X58110292Y-69999657D01*
X58114354Y-70025304D01*
X58171950Y-70138342D01*
X58171952Y-70138344D01*
X58171954Y-70138347D01*
X58261652Y-70228045D01*
X58261654Y-70228046D01*
X58261658Y-70228050D01*
X58357698Y-70276985D01*
X58374698Y-70285647D01*
X58468475Y-70300499D01*
X58468481Y-70300500D01*
X60131518Y-70300499D01*
X60225304Y-70285646D01*
X60338342Y-70228050D01*
X60428050Y-70138342D01*
X60485646Y-70025304D01*
X60485646Y-70025302D01*
X60485647Y-70025301D01*
X60500499Y-69931524D01*
X60500500Y-69931519D01*
X60500499Y-68668482D01*
X60485646Y-68574696D01*
X60428050Y-68461658D01*
X60428046Y-68461654D01*
X60428045Y-68461652D01*
X60354074Y-68387681D01*
X60320589Y-68326358D01*
X60325573Y-68256666D01*
X60354074Y-68212319D01*
X60428045Y-68138347D01*
X60428050Y-68138342D01*
X60485646Y-68025304D01*
X60485646Y-68025302D01*
X60485647Y-68025301D01*
X60497497Y-67950478D01*
X60500500Y-67931519D01*
X60500499Y-66668482D01*
X60485646Y-66574696D01*
X60428050Y-66461658D01*
X60428046Y-66461654D01*
X60428045Y-66461652D01*
X60354074Y-66387681D01*
X60320589Y-66326358D01*
X60325573Y-66256666D01*
X60354074Y-66212319D01*
X60428045Y-66138347D01*
X60428050Y-66138342D01*
X60485646Y-66025304D01*
X60485646Y-66025302D01*
X60485647Y-66025301D01*
X60500499Y-65931524D01*
X60500500Y-65931519D01*
X60500499Y-64668482D01*
X60485646Y-64574696D01*
X60428050Y-64461658D01*
X60428046Y-64461654D01*
X60428045Y-64461652D01*
X60354074Y-64387681D01*
X60320589Y-64326358D01*
X60325573Y-64256666D01*
X60354074Y-64212319D01*
X60428045Y-64138347D01*
X60428050Y-64138342D01*
X60485646Y-64025304D01*
X60485646Y-64025302D01*
X60485647Y-64025301D01*
X60500499Y-63931524D01*
X60500500Y-63931519D01*
X60500499Y-63694031D01*
X60520183Y-63626992D01*
X60536814Y-63606354D01*
X61363754Y-62779413D01*
X61366740Y-62776527D01*
X61411469Y-62734755D01*
X61431702Y-62701480D01*
X61438833Y-62691004D01*
X61462364Y-62659975D01*
X61468473Y-62644482D01*
X61477876Y-62625551D01*
X61486526Y-62611328D01*
X61497030Y-62573835D01*
X61501071Y-62561818D01*
X61515359Y-62525589D01*
X61517061Y-62509022D01*
X61521006Y-62488264D01*
X61525500Y-62472228D01*
X61525500Y-62433295D01*
X61526150Y-62420615D01*
X61530131Y-62381890D01*
X61527303Y-62365487D01*
X61525500Y-62344419D01*
X61525500Y-58961108D01*
X61525572Y-58956875D01*
X61526232Y-58937545D01*
X61527660Y-58895755D01*
X61518443Y-58857934D01*
X61516072Y-58845459D01*
X61510771Y-58806889D01*
X61510770Y-58806887D01*
X61504137Y-58791616D01*
X61497397Y-58771574D01*
X61496599Y-58768301D01*
X61493457Y-58755406D01*
X61493456Y-58755404D01*
X61493456Y-58755403D01*
X61474382Y-58721481D01*
X61468733Y-58710108D01*
X61453219Y-58674392D01*
X61453218Y-58674390D01*
X61442708Y-58661472D01*
X61430813Y-58643994D01*
X61422657Y-58629488D01*
X61395133Y-58601964D01*
X61386627Y-58592539D01*
X61362055Y-58562336D01*
X61362050Y-58562332D01*
X61348450Y-58552732D01*
X61332278Y-58539109D01*
X60704440Y-57911271D01*
X60701498Y-57908227D01*
X60659753Y-57863529D01*
X60659751Y-57863528D01*
X60626489Y-57843301D01*
X60615991Y-57836156D01*
X60584976Y-57812636D01*
X60576406Y-57809256D01*
X60569485Y-57806527D01*
X60550553Y-57797124D01*
X60536329Y-57788474D01*
X60498842Y-57777970D01*
X60486813Y-57773925D01*
X60450591Y-57759641D01*
X60450583Y-57759640D01*
X60434022Y-57757937D01*
X60413255Y-57753990D01*
X60397231Y-57749500D01*
X60397228Y-57749500D01*
X60358296Y-57749500D01*
X60345617Y-57748850D01*
X60306892Y-57744869D01*
X60306888Y-57744869D01*
X60297576Y-57746474D01*
X60290485Y-57747697D01*
X60269420Y-57749500D01*
X53310576Y-57749500D01*
X53243537Y-57729815D01*
X53197782Y-57677011D01*
X53187356Y-57611617D01*
X53205565Y-57450003D01*
X53205565Y-57449996D01*
X53185369Y-57270750D01*
X53185368Y-57270745D01*
X53125788Y-57100476D01*
X53029815Y-56947737D01*
X52902260Y-56820182D01*
X52902258Y-56820181D01*
X52808527Y-56761285D01*
X52762237Y-56708951D01*
X52750500Y-56656292D01*
X52750500Y-46286108D01*
X52750572Y-46281875D01*
X52750694Y-46278309D01*
X52752660Y-46220755D01*
X52743443Y-46182934D01*
X52741072Y-46170459D01*
X52735771Y-46131889D01*
X52735770Y-46131887D01*
X52729137Y-46116616D01*
X52722397Y-46096574D01*
X52718457Y-46080407D01*
X52718455Y-46080403D01*
X52715103Y-46074442D01*
X52704463Y-46055517D01*
X52699379Y-46046475D01*
X52693731Y-46035103D01*
X52678219Y-45999391D01*
X52678217Y-45999388D01*
X52667713Y-45986477D01*
X52655812Y-45968990D01*
X52647660Y-45954491D01*
X52647658Y-45954488D01*
X52620128Y-45926958D01*
X52611630Y-45917543D01*
X52587054Y-45887335D01*
X52587050Y-45887332D01*
X52587045Y-45887328D01*
X52573453Y-45877733D01*
X52557281Y-45864111D01*
X51611819Y-44918649D01*
X51578334Y-44857326D01*
X51575500Y-44830968D01*
X51575500Y-44657222D01*
X51595185Y-44590183D01*
X51647989Y-44544428D01*
X51717147Y-44534484D01*
X51780703Y-44563509D01*
X51807585Y-44596448D01*
X51825619Y-44628521D01*
X51831266Y-44639890D01*
X51846782Y-44675612D01*
X51857283Y-44688518D01*
X51869182Y-44706000D01*
X51877342Y-44720512D01*
X51904878Y-44748048D01*
X51913377Y-44757466D01*
X51937943Y-44787662D01*
X51937944Y-44787663D01*
X51937946Y-44787665D01*
X51951544Y-44797264D01*
X51967715Y-44810885D01*
X56898181Y-49741350D01*
X56931666Y-49802673D01*
X56934500Y-49829031D01*
X56934500Y-50286273D01*
X56914815Y-50353312D01*
X56862906Y-50398655D01*
X56832359Y-50412899D01*
X56653121Y-50538402D01*
X56498402Y-50693121D01*
X56372900Y-50872357D01*
X56372898Y-50872361D01*
X56302382Y-51023583D01*
X56256209Y-51076022D01*
X56189016Y-51095174D01*
X56122135Y-51074958D01*
X56077618Y-51023583D01*
X56063118Y-50992488D01*
X56007102Y-50872362D01*
X56007100Y-50872359D01*
X56007099Y-50872357D01*
X55881599Y-50693124D01*
X55814511Y-50626036D01*
X55726877Y-50538402D01*
X55547642Y-50412900D01*
X55547638Y-50412897D01*
X55418072Y-50352480D01*
X55349330Y-50320425D01*
X55349326Y-50320424D01*
X55349322Y-50320422D01*
X55137977Y-50263793D01*
X54920002Y-50244723D01*
X54919998Y-50244723D01*
X54774682Y-50257436D01*
X54702023Y-50263793D01*
X54702020Y-50263793D01*
X54490677Y-50320422D01*
X54490668Y-50320426D01*
X54292361Y-50412898D01*
X54292357Y-50412900D01*
X54113121Y-50538402D01*
X53958402Y-50693121D01*
X53832900Y-50872357D01*
X53832898Y-50872361D01*
X53740426Y-51070668D01*
X53740422Y-51070677D01*
X53683793Y-51282020D01*
X53683793Y-51282023D01*
X53664723Y-51500000D01*
X53683081Y-51709844D01*
X53683793Y-51717975D01*
X53683793Y-51717979D01*
X53740422Y-51929322D01*
X53740424Y-51929326D01*
X53740425Y-51929330D01*
X53762382Y-51976416D01*
X53832897Y-52127638D01*
X53832898Y-52127639D01*
X53958402Y-52306877D01*
X54113123Y-52461598D01*
X54292361Y-52587102D01*
X54490670Y-52679575D01*
X54702023Y-52736207D01*
X54884926Y-52752208D01*
X54919998Y-52755277D01*
X54920000Y-52755277D01*
X54920002Y-52755277D01*
X54948254Y-52752805D01*
X55137977Y-52736207D01*
X55349330Y-52679575D01*
X55547639Y-52587102D01*
X55726877Y-52461598D01*
X55881598Y-52306877D01*
X56007102Y-52127639D01*
X56077618Y-51976414D01*
X56123790Y-51923977D01*
X56190984Y-51904825D01*
X56257865Y-51925041D01*
X56302381Y-51976414D01*
X56372898Y-52127639D01*
X56498402Y-52306877D01*
X56653123Y-52461598D01*
X56832361Y-52587102D01*
X57030670Y-52679575D01*
X57242023Y-52736207D01*
X57424926Y-52752208D01*
X57459998Y-52755277D01*
X57460000Y-52755277D01*
X57460002Y-52755277D01*
X57488254Y-52752805D01*
X57677977Y-52736207D01*
X57889330Y-52679575D01*
X58087639Y-52587102D01*
X58266877Y-52461598D01*
X58421598Y-52306877D01*
X58424425Y-52302839D01*
X58478997Y-52259215D01*
X58548495Y-52252019D01*
X58610851Y-52283538D01*
X58646268Y-52343767D01*
X58650000Y-52373961D01*
X58650000Y-52397844D01*
X58656401Y-52457372D01*
X58656403Y-52457379D01*
X58706645Y-52592086D01*
X58706649Y-52592093D01*
X58792809Y-52707187D01*
X58792812Y-52707190D01*
X58907906Y-52793350D01*
X58907913Y-52793354D01*
X59042620Y-52843596D01*
X59042627Y-52843598D01*
X59102155Y-52849999D01*
X59102172Y-52850000D01*
X59750000Y-52850000D01*
X59750000Y-51935501D01*
X59857685Y-51984680D01*
X59964237Y-52000000D01*
X60035763Y-52000000D01*
X60142315Y-51984680D01*
X60250000Y-51935501D01*
X60250000Y-52850000D01*
X60897828Y-52850000D01*
X60897844Y-52849999D01*
X60957372Y-52843598D01*
X60957379Y-52843596D01*
X61092086Y-52793354D01*
X61092093Y-52793350D01*
X61207187Y-52707190D01*
X61207190Y-52707187D01*
X61293350Y-52592093D01*
X61293354Y-52592086D01*
X61343596Y-52457379D01*
X61343598Y-52457372D01*
X61349999Y-52397844D01*
X61350000Y-52397827D01*
X61350000Y-51750000D01*
X60433686Y-51750000D01*
X60459493Y-51709844D01*
X60500000Y-51571889D01*
X60500000Y-51428111D01*
X60459493Y-51290156D01*
X60433686Y-51250000D01*
X61350000Y-51250000D01*
X61350000Y-50602172D01*
X61349999Y-50602155D01*
X61343598Y-50542627D01*
X61343596Y-50542620D01*
X61293354Y-50407913D01*
X61293350Y-50407906D01*
X61207190Y-50292812D01*
X61207187Y-50292809D01*
X61092093Y-50206649D01*
X61092086Y-50206645D01*
X60957379Y-50156403D01*
X60957372Y-50156401D01*
X60897844Y-50150000D01*
X60250000Y-50150000D01*
X60250000Y-51064498D01*
X60142315Y-51015320D01*
X60035763Y-51000000D01*
X59964237Y-51000000D01*
X59857685Y-51015320D01*
X59750000Y-51064498D01*
X59750000Y-50150000D01*
X59102155Y-50150000D01*
X59042627Y-50156401D01*
X59042620Y-50156403D01*
X58907913Y-50206645D01*
X58907906Y-50206649D01*
X58792812Y-50292809D01*
X58792809Y-50292812D01*
X58706649Y-50407906D01*
X58706645Y-50407913D01*
X58656403Y-50542620D01*
X58656401Y-50542627D01*
X58650000Y-50602155D01*
X58650000Y-50626036D01*
X58630315Y-50693075D01*
X58577511Y-50738830D01*
X58508353Y-50748774D01*
X58444797Y-50719749D01*
X58424428Y-50697164D01*
X58421598Y-50693123D01*
X58354511Y-50626036D01*
X58266877Y-50538402D01*
X58087639Y-50412898D01*
X58087635Y-50412896D01*
X58057093Y-50398653D01*
X58004655Y-50352480D01*
X57985500Y-50286272D01*
X57985500Y-49571108D01*
X57985572Y-49566875D01*
X57987660Y-49505755D01*
X57978443Y-49467934D01*
X57976072Y-49455459D01*
X57970771Y-49416889D01*
X57970770Y-49416887D01*
X57964137Y-49401616D01*
X57957397Y-49381574D01*
X57953457Y-49365407D01*
X57953455Y-49365403D01*
X57934379Y-49331475D01*
X57928731Y-49320103D01*
X57913219Y-49284391D01*
X57913217Y-49284388D01*
X57902713Y-49271477D01*
X57890812Y-49253990D01*
X57882660Y-49239491D01*
X57882658Y-49239488D01*
X57855128Y-49211958D01*
X57846630Y-49202543D01*
X57822054Y-49172335D01*
X57822050Y-49172332D01*
X57822045Y-49172328D01*
X57808453Y-49162733D01*
X57792281Y-49149111D01*
X52861819Y-44218649D01*
X52828334Y-44157326D01*
X52825500Y-44130968D01*
X52825500Y-43607940D01*
X52833704Y-43580000D01*
X53304723Y-43580000D01*
X53323081Y-43789844D01*
X53323793Y-43797975D01*
X53323793Y-43797979D01*
X53380422Y-44009322D01*
X53380424Y-44009326D01*
X53380425Y-44009330D01*
X53396355Y-44043492D01*
X53472897Y-44207638D01*
X53480607Y-44218649D01*
X53598402Y-44386877D01*
X53753123Y-44541598D01*
X53932361Y-44667102D01*
X54130670Y-44759575D01*
X54342023Y-44816207D01*
X54510747Y-44830968D01*
X54559998Y-44835277D01*
X54560000Y-44835277D01*
X54560002Y-44835277D01*
X54588254Y-44832805D01*
X54777977Y-44816207D01*
X54989330Y-44759575D01*
X55187639Y-44667102D01*
X55366877Y-44541598D01*
X55521598Y-44386877D01*
X55647102Y-44207639D01*
X55739575Y-44009330D01*
X55739577Y-44009320D01*
X55739579Y-44009317D01*
X55740225Y-44006907D01*
X55740800Y-44005963D01*
X55741429Y-44004236D01*
X55741775Y-44004362D01*
X55776588Y-43947246D01*
X55839435Y-43916715D01*
X55908811Y-43925009D01*
X55962689Y-43969493D01*
X55978557Y-44004240D01*
X55978571Y-44004236D01*
X55978632Y-44004406D01*
X55979775Y-44006907D01*
X55980420Y-44009317D01*
X55980424Y-44009326D01*
X55980425Y-44009330D01*
X55996355Y-44043492D01*
X56072897Y-44207638D01*
X56080607Y-44218649D01*
X56198402Y-44386877D01*
X56353123Y-44541598D01*
X56518251Y-44657222D01*
X56532361Y-44667102D01*
X56683583Y-44737618D01*
X56736022Y-44783790D01*
X56755174Y-44850984D01*
X56734958Y-44917865D01*
X56683583Y-44962382D01*
X56532361Y-45032898D01*
X56532357Y-45032900D01*
X56353121Y-45158402D01*
X56198402Y-45313121D01*
X56072900Y-45492357D01*
X56072898Y-45492361D01*
X55980426Y-45690668D01*
X55980422Y-45690677D01*
X55923793Y-45902020D01*
X55923793Y-45902023D01*
X55922436Y-45917533D01*
X55904723Y-46119997D01*
X55904723Y-46120002D01*
X55908425Y-46162318D01*
X55923081Y-46329844D01*
X55923793Y-46337975D01*
X55923793Y-46337979D01*
X55980422Y-46549322D01*
X55980424Y-46549326D01*
X55980425Y-46549330D01*
X56000846Y-46593123D01*
X56072897Y-46747638D01*
X56072898Y-46747639D01*
X56198402Y-46926877D01*
X56353123Y-47081598D01*
X56532361Y-47207102D01*
X56730670Y-47299575D01*
X56942023Y-47356207D01*
X57124926Y-47372208D01*
X57159998Y-47375277D01*
X57160000Y-47375277D01*
X57160002Y-47375277D01*
X57188254Y-47372805D01*
X57377977Y-47356207D01*
X57589330Y-47299575D01*
X57787639Y-47207102D01*
X57966877Y-47081598D01*
X58121598Y-46926877D01*
X58124425Y-46922839D01*
X58178997Y-46879215D01*
X58248495Y-46872019D01*
X58310851Y-46903538D01*
X58346268Y-46963767D01*
X58350000Y-46993961D01*
X58350000Y-47017844D01*
X58356401Y-47077372D01*
X58356403Y-47077379D01*
X58406645Y-47212086D01*
X58406649Y-47212093D01*
X58492809Y-47327187D01*
X58492812Y-47327190D01*
X58607906Y-47413350D01*
X58607913Y-47413354D01*
X58742620Y-47463596D01*
X58742627Y-47463598D01*
X58802155Y-47469999D01*
X58802172Y-47470000D01*
X59450000Y-47470000D01*
X59450000Y-46555501D01*
X59557685Y-46604680D01*
X59664237Y-46620000D01*
X59735763Y-46620000D01*
X59842315Y-46604680D01*
X59950000Y-46555501D01*
X59950000Y-47470000D01*
X60597828Y-47470000D01*
X60597844Y-47469999D01*
X60657372Y-47463598D01*
X60657379Y-47463596D01*
X60792086Y-47413354D01*
X60792093Y-47413350D01*
X60907187Y-47327190D01*
X60907190Y-47327187D01*
X60993350Y-47212093D01*
X60993354Y-47212086D01*
X61043596Y-47077379D01*
X61043598Y-47077372D01*
X61049999Y-47017844D01*
X61050000Y-47017827D01*
X61050000Y-46370000D01*
X60133686Y-46370000D01*
X60159493Y-46329844D01*
X60200000Y-46191889D01*
X60200000Y-46048111D01*
X60159493Y-45910156D01*
X60133686Y-45870000D01*
X61050000Y-45870000D01*
X61050000Y-45222172D01*
X61049999Y-45222155D01*
X61043598Y-45162627D01*
X61043596Y-45162620D01*
X60993354Y-45027913D01*
X60993350Y-45027906D01*
X60907190Y-44912812D01*
X60907187Y-44912809D01*
X60792093Y-44826649D01*
X60792086Y-44826645D01*
X60660013Y-44777385D01*
X60604079Y-44735514D01*
X60579662Y-44670049D01*
X60594514Y-44601776D01*
X60615665Y-44573521D01*
X60738108Y-44451078D01*
X60873600Y-44257578D01*
X60973429Y-44043492D01*
X60973432Y-44043486D01*
X61030636Y-43830000D01*
X60133686Y-43830000D01*
X60159493Y-43789844D01*
X60200000Y-43651889D01*
X60200000Y-43508111D01*
X60159493Y-43370156D01*
X60133686Y-43330000D01*
X61030636Y-43330000D01*
X61030635Y-43329999D01*
X60973432Y-43116513D01*
X60973429Y-43116507D01*
X60873600Y-42902422D01*
X60873599Y-42902420D01*
X60738113Y-42708926D01*
X60738108Y-42708920D01*
X60571082Y-42541894D01*
X60384968Y-42411575D01*
X60341344Y-42356998D01*
X60334151Y-42287499D01*
X60365673Y-42225145D01*
X60384968Y-42208425D01*
X60571082Y-42078105D01*
X60738105Y-41911082D01*
X60873600Y-41717578D01*
X60973429Y-41503492D01*
X60973432Y-41503486D01*
X61030636Y-41290000D01*
X60133686Y-41290000D01*
X60159493Y-41249844D01*
X60200000Y-41111889D01*
X60200000Y-40968111D01*
X60159493Y-40830156D01*
X60133686Y-40790000D01*
X61030636Y-40790000D01*
X61030635Y-40789999D01*
X60973432Y-40576513D01*
X60973429Y-40576507D01*
X60873600Y-40362422D01*
X60873599Y-40362420D01*
X60738113Y-40168926D01*
X60738108Y-40168920D01*
X60571082Y-40001894D01*
X60384968Y-39871575D01*
X60341344Y-39816998D01*
X60334151Y-39747499D01*
X60365673Y-39685145D01*
X60384968Y-39668425D01*
X60571082Y-39538105D01*
X60738105Y-39371082D01*
X60873600Y-39177578D01*
X60973429Y-38963492D01*
X60973432Y-38963486D01*
X61030636Y-38750000D01*
X60133686Y-38750000D01*
X60159493Y-38709844D01*
X60200000Y-38571889D01*
X60200000Y-38428111D01*
X60159493Y-38290156D01*
X60133686Y-38250000D01*
X61030636Y-38250000D01*
X61030635Y-38249999D01*
X60973432Y-38036513D01*
X60973429Y-38036507D01*
X60873600Y-37822422D01*
X60873599Y-37822420D01*
X60738113Y-37628926D01*
X60738108Y-37628920D01*
X60571082Y-37461894D01*
X60384968Y-37331575D01*
X60341344Y-37276998D01*
X60334151Y-37207499D01*
X60365673Y-37145145D01*
X60384968Y-37128425D01*
X60571082Y-36998105D01*
X60738105Y-36831082D01*
X60873600Y-36637578D01*
X60973429Y-36423492D01*
X60973432Y-36423486D01*
X61030636Y-36210000D01*
X60133686Y-36210000D01*
X60159493Y-36169844D01*
X60200000Y-36031889D01*
X60200000Y-35888111D01*
X60159493Y-35750156D01*
X60133686Y-35710000D01*
X61030636Y-35710000D01*
X61030635Y-35709999D01*
X60973432Y-35496513D01*
X60973429Y-35496507D01*
X60873600Y-35282422D01*
X60873599Y-35282420D01*
X60738113Y-35088926D01*
X60738108Y-35088920D01*
X60571082Y-34921894D01*
X60384968Y-34791575D01*
X60341344Y-34736998D01*
X60334151Y-34667499D01*
X60365673Y-34605145D01*
X60384968Y-34588425D01*
X60571082Y-34458105D01*
X60738105Y-34291082D01*
X60873600Y-34097578D01*
X60973429Y-33883492D01*
X60973432Y-33883486D01*
X61030636Y-33670000D01*
X60133686Y-33670000D01*
X60159493Y-33629844D01*
X60200000Y-33491889D01*
X60200000Y-33348111D01*
X60159493Y-33210156D01*
X60133686Y-33170000D01*
X61030636Y-33170000D01*
X61030635Y-33169999D01*
X60973432Y-32956513D01*
X60973429Y-32956507D01*
X60873600Y-32742422D01*
X60873599Y-32742420D01*
X60738113Y-32548926D01*
X60738108Y-32548920D01*
X60571082Y-32381894D01*
X60384968Y-32251575D01*
X60341344Y-32196998D01*
X60334151Y-32127499D01*
X60365673Y-32065145D01*
X60384968Y-32048425D01*
X60571082Y-31918105D01*
X60738105Y-31751082D01*
X60873600Y-31557578D01*
X60973429Y-31343492D01*
X60973432Y-31343486D01*
X61030636Y-31130000D01*
X60133686Y-31130000D01*
X60159493Y-31089844D01*
X60200000Y-30951889D01*
X60200000Y-30808111D01*
X60159493Y-30670156D01*
X60133686Y-30630000D01*
X61030636Y-30630000D01*
X61030635Y-30629999D01*
X60973432Y-30416513D01*
X60973429Y-30416507D01*
X60873600Y-30202422D01*
X60873599Y-30202420D01*
X60738113Y-30008926D01*
X60738108Y-30008920D01*
X60571082Y-29841894D01*
X60384968Y-29711575D01*
X60341344Y-29656998D01*
X60334151Y-29587499D01*
X60365673Y-29525145D01*
X60384968Y-29508425D01*
X60571082Y-29378105D01*
X60738105Y-29211082D01*
X60873600Y-29017578D01*
X60973429Y-28803492D01*
X60973432Y-28803486D01*
X61030636Y-28590000D01*
X60133686Y-28590000D01*
X60159493Y-28549844D01*
X60200000Y-28411889D01*
X60200000Y-28268111D01*
X60159493Y-28130156D01*
X60133686Y-28090000D01*
X61030636Y-28090000D01*
X61030635Y-28089999D01*
X60973432Y-27876513D01*
X60973429Y-27876507D01*
X60873600Y-27662422D01*
X60873599Y-27662420D01*
X60738113Y-27468926D01*
X60738108Y-27468920D01*
X60571082Y-27301894D01*
X60384968Y-27171575D01*
X60341344Y-27116998D01*
X60334151Y-27047499D01*
X60365673Y-26985145D01*
X60384968Y-26968425D01*
X60571082Y-26838105D01*
X60738105Y-26671082D01*
X60873600Y-26477578D01*
X60973429Y-26263492D01*
X60973432Y-26263486D01*
X61030636Y-26050000D01*
X60133686Y-26050000D01*
X60159493Y-26009844D01*
X60200000Y-25871889D01*
X60200000Y-25728111D01*
X60159493Y-25590156D01*
X60133686Y-25550000D01*
X61030636Y-25550000D01*
X61030635Y-25549999D01*
X60973432Y-25336513D01*
X60973429Y-25336507D01*
X60873600Y-25122422D01*
X60873599Y-25122420D01*
X60738113Y-24928926D01*
X60738108Y-24928920D01*
X60571082Y-24761894D01*
X60384968Y-24631575D01*
X60341344Y-24576998D01*
X60334151Y-24507499D01*
X60365673Y-24445145D01*
X60384968Y-24428425D01*
X60571082Y-24298105D01*
X60738105Y-24131082D01*
X60873600Y-23937578D01*
X60973429Y-23723492D01*
X60973432Y-23723486D01*
X61030636Y-23510000D01*
X60133686Y-23510000D01*
X60159493Y-23469844D01*
X60200000Y-23331889D01*
X60200000Y-23188111D01*
X60159493Y-23050156D01*
X60133686Y-23010000D01*
X61030636Y-23010000D01*
X61030635Y-23009999D01*
X60973432Y-22796513D01*
X60973429Y-22796507D01*
X60873600Y-22582422D01*
X60873599Y-22582420D01*
X60738113Y-22388926D01*
X60738108Y-22388920D01*
X60571082Y-22221894D01*
X60384968Y-22091575D01*
X60341344Y-22036998D01*
X60334151Y-21967499D01*
X60365673Y-21905145D01*
X60384968Y-21888425D01*
X60571082Y-21758105D01*
X60738105Y-21591082D01*
X60873600Y-21397578D01*
X60973429Y-21183492D01*
X60973432Y-21183486D01*
X61030636Y-20970000D01*
X60133686Y-20970000D01*
X60159493Y-20929844D01*
X60200000Y-20791889D01*
X60200000Y-20648111D01*
X60159493Y-20510156D01*
X60133686Y-20470000D01*
X61030636Y-20470000D01*
X61030635Y-20469999D01*
X60973432Y-20256513D01*
X60973429Y-20256507D01*
X60873600Y-20042422D01*
X60873599Y-20042420D01*
X60738113Y-19848926D01*
X60738108Y-19848920D01*
X60571082Y-19681894D01*
X60377578Y-19546399D01*
X60163492Y-19446570D01*
X60163486Y-19446567D01*
X59950000Y-19389364D01*
X59950000Y-20284498D01*
X59842315Y-20235320D01*
X59735763Y-20220000D01*
X59664237Y-20220000D01*
X59557685Y-20235320D01*
X59450000Y-20284498D01*
X59450000Y-19389364D01*
X59449999Y-19389364D01*
X59236513Y-19446567D01*
X59236507Y-19446570D01*
X59022422Y-19546399D01*
X59022420Y-19546400D01*
X58828926Y-19681886D01*
X58828920Y-19681891D01*
X58661891Y-19848920D01*
X58661886Y-19848926D01*
X58526400Y-20042420D01*
X58526399Y-20042422D01*
X58487489Y-20125866D01*
X58441317Y-20178305D01*
X58374123Y-20197457D01*
X58307242Y-20177241D01*
X58262725Y-20125866D01*
X58252299Y-20103508D01*
X58247102Y-20092362D01*
X58247100Y-20092359D01*
X58247099Y-20092357D01*
X58121599Y-19913124D01*
X58046950Y-19838475D01*
X57966877Y-19758402D01*
X57787639Y-19632898D01*
X57787640Y-19632898D01*
X57787638Y-19632897D01*
X57688484Y-19586661D01*
X57589330Y-19540425D01*
X57589326Y-19540424D01*
X57589322Y-19540422D01*
X57377977Y-19483793D01*
X57160002Y-19464723D01*
X57159998Y-19464723D01*
X57014682Y-19477436D01*
X56942023Y-19483793D01*
X56942020Y-19483793D01*
X56730677Y-19540422D01*
X56730670Y-19540424D01*
X56730670Y-19540425D01*
X56727391Y-19541954D01*
X56532361Y-19632898D01*
X56532357Y-19632900D01*
X56353121Y-19758402D01*
X56198402Y-19913121D01*
X56072900Y-20092357D01*
X56059222Y-20121689D01*
X56047717Y-20146364D01*
X56046881Y-20148156D01*
X56000708Y-20200595D01*
X55933514Y-20219746D01*
X55866633Y-20199530D01*
X55821299Y-20146364D01*
X55810499Y-20095750D01*
X55810499Y-19838482D01*
X55809847Y-19834363D01*
X55795646Y-19744696D01*
X55738050Y-19631658D01*
X55738046Y-19631654D01*
X55738045Y-19631652D01*
X55648347Y-19541954D01*
X55648344Y-19541952D01*
X55648342Y-19541950D01*
X55571517Y-19502805D01*
X55535301Y-19484352D01*
X55441524Y-19469500D01*
X53678482Y-19469500D01*
X53597519Y-19482323D01*
X53584696Y-19484354D01*
X53471658Y-19541950D01*
X53471657Y-19541951D01*
X53471652Y-19541954D01*
X53381954Y-19631652D01*
X53381951Y-19631657D01*
X53381950Y-19631658D01*
X53371219Y-19652719D01*
X53324352Y-19744698D01*
X53309500Y-19838475D01*
X53309500Y-21601517D01*
X53320292Y-21669657D01*
X53324354Y-21695304D01*
X53381950Y-21808342D01*
X53381952Y-21808344D01*
X53381954Y-21808347D01*
X53471652Y-21898045D01*
X53471654Y-21898046D01*
X53471658Y-21898050D01*
X53559883Y-21943003D01*
X53584698Y-21955647D01*
X53678475Y-21970499D01*
X53678481Y-21970500D01*
X53828140Y-21970499D01*
X53895177Y-21990183D01*
X53940932Y-22042987D01*
X53950876Y-22112145D01*
X53921851Y-22175701D01*
X53899262Y-22196074D01*
X53753118Y-22298405D01*
X53598402Y-22453121D01*
X53472900Y-22632357D01*
X53472898Y-22632361D01*
X53380426Y-22830668D01*
X53380422Y-22830677D01*
X53323793Y-23042020D01*
X53323793Y-23042023D01*
X53319025Y-23096517D01*
X53304723Y-23259997D01*
X53304723Y-23260002D01*
X53309250Y-23311742D01*
X53323081Y-23469844D01*
X53323793Y-23477975D01*
X53323793Y-23477979D01*
X53380422Y-23689322D01*
X53380424Y-23689326D01*
X53380425Y-23689330D01*
X53396355Y-23723492D01*
X53472897Y-23887638D01*
X53488723Y-23910240D01*
X53598402Y-24066877D01*
X53753123Y-24221598D01*
X53918842Y-24337636D01*
X53932361Y-24347102D01*
X54083583Y-24417618D01*
X54136022Y-24463790D01*
X54155174Y-24530984D01*
X54134958Y-24597865D01*
X54083583Y-24642382D01*
X53932361Y-24712898D01*
X53932357Y-24712900D01*
X53753121Y-24838402D01*
X53598402Y-24993121D01*
X53472900Y-25172357D01*
X53472898Y-25172361D01*
X53380426Y-25370668D01*
X53380422Y-25370677D01*
X53323793Y-25582020D01*
X53323793Y-25582023D01*
X53304723Y-25800000D01*
X53323081Y-26009844D01*
X53323793Y-26017975D01*
X53323793Y-26017979D01*
X53380422Y-26229322D01*
X53380424Y-26229326D01*
X53380425Y-26229330D01*
X53396355Y-26263492D01*
X53472897Y-26427638D01*
X53497998Y-26463486D01*
X53598402Y-26606877D01*
X53753123Y-26761598D01*
X53932360Y-26887101D01*
X53932361Y-26887102D01*
X54083583Y-26957618D01*
X54136022Y-27003790D01*
X54155174Y-27070984D01*
X54134958Y-27137865D01*
X54083583Y-27182382D01*
X53932361Y-27252898D01*
X53932357Y-27252900D01*
X53753121Y-27378402D01*
X53598402Y-27533121D01*
X53472900Y-27712357D01*
X53472898Y-27712361D01*
X53380426Y-27910668D01*
X53380422Y-27910677D01*
X53323793Y-28122020D01*
X53323793Y-28122023D01*
X53304723Y-28340000D01*
X53323081Y-28549844D01*
X53323793Y-28557975D01*
X53323793Y-28557979D01*
X53380422Y-28769322D01*
X53380424Y-28769326D01*
X53380425Y-28769330D01*
X53396355Y-28803492D01*
X53472897Y-28967638D01*
X53497998Y-29003486D01*
X53598402Y-29146877D01*
X53753123Y-29301598D01*
X53932360Y-29427101D01*
X53932361Y-29427102D01*
X54083583Y-29497618D01*
X54136022Y-29543790D01*
X54155174Y-29610984D01*
X54134958Y-29677865D01*
X54083583Y-29722382D01*
X53932361Y-29792898D01*
X53932357Y-29792900D01*
X53753121Y-29918402D01*
X53598402Y-30073121D01*
X53472900Y-30252357D01*
X53472898Y-30252361D01*
X53380426Y-30450668D01*
X53380422Y-30450677D01*
X53323793Y-30662020D01*
X53323793Y-30662023D01*
X53304723Y-30880000D01*
X53323081Y-31089844D01*
X53323793Y-31097975D01*
X53323793Y-31097979D01*
X53380422Y-31309322D01*
X53380424Y-31309326D01*
X53380425Y-31309330D01*
X53396355Y-31343492D01*
X53472897Y-31507638D01*
X53497998Y-31543486D01*
X53598402Y-31686877D01*
X53753123Y-31841598D01*
X53932360Y-31967101D01*
X53932361Y-31967102D01*
X54083583Y-32037618D01*
X54136022Y-32083790D01*
X54155174Y-32150984D01*
X54134958Y-32217865D01*
X54083583Y-32262382D01*
X53932361Y-32332898D01*
X53932357Y-32332900D01*
X53753121Y-32458402D01*
X53598402Y-32613121D01*
X53472900Y-32792357D01*
X53472898Y-32792361D01*
X53380426Y-32990668D01*
X53380422Y-32990677D01*
X53323793Y-33202020D01*
X53323793Y-33202023D01*
X53304723Y-33420000D01*
X53323081Y-33629844D01*
X53323793Y-33637975D01*
X53323793Y-33637979D01*
X53380422Y-33849322D01*
X53380424Y-33849326D01*
X53380425Y-33849330D01*
X53396355Y-33883492D01*
X53472897Y-34047638D01*
X53497998Y-34083486D01*
X53598402Y-34226877D01*
X53753123Y-34381598D01*
X53932360Y-34507101D01*
X53932361Y-34507102D01*
X54083583Y-34577618D01*
X54136022Y-34623790D01*
X54155174Y-34690984D01*
X54134958Y-34757865D01*
X54083583Y-34802382D01*
X53932361Y-34872898D01*
X53932357Y-34872900D01*
X53753121Y-34998402D01*
X53598402Y-35153121D01*
X53472900Y-35332357D01*
X53472898Y-35332361D01*
X53380426Y-35530668D01*
X53380422Y-35530677D01*
X53323793Y-35742020D01*
X53323793Y-35742023D01*
X53304723Y-35960000D01*
X53323081Y-36169844D01*
X53323793Y-36177975D01*
X53323793Y-36177979D01*
X53380422Y-36389322D01*
X53380424Y-36389326D01*
X53380425Y-36389330D01*
X53396355Y-36423492D01*
X53472897Y-36587638D01*
X53497998Y-36623486D01*
X53598402Y-36766877D01*
X53753123Y-36921598D01*
X53932360Y-37047101D01*
X53932361Y-37047102D01*
X54083583Y-37117618D01*
X54136022Y-37163790D01*
X54155174Y-37230984D01*
X54134958Y-37297865D01*
X54083583Y-37342382D01*
X53932361Y-37412898D01*
X53932357Y-37412900D01*
X53753121Y-37538402D01*
X53598402Y-37693121D01*
X53472900Y-37872357D01*
X53472898Y-37872361D01*
X53380426Y-38070668D01*
X53380422Y-38070677D01*
X53323793Y-38282020D01*
X53323793Y-38282023D01*
X53304723Y-38500000D01*
X53323081Y-38709844D01*
X53323793Y-38717975D01*
X53323793Y-38717979D01*
X53380422Y-38929322D01*
X53380424Y-38929326D01*
X53380425Y-38929330D01*
X53396355Y-38963492D01*
X53472897Y-39127638D01*
X53497998Y-39163486D01*
X53598402Y-39306877D01*
X53753123Y-39461598D01*
X53913951Y-39574211D01*
X53932361Y-39587102D01*
X54083583Y-39657618D01*
X54136022Y-39703790D01*
X54155174Y-39770984D01*
X54134958Y-39837865D01*
X54083583Y-39882382D01*
X53932361Y-39952898D01*
X53932357Y-39952900D01*
X53753121Y-40078402D01*
X53598402Y-40233121D01*
X53472900Y-40412357D01*
X53472898Y-40412361D01*
X53380426Y-40610668D01*
X53380422Y-40610677D01*
X53323793Y-40822020D01*
X53323793Y-40822023D01*
X53322379Y-40838181D01*
X53304970Y-41037181D01*
X53304723Y-41040000D01*
X53323081Y-41249844D01*
X53323793Y-41257975D01*
X53323793Y-41257979D01*
X53380422Y-41469322D01*
X53380424Y-41469326D01*
X53380425Y-41469330D01*
X53396355Y-41503492D01*
X53472897Y-41667638D01*
X53473977Y-41669180D01*
X53598402Y-41846877D01*
X53753123Y-42001598D01*
X53932360Y-42127101D01*
X53932361Y-42127102D01*
X54083583Y-42197618D01*
X54136022Y-42243790D01*
X54155174Y-42310984D01*
X54134958Y-42377865D01*
X54083583Y-42422382D01*
X53932361Y-42492898D01*
X53932357Y-42492900D01*
X53753121Y-42618402D01*
X53598402Y-42773121D01*
X53472900Y-42952357D01*
X53472898Y-42952361D01*
X53406235Y-43095320D01*
X53390412Y-43129254D01*
X53380426Y-43150668D01*
X53380422Y-43150677D01*
X53323793Y-43362020D01*
X53323793Y-43362023D01*
X53320273Y-43402262D01*
X53308144Y-43540901D01*
X53304723Y-43580000D01*
X52833704Y-43580000D01*
X52845185Y-43540901D01*
X52861819Y-43520259D01*
X52873967Y-43508111D01*
X52929816Y-43452262D01*
X53025789Y-43299522D01*
X53085368Y-43129255D01*
X53086804Y-43116513D01*
X53105565Y-42950003D01*
X53105565Y-42949996D01*
X53085369Y-42770750D01*
X53085368Y-42770745D01*
X53067872Y-42720745D01*
X53025789Y-42600478D01*
X52929816Y-42447738D01*
X52861819Y-42379741D01*
X52828334Y-42318418D01*
X52825500Y-42292060D01*
X52825500Y-26911108D01*
X52825572Y-26906875D01*
X52827660Y-26845755D01*
X52818440Y-26807925D01*
X52816072Y-26795459D01*
X52810771Y-26756889D01*
X52810770Y-26756886D01*
X52804139Y-26741622D01*
X52797396Y-26721571D01*
X52793457Y-26705405D01*
X52774376Y-26671469D01*
X52768733Y-26660108D01*
X52753219Y-26624391D01*
X52742706Y-26611469D01*
X52730811Y-26593990D01*
X52722657Y-26579488D01*
X52695123Y-26551954D01*
X52686636Y-26542550D01*
X52662054Y-26512335D01*
X52648450Y-26502732D01*
X52632278Y-26489109D01*
X50579440Y-24436271D01*
X50576498Y-24433227D01*
X50534753Y-24388529D01*
X50534751Y-24388528D01*
X50501489Y-24368301D01*
X50490991Y-24361156D01*
X50459976Y-24337636D01*
X50451406Y-24334256D01*
X50444485Y-24331527D01*
X50425553Y-24322124D01*
X50411329Y-24313474D01*
X50373842Y-24302970D01*
X50361813Y-24298925D01*
X50325591Y-24284641D01*
X50325583Y-24284640D01*
X50309022Y-24282937D01*
X50288255Y-24278990D01*
X50272231Y-24274500D01*
X50272228Y-24274500D01*
X50233296Y-24274500D01*
X50220617Y-24273850D01*
X50181892Y-24269869D01*
X50181888Y-24269869D01*
X50172576Y-24271474D01*
X50165485Y-24272697D01*
X50144420Y-24274500D01*
X49798297Y-24274500D01*
X49731258Y-24254815D01*
X49685503Y-24202011D01*
X49675559Y-24132853D01*
X49704584Y-24069297D01*
X49763362Y-24031523D01*
X49775502Y-24028613D01*
X49859496Y-24012912D01*
X50060391Y-23935085D01*
X50243564Y-23821669D01*
X50388733Y-23689330D01*
X50402776Y-23676528D01*
X50415779Y-23659310D01*
X50532612Y-23504599D01*
X50628643Y-23311742D01*
X50687601Y-23104524D01*
X50707480Y-22890000D01*
X50687601Y-22675476D01*
X50628643Y-22468258D01*
X50628639Y-22468249D01*
X50532613Y-22275402D01*
X50402776Y-22103471D01*
X50243565Y-21958332D01*
X50243564Y-21958331D01*
X50146199Y-21898045D01*
X50124222Y-21884437D01*
X50077587Y-21832409D01*
X50065500Y-21779010D01*
X50065500Y-16959978D01*
X50085185Y-16892939D01*
X50101819Y-16872297D01*
X50136096Y-16838020D01*
X50194007Y-16780109D01*
X50289980Y-16627369D01*
X50349559Y-16457102D01*
X50352331Y-16432499D01*
X50369756Y-16277850D01*
X50369756Y-16277843D01*
X50349560Y-16098597D01*
X50349559Y-16098592D01*
X50324731Y-16027639D01*
X50289980Y-15928325D01*
X50274325Y-15903411D01*
X50201792Y-15787975D01*
X50194007Y-15775585D01*
X50066453Y-15648031D01*
X50046254Y-15635339D01*
X49913714Y-15552058D01*
X49743445Y-15492478D01*
X49743440Y-15492477D01*
X49557272Y-15471502D01*
X49557602Y-15468568D01*
X49503210Y-15452597D01*
X49457455Y-15399793D01*
X49447511Y-15330635D01*
X49476536Y-15267079D01*
X49482568Y-15260601D01*
X49630555Y-15112614D01*
X49801699Y-14941469D01*
X49863020Y-14907986D01*
X49893035Y-14906457D01*
X49893035Y-14905565D01*
X49900003Y-14905565D01*
X50079249Y-14885369D01*
X50079252Y-14885368D01*
X50079255Y-14885368D01*
X50249522Y-14825789D01*
X50402262Y-14729816D01*
X50529816Y-14602262D01*
X50625789Y-14449522D01*
X50685368Y-14279255D01*
X50685369Y-14279249D01*
X50705565Y-14100003D01*
X50705565Y-14099996D01*
X50687356Y-13938383D01*
X50699411Y-13869561D01*
X50746760Y-13818182D01*
X50810576Y-13800500D01*
X51037710Y-13800500D01*
X51104749Y-13820185D01*
X51142703Y-13858527D01*
X51170182Y-13902260D01*
X51170184Y-13902262D01*
X51297738Y-14029816D01*
X51308156Y-14036362D01*
X51425919Y-14110358D01*
X51450478Y-14125789D01*
X51588760Y-14174176D01*
X51620745Y-14185368D01*
X51620750Y-14185369D01*
X51799996Y-14205565D01*
X51800000Y-14205565D01*
X51800004Y-14205565D01*
X51979249Y-14185369D01*
X51979252Y-14185368D01*
X51979255Y-14185368D01*
X52149522Y-14125789D01*
X52302262Y-14029816D01*
X52429816Y-13902262D01*
X52525789Y-13749522D01*
X52585368Y-13579255D01*
X52592137Y-13519180D01*
X52605565Y-13400003D01*
X52605565Y-13399996D01*
X52585369Y-13220750D01*
X52585368Y-13220745D01*
X52525788Y-13050476D01*
X52429815Y-12897737D01*
X52302262Y-12770184D01*
X52149523Y-12674211D01*
X51979254Y-12614631D01*
X51979249Y-12614630D01*
X51800004Y-12594435D01*
X51799996Y-12594435D01*
X51620750Y-12614630D01*
X51620737Y-12614633D01*
X51450481Y-12674209D01*
X51450477Y-12674210D01*
X51360904Y-12730494D01*
X51294932Y-12749500D01*
X49569383Y-12749500D01*
X49565150Y-12749428D01*
X49556794Y-12749142D01*
X49504028Y-12747340D01*
X49504027Y-12747340D01*
X49504024Y-12747340D01*
X49466205Y-12756556D01*
X49453737Y-12758926D01*
X49415160Y-12764229D01*
X49399884Y-12770864D01*
X49379858Y-12777599D01*
X49363680Y-12781542D01*
X49363678Y-12781543D01*
X49329751Y-12800619D01*
X49318384Y-12806264D01*
X49282668Y-12821778D01*
X49282664Y-12821780D01*
X49269744Y-12832292D01*
X49252264Y-12844188D01*
X49237763Y-12852341D01*
X49237759Y-12852344D01*
X49210233Y-12879869D01*
X49200813Y-12888370D01*
X49170608Y-12912945D01*
X49161001Y-12926554D01*
X49147382Y-12942720D01*
X48701923Y-13388181D01*
X48640600Y-13421666D01*
X48614242Y-13424500D01*
X45741110Y-13424500D01*
X45736877Y-13424428D01*
X45728521Y-13424142D01*
X45675755Y-13422340D01*
X45675754Y-13422340D01*
X45675751Y-13422340D01*
X45637932Y-13431556D01*
X45625464Y-13433926D01*
X45586887Y-13439229D01*
X45571611Y-13445864D01*
X45551585Y-13452599D01*
X45535407Y-13456542D01*
X45535401Y-13456545D01*
X45501475Y-13475620D01*
X45490109Y-13481265D01*
X45454393Y-13496779D01*
X45454389Y-13496781D01*
X45441473Y-13507289D01*
X45424003Y-13519180D01*
X45409488Y-13527342D01*
X45381955Y-13554874D01*
X45372533Y-13563376D01*
X45342336Y-13587943D01*
X45342336Y-13587944D01*
X45332735Y-13601545D01*
X45319114Y-13617714D01*
X44826470Y-14110358D01*
X44765147Y-14143843D01*
X44716004Y-14144565D01*
X44517721Y-14107500D01*
X44302279Y-14107500D01*
X44090504Y-14147088D01*
X44090501Y-14147088D01*
X44090501Y-14147089D01*
X43889611Y-14224913D01*
X43889605Y-14224916D01*
X43706437Y-14338329D01*
X43706435Y-14338331D01*
X43547223Y-14483471D01*
X43417386Y-14655402D01*
X43321360Y-14848249D01*
X43321353Y-14848267D01*
X43311419Y-14883184D01*
X43274140Y-14942277D01*
X43210830Y-14971834D01*
X43141591Y-14962472D01*
X43088404Y-14917162D01*
X43072378Y-14881342D01*
X43060424Y-14836729D01*
X43060420Y-14836720D01*
X42967096Y-14636586D01*
X42921741Y-14571811D01*
X42921740Y-14571810D01*
X42254903Y-15238648D01*
X42254949Y-15238102D01*
X42223734Y-15114838D01*
X42154187Y-15008388D01*
X42053843Y-14930287D01*
X41933578Y-14889000D01*
X41897448Y-14889000D01*
X42568188Y-14218259D01*
X42568187Y-14218258D01*
X42503411Y-14172901D01*
X42503405Y-14172898D01*
X42303284Y-14079580D01*
X42303270Y-14079575D01*
X42089986Y-14022426D01*
X42089976Y-14022424D01*
X41870001Y-14003179D01*
X41869999Y-14003179D01*
X41650023Y-14022424D01*
X41650013Y-14022426D01*
X41436729Y-14079575D01*
X41436720Y-14079579D01*
X41236590Y-14172901D01*
X41171811Y-14218258D01*
X41842553Y-14889000D01*
X41838431Y-14889000D01*
X41744579Y-14904661D01*
X41632749Y-14965180D01*
X41546629Y-15058731D01*
X41495552Y-15175177D01*
X41489894Y-15243447D01*
X40818258Y-14571811D01*
X40772901Y-14636590D01*
X40679579Y-14836720D01*
X40679575Y-14836729D01*
X40622426Y-15050013D01*
X40622424Y-15050023D01*
X40603179Y-15269999D01*
X40603179Y-15270000D01*
X40622424Y-15489976D01*
X40622426Y-15489986D01*
X40679575Y-15703270D01*
X40679580Y-15703284D01*
X40772898Y-15903405D01*
X40772901Y-15903411D01*
X40818258Y-15968187D01*
X40818259Y-15968188D01*
X41485096Y-15301350D01*
X41485051Y-15301898D01*
X41516266Y-15425162D01*
X41585813Y-15531612D01*
X41686157Y-15609713D01*
X41806422Y-15651000D01*
X41842553Y-15651000D01*
X41155370Y-16338181D01*
X41094047Y-16371666D01*
X41067689Y-16374500D01*
X40199000Y-16374500D01*
X40131961Y-16354815D01*
X40086206Y-16302011D01*
X40075000Y-16250500D01*
X40075000Y-15650000D01*
X39158686Y-15650000D01*
X39184493Y-15609844D01*
X39225000Y-15471889D01*
X39225000Y-15328111D01*
X39184493Y-15190156D01*
X39158686Y-15150000D01*
X40075000Y-15150000D01*
X40075000Y-14502172D01*
X40074999Y-14502155D01*
X40068598Y-14442627D01*
X40068596Y-14442620D01*
X40018354Y-14307913D01*
X40018350Y-14307906D01*
X39932190Y-14192812D01*
X39932187Y-14192809D01*
X39817093Y-14106649D01*
X39817086Y-14106645D01*
X39682379Y-14056403D01*
X39682372Y-14056401D01*
X39622844Y-14050000D01*
X38975000Y-14050000D01*
X38975000Y-14964498D01*
X38867315Y-14915320D01*
X38760763Y-14900000D01*
X38689237Y-14900000D01*
X38582685Y-14915320D01*
X38475000Y-14964498D01*
X38475000Y-14050000D01*
X37827155Y-14050000D01*
X37767627Y-14056401D01*
X37767620Y-14056403D01*
X37632913Y-14106645D01*
X37632906Y-14106649D01*
X37517812Y-14192809D01*
X37517809Y-14192812D01*
X37431649Y-14307906D01*
X37431645Y-14307913D01*
X37381403Y-14442620D01*
X37381401Y-14442627D01*
X37375000Y-14502155D01*
X37375000Y-14526036D01*
X37355315Y-14593075D01*
X37302511Y-14638830D01*
X37233353Y-14648774D01*
X37169797Y-14619749D01*
X37149428Y-14597164D01*
X37146598Y-14593123D01*
X37074966Y-14521491D01*
X36991877Y-14438402D01*
X36812639Y-14312898D01*
X36812640Y-14312898D01*
X36812638Y-14312897D01*
X36713484Y-14266661D01*
X36614330Y-14220425D01*
X36614326Y-14220424D01*
X36614322Y-14220422D01*
X36402977Y-14163793D01*
X36185002Y-14144723D01*
X36184998Y-14144723D01*
X36039682Y-14157436D01*
X35967023Y-14163793D01*
X35967020Y-14163793D01*
X35755677Y-14220422D01*
X35755668Y-14220426D01*
X35557361Y-14312898D01*
X35557357Y-14312900D01*
X35378121Y-14438402D01*
X35223402Y-14593121D01*
X35097900Y-14772357D01*
X35097898Y-14772361D01*
X35027382Y-14923583D01*
X34981209Y-14976022D01*
X34914016Y-14995174D01*
X34847135Y-14974958D01*
X34802618Y-14923583D01*
X34767497Y-14848267D01*
X34732102Y-14772362D01*
X34732100Y-14772359D01*
X34732099Y-14772357D01*
X34606599Y-14593124D01*
X34534966Y-14521491D01*
X34451877Y-14438402D01*
X34272639Y-14312898D01*
X34272640Y-14312898D01*
X34272638Y-14312897D01*
X34173484Y-14266661D01*
X34074330Y-14220425D01*
X34074326Y-14220424D01*
X34074322Y-14220422D01*
X33862977Y-14163793D01*
X33645002Y-14144723D01*
X33644998Y-14144723D01*
X33499682Y-14157436D01*
X33427023Y-14163793D01*
X33427020Y-14163793D01*
X33215677Y-14220422D01*
X33215668Y-14220426D01*
X33017361Y-14312898D01*
X33017357Y-14312900D01*
X32838121Y-14438402D01*
X32683402Y-14593121D01*
X32557900Y-14772357D01*
X32557898Y-14772361D01*
X32465426Y-14970668D01*
X32465422Y-14970677D01*
X32408793Y-15182020D01*
X32408793Y-15182023D01*
X32404025Y-15236517D01*
X32389723Y-15399997D01*
X32389723Y-15400003D01*
X32393256Y-15440391D01*
X32379489Y-15508891D01*
X32330873Y-15559073D01*
X32262844Y-15575006D01*
X32197001Y-15551630D01*
X32182047Y-15538878D01*
X32079440Y-15436271D01*
X32076498Y-15433227D01*
X32063688Y-15419511D01*
X32034755Y-15388531D01*
X32034754Y-15388530D01*
X32034753Y-15388529D01*
X32034751Y-15388528D01*
X32001489Y-15368301D01*
X31990991Y-15361156D01*
X31959976Y-15337636D01*
X31951406Y-15334256D01*
X31944485Y-15331527D01*
X31925553Y-15322124D01*
X31911329Y-15313474D01*
X31873842Y-15302970D01*
X31861813Y-15298925D01*
X31825591Y-15284641D01*
X31825583Y-15284640D01*
X31809022Y-15282937D01*
X31788255Y-15278990D01*
X31772231Y-15274500D01*
X31772228Y-15274500D01*
X31733296Y-15274500D01*
X31720617Y-15273850D01*
X31681892Y-15269869D01*
X31681888Y-15269869D01*
X31672576Y-15271474D01*
X31665485Y-15272697D01*
X31644420Y-15274500D01*
X23911110Y-15274500D01*
X23906877Y-15274428D01*
X23898521Y-15274142D01*
X23845755Y-15272340D01*
X23845754Y-15272340D01*
X23845751Y-15272340D01*
X23807932Y-15281556D01*
X23795464Y-15283926D01*
X23756887Y-15289229D01*
X23741611Y-15295864D01*
X23721585Y-15302599D01*
X23705407Y-15306542D01*
X23705401Y-15306545D01*
X23671475Y-15325620D01*
X23660109Y-15331265D01*
X23624393Y-15346779D01*
X23624389Y-15346781D01*
X23611473Y-15357289D01*
X23594003Y-15369180D01*
X23579488Y-15377342D01*
X23551955Y-15404874D01*
X23542533Y-15413376D01*
X23512336Y-15437943D01*
X23512336Y-15437944D01*
X23502735Y-15451545D01*
X23489114Y-15467714D01*
X21198301Y-17758528D01*
X21136978Y-17792013D01*
X21106963Y-17793545D01*
X21106963Y-17794435D01*
X21099996Y-17794435D01*
X20920750Y-17814630D01*
X20920745Y-17814631D01*
X20750476Y-17874211D01*
X20597737Y-17970184D01*
X20470184Y-18097737D01*
X20374211Y-18250476D01*
X20314631Y-18420745D01*
X20314630Y-18420750D01*
X20294435Y-18599996D01*
X20294435Y-18600003D01*
X20314630Y-18779249D01*
X20314631Y-18779254D01*
X20374211Y-18949523D01*
X20444355Y-19061156D01*
X20470184Y-19102262D01*
X20597738Y-19229816D01*
X20750478Y-19325789D01*
X20811899Y-19347281D01*
X20920745Y-19385368D01*
X20920750Y-19385369D01*
X21099996Y-19405565D01*
X21100000Y-19405565D01*
X21100004Y-19405565D01*
X21279249Y-19385369D01*
X21279252Y-19385368D01*
X21279255Y-19385368D01*
X21449522Y-19325789D01*
X21602262Y-19229816D01*
X21729816Y-19102262D01*
X21825789Y-18949522D01*
X21885368Y-18779255D01*
X21891182Y-18727660D01*
X21905565Y-18600002D01*
X21905565Y-18593035D01*
X21907729Y-18593035D01*
X21917972Y-18534468D01*
X21941468Y-18501700D01*
X24081350Y-16361819D01*
X24142673Y-16328334D01*
X24169031Y-16325500D01*
X24881969Y-16325500D01*
X24949008Y-16345185D01*
X24994763Y-16397989D01*
X25004707Y-16467147D01*
X24975682Y-16530703D01*
X24969650Y-16537181D01*
X23748301Y-17758528D01*
X23686978Y-17792013D01*
X23656963Y-17793545D01*
X23656963Y-17794435D01*
X23649996Y-17794435D01*
X23470750Y-17814630D01*
X23470745Y-17814631D01*
X23300476Y-17874211D01*
X23147737Y-17970184D01*
X23020184Y-18097737D01*
X22924211Y-18250476D01*
X22864631Y-18420745D01*
X22864630Y-18420750D01*
X22844435Y-18599996D01*
X22844435Y-18600003D01*
X22864630Y-18779249D01*
X22864631Y-18779254D01*
X22924211Y-18949523D01*
X22994355Y-19061156D01*
X23020184Y-19102262D01*
X23147738Y-19229816D01*
X23300478Y-19325789D01*
X23361899Y-19347281D01*
X23470745Y-19385368D01*
X23470750Y-19385369D01*
X23649996Y-19405565D01*
X23650000Y-19405565D01*
X23650004Y-19405565D01*
X23829249Y-19385369D01*
X23829252Y-19385368D01*
X23829255Y-19385368D01*
X23999522Y-19325789D01*
X24152262Y-19229816D01*
X24279816Y-19102262D01*
X24375789Y-18949522D01*
X24435368Y-18779255D01*
X24441182Y-18727660D01*
X24455565Y-18600002D01*
X24455565Y-18593035D01*
X24457729Y-18593035D01*
X24467972Y-18534468D01*
X24491468Y-18501700D01*
X25931350Y-17061819D01*
X25992673Y-17028334D01*
X26019031Y-17025500D01*
X26581968Y-17025500D01*
X26649007Y-17045185D01*
X26694762Y-17097989D01*
X26704706Y-17167147D01*
X26675681Y-17230703D01*
X26669649Y-17237181D01*
X26298301Y-17608528D01*
X26236978Y-17642013D01*
X26206963Y-17643545D01*
X26206963Y-17644435D01*
X26199996Y-17644435D01*
X26020750Y-17664630D01*
X26020745Y-17664631D01*
X25850476Y-17724211D01*
X25697737Y-17820184D01*
X25570184Y-17947737D01*
X25474211Y-18100476D01*
X25414631Y-18270745D01*
X25414630Y-18270750D01*
X25394435Y-18449996D01*
X25394435Y-18450003D01*
X25414630Y-18629249D01*
X25414631Y-18629254D01*
X25474211Y-18799523D01*
X25530714Y-18889446D01*
X25570184Y-18952262D01*
X25697738Y-19079816D01*
X25850478Y-19175789D01*
X26004878Y-19229816D01*
X26020745Y-19235368D01*
X26020750Y-19235369D01*
X26199996Y-19255565D01*
X26200000Y-19255565D01*
X26200004Y-19255565D01*
X26379249Y-19235369D01*
X26379252Y-19235368D01*
X26379255Y-19235368D01*
X26549522Y-19175789D01*
X26702262Y-19079816D01*
X26829816Y-18952262D01*
X26925789Y-18799522D01*
X26985368Y-18629255D01*
X26986112Y-18622658D01*
X27005565Y-18450002D01*
X27005565Y-18443035D01*
X27007729Y-18443035D01*
X27017974Y-18384464D01*
X27041468Y-18351699D01*
X27431350Y-17961819D01*
X27492673Y-17928334D01*
X27519031Y-17925500D01*
X27893180Y-17925500D01*
X27960219Y-17945185D01*
X28005974Y-17997989D01*
X28015918Y-18067147D01*
X28010222Y-18090454D01*
X27964632Y-18220742D01*
X27964630Y-18220750D01*
X27944435Y-18399996D01*
X27944435Y-18400003D01*
X27964630Y-18579249D01*
X27964631Y-18579254D01*
X28024211Y-18749523D01*
X28076271Y-18832375D01*
X28120184Y-18902262D01*
X28247738Y-19029816D01*
X28330021Y-19081518D01*
X28341177Y-19088528D01*
X28400478Y-19125789D01*
X28442274Y-19140414D01*
X28570745Y-19185368D01*
X28570750Y-19185369D01*
X28749996Y-19205565D01*
X28750000Y-19205565D01*
X28750004Y-19205565D01*
X28929249Y-19185369D01*
X28929252Y-19185368D01*
X28929255Y-19185368D01*
X29099522Y-19125789D01*
X29252262Y-19029816D01*
X29320259Y-18961819D01*
X29381582Y-18928334D01*
X29407940Y-18925500D01*
X30430968Y-18925500D01*
X30498007Y-18945185D01*
X30518649Y-18961819D01*
X34989620Y-23432790D01*
X35023105Y-23494113D01*
X35018121Y-23563805D01*
X34976249Y-23619738D01*
X34910785Y-23644155D01*
X34842512Y-23629303D01*
X34829058Y-23620792D01*
X34729199Y-23548240D01*
X34560836Y-23462454D01*
X34381118Y-23404059D01*
X34194486Y-23374500D01*
X34194481Y-23374500D01*
X34122590Y-23374500D01*
X15639882Y-23374500D01*
X15600000Y-23374500D01*
X15505519Y-23374500D01*
X15505514Y-23374500D01*
X15318881Y-23404059D01*
X15139163Y-23462454D01*
X14970800Y-23548240D01*
X14883579Y-23611610D01*
X14817927Y-23659310D01*
X14817925Y-23659312D01*
X14817924Y-23659312D01*
X14684312Y-23792924D01*
X14684312Y-23792925D01*
X14684310Y-23792927D01*
X14645789Y-23845946D01*
X14573240Y-23945800D01*
X14487454Y-24114163D01*
X14429059Y-24293881D01*
X14399500Y-24480513D01*
X14399500Y-34669486D01*
X14429059Y-34856118D01*
X14487454Y-35035836D01*
X14547216Y-35153124D01*
X14573240Y-35204199D01*
X14684310Y-35357073D01*
X14817927Y-35490690D01*
X14970801Y-35601760D01*
X15024659Y-35629202D01*
X15139163Y-35687545D01*
X15139165Y-35687545D01*
X15139168Y-35687547D01*
X15208268Y-35709999D01*
X15318881Y-35745940D01*
X15505514Y-35775500D01*
X15505519Y-35775500D01*
X34194486Y-35775500D01*
X34381118Y-35745940D01*
X34393182Y-35742020D01*
X34560832Y-35687547D01*
X34729199Y-35601760D01*
X34882073Y-35490690D01*
X35015690Y-35357073D01*
X35126760Y-35204199D01*
X35212547Y-35035832D01*
X35270940Y-34856118D01*
X35281010Y-34792538D01*
X35300500Y-34669486D01*
X35300500Y-24480513D01*
X35270940Y-24293881D01*
X35226406Y-24156821D01*
X35212547Y-24114168D01*
X35212545Y-24114165D01*
X35212545Y-24114163D01*
X35126759Y-23945800D01*
X35123809Y-23941740D01*
X35054209Y-23845943D01*
X35030730Y-23780140D01*
X35046555Y-23712086D01*
X35096661Y-23663391D01*
X35165138Y-23649515D01*
X35230248Y-23674864D01*
X35242209Y-23685379D01*
X47538181Y-35981350D01*
X47571666Y-36042673D01*
X47574500Y-36069031D01*
X47574500Y-46588890D01*
X47574428Y-46593123D01*
X47572347Y-46654059D01*
X47572340Y-46654250D01*
X47581556Y-46692068D01*
X47583927Y-46704540D01*
X47589228Y-46743109D01*
X47595864Y-46758387D01*
X47602602Y-46778424D01*
X47606542Y-46794593D01*
X47606543Y-46794594D01*
X47625618Y-46828520D01*
X47631266Y-46839890D01*
X47646782Y-46875612D01*
X47657283Y-46888518D01*
X47669182Y-46906000D01*
X47677342Y-46920512D01*
X47704878Y-46948048D01*
X47713377Y-46957466D01*
X47737943Y-46987662D01*
X47737944Y-46987663D01*
X47737946Y-46987665D01*
X47751544Y-46997264D01*
X47767715Y-47010885D01*
X48988181Y-48231351D01*
X49021666Y-48292674D01*
X49024500Y-48319032D01*
X49024500Y-53092060D01*
X49004815Y-53159099D01*
X48988181Y-53179741D01*
X48920184Y-53247737D01*
X48824209Y-53400480D01*
X48764820Y-53570203D01*
X48724099Y-53626979D01*
X48659146Y-53652726D01*
X48590584Y-53639270D01*
X48560098Y-53616929D01*
X41280849Y-46337680D01*
X41247364Y-46276357D01*
X41252348Y-46206665D01*
X41280845Y-46162323D01*
X43701698Y-43741469D01*
X43763019Y-43707986D01*
X43793035Y-43706457D01*
X43793035Y-43705565D01*
X43800003Y-43705565D01*
X43979249Y-43685369D01*
X43979252Y-43685368D01*
X43979255Y-43685368D01*
X44149522Y-43625789D01*
X44302262Y-43529816D01*
X44429816Y-43402262D01*
X44525789Y-43249522D01*
X44585368Y-43079255D01*
X44585369Y-43079249D01*
X44605565Y-42900003D01*
X44605565Y-42899996D01*
X44585369Y-42720750D01*
X44585368Y-42720745D01*
X44581230Y-42708920D01*
X44525789Y-42550478D01*
X44525188Y-42549522D01*
X44429815Y-42397737D01*
X44302262Y-42270184D01*
X44149523Y-42174211D01*
X43979254Y-42114631D01*
X43979249Y-42114630D01*
X43800004Y-42094435D01*
X43799996Y-42094435D01*
X43620750Y-42114630D01*
X43620745Y-42114631D01*
X43450476Y-42174211D01*
X43297737Y-42270184D01*
X43170184Y-42397737D01*
X43074211Y-42550476D01*
X43014631Y-42720745D01*
X43014630Y-42720750D01*
X42994435Y-42899996D01*
X42994435Y-42906963D01*
X42992276Y-42906963D01*
X42982012Y-42965560D01*
X42958528Y-42998301D01*
X40787680Y-45169149D01*
X40726357Y-45202634D01*
X40656665Y-45197650D01*
X40612318Y-45169149D01*
X36480350Y-41037181D01*
X36446865Y-40975858D01*
X36451849Y-40906166D01*
X36493721Y-40850233D01*
X36559185Y-40825816D01*
X36568031Y-40825500D01*
X37830968Y-40825500D01*
X37898007Y-40845185D01*
X37918649Y-40861819D01*
X39158528Y-42101698D01*
X39192013Y-42163021D01*
X39193546Y-42193037D01*
X39194435Y-42193037D01*
X39194435Y-42200003D01*
X39214630Y-42379249D01*
X39214631Y-42379254D01*
X39274211Y-42549523D01*
X39321951Y-42625500D01*
X39370184Y-42702262D01*
X39497738Y-42829816D01*
X39533461Y-42852262D01*
X39648426Y-42924500D01*
X39650478Y-42925789D01*
X39758176Y-42963474D01*
X39820745Y-42985368D01*
X39820750Y-42985369D01*
X39999996Y-43005565D01*
X40000000Y-43005565D01*
X40000004Y-43005565D01*
X40179249Y-42985369D01*
X40179252Y-42985368D01*
X40179255Y-42985368D01*
X40349522Y-42925789D01*
X40502262Y-42829816D01*
X40629816Y-42702262D01*
X40725789Y-42549522D01*
X40785368Y-42379255D01*
X40788664Y-42350003D01*
X40805565Y-42200003D01*
X40805565Y-42199996D01*
X40785369Y-42020750D01*
X40785368Y-42020745D01*
X40764132Y-41960057D01*
X40725789Y-41850478D01*
X40723526Y-41846877D01*
X40655079Y-41737944D01*
X40629816Y-41697738D01*
X40502262Y-41570184D01*
X40349523Y-41474211D01*
X40179254Y-41414631D01*
X40179249Y-41414630D01*
X40000004Y-41394435D01*
X39993037Y-41394435D01*
X39993037Y-41392277D01*
X39934436Y-41382010D01*
X39901698Y-41358528D01*
X38479440Y-39936271D01*
X38476498Y-39933227D01*
X38434755Y-39888531D01*
X38434754Y-39888530D01*
X38434753Y-39888529D01*
X38434751Y-39888528D01*
X38401489Y-39868301D01*
X38390991Y-39861156D01*
X38359976Y-39837636D01*
X38351406Y-39834256D01*
X38344485Y-39831527D01*
X38325553Y-39822124D01*
X38311329Y-39813474D01*
X38273842Y-39802970D01*
X38261813Y-39798925D01*
X38225591Y-39784641D01*
X38225583Y-39784640D01*
X38209022Y-39782937D01*
X38188255Y-39778990D01*
X38172231Y-39774500D01*
X38172228Y-39774500D01*
X38133296Y-39774500D01*
X38120617Y-39773850D01*
X38081892Y-39769869D01*
X38081888Y-39769869D01*
X38072576Y-39771474D01*
X38065485Y-39772697D01*
X38044420Y-39774500D01*
X31957940Y-39774500D01*
X31890901Y-39754815D01*
X31870259Y-39738181D01*
X31802262Y-39670184D01*
X31649523Y-39574211D01*
X31479254Y-39514631D01*
X31479249Y-39514630D01*
X31300004Y-39494435D01*
X31299996Y-39494435D01*
X31120750Y-39514630D01*
X31120745Y-39514631D01*
X30950476Y-39574211D01*
X30797737Y-39670184D01*
X30670184Y-39797737D01*
X30574211Y-39950476D01*
X30514631Y-40120745D01*
X30514630Y-40120750D01*
X30494435Y-40299996D01*
X30494435Y-40300003D01*
X30514630Y-40479249D01*
X30514631Y-40479254D01*
X30574211Y-40649524D01*
X30596206Y-40684527D01*
X30615207Y-40751764D01*
X30594840Y-40818599D01*
X30541572Y-40863813D01*
X30491213Y-40874500D01*
X22119031Y-40874500D01*
X22051992Y-40854815D01*
X22031350Y-40838181D01*
X21991471Y-40798302D01*
X21957986Y-40736979D01*
X21956458Y-40706965D01*
X21955565Y-40706965D01*
X21955565Y-40699997D01*
X21935369Y-40520750D01*
X21935368Y-40520745D01*
X21879968Y-40362422D01*
X21875789Y-40350478D01*
X21779816Y-40197738D01*
X21652262Y-40070184D01*
X21499523Y-39974211D01*
X21329254Y-39914631D01*
X21329249Y-39914630D01*
X21150004Y-39894435D01*
X21149996Y-39894435D01*
X20970750Y-39914630D01*
X20970745Y-39914631D01*
X20800476Y-39974211D01*
X20647737Y-40070184D01*
X20520184Y-40197737D01*
X20424211Y-40350476D01*
X20364631Y-40520745D01*
X20364630Y-40520750D01*
X20344435Y-40699996D01*
X20344435Y-40700003D01*
X20364630Y-40879249D01*
X20364631Y-40879254D01*
X20424211Y-41049523D01*
X20520184Y-41202262D01*
X20605531Y-41287609D01*
X20639016Y-41348932D01*
X20634032Y-41418624D01*
X20601251Y-41463849D01*
X20602662Y-41465260D01*
X20529741Y-41538181D01*
X20468418Y-41571666D01*
X20442060Y-41574500D01*
X17511110Y-41574500D01*
X17506877Y-41574428D01*
X17498521Y-41574142D01*
X17445755Y-41572340D01*
X17445754Y-41572340D01*
X17445751Y-41572340D01*
X17407932Y-41581556D01*
X17395464Y-41583926D01*
X17356887Y-41589229D01*
X17341611Y-41595864D01*
X17321585Y-41602599D01*
X17305407Y-41606542D01*
X17305401Y-41606545D01*
X17271475Y-41625620D01*
X17260109Y-41631265D01*
X17224393Y-41646779D01*
X17224389Y-41646781D01*
X17211473Y-41657289D01*
X17194003Y-41669180D01*
X17179488Y-41677342D01*
X17151955Y-41704874D01*
X17142533Y-41713376D01*
X17112336Y-41737943D01*
X17112336Y-41737944D01*
X17102735Y-41751545D01*
X17089114Y-41767714D01*
X12936270Y-45920559D01*
X12933227Y-45923500D01*
X12888532Y-45965243D01*
X12888531Y-45965244D01*
X12868302Y-45998508D01*
X12861161Y-46009000D01*
X12837639Y-46040019D01*
X12837633Y-46040029D01*
X12831525Y-46055517D01*
X12822125Y-46074442D01*
X12813477Y-46088664D01*
X12813475Y-46088670D01*
X12802971Y-46126155D01*
X12798926Y-46138181D01*
X12784641Y-46174409D01*
X12784640Y-46174411D01*
X12782937Y-46190976D01*
X12778991Y-46211739D01*
X12774500Y-46227767D01*
X12774500Y-46266703D01*
X12773850Y-46279382D01*
X12769869Y-46318107D01*
X12769869Y-46318111D01*
X12200500Y-46318111D01*
X12200500Y-16486533D01*
X12220185Y-16419494D01*
X12272989Y-16373739D01*
X12342147Y-16363795D01*
X12405703Y-16392820D01*
X12443477Y-16451598D01*
X12443654Y-16452206D01*
X12468134Y-16537181D01*
X12474341Y-16558724D01*
X12611906Y-16890833D01*
X12687900Y-17028334D01*
X12785790Y-17205454D01*
X12808302Y-17237181D01*
X12993806Y-17498623D01*
X13233339Y-17766661D01*
X13455553Y-17965243D01*
X13501377Y-18006194D01*
X13631810Y-18098742D01*
X13794548Y-18214211D01*
X14109167Y-18388094D01*
X14441276Y-18525659D01*
X14786700Y-18625173D01*
X15141093Y-18685387D01*
X15500000Y-18705543D01*
X15858907Y-18685387D01*
X16213300Y-18625173D01*
X16558724Y-18525659D01*
X16890833Y-18388094D01*
X17205452Y-18214211D01*
X17498623Y-18006194D01*
X17766661Y-17766661D01*
X18006194Y-17498623D01*
X18214211Y-17205452D01*
X18388094Y-16890833D01*
X18525659Y-16558724D01*
X18625173Y-16213300D01*
X18685387Y-15858907D01*
X18705543Y-15500000D01*
X18685387Y-15141093D01*
X18625173Y-14786700D01*
X18525659Y-14441276D01*
X18388094Y-14109167D01*
X18214211Y-13794548D01*
X18006194Y-13501377D01*
X17766661Y-13233339D01*
X17498623Y-12993806D01*
X17483529Y-12983096D01*
X17205454Y-12785790D01*
X16895765Y-12614632D01*
X16890833Y-12611906D01*
X16890806Y-12611895D01*
X16804086Y-12575974D01*
X16558724Y-12474341D01*
X16558720Y-12474339D01*
X16558718Y-12474339D01*
X16452207Y-12443654D01*
X16393237Y-12406180D01*
X16363888Y-12342773D01*
X16373478Y-12273565D01*
X16418963Y-12220528D01*
X16485901Y-12200502D01*
X16486534Y-12200500D01*
X57513466Y-12200500D01*
X57580505Y-12220185D01*
G37*
%TD.AperFunction*%
%TD*%
D24*
X20300000Y-75300000D03*
X24900000Y-40400000D03*
X30250000Y-77850000D03*
X38200000Y-19500000D03*
X60250000Y-81550000D03*
X23600000Y-14450000D03*
X47250000Y-68000000D03*
X49200000Y-64250000D03*
X54800000Y-88400000D03*
X52250000Y-66400000D03*
X36300000Y-31050000D03*
X48600000Y-75850000D03*
X37375000Y-73825000D03*
X21700000Y-88050000D03*
X53750000Y-47150000D03*
X20200000Y-14500000D03*
X52250000Y-25050000D03*
X14000000Y-81050000D03*
X58900000Y-56750000D03*
X50650000Y-20550000D03*
X55100000Y-61300000D03*
X47900000Y-28500000D03*
X32500000Y-68300000D03*
X21150000Y-63850000D03*
X32500000Y-75100000D03*
X26183560Y-42266950D03*
X57750000Y-59700000D03*
X28730000Y-42350000D03*
X54200000Y-70200000D03*
X50900000Y-58925000D03*
X50900000Y-62200000D03*
X21100000Y-42100000D03*
X52300000Y-78800000D03*
X23650000Y-42300000D03*
X53500000Y-78000000D03*
X50450000Y-54800000D03*
X26200000Y-18450000D03*
X49550000Y-53750000D03*
X28750000Y-18400000D03*
X52400000Y-57450000D03*
X21100000Y-18600000D03*
X51200000Y-56800000D03*
X23650000Y-18600000D03*
X51800000Y-13400000D03*
X43800000Y-42900000D03*
X52300000Y-42950000D03*
X21150000Y-40700000D03*
X49511388Y-55373596D03*
X49564191Y-16277847D03*
X31300000Y-40300000D03*
X40000000Y-42200000D03*
X49900000Y-14100000D03*
X49650000Y-71750000D03*
X18800000Y-76900000D03*
X18800000Y-81300000D03*
X58500000Y-15500000D03*
X27500000Y-66300000D03*
X29500000Y-66300000D03*
X59700000Y-46120000D03*
X57160000Y-46120000D03*
X59700000Y-43580000D03*
X57160000Y-43580000D03*
X59700000Y-41040000D03*
X57160000Y-41040000D03*
X59700000Y-38500000D03*
X57160000Y-38500000D03*
X59700000Y-35960000D03*
X57160000Y-35960000D03*
X59700000Y-33420000D03*
X57160000Y-33420000D03*
X59700000Y-30880000D03*
X57160000Y-30880000D03*
X59700000Y-28340000D03*
X57160000Y-28340000D03*
X59700000Y-25800000D03*
X57160000Y-25800000D03*
X59700000Y-23260000D03*
X57160000Y-23260000D03*
X59700000Y-20720000D03*
X57160000Y-20720000D03*
X54560000Y-20720000D03*
X54560000Y-23260000D03*
X54560000Y-25800000D03*
X54560000Y-28340000D03*
X54560000Y-30880000D03*
X54560000Y-33420000D03*
X54560000Y-35960000D03*
X54560000Y-38500000D03*
X54560000Y-41040000D03*
X54560000Y-43580000D03*
X15500000Y-88500000D03*
X46950000Y-15270000D03*
X44410000Y-15270000D03*
X41870000Y-15270000D03*
X41920000Y-22890000D03*
X44460000Y-22890000D03*
X47000000Y-22890000D03*
X49540000Y-22890000D03*
X28993500Y-89840000D03*
X28993500Y-87300000D03*
X31533500Y-89840000D03*
X31533500Y-87300000D03*
X34073500Y-89840000D03*
X34073500Y-87300000D03*
X36613500Y-89840000D03*
X36613500Y-87300000D03*
X39153500Y-89840000D03*
X39153500Y-87300000D03*
X41693500Y-89840000D03*
X41693500Y-87300000D03*
X44233500Y-89840000D03*
X44233500Y-87300000D03*
X46773500Y-89840000D03*
X46773500Y-87300000D03*
X49313500Y-89840000D03*
X49313500Y-87300000D03*
X51853500Y-89840000D03*
X51853500Y-87300000D03*
X27627401Y-71200000D03*
X29627401Y-71200000D03*
X42360000Y-19500000D03*
X43630000Y-19500000D03*
X44900000Y-19500000D03*
X38725000Y-15400000D03*
X36185000Y-15400000D03*
X33645000Y-15400000D03*
X16900000Y-70000000D03*
X19440000Y-70000000D03*
X21980000Y-70000000D03*
X58500000Y-88500000D03*
X60000000Y-51500000D03*
X57460000Y-51500000D03*
X54920000Y-51500000D03*
X15500000Y-15500000D03*
M02*
